{
  "label": "BL3SS x CamrinWatsin - Kisses",
  "tempo": 142.0,
  "tracks": {
    "1": {
      "id": "1",
      "name": "Kick",
      "type": "MidiTrack",
      "group_id": "26",
      "devices": [
        {
          "type": "OriginalSimpler",
          "sample": "Kick.wav",
          "SampleStart": "0",
          "LoopMode": "0"
        },
        {
          "type": "Eq8",
          "bands": []
        }
      ],
      "clips": [
        {
          "bar_start": 16.0,
          "bar_end": 24.0,
          "name": "",
          "notes": [
            {
              "note": "C3",
              "pitch": 60,
              "beat": 0.0,
              "dur": 0.25,
              "vel": 127
            },
            {
              "note": "C3",
              "pitch": 60,
              "beat": 7.5,
              "dur": 0.25,
              "vel": 127
            },
            {
              "note": "C3",
              "pitch": 60,
              "beat": 8.0,
              "dur": 0.25,
              "vel": 127
            },
            {
              "note": "C3",
              "pitch": 60,
              "beat": 16.0,
              "dur": 0.25,
              "vel": 127
            },
            {
              "note": "C3",
              "pitch": 60,
              "beat": 18.0,
              "dur": 0.25,
              "vel": 127
            },
            {
              "note": "C3",
              "pitch": 60,
              "beat": 20.0,
              "dur": 0.25,
              "vel": 127
            },
            {
              "note": "C3",
              "pitch": 60,
              "beat": 22.0,
              "dur": 0.25,
              "vel": 127
            },
            {
              "note": "C3",
              "pitch": 60,
              "beat": 24.0,
              "dur": 0.25,
              "vel": 127
            },
            {
              "note": "C3",
              "pitch": 60,
              "beat": 25.0,
              "dur": 0.25,
              "vel": 127
            },
            {
              "note": "C3",
              "pitch": 60,
              "beat": 26.0,
              "dur": 0.25,
              "vel": 127
            },
            {
              "note": "C3",
              "pitch": 60,
              "beat": 27.0,
              "dur": 0.25,
              "vel": 127
            }
          ]
        },
        {
          "bar_start": 24.0,
          "bar_end": 31.0,
          "name": "",
          "notes": [
            {
              "note": "C3",
              "pitch": 60,
              "beat": 0.0,
              "dur": 0.25,
              "vel": 127
            },
            {
              "note": "C3",
              "pitch": 60,
              "beat": 1.0,
              "dur": 0.25,
              "vel": 127
            },
            {
              "note": "C3",
              "pitch": 60,
              "beat": 2.0,
              "dur": 0.25,
              "vel": 127
            },
            {
              "note": "C3",
              "pitch": 60,
              "beat": 3.0,
              "dur": 0.25,
              "vel": 127
            },
            {
              "note": "C3",
              "pitch": 60,
              "beat": 4.0,
              "dur": 0.25,
              "vel": 127
            },
            {
              "note": "C3",
              "pitch": 60,
              "beat": 5.0,
              "dur": 0.25,
              "vel": 127
            },
            {
              "note": "C3",
              "pitch": 60,
              "beat": 6.0,
              "dur": 0.25,
              "vel": 127
            },
            {
              "note": "C3",
              "pitch": 60,
              "beat": 7.0,
              "dur": 0.25,
              "vel": 127
            },
            {
              "note": "C3",
              "pitch": 60,
              "beat": 8.0,
              "dur": 0.25,
              "vel": 127
            },
            {
              "note": "C3",
              "pitch": 60,
              "beat": 9.0,
              "dur": 0.25,
              "vel": 127
            },
            {
              "note": "C3",
              "pitch": 60,
              "beat": 10.0,
              "dur": 0.25,
              "vel": 127
            },
            {
              "note": "C3",
              "pitch": 60,
              "beat": 11.0,
              "dur": 0.25,
              "vel": 127
            },
            {
              "note": "C3",
              "pitch": 60,
              "beat": 12.0,
              "dur": 0.25,
              "vel": 127
            },
            {
              "note": "C3",
              "pitch": 60,
              "beat": 13.0,
              "dur": 0.25,
              "vel": 127
            },
            {
              "note": "C3",
              "pitch": 60,
              "beat": 14.0,
              "dur": 0.25,
              "vel": 127
            },
            {
              "note": "C3",
              "pitch": 60,
              "beat": 15.0,
              "dur": 0.25,
              "vel": 127
            }
          ]
        },
        {
          "bar_start": 32.0,
          "bar_end": 39.0,
          "name": "",
          "notes": [
            {
              "note": "C3",
              "pitch": 60,
              "beat": 0.0,
              "dur": 0.25,
              "vel": 127
            },
            {
              "note": "C3",
              "pitch": 60,
              "beat": 1.0,
              "dur": 0.25,
              "vel": 127
            },
            {
              "note": "C3",
              "pitch": 60,
              "beat": 2.0,
              "dur": 0.25,
              "vel": 127
            },
            {
              "note": "C3",
              "pitch": 60,
              "beat": 3.0,
              "dur": 0.25,
              "vel": 127
            },
            {
              "note": "C3",
              "pitch": 60,
              "beat": 4.0,
              "dur": 0.25,
              "vel": 127
            },
            {
              "note": "C3",
              "pitch": 60,
              "beat": 5.0,
              "dur": 0.25,
              "vel": 127
            },
            {
              "note": "C3",
              "pitch": 60,
              "beat": 6.0,
              "dur": 0.25,
              "vel": 127
            },
            {
              "note": "C3",
              "pitch": 60,
              "beat": 7.0,
              "dur": 0.25,
              "vel": 127
            },
            {
              "note": "C3",
              "pitch": 60,
              "beat": 8.0,
              "dur": 0.25,
              "vel": 127
            },
            {
              "note": "C3",
              "pitch": 60,
              "beat": 9.0,
              "dur": 0.25,
              "vel": 127
            },
            {
              "note": "C3",
              "pitch": 60,
              "beat": 10.0,
              "dur": 0.25,
              "vel": 127
            },
            {
              "note": "C3",
              "pitch": 60,
              "beat": 11.0,
              "dur": 0.25,
              "vel": 127
            },
            {
              "note": "C3",
              "pitch": 60,
              "beat": 12.0,
              "dur": 0.25,
              "vel": 127
            },
            {
              "note": "C3",
              "pitch": 60,
              "beat": 13.0,
              "dur": 0.25,
              "vel": 127
            },
            {
              "note": "C3",
              "pitch": 60,
              "beat": 14.0,
              "dur": 0.25,
              "vel": 127
            },
            {
              "note": "C3",
              "pitch": 60,
              "beat": 15.0,
              "dur": 0.25,
              "vel": 127
            }
          ]
        },
        {
          "bar_start": 39.5,
          "bar_end": 40.0,
          "name": "",
          "notes": [
            {
              "note": "C3",
              "pitch": 60,
              "beat": 0.0,
              "dur": 0.25,
              "vel": 127
            },
            {
              "note": "C3",
              "pitch": 60,
              "beat": 0.75,
              "dur": 0.25,
              "vel": 127
            },
            {
              "note": "C3",
              "pitch": 60,
              "beat": 1.5,
              "dur": 0.25,
              "vel": 127
            }
          ]
        },
        {
          "bar_start": 40.0,
          "bar_end": 47.0,
          "name": "",
          "notes": [
            {
              "note": "C3",
              "pitch": 60,
              "beat": 0.0,
              "dur": 0.25,
              "vel": 127
            },
            {
              "note": "C3",
              "pitch": 60,
              "beat": 1.0,
              "dur": 0.25,
              "vel": 127
            },
            {
              "note": "C3",
              "pitch": 60,
              "beat": 2.0,
              "dur": 0.25,
              "vel": 127
            },
            {
              "note": "C3",
              "pitch": 60,
              "beat": 3.0,
              "dur": 0.25,
              "vel": 127
            },
            {
              "note": "C3",
              "pitch": 60,
              "beat": 4.0,
              "dur": 0.25,
              "vel": 127
            },
            {
              "note": "C3",
              "pitch": 60,
              "beat": 5.0,
              "dur": 0.25,
              "vel": 127
            },
            {
              "note": "C3",
              "pitch": 60,
              "beat": 6.0,
              "dur": 0.25,
              "vel": 127
            },
            {
              "note": "C3",
              "pitch": 60,
              "beat": 7.0,
              "dur": 0.25,
              "vel": 127
            },
            {
              "note": "C3",
              "pitch": 60,
              "beat": 8.0,
              "dur": 0.25,
              "vel": 127
            },
            {
              "note": "C3",
              "pitch": 60,
              "beat": 9.0,
              "dur": 0.25,
              "vel": 127
            },
            {
              "note": "C3",
              "pitch": 60,
              "beat": 10.0,
              "dur": 0.25,
              "vel": 127
            },
            {
              "note": "C3",
              "pitch": 60,
              "beat": 11.0,
              "dur": 0.25,
              "vel": 127
            },
            {
              "note": "C3",
              "pitch": 60,
              "beat": 12.0,
              "dur": 0.25,
              "vel": 127
            },
            {
              "note": "C3",
              "pitch": 60,
              "beat": 13.0,
              "dur": 0.25,
              "vel": 127
            },
            {
              "note": "C3",
              "pitch": 60,
              "beat": 14.0,
              "dur": 0.25,
              "vel": 127
            },
            {
              "note": "C3",
              "pitch": 60,
              "beat": 15.0,
              "dur": 0.25,
              "vel": 127
            }
          ]
        },
        {
          "bar_start": 56.0,
          "bar_end": 64.0,
          "name": "",
          "notes": [
            {
              "note": "C3",
              "pitch": 60,
              "beat": 0.0,
              "dur": 0.25,
              "vel": 127
            },
            {
              "note": "C3",
              "pitch": 60,
              "beat": 4.0,
              "dur": 0.25,
              "vel": 127
            },
            {
              "note": "C3",
              "pitch": 60,
              "beat": 8.0,
              "dur": 0.25,
              "vel": 127
            },
            {
              "note": "C3",
              "pitch": 60,
              "beat": 12.0,
              "dur": 0.25,
              "vel": 127
            },
            {
              "note": "C3",
              "pitch": 60,
              "beat": 16.0,
              "dur": 0.25,
              "vel": 127
            },
            {
              "note": "C3",
              "pitch": 60,
              "beat": 18.0,
              "dur": 0.25,
              "vel": 127
            },
            {
              "note": "C3",
              "pitch": 60,
              "beat": 20.0,
              "dur": 0.25,
              "vel": 127
            },
            {
              "note": "C3",
              "pitch": 60,
              "beat": 22.0,
              "dur": 0.25,
              "vel": 127
            },
            {
              "note": "C3",
              "pitch": 60,
              "beat": 24.0,
              "dur": 0.25,
              "vel": 127
            },
            {
              "note": "C3",
              "pitch": 60,
              "beat": 25.0,
              "dur": 0.25,
              "vel": 127
            },
            {
              "note": "C3",
              "pitch": 60,
              "beat": 26.0,
              "dur": 0.25,
              "vel": 127
            },
            {
              "note": "C3",
              "pitch": 60,
              "beat": 27.0,
              "dur": 0.25,
              "vel": 127
            },
            {
              "note": "C3",
              "pitch": 60,
              "beat": 31.0,
              "dur": 0.25,
              "vel": 127
            },
            {
              "note": "C3",
              "pitch": 60,
              "beat": 31.5,
              "dur": 0.25,
              "vel": 127
            }
          ]
        },
        {
          "bar_start": 64.0,
          "bar_end": 71.0,
          "name": "",
          "notes": [
            {
              "note": "C3",
              "pitch": 60,
              "beat": 0.0,
              "dur": 0.25,
              "vel": 127
            },
            {
              "note": "C3",
              "pitch": 60,
              "beat": 1.0,
              "dur": 0.25,
              "vel": 127
            },
            {
              "note": "C3",
              "pitch": 60,
              "beat": 2.0,
              "dur": 0.25,
              "vel": 127
            },
            {
              "note": "C3",
              "pitch": 60,
              "beat": 3.0,
              "dur": 0.25,
              "vel": 127
            },
            {
              "note": "C3",
              "pitch": 60,
              "beat": 4.0,
              "dur": 0.25,
              "vel": 127
            },
            {
              "note": "C3",
              "pitch": 60,
              "beat": 5.0,
              "dur": 0.25,
              "vel": 127
            },
            {
              "note": "C3",
              "pitch": 60,
              "beat": 6.0,
              "dur": 0.25,
              "vel": 127
            },
            {
              "note": "C3",
              "pitch": 60,
              "beat": 7.0,
              "dur": 0.25,
              "vel": 127
            },
            {
              "note": "C3",
              "pitch": 60,
              "beat": 8.0,
              "dur": 0.25,
              "vel": 127
            },
            {
              "note": "C3",
              "pitch": 60,
              "beat": 9.0,
              "dur": 0.25,
              "vel": 127
            },
            {
              "note": "C3",
              "pitch": 60,
              "beat": 10.0,
              "dur": 0.25,
              "vel": 127
            },
            {
              "note": "C3",
              "pitch": 60,
              "beat": 11.0,
              "dur": 0.25,
              "vel": 127
            },
            {
              "note": "C3",
              "pitch": 60,
              "beat": 12.0,
              "dur": 0.25,
              "vel": 127
            },
            {
              "note": "C3",
              "pitch": 60,
              "beat": 13.0,
              "dur": 0.25,
              "vel": 127
            },
            {
              "note": "C3",
              "pitch": 60,
              "beat": 14.0,
              "dur": 0.25,
              "vel": 127
            },
            {
              "note": "C3",
              "pitch": 60,
              "beat": 15.0,
              "dur": 0.25,
              "vel": 127
            }
          ]
        },
        {
          "bar_start": 72.0,
          "bar_end": 79.0,
          "name": "",
          "notes": [
            {
              "note": "C3",
              "pitch": 60,
              "beat": 0.0,
              "dur": 0.25,
              "vel": 127
            },
            {
              "note": "C3",
              "pitch": 60,
              "beat": 1.0,
              "dur": 0.25,
              "vel": 127
            },
            {
              "note": "C3",
              "pitch": 60,
              "beat": 2.0,
              "dur": 0.25,
              "vel": 127
            },
            {
              "note": "C3",
              "pitch": 60,
              "beat": 3.0,
              "dur": 0.25,
              "vel": 127
            },
            {
              "note": "C3",
              "pitch": 60,
              "beat": 4.0,
              "dur": 0.25,
              "vel": 127
            },
            {
              "note": "C3",
              "pitch": 60,
              "beat": 5.0,
              "dur": 0.25,
              "vel": 127
            },
            {
              "note": "C3",
              "pitch": 60,
              "beat": 6.0,
              "dur": 0.25,
              "vel": 127
            },
            {
              "note": "C3",
              "pitch": 60,
              "beat": 7.0,
              "dur": 0.25,
              "vel": 127
            },
            {
              "note": "C3",
              "pitch": 60,
              "beat": 8.0,
              "dur": 0.25,
              "vel": 127
            },
            {
              "note": "C3",
              "pitch": 60,
              "beat": 9.0,
              "dur": 0.25,
              "vel": 127
            },
            {
              "note": "C3",
              "pitch": 60,
              "beat": 10.0,
              "dur": 0.25,
              "vel": 127
            },
            {
              "note": "C3",
              "pitch": 60,
              "beat": 11.0,
              "dur": 0.25,
              "vel": 127
            },
            {
              "note": "C3",
              "pitch": 60,
              "beat": 12.0,
              "dur": 0.25,
              "vel": 127
            },
            {
              "note": "C3",
              "pitch": 60,
              "beat": 13.0,
              "dur": 0.25,
              "vel": 127
            },
            {
              "note": "C3",
              "pitch": 60,
              "beat": 14.0,
              "dur": 0.25,
              "vel": 127
            },
            {
              "note": "C3",
              "pitch": 60,
              "beat": 15.0,
              "dur": 0.25,
              "vel": 127
            }
          ]
        }
      ],
      "automations": [],
      "children": []
    },
    "2": {
      "id": "2",
      "name": "Clap",
      "type": "MidiTrack",
      "group_id": "26",
      "devices": [
        {
          "type": "OriginalSimpler",
          "sample": "Clap.wav",
          "SampleStart": "0",
          "LoopMode": "0"
        },
        {
          "type": "Eq8",
          "bands": []
        },
        {
          "type": "Eq8",
          "bands": []
        },
        {
          "type": "Reverb",
          "PreDelay": "7.99999094",
          "RoomSize": "2",
          "DecayTime": "1279.60938",
          "FreezeOn": "false"
        }
      ],
      "clips": [
        {
          "bar_start": 32.0,
          "bar_end": 48.0,
          "name": "",
          "notes": [
            {
              "note": "A#2",
              "pitch": 58,
              "beat": 1.0,
              "dur": 0.5,
              "vel": 127
            },
            {
              "note": "A#2",
              "pitch": 58,
              "beat": 3.0,
              "dur": 0.5,
              "vel": 127
            },
            {
              "note": "A#2",
              "pitch": 58,
              "beat": 5.0,
              "dur": 0.5,
              "vel": 127
            },
            {
              "note": "A#2",
              "pitch": 58,
              "beat": 7.0,
              "dur": 0.5,
              "vel": 127
            },
            {
              "note": "A#2",
              "pitch": 58,
              "beat": 9.0,
              "dur": 0.5,
              "vel": 127
            },
            {
              "note": "A#2",
              "pitch": 58,
              "beat": 11.0,
              "dur": 0.5,
              "vel": 127
            },
            {
              "note": "A#2",
              "pitch": 58,
              "beat": 13.0,
              "dur": 0.5,
              "vel": 127
            },
            {
              "note": "A#2",
              "pitch": 58,
              "beat": 15.0,
              "dur": 0.5,
              "vel": 127
            }
          ]
        },
        {
          "bar_start": 56.0,
          "bar_end": 63.0,
          "name": "",
          "notes": [
            {
              "note": "A#2",
              "pitch": 58,
              "beat": 1.0,
              "dur": 0.5,
              "vel": 127
            },
            {
              "note": "A#2",
              "pitch": 58,
              "beat": 3.0,
              "dur": 0.5,
              "vel": 127
            },
            {
              "note": "A#2",
              "pitch": 58,
              "beat": 5.0,
              "dur": 0.5,
              "vel": 127
            },
            {
              "note": "A#2",
              "pitch": 58,
              "beat": 7.0,
              "dur": 0.5,
              "vel": 127
            },
            {
              "note": "A#2",
              "pitch": 58,
              "beat": 9.0,
              "dur": 0.5,
              "vel": 127
            },
            {
              "note": "A#2",
              "pitch": 58,
              "beat": 11.0,
              "dur": 0.5,
              "vel": 127
            },
            {
              "note": "A#2",
              "pitch": 58,
              "beat": 13.0,
              "dur": 0.5,
              "vel": 127
            },
            {
              "note": "A#2",
              "pitch": 58,
              "beat": 15.0,
              "dur": 0.5,
              "vel": 127
            }
          ]
        },
        {
          "bar_start": 64.0,
          "bar_end": 80.0,
          "name": "",
          "notes": [
            {
              "note": "A#2",
              "pitch": 58,
              "beat": 1.0,
              "dur": 0.5,
              "vel": 127
            },
            {
              "note": "A#2",
              "pitch": 58,
              "beat": 3.0,
              "dur": 0.5,
              "vel": 127
            },
            {
              "note": "A#2",
              "pitch": 58,
              "beat": 5.0,
              "dur": 0.5,
              "vel": 127
            },
            {
              "note": "A#2",
              "pitch": 58,
              "beat": 7.0,
              "dur": 0.5,
              "vel": 127
            },
            {
              "note": "A#2",
              "pitch": 58,
              "beat": 9.0,
              "dur": 0.5,
              "vel": 127
            },
            {
              "note": "A#2",
              "pitch": 58,
              "beat": 11.0,
              "dur": 0.5,
              "vel": 127
            },
            {
              "note": "A#2",
              "pitch": 58,
              "beat": 13.0,
              "dur": 0.5,
              "vel": 127
            },
            {
              "note": "A#2",
              "pitch": 58,
              "beat": 15.0,
              "dur": 0.5,
              "vel": 127
            }
          ]
        }
      ],
      "automations": [],
      "children": []
    },
    "3": {
      "id": "3",
      "name": "Hat",
      "type": "MidiTrack",
      "group_id": "26",
      "devices": [
        {
          "type": "OriginalSimpler",
          "sample": "Hat.wav",
          "SampleStart": "0",
          "LoopMode": "0"
        },
        {
          "type": "Eq8",
          "bands": []
        },
        {
          "type": "StereoGain",
          "On": "true",
          "PhaseInvertL": "false",
          "PhaseInvertR": "false",
          "ChannelMode": "1",
          "StereoWidth": "1",
          "MidSideBalance": "0",
          "Mono": "false",
          "BassMono": "false",
          "BassMonoFrequency": "120",
          "Balance": "0",
          "Gain": "1",
          "LegacyGain": "0",
          "Mute": "false",
          "DcFilter": "false"
        }
      ],
      "clips": [
        {
          "bar_start": 32.0,
          "bar_end": 48.0,
          "name": "",
          "notes": [
            {
              "note": "C3",
              "pitch": 60,
              "beat": 0.0,
              "dur": 0.25,
              "vel": 93
            },
            {
              "note": "C3",
              "pitch": 60,
              "beat": 0.25,
              "dur": 0.25,
              "vel": 110
            },
            {
              "note": "C3",
              "pitch": 60,
              "beat": 0.5,
              "dur": 0.25,
              "vel": 127
            },
            {
              "note": "C3",
              "pitch": 60,
              "beat": 0.75,
              "dur": 0.25,
              "vel": 113
            },
            {
              "note": "C3",
              "pitch": 60,
              "beat": 1.0,
              "dur": 0.25,
              "vel": 93
            },
            {
              "note": "C3",
              "pitch": 60,
              "beat": 1.25,
              "dur": 0.25,
              "vel": 110
            },
            {
              "note": "C3",
              "pitch": 60,
              "beat": 1.5,
              "dur": 0.25,
              "vel": 127
            },
            {
              "note": "C3",
              "pitch": 60,
              "beat": 1.75,
              "dur": 0.25,
              "vel": 113
            },
            {
              "note": "C3",
              "pitch": 60,
              "beat": 2.0,
              "dur": 0.25,
              "vel": 93
            },
            {
              "note": "C3",
              "pitch": 60,
              "beat": 2.25,
              "dur": 0.25,
              "vel": 110
            },
            {
              "note": "C3",
              "pitch": 60,
              "beat": 2.5,
              "dur": 0.25,
              "vel": 127
            },
            {
              "note": "C3",
              "pitch": 60,
              "beat": 2.75,
              "dur": 0.25,
              "vel": 113
            },
            {
              "note": "C3",
              "pitch": 60,
              "beat": 3.0,
              "dur": 0.25,
              "vel": 93
            },
            {
              "note": "C3",
              "pitch": 60,
              "beat": 3.25,
              "dur": 0.25,
              "vel": 110
            },
            {
              "note": "C3",
              "pitch": 60,
              "beat": 3.5,
              "dur": 0.25,
              "vel": 127
            },
            {
              "note": "C3",
              "pitch": 60,
              "beat": 3.75,
              "dur": 0.25,
              "vel": 113
            },
            {
              "note": "C3",
              "pitch": 60,
              "beat": 4.0,
              "dur": 0.25,
              "vel": 93
            },
            {
              "note": "C3",
              "pitch": 60,
              "beat": 4.25,
              "dur": 0.25,
              "vel": 110
            },
            {
              "note": "C3",
              "pitch": 60,
              "beat": 4.5,
              "dur": 0.25,
              "vel": 127
            },
            {
              "note": "C3",
              "pitch": 60,
              "beat": 4.75,
              "dur": 0.25,
              "vel": 113
            },
            {
              "note": "C3",
              "pitch": 60,
              "beat": 5.0,
              "dur": 0.25,
              "vel": 93
            },
            {
              "note": "C3",
              "pitch": 60,
              "beat": 5.25,
              "dur": 0.25,
              "vel": 110
            },
            {
              "note": "C3",
              "pitch": 60,
              "beat": 5.5,
              "dur": 0.25,
              "vel": 127
            },
            {
              "note": "C3",
              "pitch": 60,
              "beat": 5.75,
              "dur": 0.25,
              "vel": 113
            },
            {
              "note": "C3",
              "pitch": 60,
              "beat": 6.0,
              "dur": 0.25,
              "vel": 93
            },
            {
              "note": "C3",
              "pitch": 60,
              "beat": 6.25,
              "dur": 0.25,
              "vel": 110
            },
            {
              "note": "C3",
              "pitch": 60,
              "beat": 6.5,
              "dur": 0.25,
              "vel": 127
            },
            {
              "note": "C3",
              "pitch": 60,
              "beat": 6.75,
              "dur": 0.25,
              "vel": 113
            },
            {
              "note": "C3",
              "pitch": 60,
              "beat": 7.0,
              "dur": 0.25,
              "vel": 93
            },
            {
              "note": "C3",
              "pitch": 60,
              "beat": 7.25,
              "dur": 0.25,
              "vel": 110
            },
            {
              "note": "C3",
              "pitch": 60,
              "beat": 7.5,
              "dur": 0.25,
              "vel": 127
            },
            {
              "note": "C3",
              "pitch": 60,
              "beat": 7.75,
              "dur": 0.25,
              "vel": 113
            },
            {
              "note": "C3",
              "pitch": 60,
              "beat": 8.0,
              "dur": 0.25,
              "vel": 93
            },
            {
              "note": "C3",
              "pitch": 60,
              "beat": 8.25,
              "dur": 0.25,
              "vel": 110
            },
            {
              "note": "C3",
              "pitch": 60,
              "beat": 8.5,
              "dur": 0.25,
              "vel": 127
            },
            {
              "note": "C3",
              "pitch": 60,
              "beat": 8.75,
              "dur": 0.25,
              "vel": 113
            },
            {
              "note": "C3",
              "pitch": 60,
              "beat": 9.0,
              "dur": 0.25,
              "vel": 93
            },
            {
              "note": "C3",
              "pitch": 60,
              "beat": 9.25,
              "dur": 0.25,
              "vel": 110
            },
            {
              "note": "C3",
              "pitch": 60,
              "beat": 9.5,
              "dur": 0.25,
              "vel": 127
            },
            {
              "note": "C3",
              "pitch": 60,
              "beat": 9.75,
              "dur": 0.25,
              "vel": 113
            },
            {
              "note": "C3",
              "pitch": 60,
              "beat": 10.0,
              "dur": 0.25,
              "vel": 93
            },
            {
              "note": "C3",
              "pitch": 60,
              "beat": 10.25,
              "dur": 0.25,
              "vel": 110
            },
            {
              "note": "C3",
              "pitch": 60,
              "beat": 10.5,
              "dur": 0.25,
              "vel": 127
            },
            {
              "note": "C3",
              "pitch": 60,
              "beat": 10.75,
              "dur": 0.25,
              "vel": 113
            },
            {
              "note": "C3",
              "pitch": 60,
              "beat": 11.0,
              "dur": 0.25,
              "vel": 93
            },
            {
              "note": "C3",
              "pitch": 60,
              "beat": 11.25,
              "dur": 0.25,
              "vel": 110
            },
            {
              "note": "C3",
              "pitch": 60,
              "beat": 11.5,
              "dur": 0.25,
              "vel": 127
            },
            {
              "note": "C3",
              "pitch": 60,
              "beat": 11.75,
              "dur": 0.25,
              "vel": 113
            },
            {
              "note": "C3",
              "pitch": 60,
              "beat": 12.0,
              "dur": 0.25,
              "vel": 93
            },
            {
              "note": "C3",
              "pitch": 60,
              "beat": 12.25,
              "dur": 0.25,
              "vel": 110
            },
            {
              "note": "C3",
              "pitch": 60,
              "beat": 12.5,
              "dur": 0.25,
              "vel": 127
            },
            {
              "note": "C3",
              "pitch": 60,
              "beat": 12.75,
              "dur": 0.25,
              "vel": 113
            },
            {
              "note": "C3",
              "pitch": 60,
              "beat": 13.0,
              "dur": 0.25,
              "vel": 93
            },
            {
              "note": "C3",
              "pitch": 60,
              "beat": 13.25,
              "dur": 0.25,
              "vel": 110
            },
            {
              "note": "C3",
              "pitch": 60,
              "beat": 13.5,
              "dur": 0.25,
              "vel": 127
            },
            {
              "note": "C3",
              "pitch": 60,
              "beat": 13.75,
              "dur": 0.25,
              "vel": 113
            },
            {
              "note": "C3",
              "pitch": 60,
              "beat": 14.0,
              "dur": 0.25,
              "vel": 93
            },
            {
              "note": "C3",
              "pitch": 60,
              "beat": 14.25,
              "dur": 0.25,
              "vel": 110
            },
            {
              "note": "C3",
              "pitch": 60,
              "beat": 14.5,
              "dur": 0.25,
              "vel": 127
            },
            {
              "note": "C3",
              "pitch": 60,
              "beat": 14.75,
              "dur": 0.25,
              "vel": 113
            },
            {
              "note": "C3",
              "pitch": 60,
              "beat": 15.0,
              "dur": 0.25,
              "vel": 93
            },
            {
              "note": "C3",
              "pitch": 60,
              "beat": 15.25,
              "dur": 0.25,
              "vel": 110
            },
            {
              "note": "C3",
              "pitch": 60,
              "beat": 15.5,
              "dur": 0.25,
              "vel": 127
            },
            {
              "note": "C3",
              "pitch": 60,
              "beat": 15.75,
              "dur": 0.25,
              "vel": 113
            }
          ]
        },
        {
          "bar_start": 64.0,
          "bar_end": 80.0,
          "name": "",
          "notes": [
            {
              "note": "C3",
              "pitch": 60,
              "beat": 0.0,
              "dur": 0.25,
              "vel": 93
            },
            {
              "note": "C3",
              "pitch": 60,
              "beat": 0.25,
              "dur": 0.25,
              "vel": 110
            },
            {
              "note": "C3",
              "pitch": 60,
              "beat": 0.5,
              "dur": 0.25,
              "vel": 127
            },
            {
              "note": "C3",
              "pitch": 60,
              "beat": 0.75,
              "dur": 0.25,
              "vel": 113
            },
            {
              "note": "C3",
              "pitch": 60,
              "beat": 1.0,
              "dur": 0.25,
              "vel": 93
            },
            {
              "note": "C3",
              "pitch": 60,
              "beat": 1.25,
              "dur": 0.25,
              "vel": 110
            },
            {
              "note": "C3",
              "pitch": 60,
              "beat": 1.5,
              "dur": 0.25,
              "vel": 127
            },
            {
              "note": "C3",
              "pitch": 60,
              "beat": 1.75,
              "dur": 0.25,
              "vel": 113
            },
            {
              "note": "C3",
              "pitch": 60,
              "beat": 2.0,
              "dur": 0.25,
              "vel": 93
            },
            {
              "note": "C3",
              "pitch": 60,
              "beat": 2.25,
              "dur": 0.25,
              "vel": 110
            },
            {
              "note": "C3",
              "pitch": 60,
              "beat": 2.5,
              "dur": 0.25,
              "vel": 127
            },
            {
              "note": "C3",
              "pitch": 60,
              "beat": 2.75,
              "dur": 0.25,
              "vel": 113
            },
            {
              "note": "C3",
              "pitch": 60,
              "beat": 3.0,
              "dur": 0.25,
              "vel": 93
            },
            {
              "note": "C3",
              "pitch": 60,
              "beat": 3.25,
              "dur": 0.25,
              "vel": 110
            },
            {
              "note": "C3",
              "pitch": 60,
              "beat": 3.5,
              "dur": 0.25,
              "vel": 127
            },
            {
              "note": "C3",
              "pitch": 60,
              "beat": 3.75,
              "dur": 0.25,
              "vel": 113
            },
            {
              "note": "C3",
              "pitch": 60,
              "beat": 4.0,
              "dur": 0.25,
              "vel": 93
            },
            {
              "note": "C3",
              "pitch": 60,
              "beat": 4.25,
              "dur": 0.25,
              "vel": 110
            },
            {
              "note": "C3",
              "pitch": 60,
              "beat": 4.5,
              "dur": 0.25,
              "vel": 127
            },
            {
              "note": "C3",
              "pitch": 60,
              "beat": 4.75,
              "dur": 0.25,
              "vel": 113
            },
            {
              "note": "C3",
              "pitch": 60,
              "beat": 5.0,
              "dur": 0.25,
              "vel": 93
            },
            {
              "note": "C3",
              "pitch": 60,
              "beat": 5.25,
              "dur": 0.25,
              "vel": 110
            },
            {
              "note": "C3",
              "pitch": 60,
              "beat": 5.5,
              "dur": 0.25,
              "vel": 127
            },
            {
              "note": "C3",
              "pitch": 60,
              "beat": 5.75,
              "dur": 0.25,
              "vel": 113
            },
            {
              "note": "C3",
              "pitch": 60,
              "beat": 6.0,
              "dur": 0.25,
              "vel": 93
            },
            {
              "note": "C3",
              "pitch": 60,
              "beat": 6.25,
              "dur": 0.25,
              "vel": 110
            },
            {
              "note": "C3",
              "pitch": 60,
              "beat": 6.5,
              "dur": 0.25,
              "vel": 127
            },
            {
              "note": "C3",
              "pitch": 60,
              "beat": 6.75,
              "dur": 0.25,
              "vel": 113
            },
            {
              "note": "C3",
              "pitch": 60,
              "beat": 7.0,
              "dur": 0.25,
              "vel": 93
            },
            {
              "note": "C3",
              "pitch": 60,
              "beat": 7.25,
              "dur": 0.25,
              "vel": 110
            },
            {
              "note": "C3",
              "pitch": 60,
              "beat": 7.5,
              "dur": 0.25,
              "vel": 127
            },
            {
              "note": "C3",
              "pitch": 60,
              "beat": 7.75,
              "dur": 0.25,
              "vel": 113
            },
            {
              "note": "C3",
              "pitch": 60,
              "beat": 8.0,
              "dur": 0.25,
              "vel": 93
            },
            {
              "note": "C3",
              "pitch": 60,
              "beat": 8.25,
              "dur": 0.25,
              "vel": 110
            },
            {
              "note": "C3",
              "pitch": 60,
              "beat": 8.5,
              "dur": 0.25,
              "vel": 127
            },
            {
              "note": "C3",
              "pitch": 60,
              "beat": 8.75,
              "dur": 0.25,
              "vel": 113
            },
            {
              "note": "C3",
              "pitch": 60,
              "beat": 9.0,
              "dur": 0.25,
              "vel": 93
            },
            {
              "note": "C3",
              "pitch": 60,
              "beat": 9.25,
              "dur": 0.25,
              "vel": 110
            },
            {
              "note": "C3",
              "pitch": 60,
              "beat": 9.5,
              "dur": 0.25,
              "vel": 127
            },
            {
              "note": "C3",
              "pitch": 60,
              "beat": 9.75,
              "dur": 0.25,
              "vel": 113
            },
            {
              "note": "C3",
              "pitch": 60,
              "beat": 10.0,
              "dur": 0.25,
              "vel": 93
            },
            {
              "note": "C3",
              "pitch": 60,
              "beat": 10.25,
              "dur": 0.25,
              "vel": 110
            },
            {
              "note": "C3",
              "pitch": 60,
              "beat": 10.5,
              "dur": 0.25,
              "vel": 127
            },
            {
              "note": "C3",
              "pitch": 60,
              "beat": 10.75,
              "dur": 0.25,
              "vel": 113
            },
            {
              "note": "C3",
              "pitch": 60,
              "beat": 11.0,
              "dur": 0.25,
              "vel": 93
            },
            {
              "note": "C3",
              "pitch": 60,
              "beat": 11.25,
              "dur": 0.25,
              "vel": 110
            },
            {
              "note": "C3",
              "pitch": 60,
              "beat": 11.5,
              "dur": 0.25,
              "vel": 127
            },
            {
              "note": "C3",
              "pitch": 60,
              "beat": 11.75,
              "dur": 0.25,
              "vel": 113
            },
            {
              "note": "C3",
              "pitch": 60,
              "beat": 12.0,
              "dur": 0.25,
              "vel": 93
            },
            {
              "note": "C3",
              "pitch": 60,
              "beat": 12.25,
              "dur": 0.25,
              "vel": 110
            },
            {
              "note": "C3",
              "pitch": 60,
              "beat": 12.5,
              "dur": 0.25,
              "vel": 127
            },
            {
              "note": "C3",
              "pitch": 60,
              "beat": 12.75,
              "dur": 0.25,
              "vel": 113
            },
            {
              "note": "C3",
              "pitch": 60,
              "beat": 13.0,
              "dur": 0.25,
              "vel": 93
            },
            {
              "note": "C3",
              "pitch": 60,
              "beat": 13.25,
              "dur": 0.25,
              "vel": 110
            },
            {
              "note": "C3",
              "pitch": 60,
              "beat": 13.5,
              "dur": 0.25,
              "vel": 127
            },
            {
              "note": "C3",
              "pitch": 60,
              "beat": 13.75,
              "dur": 0.25,
              "vel": 113
            },
            {
              "note": "C3",
              "pitch": 60,
              "beat": 14.0,
              "dur": 0.25,
              "vel": 93
            },
            {
              "note": "C3",
              "pitch": 60,
              "beat": 14.25,
              "dur": 0.25,
              "vel": 110
            },
            {
              "note": "C3",
              "pitch": 60,
              "beat": 14.5,
              "dur": 0.25,
              "vel": 127
            },
            {
              "note": "C3",
              "pitch": 60,
              "beat": 14.75,
              "dur": 0.25,
              "vel": 113
            },
            {
              "note": "C3",
              "pitch": 60,
              "beat": 15.0,
              "dur": 0.25,
              "vel": 93
            },
            {
              "note": "C3",
              "pitch": 60,
              "beat": 15.25,
              "dur": 0.25,
              "vel": 110
            },
            {
              "note": "C3",
              "pitch": 60,
              "beat": 15.5,
              "dur": 0.25,
              "vel": 127
            },
            {
              "note": "C3",
              "pitch": 60,
              "beat": 15.75,
              "dur": 0.25,
              "vel": 113
            }
          ]
        }
      ],
      "automations": [],
      "children": []
    },
    "4": {
      "id": "4",
      "name": "Open Hat 1",
      "type": "MidiTrack",
      "group_id": "26",
      "devices": [
        {
          "type": "OriginalSimpler",
          "sample": "Open Hat 1.wav",
          "SampleStart": "0",
          "LoopMode": "0"
        },
        {
          "type": "Eq8",
          "bands": []
        },
        {
          "type": "DrumBuss",
          "DryWet": "0.453125"
        },
        {
          "type": "Overdrive",
          "Drive": "50",
          "DryWet": "6.25"
        },
        {
          "type": "StereoGain",
          "On": "true",
          "PhaseInvertL": "false",
          "PhaseInvertR": "false",
          "ChannelMode": "1",
          "StereoWidth": "1",
          "MidSideBalance": "0",
          "Mono": "false",
          "BassMono": "false",
          "BassMonoFrequency": "120",
          "Balance": "0",
          "Gain": "1",
          "LegacyGain": "0",
          "Mute": "false",
          "DcFilter": "false"
        }
      ],
      "clips": [
        {
          "bar_start": 32.0,
          "bar_end": 48.0,
          "name": "",
          "notes": [
            {
              "note": "C3",
              "pitch": 60,
              "beat": 0.5,
              "dur": 0.25,
              "vel": 100
            },
            {
              "note": "C3",
              "pitch": 60,
              "beat": 1.5,
              "dur": 0.25,
              "vel": 100
            },
            {
              "note": "C3",
              "pitch": 60,
              "beat": 2.5,
              "dur": 0.25,
              "vel": 100
            },
            {
              "note": "C3",
              "pitch": 60,
              "beat": 3.5,
              "dur": 0.25,
              "vel": 100
            },
            {
              "note": "C3",
              "pitch": 60,
              "beat": 4.5,
              "dur": 0.25,
              "vel": 100
            },
            {
              "note": "C3",
              "pitch": 60,
              "beat": 5.5,
              "dur": 0.25,
              "vel": 100
            },
            {
              "note": "C3",
              "pitch": 60,
              "beat": 6.5,
              "dur": 0.25,
              "vel": 100
            },
            {
              "note": "C3",
              "pitch": 60,
              "beat": 7.5,
              "dur": 0.25,
              "vel": 100
            },
            {
              "note": "C3",
              "pitch": 60,
              "beat": 8.5,
              "dur": 0.25,
              "vel": 100
            },
            {
              "note": "C3",
              "pitch": 60,
              "beat": 9.5,
              "dur": 0.25,
              "vel": 100
            },
            {
              "note": "C3",
              "pitch": 60,
              "beat": 10.5,
              "dur": 0.25,
              "vel": 100
            },
            {
              "note": "C3",
              "pitch": 60,
              "beat": 11.5,
              "dur": 0.25,
              "vel": 100
            },
            {
              "note": "C3",
              "pitch": 60,
              "beat": 12.5,
              "dur": 0.25,
              "vel": 100
            },
            {
              "note": "C3",
              "pitch": 60,
              "beat": 13.5,
              "dur": 0.25,
              "vel": 100
            },
            {
              "note": "C3",
              "pitch": 60,
              "beat": 14.5,
              "dur": 0.25,
              "vel": 100
            },
            {
              "note": "C3",
              "pitch": 60,
              "beat": 15.5,
              "dur": 0.25,
              "vel": 100
            }
          ]
        },
        {
          "bar_start": 64.0,
          "bar_end": 80.0,
          "name": "",
          "notes": [
            {
              "note": "C3",
              "pitch": 60,
              "beat": 0.5,
              "dur": 0.25,
              "vel": 100
            },
            {
              "note": "C3",
              "pitch": 60,
              "beat": 1.5,
              "dur": 0.25,
              "vel": 100
            },
            {
              "note": "C3",
              "pitch": 60,
              "beat": 2.5,
              "dur": 0.25,
              "vel": 100
            },
            {
              "note": "C3",
              "pitch": 60,
              "beat": 3.5,
              "dur": 0.25,
              "vel": 100
            },
            {
              "note": "C3",
              "pitch": 60,
              "beat": 4.5,
              "dur": 0.25,
              "vel": 100
            },
            {
              "note": "C3",
              "pitch": 60,
              "beat": 5.5,
              "dur": 0.25,
              "vel": 100
            },
            {
              "note": "C3",
              "pitch": 60,
              "beat": 6.5,
              "dur": 0.25,
              "vel": 100
            },
            {
              "note": "C3",
              "pitch": 60,
              "beat": 7.5,
              "dur": 0.25,
              "vel": 100
            },
            {
              "note": "C3",
              "pitch": 60,
              "beat": 8.5,
              "dur": 0.25,
              "vel": 100
            },
            {
              "note": "C3",
              "pitch": 60,
              "beat": 9.5,
              "dur": 0.25,
              "vel": 100
            },
            {
              "note": "C3",
              "pitch": 60,
              "beat": 10.5,
              "dur": 0.25,
              "vel": 100
            },
            {
              "note": "C3",
              "pitch": 60,
              "beat": 11.5,
              "dur": 0.25,
              "vel": 100
            },
            {
              "note": "C3",
              "pitch": 60,
              "beat": 12.5,
              "dur": 0.25,
              "vel": 100
            },
            {
              "note": "C3",
              "pitch": 60,
              "beat": 13.5,
              "dur": 0.25,
              "vel": 100
            },
            {
              "note": "C3",
              "pitch": 60,
              "beat": 14.5,
              "dur": 0.25,
              "vel": 100
            },
            {
              "note": "C3",
              "pitch": 60,
              "beat": 15.5,
              "dur": 0.25,
              "vel": 100
            }
          ]
        }
      ],
      "automations": [],
      "children": []
    },
    "7": {
      "id": "7",
      "name": "Open Hat 2",
      "type": "MidiTrack",
      "group_id": "26",
      "devices": [
        {
          "type": "OriginalSimpler",
          "sample": "Open Hat 2.wav",
          "SampleStart": "0",
          "LoopMode": "0"
        },
        {
          "type": "Eq8",
          "bands": []
        }
      ],
      "clips": [
        {
          "bar_start": 16.0,
          "bar_end": 23.0,
          "name": "",
          "notes": [
            {
              "note": "C3",
              "pitch": 60,
              "beat": 0.5,
              "dur": 0.25,
              "vel": 100
            },
            {
              "note": "C3",
              "pitch": 60,
              "beat": 1.5,
              "dur": 0.25,
              "vel": 100
            },
            {
              "note": "C3",
              "pitch": 60,
              "beat": 2.5,
              "dur": 0.25,
              "vel": 100
            },
            {
              "note": "C3",
              "pitch": 60,
              "beat": 3.5,
              "dur": 0.25,
              "vel": 100
            },
            {
              "note": "C3",
              "pitch": 60,
              "beat": 4.5,
              "dur": 0.25,
              "vel": 100
            },
            {
              "note": "C3",
              "pitch": 60,
              "beat": 5.5,
              "dur": 0.25,
              "vel": 100
            },
            {
              "note": "C3",
              "pitch": 60,
              "beat": 6.5,
              "dur": 0.25,
              "vel": 100
            },
            {
              "note": "C3",
              "pitch": 60,
              "beat": 7.5,
              "dur": 0.25,
              "vel": 100
            },
            {
              "note": "C3",
              "pitch": 60,
              "beat": 8.5,
              "dur": 0.25,
              "vel": 100
            },
            {
              "note": "C3",
              "pitch": 60,
              "beat": 9.5,
              "dur": 0.25,
              "vel": 100
            },
            {
              "note": "C3",
              "pitch": 60,
              "beat": 10.5,
              "dur": 0.25,
              "vel": 100
            },
            {
              "note": "C3",
              "pitch": 60,
              "beat": 11.5,
              "dur": 0.25,
              "vel": 100
            },
            {
              "note": "C3",
              "pitch": 60,
              "beat": 12.5,
              "dur": 0.25,
              "vel": 100
            },
            {
              "note": "C3",
              "pitch": 60,
              "beat": 13.5,
              "dur": 0.25,
              "vel": 100
            },
            {
              "note": "C3",
              "pitch": 60,
              "beat": 14.5,
              "dur": 0.25,
              "vel": 100
            },
            {
              "note": "C3",
              "pitch": 60,
              "beat": 15.5,
              "dur": 0.25,
              "vel": 100
            }
          ]
        },
        {
          "bar_start": 48.0,
          "bar_end": 63.0,
          "name": "",
          "notes": [
            {
              "note": "C3",
              "pitch": 60,
              "beat": 0.5,
              "dur": 0.25,
              "vel": 100
            },
            {
              "note": "C3",
              "pitch": 60,
              "beat": 1.5,
              "dur": 0.25,
              "vel": 100
            },
            {
              "note": "C3",
              "pitch": 60,
              "beat": 2.5,
              "dur": 0.25,
              "vel": 100
            },
            {
              "note": "C3",
              "pitch": 60,
              "beat": 3.5,
              "dur": 0.25,
              "vel": 100
            },
            {
              "note": "C3",
              "pitch": 60,
              "beat": 4.5,
              "dur": 0.25,
              "vel": 100
            },
            {
              "note": "C3",
              "pitch": 60,
              "beat": 5.5,
              "dur": 0.25,
              "vel": 100
            },
            {
              "note": "C3",
              "pitch": 60,
              "beat": 6.5,
              "dur": 0.25,
              "vel": 100
            },
            {
              "note": "C3",
              "pitch": 60,
              "beat": 7.5,
              "dur": 0.25,
              "vel": 100
            },
            {
              "note": "C3",
              "pitch": 60,
              "beat": 8.5,
              "dur": 0.25,
              "vel": 100
            },
            {
              "note": "C3",
              "pitch": 60,
              "beat": 9.5,
              "dur": 0.25,
              "vel": 100
            },
            {
              "note": "C3",
              "pitch": 60,
              "beat": 10.5,
              "dur": 0.25,
              "vel": 100
            },
            {
              "note": "C3",
              "pitch": 60,
              "beat": 11.5,
              "dur": 0.25,
              "vel": 100
            },
            {
              "note": "C3",
              "pitch": 60,
              "beat": 12.5,
              "dur": 0.25,
              "vel": 100
            },
            {
              "note": "C3",
              "pitch": 60,
              "beat": 13.5,
              "dur": 0.25,
              "vel": 100
            },
            {
              "note": "C3",
              "pitch": 60,
              "beat": 14.5,
              "dur": 0.25,
              "vel": 100
            },
            {
              "note": "C3",
              "pitch": 60,
              "beat": 15.5,
              "dur": 0.25,
              "vel": 100
            }
          ]
        }
      ],
      "automations": [],
      "children": []
    },
    "8": {
      "id": "8",
      "name": "Open Hat 3",
      "type": "MidiTrack",
      "group_id": "26",
      "devices": [
        {
          "type": "OriginalSimpler",
          "sample": "Open Hat 3.wav",
          "SampleStart": "0",
          "LoopMode": "0"
        },
        {
          "type": "Eq8",
          "bands": []
        }
      ],
      "clips": [
        {
          "bar_start": 56.0,
          "bar_end": 63.0,
          "name": "",
          "notes": [
            {
              "note": "C3",
              "pitch": 60,
              "beat": 0.5,
              "dur": 0.25,
              "vel": 100
            },
            {
              "note": "C3",
              "pitch": 60,
              "beat": 1.5,
              "dur": 0.25,
              "vel": 100
            },
            {
              "note": "C3",
              "pitch": 60,
              "beat": 2.5,
              "dur": 0.25,
              "vel": 100
            },
            {
              "note": "C3",
              "pitch": 60,
              "beat": 3.5,
              "dur": 0.25,
              "vel": 100
            },
            {
              "note": "C3",
              "pitch": 60,
              "beat": 4.5,
              "dur": 0.25,
              "vel": 100
            },
            {
              "note": "C3",
              "pitch": 60,
              "beat": 5.5,
              "dur": 0.25,
              "vel": 100
            },
            {
              "note": "C3",
              "pitch": 60,
              "beat": 6.5,
              "dur": 0.25,
              "vel": 100
            },
            {
              "note": "C3",
              "pitch": 60,
              "beat": 7.5,
              "dur": 0.25,
              "vel": 100
            },
            {
              "note": "C3",
              "pitch": 60,
              "beat": 8.5,
              "dur": 0.25,
              "vel": 100
            },
            {
              "note": "C3",
              "pitch": 60,
              "beat": 9.5,
              "dur": 0.25,
              "vel": 100
            },
            {
              "note": "C3",
              "pitch": 60,
              "beat": 10.5,
              "dur": 0.25,
              "vel": 100
            },
            {
              "note": "C3",
              "pitch": 60,
              "beat": 11.5,
              "dur": 0.25,
              "vel": 100
            },
            {
              "note": "C3",
              "pitch": 60,
              "beat": 12.5,
              "dur": 0.25,
              "vel": 100
            },
            {
              "note": "C3",
              "pitch": 60,
              "beat": 13.5,
              "dur": 0.25,
              "vel": 100
            },
            {
              "note": "C3",
              "pitch": 60,
              "beat": 14.5,
              "dur": 0.25,
              "vel": 100
            },
            {
              "note": "C3",
              "pitch": 60,
              "beat": 15.5,
              "dur": 0.25,
              "vel": 100
            }
          ]
        }
      ],
      "automations": [],
      "children": []
    },
    "5": {
      "id": "5",
      "name": "Snare 1",
      "type": "MidiTrack",
      "group_id": "26",
      "devices": [
        {
          "type": "OriginalSimpler",
          "sample": "Snare 1.wav",
          "SampleStart": "0",
          "LoopMode": "0"
        },
        {
          "type": "Eq8",
          "bands": []
        }
      ],
      "clips": [
        {
          "bar_start": 39.0,
          "bar_end": 40.0,
          "name": "",
          "notes": [
            {
              "note": "C3",
              "pitch": 60,
              "beat": 0.0,
              "dur": 0.25,
              "vel": 100
            },
            {
              "note": "C3",
              "pitch": 60,
              "beat": 0.25,
              "dur": 0.25,
              "vel": 100
            },
            {
              "note": "C3",
              "pitch": 60,
              "beat": 0.5,
              "dur": 0.25,
              "vel": 100
            },
            {
              "note": "C3",
              "pitch": 60,
              "beat": 0.75,
              "dur": 0.25,
              "vel": 100
            },
            {
              "note": "C3",
              "pitch": 60,
              "beat": 1.0,
              "dur": 0.25,
              "vel": 100
            },
            {
              "note": "C3",
              "pitch": 60,
              "beat": 1.25,
              "dur": 0.25,
              "vel": 100
            },
            {
              "note": "C3",
              "pitch": 60,
              "beat": 1.5,
              "dur": 0.25,
              "vel": 100
            },
            {
              "note": "C3",
              "pitch": 60,
              "beat": 1.75,
              "dur": 0.25,
              "vel": 100
            },
            {
              "note": "C3",
              "pitch": 60,
              "beat": 2.0,
              "dur": 0.25,
              "vel": 100
            },
            {
              "note": "C3",
              "pitch": 60,
              "beat": 2.25,
              "dur": 0.25,
              "vel": 100
            },
            {
              "note": "C3",
              "pitch": 60,
              "beat": 2.5,
              "dur": 0.25,
              "vel": 100
            },
            {
              "note": "C3",
              "pitch": 60,
              "beat": 2.75,
              "dur": 0.25,
              "vel": 100
            },
            {
              "note": "C3",
              "pitch": 60,
              "beat": 3.0,
              "dur": 0.25,
              "vel": 100
            },
            {
              "note": "C3",
              "pitch": 60,
              "beat": 3.25,
              "dur": 0.25,
              "vel": 100
            },
            {
              "note": "C3",
              "pitch": 60,
              "beat": 3.5,
              "dur": 0.25,
              "vel": 100
            },
            {
              "note": "C3",
              "pitch": 60,
              "beat": 3.75,
              "dur": 0.25,
              "vel": 100
            }
          ]
        },
        {
          "bar_start": 47.0,
          "bar_end": 48.0,
          "name": "",
          "notes": [
            {
              "note": "C3",
              "pitch": 60,
              "beat": 0.0,
              "dur": 0.25,
              "vel": 100
            },
            {
              "note": "C3",
              "pitch": 60,
              "beat": 0.25,
              "dur": 0.25,
              "vel": 100
            },
            {
              "note": "C3",
              "pitch": 60,
              "beat": 0.5,
              "dur": 0.25,
              "vel": 100
            },
            {
              "note": "C3",
              "pitch": 60,
              "beat": 0.75,
              "dur": 0.25,
              "vel": 100
            },
            {
              "note": "C3",
              "pitch": 60,
              "beat": 1.0,
              "dur": 0.25,
              "vel": 100
            },
            {
              "note": "C3",
              "pitch": 60,
              "beat": 1.25,
              "dur": 0.25,
              "vel": 100
            },
            {
              "note": "C3",
              "pitch": 60,
              "beat": 1.5,
              "dur": 0.25,
              "vel": 100
            },
            {
              "note": "C3",
              "pitch": 60,
              "beat": 1.75,
              "dur": 0.25,
              "vel": 100
            },
            {
              "note": "C3",
              "pitch": 60,
              "beat": 2.0,
              "dur": 0.25,
              "vel": 100
            },
            {
              "note": "C3",
              "pitch": 60,
              "beat": 2.25,
              "dur": 0.25,
              "vel": 100
            },
            {
              "note": "C3",
              "pitch": 60,
              "beat": 2.5,
              "dur": 0.25,
              "vel": 100
            },
            {
              "note": "C3",
              "pitch": 60,
              "beat": 2.75,
              "dur": 0.25,
              "vel": 100
            },
            {
              "note": "C3",
              "pitch": 60,
              "beat": 3.0,
              "dur": 0.25,
              "vel": 100
            },
            {
              "note": "C3",
              "pitch": 60,
              "beat": 3.25,
              "dur": 0.25,
              "vel": 100
            },
            {
              "note": "C3",
              "pitch": 60,
              "beat": 3.5,
              "dur": 0.25,
              "vel": 100
            },
            {
              "note": "C3",
              "pitch": 60,
              "beat": 3.75,
              "dur": 0.25,
              "vel": 100
            }
          ]
        },
        {
          "bar_start": 71.0,
          "bar_end": 72.0,
          "name": "",
          "notes": [
            {
              "note": "C3",
              "pitch": 60,
              "beat": 0.0,
              "dur": 0.25,
              "vel": 52
            },
            {
              "note": "C3",
              "pitch": 60,
              "beat": 0.25,
              "dur": 0.25,
              "vel": 55
            },
            {
              "note": "C3",
              "pitch": 60,
              "beat": 0.5,
              "dur": 0.25,
              "vel": 58
            },
            {
              "note": "C3",
              "pitch": 60,
              "beat": 0.75,
              "dur": 0.25,
              "vel": 62
            },
            {
              "note": "C3",
              "pitch": 60,
              "beat": 1.0,
              "dur": 0.25,
              "vel": 65
            },
            {
              "note": "C3",
              "pitch": 60,
              "beat": 1.25,
              "dur": 0.25,
              "vel": 68
            },
            {
              "note": "C3",
              "pitch": 60,
              "beat": 1.5,
              "dur": 0.25,
              "vel": 71
            },
            {
              "note": "C3",
              "pitch": 60,
              "beat": 1.75,
              "dur": 0.25,
              "vel": 75
            },
            {
              "note": "C3",
              "pitch": 60,
              "beat": 2.0,
              "dur": 0.25,
              "vel": 78
            },
            {
              "note": "C3",
              "pitch": 60,
              "beat": 2.25,
              "dur": 0.25,
              "vel": 81
            },
            {
              "note": "C3",
              "pitch": 60,
              "beat": 2.5,
              "dur": 0.25,
              "vel": 84
            },
            {
              "note": "C3",
              "pitch": 60,
              "beat": 2.75,
              "dur": 0.25,
              "vel": 88
            },
            {
              "note": "C3",
              "pitch": 60,
              "beat": 3.0,
              "dur": 0.25,
              "vel": 91
            },
            {
              "note": "C3",
              "pitch": 60,
              "beat": 3.25,
              "dur": 0.25,
              "vel": 94
            },
            {
              "note": "C3",
              "pitch": 60,
              "beat": 3.5,
              "dur": 0.25,
              "vel": 97
            },
            {
              "note": "C3",
              "pitch": 60,
              "beat": 3.75,
              "dur": 0.25,
              "vel": 100
            }
          ]
        },
        {
          "bar_start": 79.0,
          "bar_end": 80.0,
          "name": "",
          "notes": [
            {
              "note": "C3",
              "pitch": 60,
              "beat": 0.0,
              "dur": 0.25,
              "vel": 100
            },
            {
              "note": "C3",
              "pitch": 60,
              "beat": 0.25,
              "dur": 0.25,
              "vel": 100
            },
            {
              "note": "C3",
              "pitch": 60,
              "beat": 0.5,
              "dur": 0.25,
              "vel": 100
            },
            {
              "note": "C3",
              "pitch": 60,
              "beat": 0.75,
              "dur": 0.25,
              "vel": 100
            },
            {
              "note": "C3",
              "pitch": 60,
              "beat": 1.0,
              "dur": 0.25,
              "vel": 100
            },
            {
              "note": "C3",
              "pitch": 60,
              "beat": 1.25,
              "dur": 0.25,
              "vel": 100
            },
            {
              "note": "C3",
              "pitch": 60,
              "beat": 1.5,
              "dur": 0.25,
              "vel": 100
            },
            {
              "note": "C3",
              "pitch": 60,
              "beat": 1.75,
              "dur": 0.25,
              "vel": 100
            },
            {
              "note": "C3",
              "pitch": 60,
              "beat": 2.0,
              "dur": 0.25,
              "vel": 100
            },
            {
              "note": "C3",
              "pitch": 60,
              "beat": 2.25,
              "dur": 0.25,
              "vel": 100
            },
            {
              "note": "C3",
              "pitch": 60,
              "beat": 2.5,
              "dur": 0.25,
              "vel": 100
            },
            {
              "note": "C3",
              "pitch": 60,
              "beat": 2.75,
              "dur": 0.25,
              "vel": 100
            },
            {
              "note": "C3",
              "pitch": 60,
              "beat": 3.0,
              "dur": 0.25,
              "vel": 100
            },
            {
              "note": "C3",
              "pitch": 60,
              "beat": 3.25,
              "dur": 0.25,
              "vel": 100
            },
            {
              "note": "C3",
              "pitch": 60,
              "beat": 3.5,
              "dur": 0.25,
              "vel": 100
            },
            {
              "note": "C3",
              "pitch": 60,
              "beat": 3.75,
              "dur": 0.25,
              "vel": 100
            }
          ]
        }
      ],
      "automations": [],
      "children": []
    },
    "6": {
      "id": "6",
      "name": "Snare 2",
      "type": "MidiTrack",
      "group_id": "26",
      "devices": [
        {
          "type": "OriginalSimpler",
          "sample": "Snare 2.wav",
          "SampleStart": "0",
          "LoopMode": "0"
        },
        {
          "type": "Eq8",
          "bands": []
        },
        {
          "type": "Reverb",
          "PreDelay": "2.50000048",
          "RoomSize": "10.860774",
          "DecayTime": "1222.97546",
          "FreezeOn": "false"
        }
      ],
      "clips": [
        {
          "bar_start": 16.0,
          "bar_end": 23.0,
          "name": "",
          "notes": [
            {
              "note": "C3",
              "pitch": 60,
              "beat": 1.0,
              "dur": 0.5,
              "vel": 127
            },
            {
              "note": "C3",
              "pitch": 60,
              "beat": 1.75,
              "dur": 0.5,
              "vel": 104
            },
            {
              "note": "C3",
              "pitch": 60,
              "beat": 2.25,
              "dur": 0.5,
              "vel": 104
            },
            {
              "note": "C3",
              "pitch": 60,
              "beat": 3.0,
              "dur": 0.5,
              "vel": 127
            },
            {
              "note": "C3",
              "pitch": 60,
              "beat": 3.5,
              "dur": 0.25,
              "vel": 84
            },
            {
              "note": "C3",
              "pitch": 60,
              "beat": 3.75,
              "dur": 0.25,
              "vel": 101
            },
            {
              "note": "C3",
              "pitch": 60,
              "beat": 5.0,
              "dur": 0.5,
              "vel": 127
            },
            {
              "note": "C3",
              "pitch": 60,
              "beat": 5.75,
              "dur": 0.5,
              "vel": 104
            },
            {
              "note": "C3",
              "pitch": 60,
              "beat": 6.25,
              "dur": 0.5,
              "vel": 104
            },
            {
              "note": "C3",
              "pitch": 60,
              "beat": 7.0,
              "dur": 0.5,
              "vel": 127
            },
            {
              "note": "C3",
              "pitch": 60,
              "beat": 7.5,
              "dur": 0.25,
              "vel": 84
            },
            {
              "note": "C3",
              "pitch": 60,
              "beat": 7.75,
              "dur": 0.25,
              "vel": 103
            },
            {
              "note": "C3",
              "pitch": 60,
              "beat": 9.0,
              "dur": 0.5,
              "vel": 127
            },
            {
              "note": "C3",
              "pitch": 60,
              "beat": 9.75,
              "dur": 0.5,
              "vel": 104
            },
            {
              "note": "C3",
              "pitch": 60,
              "beat": 10.25,
              "dur": 0.5,
              "vel": 104
            },
            {
              "note": "C3",
              "pitch": 60,
              "beat": 11.0,
              "dur": 0.5,
              "vel": 127
            },
            {
              "note": "C3",
              "pitch": 60,
              "beat": 11.5,
              "dur": 0.25,
              "vel": 84
            },
            {
              "note": "C3",
              "pitch": 60,
              "beat": 11.75,
              "dur": 0.25,
              "vel": 101
            },
            {
              "note": "C3",
              "pitch": 60,
              "beat": 13.0,
              "dur": 0.5,
              "vel": 127
            },
            {
              "note": "C3",
              "pitch": 60,
              "beat": 13.75,
              "dur": 0.5,
              "vel": 104
            },
            {
              "note": "C3",
              "pitch": 60,
              "beat": 14.25,
              "dur": 0.5,
              "vel": 104
            },
            {
              "note": "C3",
              "pitch": 60,
              "beat": 15.0,
              "dur": 0.5,
              "vel": 127
            },
            {
              "note": "C3",
              "pitch": 60,
              "beat": 15.5,
              "dur": 0.25,
              "vel": 84
            },
            {
              "note": "C3",
              "pitch": 60,
              "beat": 15.75,
              "dur": 0.25,
              "vel": 103
            }
          ]
        },
        {
          "bar_start": 48.0,
          "bar_end": 63.0,
          "name": "",
          "notes": [
            {
              "note": "C3",
              "pitch": 60,
              "beat": 1.0,
              "dur": 0.5,
              "vel": 127
            },
            {
              "note": "C3",
              "pitch": 60,
              "beat": 1.75,
              "dur": 0.5,
              "vel": 104
            },
            {
              "note": "C3",
              "pitch": 60,
              "beat": 2.25,
              "dur": 0.5,
              "vel": 104
            },
            {
              "note": "C3",
              "pitch": 60,
              "beat": 3.0,
              "dur": 0.5,
              "vel": 127
            },
            {
              "note": "C3",
              "pitch": 60,
              "beat": 3.5,
              "dur": 0.25,
              "vel": 84
            },
            {
              "note": "C3",
              "pitch": 60,
              "beat": 3.75,
              "dur": 0.25,
              "vel": 101
            },
            {
              "note": "C3",
              "pitch": 60,
              "beat": 5.0,
              "dur": 0.5,
              "vel": 127
            },
            {
              "note": "C3",
              "pitch": 60,
              "beat": 5.75,
              "dur": 0.5,
              "vel": 104
            },
            {
              "note": "C3",
              "pitch": 60,
              "beat": 6.25,
              "dur": 0.5,
              "vel": 104
            },
            {
              "note": "C3",
              "pitch": 60,
              "beat": 7.0,
              "dur": 0.5,
              "vel": 127
            },
            {
              "note": "C3",
              "pitch": 60,
              "beat": 7.5,
              "dur": 0.25,
              "vel": 84
            },
            {
              "note": "C3",
              "pitch": 60,
              "beat": 7.75,
              "dur": 0.25,
              "vel": 103
            },
            {
              "note": "C3",
              "pitch": 60,
              "beat": 9.0,
              "dur": 0.5,
              "vel": 127
            },
            {
              "note": "C3",
              "pitch": 60,
              "beat": 9.75,
              "dur": 0.5,
              "vel": 104
            },
            {
              "note": "C3",
              "pitch": 60,
              "beat": 10.25,
              "dur": 0.5,
              "vel": 104
            },
            {
              "note": "C3",
              "pitch": 60,
              "beat": 11.0,
              "dur": 0.5,
              "vel": 127
            },
            {
              "note": "C3",
              "pitch": 60,
              "beat": 11.5,
              "dur": 0.25,
              "vel": 84
            },
            {
              "note": "C3",
              "pitch": 60,
              "beat": 11.75,
              "dur": 0.25,
              "vel": 101
            },
            {
              "note": "C3",
              "pitch": 60,
              "beat": 13.0,
              "dur": 0.5,
              "vel": 127
            },
            {
              "note": "C3",
              "pitch": 60,
              "beat": 13.75,
              "dur": 0.5,
              "vel": 104
            },
            {
              "note": "C3",
              "pitch": 60,
              "beat": 14.25,
              "dur": 0.5,
              "vel": 104
            },
            {
              "note": "C3",
              "pitch": 60,
              "beat": 15.0,
              "dur": 0.5,
              "vel": 127
            },
            {
              "note": "C3",
              "pitch": 60,
              "beat": 15.5,
              "dur": 0.25,
              "vel": 84
            },
            {
              "note": "C3",
              "pitch": 60,
              "beat": 15.75,
              "dur": 0.25,
              "vel": 103
            }
          ]
        }
      ],
      "automations": [],
      "children": []
    },
    "10": {
      "id": "10",
      "name": "Organ Bass",
      "type": "MidiTrack",
      "group_id": "27",
      "devices": [
        {
          "type": "PluginDevice",
          "plugin": "Serum",
          "preset": "",
          "vst_params": []
        },
        {
          "type": "Eq8",
          "bands": []
        },
        {
          "type": "StereoGain",
          "On": "true",
          "PhaseInvertL": "false",
          "PhaseInvertR": "false",
          "ChannelMode": "1",
          "StereoWidth": "1",
          "MidSideBalance": "1",
          "Mono": "false",
          "BassMono": "false",
          "BassMonoFrequency": "120",
          "Balance": "0",
          "Gain": "1",
          "LegacyGain": "0",
          "Mute": "false",
          "DcFilter": "false"
        },
        {
          "type": "Saturator",
          "Drive": "1",
          "DryWet": "0.1190476194",
          "Type": "4"
        },
        {
          "type": "MultibandDynamics",
          "DryWet": "1"
        }
      ],
      "clips": [
        {
          "bar_start": 8.0,
          "bar_end": 16.0,
          "name": "",
          "notes": [
            {
              "note": "D2",
              "pitch": 50,
              "beat": 0.0,
              "dur": 0.75,
              "vel": 127
            },
            {
              "note": "D2",
              "pitch": 50,
              "beat": 1.0,
              "dur": 0.5,
              "vel": 127
            },
            {
              "note": "D2",
              "pitch": 50,
              "beat": 1.75,
              "dur": 0.5,
              "vel": 127
            },
            {
              "note": "D2",
              "pitch": 50,
              "beat": 2.5,
              "dur": 0.5,
              "vel": 127
            },
            {
              "note": "D2",
              "pitch": 50,
              "beat": 3.25,
              "dur": 0.25,
              "vel": 127
            },
            {
              "note": "D3",
              "pitch": 62,
              "beat": 3.5,
              "dur": 0.5,
              "vel": 127
            },
            {
              "note": "F2",
              "pitch": 53,
              "beat": 4.0,
              "dur": 0.75,
              "vel": 127
            },
            {
              "note": "F2",
              "pitch": 53,
              "beat": 5.0,
              "dur": 0.5,
              "vel": 127
            },
            {
              "note": "F2",
              "pitch": 53,
              "beat": 5.75,
              "dur": 0.5,
              "vel": 127
            },
            {
              "note": "F2",
              "pitch": 53,
              "beat": 6.5,
              "dur": 0.5,
              "vel": 127
            },
            {
              "note": "F2",
              "pitch": 53,
              "beat": 7.25,
              "dur": 0.5,
              "vel": 127
            },
            {
              "note": "A#2",
              "pitch": 58,
              "beat": 8.0,
              "dur": 0.75,
              "vel": 127
            },
            {
              "note": "A#2",
              "pitch": 58,
              "beat": 9.0,
              "dur": 0.5,
              "vel": 127
            },
            {
              "note": "A#2",
              "pitch": 58,
              "beat": 9.75,
              "dur": 0.5,
              "vel": 127
            },
            {
              "note": "A#2",
              "pitch": 58,
              "beat": 10.5,
              "dur": 0.5,
              "vel": 127
            },
            {
              "note": "A#2",
              "pitch": 58,
              "beat": 11.25,
              "dur": 0.25,
              "vel": 127
            },
            {
              "note": "F2",
              "pitch": 53,
              "beat": 11.5,
              "dur": 0.5,
              "vel": 127
            },
            {
              "note": "G2",
              "pitch": 55,
              "beat": 12.0,
              "dur": 0.75,
              "vel": 127
            },
            {
              "note": "G2",
              "pitch": 55,
              "beat": 13.0,
              "dur": 0.5,
              "vel": 127
            },
            {
              "note": "G2",
              "pitch": 55,
              "beat": 13.75,
              "dur": 0.5,
              "vel": 127
            },
            {
              "note": "G2",
              "pitch": 55,
              "beat": 14.5,
              "dur": 0.5,
              "vel": 127
            },
            {
              "note": "C2",
              "pitch": 48,
              "beat": 15.25,
              "dur": 0.5,
              "vel": 127
            },
            {
              "note": "D2",
              "pitch": 50,
              "beat": 16.0,
              "dur": 0.75,
              "vel": 127
            },
            {
              "note": "D2",
              "pitch": 50,
              "beat": 17.0,
              "dur": 0.5,
              "vel": 127
            },
            {
              "note": "D2",
              "pitch": 50,
              "beat": 17.75,
              "dur": 0.5,
              "vel": 127
            },
            {
              "note": "D2",
              "pitch": 50,
              "beat": 18.5,
              "dur": 0.5,
              "vel": 127
            },
            {
              "note": "D2",
              "pitch": 50,
              "beat": 19.25,
              "dur": 0.25,
              "vel": 127
            },
            {
              "note": "D3",
              "pitch": 62,
              "beat": 19.5,
              "dur": 0.5,
              "vel": 127
            },
            {
              "note": "F2",
              "pitch": 53,
              "beat": 20.0,
              "dur": 0.75,
              "vel": 127
            },
            {
              "note": "F2",
              "pitch": 53,
              "beat": 21.0,
              "dur": 0.5,
              "vel": 127
            },
            {
              "note": "F2",
              "pitch": 53,
              "beat": 21.75,
              "dur": 0.5,
              "vel": 127
            },
            {
              "note": "F2",
              "pitch": 53,
              "beat": 22.5,
              "dur": 0.5,
              "vel": 127
            },
            {
              "note": "F2",
              "pitch": 53,
              "beat": 23.25,
              "dur": 0.5,
              "vel": 127
            },
            {
              "note": "A#2",
              "pitch": 58,
              "beat": 24.0,
              "dur": 0.75,
              "vel": 127
            },
            {
              "note": "A#2",
              "pitch": 58,
              "beat": 25.0,
              "dur": 0.5,
              "vel": 127
            },
            {
              "note": "A#2",
              "pitch": 58,
              "beat": 25.75,
              "dur": 0.5,
              "vel": 127
            },
            {
              "note": "A#2",
              "pitch": 58,
              "beat": 26.5,
              "dur": 0.5,
              "vel": 127
            },
            {
              "note": "A#2",
              "pitch": 58,
              "beat": 27.25,
              "dur": 0.25,
              "vel": 127
            },
            {
              "note": "F2",
              "pitch": 53,
              "beat": 27.5,
              "dur": 0.5,
              "vel": 127
            },
            {
              "note": "G2",
              "pitch": 55,
              "beat": 28.0,
              "dur": 0.75,
              "vel": 127
            },
            {
              "note": "G2",
              "pitch": 55,
              "beat": 29.0,
              "dur": 0.5,
              "vel": 127
            },
            {
              "note": "G2",
              "pitch": 55,
              "beat": 29.75,
              "dur": 0.5,
              "vel": 127
            },
            {
              "note": "G2",
              "pitch": 55,
              "beat": 30.5,
              "dur": 0.5,
              "vel": 127
            },
            {
              "note": "C2",
              "pitch": 48,
              "beat": 31.25,
              "dur": 0.5,
              "vel": 127
            }
          ]
        },
        {
          "bar_start": 16.0,
          "bar_end": 23.0,
          "name": "",
          "notes": [
            {
              "note": "D2",
              "pitch": 50,
              "beat": 0.0,
              "dur": 0.75,
              "vel": 127
            },
            {
              "note": "D2",
              "pitch": 50,
              "beat": 1.0,
              "dur": 0.5,
              "vel": 127
            },
            {
              "note": "D2",
              "pitch": 50,
              "beat": 1.75,
              "dur": 0.5,
              "vel": 127
            },
            {
              "note": "D2",
              "pitch": 50,
              "beat": 2.5,
              "dur": 0.5,
              "vel": 127
            },
            {
              "note": "D2",
              "pitch": 50,
              "beat": 3.25,
              "dur": 0.25,
              "vel": 127
            },
            {
              "note": "D3",
              "pitch": 62,
              "beat": 3.5,
              "dur": 0.5,
              "vel": 127
            },
            {
              "note": "D2",
              "pitch": 50,
              "beat": 4.0,
              "dur": 0.75,
              "vel": 127
            },
            {
              "note": "D2",
              "pitch": 50,
              "beat": 5.0,
              "dur": 0.5,
              "vel": 127
            },
            {
              "note": "D2",
              "pitch": 50,
              "beat": 5.75,
              "dur": 0.5,
              "vel": 127
            },
            {
              "note": "D2",
              "pitch": 50,
              "beat": 6.5,
              "dur": 0.5,
              "vel": 127
            },
            {
              "note": "D2",
              "pitch": 50,
              "beat": 7.25,
              "dur": 0.25,
              "vel": 127
            },
            {
              "note": "D3",
              "pitch": 62,
              "beat": 7.5,
              "dur": 0.5,
              "vel": 127
            },
            {
              "note": "D2",
              "pitch": 50,
              "beat": 8.0,
              "dur": 0.75,
              "vel": 127
            },
            {
              "note": "D2",
              "pitch": 50,
              "beat": 9.0,
              "dur": 0.5,
              "vel": 127
            },
            {
              "note": "D2",
              "pitch": 50,
              "beat": 9.75,
              "dur": 0.5,
              "vel": 127
            },
            {
              "note": "D2",
              "pitch": 50,
              "beat": 10.5,
              "dur": 0.5,
              "vel": 127
            },
            {
              "note": "D2",
              "pitch": 50,
              "beat": 11.25,
              "dur": 0.25,
              "vel": 127
            },
            {
              "note": "D3",
              "pitch": 62,
              "beat": 11.5,
              "dur": 0.5,
              "vel": 127
            },
            {
              "note": "D2",
              "pitch": 50,
              "beat": 12.0,
              "dur": 0.75,
              "vel": 127
            },
            {
              "note": "D2",
              "pitch": 50,
              "beat": 13.0,
              "dur": 0.5,
              "vel": 127
            },
            {
              "note": "D2",
              "pitch": 50,
              "beat": 13.75,
              "dur": 0.5,
              "vel": 127
            },
            {
              "note": "D2",
              "pitch": 50,
              "beat": 14.5,
              "dur": 0.5,
              "vel": 127
            },
            {
              "note": "D2",
              "pitch": 50,
              "beat": 15.25,
              "dur": 0.25,
              "vel": 127
            },
            {
              "note": "D3",
              "pitch": 62,
              "beat": 15.5,
              "dur": 0.5,
              "vel": 127
            }
          ]
        },
        {
          "bar_start": 48.0,
          "bar_end": 56.0,
          "name": "",
          "notes": [
            {
              "note": "D2",
              "pitch": 50,
              "beat": 0.0,
              "dur": 0.75,
              "vel": 127
            },
            {
              "note": "D2",
              "pitch": 50,
              "beat": 1.0,
              "dur": 0.5,
              "vel": 127
            },
            {
              "note": "D2",
              "pitch": 50,
              "beat": 1.75,
              "dur": 0.5,
              "vel": 127
            },
            {
              "note": "D2",
              "pitch": 50,
              "beat": 2.5,
              "dur": 0.5,
              "vel": 127
            },
            {
              "note": "D2",
              "pitch": 50,
              "beat": 3.25,
              "dur": 0.25,
              "vel": 127
            },
            {
              "note": "D3",
              "pitch": 62,
              "beat": 3.5,
              "dur": 0.5,
              "vel": 127
            },
            {
              "note": "F2",
              "pitch": 53,
              "beat": 4.0,
              "dur": 0.75,
              "vel": 127
            },
            {
              "note": "F2",
              "pitch": 53,
              "beat": 5.0,
              "dur": 0.5,
              "vel": 127
            },
            {
              "note": "F2",
              "pitch": 53,
              "beat": 5.75,
              "dur": 0.5,
              "vel": 127
            },
            {
              "note": "F2",
              "pitch": 53,
              "beat": 6.5,
              "dur": 0.5,
              "vel": 127
            },
            {
              "note": "F2",
              "pitch": 53,
              "beat": 7.25,
              "dur": 0.5,
              "vel": 127
            },
            {
              "note": "A#2",
              "pitch": 58,
              "beat": 8.0,
              "dur": 0.75,
              "vel": 127
            },
            {
              "note": "A#2",
              "pitch": 58,
              "beat": 9.0,
              "dur": 0.5,
              "vel": 127
            },
            {
              "note": "A#2",
              "pitch": 58,
              "beat": 9.75,
              "dur": 0.5,
              "vel": 127
            },
            {
              "note": "A#2",
              "pitch": 58,
              "beat": 10.5,
              "dur": 0.5,
              "vel": 127
            },
            {
              "note": "A#2",
              "pitch": 58,
              "beat": 11.25,
              "dur": 0.25,
              "vel": 127
            },
            {
              "note": "F2",
              "pitch": 53,
              "beat": 11.5,
              "dur": 0.5,
              "vel": 127
            },
            {
              "note": "G2",
              "pitch": 55,
              "beat": 12.0,
              "dur": 0.75,
              "vel": 127
            },
            {
              "note": "G2",
              "pitch": 55,
              "beat": 13.0,
              "dur": 0.5,
              "vel": 127
            },
            {
              "note": "G2",
              "pitch": 55,
              "beat": 13.75,
              "dur": 0.5,
              "vel": 127
            },
            {
              "note": "G2",
              "pitch": 55,
              "beat": 14.5,
              "dur": 0.5,
              "vel": 127
            },
            {
              "note": "C2",
              "pitch": 48,
              "beat": 15.25,
              "dur": 0.5,
              "vel": 127
            },
            {
              "note": "D2",
              "pitch": 50,
              "beat": 16.0,
              "dur": 0.75,
              "vel": 127
            },
            {
              "note": "D2",
              "pitch": 50,
              "beat": 17.0,
              "dur": 0.5,
              "vel": 127
            },
            {
              "note": "D2",
              "pitch": 50,
              "beat": 17.75,
              "dur": 0.5,
              "vel": 127
            },
            {
              "note": "D2",
              "pitch": 50,
              "beat": 18.5,
              "dur": 0.5,
              "vel": 127
            },
            {
              "note": "D2",
              "pitch": 50,
              "beat": 19.25,
              "dur": 0.25,
              "vel": 127
            },
            {
              "note": "D3",
              "pitch": 62,
              "beat": 19.5,
              "dur": 0.5,
              "vel": 127
            },
            {
              "note": "F2",
              "pitch": 53,
              "beat": 20.0,
              "dur": 0.75,
              "vel": 127
            },
            {
              "note": "F2",
              "pitch": 53,
              "beat": 21.0,
              "dur": 0.5,
              "vel": 127
            },
            {
              "note": "F2",
              "pitch": 53,
              "beat": 21.75,
              "dur": 0.5,
              "vel": 127
            },
            {
              "note": "F2",
              "pitch": 53,
              "beat": 22.5,
              "dur": 0.5,
              "vel": 127
            },
            {
              "note": "F2",
              "pitch": 53,
              "beat": 23.25,
              "dur": 0.5,
              "vel": 127
            },
            {
              "note": "A#2",
              "pitch": 58,
              "beat": 24.0,
              "dur": 0.75,
              "vel": 127
            },
            {
              "note": "A#2",
              "pitch": 58,
              "beat": 25.0,
              "dur": 0.5,
              "vel": 127
            },
            {
              "note": "A#2",
              "pitch": 58,
              "beat": 25.75,
              "dur": 0.5,
              "vel": 127
            },
            {
              "note": "A#2",
              "pitch": 58,
              "beat": 26.5,
              "dur": 0.5,
              "vel": 127
            },
            {
              "note": "A#2",
              "pitch": 58,
              "beat": 27.25,
              "dur": 0.25,
              "vel": 127
            },
            {
              "note": "F2",
              "pitch": 53,
              "beat": 27.5,
              "dur": 0.5,
              "vel": 127
            },
            {
              "note": "G2",
              "pitch": 55,
              "beat": 28.0,
              "dur": 0.75,
              "vel": 127
            },
            {
              "note": "G2",
              "pitch": 55,
              "beat": 29.0,
              "dur": 0.5,
              "vel": 127
            },
            {
              "note": "G2",
              "pitch": 55,
              "beat": 29.75,
              "dur": 0.5,
              "vel": 127
            },
            {
              "note": "G2",
              "pitch": 55,
              "beat": 30.5,
              "dur": 0.5,
              "vel": 127
            },
            {
              "note": "C2",
              "pitch": 48,
              "beat": 31.25,
              "dur": 0.5,
              "vel": 127
            }
          ]
        },
        {
          "bar_start": 56.0,
          "bar_end": 63.0,
          "name": "",
          "notes": [
            {
              "note": "D2",
              "pitch": 50,
              "beat": 0.0,
              "dur": 0.75,
              "vel": 127
            },
            {
              "note": "D2",
              "pitch": 50,
              "beat": 1.0,
              "dur": 0.5,
              "vel": 127
            },
            {
              "note": "D2",
              "pitch": 50,
              "beat": 1.75,
              "dur": 0.5,
              "vel": 127
            },
            {
              "note": "D2",
              "pitch": 50,
              "beat": 2.5,
              "dur": 0.5,
              "vel": 127
            },
            {
              "note": "D2",
              "pitch": 50,
              "beat": 3.25,
              "dur": 0.25,
              "vel": 127
            },
            {
              "note": "D3",
              "pitch": 62,
              "beat": 3.5,
              "dur": 0.5,
              "vel": 127
            },
            {
              "note": "D2",
              "pitch": 50,
              "beat": 4.0,
              "dur": 0.75,
              "vel": 127
            },
            {
              "note": "D2",
              "pitch": 50,
              "beat": 5.0,
              "dur": 0.5,
              "vel": 127
            },
            {
              "note": "D2",
              "pitch": 50,
              "beat": 5.75,
              "dur": 0.5,
              "vel": 127
            },
            {
              "note": "D2",
              "pitch": 50,
              "beat": 6.5,
              "dur": 0.5,
              "vel": 127
            },
            {
              "note": "D2",
              "pitch": 50,
              "beat": 7.25,
              "dur": 0.25,
              "vel": 127
            },
            {
              "note": "D3",
              "pitch": 62,
              "beat": 7.5,
              "dur": 0.5,
              "vel": 127
            },
            {
              "note": "D2",
              "pitch": 50,
              "beat": 8.0,
              "dur": 0.75,
              "vel": 127
            },
            {
              "note": "D2",
              "pitch": 50,
              "beat": 9.0,
              "dur": 0.5,
              "vel": 127
            },
            {
              "note": "D2",
              "pitch": 50,
              "beat": 9.75,
              "dur": 0.5,
              "vel": 127
            },
            {
              "note": "D2",
              "pitch": 50,
              "beat": 10.5,
              "dur": 0.5,
              "vel": 127
            },
            {
              "note": "D2",
              "pitch": 50,
              "beat": 11.25,
              "dur": 0.25,
              "vel": 127
            },
            {
              "note": "D3",
              "pitch": 62,
              "beat": 11.5,
              "dur": 0.5,
              "vel": 127
            },
            {
              "note": "D2",
              "pitch": 50,
              "beat": 12.0,
              "dur": 0.75,
              "vel": 127
            },
            {
              "note": "D2",
              "pitch": 50,
              "beat": 13.0,
              "dur": 0.5,
              "vel": 127
            },
            {
              "note": "D2",
              "pitch": 50,
              "beat": 13.75,
              "dur": 0.5,
              "vel": 127
            },
            {
              "note": "D2",
              "pitch": 50,
              "beat": 14.5,
              "dur": 0.5,
              "vel": 127
            },
            {
              "note": "D2",
              "pitch": 50,
              "beat": 15.25,
              "dur": 0.25,
              "vel": 127
            },
            {
              "note": "D3",
              "pitch": 62,
              "beat": 15.5,
              "dur": 0.5,
              "vel": 127
            }
          ]
        }
      ],
      "automations": [],
      "children": []
    },
    "11": {
      "id": "11",
      "name": "FM Bass",
      "type": "MidiTrack",
      "group_id": "27",
      "devices": [
        {
          "type": "PluginDevice",
          "plugin": "Serum",
          "preset": "",
          "vst_params": []
        },
        {
          "type": "Eq8",
          "bands": []
        },
        {
          "type": "StereoGain",
          "On": "true",
          "PhaseInvertL": "false",
          "PhaseInvertR": "false",
          "ChannelMode": "1",
          "StereoWidth": "1",
          "MidSideBalance": "0",
          "Mono": "false",
          "BassMono": "false",
          "BassMonoFrequency": "120",
          "Balance": "0",
          "Gain": "1",
          "LegacyGain": "0",
          "Mute": "false",
          "DcFilter": "false"
        }
      ],
      "clips": [
        {
          "bar_start": 24.0,
          "bar_end": 48.0,
          "name": "",
          "notes": [
            {
              "note": "D2",
              "pitch": 50,
              "beat": 0.5,
              "dur": 0.49,
              "vel": 127
            },
            {
              "note": "D2",
              "pitch": 50,
              "beat": 1.5,
              "dur": 0.49,
              "vel": 127
            },
            {
              "note": "D2",
              "pitch": 50,
              "beat": 2.5,
              "dur": 0.49,
              "vel": 127
            },
            {
              "note": "D3",
              "pitch": 62,
              "beat": 3.5,
              "dur": 0.49,
              "vel": 127
            },
            {
              "note": "F2",
              "pitch": 53,
              "beat": 4.5,
              "dur": 0.49,
              "vel": 127
            },
            {
              "note": "F2",
              "pitch": 53,
              "beat": 5.5,
              "dur": 0.49,
              "vel": 127
            },
            {
              "note": "F2",
              "pitch": 53,
              "beat": 6.5,
              "dur": 0.49,
              "vel": 127
            },
            {
              "note": "G2",
              "pitch": 55,
              "beat": 7.5,
              "dur": 0.49,
              "vel": 127
            },
            {
              "note": "A#2",
              "pitch": 58,
              "beat": 8.5,
              "dur": 0.49,
              "vel": 127
            },
            {
              "note": "A#2",
              "pitch": 58,
              "beat": 9.5,
              "dur": 0.49,
              "vel": 127
            },
            {
              "note": "A#2",
              "pitch": 58,
              "beat": 10.5,
              "dur": 0.49,
              "vel": 127
            },
            {
              "note": "C3",
              "pitch": 60,
              "beat": 11.5,
              "dur": 0.49,
              "vel": 127
            },
            {
              "note": "G2",
              "pitch": 55,
              "beat": 12.5,
              "dur": 0.49,
              "vel": 127
            },
            {
              "note": "G2",
              "pitch": 55,
              "beat": 13.5,
              "dur": 0.49,
              "vel": 127
            },
            {
              "note": "G2",
              "pitch": 55,
              "beat": 14.5,
              "dur": 0.49,
              "vel": 127
            },
            {
              "note": "D3",
              "pitch": 62,
              "beat": 15.5,
              "dur": 0.49,
              "vel": 127
            },
            {
              "note": "D2",
              "pitch": 50,
              "beat": 16.5,
              "dur": 0.49,
              "vel": 127
            },
            {
              "note": "D2",
              "pitch": 50,
              "beat": 17.5,
              "dur": 0.49,
              "vel": 127
            },
            {
              "note": "D2",
              "pitch": 50,
              "beat": 18.5,
              "dur": 0.49,
              "vel": 127
            },
            {
              "note": "D3",
              "pitch": 62,
              "beat": 19.5,
              "dur": 0.49,
              "vel": 127
            },
            {
              "note": "F2",
              "pitch": 53,
              "beat": 20.5,
              "dur": 0.49,
              "vel": 127
            },
            {
              "note": "F2",
              "pitch": 53,
              "beat": 21.5,
              "dur": 0.49,
              "vel": 127
            },
            {
              "note": "F2",
              "pitch": 53,
              "beat": 22.5,
              "dur": 0.49,
              "vel": 127
            },
            {
              "note": "G2",
              "pitch": 55,
              "beat": 23.5,
              "dur": 0.49,
              "vel": 127
            },
            {
              "note": "A#2",
              "pitch": 58,
              "beat": 24.5,
              "dur": 0.49,
              "vel": 127
            },
            {
              "note": "A#2",
              "pitch": 58,
              "beat": 25.5,
              "dur": 0.49,
              "vel": 127
            },
            {
              "note": "A#2",
              "pitch": 58,
              "beat": 26.5,
              "dur": 0.49,
              "vel": 127
            },
            {
              "note": "C3",
              "pitch": 60,
              "beat": 27.5,
              "dur": 0.49,
              "vel": 127
            },
            {
              "note": "G2",
              "pitch": 55,
              "beat": 28.5,
              "dur": 0.49,
              "vel": 127
            },
            {
              "note": "G2",
              "pitch": 55,
              "beat": 29.5,
              "dur": 0.49,
              "vel": 127
            },
            {
              "note": "G2",
              "pitch": 55,
              "beat": 30.5,
              "dur": 0.49,
              "vel": 127
            },
            {
              "note": "D3",
              "pitch": 62,
              "beat": 31.5,
              "dur": 0.49,
              "vel": 127
            }
          ]
        },
        {
          "bar_start": 64.0,
          "bar_end": 80.0,
          "name": "",
          "notes": [
            {
              "note": "D2",
              "pitch": 50,
              "beat": 0.5,
              "dur": 0.49,
              "vel": 127
            },
            {
              "note": "D2",
              "pitch": 50,
              "beat": 1.5,
              "dur": 0.49,
              "vel": 127
            },
            {
              "note": "D2",
              "pitch": 50,
              "beat": 2.5,
              "dur": 0.49,
              "vel": 127
            },
            {
              "note": "D3",
              "pitch": 62,
              "beat": 3.5,
              "dur": 0.49,
              "vel": 127
            },
            {
              "note": "F2",
              "pitch": 53,
              "beat": 4.5,
              "dur": 0.49,
              "vel": 127
            },
            {
              "note": "F2",
              "pitch": 53,
              "beat": 5.5,
              "dur": 0.49,
              "vel": 127
            },
            {
              "note": "F2",
              "pitch": 53,
              "beat": 6.5,
              "dur": 0.49,
              "vel": 127
            },
            {
              "note": "G2",
              "pitch": 55,
              "beat": 7.5,
              "dur": 0.49,
              "vel": 127
            },
            {
              "note": "A#2",
              "pitch": 58,
              "beat": 8.5,
              "dur": 0.49,
              "vel": 127
            },
            {
              "note": "A#2",
              "pitch": 58,
              "beat": 9.5,
              "dur": 0.49,
              "vel": 127
            },
            {
              "note": "A#2",
              "pitch": 58,
              "beat": 10.5,
              "dur": 0.49,
              "vel": 127
            },
            {
              "note": "C3",
              "pitch": 60,
              "beat": 11.5,
              "dur": 0.49,
              "vel": 127
            },
            {
              "note": "G2",
              "pitch": 55,
              "beat": 12.5,
              "dur": 0.49,
              "vel": 127
            },
            {
              "note": "G2",
              "pitch": 55,
              "beat": 13.5,
              "dur": 0.49,
              "vel": 127
            },
            {
              "note": "G2",
              "pitch": 55,
              "beat": 14.5,
              "dur": 0.49,
              "vel": 127
            },
            {
              "note": "D3",
              "pitch": 62,
              "beat": 15.5,
              "dur": 0.49,
              "vel": 127
            },
            {
              "note": "D2",
              "pitch": 50,
              "beat": 16.5,
              "dur": 0.49,
              "vel": 127
            },
            {
              "note": "D2",
              "pitch": 50,
              "beat": 17.5,
              "dur": 0.49,
              "vel": 127
            },
            {
              "note": "D2",
              "pitch": 50,
              "beat": 18.5,
              "dur": 0.49,
              "vel": 127
            },
            {
              "note": "D3",
              "pitch": 62,
              "beat": 19.5,
              "dur": 0.49,
              "vel": 127
            },
            {
              "note": "F2",
              "pitch": 53,
              "beat": 20.5,
              "dur": 0.49,
              "vel": 127
            },
            {
              "note": "F2",
              "pitch": 53,
              "beat": 21.5,
              "dur": 0.49,
              "vel": 127
            },
            {
              "note": "F2",
              "pitch": 53,
              "beat": 22.5,
              "dur": 0.49,
              "vel": 127
            },
            {
              "note": "G2",
              "pitch": 55,
              "beat": 23.5,
              "dur": 0.49,
              "vel": 127
            },
            {
              "note": "A#2",
              "pitch": 58,
              "beat": 24.5,
              "dur": 0.49,
              "vel": 127
            },
            {
              "note": "A#2",
              "pitch": 58,
              "beat": 25.5,
              "dur": 0.49,
              "vel": 127
            },
            {
              "note": "A#2",
              "pitch": 58,
              "beat": 26.5,
              "dur": 0.49,
              "vel": 127
            },
            {
              "note": "C3",
              "pitch": 60,
              "beat": 27.5,
              "dur": 0.49,
              "vel": 127
            },
            {
              "note": "G2",
              "pitch": 55,
              "beat": 28.5,
              "dur": 0.49,
              "vel": 127
            },
            {
              "note": "G2",
              "pitch": 55,
              "beat": 29.5,
              "dur": 0.49,
              "vel": 127
            },
            {
              "note": "G2",
              "pitch": 55,
              "beat": 30.5,
              "dur": 0.49,
              "vel": 127
            },
            {
              "note": "D3",
              "pitch": 62,
              "beat": 31.5,
              "dur": 0.49,
              "vel": 127
            }
          ]
        }
      ],
      "automations": [],
      "children": []
    },
    "12": {
      "id": "12",
      "name": "Pluck 1",
      "type": "MidiTrack",
      "group_id": "27",
      "devices": [
        {
          "type": "PluginDevice",
          "plugin": "Serum",
          "preset": "",
          "vst_params": []
        },
        {
          "type": "Eq8",
          "bands": []
        },
        {
          "type": "PluginDevice",
          "plugin": "Kickstart 2",
          "preset": "",
          "vst_params": []
        }
      ],
      "clips": [
        {
          "bar_start": 32.0,
          "bar_end": 48.0,
          "name": "",
          "notes": [
            {
              "note": "D3",
              "pitch": 62,
              "beat": 0.0,
              "dur": 0.5,
              "vel": 93
            },
            {
              "note": "A3",
              "pitch": 69,
              "beat": 0.5,
              "dur": 0.5,
              "vel": 93
            },
            {
              "note": "A3",
              "pitch": 69,
              "beat": 3.5,
              "dur": 0.5,
              "vel": 93
            },
            {
              "note": "F2",
              "pitch": 53,
              "beat": 4.0,
              "dur": 0.5,
              "vel": 93
            },
            {
              "note": "C4",
              "pitch": 72,
              "beat": 4.5,
              "dur": 0.5,
              "vel": 93
            },
            {
              "note": "C4",
              "pitch": 72,
              "beat": 7.5,
              "dur": 0.5,
              "vel": 93
            },
            {
              "note": "A#2",
              "pitch": 58,
              "beat": 8.0,
              "dur": 0.5,
              "vel": 93
            },
            {
              "note": "F3",
              "pitch": 65,
              "beat": 8.5,
              "dur": 0.5,
              "vel": 93
            },
            {
              "note": "E3",
              "pitch": 64,
              "beat": 11.5,
              "dur": 0.5,
              "vel": 93
            },
            {
              "note": "G2",
              "pitch": 55,
              "beat": 12.0,
              "dur": 0.5,
              "vel": 93
            },
            {
              "note": "D3",
              "pitch": 62,
              "beat": 12.5,
              "dur": 0.5,
              "vel": 93
            },
            {
              "note": "D3",
              "pitch": 62,
              "beat": 14.5,
              "dur": 0.5,
              "vel": 93
            },
            {
              "note": "E3",
              "pitch": 64,
              "beat": 15.0,
              "dur": 0.5,
              "vel": 93
            },
            {
              "note": "F3",
              "pitch": 65,
              "beat": 15.5,
              "dur": 0.5,
              "vel": 93
            },
            {
              "note": "D3",
              "pitch": 62,
              "beat": 16.0,
              "dur": 0.5,
              "vel": 93
            },
            {
              "note": "A3",
              "pitch": 69,
              "beat": 16.5,
              "dur": 0.5,
              "vel": 93
            },
            {
              "note": "A3",
              "pitch": 69,
              "beat": 19.5,
              "dur": 0.5,
              "vel": 93
            },
            {
              "note": "F2",
              "pitch": 53,
              "beat": 20.0,
              "dur": 0.5,
              "vel": 93
            },
            {
              "note": "C4",
              "pitch": 72,
              "beat": 20.5,
              "dur": 0.5,
              "vel": 93
            },
            {
              "note": "C4",
              "pitch": 72,
              "beat": 23.5,
              "dur": 0.5,
              "vel": 93
            },
            {
              "note": "A#2",
              "pitch": 58,
              "beat": 24.0,
              "dur": 0.5,
              "vel": 93
            },
            {
              "note": "F3",
              "pitch": 65,
              "beat": 24.5,
              "dur": 0.5,
              "vel": 93
            },
            {
              "note": "E3",
              "pitch": 64,
              "beat": 27.5,
              "dur": 0.5,
              "vel": 93
            },
            {
              "note": "G2",
              "pitch": 55,
              "beat": 28.0,
              "dur": 0.5,
              "vel": 93
            },
            {
              "note": "D3",
              "pitch": 62,
              "beat": 28.5,
              "dur": 0.5,
              "vel": 93
            },
            {
              "note": "D3",
              "pitch": 62,
              "beat": 30.5,
              "dur": 0.5,
              "vel": 93
            },
            {
              "note": "E3",
              "pitch": 64,
              "beat": 31.0,
              "dur": 0.5,
              "vel": 93
            },
            {
              "note": "F3",
              "pitch": 65,
              "beat": 31.5,
              "dur": 0.5,
              "vel": 93
            }
          ]
        },
        {
          "bar_start": 64.0,
          "bar_end": 80.0,
          "name": "",
          "notes": [
            {
              "note": "D3",
              "pitch": 62,
              "beat": 0.0,
              "dur": 0.5,
              "vel": 93
            },
            {
              "note": "A3",
              "pitch": 69,
              "beat": 0.5,
              "dur": 0.5,
              "vel": 93
            },
            {
              "note": "A3",
              "pitch": 69,
              "beat": 3.5,
              "dur": 0.5,
              "vel": 93
            },
            {
              "note": "F2",
              "pitch": 53,
              "beat": 4.0,
              "dur": 0.5,
              "vel": 93
            },
            {
              "note": "C4",
              "pitch": 72,
              "beat": 4.5,
              "dur": 0.5,
              "vel": 93
            },
            {
              "note": "C4",
              "pitch": 72,
              "beat": 7.5,
              "dur": 0.5,
              "vel": 93
            },
            {
              "note": "A#2",
              "pitch": 58,
              "beat": 8.0,
              "dur": 0.5,
              "vel": 93
            },
            {
              "note": "F3",
              "pitch": 65,
              "beat": 8.5,
              "dur": 0.5,
              "vel": 93
            },
            {
              "note": "E3",
              "pitch": 64,
              "beat": 11.5,
              "dur": 0.5,
              "vel": 93
            },
            {
              "note": "G2",
              "pitch": 55,
              "beat": 12.0,
              "dur": 0.5,
              "vel": 93
            },
            {
              "note": "D3",
              "pitch": 62,
              "beat": 12.5,
              "dur": 0.5,
              "vel": 93
            },
            {
              "note": "D3",
              "pitch": 62,
              "beat": 14.5,
              "dur": 0.5,
              "vel": 93
            },
            {
              "note": "E3",
              "pitch": 64,
              "beat": 15.0,
              "dur": 0.5,
              "vel": 93
            },
            {
              "note": "F3",
              "pitch": 65,
              "beat": 15.5,
              "dur": 0.5,
              "vel": 93
            },
            {
              "note": "D3",
              "pitch": 62,
              "beat": 16.0,
              "dur": 0.5,
              "vel": 93
            },
            {
              "note": "A3",
              "pitch": 69,
              "beat": 16.5,
              "dur": 0.5,
              "vel": 93
            },
            {
              "note": "A3",
              "pitch": 69,
              "beat": 19.5,
              "dur": 0.5,
              "vel": 93
            },
            {
              "note": "F2",
              "pitch": 53,
              "beat": 20.0,
              "dur": 0.5,
              "vel": 93
            },
            {
              "note": "C4",
              "pitch": 72,
              "beat": 20.5,
              "dur": 0.5,
              "vel": 93
            },
            {
              "note": "C4",
              "pitch": 72,
              "beat": 23.5,
              "dur": 0.5,
              "vel": 93
            },
            {
              "note": "A#2",
              "pitch": 58,
              "beat": 24.0,
              "dur": 0.5,
              "vel": 93
            },
            {
              "note": "F3",
              "pitch": 65,
              "beat": 24.5,
              "dur": 0.5,
              "vel": 93
            },
            {
              "note": "E3",
              "pitch": 64,
              "beat": 27.5,
              "dur": 0.5,
              "vel": 93
            },
            {
              "note": "G2",
              "pitch": 55,
              "beat": 28.0,
              "dur": 0.5,
              "vel": 93
            },
            {
              "note": "D3",
              "pitch": 62,
              "beat": 28.5,
              "dur": 0.5,
              "vel": 93
            },
            {
              "note": "D3",
              "pitch": 62,
              "beat": 30.5,
              "dur": 0.5,
              "vel": 93
            },
            {
              "note": "E3",
              "pitch": 64,
              "beat": 31.0,
              "dur": 0.5,
              "vel": 93
            },
            {
              "note": "F3",
              "pitch": 65,
              "beat": 31.5,
              "dur": 0.5,
              "vel": 93
            }
          ]
        }
      ],
      "automations": [],
      "children": []
    },
    "13": {
      "id": "13",
      "name": "Saws 1",
      "type": "MidiTrack",
      "group_id": "27",
      "devices": [
        {
          "type": "PluginDevice",
          "plugin": "Serum",
          "preset": "",
          "vst_params": []
        },
        {
          "type": "Eq8",
          "bands": []
        },
        {
          "type": "MultibandDynamics",
          "DryWet": "1"
        },
        {
          "type": "PluginDevice",
          "plugin": "Kickstart 2",
          "preset": "",
          "vst_params": []
        },
        {
          "type": "StereoGain",
          "On": "true",
          "PhaseInvertL": "false",
          "PhaseInvertR": "false",
          "ChannelMode": "1",
          "StereoWidth": "1",
          "MidSideBalance": "1",
          "Mono": "false",
          "BassMono": "false",
          "BassMonoFrequency": "120",
          "Balance": "0",
          "Gain": "1",
          "LegacyGain": "0",
          "Mute": "false",
          "DcFilter": "false"
        },
        {
          "type": "Reverb",
          "PreDelay": "51.5807152",
          "RoomSize": "95.6207199",
          "DecayTime": "3792.36401",
          "FreezeOn": "false"
        }
      ],
      "clips": [
        {
          "bar_start": 40.0,
          "bar_end": 48.0,
          "name": "",
          "notes": [
            {
              "note": "A2",
              "pitch": 57,
              "beat": 0.0,
              "dur": 0.125,
              "vel": 105
            },
            {
              "note": "A2",
              "pitch": 57,
              "beat": 0.25,
              "dur": 0.125,
              "vel": 105
            },
            {
              "note": "A2",
              "pitch": 57,
              "beat": 0.5,
              "dur": 0.125,
              "vel": 105
            },
            {
              "note": "A2",
              "pitch": 57,
              "beat": 0.75,
              "dur": 0.125,
              "vel": 105
            },
            {
              "note": "A2",
              "pitch": 57,
              "beat": 1.0,
              "dur": 0.5,
              "vel": 105
            },
            {
              "note": "A2",
              "pitch": 57,
              "beat": 1.5,
              "dur": 0.125,
              "vel": 105
            },
            {
              "note": "A2",
              "pitch": 57,
              "beat": 1.75,
              "dur": 0.125,
              "vel": 105
            },
            {
              "note": "A2",
              "pitch": 57,
              "beat": 2.0,
              "dur": 0.125,
              "vel": 105
            },
            {
              "note": "A2",
              "pitch": 57,
              "beat": 2.25,
              "dur": 0.125,
              "vel": 105
            },
            {
              "note": "A2",
              "pitch": 57,
              "beat": 2.5,
              "dur": 0.125,
              "vel": 105
            },
            {
              "note": "A2",
              "pitch": 57,
              "beat": 2.75,
              "dur": 0.125,
              "vel": 105
            },
            {
              "note": "A2",
              "pitch": 57,
              "beat": 3.0,
              "dur": 0.125,
              "vel": 105
            },
            {
              "note": "A2",
              "pitch": 57,
              "beat": 3.25,
              "dur": 0.125,
              "vel": 105
            },
            {
              "note": "A2",
              "pitch": 57,
              "beat": 3.5,
              "dur": 0.125,
              "vel": 105
            },
            {
              "note": "A2",
              "pitch": 57,
              "beat": 3.75,
              "dur": 0.125,
              "vel": 105
            },
            {
              "note": "C3",
              "pitch": 60,
              "beat": 4.0,
              "dur": 0.125,
              "vel": 105
            },
            {
              "note": "C3",
              "pitch": 60,
              "beat": 4.25,
              "dur": 0.125,
              "vel": 105
            },
            {
              "note": "C3",
              "pitch": 60,
              "beat": 4.5,
              "dur": 0.125,
              "vel": 105
            },
            {
              "note": "C3",
              "pitch": 60,
              "beat": 4.75,
              "dur": 0.125,
              "vel": 105
            },
            {
              "note": "C3",
              "pitch": 60,
              "beat": 5.0,
              "dur": 0.5,
              "vel": 105
            },
            {
              "note": "C3",
              "pitch": 60,
              "beat": 5.5,
              "dur": 0.125,
              "vel": 105
            },
            {
              "note": "C3",
              "pitch": 60,
              "beat": 5.75,
              "dur": 0.125,
              "vel": 105
            },
            {
              "note": "C3",
              "pitch": 60,
              "beat": 6.0,
              "dur": 0.125,
              "vel": 105
            },
            {
              "note": "C3",
              "pitch": 60,
              "beat": 6.25,
              "dur": 0.125,
              "vel": 105
            },
            {
              "note": "C3",
              "pitch": 60,
              "beat": 6.5,
              "dur": 0.125,
              "vel": 105
            },
            {
              "note": "C3",
              "pitch": 60,
              "beat": 6.75,
              "dur": 0.125,
              "vel": 105
            },
            {
              "note": "C3",
              "pitch": 60,
              "beat": 7.0,
              "dur": 0.125,
              "vel": 105
            },
            {
              "note": "C3",
              "pitch": 60,
              "beat": 7.25,
              "dur": 0.125,
              "vel": 105
            },
            {
              "note": "C3",
              "pitch": 60,
              "beat": 7.5,
              "dur": 0.125,
              "vel": 105
            },
            {
              "note": "C3",
              "pitch": 60,
              "beat": 7.75,
              "dur": 0.125,
              "vel": 105
            },
            {
              "note": "F2",
              "pitch": 53,
              "beat": 8.0,
              "dur": 0.125,
              "vel": 105
            },
            {
              "note": "F2",
              "pitch": 53,
              "beat": 8.25,
              "dur": 0.125,
              "vel": 105
            },
            {
              "note": "F2",
              "pitch": 53,
              "beat": 8.5,
              "dur": 0.125,
              "vel": 105
            },
            {
              "note": "F2",
              "pitch": 53,
              "beat": 8.75,
              "dur": 0.125,
              "vel": 105
            },
            {
              "note": "F2",
              "pitch": 53,
              "beat": 9.0,
              "dur": 0.5,
              "vel": 105
            },
            {
              "note": "F2",
              "pitch": 53,
              "beat": 9.5,
              "dur": 0.125,
              "vel": 105
            },
            {
              "note": "F2",
              "pitch": 53,
              "beat": 9.75,
              "dur": 0.125,
              "vel": 105
            },
            {
              "note": "F2",
              "pitch": 53,
              "beat": 10.0,
              "dur": 0.125,
              "vel": 105
            },
            {
              "note": "F2",
              "pitch": 53,
              "beat": 10.25,
              "dur": 0.125,
              "vel": 105
            },
            {
              "note": "F2",
              "pitch": 53,
              "beat": 10.5,
              "dur": 0.125,
              "vel": 105
            },
            {
              "note": "F2",
              "pitch": 53,
              "beat": 10.75,
              "dur": 0.125,
              "vel": 105
            },
            {
              "note": "F2",
              "pitch": 53,
              "beat": 11.0,
              "dur": 0.125,
              "vel": 105
            },
            {
              "note": "F2",
              "pitch": 53,
              "beat": 11.25,
              "dur": 0.125,
              "vel": 105
            },
            {
              "note": "F2",
              "pitch": 53,
              "beat": 11.5,
              "dur": 0.125,
              "vel": 105
            },
            {
              "note": "F2",
              "pitch": 53,
              "beat": 11.75,
              "dur": 0.125,
              "vel": 105
            },
            {
              "note": "D2",
              "pitch": 50,
              "beat": 12.0,
              "dur": 0.125,
              "vel": 105
            },
            {
              "note": "D2",
              "pitch": 50,
              "beat": 12.25,
              "dur": 0.125,
              "vel": 105
            },
            {
              "note": "D2",
              "pitch": 50,
              "beat": 12.5,
              "dur": 0.125,
              "vel": 105
            },
            {
              "note": "D2",
              "pitch": 50,
              "beat": 12.75,
              "dur": 0.125,
              "vel": 105
            },
            {
              "note": "D2",
              "pitch": 50,
              "beat": 13.0,
              "dur": 0.5,
              "vel": 105
            },
            {
              "note": "D2",
              "pitch": 50,
              "beat": 13.5,
              "dur": 0.125,
              "vel": 105
            },
            {
              "note": "D2",
              "pitch": 50,
              "beat": 13.75,
              "dur": 0.125,
              "vel": 105
            },
            {
              "note": "D2",
              "pitch": 50,
              "beat": 14.0,
              "dur": 0.125,
              "vel": 105
            },
            {
              "note": "D2",
              "pitch": 50,
              "beat": 14.25,
              "dur": 0.125,
              "vel": 105
            },
            {
              "note": "D2",
              "pitch": 50,
              "beat": 14.5,
              "dur": 0.125,
              "vel": 105
            },
            {
              "note": "D2",
              "pitch": 50,
              "beat": 14.75,
              "dur": 0.125,
              "vel": 105
            },
            {
              "note": "D2",
              "pitch": 50,
              "beat": 15.0,
              "dur": 0.125,
              "vel": 105
            },
            {
              "note": "D2",
              "pitch": 50,
              "beat": 15.25,
              "dur": 0.125,
              "vel": 105
            },
            {
              "note": "D2",
              "pitch": 50,
              "beat": 15.5,
              "dur": 0.125,
              "vel": 105
            },
            {
              "note": "D2",
              "pitch": 50,
              "beat": 15.75,
              "dur": 0.125,
              "vel": 105
            },
            {
              "note": "A2",
              "pitch": 57,
              "beat": 16.0,
              "dur": 0.125,
              "vel": 105
            },
            {
              "note": "A2",
              "pitch": 57,
              "beat": 16.25,
              "dur": 0.125,
              "vel": 105
            },
            {
              "note": "A2",
              "pitch": 57,
              "beat": 16.5,
              "dur": 0.125,
              "vel": 105
            },
            {
              "note": "A2",
              "pitch": 57,
              "beat": 16.75,
              "dur": 0.125,
              "vel": 105
            },
            {
              "note": "A2",
              "pitch": 57,
              "beat": 17.0,
              "dur": 0.5,
              "vel": 105
            },
            {
              "note": "A2",
              "pitch": 57,
              "beat": 17.5,
              "dur": 0.125,
              "vel": 105
            },
            {
              "note": "A2",
              "pitch": 57,
              "beat": 17.75,
              "dur": 0.125,
              "vel": 105
            },
            {
              "note": "A2",
              "pitch": 57,
              "beat": 18.0,
              "dur": 0.125,
              "vel": 105
            },
            {
              "note": "A2",
              "pitch": 57,
              "beat": 18.25,
              "dur": 0.125,
              "vel": 105
            },
            {
              "note": "A2",
              "pitch": 57,
              "beat": 18.5,
              "dur": 0.125,
              "vel": 105
            },
            {
              "note": "A2",
              "pitch": 57,
              "beat": 18.75,
              "dur": 0.125,
              "vel": 105
            },
            {
              "note": "A2",
              "pitch": 57,
              "beat": 19.0,
              "dur": 0.125,
              "vel": 105
            },
            {
              "note": "A2",
              "pitch": 57,
              "beat": 19.25,
              "dur": 0.125,
              "vel": 105
            },
            {
              "note": "A2",
              "pitch": 57,
              "beat": 19.5,
              "dur": 0.125,
              "vel": 105
            },
            {
              "note": "A2",
              "pitch": 57,
              "beat": 19.75,
              "dur": 0.125,
              "vel": 105
            },
            {
              "note": "C3",
              "pitch": 60,
              "beat": 20.0,
              "dur": 0.125,
              "vel": 105
            },
            {
              "note": "C3",
              "pitch": 60,
              "beat": 20.25,
              "dur": 0.125,
              "vel": 105
            },
            {
              "note": "C3",
              "pitch": 60,
              "beat": 20.5,
              "dur": 0.125,
              "vel": 105
            },
            {
              "note": "C3",
              "pitch": 60,
              "beat": 20.75,
              "dur": 0.125,
              "vel": 105
            },
            {
              "note": "C3",
              "pitch": 60,
              "beat": 21.0,
              "dur": 0.5,
              "vel": 105
            },
            {
              "note": "C3",
              "pitch": 60,
              "beat": 21.5,
              "dur": 0.125,
              "vel": 105
            },
            {
              "note": "C3",
              "pitch": 60,
              "beat": 21.75,
              "dur": 0.125,
              "vel": 105
            },
            {
              "note": "C3",
              "pitch": 60,
              "beat": 22.0,
              "dur": 0.125,
              "vel": 105
            },
            {
              "note": "C3",
              "pitch": 60,
              "beat": 22.25,
              "dur": 0.125,
              "vel": 105
            },
            {
              "note": "C3",
              "pitch": 60,
              "beat": 22.5,
              "dur": 0.125,
              "vel": 105
            },
            {
              "note": "C3",
              "pitch": 60,
              "beat": 22.75,
              "dur": 0.125,
              "vel": 105
            },
            {
              "note": "C3",
              "pitch": 60,
              "beat": 23.0,
              "dur": 0.125,
              "vel": 105
            },
            {
              "note": "C3",
              "pitch": 60,
              "beat": 23.25,
              "dur": 0.125,
              "vel": 105
            },
            {
              "note": "C3",
              "pitch": 60,
              "beat": 23.5,
              "dur": 0.125,
              "vel": 105
            },
            {
              "note": "C3",
              "pitch": 60,
              "beat": 23.75,
              "dur": 0.125,
              "vel": 105
            },
            {
              "note": "F2",
              "pitch": 53,
              "beat": 24.0,
              "dur": 0.125,
              "vel": 105
            },
            {
              "note": "F2",
              "pitch": 53,
              "beat": 24.25,
              "dur": 0.125,
              "vel": 105
            },
            {
              "note": "F2",
              "pitch": 53,
              "beat": 24.5,
              "dur": 0.125,
              "vel": 105
            },
            {
              "note": "F2",
              "pitch": 53,
              "beat": 24.75,
              "dur": 0.125,
              "vel": 105
            },
            {
              "note": "F2",
              "pitch": 53,
              "beat": 25.0,
              "dur": 0.5,
              "vel": 105
            },
            {
              "note": "F2",
              "pitch": 53,
              "beat": 25.5,
              "dur": 0.125,
              "vel": 105
            },
            {
              "note": "F2",
              "pitch": 53,
              "beat": 25.75,
              "dur": 0.125,
              "vel": 105
            },
            {
              "note": "F2",
              "pitch": 53,
              "beat": 26.0,
              "dur": 0.125,
              "vel": 105
            },
            {
              "note": "F2",
              "pitch": 53,
              "beat": 26.25,
              "dur": 0.125,
              "vel": 105
            },
            {
              "note": "F2",
              "pitch": 53,
              "beat": 26.5,
              "dur": 0.125,
              "vel": 105
            },
            {
              "note": "F2",
              "pitch": 53,
              "beat": 26.75,
              "dur": 0.125,
              "vel": 105
            },
            {
              "note": "F2",
              "pitch": 53,
              "beat": 27.0,
              "dur": 0.125,
              "vel": 105
            },
            {
              "note": "F2",
              "pitch": 53,
              "beat": 27.25,
              "dur": 0.125,
              "vel": 105
            },
            {
              "note": "F2",
              "pitch": 53,
              "beat": 27.5,
              "dur": 0.125,
              "vel": 105
            },
            {
              "note": "F2",
              "pitch": 53,
              "beat": 27.75,
              "dur": 0.125,
              "vel": 105
            },
            {
              "note": "D2",
              "pitch": 50,
              "beat": 28.0,
              "dur": 0.125,
              "vel": 105
            },
            {
              "note": "D2",
              "pitch": 50,
              "beat": 28.25,
              "dur": 0.125,
              "vel": 105
            },
            {
              "note": "D2",
              "pitch": 50,
              "beat": 28.5,
              "dur": 0.125,
              "vel": 105
            },
            {
              "note": "D2",
              "pitch": 50,
              "beat": 28.75,
              "dur": 0.125,
              "vel": 105
            },
            {
              "note": "D2",
              "pitch": 50,
              "beat": 29.0,
              "dur": 0.5,
              "vel": 105
            },
            {
              "note": "D2",
              "pitch": 50,
              "beat": 29.5,
              "dur": 0.125,
              "vel": 105
            },
            {
              "note": "D2",
              "pitch": 50,
              "beat": 29.75,
              "dur": 0.125,
              "vel": 105
            },
            {
              "note": "D2",
              "pitch": 50,
              "beat": 30.0,
              "dur": 0.125,
              "vel": 105
            },
            {
              "note": "D2",
              "pitch": 50,
              "beat": 30.25,
              "dur": 0.125,
              "vel": 105
            },
            {
              "note": "D2",
              "pitch": 50,
              "beat": 30.5,
              "dur": 0.125,
              "vel": 105
            },
            {
              "note": "D2",
              "pitch": 50,
              "beat": 30.75,
              "dur": 0.125,
              "vel": 105
            },
            {
              "note": "D2",
              "pitch": 50,
              "beat": 31.0,
              "dur": 0.125,
              "vel": 105
            },
            {
              "note": "D2",
              "pitch": 50,
              "beat": 31.25,
              "dur": 0.125,
              "vel": 105
            },
            {
              "note": "D2",
              "pitch": 50,
              "beat": 31.5,
              "dur": 0.125,
              "vel": 105
            },
            {
              "note": "D2",
              "pitch": 50,
              "beat": 31.75,
              "dur": 0.125,
              "vel": 105
            }
          ]
        },
        {
          "bar_start": 48.0,
          "bar_end": 56.0,
          "name": "",
          "notes": [
            {
              "note": "A2",
              "pitch": 57,
              "beat": 0.0,
              "dur": 0.375,
              "vel": 105
            },
            {
              "note": "A2",
              "pitch": 57,
              "beat": 0.5,
              "dur": 0.375,
              "vel": 105
            },
            {
              "note": "A2",
              "pitch": 57,
              "beat": 1.0,
              "dur": 0.5,
              "vel": 105
            },
            {
              "note": "A2",
              "pitch": 57,
              "beat": 1.75,
              "dur": 0.375,
              "vel": 105
            },
            {
              "note": "A2",
              "pitch": 57,
              "beat": 2.5,
              "dur": 0.125,
              "vel": 105
            },
            {
              "note": "A2",
              "pitch": 57,
              "beat": 3.25,
              "dur": 0.125,
              "vel": 105
            },
            {
              "note": "A2",
              "pitch": 57,
              "beat": 3.5,
              "dur": 0.125,
              "vel": 105
            },
            {
              "note": "A2",
              "pitch": 57,
              "beat": 3.75,
              "dur": 0.125,
              "vel": 105
            },
            {
              "note": "C3",
              "pitch": 60,
              "beat": 4.0,
              "dur": 0.375,
              "vel": 105
            },
            {
              "note": "C3",
              "pitch": 60,
              "beat": 4.5,
              "dur": 0.375,
              "vel": 105
            },
            {
              "note": "C3",
              "pitch": 60,
              "beat": 5.0,
              "dur": 0.5,
              "vel": 105
            },
            {
              "note": "C3",
              "pitch": 60,
              "beat": 5.75,
              "dur": 0.375,
              "vel": 105
            },
            {
              "note": "C3",
              "pitch": 60,
              "beat": 6.5,
              "dur": 0.125,
              "vel": 105
            },
            {
              "note": "C3",
              "pitch": 60,
              "beat": 7.25,
              "dur": 0.125,
              "vel": 105
            },
            {
              "note": "C3",
              "pitch": 60,
              "beat": 7.5,
              "dur": 0.125,
              "vel": 105
            },
            {
              "note": "C3",
              "pitch": 60,
              "beat": 7.75,
              "dur": 0.125,
              "vel": 105
            },
            {
              "note": "F2",
              "pitch": 53,
              "beat": 8.0,
              "dur": 0.375,
              "vel": 105
            },
            {
              "note": "F2",
              "pitch": 53,
              "beat": 8.5,
              "dur": 0.375,
              "vel": 105
            },
            {
              "note": "F2",
              "pitch": 53,
              "beat": 9.0,
              "dur": 0.5,
              "vel": 105
            },
            {
              "note": "F2",
              "pitch": 53,
              "beat": 9.75,
              "dur": 0.375,
              "vel": 105
            },
            {
              "note": "F2",
              "pitch": 53,
              "beat": 10.5,
              "dur": 0.125,
              "vel": 105
            },
            {
              "note": "F2",
              "pitch": 53,
              "beat": 11.25,
              "dur": 0.125,
              "vel": 105
            },
            {
              "note": "F2",
              "pitch": 53,
              "beat": 11.5,
              "dur": 0.125,
              "vel": 105
            },
            {
              "note": "F2",
              "pitch": 53,
              "beat": 11.75,
              "dur": 0.125,
              "vel": 105
            },
            {
              "note": "D2",
              "pitch": 50,
              "beat": 12.0,
              "dur": 0.375,
              "vel": 105
            },
            {
              "note": "D2",
              "pitch": 50,
              "beat": 12.5,
              "dur": 0.375,
              "vel": 105
            },
            {
              "note": "D2",
              "pitch": 50,
              "beat": 13.0,
              "dur": 0.5,
              "vel": 105
            },
            {
              "note": "D2",
              "pitch": 50,
              "beat": 13.75,
              "dur": 0.375,
              "vel": 105
            },
            {
              "note": "D2",
              "pitch": 50,
              "beat": 14.5,
              "dur": 0.125,
              "vel": 105
            },
            {
              "note": "D2",
              "pitch": 50,
              "beat": 15.25,
              "dur": 0.125,
              "vel": 105
            },
            {
              "note": "D2",
              "pitch": 50,
              "beat": 15.5,
              "dur": 0.125,
              "vel": 105
            },
            {
              "note": "D2",
              "pitch": 50,
              "beat": 15.75,
              "dur": 0.125,
              "vel": 105
            },
            {
              "note": "A2",
              "pitch": 57,
              "beat": 16.0,
              "dur": 0.375,
              "vel": 105
            },
            {
              "note": "A2",
              "pitch": 57,
              "beat": 16.5,
              "dur": 0.375,
              "vel": 105
            },
            {
              "note": "A2",
              "pitch": 57,
              "beat": 17.0,
              "dur": 0.5,
              "vel": 105
            },
            {
              "note": "A2",
              "pitch": 57,
              "beat": 17.75,
              "dur": 0.375,
              "vel": 105
            },
            {
              "note": "A2",
              "pitch": 57,
              "beat": 18.5,
              "dur": 0.125,
              "vel": 105
            },
            {
              "note": "A2",
              "pitch": 57,
              "beat": 19.25,
              "dur": 0.125,
              "vel": 105
            },
            {
              "note": "A2",
              "pitch": 57,
              "beat": 19.5,
              "dur": 0.125,
              "vel": 105
            },
            {
              "note": "A2",
              "pitch": 57,
              "beat": 19.75,
              "dur": 0.125,
              "vel": 105
            },
            {
              "note": "C3",
              "pitch": 60,
              "beat": 20.0,
              "dur": 0.375,
              "vel": 105
            },
            {
              "note": "C3",
              "pitch": 60,
              "beat": 20.5,
              "dur": 0.375,
              "vel": 105
            },
            {
              "note": "C3",
              "pitch": 60,
              "beat": 21.0,
              "dur": 0.5,
              "vel": 105
            },
            {
              "note": "C3",
              "pitch": 60,
              "beat": 21.75,
              "dur": 0.375,
              "vel": 105
            },
            {
              "note": "C3",
              "pitch": 60,
              "beat": 22.5,
              "dur": 0.125,
              "vel": 105
            },
            {
              "note": "C3",
              "pitch": 60,
              "beat": 23.25,
              "dur": 0.125,
              "vel": 105
            },
            {
              "note": "C3",
              "pitch": 60,
              "beat": 23.5,
              "dur": 0.125,
              "vel": 105
            },
            {
              "note": "C3",
              "pitch": 60,
              "beat": 23.75,
              "dur": 0.125,
              "vel": 105
            },
            {
              "note": "F2",
              "pitch": 53,
              "beat": 24.0,
              "dur": 0.375,
              "vel": 105
            },
            {
              "note": "F2",
              "pitch": 53,
              "beat": 24.5,
              "dur": 0.375,
              "vel": 105
            },
            {
              "note": "F2",
              "pitch": 53,
              "beat": 25.0,
              "dur": 0.5,
              "vel": 105
            },
            {
              "note": "F2",
              "pitch": 53,
              "beat": 25.75,
              "dur": 0.375,
              "vel": 105
            },
            {
              "note": "F2",
              "pitch": 53,
              "beat": 26.5,
              "dur": 0.125,
              "vel": 105
            },
            {
              "note": "F2",
              "pitch": 53,
              "beat": 27.25,
              "dur": 0.125,
              "vel": 105
            },
            {
              "note": "F2",
              "pitch": 53,
              "beat": 27.5,
              "dur": 0.125,
              "vel": 105
            },
            {
              "note": "F2",
              "pitch": 53,
              "beat": 27.75,
              "dur": 0.125,
              "vel": 105
            },
            {
              "note": "D2",
              "pitch": 50,
              "beat": 28.0,
              "dur": 0.375,
              "vel": 105
            },
            {
              "note": "D2",
              "pitch": 50,
              "beat": 28.5,
              "dur": 0.375,
              "vel": 105
            },
            {
              "note": "D2",
              "pitch": 50,
              "beat": 29.0,
              "dur": 0.5,
              "vel": 105
            },
            {
              "note": "D2",
              "pitch": 50,
              "beat": 29.75,
              "dur": 0.375,
              "vel": 105
            },
            {
              "note": "D2",
              "pitch": 50,
              "beat": 30.5,
              "dur": 0.125,
              "vel": 105
            },
            {
              "note": "D2",
              "pitch": 50,
              "beat": 31.25,
              "dur": 0.125,
              "vel": 105
            },
            {
              "note": "D2",
              "pitch": 50,
              "beat": 31.5,
              "dur": 0.125,
              "vel": 105
            },
            {
              "note": "D2",
              "pitch": 50,
              "beat": 31.75,
              "dur": 0.125,
              "vel": 105
            }
          ]
        },
        {
          "bar_start": 56.0,
          "bar_end": 64.0,
          "name": "",
          "notes": [
            {
              "note": "A2",
              "pitch": 57,
              "beat": 0.0,
              "dur": 0.375,
              "vel": 105
            },
            {
              "note": "A2",
              "pitch": 57,
              "beat": 0.5,
              "dur": 0.375,
              "vel": 105
            },
            {
              "note": "A2",
              "pitch": 57,
              "beat": 1.0,
              "dur": 0.5,
              "vel": 105
            },
            {
              "note": "A2",
              "pitch": 57,
              "beat": 1.75,
              "dur": 0.375,
              "vel": 105
            },
            {
              "note": "A2",
              "pitch": 57,
              "beat": 2.5,
              "dur": 0.125,
              "vel": 105
            },
            {
              "note": "A2",
              "pitch": 57,
              "beat": 3.25,
              "dur": 0.125,
              "vel": 105
            },
            {
              "note": "A2",
              "pitch": 57,
              "beat": 3.5,
              "dur": 0.125,
              "vel": 105
            },
            {
              "note": "A2",
              "pitch": 57,
              "beat": 3.75,
              "dur": 0.125,
              "vel": 105
            },
            {
              "note": "A2",
              "pitch": 57,
              "beat": 4.0,
              "dur": 0.375,
              "vel": 105
            },
            {
              "note": "A2",
              "pitch": 57,
              "beat": 4.5,
              "dur": 0.375,
              "vel": 105
            },
            {
              "note": "A2",
              "pitch": 57,
              "beat": 5.0,
              "dur": 0.5,
              "vel": 105
            },
            {
              "note": "A2",
              "pitch": 57,
              "beat": 5.75,
              "dur": 0.375,
              "vel": 105
            },
            {
              "note": "A2",
              "pitch": 57,
              "beat": 6.5,
              "dur": 0.125,
              "vel": 105
            },
            {
              "note": "A2",
              "pitch": 57,
              "beat": 7.25,
              "dur": 0.125,
              "vel": 105
            },
            {
              "note": "A2",
              "pitch": 57,
              "beat": 7.5,
              "dur": 0.125,
              "vel": 105
            },
            {
              "note": "A2",
              "pitch": 57,
              "beat": 7.75,
              "dur": 0.125,
              "vel": 105
            },
            {
              "note": "A2",
              "pitch": 57,
              "beat": 8.0,
              "dur": 0.375,
              "vel": 105
            },
            {
              "note": "A2",
              "pitch": 57,
              "beat": 8.5,
              "dur": 0.375,
              "vel": 105
            },
            {
              "note": "A2",
              "pitch": 57,
              "beat": 9.0,
              "dur": 0.5,
              "vel": 105
            },
            {
              "note": "A2",
              "pitch": 57,
              "beat": 9.75,
              "dur": 0.375,
              "vel": 105
            },
            {
              "note": "A2",
              "pitch": 57,
              "beat": 10.5,
              "dur": 0.125,
              "vel": 105
            },
            {
              "note": "A2",
              "pitch": 57,
              "beat": 11.25,
              "dur": 0.125,
              "vel": 105
            },
            {
              "note": "A2",
              "pitch": 57,
              "beat": 11.5,
              "dur": 0.125,
              "vel": 105
            },
            {
              "note": "A2",
              "pitch": 57,
              "beat": 11.75,
              "dur": 0.125,
              "vel": 105
            },
            {
              "note": "A2",
              "pitch": 57,
              "beat": 12.0,
              "dur": 0.375,
              "vel": 105
            },
            {
              "note": "A2",
              "pitch": 57,
              "beat": 12.5,
              "dur": 0.375,
              "vel": 105
            },
            {
              "note": "A2",
              "pitch": 57,
              "beat": 13.0,
              "dur": 0.5,
              "vel": 105
            },
            {
              "note": "A2",
              "pitch": 57,
              "beat": 13.75,
              "dur": 0.375,
              "vel": 105
            },
            {
              "note": "A2",
              "pitch": 57,
              "beat": 14.5,
              "dur": 0.125,
              "vel": 105
            },
            {
              "note": "A2",
              "pitch": 57,
              "beat": 15.25,
              "dur": 0.125,
              "vel": 105
            },
            {
              "note": "A2",
              "pitch": 57,
              "beat": 15.5,
              "dur": 0.125,
              "vel": 105
            },
            {
              "note": "A2",
              "pitch": 57,
              "beat": 15.75,
              "dur": 0.125,
              "vel": 105
            },
            {
              "note": "A2",
              "pitch": 57,
              "beat": 16.0,
              "dur": 0.375,
              "vel": 105
            },
            {
              "note": "A2",
              "pitch": 57,
              "beat": 16.5,
              "dur": 0.375,
              "vel": 105
            },
            {
              "note": "A2",
              "pitch": 57,
              "beat": 17.0,
              "dur": 0.5,
              "vel": 105
            },
            {
              "note": "A2",
              "pitch": 57,
              "beat": 17.75,
              "dur": 0.375,
              "vel": 105
            },
            {
              "note": "A2",
              "pitch": 57,
              "beat": 18.5,
              "dur": 0.125,
              "vel": 105
            },
            {
              "note": "A2",
              "pitch": 57,
              "beat": 19.25,
              "dur": 0.125,
              "vel": 105
            },
            {
              "note": "A2",
              "pitch": 57,
              "beat": 19.5,
              "dur": 0.125,
              "vel": 105
            },
            {
              "note": "A2",
              "pitch": 57,
              "beat": 19.75,
              "dur": 0.125,
              "vel": 105
            },
            {
              "note": "A2",
              "pitch": 57,
              "beat": 20.0,
              "dur": 0.375,
              "vel": 105
            },
            {
              "note": "A2",
              "pitch": 57,
              "beat": 20.5,
              "dur": 0.375,
              "vel": 105
            },
            {
              "note": "A2",
              "pitch": 57,
              "beat": 21.0,
              "dur": 0.5,
              "vel": 105
            },
            {
              "note": "A2",
              "pitch": 57,
              "beat": 21.75,
              "dur": 0.375,
              "vel": 105
            },
            {
              "note": "A2",
              "pitch": 57,
              "beat": 22.5,
              "dur": 0.125,
              "vel": 105
            },
            {
              "note": "A2",
              "pitch": 57,
              "beat": 23.25,
              "dur": 0.125,
              "vel": 105
            },
            {
              "note": "A2",
              "pitch": 57,
              "beat": 23.5,
              "dur": 0.125,
              "vel": 105
            },
            {
              "note": "A2",
              "pitch": 57,
              "beat": 23.75,
              "dur": 0.125,
              "vel": 105
            },
            {
              "note": "A2",
              "pitch": 57,
              "beat": 24.0,
              "dur": 0.375,
              "vel": 105
            },
            {
              "note": "A2",
              "pitch": 57,
              "beat": 24.5,
              "dur": 0.375,
              "vel": 105
            },
            {
              "note": "A2",
              "pitch": 57,
              "beat": 25.0,
              "dur": 0.5,
              "vel": 105
            },
            {
              "note": "A2",
              "pitch": 57,
              "beat": 25.75,
              "dur": 0.375,
              "vel": 105
            },
            {
              "note": "A2",
              "pitch": 57,
              "beat": 26.5,
              "dur": 0.125,
              "vel": 105
            },
            {
              "note": "A2",
              "pitch": 57,
              "beat": 27.25,
              "dur": 0.125,
              "vel": 105
            },
            {
              "note": "A2",
              "pitch": 57,
              "beat": 27.5,
              "dur": 0.125,
              "vel": 105
            },
            {
              "note": "A2",
              "pitch": 57,
              "beat": 27.75,
              "dur": 0.125,
              "vel": 105
            }
          ]
        },
        {
          "bar_start": 72.0,
          "bar_end": 80.0,
          "name": "",
          "notes": [
            {
              "note": "A2",
              "pitch": 57,
              "beat": 0.0,
              "dur": 0.125,
              "vel": 105
            },
            {
              "note": "A2",
              "pitch": 57,
              "beat": 0.25,
              "dur": 0.125,
              "vel": 105
            },
            {
              "note": "A2",
              "pitch": 57,
              "beat": 0.5,
              "dur": 0.125,
              "vel": 105
            },
            {
              "note": "A2",
              "pitch": 57,
              "beat": 0.75,
              "dur": 0.125,
              "vel": 105
            },
            {
              "note": "A2",
              "pitch": 57,
              "beat": 1.0,
              "dur": 0.5,
              "vel": 105
            },
            {
              "note": "A2",
              "pitch": 57,
              "beat": 1.5,
              "dur": 0.125,
              "vel": 105
            },
            {
              "note": "A2",
              "pitch": 57,
              "beat": 1.75,
              "dur": 0.125,
              "vel": 105
            },
            {
              "note": "A2",
              "pitch": 57,
              "beat": 2.0,
              "dur": 0.125,
              "vel": 105
            },
            {
              "note": "A2",
              "pitch": 57,
              "beat": 2.25,
              "dur": 0.125,
              "vel": 105
            },
            {
              "note": "A2",
              "pitch": 57,
              "beat": 2.5,
              "dur": 0.125,
              "vel": 105
            },
            {
              "note": "A2",
              "pitch": 57,
              "beat": 2.75,
              "dur": 0.125,
              "vel": 105
            },
            {
              "note": "A2",
              "pitch": 57,
              "beat": 3.0,
              "dur": 0.125,
              "vel": 105
            },
            {
              "note": "A2",
              "pitch": 57,
              "beat": 3.25,
              "dur": 0.125,
              "vel": 105
            },
            {
              "note": "A2",
              "pitch": 57,
              "beat": 3.5,
              "dur": 0.125,
              "vel": 105
            },
            {
              "note": "A2",
              "pitch": 57,
              "beat": 3.75,
              "dur": 0.125,
              "vel": 105
            },
            {
              "note": "C3",
              "pitch": 60,
              "beat": 4.0,
              "dur": 0.125,
              "vel": 105
            },
            {
              "note": "C3",
              "pitch": 60,
              "beat": 4.25,
              "dur": 0.125,
              "vel": 105
            },
            {
              "note": "C3",
              "pitch": 60,
              "beat": 4.5,
              "dur": 0.125,
              "vel": 105
            },
            {
              "note": "C3",
              "pitch": 60,
              "beat": 4.75,
              "dur": 0.125,
              "vel": 105
            },
            {
              "note": "C3",
              "pitch": 60,
              "beat": 5.0,
              "dur": 0.5,
              "vel": 105
            },
            {
              "note": "C3",
              "pitch": 60,
              "beat": 5.5,
              "dur": 0.125,
              "vel": 105
            },
            {
              "note": "C3",
              "pitch": 60,
              "beat": 5.75,
              "dur": 0.125,
              "vel": 105
            },
            {
              "note": "C3",
              "pitch": 60,
              "beat": 6.0,
              "dur": 0.125,
              "vel": 105
            },
            {
              "note": "C3",
              "pitch": 60,
              "beat": 6.25,
              "dur": 0.125,
              "vel": 105
            },
            {
              "note": "C3",
              "pitch": 60,
              "beat": 6.5,
              "dur": 0.125,
              "vel": 105
            },
            {
              "note": "C3",
              "pitch": 60,
              "beat": 6.75,
              "dur": 0.125,
              "vel": 105
            },
            {
              "note": "C3",
              "pitch": 60,
              "beat": 7.0,
              "dur": 0.125,
              "vel": 105
            },
            {
              "note": "C3",
              "pitch": 60,
              "beat": 7.25,
              "dur": 0.125,
              "vel": 105
            },
            {
              "note": "C3",
              "pitch": 60,
              "beat": 7.5,
              "dur": 0.125,
              "vel": 105
            },
            {
              "note": "C3",
              "pitch": 60,
              "beat": 7.75,
              "dur": 0.125,
              "vel": 105
            },
            {
              "note": "F2",
              "pitch": 53,
              "beat": 8.0,
              "dur": 0.125,
              "vel": 105
            },
            {
              "note": "F2",
              "pitch": 53,
              "beat": 8.25,
              "dur": 0.125,
              "vel": 105
            },
            {
              "note": "F2",
              "pitch": 53,
              "beat": 8.5,
              "dur": 0.125,
              "vel": 105
            },
            {
              "note": "F2",
              "pitch": 53,
              "beat": 8.75,
              "dur": 0.125,
              "vel": 105
            },
            {
              "note": "F2",
              "pitch": 53,
              "beat": 9.0,
              "dur": 0.5,
              "vel": 105
            },
            {
              "note": "F2",
              "pitch": 53,
              "beat": 9.5,
              "dur": 0.125,
              "vel": 105
            },
            {
              "note": "F2",
              "pitch": 53,
              "beat": 9.75,
              "dur": 0.125,
              "vel": 105
            },
            {
              "note": "F2",
              "pitch": 53,
              "beat": 10.0,
              "dur": 0.125,
              "vel": 105
            },
            {
              "note": "F2",
              "pitch": 53,
              "beat": 10.25,
              "dur": 0.125,
              "vel": 105
            },
            {
              "note": "F2",
              "pitch": 53,
              "beat": 10.5,
              "dur": 0.125,
              "vel": 105
            },
            {
              "note": "F2",
              "pitch": 53,
              "beat": 10.75,
              "dur": 0.125,
              "vel": 105
            },
            {
              "note": "F2",
              "pitch": 53,
              "beat": 11.0,
              "dur": 0.125,
              "vel": 105
            },
            {
              "note": "F2",
              "pitch": 53,
              "beat": 11.25,
              "dur": 0.125,
              "vel": 105
            },
            {
              "note": "F2",
              "pitch": 53,
              "beat": 11.5,
              "dur": 0.125,
              "vel": 105
            },
            {
              "note": "F2",
              "pitch": 53,
              "beat": 11.75,
              "dur": 0.125,
              "vel": 105
            },
            {
              "note": "D2",
              "pitch": 50,
              "beat": 12.0,
              "dur": 0.125,
              "vel": 105
            },
            {
              "note": "D2",
              "pitch": 50,
              "beat": 12.25,
              "dur": 0.125,
              "vel": 105
            },
            {
              "note": "D2",
              "pitch": 50,
              "beat": 12.5,
              "dur": 0.125,
              "vel": 105
            },
            {
              "note": "D2",
              "pitch": 50,
              "beat": 12.75,
              "dur": 0.125,
              "vel": 105
            },
            {
              "note": "D2",
              "pitch": 50,
              "beat": 13.0,
              "dur": 0.5,
              "vel": 105
            },
            {
              "note": "D2",
              "pitch": 50,
              "beat": 13.5,
              "dur": 0.125,
              "vel": 105
            },
            {
              "note": "D2",
              "pitch": 50,
              "beat": 13.75,
              "dur": 0.125,
              "vel": 105
            },
            {
              "note": "D2",
              "pitch": 50,
              "beat": 14.0,
              "dur": 0.125,
              "vel": 105
            },
            {
              "note": "D2",
              "pitch": 50,
              "beat": 14.25,
              "dur": 0.125,
              "vel": 105
            },
            {
              "note": "D2",
              "pitch": 50,
              "beat": 14.5,
              "dur": 0.125,
              "vel": 105
            },
            {
              "note": "D2",
              "pitch": 50,
              "beat": 14.75,
              "dur": 0.125,
              "vel": 105
            },
            {
              "note": "D2",
              "pitch": 50,
              "beat": 15.0,
              "dur": 0.125,
              "vel": 105
            },
            {
              "note": "D2",
              "pitch": 50,
              "beat": 15.25,
              "dur": 0.125,
              "vel": 105
            },
            {
              "note": "D2",
              "pitch": 50,
              "beat": 15.5,
              "dur": 0.125,
              "vel": 105
            },
            {
              "note": "D2",
              "pitch": 50,
              "beat": 15.75,
              "dur": 0.125,
              "vel": 105
            }
          ]
        }
      ],
      "automations": [],
      "children": []
    },
    "15": {
      "id": "15",
      "name": "Saws 2",
      "type": "MidiTrack",
      "group_id": "27",
      "devices": [
        {
          "type": "PluginDevice",
          "plugin": "Serum",
          "preset": "",
          "vst_params": []
        },
        {
          "type": "Eq8",
          "bands": []
        },
        {
          "type": "PluginDevice",
          "plugin": "Kickstart 2",
          "preset": "",
          "vst_params": []
        }
      ],
      "clips": [
        {
          "bar_start": 64.0,
          "bar_end": 80.0,
          "name": "",
          "notes": [
            {
              "note": "D2",
              "pitch": 50,
              "beat": 0.0,
              "dur": 16.0,
              "vel": 104
            }
          ]
        }
      ],
      "automations": [],
      "children": []
    },
    "14": {
      "id": "14",
      "name": "Lead",
      "type": "MidiTrack",
      "group_id": "27",
      "devices": [
        {
          "type": "PluginDevice",
          "plugin": "Serum",
          "preset": "",
          "vst_params": []
        },
        {
          "type": "Eq8",
          "bands": []
        },
        {
          "type": "PluginDevice",
          "plugin": "Kickstart 2",
          "preset": "",
          "vst_params": []
        },
        {
          "type": "StereoGain",
          "On": "true",
          "PhaseInvertL": "false",
          "PhaseInvertR": "false",
          "ChannelMode": "1",
          "StereoWidth": "1",
          "MidSideBalance": "0.8095238209",
          "Mono": "false",
          "BassMono": "false",
          "BassMonoFrequency": "120",
          "Balance": "0",
          "Gain": "1",
          "LegacyGain": "0",
          "Mute": "false",
          "DcFilter": "false"
        }
      ],
      "clips": [
        {
          "bar_start": 64.0,
          "bar_end": 80.0,
          "name": "",
          "notes": [
            {
              "note": "D3",
              "pitch": 62,
              "beat": 0.0,
              "dur": 0.75,
              "vel": 93
            },
            {
              "note": "A3",
              "pitch": 69,
              "beat": 0.5,
              "dur": 0.75,
              "vel": 93
            },
            {
              "note": "A3",
              "pitch": 69,
              "beat": 3.5,
              "dur": 0.75,
              "vel": 93
            },
            {
              "note": "F2",
              "pitch": 53,
              "beat": 4.0,
              "dur": 0.75,
              "vel": 93
            },
            {
              "note": "C4",
              "pitch": 72,
              "beat": 4.5,
              "dur": 0.75,
              "vel": 93
            },
            {
              "note": "C4",
              "pitch": 72,
              "beat": 7.5,
              "dur": 0.75,
              "vel": 93
            },
            {
              "note": "A#2",
              "pitch": 58,
              "beat": 8.0,
              "dur": 0.75,
              "vel": 93
            },
            {
              "note": "F3",
              "pitch": 65,
              "beat": 8.5,
              "dur": 0.75,
              "vel": 93
            },
            {
              "note": "E3",
              "pitch": 64,
              "beat": 11.5,
              "dur": 0.75,
              "vel": 93
            },
            {
              "note": "G2",
              "pitch": 55,
              "beat": 12.0,
              "dur": 0.75,
              "vel": 93
            },
            {
              "note": "D3",
              "pitch": 62,
              "beat": 12.5,
              "dur": 0.75,
              "vel": 93
            },
            {
              "note": "D3",
              "pitch": 62,
              "beat": 14.5,
              "dur": 0.75,
              "vel": 93
            },
            {
              "note": "E3",
              "pitch": 64,
              "beat": 15.0,
              "dur": 0.75,
              "vel": 93
            },
            {
              "note": "F3",
              "pitch": 65,
              "beat": 15.5,
              "dur": 0.75,
              "vel": 93
            }
          ]
        }
      ],
      "automations": [],
      "children": []
    },
    "16": {
      "id": "16",
      "name": "Pad 1",
      "type": "MidiTrack",
      "group_id": "27",
      "devices": [
        {
          "type": "PluginDevice",
          "plugin": "Serum",
          "preset": "",
          "vst_params": []
        },
        {
          "type": "StereoGain",
          "On": "true",
          "PhaseInvertL": "false",
          "PhaseInvertR": "false",
          "ChannelMode": "1",
          "StereoWidth": "1",
          "MidSideBalance": "1",
          "Mono": "false",
          "BassMono": "false",
          "BassMonoFrequency": "120",
          "Balance": "0",
          "Gain": "1",
          "LegacyGain": "0",
          "Mute": "false",
          "DcFilter": "false"
        },
        {
          "type": "Eq8",
          "bands": []
        }
      ],
      "clips": [
        {
          "bar_start": 52.0,
          "bar_end": 60.0,
          "name": "",
          "notes": [
            {
              "note": "D3",
              "pitch": 62,
              "beat": 0.0,
              "dur": 1.5,
              "vel": 104
            },
            {
              "note": "A3",
              "pitch": 69,
              "beat": 0.01,
              "dur": 44.0,
              "vel": 104
            }
          ]
        },
        {
          "bar_start": 60.0,
          "bar_end": 63.0,
          "name": "",
          "notes": [
            {
              "note": "A3",
              "pitch": 69,
              "beat": 0.0,
              "dur": 12.0,
              "vel": 104
            }
          ]
        }
      ],
      "automations": [],
      "children": []
    },
    "17": {
      "id": "17",
      "name": "Pad 2",
      "type": "MidiTrack",
      "group_id": "27",
      "devices": [
        {
          "type": "PluginDevice",
          "plugin": "Serum",
          "preset": "",
          "vst_params": []
        },
        {
          "type": "StereoGain",
          "On": "true",
          "PhaseInvertL": "false",
          "PhaseInvertR": "false",
          "ChannelMode": "1",
          "StereoWidth": "1",
          "MidSideBalance": "1",
          "Mono": "false",
          "BassMono": "false",
          "BassMonoFrequency": "120",
          "Balance": "0",
          "Gain": "1",
          "LegacyGain": "0",
          "Mute": "false",
          "DcFilter": "false"
        },
        {
          "type": "Eq8",
          "bands": []
        }
      ],
      "clips": [
        {
          "bar_start": 55.0,
          "bar_end": 63.0,
          "name": "",
          "notes": [
            {
              "note": "D2",
              "pitch": 50,
              "beat": 4.0,
              "dur": 28.0,
              "vel": 104
            }
          ]
        }
      ],
      "automations": [],
      "children": []
    },
    "18": {
      "id": "18",
      "name": "Pad 3",
      "type": "MidiTrack",
      "group_id": "27",
      "devices": [
        {
          "type": "PluginDevice",
          "plugin": "Serum",
          "preset": "",
          "vst_params": []
        },
        {
          "type": "Eq8",
          "bands": []
        }
      ],
      "clips": [
        {
          "bar_start": 48.0,
          "bar_end": 60.0,
          "name": "",
          "notes": [
            {
              "note": "D2",
              "pitch": 50,
              "beat": 0.0,
              "dur": 16.0,
              "vel": 100
            }
          ]
        }
      ],
      "automations": [],
      "children": []
    },
    "24": {
      "id": "24",
      "name": "Vocals",
      "type": "AudioTrack",
      "group_id": "-1",
      "devices": [
        {
          "type": "StereoGain",
          "On": "true",
          "PhaseInvertL": "false",
          "PhaseInvertR": "false",
          "ChannelMode": "1",
          "StereoWidth": "1",
          "MidSideBalance": "1",
          "Mono": "false",
          "BassMono": "false",
          "BassMonoFrequency": "120",
          "Balance": "0",
          "Gain": "1",
          "LegacyGain": "0",
          "Mute": "false",
          "DcFilter": "false"
        },
        {
          "type": "MultibandDynamics",
          "DryWet": "1"
        },
        {
          "type": "Compressor2",
          "Threshold": "0.1728025377",
          "Ratio": "3.00000024",
          "Attack": "0.02275845967",
          "Release": "100.000008",
          "Gain": "3",
          "Knee": "6.046875",
          "DryWet": "1",
          "Model": "0"
        }
      ],
      "clips": [
        {
          "bar_start": 0.188,
          "bar_end": 82.022,
          "name": ""
        }
      ],
      "automations": [],
      "children": []
    },
    "19": {
      "id": "19",
      "name": "FX 1",
      "type": "AudioTrack",
      "group_id": "25",
      "devices": [
        {
          "type": "StereoGain",
          "On": "true",
          "PhaseInvertL": "false",
          "PhaseInvertR": "false",
          "ChannelMode": "1",
          "StereoWidth": "1",
          "MidSideBalance": "1",
          "Mono": "false",
          "BassMono": "false",
          "BassMonoFrequency": "120",
          "Balance": "0",
          "Gain": "1",
          "LegacyGain": "0",
          "Mute": "false",
          "DcFilter": "false"
        }
      ],
      "clips": [
        {
          "bar_start": 16.0,
          "bar_end": 17.875,
          "name": ""
        },
        {
          "bar_start": 17.875,
          "bar_end": 18.0,
          "name": ""
        },
        {
          "bar_start": 18.0,
          "bar_end": 20.0,
          "name": ""
        },
        {
          "bar_start": 20.0,
          "bar_end": 20.5,
          "name": ""
        },
        {
          "bar_start": 20.5,
          "bar_end": 21.0,
          "name": ""
        },
        {
          "bar_start": 21.0,
          "bar_end": 21.5,
          "name": ""
        },
        {
          "bar_start": 21.5,
          "bar_end": 22.0,
          "name": ""
        },
        {
          "bar_start": 22.0,
          "bar_end": 22.25,
          "name": ""
        },
        {
          "bar_start": 22.25,
          "bar_end": 22.5,
          "name": ""
        },
        {
          "bar_start": 22.5,
          "bar_end": 22.75,
          "name": ""
        },
        {
          "bar_start": 22.75,
          "bar_end": 23.067,
          "name": ""
        },
        {
          "bar_start": 24.0,
          "bar_end": 26.541,
          "name": ""
        },
        {
          "bar_start": 32.0,
          "bar_end": 34.541,
          "name": ""
        },
        {
          "bar_start": 40.0,
          "bar_end": 42.541,
          "name": ""
        },
        {
          "bar_start": 64.0,
          "bar_end": 66.541,
          "name": ""
        },
        {
          "bar_start": 72.0,
          "bar_end": 74.541,
          "name": ""
        }
      ],
      "automations": [],
      "children": []
    },
    "20": {
      "id": "20",
      "name": "FX 2",
      "type": "AudioTrack",
      "group_id": "25",
      "devices": [
        {
          "type": "Reverb",
          "PreDelay": "12.0000038",
          "RoomSize": "3",
          "DecayTime": "1299.67688",
          "FreezeOn": "false"
        }
      ],
      "clips": [
        {
          "bar_start": 31.0,
          "bar_end": 31.249,
          "name": ""
        },
        {
          "bar_start": 31.25,
          "bar_end": 31.499,
          "name": ""
        },
        {
          "bar_start": 31.5,
          "bar_end": 31.749,
          "name": ""
        },
        {
          "bar_start": 31.75,
          "bar_end": 31.999,
          "name": ""
        },
        {
          "bar_start": 32.0,
          "bar_end": 32.561,
          "name": ""
        },
        {
          "bar_start": 40.0,
          "bar_end": 40.561,
          "name": ""
        },
        {
          "bar_start": 48.0,
          "bar_end": 48.561,
          "name": ""
        },
        {
          "bar_start": 56.0,
          "bar_end": 56.561,
          "name": ""
        },
        {
          "bar_start": 57.0,
          "bar_end": 57.561,
          "name": ""
        },
        {
          "bar_start": 58.0,
          "bar_end": 58.561,
          "name": ""
        },
        {
          "bar_start": 59.0,
          "bar_end": 59.561,
          "name": ""
        },
        {
          "bar_start": 60.0,
          "bar_end": 60.499,
          "name": ""
        },
        {
          "bar_start": 60.5,
          "bar_end": 60.999,
          "name": ""
        },
        {
          "bar_start": 61.0,
          "bar_end": 61.499,
          "name": ""
        },
        {
          "bar_start": 61.5,
          "bar_end": 61.999,
          "name": ""
        },
        {
          "bar_start": 62.0,
          "bar_end": 62.249,
          "name": ""
        },
        {
          "bar_start": 62.25,
          "bar_end": 62.499,
          "name": ""
        },
        {
          "bar_start": 62.5,
          "bar_end": 62.749,
          "name": ""
        },
        {
          "bar_start": 62.75,
          "bar_end": 62.999,
          "name": ""
        },
        {
          "bar_start": 64.0,
          "bar_end": 64.561,
          "name": ""
        },
        {
          "bar_start": 71.0,
          "bar_end": 71.249,
          "name": ""
        },
        {
          "bar_start": 71.25,
          "bar_end": 71.499,
          "name": ""
        },
        {
          "bar_start": 71.5,
          "bar_end": 71.749,
          "name": ""
        },
        {
          "bar_start": 71.75,
          "bar_end": 71.999,
          "name": ""
        },
        {
          "bar_start": 72.0,
          "bar_end": 72.561,
          "name": ""
        },
        {
          "bar_start": 80.0,
          "bar_end": 80.561,
          "name": ""
        }
      ],
      "automations": [],
      "children": []
    },
    "21": {
      "id": "21",
      "name": "FX 3",
      "type": "AudioTrack",
      "group_id": "25",
      "devices": [
        {
          "type": "Eq8",
          "bands": []
        }
      ],
      "clips": [
        {
          "bar_start": 48.0,
          "bar_end": 50.078,
          "name": ""
        },
        {
          "bar_start": 80.0,
          "bar_end": 82.078,
          "name": ""
        }
      ],
      "automations": [],
      "children": []
    },
    "22": {
      "id": "22",
      "name": "FX 4",
      "type": "AudioTrack",
      "group_id": "25",
      "devices": [
        {
          "type": "Eq8",
          "bands": []
        }
      ],
      "clips": [
        {
          "bar_start": 48.0,
          "bar_end": 52.171,
          "name": ""
        }
      ],
      "automations": [],
      "children": []
    },
    "23": {
      "id": "23",
      "name": "FX 5",
      "type": "AudioTrack",
      "group_id": "25",
      "devices": [
        {
          "type": "Eq8",
          "bands": []
        }
      ],
      "clips": [
        {
          "bar_start": 56.01,
          "bar_end": 62.999,
          "name": ""
        }
      ],
      "automations": [],
      "children": []
    },
    "26": {
      "id": "26",
      "name": "Drums",
      "type": "GroupTrack",
      "group_id": "-1",
      "devices": [
        {
          "type": "Overdrive",
          "Drive": "60",
          "DryWet": "5"
        },
        {
          "type": "Overdrive",
          "Drive": "50",
          "DryWet": "1.5625"
        },
        {
          "type": "DrumBuss",
          "DryWet": "0.1000000015"
        },
        {
          "type": "GlueCompressor",
          "Threshold": "-17.4603176",
          "Ratio": "0",
          "Attack": "4",
          "Release": "0",
          "Gain": "0",
          "DryWet": "0.5"
        }
      ],
      "clips": [],
      "automations": [],
      "children": [
        "1",
        "2",
        "3",
        "4",
        "7",
        "8",
        "5",
        "6"
      ]
    },
    "27": {
      "id": "27",
      "name": "Instrument",
      "type": "GroupTrack",
      "group_id": "-1",
      "devices": [
        {
          "type": "StereoGain",
          "On": "true",
          "PhaseInvertL": "false",
          "PhaseInvertR": "false",
          "ChannelMode": "1",
          "StereoWidth": "1",
          "MidSideBalance": "1",
          "Mono": "false",
          "BassMono": "false",
          "BassMonoFrequency": "120",
          "Balance": "0",
          "Gain": "0.7943282127",
          "LegacyGain": "0",
          "Mute": "false",
          "DcFilter": "false"
        },
        {
          "type": "Saturator",
          "Drive": "1",
          "DryWet": "0.1000000015",
          "Type": "4"
        },
        {
          "type": "Compressor2",
          "Threshold": "0.07838593423",
          "Ratio": "1.20000005",
          "Attack": "12.4519739",
          "Release": "1018.55811",
          "Gain": "4",
          "Knee": "12",
          "DryWet": "1",
          "Model": "1"
        }
      ],
      "clips": [],
      "automations": [],
      "children": [
        "10",
        "11",
        "12",
        "13",
        "15",
        "14",
        "16",
        "17",
        "18"
      ]
    },
    "25": {
      "id": "25",
      "name": "FX",
      "type": "GroupTrack",
      "group_id": "-1",
      "devices": [],
      "clips": [],
      "automations": [],
      "children": [
        "19",
        "20",
        "21",
        "22",
        "23"
      ]
    }
  },
  "track_order": [
    "1",
    "2",
    "3",
    "4",
    "7",
    "8",
    "5",
    "6",
    "10",
    "11",
    "12",
    "13",
    "15",
    "14",
    "16",
    "17",
    "18",
    "24",
    "19",
    "20",
    "21",
    "22",
    "23",
    "26",
    "27",
    "25"
  ],
  "groups": [
    "26",
    "27",
    "25"
  ]
}