{
  "label": "KETTAMA - It Gets Better",
  "tempo": 140.0,
  "tracks": {
    "98": {
      "id": "98",
      "name": "kick",
      "type": "MidiTrack",
      "group_id": "64",
      "devices": [
        {
          "type": "OriginalSimpler",
          "sample": "kick.wav",
          "Attack": "0.1000000015",
          "SampleStart": "0",
          "LoopMode": "0"
        }
      ],
      "clips": [
        {
          "bar_start": 24.0,
          "bar_end": 31.25,
          "name": "",
          "notes": [
            {
              "note": "C3",
              "pitch": 60,
              "beat": 0.0,
              "dur": 1.0,
              "vel": 127
            },
            {
              "note": "C3",
              "pitch": 60,
              "beat": 1.0,
              "dur": 1.0,
              "vel": 127
            },
            {
              "note": "C3",
              "pitch": 60,
              "beat": 2.0,
              "dur": 1.0,
              "vel": 127
            },
            {
              "note": "C3",
              "pitch": 60,
              "beat": 3.0,
              "dur": 1.0,
              "vel": 127
            }
          ]
        },
        {
          "bar_start": 32.0,
          "bar_end": 39.0,
          "name": "",
          "notes": [
            {
              "note": "C3",
              "pitch": 60,
              "beat": 0.0,
              "dur": 1.0,
              "vel": 127
            },
            {
              "note": "C3",
              "pitch": 60,
              "beat": 1.0,
              "dur": 1.0,
              "vel": 127
            },
            {
              "note": "C3",
              "pitch": 60,
              "beat": 2.0,
              "dur": 1.0,
              "vel": 127
            },
            {
              "note": "C3",
              "pitch": 60,
              "beat": 3.0,
              "dur": 1.0,
              "vel": 127
            }
          ]
        },
        {
          "bar_start": 40.0,
          "bar_end": 45.25,
          "name": "",
          "notes": [
            {
              "note": "C3",
              "pitch": 60,
              "beat": 0.0,
              "dur": 1.0,
              "vel": 127
            },
            {
              "note": "C3",
              "pitch": 60,
              "beat": 1.0,
              "dur": 1.0,
              "vel": 127
            },
            {
              "note": "C3",
              "pitch": 60,
              "beat": 2.0,
              "dur": 1.0,
              "vel": 127
            },
            {
              "note": "C3",
              "pitch": 60,
              "beat": 3.0,
              "dur": 1.0,
              "vel": 127
            }
          ]
        },
        {
          "bar_start": 46.0,
          "bar_end": 46.25,
          "name": "",
          "notes": [
            {
              "note": "C3",
              "pitch": 60,
              "beat": 0.0,
              "dur": 1.0,
              "vel": 127
            },
            {
              "note": "C3",
              "pitch": 60,
              "beat": 1.0,
              "dur": 1.0,
              "vel": 127
            },
            {
              "note": "C3",
              "pitch": 60,
              "beat": 2.0,
              "dur": 1.0,
              "vel": 127
            },
            {
              "note": "C3",
              "pitch": 60,
              "beat": 3.0,
              "dur": 1.0,
              "vel": 127
            }
          ]
        },
        {
          "bar_start": 47.0,
          "bar_end": 47.25,
          "name": "",
          "notes": [
            {
              "note": "C3",
              "pitch": 60,
              "beat": 0.0,
              "dur": 1.0,
              "vel": 127
            },
            {
              "note": "C3",
              "pitch": 60,
              "beat": 1.0,
              "dur": 1.0,
              "vel": 127
            },
            {
              "note": "C3",
              "pitch": 60,
              "beat": 2.0,
              "dur": 1.0,
              "vel": 127
            },
            {
              "note": "C3",
              "pitch": 60,
              "beat": 3.0,
              "dur": 1.0,
              "vel": 127
            }
          ]
        },
        {
          "bar_start": 47.25,
          "bar_end": 47.438,
          "name": "",
          "notes": [
            {
              "note": "C3",
              "pitch": 60,
              "beat": 0.0,
              "dur": 1.0,
              "vel": 127
            },
            {
              "note": "C3",
              "pitch": 60,
              "beat": 1.0,
              "dur": 1.0,
              "vel": 127
            },
            {
              "note": "C3",
              "pitch": 60,
              "beat": 2.0,
              "dur": 1.0,
              "vel": 127
            },
            {
              "note": "C3",
              "pitch": 60,
              "beat": 3.0,
              "dur": 1.0,
              "vel": 127
            }
          ]
        },
        {
          "bar_start": 47.438,
          "bar_end": 47.562,
          "name": "",
          "notes": [
            {
              "note": "C3",
              "pitch": 60,
              "beat": 0.0,
              "dur": 1.0,
              "vel": 127
            },
            {
              "note": "C3",
              "pitch": 60,
              "beat": 1.0,
              "dur": 1.0,
              "vel": 127
            },
            {
              "note": "C3",
              "pitch": 60,
              "beat": 2.0,
              "dur": 1.0,
              "vel": 127
            },
            {
              "note": "C3",
              "pitch": 60,
              "beat": 3.0,
              "dur": 1.0,
              "vel": 127
            }
          ]
        },
        {
          "bar_start": 47.562,
          "bar_end": 47.688,
          "name": "",
          "notes": [
            {
              "note": "C3",
              "pitch": 60,
              "beat": 0.0,
              "dur": 1.0,
              "vel": 127
            },
            {
              "note": "C3",
              "pitch": 60,
              "beat": 1.0,
              "dur": 1.0,
              "vel": 127
            },
            {
              "note": "C3",
              "pitch": 60,
              "beat": 2.0,
              "dur": 1.0,
              "vel": 127
            },
            {
              "note": "C3",
              "pitch": 60,
              "beat": 3.0,
              "dur": 1.0,
              "vel": 127
            }
          ]
        },
        {
          "bar_start": 47.688,
          "bar_end": 47.812,
          "name": "",
          "notes": [
            {
              "note": "C3",
              "pitch": 60,
              "beat": 0.0,
              "dur": 1.0,
              "vel": 127
            },
            {
              "note": "C3",
              "pitch": 60,
              "beat": 1.0,
              "dur": 1.0,
              "vel": 127
            },
            {
              "note": "C3",
              "pitch": 60,
              "beat": 2.0,
              "dur": 1.0,
              "vel": 127
            },
            {
              "note": "C3",
              "pitch": 60,
              "beat": 3.0,
              "dur": 1.0,
              "vel": 127
            }
          ]
        },
        {
          "bar_start": 47.875,
          "bar_end": 48.0,
          "name": "",
          "notes": [
            {
              "note": "C3",
              "pitch": 60,
              "beat": 0.0,
              "dur": 1.0,
              "vel": 127
            },
            {
              "note": "C3",
              "pitch": 60,
              "beat": 1.0,
              "dur": 1.0,
              "vel": 127
            },
            {
              "note": "C3",
              "pitch": 60,
              "beat": 2.0,
              "dur": 1.0,
              "vel": 127
            },
            {
              "note": "C3",
              "pitch": 60,
              "beat": 3.0,
              "dur": 1.0,
              "vel": 127
            }
          ]
        },
        {
          "bar_start": 80.0,
          "bar_end": 94.0,
          "name": "",
          "notes": [
            {
              "note": "C3",
              "pitch": 60,
              "beat": 0.0,
              "dur": 1.0,
              "vel": 127
            },
            {
              "note": "C3",
              "pitch": 60,
              "beat": 1.0,
              "dur": 1.0,
              "vel": 127
            },
            {
              "note": "C3",
              "pitch": 60,
              "beat": 2.0,
              "dur": 1.0,
              "vel": 127
            },
            {
              "note": "C3",
              "pitch": 60,
              "beat": 3.0,
              "dur": 1.0,
              "vel": 127
            }
          ]
        },
        {
          "bar_start": 96.0,
          "bar_end": 108.0,
          "name": "",
          "notes": [
            {
              "note": "C3",
              "pitch": 60,
              "beat": 0.0,
              "dur": 1.0,
              "vel": 127
            },
            {
              "note": "C3",
              "pitch": 60,
              "beat": 1.0,
              "dur": 1.0,
              "vel": 127
            },
            {
              "note": "C3",
              "pitch": 60,
              "beat": 2.0,
              "dur": 1.0,
              "vel": 127
            },
            {
              "note": "C3",
              "pitch": 60,
              "beat": 3.0,
              "dur": 1.0,
              "vel": 127
            }
          ]
        },
        {
          "bar_start": 120.0,
          "bar_end": 120.25,
          "name": "",
          "notes": [
            {
              "note": "C3",
              "pitch": 60,
              "beat": 0.0,
              "dur": 1.0,
              "vel": 127
            },
            {
              "note": "C3",
              "pitch": 60,
              "beat": 1.0,
              "dur": 1.0,
              "vel": 127
            },
            {
              "note": "C3",
              "pitch": 60,
              "beat": 2.0,
              "dur": 1.0,
              "vel": 127
            },
            {
              "note": "C3",
              "pitch": 60,
              "beat": 3.0,
              "dur": 1.0,
              "vel": 127
            }
          ]
        },
        {
          "bar_start": 121.0,
          "bar_end": 121.25,
          "name": "",
          "notes": [
            {
              "note": "C3",
              "pitch": 60,
              "beat": 0.0,
              "dur": 1.0,
              "vel": 127
            },
            {
              "note": "C3",
              "pitch": 60,
              "beat": 1.0,
              "dur": 1.0,
              "vel": 127
            },
            {
              "note": "C3",
              "pitch": 60,
              "beat": 2.0,
              "dur": 1.0,
              "vel": 127
            },
            {
              "note": "C3",
              "pitch": 60,
              "beat": 3.0,
              "dur": 1.0,
              "vel": 127
            }
          ]
        },
        {
          "bar_start": 122.0,
          "bar_end": 122.25,
          "name": "",
          "notes": [
            {
              "note": "C3",
              "pitch": 60,
              "beat": 0.0,
              "dur": 1.0,
              "vel": 127
            },
            {
              "note": "C3",
              "pitch": 60,
              "beat": 1.0,
              "dur": 1.0,
              "vel": 127
            },
            {
              "note": "C3",
              "pitch": 60,
              "beat": 2.0,
              "dur": 1.0,
              "vel": 127
            },
            {
              "note": "C3",
              "pitch": 60,
              "beat": 3.0,
              "dur": 1.0,
              "vel": 127
            }
          ]
        },
        {
          "bar_start": 123.0,
          "bar_end": 123.25,
          "name": "",
          "notes": [
            {
              "note": "C3",
              "pitch": 60,
              "beat": 0.0,
              "dur": 1.0,
              "vel": 127
            },
            {
              "note": "C3",
              "pitch": 60,
              "beat": 1.0,
              "dur": 1.0,
              "vel": 127
            },
            {
              "note": "C3",
              "pitch": 60,
              "beat": 2.0,
              "dur": 1.0,
              "vel": 127
            },
            {
              "note": "C3",
              "pitch": 60,
              "beat": 3.0,
              "dur": 1.0,
              "vel": 127
            }
          ]
        },
        {
          "bar_start": 124.0,
          "bar_end": 124.25,
          "name": "",
          "notes": [
            {
              "note": "C3",
              "pitch": 60,
              "beat": 0.0,
              "dur": 1.0,
              "vel": 127
            },
            {
              "note": "C3",
              "pitch": 60,
              "beat": 1.0,
              "dur": 1.0,
              "vel": 127
            },
            {
              "note": "C3",
              "pitch": 60,
              "beat": 2.0,
              "dur": 1.0,
              "vel": 127
            },
            {
              "note": "C3",
              "pitch": 60,
              "beat": 3.0,
              "dur": 1.0,
              "vel": 127
            }
          ]
        },
        {
          "bar_start": 125.0,
          "bar_end": 125.25,
          "name": "",
          "notes": [
            {
              "note": "C3",
              "pitch": 60,
              "beat": 0.0,
              "dur": 1.0,
              "vel": 127
            },
            {
              "note": "C3",
              "pitch": 60,
              "beat": 1.0,
              "dur": 1.0,
              "vel": 127
            },
            {
              "note": "C3",
              "pitch": 60,
              "beat": 2.0,
              "dur": 1.0,
              "vel": 127
            },
            {
              "note": "C3",
              "pitch": 60,
              "beat": 3.0,
              "dur": 1.0,
              "vel": 127
            }
          ]
        },
        {
          "bar_start": 126.0,
          "bar_end": 126.25,
          "name": "",
          "notes": [
            {
              "note": "C3",
              "pitch": 60,
              "beat": 0.0,
              "dur": 1.0,
              "vel": 127
            },
            {
              "note": "C3",
              "pitch": 60,
              "beat": 1.0,
              "dur": 1.0,
              "vel": 127
            },
            {
              "note": "C3",
              "pitch": 60,
              "beat": 2.0,
              "dur": 1.0,
              "vel": 127
            },
            {
              "note": "C3",
              "pitch": 60,
              "beat": 3.0,
              "dur": 1.0,
              "vel": 127
            }
          ]
        },
        {
          "bar_start": 127.0,
          "bar_end": 127.25,
          "name": "",
          "notes": [
            {
              "note": "C3",
              "pitch": 60,
              "beat": 0.0,
              "dur": 1.0,
              "vel": 127
            },
            {
              "note": "C3",
              "pitch": 60,
              "beat": 1.0,
              "dur": 1.0,
              "vel": 127
            },
            {
              "note": "C3",
              "pitch": 60,
              "beat": 2.0,
              "dur": 1.0,
              "vel": 127
            },
            {
              "note": "C3",
              "pitch": 60,
              "beat": 3.0,
              "dur": 1.0,
              "vel": 127
            }
          ]
        },
        {
          "bar_start": 128.0,
          "bar_end": 128.25,
          "name": "",
          "notes": [
            {
              "note": "C3",
              "pitch": 60,
              "beat": 0.0,
              "dur": 1.0,
              "vel": 127
            },
            {
              "note": "C3",
              "pitch": 60,
              "beat": 1.0,
              "dur": 1.0,
              "vel": 127
            },
            {
              "note": "C3",
              "pitch": 60,
              "beat": 2.0,
              "dur": 1.0,
              "vel": 127
            },
            {
              "note": "C3",
              "pitch": 60,
              "beat": 3.0,
              "dur": 1.0,
              "vel": 127
            }
          ]
        },
        {
          "bar_start": 129.0,
          "bar_end": 129.25,
          "name": "",
          "notes": [
            {
              "note": "C3",
              "pitch": 60,
              "beat": 0.0,
              "dur": 1.0,
              "vel": 127
            },
            {
              "note": "C3",
              "pitch": 60,
              "beat": 1.0,
              "dur": 1.0,
              "vel": 127
            },
            {
              "note": "C3",
              "pitch": 60,
              "beat": 2.0,
              "dur": 1.0,
              "vel": 127
            },
            {
              "note": "C3",
              "pitch": 60,
              "beat": 3.0,
              "dur": 1.0,
              "vel": 127
            }
          ]
        },
        {
          "bar_start": 130.0,
          "bar_end": 130.25,
          "name": "",
          "notes": [
            {
              "note": "C3",
              "pitch": 60,
              "beat": 0.0,
              "dur": 1.0,
              "vel": 127
            },
            {
              "note": "C3",
              "pitch": 60,
              "beat": 1.0,
              "dur": 1.0,
              "vel": 127
            },
            {
              "note": "C3",
              "pitch": 60,
              "beat": 2.0,
              "dur": 1.0,
              "vel": 127
            },
            {
              "note": "C3",
              "pitch": 60,
              "beat": 3.0,
              "dur": 1.0,
              "vel": 127
            }
          ]
        },
        {
          "bar_start": 131.0,
          "bar_end": 131.25,
          "name": "",
          "notes": [
            {
              "note": "C3",
              "pitch": 60,
              "beat": 0.0,
              "dur": 1.0,
              "vel": 127
            },
            {
              "note": "C3",
              "pitch": 60,
              "beat": 1.0,
              "dur": 1.0,
              "vel": 127
            },
            {
              "note": "C3",
              "pitch": 60,
              "beat": 2.0,
              "dur": 1.0,
              "vel": 127
            },
            {
              "note": "C3",
              "pitch": 60,
              "beat": 3.0,
              "dur": 1.0,
              "vel": 127
            }
          ]
        },
        {
          "bar_start": 132.0,
          "bar_end": 132.25,
          "name": "",
          "notes": [
            {
              "note": "C3",
              "pitch": 60,
              "beat": 0.0,
              "dur": 1.0,
              "vel": 127
            },
            {
              "note": "C3",
              "pitch": 60,
              "beat": 1.0,
              "dur": 1.0,
              "vel": 127
            },
            {
              "note": "C3",
              "pitch": 60,
              "beat": 2.0,
              "dur": 1.0,
              "vel": 127
            },
            {
              "note": "C3",
              "pitch": 60,
              "beat": 3.0,
              "dur": 1.0,
              "vel": 127
            }
          ]
        },
        {
          "bar_start": 133.0,
          "bar_end": 133.25,
          "name": "",
          "notes": [
            {
              "note": "C3",
              "pitch": 60,
              "beat": 0.0,
              "dur": 1.0,
              "vel": 127
            },
            {
              "note": "C3",
              "pitch": 60,
              "beat": 1.0,
              "dur": 1.0,
              "vel": 127
            },
            {
              "note": "C3",
              "pitch": 60,
              "beat": 2.0,
              "dur": 1.0,
              "vel": 127
            },
            {
              "note": "C3",
              "pitch": 60,
              "beat": 3.0,
              "dur": 1.0,
              "vel": 127
            }
          ]
        },
        {
          "bar_start": 136.0,
          "bar_end": 156.25,
          "name": "",
          "notes": [
            {
              "note": "C3",
              "pitch": 60,
              "beat": 0.0,
              "dur": 1.0,
              "vel": 127
            },
            {
              "note": "C3",
              "pitch": 60,
              "beat": 1.0,
              "dur": 1.0,
              "vel": 127
            },
            {
              "note": "C3",
              "pitch": 60,
              "beat": 2.0,
              "dur": 1.0,
              "vel": 127
            },
            {
              "note": "C3",
              "pitch": 60,
              "beat": 3.0,
              "dur": 1.0,
              "vel": 127
            }
          ]
        },
        {
          "bar_start": 157.0,
          "bar_end": 157.25,
          "name": "",
          "notes": [
            {
              "note": "C3",
              "pitch": 60,
              "beat": 0.0,
              "dur": 1.0,
              "vel": 127
            },
            {
              "note": "C3",
              "pitch": 60,
              "beat": 1.0,
              "dur": 1.0,
              "vel": 127
            },
            {
              "note": "C3",
              "pitch": 60,
              "beat": 2.0,
              "dur": 1.0,
              "vel": 127
            },
            {
              "note": "C3",
              "pitch": 60,
              "beat": 3.0,
              "dur": 1.0,
              "vel": 127
            }
          ]
        },
        {
          "bar_start": 158.0,
          "bar_end": 158.25,
          "name": "",
          "notes": [
            {
              "note": "C3",
              "pitch": 60,
              "beat": 0.0,
              "dur": 1.0,
              "vel": 127
            },
            {
              "note": "C3",
              "pitch": 60,
              "beat": 1.0,
              "dur": 1.0,
              "vel": 127
            },
            {
              "note": "C3",
              "pitch": 60,
              "beat": 2.0,
              "dur": 1.0,
              "vel": 127
            },
            {
              "note": "C3",
              "pitch": 60,
              "beat": 3.0,
              "dur": 1.0,
              "vel": 127
            }
          ]
        },
        {
          "bar_start": 158.5,
          "bar_end": 158.75,
          "name": "",
          "notes": [
            {
              "note": "C3",
              "pitch": 60,
              "beat": 0.0,
              "dur": 1.0,
              "vel": 127
            },
            {
              "note": "C3",
              "pitch": 60,
              "beat": 1.0,
              "dur": 1.0,
              "vel": 127
            },
            {
              "note": "C3",
              "pitch": 60,
              "beat": 2.0,
              "dur": 1.0,
              "vel": 127
            },
            {
              "note": "C3",
              "pitch": 60,
              "beat": 3.0,
              "dur": 1.0,
              "vel": 127
            }
          ]
        },
        {
          "bar_start": 159.0,
          "bar_end": 159.25,
          "name": "",
          "notes": [
            {
              "note": "C3",
              "pitch": 60,
              "beat": 0.0,
              "dur": 1.0,
              "vel": 127
            },
            {
              "note": "C3",
              "pitch": 60,
              "beat": 1.0,
              "dur": 1.0,
              "vel": 127
            },
            {
              "note": "C3",
              "pitch": 60,
              "beat": 2.0,
              "dur": 1.0,
              "vel": 127
            },
            {
              "note": "C3",
              "pitch": 60,
              "beat": 3.0,
              "dur": 1.0,
              "vel": 127
            }
          ]
        }
      ],
      "automations": [],
      "children": []
    },
    "138": {
      "id": "138",
      "name": "clap",
      "type": "MidiTrack",
      "group_id": "64",
      "devices": [
        {
          "type": "OriginalSimpler",
          "sample": "clap.wav",
          "Attack": "0.1000000015",
          "SampleStart": "0",
          "LoopMode": "0"
        }
      ],
      "clips": [
        {
          "bar_start": 36.0,
          "bar_end": 48.0,
          "name": "",
          "notes": [
            {
              "note": "C3",
              "pitch": 60,
              "beat": 1.0,
              "dur": 0.688,
              "vel": 100
            },
            {
              "note": "C3",
              "pitch": 60,
              "beat": 3.0,
              "dur": 0.688,
              "vel": 100
            }
          ]
        },
        {
          "bar_start": 72.0,
          "bar_end": 78.0,
          "name": "",
          "notes": [
            {
              "note": "C3",
              "pitch": 60,
              "beat": 1.0,
              "dur": 0.688,
              "vel": 100
            },
            {
              "note": "C3",
              "pitch": 60,
              "beat": 3.0,
              "dur": 0.688,
              "vel": 100
            }
          ]
        },
        {
          "bar_start": 80.0,
          "bar_end": 95.0,
          "name": "",
          "notes": [
            {
              "note": "C3",
              "pitch": 60,
              "beat": 1.0,
              "dur": 0.688,
              "vel": 100
            },
            {
              "note": "C3",
              "pitch": 60,
              "beat": 3.0,
              "dur": 0.688,
              "vel": 100
            }
          ]
        },
        {
          "bar_start": 96.0,
          "bar_end": 111.0,
          "name": "",
          "notes": [
            {
              "note": "C3",
              "pitch": 60,
              "beat": 1.0,
              "dur": 0.688,
              "vel": 100
            },
            {
              "note": "C3",
              "pitch": 60,
              "beat": 3.0,
              "dur": 0.688,
              "vel": 100
            }
          ]
        },
        {
          "bar_start": 136.0,
          "bar_end": 159.0,
          "name": "",
          "notes": [
            {
              "note": "C3",
              "pitch": 60,
              "beat": 1.0,
              "dur": 0.688,
              "vel": 100
            },
            {
              "note": "C3",
              "pitch": 60,
              "beat": 3.0,
              "dur": 0.688,
              "vel": 100
            }
          ]
        }
      ],
      "automations": [],
      "children": []
    },
    "65": {
      "id": "65",
      "name": "bass",
      "type": "MidiTrack",
      "group_id": "95",
      "devices": [
        {
          "type": "PluginDevice",
          "plugin": "Serum_x64",
          "preset": "",
          "vst_params": []
        }
      ],
      "clips": [
        {
          "bar_start": 16.0,
          "bar_end": 31.0,
          "name": "",
          "notes": [
            {
              "note": "F#2",
              "pitch": 54,
              "beat": 0.0,
              "dur": 0.25,
              "vel": 127
            },
            {
              "note": "F#2",
              "pitch": 54,
              "beat": 0.25,
              "dur": 0.5,
              "vel": 127
            },
            {
              "note": "F#2",
              "pitch": 54,
              "beat": 0.75,
              "dur": 0.5,
              "vel": 127
            },
            {
              "note": "F#2",
              "pitch": 54,
              "beat": 1.5,
              "dur": 0.556,
              "vel": 127
            },
            {
              "note": "F#2",
              "pitch": 54,
              "beat": 2.25,
              "dur": 0.584,
              "vel": 127
            },
            {
              "note": "F#2",
              "pitch": 54,
              "beat": 3.0,
              "dur": 0.5,
              "vel": 127
            },
            {
              "note": "F#2",
              "pitch": 54,
              "beat": 3.5,
              "dur": 0.5,
              "vel": 127
            },
            {
              "note": "C#2",
              "pitch": 49,
              "beat": 4.0,
              "dur": 0.25,
              "vel": 127
            },
            {
              "note": "C#2",
              "pitch": 49,
              "beat": 4.25,
              "dur": 0.5,
              "vel": 127
            },
            {
              "note": "C#2",
              "pitch": 49,
              "beat": 4.75,
              "dur": 0.5,
              "vel": 127
            },
            {
              "note": "C#2",
              "pitch": 49,
              "beat": 5.5,
              "dur": 0.556,
              "vel": 127
            },
            {
              "note": "C#2",
              "pitch": 49,
              "beat": 6.25,
              "dur": 0.584,
              "vel": 127
            },
            {
              "note": "C#2",
              "pitch": 49,
              "beat": 7.0,
              "dur": 0.5,
              "vel": 127
            },
            {
              "note": "C#2",
              "pitch": 49,
              "beat": 7.5,
              "dur": 0.5,
              "vel": 127
            },
            {
              "note": "D#2",
              "pitch": 51,
              "beat": 8.0,
              "dur": 0.25,
              "vel": 127
            },
            {
              "note": "D#2",
              "pitch": 51,
              "beat": 8.25,
              "dur": 0.5,
              "vel": 127
            },
            {
              "note": "D#2",
              "pitch": 51,
              "beat": 8.75,
              "dur": 0.5,
              "vel": 127
            },
            {
              "note": "D#2",
              "pitch": 51,
              "beat": 9.5,
              "dur": 0.556,
              "vel": 127
            },
            {
              "note": "D#2",
              "pitch": 51,
              "beat": 10.25,
              "dur": 0.584,
              "vel": 127
            },
            {
              "note": "D#2",
              "pitch": 51,
              "beat": 11.0,
              "dur": 0.5,
              "vel": 127
            },
            {
              "note": "D#2",
              "pitch": 51,
              "beat": 11.5,
              "dur": 0.5,
              "vel": 127
            },
            {
              "note": "A#1",
              "pitch": 46,
              "beat": 12.0,
              "dur": 0.25,
              "vel": 127
            },
            {
              "note": "A#1",
              "pitch": 46,
              "beat": 12.25,
              "dur": 0.5,
              "vel": 127
            },
            {
              "note": "A#1",
              "pitch": 46,
              "beat": 12.75,
              "dur": 0.614,
              "vel": 127
            },
            {
              "note": "A#1",
              "pitch": 46,
              "beat": 13.5,
              "dur": 0.556,
              "vel": 127
            },
            {
              "note": "A#1",
              "pitch": 46,
              "beat": 14.25,
              "dur": 0.584,
              "vel": 127
            },
            {
              "note": "F2",
              "pitch": 53,
              "beat": 15.0,
              "dur": 0.5,
              "vel": 127
            },
            {
              "note": "F2",
              "pitch": 53,
              "beat": 15.5,
              "dur": 0.5,
              "vel": 127
            },
            {
              "note": "F#2",
              "pitch": 54,
              "beat": 16.0,
              "dur": 0.25,
              "vel": 127
            },
            {
              "note": "F#2",
              "pitch": 54,
              "beat": 16.25,
              "dur": 0.5,
              "vel": 127
            },
            {
              "note": "F#2",
              "pitch": 54,
              "beat": 16.75,
              "dur": 0.5,
              "vel": 127
            },
            {
              "note": "F#2",
              "pitch": 54,
              "beat": 17.5,
              "dur": 0.556,
              "vel": 127
            },
            {
              "note": "F#2",
              "pitch": 54,
              "beat": 18.25,
              "dur": 0.584,
              "vel": 127
            },
            {
              "note": "F#2",
              "pitch": 54,
              "beat": 19.0,
              "dur": 0.5,
              "vel": 127
            },
            {
              "note": "F#2",
              "pitch": 54,
              "beat": 19.5,
              "dur": 0.5,
              "vel": 127
            },
            {
              "note": "C#2",
              "pitch": 49,
              "beat": 20.0,
              "dur": 0.25,
              "vel": 127
            },
            {
              "note": "C#2",
              "pitch": 49,
              "beat": 20.25,
              "dur": 0.5,
              "vel": 127
            },
            {
              "note": "C#2",
              "pitch": 49,
              "beat": 20.75,
              "dur": 0.5,
              "vel": 127
            },
            {
              "note": "C#2",
              "pitch": 49,
              "beat": 21.5,
              "dur": 0.556,
              "vel": 127
            },
            {
              "note": "C#2",
              "pitch": 49,
              "beat": 22.25,
              "dur": 0.584,
              "vel": 127
            },
            {
              "note": "G#2",
              "pitch": 56,
              "beat": 23.0,
              "dur": 0.373,
              "vel": 127
            },
            {
              "note": "G#2",
              "pitch": 56,
              "beat": 23.5,
              "dur": 0.373,
              "vel": 127
            },
            {
              "note": "D#2",
              "pitch": 51,
              "beat": 24.0,
              "dur": 0.25,
              "vel": 127
            },
            {
              "note": "D#2",
              "pitch": 51,
              "beat": 24.25,
              "dur": 0.5,
              "vel": 127
            },
            {
              "note": "D#2",
              "pitch": 51,
              "beat": 24.75,
              "dur": 0.5,
              "vel": 127
            },
            {
              "note": "D#2",
              "pitch": 51,
              "beat": 25.5,
              "dur": 0.556,
              "vel": 127
            },
            {
              "note": "D#2",
              "pitch": 51,
              "beat": 26.25,
              "dur": 0.584,
              "vel": 127
            },
            {
              "note": "D#2",
              "pitch": 51,
              "beat": 27.0,
              "dur": 0.5,
              "vel": 127
            },
            {
              "note": "G#2",
              "pitch": 56,
              "beat": 27.5,
              "dur": 0.5,
              "vel": 127
            },
            {
              "note": "A#2",
              "pitch": 58,
              "beat": 28.0,
              "dur": 0.25,
              "vel": 127
            },
            {
              "note": "A#2",
              "pitch": 58,
              "beat": 28.25,
              "dur": 0.5,
              "vel": 127
            },
            {
              "note": "A#2",
              "pitch": 58,
              "beat": 28.75,
              "dur": 0.614,
              "vel": 127
            },
            {
              "note": "A#2",
              "pitch": 58,
              "beat": 29.5,
              "dur": 0.556,
              "vel": 127
            },
            {
              "note": "A#2",
              "pitch": 58,
              "beat": 30.25,
              "dur": 0.584,
              "vel": 127
            },
            {
              "note": "F2",
              "pitch": 53,
              "beat": 31.0,
              "dur": 0.5,
              "vel": 127
            },
            {
              "note": "F2",
              "pitch": 53,
              "beat": 31.5,
              "dur": 0.5,
              "vel": 127
            }
          ]
        },
        {
          "bar_start": 32.0,
          "bar_end": 48.0,
          "name": "",
          "notes": [
            {
              "note": "F#2",
              "pitch": 54,
              "beat": 0.0,
              "dur": 0.25,
              "vel": 127
            },
            {
              "note": "F#2",
              "pitch": 54,
              "beat": 0.25,
              "dur": 0.5,
              "vel": 127
            },
            {
              "note": "F#2",
              "pitch": 54,
              "beat": 0.75,
              "dur": 0.5,
              "vel": 127
            },
            {
              "note": "F#2",
              "pitch": 54,
              "beat": 1.5,
              "dur": 0.556,
              "vel": 127
            },
            {
              "note": "F#2",
              "pitch": 54,
              "beat": 2.25,
              "dur": 0.584,
              "vel": 127
            },
            {
              "note": "F#2",
              "pitch": 54,
              "beat": 3.0,
              "dur": 0.5,
              "vel": 127
            },
            {
              "note": "F#2",
              "pitch": 54,
              "beat": 3.5,
              "dur": 0.5,
              "vel": 127
            },
            {
              "note": "C#2",
              "pitch": 49,
              "beat": 4.0,
              "dur": 0.25,
              "vel": 127
            },
            {
              "note": "C#2",
              "pitch": 49,
              "beat": 4.25,
              "dur": 0.5,
              "vel": 127
            },
            {
              "note": "C#2",
              "pitch": 49,
              "beat": 4.75,
              "dur": 0.5,
              "vel": 127
            },
            {
              "note": "C#2",
              "pitch": 49,
              "beat": 5.5,
              "dur": 0.556,
              "vel": 127
            },
            {
              "note": "C#2",
              "pitch": 49,
              "beat": 6.25,
              "dur": 0.584,
              "vel": 127
            },
            {
              "note": "C#2",
              "pitch": 49,
              "beat": 7.0,
              "dur": 0.5,
              "vel": 127
            },
            {
              "note": "C#2",
              "pitch": 49,
              "beat": 7.5,
              "dur": 0.5,
              "vel": 127
            },
            {
              "note": "D#2",
              "pitch": 51,
              "beat": 8.0,
              "dur": 0.25,
              "vel": 127
            },
            {
              "note": "D#2",
              "pitch": 51,
              "beat": 8.25,
              "dur": 0.5,
              "vel": 127
            },
            {
              "note": "D#2",
              "pitch": 51,
              "beat": 8.75,
              "dur": 0.5,
              "vel": 127
            },
            {
              "note": "D#2",
              "pitch": 51,
              "beat": 9.5,
              "dur": 0.556,
              "vel": 127
            },
            {
              "note": "D#2",
              "pitch": 51,
              "beat": 10.25,
              "dur": 0.584,
              "vel": 127
            },
            {
              "note": "D#2",
              "pitch": 51,
              "beat": 11.0,
              "dur": 0.5,
              "vel": 127
            },
            {
              "note": "D#2",
              "pitch": 51,
              "beat": 11.5,
              "dur": 0.5,
              "vel": 127
            },
            {
              "note": "A#1",
              "pitch": 46,
              "beat": 12.0,
              "dur": 0.25,
              "vel": 127
            },
            {
              "note": "A#1",
              "pitch": 46,
              "beat": 12.25,
              "dur": 0.5,
              "vel": 127
            },
            {
              "note": "A#1",
              "pitch": 46,
              "beat": 12.75,
              "dur": 0.614,
              "vel": 127
            },
            {
              "note": "A#1",
              "pitch": 46,
              "beat": 13.5,
              "dur": 0.556,
              "vel": 127
            },
            {
              "note": "A#1",
              "pitch": 46,
              "beat": 14.25,
              "dur": 0.584,
              "vel": 127
            },
            {
              "note": "F2",
              "pitch": 53,
              "beat": 15.0,
              "dur": 0.5,
              "vel": 127
            },
            {
              "note": "F2",
              "pitch": 53,
              "beat": 15.5,
              "dur": 0.5,
              "vel": 127
            },
            {
              "note": "F#2",
              "pitch": 54,
              "beat": 16.0,
              "dur": 0.25,
              "vel": 127
            },
            {
              "note": "F#2",
              "pitch": 54,
              "beat": 16.25,
              "dur": 0.5,
              "vel": 127
            },
            {
              "note": "F#2",
              "pitch": 54,
              "beat": 16.75,
              "dur": 0.5,
              "vel": 127
            },
            {
              "note": "F#2",
              "pitch": 54,
              "beat": 17.5,
              "dur": 0.556,
              "vel": 127
            },
            {
              "note": "F#2",
              "pitch": 54,
              "beat": 18.25,
              "dur": 0.584,
              "vel": 127
            },
            {
              "note": "F#2",
              "pitch": 54,
              "beat": 19.0,
              "dur": 0.5,
              "vel": 127
            },
            {
              "note": "F#2",
              "pitch": 54,
              "beat": 19.5,
              "dur": 0.5,
              "vel": 127
            },
            {
              "note": "C#2",
              "pitch": 49,
              "beat": 20.0,
              "dur": 0.25,
              "vel": 127
            },
            {
              "note": "C#2",
              "pitch": 49,
              "beat": 20.25,
              "dur": 0.5,
              "vel": 127
            },
            {
              "note": "C#2",
              "pitch": 49,
              "beat": 20.75,
              "dur": 0.5,
              "vel": 127
            },
            {
              "note": "C#2",
              "pitch": 49,
              "beat": 21.5,
              "dur": 0.556,
              "vel": 127
            },
            {
              "note": "C#2",
              "pitch": 49,
              "beat": 22.25,
              "dur": 0.584,
              "vel": 127
            },
            {
              "note": "G#2",
              "pitch": 56,
              "beat": 23.0,
              "dur": 0.373,
              "vel": 127
            },
            {
              "note": "G#2",
              "pitch": 56,
              "beat": 23.5,
              "dur": 0.373,
              "vel": 127
            },
            {
              "note": "D#2",
              "pitch": 51,
              "beat": 24.0,
              "dur": 0.25,
              "vel": 127
            },
            {
              "note": "D#2",
              "pitch": 51,
              "beat": 24.25,
              "dur": 0.5,
              "vel": 127
            },
            {
              "note": "D#2",
              "pitch": 51,
              "beat": 24.75,
              "dur": 0.5,
              "vel": 127
            },
            {
              "note": "D#2",
              "pitch": 51,
              "beat": 25.5,
              "dur": 0.556,
              "vel": 127
            },
            {
              "note": "D#2",
              "pitch": 51,
              "beat": 26.25,
              "dur": 0.584,
              "vel": 127
            },
            {
              "note": "D#2",
              "pitch": 51,
              "beat": 27.0,
              "dur": 0.5,
              "vel": 127
            },
            {
              "note": "G#2",
              "pitch": 56,
              "beat": 27.5,
              "dur": 0.5,
              "vel": 127
            },
            {
              "note": "A#2",
              "pitch": 58,
              "beat": 28.0,
              "dur": 0.25,
              "vel": 127
            },
            {
              "note": "A#2",
              "pitch": 58,
              "beat": 28.25,
              "dur": 0.5,
              "vel": 127
            },
            {
              "note": "A#2",
              "pitch": 58,
              "beat": 28.75,
              "dur": 0.614,
              "vel": 127
            },
            {
              "note": "A#2",
              "pitch": 58,
              "beat": 29.5,
              "dur": 0.556,
              "vel": 127
            },
            {
              "note": "A#2",
              "pitch": 58,
              "beat": 30.25,
              "dur": 0.584,
              "vel": 127
            },
            {
              "note": "F2",
              "pitch": 53,
              "beat": 31.0,
              "dur": 0.5,
              "vel": 127
            },
            {
              "note": "F2",
              "pitch": 53,
              "beat": 31.5,
              "dur": 0.5,
              "vel": 127
            }
          ]
        },
        {
          "bar_start": 80.0,
          "bar_end": 95.0,
          "name": "",
          "notes": [
            {
              "note": "F#2",
              "pitch": 54,
              "beat": 0.0,
              "dur": 0.25,
              "vel": 127
            },
            {
              "note": "F#2",
              "pitch": 54,
              "beat": 0.25,
              "dur": 0.5,
              "vel": 127
            },
            {
              "note": "F#2",
              "pitch": 54,
              "beat": 0.75,
              "dur": 0.5,
              "vel": 127
            },
            {
              "note": "F#2",
              "pitch": 54,
              "beat": 1.5,
              "dur": 0.556,
              "vel": 127
            },
            {
              "note": "F#2",
              "pitch": 54,
              "beat": 2.25,
              "dur": 0.584,
              "vel": 127
            },
            {
              "note": "F#2",
              "pitch": 54,
              "beat": 3.0,
              "dur": 0.5,
              "vel": 127
            },
            {
              "note": "F#2",
              "pitch": 54,
              "beat": 3.5,
              "dur": 0.5,
              "vel": 127
            },
            {
              "note": "C#2",
              "pitch": 49,
              "beat": 4.0,
              "dur": 0.25,
              "vel": 127
            },
            {
              "note": "C#2",
              "pitch": 49,
              "beat": 4.25,
              "dur": 0.5,
              "vel": 127
            },
            {
              "note": "C#2",
              "pitch": 49,
              "beat": 4.75,
              "dur": 0.5,
              "vel": 127
            },
            {
              "note": "C#2",
              "pitch": 49,
              "beat": 5.5,
              "dur": 0.556,
              "vel": 127
            },
            {
              "note": "C#2",
              "pitch": 49,
              "beat": 6.25,
              "dur": 0.584,
              "vel": 127
            },
            {
              "note": "C#2",
              "pitch": 49,
              "beat": 7.0,
              "dur": 0.5,
              "vel": 127
            },
            {
              "note": "C#2",
              "pitch": 49,
              "beat": 7.5,
              "dur": 0.5,
              "vel": 127
            },
            {
              "note": "D#2",
              "pitch": 51,
              "beat": 8.0,
              "dur": 0.25,
              "vel": 127
            },
            {
              "note": "D#2",
              "pitch": 51,
              "beat": 8.25,
              "dur": 0.5,
              "vel": 127
            },
            {
              "note": "D#2",
              "pitch": 51,
              "beat": 8.75,
              "dur": 0.5,
              "vel": 127
            },
            {
              "note": "D#2",
              "pitch": 51,
              "beat": 9.5,
              "dur": 0.556,
              "vel": 127
            },
            {
              "note": "D#2",
              "pitch": 51,
              "beat": 10.25,
              "dur": 0.584,
              "vel": 127
            },
            {
              "note": "D#2",
              "pitch": 51,
              "beat": 11.0,
              "dur": 0.5,
              "vel": 127
            },
            {
              "note": "D#2",
              "pitch": 51,
              "beat": 11.5,
              "dur": 0.5,
              "vel": 127
            },
            {
              "note": "A#1",
              "pitch": 46,
              "beat": 12.0,
              "dur": 0.25,
              "vel": 127
            },
            {
              "note": "A#1",
              "pitch": 46,
              "beat": 12.25,
              "dur": 0.5,
              "vel": 127
            },
            {
              "note": "A#1",
              "pitch": 46,
              "beat": 12.75,
              "dur": 0.614,
              "vel": 127
            },
            {
              "note": "A#1",
              "pitch": 46,
              "beat": 13.5,
              "dur": 0.556,
              "vel": 127
            },
            {
              "note": "A#1",
              "pitch": 46,
              "beat": 14.25,
              "dur": 0.584,
              "vel": 127
            },
            {
              "note": "F2",
              "pitch": 53,
              "beat": 15.0,
              "dur": 0.5,
              "vel": 127
            },
            {
              "note": "F2",
              "pitch": 53,
              "beat": 15.5,
              "dur": 0.5,
              "vel": 127
            },
            {
              "note": "F#2",
              "pitch": 54,
              "beat": 16.0,
              "dur": 0.25,
              "vel": 127
            },
            {
              "note": "F#2",
              "pitch": 54,
              "beat": 16.25,
              "dur": 0.5,
              "vel": 127
            },
            {
              "note": "F#2",
              "pitch": 54,
              "beat": 16.75,
              "dur": 0.5,
              "vel": 127
            },
            {
              "note": "F#2",
              "pitch": 54,
              "beat": 17.5,
              "dur": 0.556,
              "vel": 127
            },
            {
              "note": "F#2",
              "pitch": 54,
              "beat": 18.25,
              "dur": 0.584,
              "vel": 127
            },
            {
              "note": "F#2",
              "pitch": 54,
              "beat": 19.0,
              "dur": 0.5,
              "vel": 127
            },
            {
              "note": "F#2",
              "pitch": 54,
              "beat": 19.5,
              "dur": 0.5,
              "vel": 127
            },
            {
              "note": "C#2",
              "pitch": 49,
              "beat": 20.0,
              "dur": 0.25,
              "vel": 127
            },
            {
              "note": "C#2",
              "pitch": 49,
              "beat": 20.25,
              "dur": 0.5,
              "vel": 127
            },
            {
              "note": "C#2",
              "pitch": 49,
              "beat": 20.75,
              "dur": 0.5,
              "vel": 127
            },
            {
              "note": "C#2",
              "pitch": 49,
              "beat": 21.5,
              "dur": 0.556,
              "vel": 127
            },
            {
              "note": "C#2",
              "pitch": 49,
              "beat": 22.25,
              "dur": 0.584,
              "vel": 127
            },
            {
              "note": "G#2",
              "pitch": 56,
              "beat": 23.0,
              "dur": 0.373,
              "vel": 127
            },
            {
              "note": "G#2",
              "pitch": 56,
              "beat": 23.5,
              "dur": 0.373,
              "vel": 127
            },
            {
              "note": "D#2",
              "pitch": 51,
              "beat": 24.0,
              "dur": 0.25,
              "vel": 127
            },
            {
              "note": "D#2",
              "pitch": 51,
              "beat": 24.25,
              "dur": 0.5,
              "vel": 127
            },
            {
              "note": "D#2",
              "pitch": 51,
              "beat": 24.75,
              "dur": 0.5,
              "vel": 127
            },
            {
              "note": "D#2",
              "pitch": 51,
              "beat": 25.5,
              "dur": 0.556,
              "vel": 127
            },
            {
              "note": "D#2",
              "pitch": 51,
              "beat": 26.25,
              "dur": 0.584,
              "vel": 127
            },
            {
              "note": "D#2",
              "pitch": 51,
              "beat": 27.0,
              "dur": 0.5,
              "vel": 127
            },
            {
              "note": "G#2",
              "pitch": 56,
              "beat": 27.5,
              "dur": 0.5,
              "vel": 127
            },
            {
              "note": "A#2",
              "pitch": 58,
              "beat": 28.0,
              "dur": 0.25,
              "vel": 127
            },
            {
              "note": "A#2",
              "pitch": 58,
              "beat": 28.25,
              "dur": 0.5,
              "vel": 127
            },
            {
              "note": "A#2",
              "pitch": 58,
              "beat": 28.75,
              "dur": 0.614,
              "vel": 127
            },
            {
              "note": "A#2",
              "pitch": 58,
              "beat": 29.5,
              "dur": 0.556,
              "vel": 127
            },
            {
              "note": "A#2",
              "pitch": 58,
              "beat": 30.25,
              "dur": 0.584,
              "vel": 127
            },
            {
              "note": "F2",
              "pitch": 53,
              "beat": 31.0,
              "dur": 0.5,
              "vel": 127
            },
            {
              "note": "F2",
              "pitch": 53,
              "beat": 31.5,
              "dur": 0.5,
              "vel": 127
            }
          ]
        },
        {
          "bar_start": 96.0,
          "bar_end": 108.0,
          "name": "",
          "notes": [
            {
              "note": "F#2",
              "pitch": 54,
              "beat": 0.0,
              "dur": 0.25,
              "vel": 127
            },
            {
              "note": "F#2",
              "pitch": 54,
              "beat": 0.25,
              "dur": 0.5,
              "vel": 127
            },
            {
              "note": "F#2",
              "pitch": 54,
              "beat": 0.75,
              "dur": 0.5,
              "vel": 127
            },
            {
              "note": "F#2",
              "pitch": 54,
              "beat": 1.5,
              "dur": 0.556,
              "vel": 127
            },
            {
              "note": "F#2",
              "pitch": 54,
              "beat": 2.25,
              "dur": 0.584,
              "vel": 127
            },
            {
              "note": "F#2",
              "pitch": 54,
              "beat": 3.0,
              "dur": 0.5,
              "vel": 127
            },
            {
              "note": "F#2",
              "pitch": 54,
              "beat": 3.5,
              "dur": 0.5,
              "vel": 127
            },
            {
              "note": "C#2",
              "pitch": 49,
              "beat": 4.0,
              "dur": 0.25,
              "vel": 127
            },
            {
              "note": "C#2",
              "pitch": 49,
              "beat": 4.25,
              "dur": 0.5,
              "vel": 127
            },
            {
              "note": "C#2",
              "pitch": 49,
              "beat": 4.75,
              "dur": 0.5,
              "vel": 127
            },
            {
              "note": "C#2",
              "pitch": 49,
              "beat": 5.5,
              "dur": 0.556,
              "vel": 127
            },
            {
              "note": "C#2",
              "pitch": 49,
              "beat": 6.25,
              "dur": 0.584,
              "vel": 127
            },
            {
              "note": "C#2",
              "pitch": 49,
              "beat": 7.0,
              "dur": 0.5,
              "vel": 127
            },
            {
              "note": "C#2",
              "pitch": 49,
              "beat": 7.5,
              "dur": 0.5,
              "vel": 127
            },
            {
              "note": "D#2",
              "pitch": 51,
              "beat": 8.0,
              "dur": 0.25,
              "vel": 127
            },
            {
              "note": "D#2",
              "pitch": 51,
              "beat": 8.25,
              "dur": 0.5,
              "vel": 127
            },
            {
              "note": "D#2",
              "pitch": 51,
              "beat": 8.75,
              "dur": 0.5,
              "vel": 127
            },
            {
              "note": "D#2",
              "pitch": 51,
              "beat": 9.5,
              "dur": 0.556,
              "vel": 127
            },
            {
              "note": "D#2",
              "pitch": 51,
              "beat": 10.25,
              "dur": 0.584,
              "vel": 127
            },
            {
              "note": "D#2",
              "pitch": 51,
              "beat": 11.0,
              "dur": 0.5,
              "vel": 127
            },
            {
              "note": "D#2",
              "pitch": 51,
              "beat": 11.5,
              "dur": 0.5,
              "vel": 127
            },
            {
              "note": "A#1",
              "pitch": 46,
              "beat": 12.0,
              "dur": 0.25,
              "vel": 127
            },
            {
              "note": "A#1",
              "pitch": 46,
              "beat": 12.25,
              "dur": 0.5,
              "vel": 127
            },
            {
              "note": "A#1",
              "pitch": 46,
              "beat": 12.75,
              "dur": 0.614,
              "vel": 127
            },
            {
              "note": "A#1",
              "pitch": 46,
              "beat": 13.5,
              "dur": 0.556,
              "vel": 127
            },
            {
              "note": "A#1",
              "pitch": 46,
              "beat": 14.25,
              "dur": 0.584,
              "vel": 127
            },
            {
              "note": "F2",
              "pitch": 53,
              "beat": 15.0,
              "dur": 0.5,
              "vel": 127
            },
            {
              "note": "F2",
              "pitch": 53,
              "beat": 15.5,
              "dur": 0.5,
              "vel": 127
            },
            {
              "note": "F#2",
              "pitch": 54,
              "beat": 16.0,
              "dur": 0.25,
              "vel": 127
            },
            {
              "note": "F#2",
              "pitch": 54,
              "beat": 16.25,
              "dur": 0.5,
              "vel": 127
            },
            {
              "note": "F#2",
              "pitch": 54,
              "beat": 16.75,
              "dur": 0.5,
              "vel": 127
            },
            {
              "note": "F#2",
              "pitch": 54,
              "beat": 17.5,
              "dur": 0.556,
              "vel": 127
            },
            {
              "note": "F#2",
              "pitch": 54,
              "beat": 18.25,
              "dur": 0.584,
              "vel": 127
            },
            {
              "note": "F#2",
              "pitch": 54,
              "beat": 19.0,
              "dur": 0.5,
              "vel": 127
            },
            {
              "note": "F#2",
              "pitch": 54,
              "beat": 19.5,
              "dur": 0.5,
              "vel": 127
            },
            {
              "note": "C#2",
              "pitch": 49,
              "beat": 20.0,
              "dur": 0.25,
              "vel": 127
            },
            {
              "note": "C#2",
              "pitch": 49,
              "beat": 20.25,
              "dur": 0.5,
              "vel": 127
            },
            {
              "note": "C#2",
              "pitch": 49,
              "beat": 20.75,
              "dur": 0.5,
              "vel": 127
            },
            {
              "note": "C#2",
              "pitch": 49,
              "beat": 21.5,
              "dur": 0.556,
              "vel": 127
            },
            {
              "note": "C#2",
              "pitch": 49,
              "beat": 22.25,
              "dur": 0.584,
              "vel": 127
            },
            {
              "note": "G#2",
              "pitch": 56,
              "beat": 23.0,
              "dur": 0.373,
              "vel": 127
            },
            {
              "note": "G#2",
              "pitch": 56,
              "beat": 23.5,
              "dur": 0.373,
              "vel": 127
            },
            {
              "note": "D#2",
              "pitch": 51,
              "beat": 24.0,
              "dur": 0.25,
              "vel": 127
            },
            {
              "note": "D#2",
              "pitch": 51,
              "beat": 24.25,
              "dur": 0.5,
              "vel": 127
            },
            {
              "note": "D#2",
              "pitch": 51,
              "beat": 24.75,
              "dur": 0.5,
              "vel": 127
            },
            {
              "note": "D#2",
              "pitch": 51,
              "beat": 25.5,
              "dur": 0.556,
              "vel": 127
            },
            {
              "note": "D#2",
              "pitch": 51,
              "beat": 26.25,
              "dur": 0.584,
              "vel": 127
            },
            {
              "note": "D#2",
              "pitch": 51,
              "beat": 27.0,
              "dur": 0.5,
              "vel": 127
            },
            {
              "note": "G#2",
              "pitch": 56,
              "beat": 27.5,
              "dur": 0.5,
              "vel": 127
            },
            {
              "note": "A#2",
              "pitch": 58,
              "beat": 28.0,
              "dur": 0.25,
              "vel": 127
            },
            {
              "note": "A#2",
              "pitch": 58,
              "beat": 28.25,
              "dur": 0.5,
              "vel": 127
            },
            {
              "note": "A#2",
              "pitch": 58,
              "beat": 28.75,
              "dur": 0.614,
              "vel": 127
            },
            {
              "note": "A#2",
              "pitch": 58,
              "beat": 29.5,
              "dur": 0.556,
              "vel": 127
            },
            {
              "note": "A#2",
              "pitch": 58,
              "beat": 30.25,
              "dur": 0.584,
              "vel": 127
            },
            {
              "note": "F2",
              "pitch": 53,
              "beat": 31.0,
              "dur": 0.5,
              "vel": 127
            },
            {
              "note": "F2",
              "pitch": 53,
              "beat": 31.5,
              "dur": 0.5,
              "vel": 127
            }
          ]
        },
        {
          "bar_start": 120.0,
          "bar_end": 120.25,
          "name": "",
          "notes": [
            {
              "note": "F#2",
              "pitch": 54,
              "beat": 0.0,
              "dur": 0.25,
              "vel": 127
            },
            {
              "note": "F#2",
              "pitch": 54,
              "beat": 0.25,
              "dur": 0.5,
              "vel": 127
            },
            {
              "note": "F#2",
              "pitch": 54,
              "beat": 0.75,
              "dur": 0.5,
              "vel": 127
            },
            {
              "note": "F#2",
              "pitch": 54,
              "beat": 1.5,
              "dur": 0.556,
              "vel": 127
            },
            {
              "note": "F#2",
              "pitch": 54,
              "beat": 2.25,
              "dur": 0.584,
              "vel": 127
            },
            {
              "note": "F#2",
              "pitch": 54,
              "beat": 3.0,
              "dur": 0.5,
              "vel": 127
            },
            {
              "note": "F#2",
              "pitch": 54,
              "beat": 3.5,
              "dur": 0.5,
              "vel": 127
            },
            {
              "note": "C#2",
              "pitch": 49,
              "beat": 4.0,
              "dur": 0.25,
              "vel": 127
            },
            {
              "note": "C#2",
              "pitch": 49,
              "beat": 4.25,
              "dur": 0.5,
              "vel": 127
            },
            {
              "note": "C#2",
              "pitch": 49,
              "beat": 4.75,
              "dur": 0.5,
              "vel": 127
            },
            {
              "note": "C#2",
              "pitch": 49,
              "beat": 5.5,
              "dur": 0.556,
              "vel": 127
            },
            {
              "note": "C#2",
              "pitch": 49,
              "beat": 6.25,
              "dur": 0.584,
              "vel": 127
            },
            {
              "note": "C#2",
              "pitch": 49,
              "beat": 7.0,
              "dur": 0.5,
              "vel": 127
            },
            {
              "note": "C#2",
              "pitch": 49,
              "beat": 7.5,
              "dur": 0.5,
              "vel": 127
            },
            {
              "note": "D#2",
              "pitch": 51,
              "beat": 8.0,
              "dur": 0.25,
              "vel": 127
            },
            {
              "note": "D#2",
              "pitch": 51,
              "beat": 8.25,
              "dur": 0.5,
              "vel": 127
            },
            {
              "note": "D#2",
              "pitch": 51,
              "beat": 8.75,
              "dur": 0.5,
              "vel": 127
            },
            {
              "note": "D#2",
              "pitch": 51,
              "beat": 9.5,
              "dur": 0.556,
              "vel": 127
            },
            {
              "note": "D#2",
              "pitch": 51,
              "beat": 10.25,
              "dur": 0.584,
              "vel": 127
            },
            {
              "note": "D#2",
              "pitch": 51,
              "beat": 11.0,
              "dur": 0.5,
              "vel": 127
            },
            {
              "note": "D#2",
              "pitch": 51,
              "beat": 11.5,
              "dur": 0.5,
              "vel": 127
            },
            {
              "note": "A#1",
              "pitch": 46,
              "beat": 12.0,
              "dur": 0.25,
              "vel": 127
            },
            {
              "note": "A#1",
              "pitch": 46,
              "beat": 12.25,
              "dur": 0.5,
              "vel": 127
            },
            {
              "note": "A#1",
              "pitch": 46,
              "beat": 12.75,
              "dur": 0.614,
              "vel": 127
            },
            {
              "note": "A#1",
              "pitch": 46,
              "beat": 13.5,
              "dur": 0.556,
              "vel": 127
            },
            {
              "note": "A#1",
              "pitch": 46,
              "beat": 14.25,
              "dur": 0.584,
              "vel": 127
            },
            {
              "note": "F2",
              "pitch": 53,
              "beat": 15.0,
              "dur": 0.5,
              "vel": 127
            },
            {
              "note": "F2",
              "pitch": 53,
              "beat": 15.5,
              "dur": 0.5,
              "vel": 127
            },
            {
              "note": "F#2",
              "pitch": 54,
              "beat": 16.0,
              "dur": 0.25,
              "vel": 127
            },
            {
              "note": "F#2",
              "pitch": 54,
              "beat": 16.25,
              "dur": 0.5,
              "vel": 127
            },
            {
              "note": "F#2",
              "pitch": 54,
              "beat": 16.75,
              "dur": 0.5,
              "vel": 127
            },
            {
              "note": "F#2",
              "pitch": 54,
              "beat": 17.5,
              "dur": 0.556,
              "vel": 127
            },
            {
              "note": "F#2",
              "pitch": 54,
              "beat": 18.25,
              "dur": 0.584,
              "vel": 127
            },
            {
              "note": "F#2",
              "pitch": 54,
              "beat": 19.0,
              "dur": 0.5,
              "vel": 127
            },
            {
              "note": "F#2",
              "pitch": 54,
              "beat": 19.5,
              "dur": 0.5,
              "vel": 127
            },
            {
              "note": "C#2",
              "pitch": 49,
              "beat": 20.0,
              "dur": 0.25,
              "vel": 127
            },
            {
              "note": "C#2",
              "pitch": 49,
              "beat": 20.25,
              "dur": 0.5,
              "vel": 127
            },
            {
              "note": "C#2",
              "pitch": 49,
              "beat": 20.75,
              "dur": 0.5,
              "vel": 127
            },
            {
              "note": "C#2",
              "pitch": 49,
              "beat": 21.5,
              "dur": 0.556,
              "vel": 127
            },
            {
              "note": "C#2",
              "pitch": 49,
              "beat": 22.25,
              "dur": 0.584,
              "vel": 127
            },
            {
              "note": "G#2",
              "pitch": 56,
              "beat": 23.0,
              "dur": 0.373,
              "vel": 127
            },
            {
              "note": "G#2",
              "pitch": 56,
              "beat": 23.5,
              "dur": 0.373,
              "vel": 127
            },
            {
              "note": "D#2",
              "pitch": 51,
              "beat": 24.0,
              "dur": 0.25,
              "vel": 127
            },
            {
              "note": "D#2",
              "pitch": 51,
              "beat": 24.25,
              "dur": 0.5,
              "vel": 127
            },
            {
              "note": "D#2",
              "pitch": 51,
              "beat": 24.75,
              "dur": 0.5,
              "vel": 127
            },
            {
              "note": "D#2",
              "pitch": 51,
              "beat": 25.5,
              "dur": 0.556,
              "vel": 127
            },
            {
              "note": "D#2",
              "pitch": 51,
              "beat": 26.25,
              "dur": 0.584,
              "vel": 127
            },
            {
              "note": "D#2",
              "pitch": 51,
              "beat": 27.0,
              "dur": 0.5,
              "vel": 127
            },
            {
              "note": "G#2",
              "pitch": 56,
              "beat": 27.5,
              "dur": 0.5,
              "vel": 127
            },
            {
              "note": "A#2",
              "pitch": 58,
              "beat": 28.0,
              "dur": 0.25,
              "vel": 127
            },
            {
              "note": "A#2",
              "pitch": 58,
              "beat": 28.25,
              "dur": 0.5,
              "vel": 127
            },
            {
              "note": "A#2",
              "pitch": 58,
              "beat": 28.75,
              "dur": 0.614,
              "vel": 127
            },
            {
              "note": "A#2",
              "pitch": 58,
              "beat": 29.5,
              "dur": 0.556,
              "vel": 127
            },
            {
              "note": "A#2",
              "pitch": 58,
              "beat": 30.25,
              "dur": 0.584,
              "vel": 127
            },
            {
              "note": "F2",
              "pitch": 53,
              "beat": 31.0,
              "dur": 0.5,
              "vel": 127
            },
            {
              "note": "F2",
              "pitch": 53,
              "beat": 31.5,
              "dur": 0.5,
              "vel": 127
            }
          ]
        },
        {
          "bar_start": 121.0,
          "bar_end": 121.25,
          "name": "",
          "notes": [
            {
              "note": "F#2",
              "pitch": 54,
              "beat": 0.0,
              "dur": 0.25,
              "vel": 127
            },
            {
              "note": "F#2",
              "pitch": 54,
              "beat": 0.25,
              "dur": 0.5,
              "vel": 127
            },
            {
              "note": "F#2",
              "pitch": 54,
              "beat": 0.75,
              "dur": 0.5,
              "vel": 127
            },
            {
              "note": "F#2",
              "pitch": 54,
              "beat": 1.5,
              "dur": 0.556,
              "vel": 127
            },
            {
              "note": "F#2",
              "pitch": 54,
              "beat": 2.25,
              "dur": 0.584,
              "vel": 127
            },
            {
              "note": "F#2",
              "pitch": 54,
              "beat": 3.0,
              "dur": 0.5,
              "vel": 127
            },
            {
              "note": "F#2",
              "pitch": 54,
              "beat": 3.5,
              "dur": 0.5,
              "vel": 127
            },
            {
              "note": "C#2",
              "pitch": 49,
              "beat": 4.0,
              "dur": 0.25,
              "vel": 127
            },
            {
              "note": "C#2",
              "pitch": 49,
              "beat": 4.25,
              "dur": 0.5,
              "vel": 127
            },
            {
              "note": "C#2",
              "pitch": 49,
              "beat": 4.75,
              "dur": 0.5,
              "vel": 127
            },
            {
              "note": "C#2",
              "pitch": 49,
              "beat": 5.5,
              "dur": 0.556,
              "vel": 127
            },
            {
              "note": "C#2",
              "pitch": 49,
              "beat": 6.25,
              "dur": 0.584,
              "vel": 127
            },
            {
              "note": "C#2",
              "pitch": 49,
              "beat": 7.0,
              "dur": 0.5,
              "vel": 127
            },
            {
              "note": "C#2",
              "pitch": 49,
              "beat": 7.5,
              "dur": 0.5,
              "vel": 127
            },
            {
              "note": "D#2",
              "pitch": 51,
              "beat": 8.0,
              "dur": 0.25,
              "vel": 127
            },
            {
              "note": "D#2",
              "pitch": 51,
              "beat": 8.25,
              "dur": 0.5,
              "vel": 127
            },
            {
              "note": "D#2",
              "pitch": 51,
              "beat": 8.75,
              "dur": 0.5,
              "vel": 127
            },
            {
              "note": "D#2",
              "pitch": 51,
              "beat": 9.5,
              "dur": 0.556,
              "vel": 127
            },
            {
              "note": "D#2",
              "pitch": 51,
              "beat": 10.25,
              "dur": 0.584,
              "vel": 127
            },
            {
              "note": "D#2",
              "pitch": 51,
              "beat": 11.0,
              "dur": 0.5,
              "vel": 127
            },
            {
              "note": "D#2",
              "pitch": 51,
              "beat": 11.5,
              "dur": 0.5,
              "vel": 127
            },
            {
              "note": "A#1",
              "pitch": 46,
              "beat": 12.0,
              "dur": 0.25,
              "vel": 127
            },
            {
              "note": "A#1",
              "pitch": 46,
              "beat": 12.25,
              "dur": 0.5,
              "vel": 127
            },
            {
              "note": "A#1",
              "pitch": 46,
              "beat": 12.75,
              "dur": 0.614,
              "vel": 127
            },
            {
              "note": "A#1",
              "pitch": 46,
              "beat": 13.5,
              "dur": 0.556,
              "vel": 127
            },
            {
              "note": "A#1",
              "pitch": 46,
              "beat": 14.25,
              "dur": 0.584,
              "vel": 127
            },
            {
              "note": "F2",
              "pitch": 53,
              "beat": 15.0,
              "dur": 0.5,
              "vel": 127
            },
            {
              "note": "F2",
              "pitch": 53,
              "beat": 15.5,
              "dur": 0.5,
              "vel": 127
            },
            {
              "note": "F#2",
              "pitch": 54,
              "beat": 16.0,
              "dur": 0.25,
              "vel": 127
            },
            {
              "note": "F#2",
              "pitch": 54,
              "beat": 16.25,
              "dur": 0.5,
              "vel": 127
            },
            {
              "note": "F#2",
              "pitch": 54,
              "beat": 16.75,
              "dur": 0.5,
              "vel": 127
            },
            {
              "note": "F#2",
              "pitch": 54,
              "beat": 17.5,
              "dur": 0.556,
              "vel": 127
            },
            {
              "note": "F#2",
              "pitch": 54,
              "beat": 18.25,
              "dur": 0.584,
              "vel": 127
            },
            {
              "note": "F#2",
              "pitch": 54,
              "beat": 19.0,
              "dur": 0.5,
              "vel": 127
            },
            {
              "note": "F#2",
              "pitch": 54,
              "beat": 19.5,
              "dur": 0.5,
              "vel": 127
            },
            {
              "note": "C#2",
              "pitch": 49,
              "beat": 20.0,
              "dur": 0.25,
              "vel": 127
            },
            {
              "note": "C#2",
              "pitch": 49,
              "beat": 20.25,
              "dur": 0.5,
              "vel": 127
            },
            {
              "note": "C#2",
              "pitch": 49,
              "beat": 20.75,
              "dur": 0.5,
              "vel": 127
            },
            {
              "note": "C#2",
              "pitch": 49,
              "beat": 21.5,
              "dur": 0.556,
              "vel": 127
            },
            {
              "note": "C#2",
              "pitch": 49,
              "beat": 22.25,
              "dur": 0.584,
              "vel": 127
            },
            {
              "note": "G#2",
              "pitch": 56,
              "beat": 23.0,
              "dur": 0.373,
              "vel": 127
            },
            {
              "note": "G#2",
              "pitch": 56,
              "beat": 23.5,
              "dur": 0.373,
              "vel": 127
            },
            {
              "note": "D#2",
              "pitch": 51,
              "beat": 24.0,
              "dur": 0.25,
              "vel": 127
            },
            {
              "note": "D#2",
              "pitch": 51,
              "beat": 24.25,
              "dur": 0.5,
              "vel": 127
            },
            {
              "note": "D#2",
              "pitch": 51,
              "beat": 24.75,
              "dur": 0.5,
              "vel": 127
            },
            {
              "note": "D#2",
              "pitch": 51,
              "beat": 25.5,
              "dur": 0.556,
              "vel": 127
            },
            {
              "note": "D#2",
              "pitch": 51,
              "beat": 26.25,
              "dur": 0.584,
              "vel": 127
            },
            {
              "note": "D#2",
              "pitch": 51,
              "beat": 27.0,
              "dur": 0.5,
              "vel": 127
            },
            {
              "note": "G#2",
              "pitch": 56,
              "beat": 27.5,
              "dur": 0.5,
              "vel": 127
            },
            {
              "note": "A#2",
              "pitch": 58,
              "beat": 28.0,
              "dur": 0.25,
              "vel": 127
            },
            {
              "note": "A#2",
              "pitch": 58,
              "beat": 28.25,
              "dur": 0.5,
              "vel": 127
            },
            {
              "note": "A#2",
              "pitch": 58,
              "beat": 28.75,
              "dur": 0.614,
              "vel": 127
            },
            {
              "note": "A#2",
              "pitch": 58,
              "beat": 29.5,
              "dur": 0.556,
              "vel": 127
            },
            {
              "note": "A#2",
              "pitch": 58,
              "beat": 30.25,
              "dur": 0.584,
              "vel": 127
            },
            {
              "note": "F2",
              "pitch": 53,
              "beat": 31.0,
              "dur": 0.5,
              "vel": 127
            },
            {
              "note": "F2",
              "pitch": 53,
              "beat": 31.5,
              "dur": 0.5,
              "vel": 127
            }
          ]
        },
        {
          "bar_start": 122.0,
          "bar_end": 122.25,
          "name": "",
          "notes": [
            {
              "note": "F#2",
              "pitch": 54,
              "beat": 0.0,
              "dur": 0.25,
              "vel": 127
            },
            {
              "note": "F#2",
              "pitch": 54,
              "beat": 0.25,
              "dur": 0.5,
              "vel": 127
            },
            {
              "note": "F#2",
              "pitch": 54,
              "beat": 0.75,
              "dur": 0.5,
              "vel": 127
            },
            {
              "note": "F#2",
              "pitch": 54,
              "beat": 1.5,
              "dur": 0.556,
              "vel": 127
            },
            {
              "note": "F#2",
              "pitch": 54,
              "beat": 2.25,
              "dur": 0.584,
              "vel": 127
            },
            {
              "note": "F#2",
              "pitch": 54,
              "beat": 3.0,
              "dur": 0.5,
              "vel": 127
            },
            {
              "note": "F#2",
              "pitch": 54,
              "beat": 3.5,
              "dur": 0.5,
              "vel": 127
            },
            {
              "note": "C#2",
              "pitch": 49,
              "beat": 4.0,
              "dur": 0.25,
              "vel": 127
            },
            {
              "note": "C#2",
              "pitch": 49,
              "beat": 4.25,
              "dur": 0.5,
              "vel": 127
            },
            {
              "note": "C#2",
              "pitch": 49,
              "beat": 4.75,
              "dur": 0.5,
              "vel": 127
            },
            {
              "note": "C#2",
              "pitch": 49,
              "beat": 5.5,
              "dur": 0.556,
              "vel": 127
            },
            {
              "note": "C#2",
              "pitch": 49,
              "beat": 6.25,
              "dur": 0.584,
              "vel": 127
            },
            {
              "note": "C#2",
              "pitch": 49,
              "beat": 7.0,
              "dur": 0.5,
              "vel": 127
            },
            {
              "note": "C#2",
              "pitch": 49,
              "beat": 7.5,
              "dur": 0.5,
              "vel": 127
            },
            {
              "note": "D#2",
              "pitch": 51,
              "beat": 8.0,
              "dur": 0.25,
              "vel": 127
            },
            {
              "note": "D#2",
              "pitch": 51,
              "beat": 8.25,
              "dur": 0.5,
              "vel": 127
            },
            {
              "note": "D#2",
              "pitch": 51,
              "beat": 8.75,
              "dur": 0.5,
              "vel": 127
            },
            {
              "note": "D#2",
              "pitch": 51,
              "beat": 9.5,
              "dur": 0.556,
              "vel": 127
            },
            {
              "note": "D#2",
              "pitch": 51,
              "beat": 10.25,
              "dur": 0.584,
              "vel": 127
            },
            {
              "note": "D#2",
              "pitch": 51,
              "beat": 11.0,
              "dur": 0.5,
              "vel": 127
            },
            {
              "note": "D#2",
              "pitch": 51,
              "beat": 11.5,
              "dur": 0.5,
              "vel": 127
            },
            {
              "note": "A#1",
              "pitch": 46,
              "beat": 12.0,
              "dur": 0.25,
              "vel": 127
            },
            {
              "note": "A#1",
              "pitch": 46,
              "beat": 12.25,
              "dur": 0.5,
              "vel": 127
            },
            {
              "note": "A#1",
              "pitch": 46,
              "beat": 12.75,
              "dur": 0.614,
              "vel": 127
            },
            {
              "note": "A#1",
              "pitch": 46,
              "beat": 13.5,
              "dur": 0.556,
              "vel": 127
            },
            {
              "note": "A#1",
              "pitch": 46,
              "beat": 14.25,
              "dur": 0.584,
              "vel": 127
            },
            {
              "note": "F2",
              "pitch": 53,
              "beat": 15.0,
              "dur": 0.5,
              "vel": 127
            },
            {
              "note": "F2",
              "pitch": 53,
              "beat": 15.5,
              "dur": 0.5,
              "vel": 127
            },
            {
              "note": "F#2",
              "pitch": 54,
              "beat": 16.0,
              "dur": 0.25,
              "vel": 127
            },
            {
              "note": "F#2",
              "pitch": 54,
              "beat": 16.25,
              "dur": 0.5,
              "vel": 127
            },
            {
              "note": "F#2",
              "pitch": 54,
              "beat": 16.75,
              "dur": 0.5,
              "vel": 127
            },
            {
              "note": "F#2",
              "pitch": 54,
              "beat": 17.5,
              "dur": 0.556,
              "vel": 127
            },
            {
              "note": "F#2",
              "pitch": 54,
              "beat": 18.25,
              "dur": 0.584,
              "vel": 127
            },
            {
              "note": "F#2",
              "pitch": 54,
              "beat": 19.0,
              "dur": 0.5,
              "vel": 127
            },
            {
              "note": "F#2",
              "pitch": 54,
              "beat": 19.5,
              "dur": 0.5,
              "vel": 127
            },
            {
              "note": "C#2",
              "pitch": 49,
              "beat": 20.0,
              "dur": 0.25,
              "vel": 127
            },
            {
              "note": "C#2",
              "pitch": 49,
              "beat": 20.25,
              "dur": 0.5,
              "vel": 127
            },
            {
              "note": "C#2",
              "pitch": 49,
              "beat": 20.75,
              "dur": 0.5,
              "vel": 127
            },
            {
              "note": "C#2",
              "pitch": 49,
              "beat": 21.5,
              "dur": 0.556,
              "vel": 127
            },
            {
              "note": "C#2",
              "pitch": 49,
              "beat": 22.25,
              "dur": 0.584,
              "vel": 127
            },
            {
              "note": "G#2",
              "pitch": 56,
              "beat": 23.0,
              "dur": 0.373,
              "vel": 127
            },
            {
              "note": "G#2",
              "pitch": 56,
              "beat": 23.5,
              "dur": 0.373,
              "vel": 127
            },
            {
              "note": "D#2",
              "pitch": 51,
              "beat": 24.0,
              "dur": 0.25,
              "vel": 127
            },
            {
              "note": "D#2",
              "pitch": 51,
              "beat": 24.25,
              "dur": 0.5,
              "vel": 127
            },
            {
              "note": "D#2",
              "pitch": 51,
              "beat": 24.75,
              "dur": 0.5,
              "vel": 127
            },
            {
              "note": "D#2",
              "pitch": 51,
              "beat": 25.5,
              "dur": 0.556,
              "vel": 127
            },
            {
              "note": "D#2",
              "pitch": 51,
              "beat": 26.25,
              "dur": 0.584,
              "vel": 127
            },
            {
              "note": "D#2",
              "pitch": 51,
              "beat": 27.0,
              "dur": 0.5,
              "vel": 127
            },
            {
              "note": "G#2",
              "pitch": 56,
              "beat": 27.5,
              "dur": 0.5,
              "vel": 127
            },
            {
              "note": "A#2",
              "pitch": 58,
              "beat": 28.0,
              "dur": 0.25,
              "vel": 127
            },
            {
              "note": "A#2",
              "pitch": 58,
              "beat": 28.25,
              "dur": 0.5,
              "vel": 127
            },
            {
              "note": "A#2",
              "pitch": 58,
              "beat": 28.75,
              "dur": 0.614,
              "vel": 127
            },
            {
              "note": "A#2",
              "pitch": 58,
              "beat": 29.5,
              "dur": 0.556,
              "vel": 127
            },
            {
              "note": "A#2",
              "pitch": 58,
              "beat": 30.25,
              "dur": 0.584,
              "vel": 127
            },
            {
              "note": "F2",
              "pitch": 53,
              "beat": 31.0,
              "dur": 0.5,
              "vel": 127
            },
            {
              "note": "F2",
              "pitch": 53,
              "beat": 31.5,
              "dur": 0.5,
              "vel": 127
            }
          ]
        },
        {
          "bar_start": 123.0,
          "bar_end": 123.25,
          "name": "",
          "notes": [
            {
              "note": "F#2",
              "pitch": 54,
              "beat": 0.0,
              "dur": 0.25,
              "vel": 127
            },
            {
              "note": "F#2",
              "pitch": 54,
              "beat": 0.25,
              "dur": 0.5,
              "vel": 127
            },
            {
              "note": "F#2",
              "pitch": 54,
              "beat": 0.75,
              "dur": 0.5,
              "vel": 127
            },
            {
              "note": "F#2",
              "pitch": 54,
              "beat": 1.5,
              "dur": 0.556,
              "vel": 127
            },
            {
              "note": "F#2",
              "pitch": 54,
              "beat": 2.25,
              "dur": 0.584,
              "vel": 127
            },
            {
              "note": "F#2",
              "pitch": 54,
              "beat": 3.0,
              "dur": 0.5,
              "vel": 127
            },
            {
              "note": "F#2",
              "pitch": 54,
              "beat": 3.5,
              "dur": 0.5,
              "vel": 127
            },
            {
              "note": "C#2",
              "pitch": 49,
              "beat": 4.0,
              "dur": 0.25,
              "vel": 127
            },
            {
              "note": "C#2",
              "pitch": 49,
              "beat": 4.25,
              "dur": 0.5,
              "vel": 127
            },
            {
              "note": "C#2",
              "pitch": 49,
              "beat": 4.75,
              "dur": 0.5,
              "vel": 127
            },
            {
              "note": "C#2",
              "pitch": 49,
              "beat": 5.5,
              "dur": 0.556,
              "vel": 127
            },
            {
              "note": "C#2",
              "pitch": 49,
              "beat": 6.25,
              "dur": 0.584,
              "vel": 127
            },
            {
              "note": "C#2",
              "pitch": 49,
              "beat": 7.0,
              "dur": 0.5,
              "vel": 127
            },
            {
              "note": "C#2",
              "pitch": 49,
              "beat": 7.5,
              "dur": 0.5,
              "vel": 127
            },
            {
              "note": "D#2",
              "pitch": 51,
              "beat": 8.0,
              "dur": 0.25,
              "vel": 127
            },
            {
              "note": "D#2",
              "pitch": 51,
              "beat": 8.25,
              "dur": 0.5,
              "vel": 127
            },
            {
              "note": "D#2",
              "pitch": 51,
              "beat": 8.75,
              "dur": 0.5,
              "vel": 127
            },
            {
              "note": "D#2",
              "pitch": 51,
              "beat": 9.5,
              "dur": 0.556,
              "vel": 127
            },
            {
              "note": "D#2",
              "pitch": 51,
              "beat": 10.25,
              "dur": 0.584,
              "vel": 127
            },
            {
              "note": "D#2",
              "pitch": 51,
              "beat": 11.0,
              "dur": 0.5,
              "vel": 127
            },
            {
              "note": "D#2",
              "pitch": 51,
              "beat": 11.5,
              "dur": 0.5,
              "vel": 127
            },
            {
              "note": "A#1",
              "pitch": 46,
              "beat": 12.0,
              "dur": 0.25,
              "vel": 127
            },
            {
              "note": "A#1",
              "pitch": 46,
              "beat": 12.25,
              "dur": 0.5,
              "vel": 127
            },
            {
              "note": "A#1",
              "pitch": 46,
              "beat": 12.75,
              "dur": 0.614,
              "vel": 127
            },
            {
              "note": "A#1",
              "pitch": 46,
              "beat": 13.5,
              "dur": 0.556,
              "vel": 127
            },
            {
              "note": "A#1",
              "pitch": 46,
              "beat": 14.25,
              "dur": 0.584,
              "vel": 127
            },
            {
              "note": "F2",
              "pitch": 53,
              "beat": 15.0,
              "dur": 0.5,
              "vel": 127
            },
            {
              "note": "F2",
              "pitch": 53,
              "beat": 15.5,
              "dur": 0.5,
              "vel": 127
            },
            {
              "note": "F#2",
              "pitch": 54,
              "beat": 16.0,
              "dur": 0.25,
              "vel": 127
            },
            {
              "note": "F#2",
              "pitch": 54,
              "beat": 16.25,
              "dur": 0.5,
              "vel": 127
            },
            {
              "note": "F#2",
              "pitch": 54,
              "beat": 16.75,
              "dur": 0.5,
              "vel": 127
            },
            {
              "note": "F#2",
              "pitch": 54,
              "beat": 17.5,
              "dur": 0.556,
              "vel": 127
            },
            {
              "note": "F#2",
              "pitch": 54,
              "beat": 18.25,
              "dur": 0.584,
              "vel": 127
            },
            {
              "note": "F#2",
              "pitch": 54,
              "beat": 19.0,
              "dur": 0.5,
              "vel": 127
            },
            {
              "note": "F#2",
              "pitch": 54,
              "beat": 19.5,
              "dur": 0.5,
              "vel": 127
            },
            {
              "note": "C#2",
              "pitch": 49,
              "beat": 20.0,
              "dur": 0.25,
              "vel": 127
            },
            {
              "note": "C#2",
              "pitch": 49,
              "beat": 20.25,
              "dur": 0.5,
              "vel": 127
            },
            {
              "note": "C#2",
              "pitch": 49,
              "beat": 20.75,
              "dur": 0.5,
              "vel": 127
            },
            {
              "note": "C#2",
              "pitch": 49,
              "beat": 21.5,
              "dur": 0.556,
              "vel": 127
            },
            {
              "note": "C#2",
              "pitch": 49,
              "beat": 22.25,
              "dur": 0.584,
              "vel": 127
            },
            {
              "note": "G#2",
              "pitch": 56,
              "beat": 23.0,
              "dur": 0.373,
              "vel": 127
            },
            {
              "note": "G#2",
              "pitch": 56,
              "beat": 23.5,
              "dur": 0.373,
              "vel": 127
            },
            {
              "note": "D#2",
              "pitch": 51,
              "beat": 24.0,
              "dur": 0.25,
              "vel": 127
            },
            {
              "note": "D#2",
              "pitch": 51,
              "beat": 24.25,
              "dur": 0.5,
              "vel": 127
            },
            {
              "note": "D#2",
              "pitch": 51,
              "beat": 24.75,
              "dur": 0.5,
              "vel": 127
            },
            {
              "note": "D#2",
              "pitch": 51,
              "beat": 25.5,
              "dur": 0.556,
              "vel": 127
            },
            {
              "note": "D#2",
              "pitch": 51,
              "beat": 26.25,
              "dur": 0.584,
              "vel": 127
            },
            {
              "note": "D#2",
              "pitch": 51,
              "beat": 27.0,
              "dur": 0.5,
              "vel": 127
            },
            {
              "note": "G#2",
              "pitch": 56,
              "beat": 27.5,
              "dur": 0.5,
              "vel": 127
            },
            {
              "note": "A#2",
              "pitch": 58,
              "beat": 28.0,
              "dur": 0.25,
              "vel": 127
            },
            {
              "note": "A#2",
              "pitch": 58,
              "beat": 28.25,
              "dur": 0.5,
              "vel": 127
            },
            {
              "note": "A#2",
              "pitch": 58,
              "beat": 28.75,
              "dur": 0.614,
              "vel": 127
            },
            {
              "note": "A#2",
              "pitch": 58,
              "beat": 29.5,
              "dur": 0.556,
              "vel": 127
            },
            {
              "note": "A#2",
              "pitch": 58,
              "beat": 30.25,
              "dur": 0.584,
              "vel": 127
            },
            {
              "note": "F2",
              "pitch": 53,
              "beat": 31.0,
              "dur": 0.5,
              "vel": 127
            },
            {
              "note": "F2",
              "pitch": 53,
              "beat": 31.5,
              "dur": 0.5,
              "vel": 127
            }
          ]
        },
        {
          "bar_start": 124.0,
          "bar_end": 124.25,
          "name": "",
          "notes": [
            {
              "note": "F#2",
              "pitch": 54,
              "beat": 0.0,
              "dur": 0.25,
              "vel": 127
            },
            {
              "note": "F#2",
              "pitch": 54,
              "beat": 0.25,
              "dur": 0.5,
              "vel": 127
            },
            {
              "note": "F#2",
              "pitch": 54,
              "beat": 0.75,
              "dur": 0.5,
              "vel": 127
            },
            {
              "note": "F#2",
              "pitch": 54,
              "beat": 1.5,
              "dur": 0.556,
              "vel": 127
            },
            {
              "note": "F#2",
              "pitch": 54,
              "beat": 2.25,
              "dur": 0.584,
              "vel": 127
            },
            {
              "note": "F#2",
              "pitch": 54,
              "beat": 3.0,
              "dur": 0.5,
              "vel": 127
            },
            {
              "note": "F#2",
              "pitch": 54,
              "beat": 3.5,
              "dur": 0.5,
              "vel": 127
            },
            {
              "note": "C#2",
              "pitch": 49,
              "beat": 4.0,
              "dur": 0.25,
              "vel": 127
            },
            {
              "note": "C#2",
              "pitch": 49,
              "beat": 4.25,
              "dur": 0.5,
              "vel": 127
            },
            {
              "note": "C#2",
              "pitch": 49,
              "beat": 4.75,
              "dur": 0.5,
              "vel": 127
            },
            {
              "note": "C#2",
              "pitch": 49,
              "beat": 5.5,
              "dur": 0.556,
              "vel": 127
            },
            {
              "note": "C#2",
              "pitch": 49,
              "beat": 6.25,
              "dur": 0.584,
              "vel": 127
            },
            {
              "note": "C#2",
              "pitch": 49,
              "beat": 7.0,
              "dur": 0.5,
              "vel": 127
            },
            {
              "note": "C#2",
              "pitch": 49,
              "beat": 7.5,
              "dur": 0.5,
              "vel": 127
            },
            {
              "note": "D#2",
              "pitch": 51,
              "beat": 8.0,
              "dur": 0.25,
              "vel": 127
            },
            {
              "note": "D#2",
              "pitch": 51,
              "beat": 8.25,
              "dur": 0.5,
              "vel": 127
            },
            {
              "note": "D#2",
              "pitch": 51,
              "beat": 8.75,
              "dur": 0.5,
              "vel": 127
            },
            {
              "note": "D#2",
              "pitch": 51,
              "beat": 9.5,
              "dur": 0.556,
              "vel": 127
            },
            {
              "note": "D#2",
              "pitch": 51,
              "beat": 10.25,
              "dur": 0.584,
              "vel": 127
            },
            {
              "note": "D#2",
              "pitch": 51,
              "beat": 11.0,
              "dur": 0.5,
              "vel": 127
            },
            {
              "note": "D#2",
              "pitch": 51,
              "beat": 11.5,
              "dur": 0.5,
              "vel": 127
            },
            {
              "note": "A#1",
              "pitch": 46,
              "beat": 12.0,
              "dur": 0.25,
              "vel": 127
            },
            {
              "note": "A#1",
              "pitch": 46,
              "beat": 12.25,
              "dur": 0.5,
              "vel": 127
            },
            {
              "note": "A#1",
              "pitch": 46,
              "beat": 12.75,
              "dur": 0.614,
              "vel": 127
            },
            {
              "note": "A#1",
              "pitch": 46,
              "beat": 13.5,
              "dur": 0.556,
              "vel": 127
            },
            {
              "note": "A#1",
              "pitch": 46,
              "beat": 14.25,
              "dur": 0.584,
              "vel": 127
            },
            {
              "note": "F2",
              "pitch": 53,
              "beat": 15.0,
              "dur": 0.5,
              "vel": 127
            },
            {
              "note": "F2",
              "pitch": 53,
              "beat": 15.5,
              "dur": 0.5,
              "vel": 127
            },
            {
              "note": "F#2",
              "pitch": 54,
              "beat": 16.0,
              "dur": 0.25,
              "vel": 127
            },
            {
              "note": "F#2",
              "pitch": 54,
              "beat": 16.25,
              "dur": 0.5,
              "vel": 127
            },
            {
              "note": "F#2",
              "pitch": 54,
              "beat": 16.75,
              "dur": 0.5,
              "vel": 127
            },
            {
              "note": "F#2",
              "pitch": 54,
              "beat": 17.5,
              "dur": 0.556,
              "vel": 127
            },
            {
              "note": "F#2",
              "pitch": 54,
              "beat": 18.25,
              "dur": 0.584,
              "vel": 127
            },
            {
              "note": "F#2",
              "pitch": 54,
              "beat": 19.0,
              "dur": 0.5,
              "vel": 127
            },
            {
              "note": "F#2",
              "pitch": 54,
              "beat": 19.5,
              "dur": 0.5,
              "vel": 127
            },
            {
              "note": "C#2",
              "pitch": 49,
              "beat": 20.0,
              "dur": 0.25,
              "vel": 127
            },
            {
              "note": "C#2",
              "pitch": 49,
              "beat": 20.25,
              "dur": 0.5,
              "vel": 127
            },
            {
              "note": "C#2",
              "pitch": 49,
              "beat": 20.75,
              "dur": 0.5,
              "vel": 127
            },
            {
              "note": "C#2",
              "pitch": 49,
              "beat": 21.5,
              "dur": 0.556,
              "vel": 127
            },
            {
              "note": "C#2",
              "pitch": 49,
              "beat": 22.25,
              "dur": 0.584,
              "vel": 127
            },
            {
              "note": "G#2",
              "pitch": 56,
              "beat": 23.0,
              "dur": 0.373,
              "vel": 127
            },
            {
              "note": "G#2",
              "pitch": 56,
              "beat": 23.5,
              "dur": 0.373,
              "vel": 127
            },
            {
              "note": "D#2",
              "pitch": 51,
              "beat": 24.0,
              "dur": 0.25,
              "vel": 127
            },
            {
              "note": "D#2",
              "pitch": 51,
              "beat": 24.25,
              "dur": 0.5,
              "vel": 127
            },
            {
              "note": "D#2",
              "pitch": 51,
              "beat": 24.75,
              "dur": 0.5,
              "vel": 127
            },
            {
              "note": "D#2",
              "pitch": 51,
              "beat": 25.5,
              "dur": 0.556,
              "vel": 127
            },
            {
              "note": "D#2",
              "pitch": 51,
              "beat": 26.25,
              "dur": 0.584,
              "vel": 127
            },
            {
              "note": "D#2",
              "pitch": 51,
              "beat": 27.0,
              "dur": 0.5,
              "vel": 127
            },
            {
              "note": "G#2",
              "pitch": 56,
              "beat": 27.5,
              "dur": 0.5,
              "vel": 127
            },
            {
              "note": "A#2",
              "pitch": 58,
              "beat": 28.0,
              "dur": 0.25,
              "vel": 127
            },
            {
              "note": "A#2",
              "pitch": 58,
              "beat": 28.25,
              "dur": 0.5,
              "vel": 127
            },
            {
              "note": "A#2",
              "pitch": 58,
              "beat": 28.75,
              "dur": 0.614,
              "vel": 127
            },
            {
              "note": "A#2",
              "pitch": 58,
              "beat": 29.5,
              "dur": 0.556,
              "vel": 127
            },
            {
              "note": "A#2",
              "pitch": 58,
              "beat": 30.25,
              "dur": 0.584,
              "vel": 127
            },
            {
              "note": "F2",
              "pitch": 53,
              "beat": 31.0,
              "dur": 0.5,
              "vel": 127
            },
            {
              "note": "F2",
              "pitch": 53,
              "beat": 31.5,
              "dur": 0.5,
              "vel": 127
            }
          ]
        },
        {
          "bar_start": 125.0,
          "bar_end": 125.25,
          "name": "",
          "notes": [
            {
              "note": "F#2",
              "pitch": 54,
              "beat": 0.0,
              "dur": 0.25,
              "vel": 127
            },
            {
              "note": "F#2",
              "pitch": 54,
              "beat": 0.25,
              "dur": 0.5,
              "vel": 127
            },
            {
              "note": "F#2",
              "pitch": 54,
              "beat": 0.75,
              "dur": 0.5,
              "vel": 127
            },
            {
              "note": "F#2",
              "pitch": 54,
              "beat": 1.5,
              "dur": 0.556,
              "vel": 127
            },
            {
              "note": "F#2",
              "pitch": 54,
              "beat": 2.25,
              "dur": 0.584,
              "vel": 127
            },
            {
              "note": "F#2",
              "pitch": 54,
              "beat": 3.0,
              "dur": 0.5,
              "vel": 127
            },
            {
              "note": "F#2",
              "pitch": 54,
              "beat": 3.5,
              "dur": 0.5,
              "vel": 127
            },
            {
              "note": "C#2",
              "pitch": 49,
              "beat": 4.0,
              "dur": 0.25,
              "vel": 127
            },
            {
              "note": "C#2",
              "pitch": 49,
              "beat": 4.25,
              "dur": 0.5,
              "vel": 127
            },
            {
              "note": "C#2",
              "pitch": 49,
              "beat": 4.75,
              "dur": 0.5,
              "vel": 127
            },
            {
              "note": "C#2",
              "pitch": 49,
              "beat": 5.5,
              "dur": 0.556,
              "vel": 127
            },
            {
              "note": "C#2",
              "pitch": 49,
              "beat": 6.25,
              "dur": 0.584,
              "vel": 127
            },
            {
              "note": "C#2",
              "pitch": 49,
              "beat": 7.0,
              "dur": 0.5,
              "vel": 127
            },
            {
              "note": "C#2",
              "pitch": 49,
              "beat": 7.5,
              "dur": 0.5,
              "vel": 127
            },
            {
              "note": "D#2",
              "pitch": 51,
              "beat": 8.0,
              "dur": 0.25,
              "vel": 127
            },
            {
              "note": "D#2",
              "pitch": 51,
              "beat": 8.25,
              "dur": 0.5,
              "vel": 127
            },
            {
              "note": "D#2",
              "pitch": 51,
              "beat": 8.75,
              "dur": 0.5,
              "vel": 127
            },
            {
              "note": "D#2",
              "pitch": 51,
              "beat": 9.5,
              "dur": 0.556,
              "vel": 127
            },
            {
              "note": "D#2",
              "pitch": 51,
              "beat": 10.25,
              "dur": 0.584,
              "vel": 127
            },
            {
              "note": "D#2",
              "pitch": 51,
              "beat": 11.0,
              "dur": 0.5,
              "vel": 127
            },
            {
              "note": "D#2",
              "pitch": 51,
              "beat": 11.5,
              "dur": 0.5,
              "vel": 127
            },
            {
              "note": "A#1",
              "pitch": 46,
              "beat": 12.0,
              "dur": 0.25,
              "vel": 127
            },
            {
              "note": "A#1",
              "pitch": 46,
              "beat": 12.25,
              "dur": 0.5,
              "vel": 127
            },
            {
              "note": "A#1",
              "pitch": 46,
              "beat": 12.75,
              "dur": 0.614,
              "vel": 127
            },
            {
              "note": "A#1",
              "pitch": 46,
              "beat": 13.5,
              "dur": 0.556,
              "vel": 127
            },
            {
              "note": "A#1",
              "pitch": 46,
              "beat": 14.25,
              "dur": 0.584,
              "vel": 127
            },
            {
              "note": "F2",
              "pitch": 53,
              "beat": 15.0,
              "dur": 0.5,
              "vel": 127
            },
            {
              "note": "F2",
              "pitch": 53,
              "beat": 15.5,
              "dur": 0.5,
              "vel": 127
            },
            {
              "note": "F#2",
              "pitch": 54,
              "beat": 16.0,
              "dur": 0.25,
              "vel": 127
            },
            {
              "note": "F#2",
              "pitch": 54,
              "beat": 16.25,
              "dur": 0.5,
              "vel": 127
            },
            {
              "note": "F#2",
              "pitch": 54,
              "beat": 16.75,
              "dur": 0.5,
              "vel": 127
            },
            {
              "note": "F#2",
              "pitch": 54,
              "beat": 17.5,
              "dur": 0.556,
              "vel": 127
            },
            {
              "note": "F#2",
              "pitch": 54,
              "beat": 18.25,
              "dur": 0.584,
              "vel": 127
            },
            {
              "note": "F#2",
              "pitch": 54,
              "beat": 19.0,
              "dur": 0.5,
              "vel": 127
            },
            {
              "note": "F#2",
              "pitch": 54,
              "beat": 19.5,
              "dur": 0.5,
              "vel": 127
            },
            {
              "note": "C#2",
              "pitch": 49,
              "beat": 20.0,
              "dur": 0.25,
              "vel": 127
            },
            {
              "note": "C#2",
              "pitch": 49,
              "beat": 20.25,
              "dur": 0.5,
              "vel": 127
            },
            {
              "note": "C#2",
              "pitch": 49,
              "beat": 20.75,
              "dur": 0.5,
              "vel": 127
            },
            {
              "note": "C#2",
              "pitch": 49,
              "beat": 21.5,
              "dur": 0.556,
              "vel": 127
            },
            {
              "note": "C#2",
              "pitch": 49,
              "beat": 22.25,
              "dur": 0.584,
              "vel": 127
            },
            {
              "note": "G#2",
              "pitch": 56,
              "beat": 23.0,
              "dur": 0.373,
              "vel": 127
            },
            {
              "note": "G#2",
              "pitch": 56,
              "beat": 23.5,
              "dur": 0.373,
              "vel": 127
            },
            {
              "note": "D#2",
              "pitch": 51,
              "beat": 24.0,
              "dur": 0.25,
              "vel": 127
            },
            {
              "note": "D#2",
              "pitch": 51,
              "beat": 24.25,
              "dur": 0.5,
              "vel": 127
            },
            {
              "note": "D#2",
              "pitch": 51,
              "beat": 24.75,
              "dur": 0.5,
              "vel": 127
            },
            {
              "note": "D#2",
              "pitch": 51,
              "beat": 25.5,
              "dur": 0.556,
              "vel": 127
            },
            {
              "note": "D#2",
              "pitch": 51,
              "beat": 26.25,
              "dur": 0.584,
              "vel": 127
            },
            {
              "note": "D#2",
              "pitch": 51,
              "beat": 27.0,
              "dur": 0.5,
              "vel": 127
            },
            {
              "note": "G#2",
              "pitch": 56,
              "beat": 27.5,
              "dur": 0.5,
              "vel": 127
            },
            {
              "note": "A#2",
              "pitch": 58,
              "beat": 28.0,
              "dur": 0.25,
              "vel": 127
            },
            {
              "note": "A#2",
              "pitch": 58,
              "beat": 28.25,
              "dur": 0.5,
              "vel": 127
            },
            {
              "note": "A#2",
              "pitch": 58,
              "beat": 28.75,
              "dur": 0.614,
              "vel": 127
            },
            {
              "note": "A#2",
              "pitch": 58,
              "beat": 29.5,
              "dur": 0.556,
              "vel": 127
            },
            {
              "note": "A#2",
              "pitch": 58,
              "beat": 30.25,
              "dur": 0.584,
              "vel": 127
            },
            {
              "note": "F2",
              "pitch": 53,
              "beat": 31.0,
              "dur": 0.5,
              "vel": 127
            },
            {
              "note": "F2",
              "pitch": 53,
              "beat": 31.5,
              "dur": 0.5,
              "vel": 127
            }
          ]
        },
        {
          "bar_start": 126.0,
          "bar_end": 126.25,
          "name": "",
          "notes": [
            {
              "note": "F#2",
              "pitch": 54,
              "beat": 0.0,
              "dur": 0.25,
              "vel": 127
            },
            {
              "note": "F#2",
              "pitch": 54,
              "beat": 0.25,
              "dur": 0.5,
              "vel": 127
            },
            {
              "note": "F#2",
              "pitch": 54,
              "beat": 0.75,
              "dur": 0.5,
              "vel": 127
            },
            {
              "note": "F#2",
              "pitch": 54,
              "beat": 1.5,
              "dur": 0.556,
              "vel": 127
            },
            {
              "note": "F#2",
              "pitch": 54,
              "beat": 2.25,
              "dur": 0.584,
              "vel": 127
            },
            {
              "note": "F#2",
              "pitch": 54,
              "beat": 3.0,
              "dur": 0.5,
              "vel": 127
            },
            {
              "note": "F#2",
              "pitch": 54,
              "beat": 3.5,
              "dur": 0.5,
              "vel": 127
            },
            {
              "note": "C#2",
              "pitch": 49,
              "beat": 4.0,
              "dur": 0.25,
              "vel": 127
            },
            {
              "note": "C#2",
              "pitch": 49,
              "beat": 4.25,
              "dur": 0.5,
              "vel": 127
            },
            {
              "note": "C#2",
              "pitch": 49,
              "beat": 4.75,
              "dur": 0.5,
              "vel": 127
            },
            {
              "note": "C#2",
              "pitch": 49,
              "beat": 5.5,
              "dur": 0.556,
              "vel": 127
            },
            {
              "note": "C#2",
              "pitch": 49,
              "beat": 6.25,
              "dur": 0.584,
              "vel": 127
            },
            {
              "note": "C#2",
              "pitch": 49,
              "beat": 7.0,
              "dur": 0.5,
              "vel": 127
            },
            {
              "note": "C#2",
              "pitch": 49,
              "beat": 7.5,
              "dur": 0.5,
              "vel": 127
            },
            {
              "note": "D#2",
              "pitch": 51,
              "beat": 8.0,
              "dur": 0.25,
              "vel": 127
            },
            {
              "note": "D#2",
              "pitch": 51,
              "beat": 8.25,
              "dur": 0.5,
              "vel": 127
            },
            {
              "note": "D#2",
              "pitch": 51,
              "beat": 8.75,
              "dur": 0.5,
              "vel": 127
            },
            {
              "note": "D#2",
              "pitch": 51,
              "beat": 9.5,
              "dur": 0.556,
              "vel": 127
            },
            {
              "note": "D#2",
              "pitch": 51,
              "beat": 10.25,
              "dur": 0.584,
              "vel": 127
            },
            {
              "note": "D#2",
              "pitch": 51,
              "beat": 11.0,
              "dur": 0.5,
              "vel": 127
            },
            {
              "note": "D#2",
              "pitch": 51,
              "beat": 11.5,
              "dur": 0.5,
              "vel": 127
            },
            {
              "note": "A#1",
              "pitch": 46,
              "beat": 12.0,
              "dur": 0.25,
              "vel": 127
            },
            {
              "note": "A#1",
              "pitch": 46,
              "beat": 12.25,
              "dur": 0.5,
              "vel": 127
            },
            {
              "note": "A#1",
              "pitch": 46,
              "beat": 12.75,
              "dur": 0.614,
              "vel": 127
            },
            {
              "note": "A#1",
              "pitch": 46,
              "beat": 13.5,
              "dur": 0.556,
              "vel": 127
            },
            {
              "note": "A#1",
              "pitch": 46,
              "beat": 14.25,
              "dur": 0.584,
              "vel": 127
            },
            {
              "note": "F2",
              "pitch": 53,
              "beat": 15.0,
              "dur": 0.5,
              "vel": 127
            },
            {
              "note": "F2",
              "pitch": 53,
              "beat": 15.5,
              "dur": 0.5,
              "vel": 127
            },
            {
              "note": "F#2",
              "pitch": 54,
              "beat": 16.0,
              "dur": 0.25,
              "vel": 127
            },
            {
              "note": "F#2",
              "pitch": 54,
              "beat": 16.25,
              "dur": 0.5,
              "vel": 127
            },
            {
              "note": "F#2",
              "pitch": 54,
              "beat": 16.75,
              "dur": 0.5,
              "vel": 127
            },
            {
              "note": "F#2",
              "pitch": 54,
              "beat": 17.5,
              "dur": 0.556,
              "vel": 127
            },
            {
              "note": "F#2",
              "pitch": 54,
              "beat": 18.25,
              "dur": 0.584,
              "vel": 127
            },
            {
              "note": "F#2",
              "pitch": 54,
              "beat": 19.0,
              "dur": 0.5,
              "vel": 127
            },
            {
              "note": "F#2",
              "pitch": 54,
              "beat": 19.5,
              "dur": 0.5,
              "vel": 127
            },
            {
              "note": "C#2",
              "pitch": 49,
              "beat": 20.0,
              "dur": 0.25,
              "vel": 127
            },
            {
              "note": "C#2",
              "pitch": 49,
              "beat": 20.25,
              "dur": 0.5,
              "vel": 127
            },
            {
              "note": "C#2",
              "pitch": 49,
              "beat": 20.75,
              "dur": 0.5,
              "vel": 127
            },
            {
              "note": "C#2",
              "pitch": 49,
              "beat": 21.5,
              "dur": 0.556,
              "vel": 127
            },
            {
              "note": "C#2",
              "pitch": 49,
              "beat": 22.25,
              "dur": 0.584,
              "vel": 127
            },
            {
              "note": "G#2",
              "pitch": 56,
              "beat": 23.0,
              "dur": 0.373,
              "vel": 127
            },
            {
              "note": "G#2",
              "pitch": 56,
              "beat": 23.5,
              "dur": 0.373,
              "vel": 127
            },
            {
              "note": "D#2",
              "pitch": 51,
              "beat": 24.0,
              "dur": 0.25,
              "vel": 127
            },
            {
              "note": "D#2",
              "pitch": 51,
              "beat": 24.25,
              "dur": 0.5,
              "vel": 127
            },
            {
              "note": "D#2",
              "pitch": 51,
              "beat": 24.75,
              "dur": 0.5,
              "vel": 127
            },
            {
              "note": "D#2",
              "pitch": 51,
              "beat": 25.5,
              "dur": 0.556,
              "vel": 127
            },
            {
              "note": "D#2",
              "pitch": 51,
              "beat": 26.25,
              "dur": 0.584,
              "vel": 127
            },
            {
              "note": "D#2",
              "pitch": 51,
              "beat": 27.0,
              "dur": 0.5,
              "vel": 127
            },
            {
              "note": "G#2",
              "pitch": 56,
              "beat": 27.5,
              "dur": 0.5,
              "vel": 127
            },
            {
              "note": "A#2",
              "pitch": 58,
              "beat": 28.0,
              "dur": 0.25,
              "vel": 127
            },
            {
              "note": "A#2",
              "pitch": 58,
              "beat": 28.25,
              "dur": 0.5,
              "vel": 127
            },
            {
              "note": "A#2",
              "pitch": 58,
              "beat": 28.75,
              "dur": 0.614,
              "vel": 127
            },
            {
              "note": "A#2",
              "pitch": 58,
              "beat": 29.5,
              "dur": 0.556,
              "vel": 127
            },
            {
              "note": "A#2",
              "pitch": 58,
              "beat": 30.25,
              "dur": 0.584,
              "vel": 127
            },
            {
              "note": "F2",
              "pitch": 53,
              "beat": 31.0,
              "dur": 0.5,
              "vel": 127
            },
            {
              "note": "F2",
              "pitch": 53,
              "beat": 31.5,
              "dur": 0.5,
              "vel": 127
            }
          ]
        },
        {
          "bar_start": 127.0,
          "bar_end": 128.0,
          "name": "",
          "notes": [
            {
              "note": "F#2",
              "pitch": 54,
              "beat": 0.0,
              "dur": 0.25,
              "vel": 127
            },
            {
              "note": "F#2",
              "pitch": 54,
              "beat": 0.25,
              "dur": 0.5,
              "vel": 127
            },
            {
              "note": "F#2",
              "pitch": 54,
              "beat": 0.75,
              "dur": 0.5,
              "vel": 127
            },
            {
              "note": "F#2",
              "pitch": 54,
              "beat": 1.5,
              "dur": 0.556,
              "vel": 127
            },
            {
              "note": "F#2",
              "pitch": 54,
              "beat": 2.25,
              "dur": 0.584,
              "vel": 127
            },
            {
              "note": "F#2",
              "pitch": 54,
              "beat": 3.0,
              "dur": 0.5,
              "vel": 127
            },
            {
              "note": "F#2",
              "pitch": 54,
              "beat": 3.5,
              "dur": 0.5,
              "vel": 127
            },
            {
              "note": "C#2",
              "pitch": 49,
              "beat": 4.0,
              "dur": 0.25,
              "vel": 127
            },
            {
              "note": "C#2",
              "pitch": 49,
              "beat": 4.25,
              "dur": 0.5,
              "vel": 127
            },
            {
              "note": "C#2",
              "pitch": 49,
              "beat": 4.75,
              "dur": 0.5,
              "vel": 127
            },
            {
              "note": "C#2",
              "pitch": 49,
              "beat": 5.5,
              "dur": 0.556,
              "vel": 127
            },
            {
              "note": "C#2",
              "pitch": 49,
              "beat": 6.25,
              "dur": 0.584,
              "vel": 127
            },
            {
              "note": "C#2",
              "pitch": 49,
              "beat": 7.0,
              "dur": 0.5,
              "vel": 127
            },
            {
              "note": "C#2",
              "pitch": 49,
              "beat": 7.5,
              "dur": 0.5,
              "vel": 127
            },
            {
              "note": "D#2",
              "pitch": 51,
              "beat": 8.0,
              "dur": 0.25,
              "vel": 127
            },
            {
              "note": "D#2",
              "pitch": 51,
              "beat": 8.25,
              "dur": 0.5,
              "vel": 127
            },
            {
              "note": "D#2",
              "pitch": 51,
              "beat": 8.75,
              "dur": 0.5,
              "vel": 127
            },
            {
              "note": "D#2",
              "pitch": 51,
              "beat": 9.5,
              "dur": 0.556,
              "vel": 127
            },
            {
              "note": "D#2",
              "pitch": 51,
              "beat": 10.25,
              "dur": 0.584,
              "vel": 127
            },
            {
              "note": "D#2",
              "pitch": 51,
              "beat": 11.0,
              "dur": 0.5,
              "vel": 127
            },
            {
              "note": "D#2",
              "pitch": 51,
              "beat": 11.5,
              "dur": 0.5,
              "vel": 127
            },
            {
              "note": "A#1",
              "pitch": 46,
              "beat": 12.0,
              "dur": 0.25,
              "vel": 127
            },
            {
              "note": "A#1",
              "pitch": 46,
              "beat": 12.25,
              "dur": 0.5,
              "vel": 127
            },
            {
              "note": "A#1",
              "pitch": 46,
              "beat": 12.75,
              "dur": 0.614,
              "vel": 127
            },
            {
              "note": "A#1",
              "pitch": 46,
              "beat": 13.5,
              "dur": 0.556,
              "vel": 127
            },
            {
              "note": "A#1",
              "pitch": 46,
              "beat": 14.25,
              "dur": 0.584,
              "vel": 127
            },
            {
              "note": "F2",
              "pitch": 53,
              "beat": 15.0,
              "dur": 0.5,
              "vel": 127
            },
            {
              "note": "F2",
              "pitch": 53,
              "beat": 15.5,
              "dur": 0.5,
              "vel": 127
            },
            {
              "note": "F#2",
              "pitch": 54,
              "beat": 16.0,
              "dur": 0.25,
              "vel": 127
            },
            {
              "note": "F#2",
              "pitch": 54,
              "beat": 16.25,
              "dur": 0.5,
              "vel": 127
            },
            {
              "note": "F#2",
              "pitch": 54,
              "beat": 16.75,
              "dur": 0.5,
              "vel": 127
            },
            {
              "note": "F#2",
              "pitch": 54,
              "beat": 17.5,
              "dur": 0.556,
              "vel": 127
            },
            {
              "note": "F#2",
              "pitch": 54,
              "beat": 18.25,
              "dur": 0.584,
              "vel": 127
            },
            {
              "note": "F#2",
              "pitch": 54,
              "beat": 19.0,
              "dur": 0.5,
              "vel": 127
            },
            {
              "note": "F#2",
              "pitch": 54,
              "beat": 19.5,
              "dur": 0.5,
              "vel": 127
            },
            {
              "note": "C#2",
              "pitch": 49,
              "beat": 20.0,
              "dur": 0.25,
              "vel": 127
            },
            {
              "note": "C#2",
              "pitch": 49,
              "beat": 20.25,
              "dur": 0.5,
              "vel": 127
            },
            {
              "note": "C#2",
              "pitch": 49,
              "beat": 20.75,
              "dur": 0.5,
              "vel": 127
            },
            {
              "note": "C#2",
              "pitch": 49,
              "beat": 21.5,
              "dur": 0.556,
              "vel": 127
            },
            {
              "note": "C#2",
              "pitch": 49,
              "beat": 22.25,
              "dur": 0.584,
              "vel": 127
            },
            {
              "note": "G#2",
              "pitch": 56,
              "beat": 23.0,
              "dur": 0.373,
              "vel": 127
            },
            {
              "note": "G#2",
              "pitch": 56,
              "beat": 23.5,
              "dur": 0.373,
              "vel": 127
            },
            {
              "note": "D#2",
              "pitch": 51,
              "beat": 24.0,
              "dur": 0.25,
              "vel": 127
            },
            {
              "note": "D#2",
              "pitch": 51,
              "beat": 24.25,
              "dur": 0.5,
              "vel": 127
            },
            {
              "note": "D#2",
              "pitch": 51,
              "beat": 24.75,
              "dur": 0.5,
              "vel": 127
            },
            {
              "note": "D#2",
              "pitch": 51,
              "beat": 25.5,
              "dur": 0.556,
              "vel": 127
            },
            {
              "note": "D#2",
              "pitch": 51,
              "beat": 26.25,
              "dur": 0.584,
              "vel": 127
            },
            {
              "note": "D#2",
              "pitch": 51,
              "beat": 27.0,
              "dur": 0.5,
              "vel": 127
            },
            {
              "note": "G#2",
              "pitch": 56,
              "beat": 27.5,
              "dur": 0.5,
              "vel": 127
            },
            {
              "note": "A#2",
              "pitch": 58,
              "beat": 28.0,
              "dur": 0.25,
              "vel": 127
            },
            {
              "note": "A#2",
              "pitch": 58,
              "beat": 28.25,
              "dur": 0.5,
              "vel": 127
            },
            {
              "note": "A#2",
              "pitch": 58,
              "beat": 28.75,
              "dur": 0.614,
              "vel": 127
            },
            {
              "note": "A#2",
              "pitch": 58,
              "beat": 29.5,
              "dur": 0.556,
              "vel": 127
            },
            {
              "note": "A#2",
              "pitch": 58,
              "beat": 30.25,
              "dur": 0.584,
              "vel": 127
            },
            {
              "note": "F2",
              "pitch": 53,
              "beat": 31.0,
              "dur": 0.5,
              "vel": 127
            },
            {
              "note": "F2",
              "pitch": 53,
              "beat": 31.5,
              "dur": 0.5,
              "vel": 127
            }
          ]
        },
        {
          "bar_start": 128.0,
          "bar_end": 128.25,
          "name": "",
          "notes": [
            {
              "note": "F#2",
              "pitch": 54,
              "beat": 0.0,
              "dur": 0.25,
              "vel": 127
            },
            {
              "note": "F#2",
              "pitch": 54,
              "beat": 0.25,
              "dur": 0.5,
              "vel": 127
            },
            {
              "note": "F#2",
              "pitch": 54,
              "beat": 0.75,
              "dur": 0.5,
              "vel": 127
            },
            {
              "note": "F#2",
              "pitch": 54,
              "beat": 1.5,
              "dur": 0.556,
              "vel": 127
            },
            {
              "note": "F#2",
              "pitch": 54,
              "beat": 2.25,
              "dur": 0.584,
              "vel": 127
            },
            {
              "note": "F#2",
              "pitch": 54,
              "beat": 3.0,
              "dur": 0.5,
              "vel": 127
            },
            {
              "note": "F#2",
              "pitch": 54,
              "beat": 3.5,
              "dur": 0.5,
              "vel": 127
            },
            {
              "note": "C#2",
              "pitch": 49,
              "beat": 4.0,
              "dur": 0.25,
              "vel": 127
            },
            {
              "note": "C#2",
              "pitch": 49,
              "beat": 4.25,
              "dur": 0.5,
              "vel": 127
            },
            {
              "note": "C#2",
              "pitch": 49,
              "beat": 4.75,
              "dur": 0.5,
              "vel": 127
            },
            {
              "note": "C#2",
              "pitch": 49,
              "beat": 5.5,
              "dur": 0.556,
              "vel": 127
            },
            {
              "note": "C#2",
              "pitch": 49,
              "beat": 6.25,
              "dur": 0.584,
              "vel": 127
            },
            {
              "note": "C#2",
              "pitch": 49,
              "beat": 7.0,
              "dur": 0.5,
              "vel": 127
            },
            {
              "note": "C#2",
              "pitch": 49,
              "beat": 7.5,
              "dur": 0.5,
              "vel": 127
            },
            {
              "note": "D#2",
              "pitch": 51,
              "beat": 8.0,
              "dur": 0.25,
              "vel": 127
            },
            {
              "note": "D#2",
              "pitch": 51,
              "beat": 8.25,
              "dur": 0.5,
              "vel": 127
            },
            {
              "note": "D#2",
              "pitch": 51,
              "beat": 8.75,
              "dur": 0.5,
              "vel": 127
            },
            {
              "note": "D#2",
              "pitch": 51,
              "beat": 9.5,
              "dur": 0.556,
              "vel": 127
            },
            {
              "note": "D#2",
              "pitch": 51,
              "beat": 10.25,
              "dur": 0.584,
              "vel": 127
            },
            {
              "note": "D#2",
              "pitch": 51,
              "beat": 11.0,
              "dur": 0.5,
              "vel": 127
            },
            {
              "note": "D#2",
              "pitch": 51,
              "beat": 11.5,
              "dur": 0.5,
              "vel": 127
            },
            {
              "note": "A#1",
              "pitch": 46,
              "beat": 12.0,
              "dur": 0.25,
              "vel": 127
            },
            {
              "note": "A#1",
              "pitch": 46,
              "beat": 12.25,
              "dur": 0.5,
              "vel": 127
            },
            {
              "note": "A#1",
              "pitch": 46,
              "beat": 12.75,
              "dur": 0.614,
              "vel": 127
            },
            {
              "note": "A#1",
              "pitch": 46,
              "beat": 13.5,
              "dur": 0.556,
              "vel": 127
            },
            {
              "note": "A#1",
              "pitch": 46,
              "beat": 14.25,
              "dur": 0.584,
              "vel": 127
            },
            {
              "note": "F2",
              "pitch": 53,
              "beat": 15.0,
              "dur": 0.5,
              "vel": 127
            },
            {
              "note": "F2",
              "pitch": 53,
              "beat": 15.5,
              "dur": 0.5,
              "vel": 127
            },
            {
              "note": "F#2",
              "pitch": 54,
              "beat": 16.0,
              "dur": 0.25,
              "vel": 127
            },
            {
              "note": "F#2",
              "pitch": 54,
              "beat": 16.25,
              "dur": 0.5,
              "vel": 127
            },
            {
              "note": "F#2",
              "pitch": 54,
              "beat": 16.75,
              "dur": 0.5,
              "vel": 127
            },
            {
              "note": "F#2",
              "pitch": 54,
              "beat": 17.5,
              "dur": 0.556,
              "vel": 127
            },
            {
              "note": "F#2",
              "pitch": 54,
              "beat": 18.25,
              "dur": 0.584,
              "vel": 127
            },
            {
              "note": "F#2",
              "pitch": 54,
              "beat": 19.0,
              "dur": 0.5,
              "vel": 127
            },
            {
              "note": "F#2",
              "pitch": 54,
              "beat": 19.5,
              "dur": 0.5,
              "vel": 127
            },
            {
              "note": "C#2",
              "pitch": 49,
              "beat": 20.0,
              "dur": 0.25,
              "vel": 127
            },
            {
              "note": "C#2",
              "pitch": 49,
              "beat": 20.25,
              "dur": 0.5,
              "vel": 127
            },
            {
              "note": "C#2",
              "pitch": 49,
              "beat": 20.75,
              "dur": 0.5,
              "vel": 127
            },
            {
              "note": "C#2",
              "pitch": 49,
              "beat": 21.5,
              "dur": 0.556,
              "vel": 127
            },
            {
              "note": "C#2",
              "pitch": 49,
              "beat": 22.25,
              "dur": 0.584,
              "vel": 127
            },
            {
              "note": "G#2",
              "pitch": 56,
              "beat": 23.0,
              "dur": 0.373,
              "vel": 127
            },
            {
              "note": "G#2",
              "pitch": 56,
              "beat": 23.5,
              "dur": 0.373,
              "vel": 127
            },
            {
              "note": "D#2",
              "pitch": 51,
              "beat": 24.0,
              "dur": 0.25,
              "vel": 127
            },
            {
              "note": "D#2",
              "pitch": 51,
              "beat": 24.25,
              "dur": 0.5,
              "vel": 127
            },
            {
              "note": "D#2",
              "pitch": 51,
              "beat": 24.75,
              "dur": 0.5,
              "vel": 127
            },
            {
              "note": "D#2",
              "pitch": 51,
              "beat": 25.5,
              "dur": 0.556,
              "vel": 127
            },
            {
              "note": "D#2",
              "pitch": 51,
              "beat": 26.25,
              "dur": 0.584,
              "vel": 127
            },
            {
              "note": "D#2",
              "pitch": 51,
              "beat": 27.0,
              "dur": 0.5,
              "vel": 127
            },
            {
              "note": "G#2",
              "pitch": 56,
              "beat": 27.5,
              "dur": 0.5,
              "vel": 127
            },
            {
              "note": "A#2",
              "pitch": 58,
              "beat": 28.0,
              "dur": 0.25,
              "vel": 127
            },
            {
              "note": "A#2",
              "pitch": 58,
              "beat": 28.25,
              "dur": 0.5,
              "vel": 127
            },
            {
              "note": "A#2",
              "pitch": 58,
              "beat": 28.75,
              "dur": 0.614,
              "vel": 127
            },
            {
              "note": "A#2",
              "pitch": 58,
              "beat": 29.5,
              "dur": 0.556,
              "vel": 127
            },
            {
              "note": "A#2",
              "pitch": 58,
              "beat": 30.25,
              "dur": 0.584,
              "vel": 127
            },
            {
              "note": "F2",
              "pitch": 53,
              "beat": 31.0,
              "dur": 0.5,
              "vel": 127
            },
            {
              "note": "F2",
              "pitch": 53,
              "beat": 31.5,
              "dur": 0.5,
              "vel": 127
            }
          ]
        },
        {
          "bar_start": 129.0,
          "bar_end": 129.25,
          "name": "",
          "notes": [
            {
              "note": "F#2",
              "pitch": 54,
              "beat": 0.0,
              "dur": 0.25,
              "vel": 127
            },
            {
              "note": "F#2",
              "pitch": 54,
              "beat": 0.25,
              "dur": 0.5,
              "vel": 127
            },
            {
              "note": "F#2",
              "pitch": 54,
              "beat": 0.75,
              "dur": 0.5,
              "vel": 127
            },
            {
              "note": "F#2",
              "pitch": 54,
              "beat": 1.5,
              "dur": 0.556,
              "vel": 127
            },
            {
              "note": "F#2",
              "pitch": 54,
              "beat": 2.25,
              "dur": 0.584,
              "vel": 127
            },
            {
              "note": "F#2",
              "pitch": 54,
              "beat": 3.0,
              "dur": 0.5,
              "vel": 127
            },
            {
              "note": "F#2",
              "pitch": 54,
              "beat": 3.5,
              "dur": 0.5,
              "vel": 127
            },
            {
              "note": "C#2",
              "pitch": 49,
              "beat": 4.0,
              "dur": 0.25,
              "vel": 127
            },
            {
              "note": "C#2",
              "pitch": 49,
              "beat": 4.25,
              "dur": 0.5,
              "vel": 127
            },
            {
              "note": "C#2",
              "pitch": 49,
              "beat": 4.75,
              "dur": 0.5,
              "vel": 127
            },
            {
              "note": "C#2",
              "pitch": 49,
              "beat": 5.5,
              "dur": 0.556,
              "vel": 127
            },
            {
              "note": "C#2",
              "pitch": 49,
              "beat": 6.25,
              "dur": 0.584,
              "vel": 127
            },
            {
              "note": "C#2",
              "pitch": 49,
              "beat": 7.0,
              "dur": 0.5,
              "vel": 127
            },
            {
              "note": "C#2",
              "pitch": 49,
              "beat": 7.5,
              "dur": 0.5,
              "vel": 127
            },
            {
              "note": "D#2",
              "pitch": 51,
              "beat": 8.0,
              "dur": 0.25,
              "vel": 127
            },
            {
              "note": "D#2",
              "pitch": 51,
              "beat": 8.25,
              "dur": 0.5,
              "vel": 127
            },
            {
              "note": "D#2",
              "pitch": 51,
              "beat": 8.75,
              "dur": 0.5,
              "vel": 127
            },
            {
              "note": "D#2",
              "pitch": 51,
              "beat": 9.5,
              "dur": 0.556,
              "vel": 127
            },
            {
              "note": "D#2",
              "pitch": 51,
              "beat": 10.25,
              "dur": 0.584,
              "vel": 127
            },
            {
              "note": "D#2",
              "pitch": 51,
              "beat": 11.0,
              "dur": 0.5,
              "vel": 127
            },
            {
              "note": "D#2",
              "pitch": 51,
              "beat": 11.5,
              "dur": 0.5,
              "vel": 127
            },
            {
              "note": "A#1",
              "pitch": 46,
              "beat": 12.0,
              "dur": 0.25,
              "vel": 127
            },
            {
              "note": "A#1",
              "pitch": 46,
              "beat": 12.25,
              "dur": 0.5,
              "vel": 127
            },
            {
              "note": "A#1",
              "pitch": 46,
              "beat": 12.75,
              "dur": 0.614,
              "vel": 127
            },
            {
              "note": "A#1",
              "pitch": 46,
              "beat": 13.5,
              "dur": 0.556,
              "vel": 127
            },
            {
              "note": "A#1",
              "pitch": 46,
              "beat": 14.25,
              "dur": 0.584,
              "vel": 127
            },
            {
              "note": "F2",
              "pitch": 53,
              "beat": 15.0,
              "dur": 0.5,
              "vel": 127
            },
            {
              "note": "F2",
              "pitch": 53,
              "beat": 15.5,
              "dur": 0.5,
              "vel": 127
            },
            {
              "note": "F#2",
              "pitch": 54,
              "beat": 16.0,
              "dur": 0.25,
              "vel": 127
            },
            {
              "note": "F#2",
              "pitch": 54,
              "beat": 16.25,
              "dur": 0.5,
              "vel": 127
            },
            {
              "note": "F#2",
              "pitch": 54,
              "beat": 16.75,
              "dur": 0.5,
              "vel": 127
            },
            {
              "note": "F#2",
              "pitch": 54,
              "beat": 17.5,
              "dur": 0.556,
              "vel": 127
            },
            {
              "note": "F#2",
              "pitch": 54,
              "beat": 18.25,
              "dur": 0.584,
              "vel": 127
            },
            {
              "note": "F#2",
              "pitch": 54,
              "beat": 19.0,
              "dur": 0.5,
              "vel": 127
            },
            {
              "note": "F#2",
              "pitch": 54,
              "beat": 19.5,
              "dur": 0.5,
              "vel": 127
            },
            {
              "note": "C#2",
              "pitch": 49,
              "beat": 20.0,
              "dur": 0.25,
              "vel": 127
            },
            {
              "note": "C#2",
              "pitch": 49,
              "beat": 20.25,
              "dur": 0.5,
              "vel": 127
            },
            {
              "note": "C#2",
              "pitch": 49,
              "beat": 20.75,
              "dur": 0.5,
              "vel": 127
            },
            {
              "note": "C#2",
              "pitch": 49,
              "beat": 21.5,
              "dur": 0.556,
              "vel": 127
            },
            {
              "note": "C#2",
              "pitch": 49,
              "beat": 22.25,
              "dur": 0.584,
              "vel": 127
            },
            {
              "note": "G#2",
              "pitch": 56,
              "beat": 23.0,
              "dur": 0.373,
              "vel": 127
            },
            {
              "note": "G#2",
              "pitch": 56,
              "beat": 23.5,
              "dur": 0.373,
              "vel": 127
            },
            {
              "note": "D#2",
              "pitch": 51,
              "beat": 24.0,
              "dur": 0.25,
              "vel": 127
            },
            {
              "note": "D#2",
              "pitch": 51,
              "beat": 24.25,
              "dur": 0.5,
              "vel": 127
            },
            {
              "note": "D#2",
              "pitch": 51,
              "beat": 24.75,
              "dur": 0.5,
              "vel": 127
            },
            {
              "note": "D#2",
              "pitch": 51,
              "beat": 25.5,
              "dur": 0.556,
              "vel": 127
            },
            {
              "note": "D#2",
              "pitch": 51,
              "beat": 26.25,
              "dur": 0.584,
              "vel": 127
            },
            {
              "note": "D#2",
              "pitch": 51,
              "beat": 27.0,
              "dur": 0.5,
              "vel": 127
            },
            {
              "note": "G#2",
              "pitch": 56,
              "beat": 27.5,
              "dur": 0.5,
              "vel": 127
            },
            {
              "note": "A#2",
              "pitch": 58,
              "beat": 28.0,
              "dur": 0.25,
              "vel": 127
            },
            {
              "note": "A#2",
              "pitch": 58,
              "beat": 28.25,
              "dur": 0.5,
              "vel": 127
            },
            {
              "note": "A#2",
              "pitch": 58,
              "beat": 28.75,
              "dur": 0.614,
              "vel": 127
            },
            {
              "note": "A#2",
              "pitch": 58,
              "beat": 29.5,
              "dur": 0.556,
              "vel": 127
            },
            {
              "note": "A#2",
              "pitch": 58,
              "beat": 30.25,
              "dur": 0.584,
              "vel": 127
            },
            {
              "note": "F2",
              "pitch": 53,
              "beat": 31.0,
              "dur": 0.5,
              "vel": 127
            },
            {
              "note": "F2",
              "pitch": 53,
              "beat": 31.5,
              "dur": 0.5,
              "vel": 127
            }
          ]
        },
        {
          "bar_start": 130.0,
          "bar_end": 130.25,
          "name": "",
          "notes": [
            {
              "note": "F#2",
              "pitch": 54,
              "beat": 0.0,
              "dur": 0.25,
              "vel": 127
            },
            {
              "note": "F#2",
              "pitch": 54,
              "beat": 0.25,
              "dur": 0.5,
              "vel": 127
            },
            {
              "note": "F#2",
              "pitch": 54,
              "beat": 0.75,
              "dur": 0.5,
              "vel": 127
            },
            {
              "note": "F#2",
              "pitch": 54,
              "beat": 1.5,
              "dur": 0.556,
              "vel": 127
            },
            {
              "note": "F#2",
              "pitch": 54,
              "beat": 2.25,
              "dur": 0.584,
              "vel": 127
            },
            {
              "note": "F#2",
              "pitch": 54,
              "beat": 3.0,
              "dur": 0.5,
              "vel": 127
            },
            {
              "note": "F#2",
              "pitch": 54,
              "beat": 3.5,
              "dur": 0.5,
              "vel": 127
            },
            {
              "note": "C#2",
              "pitch": 49,
              "beat": 4.0,
              "dur": 0.25,
              "vel": 127
            },
            {
              "note": "C#2",
              "pitch": 49,
              "beat": 4.25,
              "dur": 0.5,
              "vel": 127
            },
            {
              "note": "C#2",
              "pitch": 49,
              "beat": 4.75,
              "dur": 0.5,
              "vel": 127
            },
            {
              "note": "C#2",
              "pitch": 49,
              "beat": 5.5,
              "dur": 0.556,
              "vel": 127
            },
            {
              "note": "C#2",
              "pitch": 49,
              "beat": 6.25,
              "dur": 0.584,
              "vel": 127
            },
            {
              "note": "C#2",
              "pitch": 49,
              "beat": 7.0,
              "dur": 0.5,
              "vel": 127
            },
            {
              "note": "C#2",
              "pitch": 49,
              "beat": 7.5,
              "dur": 0.5,
              "vel": 127
            },
            {
              "note": "D#2",
              "pitch": 51,
              "beat": 8.0,
              "dur": 0.25,
              "vel": 127
            },
            {
              "note": "D#2",
              "pitch": 51,
              "beat": 8.25,
              "dur": 0.5,
              "vel": 127
            },
            {
              "note": "D#2",
              "pitch": 51,
              "beat": 8.75,
              "dur": 0.5,
              "vel": 127
            },
            {
              "note": "D#2",
              "pitch": 51,
              "beat": 9.5,
              "dur": 0.556,
              "vel": 127
            },
            {
              "note": "D#2",
              "pitch": 51,
              "beat": 10.25,
              "dur": 0.584,
              "vel": 127
            },
            {
              "note": "D#2",
              "pitch": 51,
              "beat": 11.0,
              "dur": 0.5,
              "vel": 127
            },
            {
              "note": "D#2",
              "pitch": 51,
              "beat": 11.5,
              "dur": 0.5,
              "vel": 127
            },
            {
              "note": "A#1",
              "pitch": 46,
              "beat": 12.0,
              "dur": 0.25,
              "vel": 127
            },
            {
              "note": "A#1",
              "pitch": 46,
              "beat": 12.25,
              "dur": 0.5,
              "vel": 127
            },
            {
              "note": "A#1",
              "pitch": 46,
              "beat": 12.75,
              "dur": 0.614,
              "vel": 127
            },
            {
              "note": "A#1",
              "pitch": 46,
              "beat": 13.5,
              "dur": 0.556,
              "vel": 127
            },
            {
              "note": "A#1",
              "pitch": 46,
              "beat": 14.25,
              "dur": 0.584,
              "vel": 127
            },
            {
              "note": "F2",
              "pitch": 53,
              "beat": 15.0,
              "dur": 0.5,
              "vel": 127
            },
            {
              "note": "F2",
              "pitch": 53,
              "beat": 15.5,
              "dur": 0.5,
              "vel": 127
            },
            {
              "note": "F#2",
              "pitch": 54,
              "beat": 16.0,
              "dur": 0.25,
              "vel": 127
            },
            {
              "note": "F#2",
              "pitch": 54,
              "beat": 16.25,
              "dur": 0.5,
              "vel": 127
            },
            {
              "note": "F#2",
              "pitch": 54,
              "beat": 16.75,
              "dur": 0.5,
              "vel": 127
            },
            {
              "note": "F#2",
              "pitch": 54,
              "beat": 17.5,
              "dur": 0.556,
              "vel": 127
            },
            {
              "note": "F#2",
              "pitch": 54,
              "beat": 18.25,
              "dur": 0.584,
              "vel": 127
            },
            {
              "note": "F#2",
              "pitch": 54,
              "beat": 19.0,
              "dur": 0.5,
              "vel": 127
            },
            {
              "note": "F#2",
              "pitch": 54,
              "beat": 19.5,
              "dur": 0.5,
              "vel": 127
            },
            {
              "note": "C#2",
              "pitch": 49,
              "beat": 20.0,
              "dur": 0.25,
              "vel": 127
            },
            {
              "note": "C#2",
              "pitch": 49,
              "beat": 20.25,
              "dur": 0.5,
              "vel": 127
            },
            {
              "note": "C#2",
              "pitch": 49,
              "beat": 20.75,
              "dur": 0.5,
              "vel": 127
            },
            {
              "note": "C#2",
              "pitch": 49,
              "beat": 21.5,
              "dur": 0.556,
              "vel": 127
            },
            {
              "note": "C#2",
              "pitch": 49,
              "beat": 22.25,
              "dur": 0.584,
              "vel": 127
            },
            {
              "note": "G#2",
              "pitch": 56,
              "beat": 23.0,
              "dur": 0.373,
              "vel": 127
            },
            {
              "note": "G#2",
              "pitch": 56,
              "beat": 23.5,
              "dur": 0.373,
              "vel": 127
            },
            {
              "note": "D#2",
              "pitch": 51,
              "beat": 24.0,
              "dur": 0.25,
              "vel": 127
            },
            {
              "note": "D#2",
              "pitch": 51,
              "beat": 24.25,
              "dur": 0.5,
              "vel": 127
            },
            {
              "note": "D#2",
              "pitch": 51,
              "beat": 24.75,
              "dur": 0.5,
              "vel": 127
            },
            {
              "note": "D#2",
              "pitch": 51,
              "beat": 25.5,
              "dur": 0.556,
              "vel": 127
            },
            {
              "note": "D#2",
              "pitch": 51,
              "beat": 26.25,
              "dur": 0.584,
              "vel": 127
            },
            {
              "note": "D#2",
              "pitch": 51,
              "beat": 27.0,
              "dur": 0.5,
              "vel": 127
            },
            {
              "note": "G#2",
              "pitch": 56,
              "beat": 27.5,
              "dur": 0.5,
              "vel": 127
            },
            {
              "note": "A#2",
              "pitch": 58,
              "beat": 28.0,
              "dur": 0.25,
              "vel": 127
            },
            {
              "note": "A#2",
              "pitch": 58,
              "beat": 28.25,
              "dur": 0.5,
              "vel": 127
            },
            {
              "note": "A#2",
              "pitch": 58,
              "beat": 28.75,
              "dur": 0.614,
              "vel": 127
            },
            {
              "note": "A#2",
              "pitch": 58,
              "beat": 29.5,
              "dur": 0.556,
              "vel": 127
            },
            {
              "note": "A#2",
              "pitch": 58,
              "beat": 30.25,
              "dur": 0.584,
              "vel": 127
            },
            {
              "note": "F2",
              "pitch": 53,
              "beat": 31.0,
              "dur": 0.5,
              "vel": 127
            },
            {
              "note": "F2",
              "pitch": 53,
              "beat": 31.5,
              "dur": 0.5,
              "vel": 127
            }
          ]
        },
        {
          "bar_start": 131.0,
          "bar_end": 131.25,
          "name": "",
          "notes": [
            {
              "note": "F#2",
              "pitch": 54,
              "beat": 0.0,
              "dur": 0.25,
              "vel": 127
            },
            {
              "note": "F#2",
              "pitch": 54,
              "beat": 0.25,
              "dur": 0.5,
              "vel": 127
            },
            {
              "note": "F#2",
              "pitch": 54,
              "beat": 0.75,
              "dur": 0.5,
              "vel": 127
            },
            {
              "note": "F#2",
              "pitch": 54,
              "beat": 1.5,
              "dur": 0.556,
              "vel": 127
            },
            {
              "note": "F#2",
              "pitch": 54,
              "beat": 2.25,
              "dur": 0.584,
              "vel": 127
            },
            {
              "note": "F#2",
              "pitch": 54,
              "beat": 3.0,
              "dur": 0.5,
              "vel": 127
            },
            {
              "note": "F#2",
              "pitch": 54,
              "beat": 3.5,
              "dur": 0.5,
              "vel": 127
            },
            {
              "note": "C#2",
              "pitch": 49,
              "beat": 4.0,
              "dur": 0.25,
              "vel": 127
            },
            {
              "note": "C#2",
              "pitch": 49,
              "beat": 4.25,
              "dur": 0.5,
              "vel": 127
            },
            {
              "note": "C#2",
              "pitch": 49,
              "beat": 4.75,
              "dur": 0.5,
              "vel": 127
            },
            {
              "note": "C#2",
              "pitch": 49,
              "beat": 5.5,
              "dur": 0.556,
              "vel": 127
            },
            {
              "note": "C#2",
              "pitch": 49,
              "beat": 6.25,
              "dur": 0.584,
              "vel": 127
            },
            {
              "note": "C#2",
              "pitch": 49,
              "beat": 7.0,
              "dur": 0.5,
              "vel": 127
            },
            {
              "note": "C#2",
              "pitch": 49,
              "beat": 7.5,
              "dur": 0.5,
              "vel": 127
            },
            {
              "note": "D#2",
              "pitch": 51,
              "beat": 8.0,
              "dur": 0.25,
              "vel": 127
            },
            {
              "note": "D#2",
              "pitch": 51,
              "beat": 8.25,
              "dur": 0.5,
              "vel": 127
            },
            {
              "note": "D#2",
              "pitch": 51,
              "beat": 8.75,
              "dur": 0.5,
              "vel": 127
            },
            {
              "note": "D#2",
              "pitch": 51,
              "beat": 9.5,
              "dur": 0.556,
              "vel": 127
            },
            {
              "note": "D#2",
              "pitch": 51,
              "beat": 10.25,
              "dur": 0.584,
              "vel": 127
            },
            {
              "note": "D#2",
              "pitch": 51,
              "beat": 11.0,
              "dur": 0.5,
              "vel": 127
            },
            {
              "note": "D#2",
              "pitch": 51,
              "beat": 11.5,
              "dur": 0.5,
              "vel": 127
            },
            {
              "note": "A#1",
              "pitch": 46,
              "beat": 12.0,
              "dur": 0.25,
              "vel": 127
            },
            {
              "note": "A#1",
              "pitch": 46,
              "beat": 12.25,
              "dur": 0.5,
              "vel": 127
            },
            {
              "note": "A#1",
              "pitch": 46,
              "beat": 12.75,
              "dur": 0.614,
              "vel": 127
            },
            {
              "note": "A#1",
              "pitch": 46,
              "beat": 13.5,
              "dur": 0.556,
              "vel": 127
            },
            {
              "note": "A#1",
              "pitch": 46,
              "beat": 14.25,
              "dur": 0.584,
              "vel": 127
            },
            {
              "note": "F2",
              "pitch": 53,
              "beat": 15.0,
              "dur": 0.5,
              "vel": 127
            },
            {
              "note": "F2",
              "pitch": 53,
              "beat": 15.5,
              "dur": 0.5,
              "vel": 127
            },
            {
              "note": "F#2",
              "pitch": 54,
              "beat": 16.0,
              "dur": 0.25,
              "vel": 127
            },
            {
              "note": "F#2",
              "pitch": 54,
              "beat": 16.25,
              "dur": 0.5,
              "vel": 127
            },
            {
              "note": "F#2",
              "pitch": 54,
              "beat": 16.75,
              "dur": 0.5,
              "vel": 127
            },
            {
              "note": "F#2",
              "pitch": 54,
              "beat": 17.5,
              "dur": 0.556,
              "vel": 127
            },
            {
              "note": "F#2",
              "pitch": 54,
              "beat": 18.25,
              "dur": 0.584,
              "vel": 127
            },
            {
              "note": "F#2",
              "pitch": 54,
              "beat": 19.0,
              "dur": 0.5,
              "vel": 127
            },
            {
              "note": "F#2",
              "pitch": 54,
              "beat": 19.5,
              "dur": 0.5,
              "vel": 127
            },
            {
              "note": "C#2",
              "pitch": 49,
              "beat": 20.0,
              "dur": 0.25,
              "vel": 127
            },
            {
              "note": "C#2",
              "pitch": 49,
              "beat": 20.25,
              "dur": 0.5,
              "vel": 127
            },
            {
              "note": "C#2",
              "pitch": 49,
              "beat": 20.75,
              "dur": 0.5,
              "vel": 127
            },
            {
              "note": "C#2",
              "pitch": 49,
              "beat": 21.5,
              "dur": 0.556,
              "vel": 127
            },
            {
              "note": "C#2",
              "pitch": 49,
              "beat": 22.25,
              "dur": 0.584,
              "vel": 127
            },
            {
              "note": "G#2",
              "pitch": 56,
              "beat": 23.0,
              "dur": 0.373,
              "vel": 127
            },
            {
              "note": "G#2",
              "pitch": 56,
              "beat": 23.5,
              "dur": 0.373,
              "vel": 127
            },
            {
              "note": "D#2",
              "pitch": 51,
              "beat": 24.0,
              "dur": 0.25,
              "vel": 127
            },
            {
              "note": "D#2",
              "pitch": 51,
              "beat": 24.25,
              "dur": 0.5,
              "vel": 127
            },
            {
              "note": "D#2",
              "pitch": 51,
              "beat": 24.75,
              "dur": 0.5,
              "vel": 127
            },
            {
              "note": "D#2",
              "pitch": 51,
              "beat": 25.5,
              "dur": 0.556,
              "vel": 127
            },
            {
              "note": "D#2",
              "pitch": 51,
              "beat": 26.25,
              "dur": 0.584,
              "vel": 127
            },
            {
              "note": "D#2",
              "pitch": 51,
              "beat": 27.0,
              "dur": 0.5,
              "vel": 127
            },
            {
              "note": "G#2",
              "pitch": 56,
              "beat": 27.5,
              "dur": 0.5,
              "vel": 127
            },
            {
              "note": "A#2",
              "pitch": 58,
              "beat": 28.0,
              "dur": 0.25,
              "vel": 127
            },
            {
              "note": "A#2",
              "pitch": 58,
              "beat": 28.25,
              "dur": 0.5,
              "vel": 127
            },
            {
              "note": "A#2",
              "pitch": 58,
              "beat": 28.75,
              "dur": 0.614,
              "vel": 127
            },
            {
              "note": "A#2",
              "pitch": 58,
              "beat": 29.5,
              "dur": 0.556,
              "vel": 127
            },
            {
              "note": "A#2",
              "pitch": 58,
              "beat": 30.25,
              "dur": 0.584,
              "vel": 127
            },
            {
              "note": "F2",
              "pitch": 53,
              "beat": 31.0,
              "dur": 0.5,
              "vel": 127
            },
            {
              "note": "F2",
              "pitch": 53,
              "beat": 31.5,
              "dur": 0.5,
              "vel": 127
            }
          ]
        },
        {
          "bar_start": 132.0,
          "bar_end": 132.25,
          "name": "",
          "notes": [
            {
              "note": "F#2",
              "pitch": 54,
              "beat": 0.0,
              "dur": 0.25,
              "vel": 127
            },
            {
              "note": "F#2",
              "pitch": 54,
              "beat": 0.25,
              "dur": 0.5,
              "vel": 127
            },
            {
              "note": "F#2",
              "pitch": 54,
              "beat": 0.75,
              "dur": 0.5,
              "vel": 127
            },
            {
              "note": "F#2",
              "pitch": 54,
              "beat": 1.5,
              "dur": 0.556,
              "vel": 127
            },
            {
              "note": "F#2",
              "pitch": 54,
              "beat": 2.25,
              "dur": 0.584,
              "vel": 127
            },
            {
              "note": "F#2",
              "pitch": 54,
              "beat": 3.0,
              "dur": 0.5,
              "vel": 127
            },
            {
              "note": "F#2",
              "pitch": 54,
              "beat": 3.5,
              "dur": 0.5,
              "vel": 127
            },
            {
              "note": "C#2",
              "pitch": 49,
              "beat": 4.0,
              "dur": 0.25,
              "vel": 127
            },
            {
              "note": "C#2",
              "pitch": 49,
              "beat": 4.25,
              "dur": 0.5,
              "vel": 127
            },
            {
              "note": "C#2",
              "pitch": 49,
              "beat": 4.75,
              "dur": 0.5,
              "vel": 127
            },
            {
              "note": "C#2",
              "pitch": 49,
              "beat": 5.5,
              "dur": 0.556,
              "vel": 127
            },
            {
              "note": "C#2",
              "pitch": 49,
              "beat": 6.25,
              "dur": 0.584,
              "vel": 127
            },
            {
              "note": "C#2",
              "pitch": 49,
              "beat": 7.0,
              "dur": 0.5,
              "vel": 127
            },
            {
              "note": "C#2",
              "pitch": 49,
              "beat": 7.5,
              "dur": 0.5,
              "vel": 127
            },
            {
              "note": "D#2",
              "pitch": 51,
              "beat": 8.0,
              "dur": 0.25,
              "vel": 127
            },
            {
              "note": "D#2",
              "pitch": 51,
              "beat": 8.25,
              "dur": 0.5,
              "vel": 127
            },
            {
              "note": "D#2",
              "pitch": 51,
              "beat": 8.75,
              "dur": 0.5,
              "vel": 127
            },
            {
              "note": "D#2",
              "pitch": 51,
              "beat": 9.5,
              "dur": 0.556,
              "vel": 127
            },
            {
              "note": "D#2",
              "pitch": 51,
              "beat": 10.25,
              "dur": 0.584,
              "vel": 127
            },
            {
              "note": "D#2",
              "pitch": 51,
              "beat": 11.0,
              "dur": 0.5,
              "vel": 127
            },
            {
              "note": "D#2",
              "pitch": 51,
              "beat": 11.5,
              "dur": 0.5,
              "vel": 127
            },
            {
              "note": "A#1",
              "pitch": 46,
              "beat": 12.0,
              "dur": 0.25,
              "vel": 127
            },
            {
              "note": "A#1",
              "pitch": 46,
              "beat": 12.25,
              "dur": 0.5,
              "vel": 127
            },
            {
              "note": "A#1",
              "pitch": 46,
              "beat": 12.75,
              "dur": 0.614,
              "vel": 127
            },
            {
              "note": "A#1",
              "pitch": 46,
              "beat": 13.5,
              "dur": 0.556,
              "vel": 127
            },
            {
              "note": "A#1",
              "pitch": 46,
              "beat": 14.25,
              "dur": 0.584,
              "vel": 127
            },
            {
              "note": "F2",
              "pitch": 53,
              "beat": 15.0,
              "dur": 0.5,
              "vel": 127
            },
            {
              "note": "F2",
              "pitch": 53,
              "beat": 15.5,
              "dur": 0.5,
              "vel": 127
            },
            {
              "note": "F#2",
              "pitch": 54,
              "beat": 16.0,
              "dur": 0.25,
              "vel": 127
            },
            {
              "note": "F#2",
              "pitch": 54,
              "beat": 16.25,
              "dur": 0.5,
              "vel": 127
            },
            {
              "note": "F#2",
              "pitch": 54,
              "beat": 16.75,
              "dur": 0.5,
              "vel": 127
            },
            {
              "note": "F#2",
              "pitch": 54,
              "beat": 17.5,
              "dur": 0.556,
              "vel": 127
            },
            {
              "note": "F#2",
              "pitch": 54,
              "beat": 18.25,
              "dur": 0.584,
              "vel": 127
            },
            {
              "note": "F#2",
              "pitch": 54,
              "beat": 19.0,
              "dur": 0.5,
              "vel": 127
            },
            {
              "note": "F#2",
              "pitch": 54,
              "beat": 19.5,
              "dur": 0.5,
              "vel": 127
            },
            {
              "note": "C#2",
              "pitch": 49,
              "beat": 20.0,
              "dur": 0.25,
              "vel": 127
            },
            {
              "note": "C#2",
              "pitch": 49,
              "beat": 20.25,
              "dur": 0.5,
              "vel": 127
            },
            {
              "note": "C#2",
              "pitch": 49,
              "beat": 20.75,
              "dur": 0.5,
              "vel": 127
            },
            {
              "note": "C#2",
              "pitch": 49,
              "beat": 21.5,
              "dur": 0.556,
              "vel": 127
            },
            {
              "note": "C#2",
              "pitch": 49,
              "beat": 22.25,
              "dur": 0.584,
              "vel": 127
            },
            {
              "note": "G#2",
              "pitch": 56,
              "beat": 23.0,
              "dur": 0.373,
              "vel": 127
            },
            {
              "note": "G#2",
              "pitch": 56,
              "beat": 23.5,
              "dur": 0.373,
              "vel": 127
            },
            {
              "note": "D#2",
              "pitch": 51,
              "beat": 24.0,
              "dur": 0.25,
              "vel": 127
            },
            {
              "note": "D#2",
              "pitch": 51,
              "beat": 24.25,
              "dur": 0.5,
              "vel": 127
            },
            {
              "note": "D#2",
              "pitch": 51,
              "beat": 24.75,
              "dur": 0.5,
              "vel": 127
            },
            {
              "note": "D#2",
              "pitch": 51,
              "beat": 25.5,
              "dur": 0.556,
              "vel": 127
            },
            {
              "note": "D#2",
              "pitch": 51,
              "beat": 26.25,
              "dur": 0.584,
              "vel": 127
            },
            {
              "note": "D#2",
              "pitch": 51,
              "beat": 27.0,
              "dur": 0.5,
              "vel": 127
            },
            {
              "note": "G#2",
              "pitch": 56,
              "beat": 27.5,
              "dur": 0.5,
              "vel": 127
            },
            {
              "note": "A#2",
              "pitch": 58,
              "beat": 28.0,
              "dur": 0.25,
              "vel": 127
            },
            {
              "note": "A#2",
              "pitch": 58,
              "beat": 28.25,
              "dur": 0.5,
              "vel": 127
            },
            {
              "note": "A#2",
              "pitch": 58,
              "beat": 28.75,
              "dur": 0.614,
              "vel": 127
            },
            {
              "note": "A#2",
              "pitch": 58,
              "beat": 29.5,
              "dur": 0.556,
              "vel": 127
            },
            {
              "note": "A#2",
              "pitch": 58,
              "beat": 30.25,
              "dur": 0.584,
              "vel": 127
            },
            {
              "note": "F2",
              "pitch": 53,
              "beat": 31.0,
              "dur": 0.5,
              "vel": 127
            },
            {
              "note": "F2",
              "pitch": 53,
              "beat": 31.5,
              "dur": 0.5,
              "vel": 127
            }
          ]
        },
        {
          "bar_start": 133.0,
          "bar_end": 133.25,
          "name": "",
          "notes": [
            {
              "note": "F#2",
              "pitch": 54,
              "beat": 0.0,
              "dur": 0.25,
              "vel": 127
            },
            {
              "note": "F#2",
              "pitch": 54,
              "beat": 0.25,
              "dur": 0.5,
              "vel": 127
            },
            {
              "note": "F#2",
              "pitch": 54,
              "beat": 0.75,
              "dur": 0.5,
              "vel": 127
            },
            {
              "note": "F#2",
              "pitch": 54,
              "beat": 1.5,
              "dur": 0.556,
              "vel": 127
            },
            {
              "note": "F#2",
              "pitch": 54,
              "beat": 2.25,
              "dur": 0.584,
              "vel": 127
            },
            {
              "note": "F#2",
              "pitch": 54,
              "beat": 3.0,
              "dur": 0.5,
              "vel": 127
            },
            {
              "note": "F#2",
              "pitch": 54,
              "beat": 3.5,
              "dur": 0.5,
              "vel": 127
            },
            {
              "note": "C#2",
              "pitch": 49,
              "beat": 4.0,
              "dur": 0.25,
              "vel": 127
            },
            {
              "note": "C#2",
              "pitch": 49,
              "beat": 4.25,
              "dur": 0.5,
              "vel": 127
            },
            {
              "note": "C#2",
              "pitch": 49,
              "beat": 4.75,
              "dur": 0.5,
              "vel": 127
            },
            {
              "note": "C#2",
              "pitch": 49,
              "beat": 5.5,
              "dur": 0.556,
              "vel": 127
            },
            {
              "note": "C#2",
              "pitch": 49,
              "beat": 6.25,
              "dur": 0.584,
              "vel": 127
            },
            {
              "note": "C#2",
              "pitch": 49,
              "beat": 7.0,
              "dur": 0.5,
              "vel": 127
            },
            {
              "note": "C#2",
              "pitch": 49,
              "beat": 7.5,
              "dur": 0.5,
              "vel": 127
            },
            {
              "note": "D#2",
              "pitch": 51,
              "beat": 8.0,
              "dur": 0.25,
              "vel": 127
            },
            {
              "note": "D#2",
              "pitch": 51,
              "beat": 8.25,
              "dur": 0.5,
              "vel": 127
            },
            {
              "note": "D#2",
              "pitch": 51,
              "beat": 8.75,
              "dur": 0.5,
              "vel": 127
            },
            {
              "note": "D#2",
              "pitch": 51,
              "beat": 9.5,
              "dur": 0.556,
              "vel": 127
            },
            {
              "note": "D#2",
              "pitch": 51,
              "beat": 10.25,
              "dur": 0.584,
              "vel": 127
            },
            {
              "note": "D#2",
              "pitch": 51,
              "beat": 11.0,
              "dur": 0.5,
              "vel": 127
            },
            {
              "note": "D#2",
              "pitch": 51,
              "beat": 11.5,
              "dur": 0.5,
              "vel": 127
            },
            {
              "note": "A#1",
              "pitch": 46,
              "beat": 12.0,
              "dur": 0.25,
              "vel": 127
            },
            {
              "note": "A#1",
              "pitch": 46,
              "beat": 12.25,
              "dur": 0.5,
              "vel": 127
            },
            {
              "note": "A#1",
              "pitch": 46,
              "beat": 12.75,
              "dur": 0.614,
              "vel": 127
            },
            {
              "note": "A#1",
              "pitch": 46,
              "beat": 13.5,
              "dur": 0.556,
              "vel": 127
            },
            {
              "note": "A#1",
              "pitch": 46,
              "beat": 14.25,
              "dur": 0.584,
              "vel": 127
            },
            {
              "note": "F2",
              "pitch": 53,
              "beat": 15.0,
              "dur": 0.5,
              "vel": 127
            },
            {
              "note": "F2",
              "pitch": 53,
              "beat": 15.5,
              "dur": 0.5,
              "vel": 127
            },
            {
              "note": "F#2",
              "pitch": 54,
              "beat": 16.0,
              "dur": 0.25,
              "vel": 127
            },
            {
              "note": "F#2",
              "pitch": 54,
              "beat": 16.25,
              "dur": 0.5,
              "vel": 127
            },
            {
              "note": "F#2",
              "pitch": 54,
              "beat": 16.75,
              "dur": 0.5,
              "vel": 127
            },
            {
              "note": "F#2",
              "pitch": 54,
              "beat": 17.5,
              "dur": 0.556,
              "vel": 127
            },
            {
              "note": "F#2",
              "pitch": 54,
              "beat": 18.25,
              "dur": 0.584,
              "vel": 127
            },
            {
              "note": "F#2",
              "pitch": 54,
              "beat": 19.0,
              "dur": 0.5,
              "vel": 127
            },
            {
              "note": "F#2",
              "pitch": 54,
              "beat": 19.5,
              "dur": 0.5,
              "vel": 127
            },
            {
              "note": "C#2",
              "pitch": 49,
              "beat": 20.0,
              "dur": 0.25,
              "vel": 127
            },
            {
              "note": "C#2",
              "pitch": 49,
              "beat": 20.25,
              "dur": 0.5,
              "vel": 127
            },
            {
              "note": "C#2",
              "pitch": 49,
              "beat": 20.75,
              "dur": 0.5,
              "vel": 127
            },
            {
              "note": "C#2",
              "pitch": 49,
              "beat": 21.5,
              "dur": 0.556,
              "vel": 127
            },
            {
              "note": "C#2",
              "pitch": 49,
              "beat": 22.25,
              "dur": 0.584,
              "vel": 127
            },
            {
              "note": "G#2",
              "pitch": 56,
              "beat": 23.0,
              "dur": 0.373,
              "vel": 127
            },
            {
              "note": "G#2",
              "pitch": 56,
              "beat": 23.5,
              "dur": 0.373,
              "vel": 127
            },
            {
              "note": "D#2",
              "pitch": 51,
              "beat": 24.0,
              "dur": 0.25,
              "vel": 127
            },
            {
              "note": "D#2",
              "pitch": 51,
              "beat": 24.25,
              "dur": 0.5,
              "vel": 127
            },
            {
              "note": "D#2",
              "pitch": 51,
              "beat": 24.75,
              "dur": 0.5,
              "vel": 127
            },
            {
              "note": "D#2",
              "pitch": 51,
              "beat": 25.5,
              "dur": 0.556,
              "vel": 127
            },
            {
              "note": "D#2",
              "pitch": 51,
              "beat": 26.25,
              "dur": 0.584,
              "vel": 127
            },
            {
              "note": "D#2",
              "pitch": 51,
              "beat": 27.0,
              "dur": 0.5,
              "vel": 127
            },
            {
              "note": "G#2",
              "pitch": 56,
              "beat": 27.5,
              "dur": 0.5,
              "vel": 127
            },
            {
              "note": "A#2",
              "pitch": 58,
              "beat": 28.0,
              "dur": 0.25,
              "vel": 127
            },
            {
              "note": "A#2",
              "pitch": 58,
              "beat": 28.25,
              "dur": 0.5,
              "vel": 127
            },
            {
              "note": "A#2",
              "pitch": 58,
              "beat": 28.75,
              "dur": 0.614,
              "vel": 127
            },
            {
              "note": "A#2",
              "pitch": 58,
              "beat": 29.5,
              "dur": 0.556,
              "vel": 127
            },
            {
              "note": "A#2",
              "pitch": 58,
              "beat": 30.25,
              "dur": 0.584,
              "vel": 127
            },
            {
              "note": "F2",
              "pitch": 53,
              "beat": 31.0,
              "dur": 0.5,
              "vel": 127
            },
            {
              "note": "F2",
              "pitch": 53,
              "beat": 31.5,
              "dur": 0.5,
              "vel": 127
            }
          ]
        },
        {
          "bar_start": 136.0,
          "bar_end": 159.0,
          "name": "",
          "notes": [
            {
              "note": "F#2",
              "pitch": 54,
              "beat": 0.0,
              "dur": 0.25,
              "vel": 127
            },
            {
              "note": "F#2",
              "pitch": 54,
              "beat": 0.25,
              "dur": 0.5,
              "vel": 127
            },
            {
              "note": "F#2",
              "pitch": 54,
              "beat": 0.75,
              "dur": 0.5,
              "vel": 127
            },
            {
              "note": "F#2",
              "pitch": 54,
              "beat": 1.5,
              "dur": 0.556,
              "vel": 127
            },
            {
              "note": "F#2",
              "pitch": 54,
              "beat": 2.25,
              "dur": 0.584,
              "vel": 127
            },
            {
              "note": "F#2",
              "pitch": 54,
              "beat": 3.0,
              "dur": 0.5,
              "vel": 127
            },
            {
              "note": "F#2",
              "pitch": 54,
              "beat": 3.5,
              "dur": 0.5,
              "vel": 127
            },
            {
              "note": "C#2",
              "pitch": 49,
              "beat": 4.0,
              "dur": 0.25,
              "vel": 127
            },
            {
              "note": "C#2",
              "pitch": 49,
              "beat": 4.25,
              "dur": 0.5,
              "vel": 127
            },
            {
              "note": "C#2",
              "pitch": 49,
              "beat": 4.75,
              "dur": 0.5,
              "vel": 127
            },
            {
              "note": "C#2",
              "pitch": 49,
              "beat": 5.5,
              "dur": 0.556,
              "vel": 127
            },
            {
              "note": "C#2",
              "pitch": 49,
              "beat": 6.25,
              "dur": 0.584,
              "vel": 127
            },
            {
              "note": "C#2",
              "pitch": 49,
              "beat": 7.0,
              "dur": 0.5,
              "vel": 127
            },
            {
              "note": "C#2",
              "pitch": 49,
              "beat": 7.5,
              "dur": 0.5,
              "vel": 127
            },
            {
              "note": "D#2",
              "pitch": 51,
              "beat": 8.0,
              "dur": 0.25,
              "vel": 127
            },
            {
              "note": "D#2",
              "pitch": 51,
              "beat": 8.25,
              "dur": 0.5,
              "vel": 127
            },
            {
              "note": "D#2",
              "pitch": 51,
              "beat": 8.75,
              "dur": 0.5,
              "vel": 127
            },
            {
              "note": "D#2",
              "pitch": 51,
              "beat": 9.5,
              "dur": 0.556,
              "vel": 127
            },
            {
              "note": "D#2",
              "pitch": 51,
              "beat": 10.25,
              "dur": 0.584,
              "vel": 127
            },
            {
              "note": "D#2",
              "pitch": 51,
              "beat": 11.0,
              "dur": 0.5,
              "vel": 127
            },
            {
              "note": "D#2",
              "pitch": 51,
              "beat": 11.5,
              "dur": 0.5,
              "vel": 127
            },
            {
              "note": "A#1",
              "pitch": 46,
              "beat": 12.0,
              "dur": 0.25,
              "vel": 127
            },
            {
              "note": "A#1",
              "pitch": 46,
              "beat": 12.25,
              "dur": 0.5,
              "vel": 127
            },
            {
              "note": "A#1",
              "pitch": 46,
              "beat": 12.75,
              "dur": 0.614,
              "vel": 127
            },
            {
              "note": "A#1",
              "pitch": 46,
              "beat": 13.5,
              "dur": 0.556,
              "vel": 127
            },
            {
              "note": "A#1",
              "pitch": 46,
              "beat": 14.25,
              "dur": 0.584,
              "vel": 127
            },
            {
              "note": "F2",
              "pitch": 53,
              "beat": 15.0,
              "dur": 0.5,
              "vel": 127
            },
            {
              "note": "F2",
              "pitch": 53,
              "beat": 15.5,
              "dur": 0.5,
              "vel": 127
            },
            {
              "note": "F#2",
              "pitch": 54,
              "beat": 16.0,
              "dur": 0.25,
              "vel": 127
            },
            {
              "note": "F#2",
              "pitch": 54,
              "beat": 16.25,
              "dur": 0.5,
              "vel": 127
            },
            {
              "note": "F#2",
              "pitch": 54,
              "beat": 16.75,
              "dur": 0.5,
              "vel": 127
            },
            {
              "note": "F#2",
              "pitch": 54,
              "beat": 17.5,
              "dur": 0.556,
              "vel": 127
            },
            {
              "note": "F#2",
              "pitch": 54,
              "beat": 18.25,
              "dur": 0.584,
              "vel": 127
            },
            {
              "note": "F#2",
              "pitch": 54,
              "beat": 19.0,
              "dur": 0.5,
              "vel": 127
            },
            {
              "note": "F#2",
              "pitch": 54,
              "beat": 19.5,
              "dur": 0.5,
              "vel": 127
            },
            {
              "note": "C#2",
              "pitch": 49,
              "beat": 20.0,
              "dur": 0.25,
              "vel": 127
            },
            {
              "note": "C#2",
              "pitch": 49,
              "beat": 20.25,
              "dur": 0.5,
              "vel": 127
            },
            {
              "note": "C#2",
              "pitch": 49,
              "beat": 20.75,
              "dur": 0.5,
              "vel": 127
            },
            {
              "note": "C#2",
              "pitch": 49,
              "beat": 21.5,
              "dur": 0.556,
              "vel": 127
            },
            {
              "note": "C#2",
              "pitch": 49,
              "beat": 22.25,
              "dur": 0.584,
              "vel": 127
            },
            {
              "note": "G#2",
              "pitch": 56,
              "beat": 23.0,
              "dur": 0.373,
              "vel": 127
            },
            {
              "note": "G#2",
              "pitch": 56,
              "beat": 23.5,
              "dur": 0.373,
              "vel": 127
            },
            {
              "note": "D#2",
              "pitch": 51,
              "beat": 24.0,
              "dur": 0.25,
              "vel": 127
            },
            {
              "note": "D#2",
              "pitch": 51,
              "beat": 24.25,
              "dur": 0.5,
              "vel": 127
            },
            {
              "note": "D#2",
              "pitch": 51,
              "beat": 24.75,
              "dur": 0.5,
              "vel": 127
            },
            {
              "note": "D#2",
              "pitch": 51,
              "beat": 25.5,
              "dur": 0.556,
              "vel": 127
            },
            {
              "note": "D#2",
              "pitch": 51,
              "beat": 26.25,
              "dur": 0.584,
              "vel": 127
            },
            {
              "note": "D#2",
              "pitch": 51,
              "beat": 27.0,
              "dur": 0.5,
              "vel": 127
            },
            {
              "note": "G#2",
              "pitch": 56,
              "beat": 27.5,
              "dur": 0.5,
              "vel": 127
            },
            {
              "note": "A#2",
              "pitch": 58,
              "beat": 28.0,
              "dur": 0.25,
              "vel": 127
            },
            {
              "note": "A#2",
              "pitch": 58,
              "beat": 28.25,
              "dur": 0.5,
              "vel": 127
            },
            {
              "note": "A#2",
              "pitch": 58,
              "beat": 28.75,
              "dur": 0.614,
              "vel": 127
            },
            {
              "note": "A#2",
              "pitch": 58,
              "beat": 29.5,
              "dur": 0.556,
              "vel": 127
            },
            {
              "note": "A#2",
              "pitch": 58,
              "beat": 30.25,
              "dur": 0.584,
              "vel": 127
            },
            {
              "note": "F2",
              "pitch": 53,
              "beat": 31.0,
              "dur": 0.5,
              "vel": 127
            },
            {
              "note": "F2",
              "pitch": 53,
              "beat": 31.5,
              "dur": 0.5,
              "vel": 127
            }
          ]
        }
      ],
      "automations": [],
      "children": []
    },
    "108": {
      "id": "108",
      "name": "giutar bass",
      "type": "MidiTrack",
      "group_id": "95",
      "devices": [
        {
          "type": "InstrumentGroupDevice",
          "On": "true",
          "SampleStart": "0",
          "SampleLength": "1",
          "LoopOn": "false",
          "LoopLength": "1",
          "LoopFade": "0",
          "Reverse": "false",
          "Snap": "false",
          "SampleSelector": "0",
          "IsOn": "false",
          "TransposeKey": "0",
          "TransposeFine": "0",
          "PitchLfoAmount": "0.04999999702",
          "Type": "0",
          "Amount": "0",
          "Structure": "false",
          "Volume": "-9",
          "VolumeVelScale": "0.349999994",
          "VolumeKeyScale": "0",
          "VolumeLfoAmount": "0"
        }
      ],
      "clips": [
        {
          "bar_start": 16.0,
          "bar_end": 31.0,
          "name": "",
          "notes": [
            {
              "note": "F#1",
              "pitch": 42,
              "beat": 0.0,
              "dur": 0.25,
              "vel": 127
            },
            {
              "note": "F#1",
              "pitch": 42,
              "beat": 0.25,
              "dur": 0.5,
              "vel": 127
            },
            {
              "note": "F#1",
              "pitch": 42,
              "beat": 0.75,
              "dur": 0.5,
              "vel": 127
            },
            {
              "note": "F#1",
              "pitch": 42,
              "beat": 1.5,
              "dur": 0.556,
              "vel": 127
            },
            {
              "note": "F#1",
              "pitch": 42,
              "beat": 2.25,
              "dur": 0.584,
              "vel": 127
            },
            {
              "note": "F#1",
              "pitch": 42,
              "beat": 3.0,
              "dur": 0.5,
              "vel": 127
            },
            {
              "note": "F#1",
              "pitch": 42,
              "beat": 3.5,
              "dur": 0.5,
              "vel": 127
            },
            {
              "note": "C#1",
              "pitch": 37,
              "beat": 4.0,
              "dur": 0.25,
              "vel": 127
            },
            {
              "note": "C#1",
              "pitch": 37,
              "beat": 4.25,
              "dur": 0.5,
              "vel": 127
            },
            {
              "note": "C#1",
              "pitch": 37,
              "beat": 4.75,
              "dur": 0.5,
              "vel": 127
            },
            {
              "note": "C#1",
              "pitch": 37,
              "beat": 5.5,
              "dur": 0.556,
              "vel": 127
            },
            {
              "note": "C#1",
              "pitch": 37,
              "beat": 6.25,
              "dur": 0.584,
              "vel": 127
            },
            {
              "note": "C#1",
              "pitch": 37,
              "beat": 7.0,
              "dur": 0.5,
              "vel": 127
            },
            {
              "note": "C#1",
              "pitch": 37,
              "beat": 7.5,
              "dur": 0.5,
              "vel": 127
            },
            {
              "note": "D#1",
              "pitch": 39,
              "beat": 8.0,
              "dur": 0.25,
              "vel": 127
            },
            {
              "note": "D#1",
              "pitch": 39,
              "beat": 8.25,
              "dur": 0.5,
              "vel": 127
            },
            {
              "note": "D#1",
              "pitch": 39,
              "beat": 8.75,
              "dur": 0.5,
              "vel": 127
            },
            {
              "note": "D#1",
              "pitch": 39,
              "beat": 9.5,
              "dur": 0.556,
              "vel": 127
            },
            {
              "note": "D#1",
              "pitch": 39,
              "beat": 10.25,
              "dur": 0.584,
              "vel": 127
            },
            {
              "note": "D#1",
              "pitch": 39,
              "beat": 11.0,
              "dur": 0.5,
              "vel": 127
            },
            {
              "note": "D#1",
              "pitch": 39,
              "beat": 11.5,
              "dur": 0.5,
              "vel": 127
            },
            {
              "note": "A#0",
              "pitch": 34,
              "beat": 12.0,
              "dur": 0.25,
              "vel": 127
            },
            {
              "note": "A#0",
              "pitch": 34,
              "beat": 12.25,
              "dur": 0.5,
              "vel": 127
            },
            {
              "note": "A#0",
              "pitch": 34,
              "beat": 12.75,
              "dur": 0.614,
              "vel": 127
            },
            {
              "note": "A#0",
              "pitch": 34,
              "beat": 13.5,
              "dur": 0.556,
              "vel": 127
            },
            {
              "note": "A#0",
              "pitch": 34,
              "beat": 14.25,
              "dur": 0.584,
              "vel": 127
            },
            {
              "note": "F1",
              "pitch": 41,
              "beat": 15.0,
              "dur": 0.5,
              "vel": 127
            },
            {
              "note": "F1",
              "pitch": 41,
              "beat": 15.5,
              "dur": 0.5,
              "vel": 127
            },
            {
              "note": "F#1",
              "pitch": 42,
              "beat": 16.0,
              "dur": 0.25,
              "vel": 127
            },
            {
              "note": "F#1",
              "pitch": 42,
              "beat": 16.25,
              "dur": 0.5,
              "vel": 127
            },
            {
              "note": "F#1",
              "pitch": 42,
              "beat": 16.75,
              "dur": 0.5,
              "vel": 127
            },
            {
              "note": "F#1",
              "pitch": 42,
              "beat": 17.5,
              "dur": 0.556,
              "vel": 127
            },
            {
              "note": "F#1",
              "pitch": 42,
              "beat": 18.25,
              "dur": 0.584,
              "vel": 127
            },
            {
              "note": "F#1",
              "pitch": 42,
              "beat": 19.0,
              "dur": 0.5,
              "vel": 127
            },
            {
              "note": "F#1",
              "pitch": 42,
              "beat": 19.5,
              "dur": 0.5,
              "vel": 127
            },
            {
              "note": "C#1",
              "pitch": 37,
              "beat": 20.0,
              "dur": 0.25,
              "vel": 127
            },
            {
              "note": "C#1",
              "pitch": 37,
              "beat": 20.25,
              "dur": 0.5,
              "vel": 127
            },
            {
              "note": "C#1",
              "pitch": 37,
              "beat": 20.75,
              "dur": 0.5,
              "vel": 127
            },
            {
              "note": "C#1",
              "pitch": 37,
              "beat": 21.5,
              "dur": 0.556,
              "vel": 127
            },
            {
              "note": "C#1",
              "pitch": 37,
              "beat": 22.25,
              "dur": 0.584,
              "vel": 127
            },
            {
              "note": "G#1",
              "pitch": 44,
              "beat": 23.0,
              "dur": 0.373,
              "vel": 127
            },
            {
              "note": "G#1",
              "pitch": 44,
              "beat": 23.5,
              "dur": 0.373,
              "vel": 127
            },
            {
              "note": "D#1",
              "pitch": 39,
              "beat": 24.0,
              "dur": 0.25,
              "vel": 127
            },
            {
              "note": "D#1",
              "pitch": 39,
              "beat": 24.25,
              "dur": 0.5,
              "vel": 127
            },
            {
              "note": "D#1",
              "pitch": 39,
              "beat": 24.75,
              "dur": 0.5,
              "vel": 127
            },
            {
              "note": "D#1",
              "pitch": 39,
              "beat": 25.5,
              "dur": 0.556,
              "vel": 127
            },
            {
              "note": "D#1",
              "pitch": 39,
              "beat": 26.25,
              "dur": 0.584,
              "vel": 127
            },
            {
              "note": "D#1",
              "pitch": 39,
              "beat": 27.0,
              "dur": 0.5,
              "vel": 127
            },
            {
              "note": "G#1",
              "pitch": 44,
              "beat": 27.5,
              "dur": 0.5,
              "vel": 127
            },
            {
              "note": "A#1",
              "pitch": 46,
              "beat": 28.0,
              "dur": 0.25,
              "vel": 127
            },
            {
              "note": "A#1",
              "pitch": 46,
              "beat": 28.25,
              "dur": 0.5,
              "vel": 127
            },
            {
              "note": "A#1",
              "pitch": 46,
              "beat": 28.75,
              "dur": 0.614,
              "vel": 127
            },
            {
              "note": "A#1",
              "pitch": 46,
              "beat": 29.5,
              "dur": 0.556,
              "vel": 127
            },
            {
              "note": "A#1",
              "pitch": 46,
              "beat": 30.25,
              "dur": 0.584,
              "vel": 127
            },
            {
              "note": "F1",
              "pitch": 41,
              "beat": 31.0,
              "dur": 0.5,
              "vel": 127
            },
            {
              "note": "F1",
              "pitch": 41,
              "beat": 31.5,
              "dur": 0.5,
              "vel": 127
            }
          ]
        },
        {
          "bar_start": 32.0,
          "bar_end": 48.0,
          "name": "",
          "notes": [
            {
              "note": "F#1",
              "pitch": 42,
              "beat": 0.0,
              "dur": 0.25,
              "vel": 127
            },
            {
              "note": "F#1",
              "pitch": 42,
              "beat": 0.25,
              "dur": 0.5,
              "vel": 127
            },
            {
              "note": "F#1",
              "pitch": 42,
              "beat": 0.75,
              "dur": 0.5,
              "vel": 127
            },
            {
              "note": "F#1",
              "pitch": 42,
              "beat": 1.5,
              "dur": 0.556,
              "vel": 127
            },
            {
              "note": "F#1",
              "pitch": 42,
              "beat": 2.25,
              "dur": 0.584,
              "vel": 127
            },
            {
              "note": "F#1",
              "pitch": 42,
              "beat": 3.0,
              "dur": 0.5,
              "vel": 127
            },
            {
              "note": "F#1",
              "pitch": 42,
              "beat": 3.5,
              "dur": 0.5,
              "vel": 127
            },
            {
              "note": "C#1",
              "pitch": 37,
              "beat": 4.0,
              "dur": 0.25,
              "vel": 127
            },
            {
              "note": "C#1",
              "pitch": 37,
              "beat": 4.25,
              "dur": 0.5,
              "vel": 127
            },
            {
              "note": "C#1",
              "pitch": 37,
              "beat": 4.75,
              "dur": 0.5,
              "vel": 127
            },
            {
              "note": "C#1",
              "pitch": 37,
              "beat": 5.5,
              "dur": 0.556,
              "vel": 127
            },
            {
              "note": "C#1",
              "pitch": 37,
              "beat": 6.25,
              "dur": 0.584,
              "vel": 127
            },
            {
              "note": "C#1",
              "pitch": 37,
              "beat": 7.0,
              "dur": 0.5,
              "vel": 127
            },
            {
              "note": "C#1",
              "pitch": 37,
              "beat": 7.5,
              "dur": 0.5,
              "vel": 127
            },
            {
              "note": "D#1",
              "pitch": 39,
              "beat": 8.0,
              "dur": 0.25,
              "vel": 127
            },
            {
              "note": "D#1",
              "pitch": 39,
              "beat": 8.25,
              "dur": 0.5,
              "vel": 127
            },
            {
              "note": "D#1",
              "pitch": 39,
              "beat": 8.75,
              "dur": 0.5,
              "vel": 127
            },
            {
              "note": "D#1",
              "pitch": 39,
              "beat": 9.5,
              "dur": 0.556,
              "vel": 127
            },
            {
              "note": "D#1",
              "pitch": 39,
              "beat": 10.25,
              "dur": 0.584,
              "vel": 127
            },
            {
              "note": "D#1",
              "pitch": 39,
              "beat": 11.0,
              "dur": 0.5,
              "vel": 127
            },
            {
              "note": "D#1",
              "pitch": 39,
              "beat": 11.5,
              "dur": 0.5,
              "vel": 127
            },
            {
              "note": "A#0",
              "pitch": 34,
              "beat": 12.0,
              "dur": 0.25,
              "vel": 127
            },
            {
              "note": "A#0",
              "pitch": 34,
              "beat": 12.25,
              "dur": 0.5,
              "vel": 127
            },
            {
              "note": "A#0",
              "pitch": 34,
              "beat": 12.75,
              "dur": 0.614,
              "vel": 127
            },
            {
              "note": "A#0",
              "pitch": 34,
              "beat": 13.5,
              "dur": 0.556,
              "vel": 127
            },
            {
              "note": "A#0",
              "pitch": 34,
              "beat": 14.25,
              "dur": 0.584,
              "vel": 127
            },
            {
              "note": "F1",
              "pitch": 41,
              "beat": 15.0,
              "dur": 0.5,
              "vel": 127
            },
            {
              "note": "F1",
              "pitch": 41,
              "beat": 15.5,
              "dur": 0.5,
              "vel": 127
            },
            {
              "note": "F#1",
              "pitch": 42,
              "beat": 16.0,
              "dur": 0.25,
              "vel": 127
            },
            {
              "note": "F#1",
              "pitch": 42,
              "beat": 16.25,
              "dur": 0.5,
              "vel": 127
            },
            {
              "note": "F#1",
              "pitch": 42,
              "beat": 16.75,
              "dur": 0.5,
              "vel": 127
            },
            {
              "note": "F#1",
              "pitch": 42,
              "beat": 17.5,
              "dur": 0.556,
              "vel": 127
            },
            {
              "note": "F#1",
              "pitch": 42,
              "beat": 18.25,
              "dur": 0.584,
              "vel": 127
            },
            {
              "note": "F#1",
              "pitch": 42,
              "beat": 19.0,
              "dur": 0.5,
              "vel": 127
            },
            {
              "note": "F#1",
              "pitch": 42,
              "beat": 19.5,
              "dur": 0.5,
              "vel": 127
            },
            {
              "note": "C#1",
              "pitch": 37,
              "beat": 20.0,
              "dur": 0.25,
              "vel": 127
            },
            {
              "note": "C#1",
              "pitch": 37,
              "beat": 20.25,
              "dur": 0.5,
              "vel": 127
            },
            {
              "note": "C#1",
              "pitch": 37,
              "beat": 20.75,
              "dur": 0.5,
              "vel": 127
            },
            {
              "note": "C#1",
              "pitch": 37,
              "beat": 21.5,
              "dur": 0.556,
              "vel": 127
            },
            {
              "note": "C#1",
              "pitch": 37,
              "beat": 22.25,
              "dur": 0.584,
              "vel": 127
            },
            {
              "note": "G#1",
              "pitch": 44,
              "beat": 23.0,
              "dur": 0.373,
              "vel": 127
            },
            {
              "note": "G#1",
              "pitch": 44,
              "beat": 23.5,
              "dur": 0.373,
              "vel": 127
            },
            {
              "note": "D#1",
              "pitch": 39,
              "beat": 24.0,
              "dur": 0.25,
              "vel": 127
            },
            {
              "note": "D#1",
              "pitch": 39,
              "beat": 24.25,
              "dur": 0.5,
              "vel": 127
            },
            {
              "note": "D#1",
              "pitch": 39,
              "beat": 24.75,
              "dur": 0.5,
              "vel": 127
            },
            {
              "note": "D#1",
              "pitch": 39,
              "beat": 25.5,
              "dur": 0.556,
              "vel": 127
            },
            {
              "note": "D#1",
              "pitch": 39,
              "beat": 26.25,
              "dur": 0.584,
              "vel": 127
            },
            {
              "note": "D#1",
              "pitch": 39,
              "beat": 27.0,
              "dur": 0.5,
              "vel": 127
            },
            {
              "note": "G#1",
              "pitch": 44,
              "beat": 27.5,
              "dur": 0.5,
              "vel": 127
            },
            {
              "note": "A#1",
              "pitch": 46,
              "beat": 28.0,
              "dur": 0.25,
              "vel": 127
            },
            {
              "note": "A#1",
              "pitch": 46,
              "beat": 28.25,
              "dur": 0.5,
              "vel": 127
            },
            {
              "note": "A#1",
              "pitch": 46,
              "beat": 28.75,
              "dur": 0.614,
              "vel": 127
            },
            {
              "note": "A#1",
              "pitch": 46,
              "beat": 29.5,
              "dur": 0.556,
              "vel": 127
            },
            {
              "note": "A#1",
              "pitch": 46,
              "beat": 30.25,
              "dur": 0.584,
              "vel": 127
            },
            {
              "note": "F1",
              "pitch": 41,
              "beat": 31.0,
              "dur": 0.5,
              "vel": 127
            },
            {
              "note": "F1",
              "pitch": 41,
              "beat": 31.5,
              "dur": 0.5,
              "vel": 127
            }
          ]
        },
        {
          "bar_start": 80.0,
          "bar_end": 95.0,
          "name": "",
          "notes": [
            {
              "note": "F#1",
              "pitch": 42,
              "beat": 0.0,
              "dur": 0.25,
              "vel": 127
            },
            {
              "note": "F#1",
              "pitch": 42,
              "beat": 0.25,
              "dur": 0.5,
              "vel": 127
            },
            {
              "note": "F#1",
              "pitch": 42,
              "beat": 0.75,
              "dur": 0.5,
              "vel": 127
            },
            {
              "note": "F#1",
              "pitch": 42,
              "beat": 1.5,
              "dur": 0.556,
              "vel": 127
            },
            {
              "note": "F#1",
              "pitch": 42,
              "beat": 2.25,
              "dur": 0.584,
              "vel": 127
            },
            {
              "note": "F#1",
              "pitch": 42,
              "beat": 3.0,
              "dur": 0.5,
              "vel": 127
            },
            {
              "note": "F#1",
              "pitch": 42,
              "beat": 3.5,
              "dur": 0.5,
              "vel": 127
            },
            {
              "note": "C#1",
              "pitch": 37,
              "beat": 4.0,
              "dur": 0.25,
              "vel": 127
            },
            {
              "note": "C#1",
              "pitch": 37,
              "beat": 4.25,
              "dur": 0.5,
              "vel": 127
            },
            {
              "note": "C#1",
              "pitch": 37,
              "beat": 4.75,
              "dur": 0.5,
              "vel": 127
            },
            {
              "note": "C#1",
              "pitch": 37,
              "beat": 5.5,
              "dur": 0.556,
              "vel": 127
            },
            {
              "note": "C#1",
              "pitch": 37,
              "beat": 6.25,
              "dur": 0.584,
              "vel": 127
            },
            {
              "note": "C#1",
              "pitch": 37,
              "beat": 7.0,
              "dur": 0.5,
              "vel": 127
            },
            {
              "note": "C#1",
              "pitch": 37,
              "beat": 7.5,
              "dur": 0.5,
              "vel": 127
            },
            {
              "note": "D#1",
              "pitch": 39,
              "beat": 8.0,
              "dur": 0.25,
              "vel": 127
            },
            {
              "note": "D#1",
              "pitch": 39,
              "beat": 8.25,
              "dur": 0.5,
              "vel": 127
            },
            {
              "note": "D#1",
              "pitch": 39,
              "beat": 8.75,
              "dur": 0.5,
              "vel": 127
            },
            {
              "note": "D#1",
              "pitch": 39,
              "beat": 9.5,
              "dur": 0.556,
              "vel": 127
            },
            {
              "note": "D#1",
              "pitch": 39,
              "beat": 10.25,
              "dur": 0.584,
              "vel": 127
            },
            {
              "note": "D#1",
              "pitch": 39,
              "beat": 11.0,
              "dur": 0.5,
              "vel": 127
            },
            {
              "note": "D#1",
              "pitch": 39,
              "beat": 11.5,
              "dur": 0.5,
              "vel": 127
            },
            {
              "note": "A#0",
              "pitch": 34,
              "beat": 12.0,
              "dur": 0.25,
              "vel": 127
            },
            {
              "note": "A#0",
              "pitch": 34,
              "beat": 12.25,
              "dur": 0.5,
              "vel": 127
            },
            {
              "note": "A#0",
              "pitch": 34,
              "beat": 12.75,
              "dur": 0.614,
              "vel": 127
            },
            {
              "note": "A#0",
              "pitch": 34,
              "beat": 13.5,
              "dur": 0.556,
              "vel": 127
            },
            {
              "note": "A#0",
              "pitch": 34,
              "beat": 14.25,
              "dur": 0.584,
              "vel": 127
            },
            {
              "note": "F1",
              "pitch": 41,
              "beat": 15.0,
              "dur": 0.5,
              "vel": 127
            },
            {
              "note": "F1",
              "pitch": 41,
              "beat": 15.5,
              "dur": 0.5,
              "vel": 127
            },
            {
              "note": "F#1",
              "pitch": 42,
              "beat": 16.0,
              "dur": 0.25,
              "vel": 127
            },
            {
              "note": "F#1",
              "pitch": 42,
              "beat": 16.25,
              "dur": 0.5,
              "vel": 127
            },
            {
              "note": "F#1",
              "pitch": 42,
              "beat": 16.75,
              "dur": 0.5,
              "vel": 127
            },
            {
              "note": "F#1",
              "pitch": 42,
              "beat": 17.5,
              "dur": 0.556,
              "vel": 127
            },
            {
              "note": "F#1",
              "pitch": 42,
              "beat": 18.25,
              "dur": 0.584,
              "vel": 127
            },
            {
              "note": "F#1",
              "pitch": 42,
              "beat": 19.0,
              "dur": 0.5,
              "vel": 127
            },
            {
              "note": "F#1",
              "pitch": 42,
              "beat": 19.5,
              "dur": 0.5,
              "vel": 127
            },
            {
              "note": "C#1",
              "pitch": 37,
              "beat": 20.0,
              "dur": 0.25,
              "vel": 127
            },
            {
              "note": "C#1",
              "pitch": 37,
              "beat": 20.25,
              "dur": 0.5,
              "vel": 127
            },
            {
              "note": "C#1",
              "pitch": 37,
              "beat": 20.75,
              "dur": 0.5,
              "vel": 127
            },
            {
              "note": "C#1",
              "pitch": 37,
              "beat": 21.5,
              "dur": 0.556,
              "vel": 127
            },
            {
              "note": "C#1",
              "pitch": 37,
              "beat": 22.25,
              "dur": 0.584,
              "vel": 127
            },
            {
              "note": "G#1",
              "pitch": 44,
              "beat": 23.0,
              "dur": 0.373,
              "vel": 127
            },
            {
              "note": "G#1",
              "pitch": 44,
              "beat": 23.5,
              "dur": 0.373,
              "vel": 127
            },
            {
              "note": "D#1",
              "pitch": 39,
              "beat": 24.0,
              "dur": 0.25,
              "vel": 127
            },
            {
              "note": "D#1",
              "pitch": 39,
              "beat": 24.25,
              "dur": 0.5,
              "vel": 127
            },
            {
              "note": "D#1",
              "pitch": 39,
              "beat": 24.75,
              "dur": 0.5,
              "vel": 127
            },
            {
              "note": "D#1",
              "pitch": 39,
              "beat": 25.5,
              "dur": 0.556,
              "vel": 127
            },
            {
              "note": "D#1",
              "pitch": 39,
              "beat": 26.25,
              "dur": 0.584,
              "vel": 127
            },
            {
              "note": "D#1",
              "pitch": 39,
              "beat": 27.0,
              "dur": 0.5,
              "vel": 127
            },
            {
              "note": "G#1",
              "pitch": 44,
              "beat": 27.5,
              "dur": 0.5,
              "vel": 127
            },
            {
              "note": "A#1",
              "pitch": 46,
              "beat": 28.0,
              "dur": 0.25,
              "vel": 127
            },
            {
              "note": "A#1",
              "pitch": 46,
              "beat": 28.25,
              "dur": 0.5,
              "vel": 127
            },
            {
              "note": "A#1",
              "pitch": 46,
              "beat": 28.75,
              "dur": 0.614,
              "vel": 127
            },
            {
              "note": "A#1",
              "pitch": 46,
              "beat": 29.5,
              "dur": 0.556,
              "vel": 127
            },
            {
              "note": "A#1",
              "pitch": 46,
              "beat": 30.25,
              "dur": 0.584,
              "vel": 127
            },
            {
              "note": "F1",
              "pitch": 41,
              "beat": 31.0,
              "dur": 0.5,
              "vel": 127
            },
            {
              "note": "F1",
              "pitch": 41,
              "beat": 31.5,
              "dur": 0.5,
              "vel": 127
            }
          ]
        },
        {
          "bar_start": 96.0,
          "bar_end": 108.0,
          "name": "",
          "notes": [
            {
              "note": "F#1",
              "pitch": 42,
              "beat": 0.0,
              "dur": 0.25,
              "vel": 127
            },
            {
              "note": "F#1",
              "pitch": 42,
              "beat": 0.25,
              "dur": 0.5,
              "vel": 127
            },
            {
              "note": "F#1",
              "pitch": 42,
              "beat": 0.75,
              "dur": 0.5,
              "vel": 127
            },
            {
              "note": "F#1",
              "pitch": 42,
              "beat": 1.5,
              "dur": 0.556,
              "vel": 127
            },
            {
              "note": "F#1",
              "pitch": 42,
              "beat": 2.25,
              "dur": 0.584,
              "vel": 127
            },
            {
              "note": "F#1",
              "pitch": 42,
              "beat": 3.0,
              "dur": 0.5,
              "vel": 127
            },
            {
              "note": "F#1",
              "pitch": 42,
              "beat": 3.5,
              "dur": 0.5,
              "vel": 127
            },
            {
              "note": "C#1",
              "pitch": 37,
              "beat": 4.0,
              "dur": 0.25,
              "vel": 127
            },
            {
              "note": "C#1",
              "pitch": 37,
              "beat": 4.25,
              "dur": 0.5,
              "vel": 127
            },
            {
              "note": "C#1",
              "pitch": 37,
              "beat": 4.75,
              "dur": 0.5,
              "vel": 127
            },
            {
              "note": "C#1",
              "pitch": 37,
              "beat": 5.5,
              "dur": 0.556,
              "vel": 127
            },
            {
              "note": "C#1",
              "pitch": 37,
              "beat": 6.25,
              "dur": 0.584,
              "vel": 127
            },
            {
              "note": "C#1",
              "pitch": 37,
              "beat": 7.0,
              "dur": 0.5,
              "vel": 127
            },
            {
              "note": "C#1",
              "pitch": 37,
              "beat": 7.5,
              "dur": 0.5,
              "vel": 127
            },
            {
              "note": "D#1",
              "pitch": 39,
              "beat": 8.0,
              "dur": 0.25,
              "vel": 127
            },
            {
              "note": "D#1",
              "pitch": 39,
              "beat": 8.25,
              "dur": 0.5,
              "vel": 127
            },
            {
              "note": "D#1",
              "pitch": 39,
              "beat": 8.75,
              "dur": 0.5,
              "vel": 127
            },
            {
              "note": "D#1",
              "pitch": 39,
              "beat": 9.5,
              "dur": 0.556,
              "vel": 127
            },
            {
              "note": "D#1",
              "pitch": 39,
              "beat": 10.25,
              "dur": 0.584,
              "vel": 127
            },
            {
              "note": "D#1",
              "pitch": 39,
              "beat": 11.0,
              "dur": 0.5,
              "vel": 127
            },
            {
              "note": "D#1",
              "pitch": 39,
              "beat": 11.5,
              "dur": 0.5,
              "vel": 127
            },
            {
              "note": "A#0",
              "pitch": 34,
              "beat": 12.0,
              "dur": 0.25,
              "vel": 127
            },
            {
              "note": "A#0",
              "pitch": 34,
              "beat": 12.25,
              "dur": 0.5,
              "vel": 127
            },
            {
              "note": "A#0",
              "pitch": 34,
              "beat": 12.75,
              "dur": 0.614,
              "vel": 127
            },
            {
              "note": "A#0",
              "pitch": 34,
              "beat": 13.5,
              "dur": 0.556,
              "vel": 127
            },
            {
              "note": "A#0",
              "pitch": 34,
              "beat": 14.25,
              "dur": 0.584,
              "vel": 127
            },
            {
              "note": "F1",
              "pitch": 41,
              "beat": 15.0,
              "dur": 0.5,
              "vel": 127
            },
            {
              "note": "F1",
              "pitch": 41,
              "beat": 15.5,
              "dur": 0.5,
              "vel": 127
            },
            {
              "note": "F#1",
              "pitch": 42,
              "beat": 16.0,
              "dur": 0.25,
              "vel": 127
            },
            {
              "note": "F#1",
              "pitch": 42,
              "beat": 16.25,
              "dur": 0.5,
              "vel": 127
            },
            {
              "note": "F#1",
              "pitch": 42,
              "beat": 16.75,
              "dur": 0.5,
              "vel": 127
            },
            {
              "note": "F#1",
              "pitch": 42,
              "beat": 17.5,
              "dur": 0.556,
              "vel": 127
            },
            {
              "note": "F#1",
              "pitch": 42,
              "beat": 18.25,
              "dur": 0.584,
              "vel": 127
            },
            {
              "note": "F#1",
              "pitch": 42,
              "beat": 19.0,
              "dur": 0.5,
              "vel": 127
            },
            {
              "note": "F#1",
              "pitch": 42,
              "beat": 19.5,
              "dur": 0.5,
              "vel": 127
            },
            {
              "note": "C#1",
              "pitch": 37,
              "beat": 20.0,
              "dur": 0.25,
              "vel": 127
            },
            {
              "note": "C#1",
              "pitch": 37,
              "beat": 20.25,
              "dur": 0.5,
              "vel": 127
            },
            {
              "note": "C#1",
              "pitch": 37,
              "beat": 20.75,
              "dur": 0.5,
              "vel": 127
            },
            {
              "note": "C#1",
              "pitch": 37,
              "beat": 21.5,
              "dur": 0.556,
              "vel": 127
            },
            {
              "note": "C#1",
              "pitch": 37,
              "beat": 22.25,
              "dur": 0.584,
              "vel": 127
            },
            {
              "note": "G#1",
              "pitch": 44,
              "beat": 23.0,
              "dur": 0.373,
              "vel": 127
            },
            {
              "note": "G#1",
              "pitch": 44,
              "beat": 23.5,
              "dur": 0.373,
              "vel": 127
            },
            {
              "note": "D#1",
              "pitch": 39,
              "beat": 24.0,
              "dur": 0.25,
              "vel": 127
            },
            {
              "note": "D#1",
              "pitch": 39,
              "beat": 24.25,
              "dur": 0.5,
              "vel": 127
            },
            {
              "note": "D#1",
              "pitch": 39,
              "beat": 24.75,
              "dur": 0.5,
              "vel": 127
            },
            {
              "note": "D#1",
              "pitch": 39,
              "beat": 25.5,
              "dur": 0.556,
              "vel": 127
            },
            {
              "note": "D#1",
              "pitch": 39,
              "beat": 26.25,
              "dur": 0.584,
              "vel": 127
            },
            {
              "note": "D#1",
              "pitch": 39,
              "beat": 27.0,
              "dur": 0.5,
              "vel": 127
            },
            {
              "note": "G#1",
              "pitch": 44,
              "beat": 27.5,
              "dur": 0.5,
              "vel": 127
            },
            {
              "note": "A#1",
              "pitch": 46,
              "beat": 28.0,
              "dur": 0.25,
              "vel": 127
            },
            {
              "note": "A#1",
              "pitch": 46,
              "beat": 28.25,
              "dur": 0.5,
              "vel": 127
            },
            {
              "note": "A#1",
              "pitch": 46,
              "beat": 28.75,
              "dur": 0.614,
              "vel": 127
            },
            {
              "note": "A#1",
              "pitch": 46,
              "beat": 29.5,
              "dur": 0.556,
              "vel": 127
            },
            {
              "note": "A#1",
              "pitch": 46,
              "beat": 30.25,
              "dur": 0.584,
              "vel": 127
            },
            {
              "note": "F1",
              "pitch": 41,
              "beat": 31.0,
              "dur": 0.5,
              "vel": 127
            },
            {
              "note": "F1",
              "pitch": 41,
              "beat": 31.5,
              "dur": 0.5,
              "vel": 127
            }
          ]
        },
        {
          "bar_start": 120.0,
          "bar_end": 120.25,
          "name": "",
          "notes": [
            {
              "note": "F#1",
              "pitch": 42,
              "beat": 0.0,
              "dur": 0.25,
              "vel": 127
            },
            {
              "note": "F#1",
              "pitch": 42,
              "beat": 0.25,
              "dur": 0.5,
              "vel": 127
            },
            {
              "note": "F#1",
              "pitch": 42,
              "beat": 0.75,
              "dur": 0.5,
              "vel": 127
            },
            {
              "note": "F#1",
              "pitch": 42,
              "beat": 1.5,
              "dur": 0.556,
              "vel": 127
            },
            {
              "note": "F#1",
              "pitch": 42,
              "beat": 2.25,
              "dur": 0.584,
              "vel": 127
            },
            {
              "note": "F#1",
              "pitch": 42,
              "beat": 3.0,
              "dur": 0.5,
              "vel": 127
            },
            {
              "note": "F#1",
              "pitch": 42,
              "beat": 3.5,
              "dur": 0.5,
              "vel": 127
            },
            {
              "note": "C#1",
              "pitch": 37,
              "beat": 4.0,
              "dur": 0.25,
              "vel": 127
            },
            {
              "note": "C#1",
              "pitch": 37,
              "beat": 4.25,
              "dur": 0.5,
              "vel": 127
            },
            {
              "note": "C#1",
              "pitch": 37,
              "beat": 4.75,
              "dur": 0.5,
              "vel": 127
            },
            {
              "note": "C#1",
              "pitch": 37,
              "beat": 5.5,
              "dur": 0.556,
              "vel": 127
            },
            {
              "note": "C#1",
              "pitch": 37,
              "beat": 6.25,
              "dur": 0.584,
              "vel": 127
            },
            {
              "note": "C#1",
              "pitch": 37,
              "beat": 7.0,
              "dur": 0.5,
              "vel": 127
            },
            {
              "note": "C#1",
              "pitch": 37,
              "beat": 7.5,
              "dur": 0.5,
              "vel": 127
            },
            {
              "note": "D#1",
              "pitch": 39,
              "beat": 8.0,
              "dur": 0.25,
              "vel": 127
            },
            {
              "note": "D#1",
              "pitch": 39,
              "beat": 8.25,
              "dur": 0.5,
              "vel": 127
            },
            {
              "note": "D#1",
              "pitch": 39,
              "beat": 8.75,
              "dur": 0.5,
              "vel": 127
            },
            {
              "note": "D#1",
              "pitch": 39,
              "beat": 9.5,
              "dur": 0.556,
              "vel": 127
            },
            {
              "note": "D#1",
              "pitch": 39,
              "beat": 10.25,
              "dur": 0.584,
              "vel": 127
            },
            {
              "note": "D#1",
              "pitch": 39,
              "beat": 11.0,
              "dur": 0.5,
              "vel": 127
            },
            {
              "note": "D#1",
              "pitch": 39,
              "beat": 11.5,
              "dur": 0.5,
              "vel": 127
            },
            {
              "note": "A#0",
              "pitch": 34,
              "beat": 12.0,
              "dur": 0.25,
              "vel": 127
            },
            {
              "note": "A#0",
              "pitch": 34,
              "beat": 12.25,
              "dur": 0.5,
              "vel": 127
            },
            {
              "note": "A#0",
              "pitch": 34,
              "beat": 12.75,
              "dur": 0.614,
              "vel": 127
            },
            {
              "note": "A#0",
              "pitch": 34,
              "beat": 13.5,
              "dur": 0.556,
              "vel": 127
            },
            {
              "note": "A#0",
              "pitch": 34,
              "beat": 14.25,
              "dur": 0.584,
              "vel": 127
            },
            {
              "note": "F1",
              "pitch": 41,
              "beat": 15.0,
              "dur": 0.5,
              "vel": 127
            },
            {
              "note": "F1",
              "pitch": 41,
              "beat": 15.5,
              "dur": 0.5,
              "vel": 127
            },
            {
              "note": "F#1",
              "pitch": 42,
              "beat": 16.0,
              "dur": 0.25,
              "vel": 127
            },
            {
              "note": "F#1",
              "pitch": 42,
              "beat": 16.25,
              "dur": 0.5,
              "vel": 127
            },
            {
              "note": "F#1",
              "pitch": 42,
              "beat": 16.75,
              "dur": 0.5,
              "vel": 127
            },
            {
              "note": "F#1",
              "pitch": 42,
              "beat": 17.5,
              "dur": 0.556,
              "vel": 127
            },
            {
              "note": "F#1",
              "pitch": 42,
              "beat": 18.25,
              "dur": 0.584,
              "vel": 127
            },
            {
              "note": "F#1",
              "pitch": 42,
              "beat": 19.0,
              "dur": 0.5,
              "vel": 127
            },
            {
              "note": "F#1",
              "pitch": 42,
              "beat": 19.5,
              "dur": 0.5,
              "vel": 127
            },
            {
              "note": "C#1",
              "pitch": 37,
              "beat": 20.0,
              "dur": 0.25,
              "vel": 127
            },
            {
              "note": "C#1",
              "pitch": 37,
              "beat": 20.25,
              "dur": 0.5,
              "vel": 127
            },
            {
              "note": "C#1",
              "pitch": 37,
              "beat": 20.75,
              "dur": 0.5,
              "vel": 127
            },
            {
              "note": "C#1",
              "pitch": 37,
              "beat": 21.5,
              "dur": 0.556,
              "vel": 127
            },
            {
              "note": "C#1",
              "pitch": 37,
              "beat": 22.25,
              "dur": 0.584,
              "vel": 127
            },
            {
              "note": "G#1",
              "pitch": 44,
              "beat": 23.0,
              "dur": 0.373,
              "vel": 127
            },
            {
              "note": "G#1",
              "pitch": 44,
              "beat": 23.5,
              "dur": 0.373,
              "vel": 127
            },
            {
              "note": "D#1",
              "pitch": 39,
              "beat": 24.0,
              "dur": 0.25,
              "vel": 127
            },
            {
              "note": "D#1",
              "pitch": 39,
              "beat": 24.25,
              "dur": 0.5,
              "vel": 127
            },
            {
              "note": "D#1",
              "pitch": 39,
              "beat": 24.75,
              "dur": 0.5,
              "vel": 127
            },
            {
              "note": "D#1",
              "pitch": 39,
              "beat": 25.5,
              "dur": 0.556,
              "vel": 127
            },
            {
              "note": "D#1",
              "pitch": 39,
              "beat": 26.25,
              "dur": 0.584,
              "vel": 127
            },
            {
              "note": "D#1",
              "pitch": 39,
              "beat": 27.0,
              "dur": 0.5,
              "vel": 127
            },
            {
              "note": "G#1",
              "pitch": 44,
              "beat": 27.5,
              "dur": 0.5,
              "vel": 127
            },
            {
              "note": "A#1",
              "pitch": 46,
              "beat": 28.0,
              "dur": 0.25,
              "vel": 127
            },
            {
              "note": "A#1",
              "pitch": 46,
              "beat": 28.25,
              "dur": 0.5,
              "vel": 127
            },
            {
              "note": "A#1",
              "pitch": 46,
              "beat": 28.75,
              "dur": 0.614,
              "vel": 127
            },
            {
              "note": "A#1",
              "pitch": 46,
              "beat": 29.5,
              "dur": 0.556,
              "vel": 127
            },
            {
              "note": "A#1",
              "pitch": 46,
              "beat": 30.25,
              "dur": 0.584,
              "vel": 127
            },
            {
              "note": "F1",
              "pitch": 41,
              "beat": 31.0,
              "dur": 0.5,
              "vel": 127
            },
            {
              "note": "F1",
              "pitch": 41,
              "beat": 31.5,
              "dur": 0.5,
              "vel": 127
            }
          ]
        },
        {
          "bar_start": 121.0,
          "bar_end": 121.25,
          "name": "",
          "notes": [
            {
              "note": "F#1",
              "pitch": 42,
              "beat": 0.0,
              "dur": 0.25,
              "vel": 127
            },
            {
              "note": "F#1",
              "pitch": 42,
              "beat": 0.25,
              "dur": 0.5,
              "vel": 127
            },
            {
              "note": "F#1",
              "pitch": 42,
              "beat": 0.75,
              "dur": 0.5,
              "vel": 127
            },
            {
              "note": "F#1",
              "pitch": 42,
              "beat": 1.5,
              "dur": 0.556,
              "vel": 127
            },
            {
              "note": "F#1",
              "pitch": 42,
              "beat": 2.25,
              "dur": 0.584,
              "vel": 127
            },
            {
              "note": "F#1",
              "pitch": 42,
              "beat": 3.0,
              "dur": 0.5,
              "vel": 127
            },
            {
              "note": "F#1",
              "pitch": 42,
              "beat": 3.5,
              "dur": 0.5,
              "vel": 127
            },
            {
              "note": "C#1",
              "pitch": 37,
              "beat": 4.0,
              "dur": 0.25,
              "vel": 127
            },
            {
              "note": "C#1",
              "pitch": 37,
              "beat": 4.25,
              "dur": 0.5,
              "vel": 127
            },
            {
              "note": "C#1",
              "pitch": 37,
              "beat": 4.75,
              "dur": 0.5,
              "vel": 127
            },
            {
              "note": "C#1",
              "pitch": 37,
              "beat": 5.5,
              "dur": 0.556,
              "vel": 127
            },
            {
              "note": "C#1",
              "pitch": 37,
              "beat": 6.25,
              "dur": 0.584,
              "vel": 127
            },
            {
              "note": "C#1",
              "pitch": 37,
              "beat": 7.0,
              "dur": 0.5,
              "vel": 127
            },
            {
              "note": "C#1",
              "pitch": 37,
              "beat": 7.5,
              "dur": 0.5,
              "vel": 127
            },
            {
              "note": "D#1",
              "pitch": 39,
              "beat": 8.0,
              "dur": 0.25,
              "vel": 127
            },
            {
              "note": "D#1",
              "pitch": 39,
              "beat": 8.25,
              "dur": 0.5,
              "vel": 127
            },
            {
              "note": "D#1",
              "pitch": 39,
              "beat": 8.75,
              "dur": 0.5,
              "vel": 127
            },
            {
              "note": "D#1",
              "pitch": 39,
              "beat": 9.5,
              "dur": 0.556,
              "vel": 127
            },
            {
              "note": "D#1",
              "pitch": 39,
              "beat": 10.25,
              "dur": 0.584,
              "vel": 127
            },
            {
              "note": "D#1",
              "pitch": 39,
              "beat": 11.0,
              "dur": 0.5,
              "vel": 127
            },
            {
              "note": "D#1",
              "pitch": 39,
              "beat": 11.5,
              "dur": 0.5,
              "vel": 127
            },
            {
              "note": "A#0",
              "pitch": 34,
              "beat": 12.0,
              "dur": 0.25,
              "vel": 127
            },
            {
              "note": "A#0",
              "pitch": 34,
              "beat": 12.25,
              "dur": 0.5,
              "vel": 127
            },
            {
              "note": "A#0",
              "pitch": 34,
              "beat": 12.75,
              "dur": 0.614,
              "vel": 127
            },
            {
              "note": "A#0",
              "pitch": 34,
              "beat": 13.5,
              "dur": 0.556,
              "vel": 127
            },
            {
              "note": "A#0",
              "pitch": 34,
              "beat": 14.25,
              "dur": 0.584,
              "vel": 127
            },
            {
              "note": "F1",
              "pitch": 41,
              "beat": 15.0,
              "dur": 0.5,
              "vel": 127
            },
            {
              "note": "F1",
              "pitch": 41,
              "beat": 15.5,
              "dur": 0.5,
              "vel": 127
            },
            {
              "note": "F#1",
              "pitch": 42,
              "beat": 16.0,
              "dur": 0.25,
              "vel": 127
            },
            {
              "note": "F#1",
              "pitch": 42,
              "beat": 16.25,
              "dur": 0.5,
              "vel": 127
            },
            {
              "note": "F#1",
              "pitch": 42,
              "beat": 16.75,
              "dur": 0.5,
              "vel": 127
            },
            {
              "note": "F#1",
              "pitch": 42,
              "beat": 17.5,
              "dur": 0.556,
              "vel": 127
            },
            {
              "note": "F#1",
              "pitch": 42,
              "beat": 18.25,
              "dur": 0.584,
              "vel": 127
            },
            {
              "note": "F#1",
              "pitch": 42,
              "beat": 19.0,
              "dur": 0.5,
              "vel": 127
            },
            {
              "note": "F#1",
              "pitch": 42,
              "beat": 19.5,
              "dur": 0.5,
              "vel": 127
            },
            {
              "note": "C#1",
              "pitch": 37,
              "beat": 20.0,
              "dur": 0.25,
              "vel": 127
            },
            {
              "note": "C#1",
              "pitch": 37,
              "beat": 20.25,
              "dur": 0.5,
              "vel": 127
            },
            {
              "note": "C#1",
              "pitch": 37,
              "beat": 20.75,
              "dur": 0.5,
              "vel": 127
            },
            {
              "note": "C#1",
              "pitch": 37,
              "beat": 21.5,
              "dur": 0.556,
              "vel": 127
            },
            {
              "note": "C#1",
              "pitch": 37,
              "beat": 22.25,
              "dur": 0.584,
              "vel": 127
            },
            {
              "note": "G#1",
              "pitch": 44,
              "beat": 23.0,
              "dur": 0.373,
              "vel": 127
            },
            {
              "note": "G#1",
              "pitch": 44,
              "beat": 23.5,
              "dur": 0.373,
              "vel": 127
            },
            {
              "note": "D#1",
              "pitch": 39,
              "beat": 24.0,
              "dur": 0.25,
              "vel": 127
            },
            {
              "note": "D#1",
              "pitch": 39,
              "beat": 24.25,
              "dur": 0.5,
              "vel": 127
            },
            {
              "note": "D#1",
              "pitch": 39,
              "beat": 24.75,
              "dur": 0.5,
              "vel": 127
            },
            {
              "note": "D#1",
              "pitch": 39,
              "beat": 25.5,
              "dur": 0.556,
              "vel": 127
            },
            {
              "note": "D#1",
              "pitch": 39,
              "beat": 26.25,
              "dur": 0.584,
              "vel": 127
            },
            {
              "note": "D#1",
              "pitch": 39,
              "beat": 27.0,
              "dur": 0.5,
              "vel": 127
            },
            {
              "note": "G#1",
              "pitch": 44,
              "beat": 27.5,
              "dur": 0.5,
              "vel": 127
            },
            {
              "note": "A#1",
              "pitch": 46,
              "beat": 28.0,
              "dur": 0.25,
              "vel": 127
            },
            {
              "note": "A#1",
              "pitch": 46,
              "beat": 28.25,
              "dur": 0.5,
              "vel": 127
            },
            {
              "note": "A#1",
              "pitch": 46,
              "beat": 28.75,
              "dur": 0.614,
              "vel": 127
            },
            {
              "note": "A#1",
              "pitch": 46,
              "beat": 29.5,
              "dur": 0.556,
              "vel": 127
            },
            {
              "note": "A#1",
              "pitch": 46,
              "beat": 30.25,
              "dur": 0.584,
              "vel": 127
            },
            {
              "note": "F1",
              "pitch": 41,
              "beat": 31.0,
              "dur": 0.5,
              "vel": 127
            },
            {
              "note": "F1",
              "pitch": 41,
              "beat": 31.5,
              "dur": 0.5,
              "vel": 127
            }
          ]
        },
        {
          "bar_start": 122.0,
          "bar_end": 122.25,
          "name": "",
          "notes": [
            {
              "note": "F#1",
              "pitch": 42,
              "beat": 0.0,
              "dur": 0.25,
              "vel": 127
            },
            {
              "note": "F#1",
              "pitch": 42,
              "beat": 0.25,
              "dur": 0.5,
              "vel": 127
            },
            {
              "note": "F#1",
              "pitch": 42,
              "beat": 0.75,
              "dur": 0.5,
              "vel": 127
            },
            {
              "note": "F#1",
              "pitch": 42,
              "beat": 1.5,
              "dur": 0.556,
              "vel": 127
            },
            {
              "note": "F#1",
              "pitch": 42,
              "beat": 2.25,
              "dur": 0.584,
              "vel": 127
            },
            {
              "note": "F#1",
              "pitch": 42,
              "beat": 3.0,
              "dur": 0.5,
              "vel": 127
            },
            {
              "note": "F#1",
              "pitch": 42,
              "beat": 3.5,
              "dur": 0.5,
              "vel": 127
            },
            {
              "note": "C#1",
              "pitch": 37,
              "beat": 4.0,
              "dur": 0.25,
              "vel": 127
            },
            {
              "note": "C#1",
              "pitch": 37,
              "beat": 4.25,
              "dur": 0.5,
              "vel": 127
            },
            {
              "note": "C#1",
              "pitch": 37,
              "beat": 4.75,
              "dur": 0.5,
              "vel": 127
            },
            {
              "note": "C#1",
              "pitch": 37,
              "beat": 5.5,
              "dur": 0.556,
              "vel": 127
            },
            {
              "note": "C#1",
              "pitch": 37,
              "beat": 6.25,
              "dur": 0.584,
              "vel": 127
            },
            {
              "note": "C#1",
              "pitch": 37,
              "beat": 7.0,
              "dur": 0.5,
              "vel": 127
            },
            {
              "note": "C#1",
              "pitch": 37,
              "beat": 7.5,
              "dur": 0.5,
              "vel": 127
            },
            {
              "note": "D#1",
              "pitch": 39,
              "beat": 8.0,
              "dur": 0.25,
              "vel": 127
            },
            {
              "note": "D#1",
              "pitch": 39,
              "beat": 8.25,
              "dur": 0.5,
              "vel": 127
            },
            {
              "note": "D#1",
              "pitch": 39,
              "beat": 8.75,
              "dur": 0.5,
              "vel": 127
            },
            {
              "note": "D#1",
              "pitch": 39,
              "beat": 9.5,
              "dur": 0.556,
              "vel": 127
            },
            {
              "note": "D#1",
              "pitch": 39,
              "beat": 10.25,
              "dur": 0.584,
              "vel": 127
            },
            {
              "note": "D#1",
              "pitch": 39,
              "beat": 11.0,
              "dur": 0.5,
              "vel": 127
            },
            {
              "note": "D#1",
              "pitch": 39,
              "beat": 11.5,
              "dur": 0.5,
              "vel": 127
            },
            {
              "note": "A#0",
              "pitch": 34,
              "beat": 12.0,
              "dur": 0.25,
              "vel": 127
            },
            {
              "note": "A#0",
              "pitch": 34,
              "beat": 12.25,
              "dur": 0.5,
              "vel": 127
            },
            {
              "note": "A#0",
              "pitch": 34,
              "beat": 12.75,
              "dur": 0.614,
              "vel": 127
            },
            {
              "note": "A#0",
              "pitch": 34,
              "beat": 13.5,
              "dur": 0.556,
              "vel": 127
            },
            {
              "note": "A#0",
              "pitch": 34,
              "beat": 14.25,
              "dur": 0.584,
              "vel": 127
            },
            {
              "note": "F1",
              "pitch": 41,
              "beat": 15.0,
              "dur": 0.5,
              "vel": 127
            },
            {
              "note": "F1",
              "pitch": 41,
              "beat": 15.5,
              "dur": 0.5,
              "vel": 127
            },
            {
              "note": "F#1",
              "pitch": 42,
              "beat": 16.0,
              "dur": 0.25,
              "vel": 127
            },
            {
              "note": "F#1",
              "pitch": 42,
              "beat": 16.25,
              "dur": 0.5,
              "vel": 127
            },
            {
              "note": "F#1",
              "pitch": 42,
              "beat": 16.75,
              "dur": 0.5,
              "vel": 127
            },
            {
              "note": "F#1",
              "pitch": 42,
              "beat": 17.5,
              "dur": 0.556,
              "vel": 127
            },
            {
              "note": "F#1",
              "pitch": 42,
              "beat": 18.25,
              "dur": 0.584,
              "vel": 127
            },
            {
              "note": "F#1",
              "pitch": 42,
              "beat": 19.0,
              "dur": 0.5,
              "vel": 127
            },
            {
              "note": "F#1",
              "pitch": 42,
              "beat": 19.5,
              "dur": 0.5,
              "vel": 127
            },
            {
              "note": "C#1",
              "pitch": 37,
              "beat": 20.0,
              "dur": 0.25,
              "vel": 127
            },
            {
              "note": "C#1",
              "pitch": 37,
              "beat": 20.25,
              "dur": 0.5,
              "vel": 127
            },
            {
              "note": "C#1",
              "pitch": 37,
              "beat": 20.75,
              "dur": 0.5,
              "vel": 127
            },
            {
              "note": "C#1",
              "pitch": 37,
              "beat": 21.5,
              "dur": 0.556,
              "vel": 127
            },
            {
              "note": "C#1",
              "pitch": 37,
              "beat": 22.25,
              "dur": 0.584,
              "vel": 127
            },
            {
              "note": "G#1",
              "pitch": 44,
              "beat": 23.0,
              "dur": 0.373,
              "vel": 127
            },
            {
              "note": "G#1",
              "pitch": 44,
              "beat": 23.5,
              "dur": 0.373,
              "vel": 127
            },
            {
              "note": "D#1",
              "pitch": 39,
              "beat": 24.0,
              "dur": 0.25,
              "vel": 127
            },
            {
              "note": "D#1",
              "pitch": 39,
              "beat": 24.25,
              "dur": 0.5,
              "vel": 127
            },
            {
              "note": "D#1",
              "pitch": 39,
              "beat": 24.75,
              "dur": 0.5,
              "vel": 127
            },
            {
              "note": "D#1",
              "pitch": 39,
              "beat": 25.5,
              "dur": 0.556,
              "vel": 127
            },
            {
              "note": "D#1",
              "pitch": 39,
              "beat": 26.25,
              "dur": 0.584,
              "vel": 127
            },
            {
              "note": "D#1",
              "pitch": 39,
              "beat": 27.0,
              "dur": 0.5,
              "vel": 127
            },
            {
              "note": "G#1",
              "pitch": 44,
              "beat": 27.5,
              "dur": 0.5,
              "vel": 127
            },
            {
              "note": "A#1",
              "pitch": 46,
              "beat": 28.0,
              "dur": 0.25,
              "vel": 127
            },
            {
              "note": "A#1",
              "pitch": 46,
              "beat": 28.25,
              "dur": 0.5,
              "vel": 127
            },
            {
              "note": "A#1",
              "pitch": 46,
              "beat": 28.75,
              "dur": 0.614,
              "vel": 127
            },
            {
              "note": "A#1",
              "pitch": 46,
              "beat": 29.5,
              "dur": 0.556,
              "vel": 127
            },
            {
              "note": "A#1",
              "pitch": 46,
              "beat": 30.25,
              "dur": 0.584,
              "vel": 127
            },
            {
              "note": "F1",
              "pitch": 41,
              "beat": 31.0,
              "dur": 0.5,
              "vel": 127
            },
            {
              "note": "F1",
              "pitch": 41,
              "beat": 31.5,
              "dur": 0.5,
              "vel": 127
            }
          ]
        },
        {
          "bar_start": 123.0,
          "bar_end": 123.25,
          "name": "",
          "notes": [
            {
              "note": "F#1",
              "pitch": 42,
              "beat": 0.0,
              "dur": 0.25,
              "vel": 127
            },
            {
              "note": "F#1",
              "pitch": 42,
              "beat": 0.25,
              "dur": 0.5,
              "vel": 127
            },
            {
              "note": "F#1",
              "pitch": 42,
              "beat": 0.75,
              "dur": 0.5,
              "vel": 127
            },
            {
              "note": "F#1",
              "pitch": 42,
              "beat": 1.5,
              "dur": 0.556,
              "vel": 127
            },
            {
              "note": "F#1",
              "pitch": 42,
              "beat": 2.25,
              "dur": 0.584,
              "vel": 127
            },
            {
              "note": "F#1",
              "pitch": 42,
              "beat": 3.0,
              "dur": 0.5,
              "vel": 127
            },
            {
              "note": "F#1",
              "pitch": 42,
              "beat": 3.5,
              "dur": 0.5,
              "vel": 127
            },
            {
              "note": "C#1",
              "pitch": 37,
              "beat": 4.0,
              "dur": 0.25,
              "vel": 127
            },
            {
              "note": "C#1",
              "pitch": 37,
              "beat": 4.25,
              "dur": 0.5,
              "vel": 127
            },
            {
              "note": "C#1",
              "pitch": 37,
              "beat": 4.75,
              "dur": 0.5,
              "vel": 127
            },
            {
              "note": "C#1",
              "pitch": 37,
              "beat": 5.5,
              "dur": 0.556,
              "vel": 127
            },
            {
              "note": "C#1",
              "pitch": 37,
              "beat": 6.25,
              "dur": 0.584,
              "vel": 127
            },
            {
              "note": "C#1",
              "pitch": 37,
              "beat": 7.0,
              "dur": 0.5,
              "vel": 127
            },
            {
              "note": "C#1",
              "pitch": 37,
              "beat": 7.5,
              "dur": 0.5,
              "vel": 127
            },
            {
              "note": "D#1",
              "pitch": 39,
              "beat": 8.0,
              "dur": 0.25,
              "vel": 127
            },
            {
              "note": "D#1",
              "pitch": 39,
              "beat": 8.25,
              "dur": 0.5,
              "vel": 127
            },
            {
              "note": "D#1",
              "pitch": 39,
              "beat": 8.75,
              "dur": 0.5,
              "vel": 127
            },
            {
              "note": "D#1",
              "pitch": 39,
              "beat": 9.5,
              "dur": 0.556,
              "vel": 127
            },
            {
              "note": "D#1",
              "pitch": 39,
              "beat": 10.25,
              "dur": 0.584,
              "vel": 127
            },
            {
              "note": "D#1",
              "pitch": 39,
              "beat": 11.0,
              "dur": 0.5,
              "vel": 127
            },
            {
              "note": "D#1",
              "pitch": 39,
              "beat": 11.5,
              "dur": 0.5,
              "vel": 127
            },
            {
              "note": "A#0",
              "pitch": 34,
              "beat": 12.0,
              "dur": 0.25,
              "vel": 127
            },
            {
              "note": "A#0",
              "pitch": 34,
              "beat": 12.25,
              "dur": 0.5,
              "vel": 127
            },
            {
              "note": "A#0",
              "pitch": 34,
              "beat": 12.75,
              "dur": 0.614,
              "vel": 127
            },
            {
              "note": "A#0",
              "pitch": 34,
              "beat": 13.5,
              "dur": 0.556,
              "vel": 127
            },
            {
              "note": "A#0",
              "pitch": 34,
              "beat": 14.25,
              "dur": 0.584,
              "vel": 127
            },
            {
              "note": "F1",
              "pitch": 41,
              "beat": 15.0,
              "dur": 0.5,
              "vel": 127
            },
            {
              "note": "F1",
              "pitch": 41,
              "beat": 15.5,
              "dur": 0.5,
              "vel": 127
            },
            {
              "note": "F#1",
              "pitch": 42,
              "beat": 16.0,
              "dur": 0.25,
              "vel": 127
            },
            {
              "note": "F#1",
              "pitch": 42,
              "beat": 16.25,
              "dur": 0.5,
              "vel": 127
            },
            {
              "note": "F#1",
              "pitch": 42,
              "beat": 16.75,
              "dur": 0.5,
              "vel": 127
            },
            {
              "note": "F#1",
              "pitch": 42,
              "beat": 17.5,
              "dur": 0.556,
              "vel": 127
            },
            {
              "note": "F#1",
              "pitch": 42,
              "beat": 18.25,
              "dur": 0.584,
              "vel": 127
            },
            {
              "note": "F#1",
              "pitch": 42,
              "beat": 19.0,
              "dur": 0.5,
              "vel": 127
            },
            {
              "note": "F#1",
              "pitch": 42,
              "beat": 19.5,
              "dur": 0.5,
              "vel": 127
            },
            {
              "note": "C#1",
              "pitch": 37,
              "beat": 20.0,
              "dur": 0.25,
              "vel": 127
            },
            {
              "note": "C#1",
              "pitch": 37,
              "beat": 20.25,
              "dur": 0.5,
              "vel": 127
            },
            {
              "note": "C#1",
              "pitch": 37,
              "beat": 20.75,
              "dur": 0.5,
              "vel": 127
            },
            {
              "note": "C#1",
              "pitch": 37,
              "beat": 21.5,
              "dur": 0.556,
              "vel": 127
            },
            {
              "note": "C#1",
              "pitch": 37,
              "beat": 22.25,
              "dur": 0.584,
              "vel": 127
            },
            {
              "note": "G#1",
              "pitch": 44,
              "beat": 23.0,
              "dur": 0.373,
              "vel": 127
            },
            {
              "note": "G#1",
              "pitch": 44,
              "beat": 23.5,
              "dur": 0.373,
              "vel": 127
            },
            {
              "note": "D#1",
              "pitch": 39,
              "beat": 24.0,
              "dur": 0.25,
              "vel": 127
            },
            {
              "note": "D#1",
              "pitch": 39,
              "beat": 24.25,
              "dur": 0.5,
              "vel": 127
            },
            {
              "note": "D#1",
              "pitch": 39,
              "beat": 24.75,
              "dur": 0.5,
              "vel": 127
            },
            {
              "note": "D#1",
              "pitch": 39,
              "beat": 25.5,
              "dur": 0.556,
              "vel": 127
            },
            {
              "note": "D#1",
              "pitch": 39,
              "beat": 26.25,
              "dur": 0.584,
              "vel": 127
            },
            {
              "note": "D#1",
              "pitch": 39,
              "beat": 27.0,
              "dur": 0.5,
              "vel": 127
            },
            {
              "note": "G#1",
              "pitch": 44,
              "beat": 27.5,
              "dur": 0.5,
              "vel": 127
            },
            {
              "note": "A#1",
              "pitch": 46,
              "beat": 28.0,
              "dur": 0.25,
              "vel": 127
            },
            {
              "note": "A#1",
              "pitch": 46,
              "beat": 28.25,
              "dur": 0.5,
              "vel": 127
            },
            {
              "note": "A#1",
              "pitch": 46,
              "beat": 28.75,
              "dur": 0.614,
              "vel": 127
            },
            {
              "note": "A#1",
              "pitch": 46,
              "beat": 29.5,
              "dur": 0.556,
              "vel": 127
            },
            {
              "note": "A#1",
              "pitch": 46,
              "beat": 30.25,
              "dur": 0.584,
              "vel": 127
            },
            {
              "note": "F1",
              "pitch": 41,
              "beat": 31.0,
              "dur": 0.5,
              "vel": 127
            },
            {
              "note": "F1",
              "pitch": 41,
              "beat": 31.5,
              "dur": 0.5,
              "vel": 127
            }
          ]
        },
        {
          "bar_start": 124.0,
          "bar_end": 124.25,
          "name": "",
          "notes": [
            {
              "note": "F#1",
              "pitch": 42,
              "beat": 0.0,
              "dur": 0.25,
              "vel": 127
            },
            {
              "note": "F#1",
              "pitch": 42,
              "beat": 0.25,
              "dur": 0.5,
              "vel": 127
            },
            {
              "note": "F#1",
              "pitch": 42,
              "beat": 0.75,
              "dur": 0.5,
              "vel": 127
            },
            {
              "note": "F#1",
              "pitch": 42,
              "beat": 1.5,
              "dur": 0.556,
              "vel": 127
            },
            {
              "note": "F#1",
              "pitch": 42,
              "beat": 2.25,
              "dur": 0.584,
              "vel": 127
            },
            {
              "note": "F#1",
              "pitch": 42,
              "beat": 3.0,
              "dur": 0.5,
              "vel": 127
            },
            {
              "note": "F#1",
              "pitch": 42,
              "beat": 3.5,
              "dur": 0.5,
              "vel": 127
            },
            {
              "note": "C#1",
              "pitch": 37,
              "beat": 4.0,
              "dur": 0.25,
              "vel": 127
            },
            {
              "note": "C#1",
              "pitch": 37,
              "beat": 4.25,
              "dur": 0.5,
              "vel": 127
            },
            {
              "note": "C#1",
              "pitch": 37,
              "beat": 4.75,
              "dur": 0.5,
              "vel": 127
            },
            {
              "note": "C#1",
              "pitch": 37,
              "beat": 5.5,
              "dur": 0.556,
              "vel": 127
            },
            {
              "note": "C#1",
              "pitch": 37,
              "beat": 6.25,
              "dur": 0.584,
              "vel": 127
            },
            {
              "note": "C#1",
              "pitch": 37,
              "beat": 7.0,
              "dur": 0.5,
              "vel": 127
            },
            {
              "note": "C#1",
              "pitch": 37,
              "beat": 7.5,
              "dur": 0.5,
              "vel": 127
            },
            {
              "note": "D#1",
              "pitch": 39,
              "beat": 8.0,
              "dur": 0.25,
              "vel": 127
            },
            {
              "note": "D#1",
              "pitch": 39,
              "beat": 8.25,
              "dur": 0.5,
              "vel": 127
            },
            {
              "note": "D#1",
              "pitch": 39,
              "beat": 8.75,
              "dur": 0.5,
              "vel": 127
            },
            {
              "note": "D#1",
              "pitch": 39,
              "beat": 9.5,
              "dur": 0.556,
              "vel": 127
            },
            {
              "note": "D#1",
              "pitch": 39,
              "beat": 10.25,
              "dur": 0.584,
              "vel": 127
            },
            {
              "note": "D#1",
              "pitch": 39,
              "beat": 11.0,
              "dur": 0.5,
              "vel": 127
            },
            {
              "note": "D#1",
              "pitch": 39,
              "beat": 11.5,
              "dur": 0.5,
              "vel": 127
            },
            {
              "note": "A#0",
              "pitch": 34,
              "beat": 12.0,
              "dur": 0.25,
              "vel": 127
            },
            {
              "note": "A#0",
              "pitch": 34,
              "beat": 12.25,
              "dur": 0.5,
              "vel": 127
            },
            {
              "note": "A#0",
              "pitch": 34,
              "beat": 12.75,
              "dur": 0.614,
              "vel": 127
            },
            {
              "note": "A#0",
              "pitch": 34,
              "beat": 13.5,
              "dur": 0.556,
              "vel": 127
            },
            {
              "note": "A#0",
              "pitch": 34,
              "beat": 14.25,
              "dur": 0.584,
              "vel": 127
            },
            {
              "note": "F1",
              "pitch": 41,
              "beat": 15.0,
              "dur": 0.5,
              "vel": 127
            },
            {
              "note": "F1",
              "pitch": 41,
              "beat": 15.5,
              "dur": 0.5,
              "vel": 127
            },
            {
              "note": "F#1",
              "pitch": 42,
              "beat": 16.0,
              "dur": 0.25,
              "vel": 127
            },
            {
              "note": "F#1",
              "pitch": 42,
              "beat": 16.25,
              "dur": 0.5,
              "vel": 127
            },
            {
              "note": "F#1",
              "pitch": 42,
              "beat": 16.75,
              "dur": 0.5,
              "vel": 127
            },
            {
              "note": "F#1",
              "pitch": 42,
              "beat": 17.5,
              "dur": 0.556,
              "vel": 127
            },
            {
              "note": "F#1",
              "pitch": 42,
              "beat": 18.25,
              "dur": 0.584,
              "vel": 127
            },
            {
              "note": "F#1",
              "pitch": 42,
              "beat": 19.0,
              "dur": 0.5,
              "vel": 127
            },
            {
              "note": "F#1",
              "pitch": 42,
              "beat": 19.5,
              "dur": 0.5,
              "vel": 127
            },
            {
              "note": "C#1",
              "pitch": 37,
              "beat": 20.0,
              "dur": 0.25,
              "vel": 127
            },
            {
              "note": "C#1",
              "pitch": 37,
              "beat": 20.25,
              "dur": 0.5,
              "vel": 127
            },
            {
              "note": "C#1",
              "pitch": 37,
              "beat": 20.75,
              "dur": 0.5,
              "vel": 127
            },
            {
              "note": "C#1",
              "pitch": 37,
              "beat": 21.5,
              "dur": 0.556,
              "vel": 127
            },
            {
              "note": "C#1",
              "pitch": 37,
              "beat": 22.25,
              "dur": 0.584,
              "vel": 127
            },
            {
              "note": "G#1",
              "pitch": 44,
              "beat": 23.0,
              "dur": 0.373,
              "vel": 127
            },
            {
              "note": "G#1",
              "pitch": 44,
              "beat": 23.5,
              "dur": 0.373,
              "vel": 127
            },
            {
              "note": "D#1",
              "pitch": 39,
              "beat": 24.0,
              "dur": 0.25,
              "vel": 127
            },
            {
              "note": "D#1",
              "pitch": 39,
              "beat": 24.25,
              "dur": 0.5,
              "vel": 127
            },
            {
              "note": "D#1",
              "pitch": 39,
              "beat": 24.75,
              "dur": 0.5,
              "vel": 127
            },
            {
              "note": "D#1",
              "pitch": 39,
              "beat": 25.5,
              "dur": 0.556,
              "vel": 127
            },
            {
              "note": "D#1",
              "pitch": 39,
              "beat": 26.25,
              "dur": 0.584,
              "vel": 127
            },
            {
              "note": "D#1",
              "pitch": 39,
              "beat": 27.0,
              "dur": 0.5,
              "vel": 127
            },
            {
              "note": "G#1",
              "pitch": 44,
              "beat": 27.5,
              "dur": 0.5,
              "vel": 127
            },
            {
              "note": "A#1",
              "pitch": 46,
              "beat": 28.0,
              "dur": 0.25,
              "vel": 127
            },
            {
              "note": "A#1",
              "pitch": 46,
              "beat": 28.25,
              "dur": 0.5,
              "vel": 127
            },
            {
              "note": "A#1",
              "pitch": 46,
              "beat": 28.75,
              "dur": 0.614,
              "vel": 127
            },
            {
              "note": "A#1",
              "pitch": 46,
              "beat": 29.5,
              "dur": 0.556,
              "vel": 127
            },
            {
              "note": "A#1",
              "pitch": 46,
              "beat": 30.25,
              "dur": 0.584,
              "vel": 127
            },
            {
              "note": "F1",
              "pitch": 41,
              "beat": 31.0,
              "dur": 0.5,
              "vel": 127
            },
            {
              "note": "F1",
              "pitch": 41,
              "beat": 31.5,
              "dur": 0.5,
              "vel": 127
            }
          ]
        },
        {
          "bar_start": 125.0,
          "bar_end": 125.25,
          "name": "",
          "notes": [
            {
              "note": "F#1",
              "pitch": 42,
              "beat": 0.0,
              "dur": 0.25,
              "vel": 127
            },
            {
              "note": "F#1",
              "pitch": 42,
              "beat": 0.25,
              "dur": 0.5,
              "vel": 127
            },
            {
              "note": "F#1",
              "pitch": 42,
              "beat": 0.75,
              "dur": 0.5,
              "vel": 127
            },
            {
              "note": "F#1",
              "pitch": 42,
              "beat": 1.5,
              "dur": 0.556,
              "vel": 127
            },
            {
              "note": "F#1",
              "pitch": 42,
              "beat": 2.25,
              "dur": 0.584,
              "vel": 127
            },
            {
              "note": "F#1",
              "pitch": 42,
              "beat": 3.0,
              "dur": 0.5,
              "vel": 127
            },
            {
              "note": "F#1",
              "pitch": 42,
              "beat": 3.5,
              "dur": 0.5,
              "vel": 127
            },
            {
              "note": "C#1",
              "pitch": 37,
              "beat": 4.0,
              "dur": 0.25,
              "vel": 127
            },
            {
              "note": "C#1",
              "pitch": 37,
              "beat": 4.25,
              "dur": 0.5,
              "vel": 127
            },
            {
              "note": "C#1",
              "pitch": 37,
              "beat": 4.75,
              "dur": 0.5,
              "vel": 127
            },
            {
              "note": "C#1",
              "pitch": 37,
              "beat": 5.5,
              "dur": 0.556,
              "vel": 127
            },
            {
              "note": "C#1",
              "pitch": 37,
              "beat": 6.25,
              "dur": 0.584,
              "vel": 127
            },
            {
              "note": "C#1",
              "pitch": 37,
              "beat": 7.0,
              "dur": 0.5,
              "vel": 127
            },
            {
              "note": "C#1",
              "pitch": 37,
              "beat": 7.5,
              "dur": 0.5,
              "vel": 127
            },
            {
              "note": "D#1",
              "pitch": 39,
              "beat": 8.0,
              "dur": 0.25,
              "vel": 127
            },
            {
              "note": "D#1",
              "pitch": 39,
              "beat": 8.25,
              "dur": 0.5,
              "vel": 127
            },
            {
              "note": "D#1",
              "pitch": 39,
              "beat": 8.75,
              "dur": 0.5,
              "vel": 127
            },
            {
              "note": "D#1",
              "pitch": 39,
              "beat": 9.5,
              "dur": 0.556,
              "vel": 127
            },
            {
              "note": "D#1",
              "pitch": 39,
              "beat": 10.25,
              "dur": 0.584,
              "vel": 127
            },
            {
              "note": "D#1",
              "pitch": 39,
              "beat": 11.0,
              "dur": 0.5,
              "vel": 127
            },
            {
              "note": "D#1",
              "pitch": 39,
              "beat": 11.5,
              "dur": 0.5,
              "vel": 127
            },
            {
              "note": "A#0",
              "pitch": 34,
              "beat": 12.0,
              "dur": 0.25,
              "vel": 127
            },
            {
              "note": "A#0",
              "pitch": 34,
              "beat": 12.25,
              "dur": 0.5,
              "vel": 127
            },
            {
              "note": "A#0",
              "pitch": 34,
              "beat": 12.75,
              "dur": 0.614,
              "vel": 127
            },
            {
              "note": "A#0",
              "pitch": 34,
              "beat": 13.5,
              "dur": 0.556,
              "vel": 127
            },
            {
              "note": "A#0",
              "pitch": 34,
              "beat": 14.25,
              "dur": 0.584,
              "vel": 127
            },
            {
              "note": "F1",
              "pitch": 41,
              "beat": 15.0,
              "dur": 0.5,
              "vel": 127
            },
            {
              "note": "F1",
              "pitch": 41,
              "beat": 15.5,
              "dur": 0.5,
              "vel": 127
            },
            {
              "note": "F#1",
              "pitch": 42,
              "beat": 16.0,
              "dur": 0.25,
              "vel": 127
            },
            {
              "note": "F#1",
              "pitch": 42,
              "beat": 16.25,
              "dur": 0.5,
              "vel": 127
            },
            {
              "note": "F#1",
              "pitch": 42,
              "beat": 16.75,
              "dur": 0.5,
              "vel": 127
            },
            {
              "note": "F#1",
              "pitch": 42,
              "beat": 17.5,
              "dur": 0.556,
              "vel": 127
            },
            {
              "note": "F#1",
              "pitch": 42,
              "beat": 18.25,
              "dur": 0.584,
              "vel": 127
            },
            {
              "note": "F#1",
              "pitch": 42,
              "beat": 19.0,
              "dur": 0.5,
              "vel": 127
            },
            {
              "note": "F#1",
              "pitch": 42,
              "beat": 19.5,
              "dur": 0.5,
              "vel": 127
            },
            {
              "note": "C#1",
              "pitch": 37,
              "beat": 20.0,
              "dur": 0.25,
              "vel": 127
            },
            {
              "note": "C#1",
              "pitch": 37,
              "beat": 20.25,
              "dur": 0.5,
              "vel": 127
            },
            {
              "note": "C#1",
              "pitch": 37,
              "beat": 20.75,
              "dur": 0.5,
              "vel": 127
            },
            {
              "note": "C#1",
              "pitch": 37,
              "beat": 21.5,
              "dur": 0.556,
              "vel": 127
            },
            {
              "note": "C#1",
              "pitch": 37,
              "beat": 22.25,
              "dur": 0.584,
              "vel": 127
            },
            {
              "note": "G#1",
              "pitch": 44,
              "beat": 23.0,
              "dur": 0.373,
              "vel": 127
            },
            {
              "note": "G#1",
              "pitch": 44,
              "beat": 23.5,
              "dur": 0.373,
              "vel": 127
            },
            {
              "note": "D#1",
              "pitch": 39,
              "beat": 24.0,
              "dur": 0.25,
              "vel": 127
            },
            {
              "note": "D#1",
              "pitch": 39,
              "beat": 24.25,
              "dur": 0.5,
              "vel": 127
            },
            {
              "note": "D#1",
              "pitch": 39,
              "beat": 24.75,
              "dur": 0.5,
              "vel": 127
            },
            {
              "note": "D#1",
              "pitch": 39,
              "beat": 25.5,
              "dur": 0.556,
              "vel": 127
            },
            {
              "note": "D#1",
              "pitch": 39,
              "beat": 26.25,
              "dur": 0.584,
              "vel": 127
            },
            {
              "note": "D#1",
              "pitch": 39,
              "beat": 27.0,
              "dur": 0.5,
              "vel": 127
            },
            {
              "note": "G#1",
              "pitch": 44,
              "beat": 27.5,
              "dur": 0.5,
              "vel": 127
            },
            {
              "note": "A#1",
              "pitch": 46,
              "beat": 28.0,
              "dur": 0.25,
              "vel": 127
            },
            {
              "note": "A#1",
              "pitch": 46,
              "beat": 28.25,
              "dur": 0.5,
              "vel": 127
            },
            {
              "note": "A#1",
              "pitch": 46,
              "beat": 28.75,
              "dur": 0.614,
              "vel": 127
            },
            {
              "note": "A#1",
              "pitch": 46,
              "beat": 29.5,
              "dur": 0.556,
              "vel": 127
            },
            {
              "note": "A#1",
              "pitch": 46,
              "beat": 30.25,
              "dur": 0.584,
              "vel": 127
            },
            {
              "note": "F1",
              "pitch": 41,
              "beat": 31.0,
              "dur": 0.5,
              "vel": 127
            },
            {
              "note": "F1",
              "pitch": 41,
              "beat": 31.5,
              "dur": 0.5,
              "vel": 127
            }
          ]
        },
        {
          "bar_start": 126.0,
          "bar_end": 126.25,
          "name": "",
          "notes": [
            {
              "note": "F#1",
              "pitch": 42,
              "beat": 0.0,
              "dur": 0.25,
              "vel": 127
            },
            {
              "note": "F#1",
              "pitch": 42,
              "beat": 0.25,
              "dur": 0.5,
              "vel": 127
            },
            {
              "note": "F#1",
              "pitch": 42,
              "beat": 0.75,
              "dur": 0.5,
              "vel": 127
            },
            {
              "note": "F#1",
              "pitch": 42,
              "beat": 1.5,
              "dur": 0.556,
              "vel": 127
            },
            {
              "note": "F#1",
              "pitch": 42,
              "beat": 2.25,
              "dur": 0.584,
              "vel": 127
            },
            {
              "note": "F#1",
              "pitch": 42,
              "beat": 3.0,
              "dur": 0.5,
              "vel": 127
            },
            {
              "note": "F#1",
              "pitch": 42,
              "beat": 3.5,
              "dur": 0.5,
              "vel": 127
            },
            {
              "note": "C#1",
              "pitch": 37,
              "beat": 4.0,
              "dur": 0.25,
              "vel": 127
            },
            {
              "note": "C#1",
              "pitch": 37,
              "beat": 4.25,
              "dur": 0.5,
              "vel": 127
            },
            {
              "note": "C#1",
              "pitch": 37,
              "beat": 4.75,
              "dur": 0.5,
              "vel": 127
            },
            {
              "note": "C#1",
              "pitch": 37,
              "beat": 5.5,
              "dur": 0.556,
              "vel": 127
            },
            {
              "note": "C#1",
              "pitch": 37,
              "beat": 6.25,
              "dur": 0.584,
              "vel": 127
            },
            {
              "note": "C#1",
              "pitch": 37,
              "beat": 7.0,
              "dur": 0.5,
              "vel": 127
            },
            {
              "note": "C#1",
              "pitch": 37,
              "beat": 7.5,
              "dur": 0.5,
              "vel": 127
            },
            {
              "note": "D#1",
              "pitch": 39,
              "beat": 8.0,
              "dur": 0.25,
              "vel": 127
            },
            {
              "note": "D#1",
              "pitch": 39,
              "beat": 8.25,
              "dur": 0.5,
              "vel": 127
            },
            {
              "note": "D#1",
              "pitch": 39,
              "beat": 8.75,
              "dur": 0.5,
              "vel": 127
            },
            {
              "note": "D#1",
              "pitch": 39,
              "beat": 9.5,
              "dur": 0.556,
              "vel": 127
            },
            {
              "note": "D#1",
              "pitch": 39,
              "beat": 10.25,
              "dur": 0.584,
              "vel": 127
            },
            {
              "note": "D#1",
              "pitch": 39,
              "beat": 11.0,
              "dur": 0.5,
              "vel": 127
            },
            {
              "note": "D#1",
              "pitch": 39,
              "beat": 11.5,
              "dur": 0.5,
              "vel": 127
            },
            {
              "note": "A#0",
              "pitch": 34,
              "beat": 12.0,
              "dur": 0.25,
              "vel": 127
            },
            {
              "note": "A#0",
              "pitch": 34,
              "beat": 12.25,
              "dur": 0.5,
              "vel": 127
            },
            {
              "note": "A#0",
              "pitch": 34,
              "beat": 12.75,
              "dur": 0.614,
              "vel": 127
            },
            {
              "note": "A#0",
              "pitch": 34,
              "beat": 13.5,
              "dur": 0.556,
              "vel": 127
            },
            {
              "note": "A#0",
              "pitch": 34,
              "beat": 14.25,
              "dur": 0.584,
              "vel": 127
            },
            {
              "note": "F1",
              "pitch": 41,
              "beat": 15.0,
              "dur": 0.5,
              "vel": 127
            },
            {
              "note": "F1",
              "pitch": 41,
              "beat": 15.5,
              "dur": 0.5,
              "vel": 127
            },
            {
              "note": "F#1",
              "pitch": 42,
              "beat": 16.0,
              "dur": 0.25,
              "vel": 127
            },
            {
              "note": "F#1",
              "pitch": 42,
              "beat": 16.25,
              "dur": 0.5,
              "vel": 127
            },
            {
              "note": "F#1",
              "pitch": 42,
              "beat": 16.75,
              "dur": 0.5,
              "vel": 127
            },
            {
              "note": "F#1",
              "pitch": 42,
              "beat": 17.5,
              "dur": 0.556,
              "vel": 127
            },
            {
              "note": "F#1",
              "pitch": 42,
              "beat": 18.25,
              "dur": 0.584,
              "vel": 127
            },
            {
              "note": "F#1",
              "pitch": 42,
              "beat": 19.0,
              "dur": 0.5,
              "vel": 127
            },
            {
              "note": "F#1",
              "pitch": 42,
              "beat": 19.5,
              "dur": 0.5,
              "vel": 127
            },
            {
              "note": "C#1",
              "pitch": 37,
              "beat": 20.0,
              "dur": 0.25,
              "vel": 127
            },
            {
              "note": "C#1",
              "pitch": 37,
              "beat": 20.25,
              "dur": 0.5,
              "vel": 127
            },
            {
              "note": "C#1",
              "pitch": 37,
              "beat": 20.75,
              "dur": 0.5,
              "vel": 127
            },
            {
              "note": "C#1",
              "pitch": 37,
              "beat": 21.5,
              "dur": 0.556,
              "vel": 127
            },
            {
              "note": "C#1",
              "pitch": 37,
              "beat": 22.25,
              "dur": 0.584,
              "vel": 127
            },
            {
              "note": "G#1",
              "pitch": 44,
              "beat": 23.0,
              "dur": 0.373,
              "vel": 127
            },
            {
              "note": "G#1",
              "pitch": 44,
              "beat": 23.5,
              "dur": 0.373,
              "vel": 127
            },
            {
              "note": "D#1",
              "pitch": 39,
              "beat": 24.0,
              "dur": 0.25,
              "vel": 127
            },
            {
              "note": "D#1",
              "pitch": 39,
              "beat": 24.25,
              "dur": 0.5,
              "vel": 127
            },
            {
              "note": "D#1",
              "pitch": 39,
              "beat": 24.75,
              "dur": 0.5,
              "vel": 127
            },
            {
              "note": "D#1",
              "pitch": 39,
              "beat": 25.5,
              "dur": 0.556,
              "vel": 127
            },
            {
              "note": "D#1",
              "pitch": 39,
              "beat": 26.25,
              "dur": 0.584,
              "vel": 127
            },
            {
              "note": "D#1",
              "pitch": 39,
              "beat": 27.0,
              "dur": 0.5,
              "vel": 127
            },
            {
              "note": "G#1",
              "pitch": 44,
              "beat": 27.5,
              "dur": 0.5,
              "vel": 127
            },
            {
              "note": "A#1",
              "pitch": 46,
              "beat": 28.0,
              "dur": 0.25,
              "vel": 127
            },
            {
              "note": "A#1",
              "pitch": 46,
              "beat": 28.25,
              "dur": 0.5,
              "vel": 127
            },
            {
              "note": "A#1",
              "pitch": 46,
              "beat": 28.75,
              "dur": 0.614,
              "vel": 127
            },
            {
              "note": "A#1",
              "pitch": 46,
              "beat": 29.5,
              "dur": 0.556,
              "vel": 127
            },
            {
              "note": "A#1",
              "pitch": 46,
              "beat": 30.25,
              "dur": 0.584,
              "vel": 127
            },
            {
              "note": "F1",
              "pitch": 41,
              "beat": 31.0,
              "dur": 0.5,
              "vel": 127
            },
            {
              "note": "F1",
              "pitch": 41,
              "beat": 31.5,
              "dur": 0.5,
              "vel": 127
            }
          ]
        },
        {
          "bar_start": 127.0,
          "bar_end": 128.0,
          "name": "",
          "notes": [
            {
              "note": "F#1",
              "pitch": 42,
              "beat": 0.0,
              "dur": 0.25,
              "vel": 127
            },
            {
              "note": "F#1",
              "pitch": 42,
              "beat": 0.25,
              "dur": 0.5,
              "vel": 127
            },
            {
              "note": "F#1",
              "pitch": 42,
              "beat": 0.75,
              "dur": 0.5,
              "vel": 127
            },
            {
              "note": "F#1",
              "pitch": 42,
              "beat": 1.5,
              "dur": 0.556,
              "vel": 127
            },
            {
              "note": "F#1",
              "pitch": 42,
              "beat": 2.25,
              "dur": 0.584,
              "vel": 127
            },
            {
              "note": "F#1",
              "pitch": 42,
              "beat": 3.0,
              "dur": 0.5,
              "vel": 127
            },
            {
              "note": "F#1",
              "pitch": 42,
              "beat": 3.5,
              "dur": 0.5,
              "vel": 127
            },
            {
              "note": "C#1",
              "pitch": 37,
              "beat": 4.0,
              "dur": 0.25,
              "vel": 127
            },
            {
              "note": "C#1",
              "pitch": 37,
              "beat": 4.25,
              "dur": 0.5,
              "vel": 127
            },
            {
              "note": "C#1",
              "pitch": 37,
              "beat": 4.75,
              "dur": 0.5,
              "vel": 127
            },
            {
              "note": "C#1",
              "pitch": 37,
              "beat": 5.5,
              "dur": 0.556,
              "vel": 127
            },
            {
              "note": "C#1",
              "pitch": 37,
              "beat": 6.25,
              "dur": 0.584,
              "vel": 127
            },
            {
              "note": "C#1",
              "pitch": 37,
              "beat": 7.0,
              "dur": 0.5,
              "vel": 127
            },
            {
              "note": "C#1",
              "pitch": 37,
              "beat": 7.5,
              "dur": 0.5,
              "vel": 127
            },
            {
              "note": "D#1",
              "pitch": 39,
              "beat": 8.0,
              "dur": 0.25,
              "vel": 127
            },
            {
              "note": "D#1",
              "pitch": 39,
              "beat": 8.25,
              "dur": 0.5,
              "vel": 127
            },
            {
              "note": "D#1",
              "pitch": 39,
              "beat": 8.75,
              "dur": 0.5,
              "vel": 127
            },
            {
              "note": "D#1",
              "pitch": 39,
              "beat": 9.5,
              "dur": 0.556,
              "vel": 127
            },
            {
              "note": "D#1",
              "pitch": 39,
              "beat": 10.25,
              "dur": 0.584,
              "vel": 127
            },
            {
              "note": "D#1",
              "pitch": 39,
              "beat": 11.0,
              "dur": 0.5,
              "vel": 127
            },
            {
              "note": "D#1",
              "pitch": 39,
              "beat": 11.5,
              "dur": 0.5,
              "vel": 127
            },
            {
              "note": "A#0",
              "pitch": 34,
              "beat": 12.0,
              "dur": 0.25,
              "vel": 127
            },
            {
              "note": "A#0",
              "pitch": 34,
              "beat": 12.25,
              "dur": 0.5,
              "vel": 127
            },
            {
              "note": "A#0",
              "pitch": 34,
              "beat": 12.75,
              "dur": 0.614,
              "vel": 127
            },
            {
              "note": "A#0",
              "pitch": 34,
              "beat": 13.5,
              "dur": 0.556,
              "vel": 127
            },
            {
              "note": "A#0",
              "pitch": 34,
              "beat": 14.25,
              "dur": 0.584,
              "vel": 127
            },
            {
              "note": "F1",
              "pitch": 41,
              "beat": 15.0,
              "dur": 0.5,
              "vel": 127
            },
            {
              "note": "F1",
              "pitch": 41,
              "beat": 15.5,
              "dur": 0.5,
              "vel": 127
            },
            {
              "note": "F#1",
              "pitch": 42,
              "beat": 16.0,
              "dur": 0.25,
              "vel": 127
            },
            {
              "note": "F#1",
              "pitch": 42,
              "beat": 16.25,
              "dur": 0.5,
              "vel": 127
            },
            {
              "note": "F#1",
              "pitch": 42,
              "beat": 16.75,
              "dur": 0.5,
              "vel": 127
            },
            {
              "note": "F#1",
              "pitch": 42,
              "beat": 17.5,
              "dur": 0.556,
              "vel": 127
            },
            {
              "note": "F#1",
              "pitch": 42,
              "beat": 18.25,
              "dur": 0.584,
              "vel": 127
            },
            {
              "note": "F#1",
              "pitch": 42,
              "beat": 19.0,
              "dur": 0.5,
              "vel": 127
            },
            {
              "note": "F#1",
              "pitch": 42,
              "beat": 19.5,
              "dur": 0.5,
              "vel": 127
            },
            {
              "note": "C#1",
              "pitch": 37,
              "beat": 20.0,
              "dur": 0.25,
              "vel": 127
            },
            {
              "note": "C#1",
              "pitch": 37,
              "beat": 20.25,
              "dur": 0.5,
              "vel": 127
            },
            {
              "note": "C#1",
              "pitch": 37,
              "beat": 20.75,
              "dur": 0.5,
              "vel": 127
            },
            {
              "note": "C#1",
              "pitch": 37,
              "beat": 21.5,
              "dur": 0.556,
              "vel": 127
            },
            {
              "note": "C#1",
              "pitch": 37,
              "beat": 22.25,
              "dur": 0.584,
              "vel": 127
            },
            {
              "note": "G#1",
              "pitch": 44,
              "beat": 23.0,
              "dur": 0.373,
              "vel": 127
            },
            {
              "note": "G#1",
              "pitch": 44,
              "beat": 23.5,
              "dur": 0.373,
              "vel": 127
            },
            {
              "note": "D#1",
              "pitch": 39,
              "beat": 24.0,
              "dur": 0.25,
              "vel": 127
            },
            {
              "note": "D#1",
              "pitch": 39,
              "beat": 24.25,
              "dur": 0.5,
              "vel": 127
            },
            {
              "note": "D#1",
              "pitch": 39,
              "beat": 24.75,
              "dur": 0.5,
              "vel": 127
            },
            {
              "note": "D#1",
              "pitch": 39,
              "beat": 25.5,
              "dur": 0.556,
              "vel": 127
            },
            {
              "note": "D#1",
              "pitch": 39,
              "beat": 26.25,
              "dur": 0.584,
              "vel": 127
            },
            {
              "note": "D#1",
              "pitch": 39,
              "beat": 27.0,
              "dur": 0.5,
              "vel": 127
            },
            {
              "note": "G#1",
              "pitch": 44,
              "beat": 27.5,
              "dur": 0.5,
              "vel": 127
            },
            {
              "note": "A#1",
              "pitch": 46,
              "beat": 28.0,
              "dur": 0.25,
              "vel": 127
            },
            {
              "note": "A#1",
              "pitch": 46,
              "beat": 28.25,
              "dur": 0.5,
              "vel": 127
            },
            {
              "note": "A#1",
              "pitch": 46,
              "beat": 28.75,
              "dur": 0.614,
              "vel": 127
            },
            {
              "note": "A#1",
              "pitch": 46,
              "beat": 29.5,
              "dur": 0.556,
              "vel": 127
            },
            {
              "note": "A#1",
              "pitch": 46,
              "beat": 30.25,
              "dur": 0.584,
              "vel": 127
            },
            {
              "note": "F1",
              "pitch": 41,
              "beat": 31.0,
              "dur": 0.5,
              "vel": 127
            },
            {
              "note": "F1",
              "pitch": 41,
              "beat": 31.5,
              "dur": 0.5,
              "vel": 127
            }
          ]
        },
        {
          "bar_start": 128.0,
          "bar_end": 128.25,
          "name": "",
          "notes": [
            {
              "note": "F#1",
              "pitch": 42,
              "beat": 0.0,
              "dur": 0.25,
              "vel": 127
            },
            {
              "note": "F#1",
              "pitch": 42,
              "beat": 0.25,
              "dur": 0.5,
              "vel": 127
            },
            {
              "note": "F#1",
              "pitch": 42,
              "beat": 0.75,
              "dur": 0.5,
              "vel": 127
            },
            {
              "note": "F#1",
              "pitch": 42,
              "beat": 1.5,
              "dur": 0.556,
              "vel": 127
            },
            {
              "note": "F#1",
              "pitch": 42,
              "beat": 2.25,
              "dur": 0.584,
              "vel": 127
            },
            {
              "note": "F#1",
              "pitch": 42,
              "beat": 3.0,
              "dur": 0.5,
              "vel": 127
            },
            {
              "note": "F#1",
              "pitch": 42,
              "beat": 3.5,
              "dur": 0.5,
              "vel": 127
            },
            {
              "note": "C#1",
              "pitch": 37,
              "beat": 4.0,
              "dur": 0.25,
              "vel": 127
            },
            {
              "note": "C#1",
              "pitch": 37,
              "beat": 4.25,
              "dur": 0.5,
              "vel": 127
            },
            {
              "note": "C#1",
              "pitch": 37,
              "beat": 4.75,
              "dur": 0.5,
              "vel": 127
            },
            {
              "note": "C#1",
              "pitch": 37,
              "beat": 5.5,
              "dur": 0.556,
              "vel": 127
            },
            {
              "note": "C#1",
              "pitch": 37,
              "beat": 6.25,
              "dur": 0.584,
              "vel": 127
            },
            {
              "note": "C#1",
              "pitch": 37,
              "beat": 7.0,
              "dur": 0.5,
              "vel": 127
            },
            {
              "note": "C#1",
              "pitch": 37,
              "beat": 7.5,
              "dur": 0.5,
              "vel": 127
            },
            {
              "note": "D#1",
              "pitch": 39,
              "beat": 8.0,
              "dur": 0.25,
              "vel": 127
            },
            {
              "note": "D#1",
              "pitch": 39,
              "beat": 8.25,
              "dur": 0.5,
              "vel": 127
            },
            {
              "note": "D#1",
              "pitch": 39,
              "beat": 8.75,
              "dur": 0.5,
              "vel": 127
            },
            {
              "note": "D#1",
              "pitch": 39,
              "beat": 9.5,
              "dur": 0.556,
              "vel": 127
            },
            {
              "note": "D#1",
              "pitch": 39,
              "beat": 10.25,
              "dur": 0.584,
              "vel": 127
            },
            {
              "note": "D#1",
              "pitch": 39,
              "beat": 11.0,
              "dur": 0.5,
              "vel": 127
            },
            {
              "note": "D#1",
              "pitch": 39,
              "beat": 11.5,
              "dur": 0.5,
              "vel": 127
            },
            {
              "note": "A#0",
              "pitch": 34,
              "beat": 12.0,
              "dur": 0.25,
              "vel": 127
            },
            {
              "note": "A#0",
              "pitch": 34,
              "beat": 12.25,
              "dur": 0.5,
              "vel": 127
            },
            {
              "note": "A#0",
              "pitch": 34,
              "beat": 12.75,
              "dur": 0.614,
              "vel": 127
            },
            {
              "note": "A#0",
              "pitch": 34,
              "beat": 13.5,
              "dur": 0.556,
              "vel": 127
            },
            {
              "note": "A#0",
              "pitch": 34,
              "beat": 14.25,
              "dur": 0.584,
              "vel": 127
            },
            {
              "note": "F1",
              "pitch": 41,
              "beat": 15.0,
              "dur": 0.5,
              "vel": 127
            },
            {
              "note": "F1",
              "pitch": 41,
              "beat": 15.5,
              "dur": 0.5,
              "vel": 127
            },
            {
              "note": "F#1",
              "pitch": 42,
              "beat": 16.0,
              "dur": 0.25,
              "vel": 127
            },
            {
              "note": "F#1",
              "pitch": 42,
              "beat": 16.25,
              "dur": 0.5,
              "vel": 127
            },
            {
              "note": "F#1",
              "pitch": 42,
              "beat": 16.75,
              "dur": 0.5,
              "vel": 127
            },
            {
              "note": "F#1",
              "pitch": 42,
              "beat": 17.5,
              "dur": 0.556,
              "vel": 127
            },
            {
              "note": "F#1",
              "pitch": 42,
              "beat": 18.25,
              "dur": 0.584,
              "vel": 127
            },
            {
              "note": "F#1",
              "pitch": 42,
              "beat": 19.0,
              "dur": 0.5,
              "vel": 127
            },
            {
              "note": "F#1",
              "pitch": 42,
              "beat": 19.5,
              "dur": 0.5,
              "vel": 127
            },
            {
              "note": "C#1",
              "pitch": 37,
              "beat": 20.0,
              "dur": 0.25,
              "vel": 127
            },
            {
              "note": "C#1",
              "pitch": 37,
              "beat": 20.25,
              "dur": 0.5,
              "vel": 127
            },
            {
              "note": "C#1",
              "pitch": 37,
              "beat": 20.75,
              "dur": 0.5,
              "vel": 127
            },
            {
              "note": "C#1",
              "pitch": 37,
              "beat": 21.5,
              "dur": 0.556,
              "vel": 127
            },
            {
              "note": "C#1",
              "pitch": 37,
              "beat": 22.25,
              "dur": 0.584,
              "vel": 127
            },
            {
              "note": "G#1",
              "pitch": 44,
              "beat": 23.0,
              "dur": 0.373,
              "vel": 127
            },
            {
              "note": "G#1",
              "pitch": 44,
              "beat": 23.5,
              "dur": 0.373,
              "vel": 127
            },
            {
              "note": "D#1",
              "pitch": 39,
              "beat": 24.0,
              "dur": 0.25,
              "vel": 127
            },
            {
              "note": "D#1",
              "pitch": 39,
              "beat": 24.25,
              "dur": 0.5,
              "vel": 127
            },
            {
              "note": "D#1",
              "pitch": 39,
              "beat": 24.75,
              "dur": 0.5,
              "vel": 127
            },
            {
              "note": "D#1",
              "pitch": 39,
              "beat": 25.5,
              "dur": 0.556,
              "vel": 127
            },
            {
              "note": "D#1",
              "pitch": 39,
              "beat": 26.25,
              "dur": 0.584,
              "vel": 127
            },
            {
              "note": "D#1",
              "pitch": 39,
              "beat": 27.0,
              "dur": 0.5,
              "vel": 127
            },
            {
              "note": "G#1",
              "pitch": 44,
              "beat": 27.5,
              "dur": 0.5,
              "vel": 127
            },
            {
              "note": "A#1",
              "pitch": 46,
              "beat": 28.0,
              "dur": 0.25,
              "vel": 127
            },
            {
              "note": "A#1",
              "pitch": 46,
              "beat": 28.25,
              "dur": 0.5,
              "vel": 127
            },
            {
              "note": "A#1",
              "pitch": 46,
              "beat": 28.75,
              "dur": 0.614,
              "vel": 127
            },
            {
              "note": "A#1",
              "pitch": 46,
              "beat": 29.5,
              "dur": 0.556,
              "vel": 127
            },
            {
              "note": "A#1",
              "pitch": 46,
              "beat": 30.25,
              "dur": 0.584,
              "vel": 127
            },
            {
              "note": "F1",
              "pitch": 41,
              "beat": 31.0,
              "dur": 0.5,
              "vel": 127
            },
            {
              "note": "F1",
              "pitch": 41,
              "beat": 31.5,
              "dur": 0.5,
              "vel": 127
            }
          ]
        },
        {
          "bar_start": 129.0,
          "bar_end": 129.25,
          "name": "",
          "notes": [
            {
              "note": "F#1",
              "pitch": 42,
              "beat": 0.0,
              "dur": 0.25,
              "vel": 127
            },
            {
              "note": "F#1",
              "pitch": 42,
              "beat": 0.25,
              "dur": 0.5,
              "vel": 127
            },
            {
              "note": "F#1",
              "pitch": 42,
              "beat": 0.75,
              "dur": 0.5,
              "vel": 127
            },
            {
              "note": "F#1",
              "pitch": 42,
              "beat": 1.5,
              "dur": 0.556,
              "vel": 127
            },
            {
              "note": "F#1",
              "pitch": 42,
              "beat": 2.25,
              "dur": 0.584,
              "vel": 127
            },
            {
              "note": "F#1",
              "pitch": 42,
              "beat": 3.0,
              "dur": 0.5,
              "vel": 127
            },
            {
              "note": "F#1",
              "pitch": 42,
              "beat": 3.5,
              "dur": 0.5,
              "vel": 127
            },
            {
              "note": "C#1",
              "pitch": 37,
              "beat": 4.0,
              "dur": 0.25,
              "vel": 127
            },
            {
              "note": "C#1",
              "pitch": 37,
              "beat": 4.25,
              "dur": 0.5,
              "vel": 127
            },
            {
              "note": "C#1",
              "pitch": 37,
              "beat": 4.75,
              "dur": 0.5,
              "vel": 127
            },
            {
              "note": "C#1",
              "pitch": 37,
              "beat": 5.5,
              "dur": 0.556,
              "vel": 127
            },
            {
              "note": "C#1",
              "pitch": 37,
              "beat": 6.25,
              "dur": 0.584,
              "vel": 127
            },
            {
              "note": "C#1",
              "pitch": 37,
              "beat": 7.0,
              "dur": 0.5,
              "vel": 127
            },
            {
              "note": "C#1",
              "pitch": 37,
              "beat": 7.5,
              "dur": 0.5,
              "vel": 127
            },
            {
              "note": "D#1",
              "pitch": 39,
              "beat": 8.0,
              "dur": 0.25,
              "vel": 127
            },
            {
              "note": "D#1",
              "pitch": 39,
              "beat": 8.25,
              "dur": 0.5,
              "vel": 127
            },
            {
              "note": "D#1",
              "pitch": 39,
              "beat": 8.75,
              "dur": 0.5,
              "vel": 127
            },
            {
              "note": "D#1",
              "pitch": 39,
              "beat": 9.5,
              "dur": 0.556,
              "vel": 127
            },
            {
              "note": "D#1",
              "pitch": 39,
              "beat": 10.25,
              "dur": 0.584,
              "vel": 127
            },
            {
              "note": "D#1",
              "pitch": 39,
              "beat": 11.0,
              "dur": 0.5,
              "vel": 127
            },
            {
              "note": "D#1",
              "pitch": 39,
              "beat": 11.5,
              "dur": 0.5,
              "vel": 127
            },
            {
              "note": "A#0",
              "pitch": 34,
              "beat": 12.0,
              "dur": 0.25,
              "vel": 127
            },
            {
              "note": "A#0",
              "pitch": 34,
              "beat": 12.25,
              "dur": 0.5,
              "vel": 127
            },
            {
              "note": "A#0",
              "pitch": 34,
              "beat": 12.75,
              "dur": 0.614,
              "vel": 127
            },
            {
              "note": "A#0",
              "pitch": 34,
              "beat": 13.5,
              "dur": 0.556,
              "vel": 127
            },
            {
              "note": "A#0",
              "pitch": 34,
              "beat": 14.25,
              "dur": 0.584,
              "vel": 127
            },
            {
              "note": "F1",
              "pitch": 41,
              "beat": 15.0,
              "dur": 0.5,
              "vel": 127
            },
            {
              "note": "F1",
              "pitch": 41,
              "beat": 15.5,
              "dur": 0.5,
              "vel": 127
            },
            {
              "note": "F#1",
              "pitch": 42,
              "beat": 16.0,
              "dur": 0.25,
              "vel": 127
            },
            {
              "note": "F#1",
              "pitch": 42,
              "beat": 16.25,
              "dur": 0.5,
              "vel": 127
            },
            {
              "note": "F#1",
              "pitch": 42,
              "beat": 16.75,
              "dur": 0.5,
              "vel": 127
            },
            {
              "note": "F#1",
              "pitch": 42,
              "beat": 17.5,
              "dur": 0.556,
              "vel": 127
            },
            {
              "note": "F#1",
              "pitch": 42,
              "beat": 18.25,
              "dur": 0.584,
              "vel": 127
            },
            {
              "note": "F#1",
              "pitch": 42,
              "beat": 19.0,
              "dur": 0.5,
              "vel": 127
            },
            {
              "note": "F#1",
              "pitch": 42,
              "beat": 19.5,
              "dur": 0.5,
              "vel": 127
            },
            {
              "note": "C#1",
              "pitch": 37,
              "beat": 20.0,
              "dur": 0.25,
              "vel": 127
            },
            {
              "note": "C#1",
              "pitch": 37,
              "beat": 20.25,
              "dur": 0.5,
              "vel": 127
            },
            {
              "note": "C#1",
              "pitch": 37,
              "beat": 20.75,
              "dur": 0.5,
              "vel": 127
            },
            {
              "note": "C#1",
              "pitch": 37,
              "beat": 21.5,
              "dur": 0.556,
              "vel": 127
            },
            {
              "note": "C#1",
              "pitch": 37,
              "beat": 22.25,
              "dur": 0.584,
              "vel": 127
            },
            {
              "note": "G#1",
              "pitch": 44,
              "beat": 23.0,
              "dur": 0.373,
              "vel": 127
            },
            {
              "note": "G#1",
              "pitch": 44,
              "beat": 23.5,
              "dur": 0.373,
              "vel": 127
            },
            {
              "note": "D#1",
              "pitch": 39,
              "beat": 24.0,
              "dur": 0.25,
              "vel": 127
            },
            {
              "note": "D#1",
              "pitch": 39,
              "beat": 24.25,
              "dur": 0.5,
              "vel": 127
            },
            {
              "note": "D#1",
              "pitch": 39,
              "beat": 24.75,
              "dur": 0.5,
              "vel": 127
            },
            {
              "note": "D#1",
              "pitch": 39,
              "beat": 25.5,
              "dur": 0.556,
              "vel": 127
            },
            {
              "note": "D#1",
              "pitch": 39,
              "beat": 26.25,
              "dur": 0.584,
              "vel": 127
            },
            {
              "note": "D#1",
              "pitch": 39,
              "beat": 27.0,
              "dur": 0.5,
              "vel": 127
            },
            {
              "note": "G#1",
              "pitch": 44,
              "beat": 27.5,
              "dur": 0.5,
              "vel": 127
            },
            {
              "note": "A#1",
              "pitch": 46,
              "beat": 28.0,
              "dur": 0.25,
              "vel": 127
            },
            {
              "note": "A#1",
              "pitch": 46,
              "beat": 28.25,
              "dur": 0.5,
              "vel": 127
            },
            {
              "note": "A#1",
              "pitch": 46,
              "beat": 28.75,
              "dur": 0.614,
              "vel": 127
            },
            {
              "note": "A#1",
              "pitch": 46,
              "beat": 29.5,
              "dur": 0.556,
              "vel": 127
            },
            {
              "note": "A#1",
              "pitch": 46,
              "beat": 30.25,
              "dur": 0.584,
              "vel": 127
            },
            {
              "note": "F1",
              "pitch": 41,
              "beat": 31.0,
              "dur": 0.5,
              "vel": 127
            },
            {
              "note": "F1",
              "pitch": 41,
              "beat": 31.5,
              "dur": 0.5,
              "vel": 127
            }
          ]
        },
        {
          "bar_start": 130.0,
          "bar_end": 130.25,
          "name": "",
          "notes": [
            {
              "note": "F#1",
              "pitch": 42,
              "beat": 0.0,
              "dur": 0.25,
              "vel": 127
            },
            {
              "note": "F#1",
              "pitch": 42,
              "beat": 0.25,
              "dur": 0.5,
              "vel": 127
            },
            {
              "note": "F#1",
              "pitch": 42,
              "beat": 0.75,
              "dur": 0.5,
              "vel": 127
            },
            {
              "note": "F#1",
              "pitch": 42,
              "beat": 1.5,
              "dur": 0.556,
              "vel": 127
            },
            {
              "note": "F#1",
              "pitch": 42,
              "beat": 2.25,
              "dur": 0.584,
              "vel": 127
            },
            {
              "note": "F#1",
              "pitch": 42,
              "beat": 3.0,
              "dur": 0.5,
              "vel": 127
            },
            {
              "note": "F#1",
              "pitch": 42,
              "beat": 3.5,
              "dur": 0.5,
              "vel": 127
            },
            {
              "note": "C#1",
              "pitch": 37,
              "beat": 4.0,
              "dur": 0.25,
              "vel": 127
            },
            {
              "note": "C#1",
              "pitch": 37,
              "beat": 4.25,
              "dur": 0.5,
              "vel": 127
            },
            {
              "note": "C#1",
              "pitch": 37,
              "beat": 4.75,
              "dur": 0.5,
              "vel": 127
            },
            {
              "note": "C#1",
              "pitch": 37,
              "beat": 5.5,
              "dur": 0.556,
              "vel": 127
            },
            {
              "note": "C#1",
              "pitch": 37,
              "beat": 6.25,
              "dur": 0.584,
              "vel": 127
            },
            {
              "note": "C#1",
              "pitch": 37,
              "beat": 7.0,
              "dur": 0.5,
              "vel": 127
            },
            {
              "note": "C#1",
              "pitch": 37,
              "beat": 7.5,
              "dur": 0.5,
              "vel": 127
            },
            {
              "note": "D#1",
              "pitch": 39,
              "beat": 8.0,
              "dur": 0.25,
              "vel": 127
            },
            {
              "note": "D#1",
              "pitch": 39,
              "beat": 8.25,
              "dur": 0.5,
              "vel": 127
            },
            {
              "note": "D#1",
              "pitch": 39,
              "beat": 8.75,
              "dur": 0.5,
              "vel": 127
            },
            {
              "note": "D#1",
              "pitch": 39,
              "beat": 9.5,
              "dur": 0.556,
              "vel": 127
            },
            {
              "note": "D#1",
              "pitch": 39,
              "beat": 10.25,
              "dur": 0.584,
              "vel": 127
            },
            {
              "note": "D#1",
              "pitch": 39,
              "beat": 11.0,
              "dur": 0.5,
              "vel": 127
            },
            {
              "note": "D#1",
              "pitch": 39,
              "beat": 11.5,
              "dur": 0.5,
              "vel": 127
            },
            {
              "note": "A#0",
              "pitch": 34,
              "beat": 12.0,
              "dur": 0.25,
              "vel": 127
            },
            {
              "note": "A#0",
              "pitch": 34,
              "beat": 12.25,
              "dur": 0.5,
              "vel": 127
            },
            {
              "note": "A#0",
              "pitch": 34,
              "beat": 12.75,
              "dur": 0.614,
              "vel": 127
            },
            {
              "note": "A#0",
              "pitch": 34,
              "beat": 13.5,
              "dur": 0.556,
              "vel": 127
            },
            {
              "note": "A#0",
              "pitch": 34,
              "beat": 14.25,
              "dur": 0.584,
              "vel": 127
            },
            {
              "note": "F1",
              "pitch": 41,
              "beat": 15.0,
              "dur": 0.5,
              "vel": 127
            },
            {
              "note": "F1",
              "pitch": 41,
              "beat": 15.5,
              "dur": 0.5,
              "vel": 127
            },
            {
              "note": "F#1",
              "pitch": 42,
              "beat": 16.0,
              "dur": 0.25,
              "vel": 127
            },
            {
              "note": "F#1",
              "pitch": 42,
              "beat": 16.25,
              "dur": 0.5,
              "vel": 127
            },
            {
              "note": "F#1",
              "pitch": 42,
              "beat": 16.75,
              "dur": 0.5,
              "vel": 127
            },
            {
              "note": "F#1",
              "pitch": 42,
              "beat": 17.5,
              "dur": 0.556,
              "vel": 127
            },
            {
              "note": "F#1",
              "pitch": 42,
              "beat": 18.25,
              "dur": 0.584,
              "vel": 127
            },
            {
              "note": "F#1",
              "pitch": 42,
              "beat": 19.0,
              "dur": 0.5,
              "vel": 127
            },
            {
              "note": "F#1",
              "pitch": 42,
              "beat": 19.5,
              "dur": 0.5,
              "vel": 127
            },
            {
              "note": "C#1",
              "pitch": 37,
              "beat": 20.0,
              "dur": 0.25,
              "vel": 127
            },
            {
              "note": "C#1",
              "pitch": 37,
              "beat": 20.25,
              "dur": 0.5,
              "vel": 127
            },
            {
              "note": "C#1",
              "pitch": 37,
              "beat": 20.75,
              "dur": 0.5,
              "vel": 127
            },
            {
              "note": "C#1",
              "pitch": 37,
              "beat": 21.5,
              "dur": 0.556,
              "vel": 127
            },
            {
              "note": "C#1",
              "pitch": 37,
              "beat": 22.25,
              "dur": 0.584,
              "vel": 127
            },
            {
              "note": "G#1",
              "pitch": 44,
              "beat": 23.0,
              "dur": 0.373,
              "vel": 127
            },
            {
              "note": "G#1",
              "pitch": 44,
              "beat": 23.5,
              "dur": 0.373,
              "vel": 127
            },
            {
              "note": "D#1",
              "pitch": 39,
              "beat": 24.0,
              "dur": 0.25,
              "vel": 127
            },
            {
              "note": "D#1",
              "pitch": 39,
              "beat": 24.25,
              "dur": 0.5,
              "vel": 127
            },
            {
              "note": "D#1",
              "pitch": 39,
              "beat": 24.75,
              "dur": 0.5,
              "vel": 127
            },
            {
              "note": "D#1",
              "pitch": 39,
              "beat": 25.5,
              "dur": 0.556,
              "vel": 127
            },
            {
              "note": "D#1",
              "pitch": 39,
              "beat": 26.25,
              "dur": 0.584,
              "vel": 127
            },
            {
              "note": "D#1",
              "pitch": 39,
              "beat": 27.0,
              "dur": 0.5,
              "vel": 127
            },
            {
              "note": "G#1",
              "pitch": 44,
              "beat": 27.5,
              "dur": 0.5,
              "vel": 127
            },
            {
              "note": "A#1",
              "pitch": 46,
              "beat": 28.0,
              "dur": 0.25,
              "vel": 127
            },
            {
              "note": "A#1",
              "pitch": 46,
              "beat": 28.25,
              "dur": 0.5,
              "vel": 127
            },
            {
              "note": "A#1",
              "pitch": 46,
              "beat": 28.75,
              "dur": 0.614,
              "vel": 127
            },
            {
              "note": "A#1",
              "pitch": 46,
              "beat": 29.5,
              "dur": 0.556,
              "vel": 127
            },
            {
              "note": "A#1",
              "pitch": 46,
              "beat": 30.25,
              "dur": 0.584,
              "vel": 127
            },
            {
              "note": "F1",
              "pitch": 41,
              "beat": 31.0,
              "dur": 0.5,
              "vel": 127
            },
            {
              "note": "F1",
              "pitch": 41,
              "beat": 31.5,
              "dur": 0.5,
              "vel": 127
            }
          ]
        },
        {
          "bar_start": 131.0,
          "bar_end": 131.25,
          "name": "",
          "notes": [
            {
              "note": "F#1",
              "pitch": 42,
              "beat": 0.0,
              "dur": 0.25,
              "vel": 127
            },
            {
              "note": "F#1",
              "pitch": 42,
              "beat": 0.25,
              "dur": 0.5,
              "vel": 127
            },
            {
              "note": "F#1",
              "pitch": 42,
              "beat": 0.75,
              "dur": 0.5,
              "vel": 127
            },
            {
              "note": "F#1",
              "pitch": 42,
              "beat": 1.5,
              "dur": 0.556,
              "vel": 127
            },
            {
              "note": "F#1",
              "pitch": 42,
              "beat": 2.25,
              "dur": 0.584,
              "vel": 127
            },
            {
              "note": "F#1",
              "pitch": 42,
              "beat": 3.0,
              "dur": 0.5,
              "vel": 127
            },
            {
              "note": "F#1",
              "pitch": 42,
              "beat": 3.5,
              "dur": 0.5,
              "vel": 127
            },
            {
              "note": "C#1",
              "pitch": 37,
              "beat": 4.0,
              "dur": 0.25,
              "vel": 127
            },
            {
              "note": "C#1",
              "pitch": 37,
              "beat": 4.25,
              "dur": 0.5,
              "vel": 127
            },
            {
              "note": "C#1",
              "pitch": 37,
              "beat": 4.75,
              "dur": 0.5,
              "vel": 127
            },
            {
              "note": "C#1",
              "pitch": 37,
              "beat": 5.5,
              "dur": 0.556,
              "vel": 127
            },
            {
              "note": "C#1",
              "pitch": 37,
              "beat": 6.25,
              "dur": 0.584,
              "vel": 127
            },
            {
              "note": "C#1",
              "pitch": 37,
              "beat": 7.0,
              "dur": 0.5,
              "vel": 127
            },
            {
              "note": "C#1",
              "pitch": 37,
              "beat": 7.5,
              "dur": 0.5,
              "vel": 127
            },
            {
              "note": "D#1",
              "pitch": 39,
              "beat": 8.0,
              "dur": 0.25,
              "vel": 127
            },
            {
              "note": "D#1",
              "pitch": 39,
              "beat": 8.25,
              "dur": 0.5,
              "vel": 127
            },
            {
              "note": "D#1",
              "pitch": 39,
              "beat": 8.75,
              "dur": 0.5,
              "vel": 127
            },
            {
              "note": "D#1",
              "pitch": 39,
              "beat": 9.5,
              "dur": 0.556,
              "vel": 127
            },
            {
              "note": "D#1",
              "pitch": 39,
              "beat": 10.25,
              "dur": 0.584,
              "vel": 127
            },
            {
              "note": "D#1",
              "pitch": 39,
              "beat": 11.0,
              "dur": 0.5,
              "vel": 127
            },
            {
              "note": "D#1",
              "pitch": 39,
              "beat": 11.5,
              "dur": 0.5,
              "vel": 127
            },
            {
              "note": "A#0",
              "pitch": 34,
              "beat": 12.0,
              "dur": 0.25,
              "vel": 127
            },
            {
              "note": "A#0",
              "pitch": 34,
              "beat": 12.25,
              "dur": 0.5,
              "vel": 127
            },
            {
              "note": "A#0",
              "pitch": 34,
              "beat": 12.75,
              "dur": 0.614,
              "vel": 127
            },
            {
              "note": "A#0",
              "pitch": 34,
              "beat": 13.5,
              "dur": 0.556,
              "vel": 127
            },
            {
              "note": "A#0",
              "pitch": 34,
              "beat": 14.25,
              "dur": 0.584,
              "vel": 127
            },
            {
              "note": "F1",
              "pitch": 41,
              "beat": 15.0,
              "dur": 0.5,
              "vel": 127
            },
            {
              "note": "F1",
              "pitch": 41,
              "beat": 15.5,
              "dur": 0.5,
              "vel": 127
            },
            {
              "note": "F#1",
              "pitch": 42,
              "beat": 16.0,
              "dur": 0.25,
              "vel": 127
            },
            {
              "note": "F#1",
              "pitch": 42,
              "beat": 16.25,
              "dur": 0.5,
              "vel": 127
            },
            {
              "note": "F#1",
              "pitch": 42,
              "beat": 16.75,
              "dur": 0.5,
              "vel": 127
            },
            {
              "note": "F#1",
              "pitch": 42,
              "beat": 17.5,
              "dur": 0.556,
              "vel": 127
            },
            {
              "note": "F#1",
              "pitch": 42,
              "beat": 18.25,
              "dur": 0.584,
              "vel": 127
            },
            {
              "note": "F#1",
              "pitch": 42,
              "beat": 19.0,
              "dur": 0.5,
              "vel": 127
            },
            {
              "note": "F#1",
              "pitch": 42,
              "beat": 19.5,
              "dur": 0.5,
              "vel": 127
            },
            {
              "note": "C#1",
              "pitch": 37,
              "beat": 20.0,
              "dur": 0.25,
              "vel": 127
            },
            {
              "note": "C#1",
              "pitch": 37,
              "beat": 20.25,
              "dur": 0.5,
              "vel": 127
            },
            {
              "note": "C#1",
              "pitch": 37,
              "beat": 20.75,
              "dur": 0.5,
              "vel": 127
            },
            {
              "note": "C#1",
              "pitch": 37,
              "beat": 21.5,
              "dur": 0.556,
              "vel": 127
            },
            {
              "note": "C#1",
              "pitch": 37,
              "beat": 22.25,
              "dur": 0.584,
              "vel": 127
            },
            {
              "note": "G#1",
              "pitch": 44,
              "beat": 23.0,
              "dur": 0.373,
              "vel": 127
            },
            {
              "note": "G#1",
              "pitch": 44,
              "beat": 23.5,
              "dur": 0.373,
              "vel": 127
            },
            {
              "note": "D#1",
              "pitch": 39,
              "beat": 24.0,
              "dur": 0.25,
              "vel": 127
            },
            {
              "note": "D#1",
              "pitch": 39,
              "beat": 24.25,
              "dur": 0.5,
              "vel": 127
            },
            {
              "note": "D#1",
              "pitch": 39,
              "beat": 24.75,
              "dur": 0.5,
              "vel": 127
            },
            {
              "note": "D#1",
              "pitch": 39,
              "beat": 25.5,
              "dur": 0.556,
              "vel": 127
            },
            {
              "note": "D#1",
              "pitch": 39,
              "beat": 26.25,
              "dur": 0.584,
              "vel": 127
            },
            {
              "note": "D#1",
              "pitch": 39,
              "beat": 27.0,
              "dur": 0.5,
              "vel": 127
            },
            {
              "note": "G#1",
              "pitch": 44,
              "beat": 27.5,
              "dur": 0.5,
              "vel": 127
            },
            {
              "note": "A#1",
              "pitch": 46,
              "beat": 28.0,
              "dur": 0.25,
              "vel": 127
            },
            {
              "note": "A#1",
              "pitch": 46,
              "beat": 28.25,
              "dur": 0.5,
              "vel": 127
            },
            {
              "note": "A#1",
              "pitch": 46,
              "beat": 28.75,
              "dur": 0.614,
              "vel": 127
            },
            {
              "note": "A#1",
              "pitch": 46,
              "beat": 29.5,
              "dur": 0.556,
              "vel": 127
            },
            {
              "note": "A#1",
              "pitch": 46,
              "beat": 30.25,
              "dur": 0.584,
              "vel": 127
            },
            {
              "note": "F1",
              "pitch": 41,
              "beat": 31.0,
              "dur": 0.5,
              "vel": 127
            },
            {
              "note": "F1",
              "pitch": 41,
              "beat": 31.5,
              "dur": 0.5,
              "vel": 127
            }
          ]
        },
        {
          "bar_start": 132.0,
          "bar_end": 132.25,
          "name": "",
          "notes": [
            {
              "note": "F#1",
              "pitch": 42,
              "beat": 0.0,
              "dur": 0.25,
              "vel": 127
            },
            {
              "note": "F#1",
              "pitch": 42,
              "beat": 0.25,
              "dur": 0.5,
              "vel": 127
            },
            {
              "note": "F#1",
              "pitch": 42,
              "beat": 0.75,
              "dur": 0.5,
              "vel": 127
            },
            {
              "note": "F#1",
              "pitch": 42,
              "beat": 1.5,
              "dur": 0.556,
              "vel": 127
            },
            {
              "note": "F#1",
              "pitch": 42,
              "beat": 2.25,
              "dur": 0.584,
              "vel": 127
            },
            {
              "note": "F#1",
              "pitch": 42,
              "beat": 3.0,
              "dur": 0.5,
              "vel": 127
            },
            {
              "note": "F#1",
              "pitch": 42,
              "beat": 3.5,
              "dur": 0.5,
              "vel": 127
            },
            {
              "note": "C#1",
              "pitch": 37,
              "beat": 4.0,
              "dur": 0.25,
              "vel": 127
            },
            {
              "note": "C#1",
              "pitch": 37,
              "beat": 4.25,
              "dur": 0.5,
              "vel": 127
            },
            {
              "note": "C#1",
              "pitch": 37,
              "beat": 4.75,
              "dur": 0.5,
              "vel": 127
            },
            {
              "note": "C#1",
              "pitch": 37,
              "beat": 5.5,
              "dur": 0.556,
              "vel": 127
            },
            {
              "note": "C#1",
              "pitch": 37,
              "beat": 6.25,
              "dur": 0.584,
              "vel": 127
            },
            {
              "note": "C#1",
              "pitch": 37,
              "beat": 7.0,
              "dur": 0.5,
              "vel": 127
            },
            {
              "note": "C#1",
              "pitch": 37,
              "beat": 7.5,
              "dur": 0.5,
              "vel": 127
            },
            {
              "note": "D#1",
              "pitch": 39,
              "beat": 8.0,
              "dur": 0.25,
              "vel": 127
            },
            {
              "note": "D#1",
              "pitch": 39,
              "beat": 8.25,
              "dur": 0.5,
              "vel": 127
            },
            {
              "note": "D#1",
              "pitch": 39,
              "beat": 8.75,
              "dur": 0.5,
              "vel": 127
            },
            {
              "note": "D#1",
              "pitch": 39,
              "beat": 9.5,
              "dur": 0.556,
              "vel": 127
            },
            {
              "note": "D#1",
              "pitch": 39,
              "beat": 10.25,
              "dur": 0.584,
              "vel": 127
            },
            {
              "note": "D#1",
              "pitch": 39,
              "beat": 11.0,
              "dur": 0.5,
              "vel": 127
            },
            {
              "note": "D#1",
              "pitch": 39,
              "beat": 11.5,
              "dur": 0.5,
              "vel": 127
            },
            {
              "note": "A#0",
              "pitch": 34,
              "beat": 12.0,
              "dur": 0.25,
              "vel": 127
            },
            {
              "note": "A#0",
              "pitch": 34,
              "beat": 12.25,
              "dur": 0.5,
              "vel": 127
            },
            {
              "note": "A#0",
              "pitch": 34,
              "beat": 12.75,
              "dur": 0.614,
              "vel": 127
            },
            {
              "note": "A#0",
              "pitch": 34,
              "beat": 13.5,
              "dur": 0.556,
              "vel": 127
            },
            {
              "note": "A#0",
              "pitch": 34,
              "beat": 14.25,
              "dur": 0.584,
              "vel": 127
            },
            {
              "note": "F1",
              "pitch": 41,
              "beat": 15.0,
              "dur": 0.5,
              "vel": 127
            },
            {
              "note": "F1",
              "pitch": 41,
              "beat": 15.5,
              "dur": 0.5,
              "vel": 127
            },
            {
              "note": "F#1",
              "pitch": 42,
              "beat": 16.0,
              "dur": 0.25,
              "vel": 127
            },
            {
              "note": "F#1",
              "pitch": 42,
              "beat": 16.25,
              "dur": 0.5,
              "vel": 127
            },
            {
              "note": "F#1",
              "pitch": 42,
              "beat": 16.75,
              "dur": 0.5,
              "vel": 127
            },
            {
              "note": "F#1",
              "pitch": 42,
              "beat": 17.5,
              "dur": 0.556,
              "vel": 127
            },
            {
              "note": "F#1",
              "pitch": 42,
              "beat": 18.25,
              "dur": 0.584,
              "vel": 127
            },
            {
              "note": "F#1",
              "pitch": 42,
              "beat": 19.0,
              "dur": 0.5,
              "vel": 127
            },
            {
              "note": "F#1",
              "pitch": 42,
              "beat": 19.5,
              "dur": 0.5,
              "vel": 127
            },
            {
              "note": "C#1",
              "pitch": 37,
              "beat": 20.0,
              "dur": 0.25,
              "vel": 127
            },
            {
              "note": "C#1",
              "pitch": 37,
              "beat": 20.25,
              "dur": 0.5,
              "vel": 127
            },
            {
              "note": "C#1",
              "pitch": 37,
              "beat": 20.75,
              "dur": 0.5,
              "vel": 127
            },
            {
              "note": "C#1",
              "pitch": 37,
              "beat": 21.5,
              "dur": 0.556,
              "vel": 127
            },
            {
              "note": "C#1",
              "pitch": 37,
              "beat": 22.25,
              "dur": 0.584,
              "vel": 127
            },
            {
              "note": "G#1",
              "pitch": 44,
              "beat": 23.0,
              "dur": 0.373,
              "vel": 127
            },
            {
              "note": "G#1",
              "pitch": 44,
              "beat": 23.5,
              "dur": 0.373,
              "vel": 127
            },
            {
              "note": "D#1",
              "pitch": 39,
              "beat": 24.0,
              "dur": 0.25,
              "vel": 127
            },
            {
              "note": "D#1",
              "pitch": 39,
              "beat": 24.25,
              "dur": 0.5,
              "vel": 127
            },
            {
              "note": "D#1",
              "pitch": 39,
              "beat": 24.75,
              "dur": 0.5,
              "vel": 127
            },
            {
              "note": "D#1",
              "pitch": 39,
              "beat": 25.5,
              "dur": 0.556,
              "vel": 127
            },
            {
              "note": "D#1",
              "pitch": 39,
              "beat": 26.25,
              "dur": 0.584,
              "vel": 127
            },
            {
              "note": "D#1",
              "pitch": 39,
              "beat": 27.0,
              "dur": 0.5,
              "vel": 127
            },
            {
              "note": "G#1",
              "pitch": 44,
              "beat": 27.5,
              "dur": 0.5,
              "vel": 127
            },
            {
              "note": "A#1",
              "pitch": 46,
              "beat": 28.0,
              "dur": 0.25,
              "vel": 127
            },
            {
              "note": "A#1",
              "pitch": 46,
              "beat": 28.25,
              "dur": 0.5,
              "vel": 127
            },
            {
              "note": "A#1",
              "pitch": 46,
              "beat": 28.75,
              "dur": 0.614,
              "vel": 127
            },
            {
              "note": "A#1",
              "pitch": 46,
              "beat": 29.5,
              "dur": 0.556,
              "vel": 127
            },
            {
              "note": "A#1",
              "pitch": 46,
              "beat": 30.25,
              "dur": 0.584,
              "vel": 127
            },
            {
              "note": "F1",
              "pitch": 41,
              "beat": 31.0,
              "dur": 0.5,
              "vel": 127
            },
            {
              "note": "F1",
              "pitch": 41,
              "beat": 31.5,
              "dur": 0.5,
              "vel": 127
            }
          ]
        },
        {
          "bar_start": 133.0,
          "bar_end": 133.25,
          "name": "",
          "notes": [
            {
              "note": "F#1",
              "pitch": 42,
              "beat": 0.0,
              "dur": 0.25,
              "vel": 127
            },
            {
              "note": "F#1",
              "pitch": 42,
              "beat": 0.25,
              "dur": 0.5,
              "vel": 127
            },
            {
              "note": "F#1",
              "pitch": 42,
              "beat": 0.75,
              "dur": 0.5,
              "vel": 127
            },
            {
              "note": "F#1",
              "pitch": 42,
              "beat": 1.5,
              "dur": 0.556,
              "vel": 127
            },
            {
              "note": "F#1",
              "pitch": 42,
              "beat": 2.25,
              "dur": 0.584,
              "vel": 127
            },
            {
              "note": "F#1",
              "pitch": 42,
              "beat": 3.0,
              "dur": 0.5,
              "vel": 127
            },
            {
              "note": "F#1",
              "pitch": 42,
              "beat": 3.5,
              "dur": 0.5,
              "vel": 127
            },
            {
              "note": "C#1",
              "pitch": 37,
              "beat": 4.0,
              "dur": 0.25,
              "vel": 127
            },
            {
              "note": "C#1",
              "pitch": 37,
              "beat": 4.25,
              "dur": 0.5,
              "vel": 127
            },
            {
              "note": "C#1",
              "pitch": 37,
              "beat": 4.75,
              "dur": 0.5,
              "vel": 127
            },
            {
              "note": "C#1",
              "pitch": 37,
              "beat": 5.5,
              "dur": 0.556,
              "vel": 127
            },
            {
              "note": "C#1",
              "pitch": 37,
              "beat": 6.25,
              "dur": 0.584,
              "vel": 127
            },
            {
              "note": "C#1",
              "pitch": 37,
              "beat": 7.0,
              "dur": 0.5,
              "vel": 127
            },
            {
              "note": "C#1",
              "pitch": 37,
              "beat": 7.5,
              "dur": 0.5,
              "vel": 127
            },
            {
              "note": "D#1",
              "pitch": 39,
              "beat": 8.0,
              "dur": 0.25,
              "vel": 127
            },
            {
              "note": "D#1",
              "pitch": 39,
              "beat": 8.25,
              "dur": 0.5,
              "vel": 127
            },
            {
              "note": "D#1",
              "pitch": 39,
              "beat": 8.75,
              "dur": 0.5,
              "vel": 127
            },
            {
              "note": "D#1",
              "pitch": 39,
              "beat": 9.5,
              "dur": 0.556,
              "vel": 127
            },
            {
              "note": "D#1",
              "pitch": 39,
              "beat": 10.25,
              "dur": 0.584,
              "vel": 127
            },
            {
              "note": "D#1",
              "pitch": 39,
              "beat": 11.0,
              "dur": 0.5,
              "vel": 127
            },
            {
              "note": "D#1",
              "pitch": 39,
              "beat": 11.5,
              "dur": 0.5,
              "vel": 127
            },
            {
              "note": "A#0",
              "pitch": 34,
              "beat": 12.0,
              "dur": 0.25,
              "vel": 127
            },
            {
              "note": "A#0",
              "pitch": 34,
              "beat": 12.25,
              "dur": 0.5,
              "vel": 127
            },
            {
              "note": "A#0",
              "pitch": 34,
              "beat": 12.75,
              "dur": 0.614,
              "vel": 127
            },
            {
              "note": "A#0",
              "pitch": 34,
              "beat": 13.5,
              "dur": 0.556,
              "vel": 127
            },
            {
              "note": "A#0",
              "pitch": 34,
              "beat": 14.25,
              "dur": 0.584,
              "vel": 127
            },
            {
              "note": "F1",
              "pitch": 41,
              "beat": 15.0,
              "dur": 0.5,
              "vel": 127
            },
            {
              "note": "F1",
              "pitch": 41,
              "beat": 15.5,
              "dur": 0.5,
              "vel": 127
            },
            {
              "note": "F#1",
              "pitch": 42,
              "beat": 16.0,
              "dur": 0.25,
              "vel": 127
            },
            {
              "note": "F#1",
              "pitch": 42,
              "beat": 16.25,
              "dur": 0.5,
              "vel": 127
            },
            {
              "note": "F#1",
              "pitch": 42,
              "beat": 16.75,
              "dur": 0.5,
              "vel": 127
            },
            {
              "note": "F#1",
              "pitch": 42,
              "beat": 17.5,
              "dur": 0.556,
              "vel": 127
            },
            {
              "note": "F#1",
              "pitch": 42,
              "beat": 18.25,
              "dur": 0.584,
              "vel": 127
            },
            {
              "note": "F#1",
              "pitch": 42,
              "beat": 19.0,
              "dur": 0.5,
              "vel": 127
            },
            {
              "note": "F#1",
              "pitch": 42,
              "beat": 19.5,
              "dur": 0.5,
              "vel": 127
            },
            {
              "note": "C#1",
              "pitch": 37,
              "beat": 20.0,
              "dur": 0.25,
              "vel": 127
            },
            {
              "note": "C#1",
              "pitch": 37,
              "beat": 20.25,
              "dur": 0.5,
              "vel": 127
            },
            {
              "note": "C#1",
              "pitch": 37,
              "beat": 20.75,
              "dur": 0.5,
              "vel": 127
            },
            {
              "note": "C#1",
              "pitch": 37,
              "beat": 21.5,
              "dur": 0.556,
              "vel": 127
            },
            {
              "note": "C#1",
              "pitch": 37,
              "beat": 22.25,
              "dur": 0.584,
              "vel": 127
            },
            {
              "note": "G#1",
              "pitch": 44,
              "beat": 23.0,
              "dur": 0.373,
              "vel": 127
            },
            {
              "note": "G#1",
              "pitch": 44,
              "beat": 23.5,
              "dur": 0.373,
              "vel": 127
            },
            {
              "note": "D#1",
              "pitch": 39,
              "beat": 24.0,
              "dur": 0.25,
              "vel": 127
            },
            {
              "note": "D#1",
              "pitch": 39,
              "beat": 24.25,
              "dur": 0.5,
              "vel": 127
            },
            {
              "note": "D#1",
              "pitch": 39,
              "beat": 24.75,
              "dur": 0.5,
              "vel": 127
            },
            {
              "note": "D#1",
              "pitch": 39,
              "beat": 25.5,
              "dur": 0.556,
              "vel": 127
            },
            {
              "note": "D#1",
              "pitch": 39,
              "beat": 26.25,
              "dur": 0.584,
              "vel": 127
            },
            {
              "note": "D#1",
              "pitch": 39,
              "beat": 27.0,
              "dur": 0.5,
              "vel": 127
            },
            {
              "note": "G#1",
              "pitch": 44,
              "beat": 27.5,
              "dur": 0.5,
              "vel": 127
            },
            {
              "note": "A#1",
              "pitch": 46,
              "beat": 28.0,
              "dur": 0.25,
              "vel": 127
            },
            {
              "note": "A#1",
              "pitch": 46,
              "beat": 28.25,
              "dur": 0.5,
              "vel": 127
            },
            {
              "note": "A#1",
              "pitch": 46,
              "beat": 28.75,
              "dur": 0.614,
              "vel": 127
            },
            {
              "note": "A#1",
              "pitch": 46,
              "beat": 29.5,
              "dur": 0.556,
              "vel": 127
            },
            {
              "note": "A#1",
              "pitch": 46,
              "beat": 30.25,
              "dur": 0.584,
              "vel": 127
            },
            {
              "note": "F1",
              "pitch": 41,
              "beat": 31.0,
              "dur": 0.5,
              "vel": 127
            },
            {
              "note": "F1",
              "pitch": 41,
              "beat": 31.5,
              "dur": 0.5,
              "vel": 127
            }
          ]
        },
        {
          "bar_start": 136.0,
          "bar_end": 159.0,
          "name": "",
          "notes": [
            {
              "note": "F#1",
              "pitch": 42,
              "beat": 0.0,
              "dur": 0.25,
              "vel": 127
            },
            {
              "note": "F#1",
              "pitch": 42,
              "beat": 0.25,
              "dur": 0.5,
              "vel": 127
            },
            {
              "note": "F#1",
              "pitch": 42,
              "beat": 0.75,
              "dur": 0.5,
              "vel": 127
            },
            {
              "note": "F#1",
              "pitch": 42,
              "beat": 1.5,
              "dur": 0.556,
              "vel": 127
            },
            {
              "note": "F#1",
              "pitch": 42,
              "beat": 2.25,
              "dur": 0.584,
              "vel": 127
            },
            {
              "note": "F#1",
              "pitch": 42,
              "beat": 3.0,
              "dur": 0.5,
              "vel": 127
            },
            {
              "note": "F#1",
              "pitch": 42,
              "beat": 3.5,
              "dur": 0.5,
              "vel": 127
            },
            {
              "note": "C#1",
              "pitch": 37,
              "beat": 4.0,
              "dur": 0.25,
              "vel": 127
            },
            {
              "note": "C#1",
              "pitch": 37,
              "beat": 4.25,
              "dur": 0.5,
              "vel": 127
            },
            {
              "note": "C#1",
              "pitch": 37,
              "beat": 4.75,
              "dur": 0.5,
              "vel": 127
            },
            {
              "note": "C#1",
              "pitch": 37,
              "beat": 5.5,
              "dur": 0.556,
              "vel": 127
            },
            {
              "note": "C#1",
              "pitch": 37,
              "beat": 6.25,
              "dur": 0.584,
              "vel": 127
            },
            {
              "note": "C#1",
              "pitch": 37,
              "beat": 7.0,
              "dur": 0.5,
              "vel": 127
            },
            {
              "note": "C#1",
              "pitch": 37,
              "beat": 7.5,
              "dur": 0.5,
              "vel": 127
            },
            {
              "note": "D#1",
              "pitch": 39,
              "beat": 8.0,
              "dur": 0.25,
              "vel": 127
            },
            {
              "note": "D#1",
              "pitch": 39,
              "beat": 8.25,
              "dur": 0.5,
              "vel": 127
            },
            {
              "note": "D#1",
              "pitch": 39,
              "beat": 8.75,
              "dur": 0.5,
              "vel": 127
            },
            {
              "note": "D#1",
              "pitch": 39,
              "beat": 9.5,
              "dur": 0.556,
              "vel": 127
            },
            {
              "note": "D#1",
              "pitch": 39,
              "beat": 10.25,
              "dur": 0.584,
              "vel": 127
            },
            {
              "note": "D#1",
              "pitch": 39,
              "beat": 11.0,
              "dur": 0.5,
              "vel": 127
            },
            {
              "note": "D#1",
              "pitch": 39,
              "beat": 11.5,
              "dur": 0.5,
              "vel": 127
            },
            {
              "note": "A#0",
              "pitch": 34,
              "beat": 12.0,
              "dur": 0.25,
              "vel": 127
            },
            {
              "note": "A#0",
              "pitch": 34,
              "beat": 12.25,
              "dur": 0.5,
              "vel": 127
            },
            {
              "note": "A#0",
              "pitch": 34,
              "beat": 12.75,
              "dur": 0.614,
              "vel": 127
            },
            {
              "note": "A#0",
              "pitch": 34,
              "beat": 13.5,
              "dur": 0.556,
              "vel": 127
            },
            {
              "note": "A#0",
              "pitch": 34,
              "beat": 14.25,
              "dur": 0.584,
              "vel": 127
            },
            {
              "note": "F1",
              "pitch": 41,
              "beat": 15.0,
              "dur": 0.5,
              "vel": 127
            },
            {
              "note": "F1",
              "pitch": 41,
              "beat": 15.5,
              "dur": 0.5,
              "vel": 127
            },
            {
              "note": "F#1",
              "pitch": 42,
              "beat": 16.0,
              "dur": 0.25,
              "vel": 127
            },
            {
              "note": "F#1",
              "pitch": 42,
              "beat": 16.25,
              "dur": 0.5,
              "vel": 127
            },
            {
              "note": "F#1",
              "pitch": 42,
              "beat": 16.75,
              "dur": 0.5,
              "vel": 127
            },
            {
              "note": "F#1",
              "pitch": 42,
              "beat": 17.5,
              "dur": 0.556,
              "vel": 127
            },
            {
              "note": "F#1",
              "pitch": 42,
              "beat": 18.25,
              "dur": 0.584,
              "vel": 127
            },
            {
              "note": "F#1",
              "pitch": 42,
              "beat": 19.0,
              "dur": 0.5,
              "vel": 127
            },
            {
              "note": "F#1",
              "pitch": 42,
              "beat": 19.5,
              "dur": 0.5,
              "vel": 127
            },
            {
              "note": "C#1",
              "pitch": 37,
              "beat": 20.0,
              "dur": 0.25,
              "vel": 127
            },
            {
              "note": "C#1",
              "pitch": 37,
              "beat": 20.25,
              "dur": 0.5,
              "vel": 127
            },
            {
              "note": "C#1",
              "pitch": 37,
              "beat": 20.75,
              "dur": 0.5,
              "vel": 127
            },
            {
              "note": "C#1",
              "pitch": 37,
              "beat": 21.5,
              "dur": 0.556,
              "vel": 127
            },
            {
              "note": "C#1",
              "pitch": 37,
              "beat": 22.25,
              "dur": 0.584,
              "vel": 127
            },
            {
              "note": "G#1",
              "pitch": 44,
              "beat": 23.0,
              "dur": 0.373,
              "vel": 127
            },
            {
              "note": "G#1",
              "pitch": 44,
              "beat": 23.5,
              "dur": 0.373,
              "vel": 127
            },
            {
              "note": "D#1",
              "pitch": 39,
              "beat": 24.0,
              "dur": 0.25,
              "vel": 127
            },
            {
              "note": "D#1",
              "pitch": 39,
              "beat": 24.25,
              "dur": 0.5,
              "vel": 127
            },
            {
              "note": "D#1",
              "pitch": 39,
              "beat": 24.75,
              "dur": 0.5,
              "vel": 127
            },
            {
              "note": "D#1",
              "pitch": 39,
              "beat": 25.5,
              "dur": 0.556,
              "vel": 127
            },
            {
              "note": "D#1",
              "pitch": 39,
              "beat": 26.25,
              "dur": 0.584,
              "vel": 127
            },
            {
              "note": "D#1",
              "pitch": 39,
              "beat": 27.0,
              "dur": 0.5,
              "vel": 127
            },
            {
              "note": "G#1",
              "pitch": 44,
              "beat": 27.5,
              "dur": 0.5,
              "vel": 127
            },
            {
              "note": "A#1",
              "pitch": 46,
              "beat": 28.0,
              "dur": 0.25,
              "vel": 127
            },
            {
              "note": "A#1",
              "pitch": 46,
              "beat": 28.25,
              "dur": 0.5,
              "vel": 127
            },
            {
              "note": "A#1",
              "pitch": 46,
              "beat": 28.75,
              "dur": 0.614,
              "vel": 127
            },
            {
              "note": "A#1",
              "pitch": 46,
              "beat": 29.5,
              "dur": 0.556,
              "vel": 127
            },
            {
              "note": "A#1",
              "pitch": 46,
              "beat": 30.25,
              "dur": 0.584,
              "vel": 127
            },
            {
              "note": "F1",
              "pitch": 41,
              "beat": 31.0,
              "dur": 0.5,
              "vel": 127
            },
            {
              "note": "F1",
              "pitch": 41,
              "beat": 31.5,
              "dur": 0.5,
              "vel": 127
            }
          ]
        }
      ],
      "automations": [],
      "children": []
    },
    "125": {
      "id": "125",
      "name": "mid bass",
      "type": "MidiTrack",
      "group_id": "95",
      "devices": [
        {
          "type": "PluginDevice",
          "plugin": "Serum_x64",
          "preset": "",
          "vst_params": []
        },
        {
          "type": "Eq8",
          "bands": []
        }
      ],
      "clips": [
        {
          "bar_start": 56.0,
          "bar_end": 71.0,
          "name": "",
          "notes": [
            {
              "note": "F#1",
              "pitch": 42,
              "beat": 0.0,
              "dur": 1.0,
              "vel": 105
            },
            {
              "note": "F#1",
              "pitch": 42,
              "beat": 1.5,
              "dur": 1.0,
              "vel": 105
            },
            {
              "note": "C#1",
              "pitch": 37,
              "beat": 4.01,
              "dur": 1.0,
              "vel": 105
            },
            {
              "note": "C#1",
              "pitch": 37,
              "beat": 5.51,
              "dur": 1.0,
              "vel": 105
            },
            {
              "note": "A#0",
              "pitch": 34,
              "beat": 8.0,
              "dur": 1.0,
              "vel": 105
            },
            {
              "note": "A#0",
              "pitch": 34,
              "beat": 9.5,
              "dur": 1.0,
              "vel": 105
            },
            {
              "note": "C#1",
              "pitch": 37,
              "beat": 12.0,
              "dur": 1.0,
              "vel": 105
            },
            {
              "note": "C#1",
              "pitch": 37,
              "beat": 13.5,
              "dur": 1.0,
              "vel": 105
            },
            {
              "note": "C#1",
              "pitch": 37,
              "beat": 14.5,
              "dur": 1.5,
              "vel": 105
            }
          ]
        },
        {
          "bar_start": 71.0,
          "bar_end": 72.0,
          "name": "",
          "notes": [
            {
              "note": "F#1",
              "pitch": 42,
              "beat": 0.0,
              "dur": 1.0,
              "vel": 105
            },
            {
              "note": "F#1",
              "pitch": 42,
              "beat": 1.5,
              "dur": 1.0,
              "vel": 105
            },
            {
              "note": "C#1",
              "pitch": 37,
              "beat": 4.01,
              "dur": 1.0,
              "vel": 105
            },
            {
              "note": "C#1",
              "pitch": 37,
              "beat": 5.51,
              "dur": 1.0,
              "vel": 105
            },
            {
              "note": "A#0",
              "pitch": 34,
              "beat": 8.0,
              "dur": 1.0,
              "vel": 105
            },
            {
              "note": "A#0",
              "pitch": 34,
              "beat": 9.5,
              "dur": 1.0,
              "vel": 105
            },
            {
              "note": "C#1",
              "pitch": 37,
              "beat": 12.0,
              "dur": 1.0,
              "vel": 105
            },
            {
              "note": "C#1",
              "pitch": 37,
              "beat": 13.5,
              "dur": 1.0,
              "vel": 105
            },
            {
              "note": "C#1",
              "pitch": 37,
              "beat": 14.5,
              "dur": 1.5,
              "vel": 105
            }
          ]
        }
      ],
      "automations": [],
      "children": []
    },
    "102": {
      "id": "102",
      "name": "sub",
      "type": "MidiTrack",
      "group_id": "95",
      "devices": [
        {
          "type": "PluginDevice",
          "plugin": "Serum_x64",
          "preset": "",
          "vst_params": []
        }
      ],
      "clips": [
        {
          "bar_start": 24.0,
          "bar_end": 31.0,
          "name": "",
          "notes": [
            {
              "note": "F#2",
              "pitch": 54,
              "beat": 0.0,
              "dur": 0.25,
              "vel": 127
            },
            {
              "note": "F#2",
              "pitch": 54,
              "beat": 0.25,
              "dur": 0.5,
              "vel": 127
            },
            {
              "note": "F#2",
              "pitch": 54,
              "beat": 0.75,
              "dur": 0.5,
              "vel": 127
            },
            {
              "note": "F#2",
              "pitch": 54,
              "beat": 1.5,
              "dur": 0.556,
              "vel": 127
            },
            {
              "note": "F#2",
              "pitch": 54,
              "beat": 2.25,
              "dur": 0.584,
              "vel": 127
            },
            {
              "note": "F#2",
              "pitch": 54,
              "beat": 3.0,
              "dur": 0.5,
              "vel": 127
            },
            {
              "note": "F#2",
              "pitch": 54,
              "beat": 3.5,
              "dur": 0.5,
              "vel": 127
            },
            {
              "note": "C#2",
              "pitch": 49,
              "beat": 4.0,
              "dur": 0.25,
              "vel": 127
            },
            {
              "note": "C#2",
              "pitch": 49,
              "beat": 4.25,
              "dur": 0.5,
              "vel": 127
            },
            {
              "note": "C#2",
              "pitch": 49,
              "beat": 4.75,
              "dur": 0.5,
              "vel": 127
            },
            {
              "note": "C#2",
              "pitch": 49,
              "beat": 5.5,
              "dur": 0.556,
              "vel": 127
            },
            {
              "note": "C#2",
              "pitch": 49,
              "beat": 6.25,
              "dur": 0.584,
              "vel": 127
            },
            {
              "note": "C#2",
              "pitch": 49,
              "beat": 7.0,
              "dur": 0.5,
              "vel": 127
            },
            {
              "note": "C#2",
              "pitch": 49,
              "beat": 7.5,
              "dur": 0.5,
              "vel": 127
            },
            {
              "note": "D#2",
              "pitch": 51,
              "beat": 8.0,
              "dur": 0.25,
              "vel": 127
            },
            {
              "note": "D#2",
              "pitch": 51,
              "beat": 8.25,
              "dur": 0.5,
              "vel": 127
            },
            {
              "note": "D#2",
              "pitch": 51,
              "beat": 8.75,
              "dur": 0.5,
              "vel": 127
            },
            {
              "note": "D#2",
              "pitch": 51,
              "beat": 9.5,
              "dur": 0.556,
              "vel": 127
            },
            {
              "note": "D#2",
              "pitch": 51,
              "beat": 10.25,
              "dur": 0.584,
              "vel": 127
            },
            {
              "note": "D#2",
              "pitch": 51,
              "beat": 11.0,
              "dur": 0.5,
              "vel": 127
            },
            {
              "note": "D#2",
              "pitch": 51,
              "beat": 11.5,
              "dur": 0.5,
              "vel": 127
            },
            {
              "note": "A#1",
              "pitch": 46,
              "beat": 12.0,
              "dur": 0.25,
              "vel": 127
            },
            {
              "note": "A#1",
              "pitch": 46,
              "beat": 12.25,
              "dur": 0.5,
              "vel": 127
            },
            {
              "note": "A#1",
              "pitch": 46,
              "beat": 12.75,
              "dur": 0.614,
              "vel": 127
            },
            {
              "note": "A#1",
              "pitch": 46,
              "beat": 13.5,
              "dur": 0.556,
              "vel": 127
            },
            {
              "note": "A#1",
              "pitch": 46,
              "beat": 14.25,
              "dur": 0.584,
              "vel": 127
            },
            {
              "note": "F2",
              "pitch": 53,
              "beat": 15.0,
              "dur": 0.5,
              "vel": 127
            },
            {
              "note": "F2",
              "pitch": 53,
              "beat": 15.5,
              "dur": 0.5,
              "vel": 127
            },
            {
              "note": "F#2",
              "pitch": 54,
              "beat": 16.0,
              "dur": 0.25,
              "vel": 127
            },
            {
              "note": "F#2",
              "pitch": 54,
              "beat": 16.25,
              "dur": 0.5,
              "vel": 127
            },
            {
              "note": "F#2",
              "pitch": 54,
              "beat": 16.75,
              "dur": 0.5,
              "vel": 127
            },
            {
              "note": "F#2",
              "pitch": 54,
              "beat": 17.5,
              "dur": 0.556,
              "vel": 127
            },
            {
              "note": "F#2",
              "pitch": 54,
              "beat": 18.25,
              "dur": 0.584,
              "vel": 127
            },
            {
              "note": "F#2",
              "pitch": 54,
              "beat": 19.0,
              "dur": 0.5,
              "vel": 127
            },
            {
              "note": "F#2",
              "pitch": 54,
              "beat": 19.5,
              "dur": 0.5,
              "vel": 127
            },
            {
              "note": "C#2",
              "pitch": 49,
              "beat": 20.0,
              "dur": 0.25,
              "vel": 127
            },
            {
              "note": "C#2",
              "pitch": 49,
              "beat": 20.25,
              "dur": 0.5,
              "vel": 127
            },
            {
              "note": "C#2",
              "pitch": 49,
              "beat": 20.75,
              "dur": 0.5,
              "vel": 127
            },
            {
              "note": "C#2",
              "pitch": 49,
              "beat": 21.5,
              "dur": 0.556,
              "vel": 127
            },
            {
              "note": "C#2",
              "pitch": 49,
              "beat": 22.25,
              "dur": 0.584,
              "vel": 127
            },
            {
              "note": "G#2",
              "pitch": 56,
              "beat": 23.0,
              "dur": 0.373,
              "vel": 127
            },
            {
              "note": "G#2",
              "pitch": 56,
              "beat": 23.5,
              "dur": 0.373,
              "vel": 127
            },
            {
              "note": "D#2",
              "pitch": 51,
              "beat": 24.0,
              "dur": 0.25,
              "vel": 127
            },
            {
              "note": "D#2",
              "pitch": 51,
              "beat": 24.25,
              "dur": 0.5,
              "vel": 127
            },
            {
              "note": "D#2",
              "pitch": 51,
              "beat": 24.75,
              "dur": 0.5,
              "vel": 127
            },
            {
              "note": "D#2",
              "pitch": 51,
              "beat": 25.5,
              "dur": 0.556,
              "vel": 127
            },
            {
              "note": "D#2",
              "pitch": 51,
              "beat": 26.25,
              "dur": 0.584,
              "vel": 127
            },
            {
              "note": "D#2",
              "pitch": 51,
              "beat": 27.0,
              "dur": 0.5,
              "vel": 127
            },
            {
              "note": "G#2",
              "pitch": 56,
              "beat": 27.5,
              "dur": 0.5,
              "vel": 127
            },
            {
              "note": "A#2",
              "pitch": 58,
              "beat": 28.0,
              "dur": 0.25,
              "vel": 127
            },
            {
              "note": "A#2",
              "pitch": 58,
              "beat": 28.25,
              "dur": 0.5,
              "vel": 127
            },
            {
              "note": "A#2",
              "pitch": 58,
              "beat": 28.75,
              "dur": 0.614,
              "vel": 127
            },
            {
              "note": "A#2",
              "pitch": 58,
              "beat": 29.5,
              "dur": 0.556,
              "vel": 127
            },
            {
              "note": "A#2",
              "pitch": 58,
              "beat": 30.25,
              "dur": 0.584,
              "vel": 127
            },
            {
              "note": "F2",
              "pitch": 53,
              "beat": 31.0,
              "dur": 0.5,
              "vel": 127
            },
            {
              "note": "F2",
              "pitch": 53,
              "beat": 31.5,
              "dur": 0.5,
              "vel": 127
            }
          ]
        },
        {
          "bar_start": 32.0,
          "bar_end": 40.0,
          "name": "",
          "notes": [
            {
              "note": "F#2",
              "pitch": 54,
              "beat": 0.0,
              "dur": 0.25,
              "vel": 127
            },
            {
              "note": "F#2",
              "pitch": 54,
              "beat": 0.25,
              "dur": 0.5,
              "vel": 127
            },
            {
              "note": "F#2",
              "pitch": 54,
              "beat": 0.75,
              "dur": 0.5,
              "vel": 127
            },
            {
              "note": "F#2",
              "pitch": 54,
              "beat": 1.5,
              "dur": 0.556,
              "vel": 127
            },
            {
              "note": "F#2",
              "pitch": 54,
              "beat": 2.25,
              "dur": 0.584,
              "vel": 127
            },
            {
              "note": "F#2",
              "pitch": 54,
              "beat": 3.0,
              "dur": 0.5,
              "vel": 127
            },
            {
              "note": "F#2",
              "pitch": 54,
              "beat": 3.5,
              "dur": 0.5,
              "vel": 127
            },
            {
              "note": "C#2",
              "pitch": 49,
              "beat": 4.0,
              "dur": 0.25,
              "vel": 127
            },
            {
              "note": "C#2",
              "pitch": 49,
              "beat": 4.25,
              "dur": 0.5,
              "vel": 127
            },
            {
              "note": "C#2",
              "pitch": 49,
              "beat": 4.75,
              "dur": 0.5,
              "vel": 127
            },
            {
              "note": "C#2",
              "pitch": 49,
              "beat": 5.5,
              "dur": 0.556,
              "vel": 127
            },
            {
              "note": "C#2",
              "pitch": 49,
              "beat": 6.25,
              "dur": 0.584,
              "vel": 127
            },
            {
              "note": "C#2",
              "pitch": 49,
              "beat": 7.0,
              "dur": 0.5,
              "vel": 127
            },
            {
              "note": "C#2",
              "pitch": 49,
              "beat": 7.5,
              "dur": 0.5,
              "vel": 127
            },
            {
              "note": "D#2",
              "pitch": 51,
              "beat": 8.0,
              "dur": 0.25,
              "vel": 127
            },
            {
              "note": "D#2",
              "pitch": 51,
              "beat": 8.25,
              "dur": 0.5,
              "vel": 127
            },
            {
              "note": "D#2",
              "pitch": 51,
              "beat": 8.75,
              "dur": 0.5,
              "vel": 127
            },
            {
              "note": "D#2",
              "pitch": 51,
              "beat": 9.5,
              "dur": 0.556,
              "vel": 127
            },
            {
              "note": "D#2",
              "pitch": 51,
              "beat": 10.25,
              "dur": 0.584,
              "vel": 127
            },
            {
              "note": "D#2",
              "pitch": 51,
              "beat": 11.0,
              "dur": 0.5,
              "vel": 127
            },
            {
              "note": "D#2",
              "pitch": 51,
              "beat": 11.5,
              "dur": 0.5,
              "vel": 127
            },
            {
              "note": "A#1",
              "pitch": 46,
              "beat": 12.0,
              "dur": 0.25,
              "vel": 127
            },
            {
              "note": "A#1",
              "pitch": 46,
              "beat": 12.25,
              "dur": 0.5,
              "vel": 127
            },
            {
              "note": "A#1",
              "pitch": 46,
              "beat": 12.75,
              "dur": 0.614,
              "vel": 127
            },
            {
              "note": "A#1",
              "pitch": 46,
              "beat": 13.5,
              "dur": 0.556,
              "vel": 127
            },
            {
              "note": "A#1",
              "pitch": 46,
              "beat": 14.25,
              "dur": 0.584,
              "vel": 127
            },
            {
              "note": "F2",
              "pitch": 53,
              "beat": 15.0,
              "dur": 0.5,
              "vel": 127
            },
            {
              "note": "F2",
              "pitch": 53,
              "beat": 15.5,
              "dur": 0.5,
              "vel": 127
            },
            {
              "note": "F#2",
              "pitch": 54,
              "beat": 16.0,
              "dur": 0.25,
              "vel": 127
            },
            {
              "note": "F#2",
              "pitch": 54,
              "beat": 16.25,
              "dur": 0.5,
              "vel": 127
            },
            {
              "note": "F#2",
              "pitch": 54,
              "beat": 16.75,
              "dur": 0.5,
              "vel": 127
            },
            {
              "note": "F#2",
              "pitch": 54,
              "beat": 17.5,
              "dur": 0.556,
              "vel": 127
            },
            {
              "note": "F#2",
              "pitch": 54,
              "beat": 18.25,
              "dur": 0.584,
              "vel": 127
            },
            {
              "note": "F#2",
              "pitch": 54,
              "beat": 19.0,
              "dur": 0.5,
              "vel": 127
            },
            {
              "note": "F#2",
              "pitch": 54,
              "beat": 19.5,
              "dur": 0.5,
              "vel": 127
            },
            {
              "note": "C#2",
              "pitch": 49,
              "beat": 20.0,
              "dur": 0.25,
              "vel": 127
            },
            {
              "note": "C#2",
              "pitch": 49,
              "beat": 20.25,
              "dur": 0.5,
              "vel": 127
            },
            {
              "note": "C#2",
              "pitch": 49,
              "beat": 20.75,
              "dur": 0.5,
              "vel": 127
            },
            {
              "note": "C#2",
              "pitch": 49,
              "beat": 21.5,
              "dur": 0.556,
              "vel": 127
            },
            {
              "note": "C#2",
              "pitch": 49,
              "beat": 22.25,
              "dur": 0.584,
              "vel": 127
            },
            {
              "note": "G#2",
              "pitch": 56,
              "beat": 23.0,
              "dur": 0.373,
              "vel": 127
            },
            {
              "note": "G#2",
              "pitch": 56,
              "beat": 23.5,
              "dur": 0.373,
              "vel": 127
            },
            {
              "note": "D#2",
              "pitch": 51,
              "beat": 24.0,
              "dur": 0.25,
              "vel": 127
            },
            {
              "note": "D#2",
              "pitch": 51,
              "beat": 24.25,
              "dur": 0.5,
              "vel": 127
            },
            {
              "note": "D#2",
              "pitch": 51,
              "beat": 24.75,
              "dur": 0.5,
              "vel": 127
            },
            {
              "note": "D#2",
              "pitch": 51,
              "beat": 25.5,
              "dur": 0.556,
              "vel": 127
            },
            {
              "note": "D#2",
              "pitch": 51,
              "beat": 26.25,
              "dur": 0.584,
              "vel": 127
            },
            {
              "note": "D#2",
              "pitch": 51,
              "beat": 27.0,
              "dur": 0.5,
              "vel": 127
            },
            {
              "note": "G#2",
              "pitch": 56,
              "beat": 27.5,
              "dur": 0.5,
              "vel": 127
            },
            {
              "note": "A#2",
              "pitch": 58,
              "beat": 28.0,
              "dur": 0.25,
              "vel": 127
            },
            {
              "note": "A#2",
              "pitch": 58,
              "beat": 28.25,
              "dur": 0.5,
              "vel": 127
            },
            {
              "note": "A#2",
              "pitch": 58,
              "beat": 28.75,
              "dur": 0.614,
              "vel": 127
            },
            {
              "note": "A#2",
              "pitch": 58,
              "beat": 29.5,
              "dur": 0.556,
              "vel": 127
            },
            {
              "note": "A#2",
              "pitch": 58,
              "beat": 30.25,
              "dur": 0.584,
              "vel": 127
            },
            {
              "note": "F2",
              "pitch": 53,
              "beat": 31.0,
              "dur": 0.5,
              "vel": 127
            },
            {
              "note": "F2",
              "pitch": 53,
              "beat": 31.5,
              "dur": 0.5,
              "vel": 127
            }
          ]
        },
        {
          "bar_start": 40.0,
          "bar_end": 48.0,
          "name": "",
          "notes": [
            {
              "note": "F#2",
              "pitch": 54,
              "beat": 0.0,
              "dur": 0.25,
              "vel": 127
            },
            {
              "note": "F#2",
              "pitch": 54,
              "beat": 0.25,
              "dur": 0.5,
              "vel": 127
            },
            {
              "note": "F#2",
              "pitch": 54,
              "beat": 0.75,
              "dur": 0.5,
              "vel": 127
            },
            {
              "note": "F#2",
              "pitch": 54,
              "beat": 1.5,
              "dur": 0.556,
              "vel": 127
            },
            {
              "note": "F#2",
              "pitch": 54,
              "beat": 2.25,
              "dur": 0.584,
              "vel": 127
            },
            {
              "note": "F#2",
              "pitch": 54,
              "beat": 3.0,
              "dur": 0.5,
              "vel": 127
            },
            {
              "note": "F#2",
              "pitch": 54,
              "beat": 3.5,
              "dur": 0.5,
              "vel": 127
            },
            {
              "note": "C#2",
              "pitch": 49,
              "beat": 4.0,
              "dur": 0.25,
              "vel": 127
            },
            {
              "note": "C#2",
              "pitch": 49,
              "beat": 4.25,
              "dur": 0.5,
              "vel": 127
            },
            {
              "note": "C#2",
              "pitch": 49,
              "beat": 4.75,
              "dur": 0.5,
              "vel": 127
            },
            {
              "note": "C#2",
              "pitch": 49,
              "beat": 5.5,
              "dur": 0.556,
              "vel": 127
            },
            {
              "note": "C#2",
              "pitch": 49,
              "beat": 6.25,
              "dur": 0.584,
              "vel": 127
            },
            {
              "note": "C#2",
              "pitch": 49,
              "beat": 7.0,
              "dur": 0.5,
              "vel": 127
            },
            {
              "note": "C#2",
              "pitch": 49,
              "beat": 7.5,
              "dur": 0.5,
              "vel": 127
            },
            {
              "note": "D#2",
              "pitch": 51,
              "beat": 8.0,
              "dur": 0.25,
              "vel": 127
            },
            {
              "note": "D#2",
              "pitch": 51,
              "beat": 8.25,
              "dur": 0.5,
              "vel": 127
            },
            {
              "note": "D#2",
              "pitch": 51,
              "beat": 8.75,
              "dur": 0.5,
              "vel": 127
            },
            {
              "note": "D#2",
              "pitch": 51,
              "beat": 9.5,
              "dur": 0.556,
              "vel": 127
            },
            {
              "note": "D#2",
              "pitch": 51,
              "beat": 10.25,
              "dur": 0.584,
              "vel": 127
            },
            {
              "note": "D#2",
              "pitch": 51,
              "beat": 11.0,
              "dur": 0.5,
              "vel": 127
            },
            {
              "note": "D#2",
              "pitch": 51,
              "beat": 11.5,
              "dur": 0.5,
              "vel": 127
            },
            {
              "note": "A#1",
              "pitch": 46,
              "beat": 12.0,
              "dur": 0.25,
              "vel": 127
            },
            {
              "note": "A#1",
              "pitch": 46,
              "beat": 12.25,
              "dur": 0.5,
              "vel": 127
            },
            {
              "note": "A#1",
              "pitch": 46,
              "beat": 12.75,
              "dur": 0.614,
              "vel": 127
            },
            {
              "note": "A#1",
              "pitch": 46,
              "beat": 13.5,
              "dur": 0.556,
              "vel": 127
            },
            {
              "note": "A#1",
              "pitch": 46,
              "beat": 14.25,
              "dur": 0.584,
              "vel": 127
            },
            {
              "note": "F2",
              "pitch": 53,
              "beat": 15.0,
              "dur": 0.5,
              "vel": 127
            },
            {
              "note": "F2",
              "pitch": 53,
              "beat": 15.5,
              "dur": 0.5,
              "vel": 127
            },
            {
              "note": "F#2",
              "pitch": 54,
              "beat": 16.0,
              "dur": 0.25,
              "vel": 127
            },
            {
              "note": "F#2",
              "pitch": 54,
              "beat": 16.25,
              "dur": 0.5,
              "vel": 127
            },
            {
              "note": "F#2",
              "pitch": 54,
              "beat": 16.75,
              "dur": 0.5,
              "vel": 127
            },
            {
              "note": "F#2",
              "pitch": 54,
              "beat": 17.5,
              "dur": 0.556,
              "vel": 127
            },
            {
              "note": "F#2",
              "pitch": 54,
              "beat": 18.25,
              "dur": 0.584,
              "vel": 127
            },
            {
              "note": "F#2",
              "pitch": 54,
              "beat": 19.0,
              "dur": 0.5,
              "vel": 127
            },
            {
              "note": "F#2",
              "pitch": 54,
              "beat": 19.5,
              "dur": 0.5,
              "vel": 127
            },
            {
              "note": "C#2",
              "pitch": 49,
              "beat": 20.0,
              "dur": 0.25,
              "vel": 127
            },
            {
              "note": "C#2",
              "pitch": 49,
              "beat": 20.25,
              "dur": 0.5,
              "vel": 127
            },
            {
              "note": "C#2",
              "pitch": 49,
              "beat": 20.75,
              "dur": 0.5,
              "vel": 127
            },
            {
              "note": "C#2",
              "pitch": 49,
              "beat": 21.5,
              "dur": 0.556,
              "vel": 127
            },
            {
              "note": "C#2",
              "pitch": 49,
              "beat": 22.25,
              "dur": 0.584,
              "vel": 127
            },
            {
              "note": "G#2",
              "pitch": 56,
              "beat": 23.0,
              "dur": 0.373,
              "vel": 127
            },
            {
              "note": "G#2",
              "pitch": 56,
              "beat": 23.5,
              "dur": 0.373,
              "vel": 127
            },
            {
              "note": "D#2",
              "pitch": 51,
              "beat": 24.0,
              "dur": 0.25,
              "vel": 127
            },
            {
              "note": "D#2",
              "pitch": 51,
              "beat": 24.25,
              "dur": 0.5,
              "vel": 127
            },
            {
              "note": "D#2",
              "pitch": 51,
              "beat": 24.75,
              "dur": 0.5,
              "vel": 127
            },
            {
              "note": "D#2",
              "pitch": 51,
              "beat": 25.5,
              "dur": 0.556,
              "vel": 127
            },
            {
              "note": "D#2",
              "pitch": 51,
              "beat": 26.25,
              "dur": 0.584,
              "vel": 127
            },
            {
              "note": "D#2",
              "pitch": 51,
              "beat": 27.0,
              "dur": 0.5,
              "vel": 127
            },
            {
              "note": "G#2",
              "pitch": 56,
              "beat": 27.5,
              "dur": 0.5,
              "vel": 127
            },
            {
              "note": "A#2",
              "pitch": 58,
              "beat": 28.0,
              "dur": 0.25,
              "vel": 127
            },
            {
              "note": "A#2",
              "pitch": 58,
              "beat": 28.25,
              "dur": 0.5,
              "vel": 127
            },
            {
              "note": "A#2",
              "pitch": 58,
              "beat": 28.75,
              "dur": 0.614,
              "vel": 127
            },
            {
              "note": "A#2",
              "pitch": 58,
              "beat": 29.5,
              "dur": 0.556,
              "vel": 127
            },
            {
              "note": "A#2",
              "pitch": 58,
              "beat": 30.25,
              "dur": 0.584,
              "vel": 127
            },
            {
              "note": "F2",
              "pitch": 53,
              "beat": 31.0,
              "dur": 0.5,
              "vel": 127
            },
            {
              "note": "F2",
              "pitch": 53,
              "beat": 31.5,
              "dur": 0.5,
              "vel": 127
            }
          ]
        },
        {
          "bar_start": 80.0,
          "bar_end": 88.0,
          "name": "",
          "notes": [
            {
              "note": "F#2",
              "pitch": 54,
              "beat": 0.0,
              "dur": 0.25,
              "vel": 127
            },
            {
              "note": "F#2",
              "pitch": 54,
              "beat": 0.25,
              "dur": 0.5,
              "vel": 127
            },
            {
              "note": "F#2",
              "pitch": 54,
              "beat": 0.75,
              "dur": 0.5,
              "vel": 127
            },
            {
              "note": "F#2",
              "pitch": 54,
              "beat": 1.5,
              "dur": 0.556,
              "vel": 127
            },
            {
              "note": "F#2",
              "pitch": 54,
              "beat": 2.25,
              "dur": 0.584,
              "vel": 127
            },
            {
              "note": "F#2",
              "pitch": 54,
              "beat": 3.0,
              "dur": 0.5,
              "vel": 127
            },
            {
              "note": "F#2",
              "pitch": 54,
              "beat": 3.5,
              "dur": 0.5,
              "vel": 127
            },
            {
              "note": "C#2",
              "pitch": 49,
              "beat": 4.0,
              "dur": 0.25,
              "vel": 127
            },
            {
              "note": "C#2",
              "pitch": 49,
              "beat": 4.25,
              "dur": 0.5,
              "vel": 127
            },
            {
              "note": "C#2",
              "pitch": 49,
              "beat": 4.75,
              "dur": 0.5,
              "vel": 127
            },
            {
              "note": "C#2",
              "pitch": 49,
              "beat": 5.5,
              "dur": 0.556,
              "vel": 127
            },
            {
              "note": "C#2",
              "pitch": 49,
              "beat": 6.25,
              "dur": 0.584,
              "vel": 127
            },
            {
              "note": "C#2",
              "pitch": 49,
              "beat": 7.0,
              "dur": 0.5,
              "vel": 127
            },
            {
              "note": "C#2",
              "pitch": 49,
              "beat": 7.5,
              "dur": 0.5,
              "vel": 127
            },
            {
              "note": "D#2",
              "pitch": 51,
              "beat": 8.0,
              "dur": 0.25,
              "vel": 127
            },
            {
              "note": "D#2",
              "pitch": 51,
              "beat": 8.25,
              "dur": 0.5,
              "vel": 127
            },
            {
              "note": "D#2",
              "pitch": 51,
              "beat": 8.75,
              "dur": 0.5,
              "vel": 127
            },
            {
              "note": "D#2",
              "pitch": 51,
              "beat": 9.5,
              "dur": 0.556,
              "vel": 127
            },
            {
              "note": "D#2",
              "pitch": 51,
              "beat": 10.25,
              "dur": 0.584,
              "vel": 127
            },
            {
              "note": "D#2",
              "pitch": 51,
              "beat": 11.0,
              "dur": 0.5,
              "vel": 127
            },
            {
              "note": "D#2",
              "pitch": 51,
              "beat": 11.5,
              "dur": 0.5,
              "vel": 127
            },
            {
              "note": "A#1",
              "pitch": 46,
              "beat": 12.0,
              "dur": 0.25,
              "vel": 127
            },
            {
              "note": "A#1",
              "pitch": 46,
              "beat": 12.25,
              "dur": 0.5,
              "vel": 127
            },
            {
              "note": "A#1",
              "pitch": 46,
              "beat": 12.75,
              "dur": 0.614,
              "vel": 127
            },
            {
              "note": "A#1",
              "pitch": 46,
              "beat": 13.5,
              "dur": 0.556,
              "vel": 127
            },
            {
              "note": "A#1",
              "pitch": 46,
              "beat": 14.25,
              "dur": 0.584,
              "vel": 127
            },
            {
              "note": "F2",
              "pitch": 53,
              "beat": 15.0,
              "dur": 0.5,
              "vel": 127
            },
            {
              "note": "F2",
              "pitch": 53,
              "beat": 15.5,
              "dur": 0.5,
              "vel": 127
            },
            {
              "note": "F#2",
              "pitch": 54,
              "beat": 16.0,
              "dur": 0.25,
              "vel": 127
            },
            {
              "note": "F#2",
              "pitch": 54,
              "beat": 16.25,
              "dur": 0.5,
              "vel": 127
            },
            {
              "note": "F#2",
              "pitch": 54,
              "beat": 16.75,
              "dur": 0.5,
              "vel": 127
            },
            {
              "note": "F#2",
              "pitch": 54,
              "beat": 17.5,
              "dur": 0.556,
              "vel": 127
            },
            {
              "note": "F#2",
              "pitch": 54,
              "beat": 18.25,
              "dur": 0.584,
              "vel": 127
            },
            {
              "note": "F#2",
              "pitch": 54,
              "beat": 19.0,
              "dur": 0.5,
              "vel": 127
            },
            {
              "note": "F#2",
              "pitch": 54,
              "beat": 19.5,
              "dur": 0.5,
              "vel": 127
            },
            {
              "note": "C#2",
              "pitch": 49,
              "beat": 20.0,
              "dur": 0.25,
              "vel": 127
            },
            {
              "note": "C#2",
              "pitch": 49,
              "beat": 20.25,
              "dur": 0.5,
              "vel": 127
            },
            {
              "note": "C#2",
              "pitch": 49,
              "beat": 20.75,
              "dur": 0.5,
              "vel": 127
            },
            {
              "note": "C#2",
              "pitch": 49,
              "beat": 21.5,
              "dur": 0.556,
              "vel": 127
            },
            {
              "note": "C#2",
              "pitch": 49,
              "beat": 22.25,
              "dur": 0.584,
              "vel": 127
            },
            {
              "note": "G#2",
              "pitch": 56,
              "beat": 23.0,
              "dur": 0.373,
              "vel": 127
            },
            {
              "note": "G#2",
              "pitch": 56,
              "beat": 23.5,
              "dur": 0.373,
              "vel": 127
            },
            {
              "note": "D#2",
              "pitch": 51,
              "beat": 24.0,
              "dur": 0.25,
              "vel": 127
            },
            {
              "note": "D#2",
              "pitch": 51,
              "beat": 24.25,
              "dur": 0.5,
              "vel": 127
            },
            {
              "note": "D#2",
              "pitch": 51,
              "beat": 24.75,
              "dur": 0.5,
              "vel": 127
            },
            {
              "note": "D#2",
              "pitch": 51,
              "beat": 25.5,
              "dur": 0.556,
              "vel": 127
            },
            {
              "note": "D#2",
              "pitch": 51,
              "beat": 26.25,
              "dur": 0.584,
              "vel": 127
            },
            {
              "note": "D#2",
              "pitch": 51,
              "beat": 27.0,
              "dur": 0.5,
              "vel": 127
            },
            {
              "note": "G#2",
              "pitch": 56,
              "beat": 27.5,
              "dur": 0.5,
              "vel": 127
            },
            {
              "note": "A#2",
              "pitch": 58,
              "beat": 28.0,
              "dur": 0.25,
              "vel": 127
            },
            {
              "note": "A#2",
              "pitch": 58,
              "beat": 28.25,
              "dur": 0.5,
              "vel": 127
            },
            {
              "note": "A#2",
              "pitch": 58,
              "beat": 28.75,
              "dur": 0.614,
              "vel": 127
            },
            {
              "note": "A#2",
              "pitch": 58,
              "beat": 29.5,
              "dur": 0.556,
              "vel": 127
            },
            {
              "note": "A#2",
              "pitch": 58,
              "beat": 30.25,
              "dur": 0.584,
              "vel": 127
            },
            {
              "note": "F2",
              "pitch": 53,
              "beat": 31.0,
              "dur": 0.5,
              "vel": 127
            },
            {
              "note": "F2",
              "pitch": 53,
              "beat": 31.5,
              "dur": 0.5,
              "vel": 127
            }
          ]
        },
        {
          "bar_start": 88.0,
          "bar_end": 95.0,
          "name": "",
          "notes": [
            {
              "note": "F#2",
              "pitch": 54,
              "beat": 0.0,
              "dur": 0.25,
              "vel": 127
            },
            {
              "note": "F#2",
              "pitch": 54,
              "beat": 0.25,
              "dur": 0.5,
              "vel": 127
            },
            {
              "note": "F#2",
              "pitch": 54,
              "beat": 0.75,
              "dur": 0.5,
              "vel": 127
            },
            {
              "note": "F#2",
              "pitch": 54,
              "beat": 1.5,
              "dur": 0.556,
              "vel": 127
            },
            {
              "note": "F#2",
              "pitch": 54,
              "beat": 2.25,
              "dur": 0.584,
              "vel": 127
            },
            {
              "note": "F#2",
              "pitch": 54,
              "beat": 3.0,
              "dur": 0.5,
              "vel": 127
            },
            {
              "note": "F#2",
              "pitch": 54,
              "beat": 3.5,
              "dur": 0.5,
              "vel": 127
            },
            {
              "note": "C#2",
              "pitch": 49,
              "beat": 4.0,
              "dur": 0.25,
              "vel": 127
            },
            {
              "note": "C#2",
              "pitch": 49,
              "beat": 4.25,
              "dur": 0.5,
              "vel": 127
            },
            {
              "note": "C#2",
              "pitch": 49,
              "beat": 4.75,
              "dur": 0.5,
              "vel": 127
            },
            {
              "note": "C#2",
              "pitch": 49,
              "beat": 5.5,
              "dur": 0.556,
              "vel": 127
            },
            {
              "note": "C#2",
              "pitch": 49,
              "beat": 6.25,
              "dur": 0.584,
              "vel": 127
            },
            {
              "note": "C#2",
              "pitch": 49,
              "beat": 7.0,
              "dur": 0.5,
              "vel": 127
            },
            {
              "note": "C#2",
              "pitch": 49,
              "beat": 7.5,
              "dur": 0.5,
              "vel": 127
            },
            {
              "note": "D#2",
              "pitch": 51,
              "beat": 8.0,
              "dur": 0.25,
              "vel": 127
            },
            {
              "note": "D#2",
              "pitch": 51,
              "beat": 8.25,
              "dur": 0.5,
              "vel": 127
            },
            {
              "note": "D#2",
              "pitch": 51,
              "beat": 8.75,
              "dur": 0.5,
              "vel": 127
            },
            {
              "note": "D#2",
              "pitch": 51,
              "beat": 9.5,
              "dur": 0.556,
              "vel": 127
            },
            {
              "note": "D#2",
              "pitch": 51,
              "beat": 10.25,
              "dur": 0.584,
              "vel": 127
            },
            {
              "note": "D#2",
              "pitch": 51,
              "beat": 11.0,
              "dur": 0.5,
              "vel": 127
            },
            {
              "note": "D#2",
              "pitch": 51,
              "beat": 11.5,
              "dur": 0.5,
              "vel": 127
            },
            {
              "note": "A#1",
              "pitch": 46,
              "beat": 12.0,
              "dur": 0.25,
              "vel": 127
            },
            {
              "note": "A#1",
              "pitch": 46,
              "beat": 12.25,
              "dur": 0.5,
              "vel": 127
            },
            {
              "note": "A#1",
              "pitch": 46,
              "beat": 12.75,
              "dur": 0.614,
              "vel": 127
            },
            {
              "note": "A#1",
              "pitch": 46,
              "beat": 13.5,
              "dur": 0.556,
              "vel": 127
            },
            {
              "note": "A#1",
              "pitch": 46,
              "beat": 14.25,
              "dur": 0.584,
              "vel": 127
            },
            {
              "note": "F2",
              "pitch": 53,
              "beat": 15.0,
              "dur": 0.5,
              "vel": 127
            },
            {
              "note": "F2",
              "pitch": 53,
              "beat": 15.5,
              "dur": 0.5,
              "vel": 127
            },
            {
              "note": "F#2",
              "pitch": 54,
              "beat": 16.0,
              "dur": 0.25,
              "vel": 127
            },
            {
              "note": "F#2",
              "pitch": 54,
              "beat": 16.25,
              "dur": 0.5,
              "vel": 127
            },
            {
              "note": "F#2",
              "pitch": 54,
              "beat": 16.75,
              "dur": 0.5,
              "vel": 127
            },
            {
              "note": "F#2",
              "pitch": 54,
              "beat": 17.5,
              "dur": 0.556,
              "vel": 127
            },
            {
              "note": "F#2",
              "pitch": 54,
              "beat": 18.25,
              "dur": 0.584,
              "vel": 127
            },
            {
              "note": "F#2",
              "pitch": 54,
              "beat": 19.0,
              "dur": 0.5,
              "vel": 127
            },
            {
              "note": "F#2",
              "pitch": 54,
              "beat": 19.5,
              "dur": 0.5,
              "vel": 127
            },
            {
              "note": "C#2",
              "pitch": 49,
              "beat": 20.0,
              "dur": 0.25,
              "vel": 127
            },
            {
              "note": "C#2",
              "pitch": 49,
              "beat": 20.25,
              "dur": 0.5,
              "vel": 127
            },
            {
              "note": "C#2",
              "pitch": 49,
              "beat": 20.75,
              "dur": 0.5,
              "vel": 127
            },
            {
              "note": "C#2",
              "pitch": 49,
              "beat": 21.5,
              "dur": 0.556,
              "vel": 127
            },
            {
              "note": "C#2",
              "pitch": 49,
              "beat": 22.25,
              "dur": 0.584,
              "vel": 127
            },
            {
              "note": "G#2",
              "pitch": 56,
              "beat": 23.0,
              "dur": 0.373,
              "vel": 127
            },
            {
              "note": "G#2",
              "pitch": 56,
              "beat": 23.5,
              "dur": 0.373,
              "vel": 127
            },
            {
              "note": "D#2",
              "pitch": 51,
              "beat": 24.0,
              "dur": 0.25,
              "vel": 127
            },
            {
              "note": "D#2",
              "pitch": 51,
              "beat": 24.25,
              "dur": 0.5,
              "vel": 127
            },
            {
              "note": "D#2",
              "pitch": 51,
              "beat": 24.75,
              "dur": 0.5,
              "vel": 127
            },
            {
              "note": "D#2",
              "pitch": 51,
              "beat": 25.5,
              "dur": 0.556,
              "vel": 127
            },
            {
              "note": "D#2",
              "pitch": 51,
              "beat": 26.25,
              "dur": 0.584,
              "vel": 127
            },
            {
              "note": "D#2",
              "pitch": 51,
              "beat": 27.0,
              "dur": 0.5,
              "vel": 127
            },
            {
              "note": "G#2",
              "pitch": 56,
              "beat": 27.5,
              "dur": 0.5,
              "vel": 127
            },
            {
              "note": "A#2",
              "pitch": 58,
              "beat": 28.0,
              "dur": 0.25,
              "vel": 127
            },
            {
              "note": "A#2",
              "pitch": 58,
              "beat": 28.25,
              "dur": 0.5,
              "vel": 127
            },
            {
              "note": "A#2",
              "pitch": 58,
              "beat": 28.75,
              "dur": 0.614,
              "vel": 127
            },
            {
              "note": "A#2",
              "pitch": 58,
              "beat": 29.5,
              "dur": 0.556,
              "vel": 127
            },
            {
              "note": "A#2",
              "pitch": 58,
              "beat": 30.25,
              "dur": 0.584,
              "vel": 127
            },
            {
              "note": "F2",
              "pitch": 53,
              "beat": 31.0,
              "dur": 0.5,
              "vel": 127
            },
            {
              "note": "F2",
              "pitch": 53,
              "beat": 31.5,
              "dur": 0.5,
              "vel": 127
            }
          ]
        },
        {
          "bar_start": 96.0,
          "bar_end": 108.0,
          "name": "",
          "notes": [
            {
              "note": "F#2",
              "pitch": 54,
              "beat": 0.0,
              "dur": 0.25,
              "vel": 127
            },
            {
              "note": "F#2",
              "pitch": 54,
              "beat": 0.25,
              "dur": 0.5,
              "vel": 127
            },
            {
              "note": "F#2",
              "pitch": 54,
              "beat": 0.75,
              "dur": 0.5,
              "vel": 127
            },
            {
              "note": "F#2",
              "pitch": 54,
              "beat": 1.5,
              "dur": 0.556,
              "vel": 127
            },
            {
              "note": "F#2",
              "pitch": 54,
              "beat": 2.25,
              "dur": 0.584,
              "vel": 127
            },
            {
              "note": "F#2",
              "pitch": 54,
              "beat": 3.0,
              "dur": 0.5,
              "vel": 127
            },
            {
              "note": "F#2",
              "pitch": 54,
              "beat": 3.5,
              "dur": 0.5,
              "vel": 127
            },
            {
              "note": "C#2",
              "pitch": 49,
              "beat": 4.0,
              "dur": 0.25,
              "vel": 127
            },
            {
              "note": "C#2",
              "pitch": 49,
              "beat": 4.25,
              "dur": 0.5,
              "vel": 127
            },
            {
              "note": "C#2",
              "pitch": 49,
              "beat": 4.75,
              "dur": 0.5,
              "vel": 127
            },
            {
              "note": "C#2",
              "pitch": 49,
              "beat": 5.5,
              "dur": 0.556,
              "vel": 127
            },
            {
              "note": "C#2",
              "pitch": 49,
              "beat": 6.25,
              "dur": 0.584,
              "vel": 127
            },
            {
              "note": "C#2",
              "pitch": 49,
              "beat": 7.0,
              "dur": 0.5,
              "vel": 127
            },
            {
              "note": "C#2",
              "pitch": 49,
              "beat": 7.5,
              "dur": 0.5,
              "vel": 127
            },
            {
              "note": "D#2",
              "pitch": 51,
              "beat": 8.0,
              "dur": 0.25,
              "vel": 127
            },
            {
              "note": "D#2",
              "pitch": 51,
              "beat": 8.25,
              "dur": 0.5,
              "vel": 127
            },
            {
              "note": "D#2",
              "pitch": 51,
              "beat": 8.75,
              "dur": 0.5,
              "vel": 127
            },
            {
              "note": "D#2",
              "pitch": 51,
              "beat": 9.5,
              "dur": 0.556,
              "vel": 127
            },
            {
              "note": "D#2",
              "pitch": 51,
              "beat": 10.25,
              "dur": 0.584,
              "vel": 127
            },
            {
              "note": "D#2",
              "pitch": 51,
              "beat": 11.0,
              "dur": 0.5,
              "vel": 127
            },
            {
              "note": "D#2",
              "pitch": 51,
              "beat": 11.5,
              "dur": 0.5,
              "vel": 127
            },
            {
              "note": "A#1",
              "pitch": 46,
              "beat": 12.0,
              "dur": 0.25,
              "vel": 127
            },
            {
              "note": "A#1",
              "pitch": 46,
              "beat": 12.25,
              "dur": 0.5,
              "vel": 127
            },
            {
              "note": "A#1",
              "pitch": 46,
              "beat": 12.75,
              "dur": 0.614,
              "vel": 127
            },
            {
              "note": "A#1",
              "pitch": 46,
              "beat": 13.5,
              "dur": 0.556,
              "vel": 127
            },
            {
              "note": "A#1",
              "pitch": 46,
              "beat": 14.25,
              "dur": 0.584,
              "vel": 127
            },
            {
              "note": "F2",
              "pitch": 53,
              "beat": 15.0,
              "dur": 0.5,
              "vel": 127
            },
            {
              "note": "F2",
              "pitch": 53,
              "beat": 15.5,
              "dur": 0.5,
              "vel": 127
            },
            {
              "note": "F#2",
              "pitch": 54,
              "beat": 16.0,
              "dur": 0.25,
              "vel": 127
            },
            {
              "note": "F#2",
              "pitch": 54,
              "beat": 16.25,
              "dur": 0.5,
              "vel": 127
            },
            {
              "note": "F#2",
              "pitch": 54,
              "beat": 16.75,
              "dur": 0.5,
              "vel": 127
            },
            {
              "note": "F#2",
              "pitch": 54,
              "beat": 17.5,
              "dur": 0.556,
              "vel": 127
            },
            {
              "note": "F#2",
              "pitch": 54,
              "beat": 18.25,
              "dur": 0.584,
              "vel": 127
            },
            {
              "note": "F#2",
              "pitch": 54,
              "beat": 19.0,
              "dur": 0.5,
              "vel": 127
            },
            {
              "note": "F#2",
              "pitch": 54,
              "beat": 19.5,
              "dur": 0.5,
              "vel": 127
            },
            {
              "note": "C#2",
              "pitch": 49,
              "beat": 20.0,
              "dur": 0.25,
              "vel": 127
            },
            {
              "note": "C#2",
              "pitch": 49,
              "beat": 20.25,
              "dur": 0.5,
              "vel": 127
            },
            {
              "note": "C#2",
              "pitch": 49,
              "beat": 20.75,
              "dur": 0.5,
              "vel": 127
            },
            {
              "note": "C#2",
              "pitch": 49,
              "beat": 21.5,
              "dur": 0.556,
              "vel": 127
            },
            {
              "note": "C#2",
              "pitch": 49,
              "beat": 22.25,
              "dur": 0.584,
              "vel": 127
            },
            {
              "note": "G#2",
              "pitch": 56,
              "beat": 23.0,
              "dur": 0.373,
              "vel": 127
            },
            {
              "note": "G#2",
              "pitch": 56,
              "beat": 23.5,
              "dur": 0.373,
              "vel": 127
            },
            {
              "note": "D#2",
              "pitch": 51,
              "beat": 24.0,
              "dur": 0.25,
              "vel": 127
            },
            {
              "note": "D#2",
              "pitch": 51,
              "beat": 24.25,
              "dur": 0.5,
              "vel": 127
            },
            {
              "note": "D#2",
              "pitch": 51,
              "beat": 24.75,
              "dur": 0.5,
              "vel": 127
            },
            {
              "note": "D#2",
              "pitch": 51,
              "beat": 25.5,
              "dur": 0.556,
              "vel": 127
            },
            {
              "note": "D#2",
              "pitch": 51,
              "beat": 26.25,
              "dur": 0.584,
              "vel": 127
            },
            {
              "note": "D#2",
              "pitch": 51,
              "beat": 27.0,
              "dur": 0.5,
              "vel": 127
            },
            {
              "note": "G#2",
              "pitch": 56,
              "beat": 27.5,
              "dur": 0.5,
              "vel": 127
            },
            {
              "note": "A#2",
              "pitch": 58,
              "beat": 28.0,
              "dur": 0.25,
              "vel": 127
            },
            {
              "note": "A#2",
              "pitch": 58,
              "beat": 28.25,
              "dur": 0.5,
              "vel": 127
            },
            {
              "note": "A#2",
              "pitch": 58,
              "beat": 28.75,
              "dur": 0.614,
              "vel": 127
            },
            {
              "note": "A#2",
              "pitch": 58,
              "beat": 29.5,
              "dur": 0.556,
              "vel": 127
            },
            {
              "note": "A#2",
              "pitch": 58,
              "beat": 30.25,
              "dur": 0.584,
              "vel": 127
            },
            {
              "note": "F2",
              "pitch": 53,
              "beat": 31.0,
              "dur": 0.5,
              "vel": 127
            },
            {
              "note": "F2",
              "pitch": 53,
              "beat": 31.5,
              "dur": 0.5,
              "vel": 127
            }
          ]
        },
        {
          "bar_start": 120.0,
          "bar_end": 120.25,
          "name": "",
          "notes": [
            {
              "note": "F#2",
              "pitch": 54,
              "beat": 0.0,
              "dur": 0.25,
              "vel": 127
            },
            {
              "note": "F#2",
              "pitch": 54,
              "beat": 0.25,
              "dur": 0.5,
              "vel": 127
            },
            {
              "note": "F#2",
              "pitch": 54,
              "beat": 0.75,
              "dur": 0.5,
              "vel": 127
            },
            {
              "note": "F#2",
              "pitch": 54,
              "beat": 1.5,
              "dur": 0.556,
              "vel": 127
            },
            {
              "note": "F#2",
              "pitch": 54,
              "beat": 2.25,
              "dur": 0.584,
              "vel": 127
            },
            {
              "note": "F#2",
              "pitch": 54,
              "beat": 3.0,
              "dur": 0.5,
              "vel": 127
            },
            {
              "note": "F#2",
              "pitch": 54,
              "beat": 3.5,
              "dur": 0.5,
              "vel": 127
            },
            {
              "note": "C#2",
              "pitch": 49,
              "beat": 4.0,
              "dur": 0.25,
              "vel": 127
            },
            {
              "note": "C#2",
              "pitch": 49,
              "beat": 4.25,
              "dur": 0.5,
              "vel": 127
            },
            {
              "note": "C#2",
              "pitch": 49,
              "beat": 4.75,
              "dur": 0.5,
              "vel": 127
            },
            {
              "note": "C#2",
              "pitch": 49,
              "beat": 5.5,
              "dur": 0.556,
              "vel": 127
            },
            {
              "note": "C#2",
              "pitch": 49,
              "beat": 6.25,
              "dur": 0.584,
              "vel": 127
            },
            {
              "note": "C#2",
              "pitch": 49,
              "beat": 7.0,
              "dur": 0.5,
              "vel": 127
            },
            {
              "note": "C#2",
              "pitch": 49,
              "beat": 7.5,
              "dur": 0.5,
              "vel": 127
            },
            {
              "note": "D#2",
              "pitch": 51,
              "beat": 8.0,
              "dur": 0.25,
              "vel": 127
            },
            {
              "note": "D#2",
              "pitch": 51,
              "beat": 8.25,
              "dur": 0.5,
              "vel": 127
            },
            {
              "note": "D#2",
              "pitch": 51,
              "beat": 8.75,
              "dur": 0.5,
              "vel": 127
            },
            {
              "note": "D#2",
              "pitch": 51,
              "beat": 9.5,
              "dur": 0.556,
              "vel": 127
            },
            {
              "note": "D#2",
              "pitch": 51,
              "beat": 10.25,
              "dur": 0.584,
              "vel": 127
            },
            {
              "note": "D#2",
              "pitch": 51,
              "beat": 11.0,
              "dur": 0.5,
              "vel": 127
            },
            {
              "note": "D#2",
              "pitch": 51,
              "beat": 11.5,
              "dur": 0.5,
              "vel": 127
            },
            {
              "note": "A#1",
              "pitch": 46,
              "beat": 12.0,
              "dur": 0.25,
              "vel": 127
            },
            {
              "note": "A#1",
              "pitch": 46,
              "beat": 12.25,
              "dur": 0.5,
              "vel": 127
            },
            {
              "note": "A#1",
              "pitch": 46,
              "beat": 12.75,
              "dur": 0.614,
              "vel": 127
            },
            {
              "note": "A#1",
              "pitch": 46,
              "beat": 13.5,
              "dur": 0.556,
              "vel": 127
            },
            {
              "note": "A#1",
              "pitch": 46,
              "beat": 14.25,
              "dur": 0.584,
              "vel": 127
            },
            {
              "note": "F2",
              "pitch": 53,
              "beat": 15.0,
              "dur": 0.5,
              "vel": 127
            },
            {
              "note": "F2",
              "pitch": 53,
              "beat": 15.5,
              "dur": 0.5,
              "vel": 127
            },
            {
              "note": "F#2",
              "pitch": 54,
              "beat": 16.0,
              "dur": 0.25,
              "vel": 127
            },
            {
              "note": "F#2",
              "pitch": 54,
              "beat": 16.25,
              "dur": 0.5,
              "vel": 127
            },
            {
              "note": "F#2",
              "pitch": 54,
              "beat": 16.75,
              "dur": 0.5,
              "vel": 127
            },
            {
              "note": "F#2",
              "pitch": 54,
              "beat": 17.5,
              "dur": 0.556,
              "vel": 127
            },
            {
              "note": "F#2",
              "pitch": 54,
              "beat": 18.25,
              "dur": 0.584,
              "vel": 127
            },
            {
              "note": "F#2",
              "pitch": 54,
              "beat": 19.0,
              "dur": 0.5,
              "vel": 127
            },
            {
              "note": "F#2",
              "pitch": 54,
              "beat": 19.5,
              "dur": 0.5,
              "vel": 127
            },
            {
              "note": "C#2",
              "pitch": 49,
              "beat": 20.0,
              "dur": 0.25,
              "vel": 127
            },
            {
              "note": "C#2",
              "pitch": 49,
              "beat": 20.25,
              "dur": 0.5,
              "vel": 127
            },
            {
              "note": "C#2",
              "pitch": 49,
              "beat": 20.75,
              "dur": 0.5,
              "vel": 127
            },
            {
              "note": "C#2",
              "pitch": 49,
              "beat": 21.5,
              "dur": 0.556,
              "vel": 127
            },
            {
              "note": "C#2",
              "pitch": 49,
              "beat": 22.25,
              "dur": 0.584,
              "vel": 127
            },
            {
              "note": "G#2",
              "pitch": 56,
              "beat": 23.0,
              "dur": 0.373,
              "vel": 127
            },
            {
              "note": "G#2",
              "pitch": 56,
              "beat": 23.5,
              "dur": 0.373,
              "vel": 127
            },
            {
              "note": "D#2",
              "pitch": 51,
              "beat": 24.0,
              "dur": 0.25,
              "vel": 127
            },
            {
              "note": "D#2",
              "pitch": 51,
              "beat": 24.25,
              "dur": 0.5,
              "vel": 127
            },
            {
              "note": "D#2",
              "pitch": 51,
              "beat": 24.75,
              "dur": 0.5,
              "vel": 127
            },
            {
              "note": "D#2",
              "pitch": 51,
              "beat": 25.5,
              "dur": 0.556,
              "vel": 127
            },
            {
              "note": "D#2",
              "pitch": 51,
              "beat": 26.25,
              "dur": 0.584,
              "vel": 127
            },
            {
              "note": "D#2",
              "pitch": 51,
              "beat": 27.0,
              "dur": 0.5,
              "vel": 127
            },
            {
              "note": "G#2",
              "pitch": 56,
              "beat": 27.5,
              "dur": 0.5,
              "vel": 127
            },
            {
              "note": "A#2",
              "pitch": 58,
              "beat": 28.0,
              "dur": 0.25,
              "vel": 127
            },
            {
              "note": "A#2",
              "pitch": 58,
              "beat": 28.25,
              "dur": 0.5,
              "vel": 127
            },
            {
              "note": "A#2",
              "pitch": 58,
              "beat": 28.75,
              "dur": 0.614,
              "vel": 127
            },
            {
              "note": "A#2",
              "pitch": 58,
              "beat": 29.5,
              "dur": 0.556,
              "vel": 127
            },
            {
              "note": "A#2",
              "pitch": 58,
              "beat": 30.25,
              "dur": 0.584,
              "vel": 127
            },
            {
              "note": "F2",
              "pitch": 53,
              "beat": 31.0,
              "dur": 0.5,
              "vel": 127
            },
            {
              "note": "F2",
              "pitch": 53,
              "beat": 31.5,
              "dur": 0.5,
              "vel": 127
            }
          ]
        },
        {
          "bar_start": 121.0,
          "bar_end": 121.25,
          "name": "",
          "notes": [
            {
              "note": "F#2",
              "pitch": 54,
              "beat": 0.0,
              "dur": 0.25,
              "vel": 127
            },
            {
              "note": "F#2",
              "pitch": 54,
              "beat": 0.25,
              "dur": 0.5,
              "vel": 127
            },
            {
              "note": "F#2",
              "pitch": 54,
              "beat": 0.75,
              "dur": 0.5,
              "vel": 127
            },
            {
              "note": "F#2",
              "pitch": 54,
              "beat": 1.5,
              "dur": 0.556,
              "vel": 127
            },
            {
              "note": "F#2",
              "pitch": 54,
              "beat": 2.25,
              "dur": 0.584,
              "vel": 127
            },
            {
              "note": "F#2",
              "pitch": 54,
              "beat": 3.0,
              "dur": 0.5,
              "vel": 127
            },
            {
              "note": "F#2",
              "pitch": 54,
              "beat": 3.5,
              "dur": 0.5,
              "vel": 127
            },
            {
              "note": "C#2",
              "pitch": 49,
              "beat": 4.0,
              "dur": 0.25,
              "vel": 127
            },
            {
              "note": "C#2",
              "pitch": 49,
              "beat": 4.25,
              "dur": 0.5,
              "vel": 127
            },
            {
              "note": "C#2",
              "pitch": 49,
              "beat": 4.75,
              "dur": 0.5,
              "vel": 127
            },
            {
              "note": "C#2",
              "pitch": 49,
              "beat": 5.5,
              "dur": 0.556,
              "vel": 127
            },
            {
              "note": "C#2",
              "pitch": 49,
              "beat": 6.25,
              "dur": 0.584,
              "vel": 127
            },
            {
              "note": "C#2",
              "pitch": 49,
              "beat": 7.0,
              "dur": 0.5,
              "vel": 127
            },
            {
              "note": "C#2",
              "pitch": 49,
              "beat": 7.5,
              "dur": 0.5,
              "vel": 127
            },
            {
              "note": "D#2",
              "pitch": 51,
              "beat": 8.0,
              "dur": 0.25,
              "vel": 127
            },
            {
              "note": "D#2",
              "pitch": 51,
              "beat": 8.25,
              "dur": 0.5,
              "vel": 127
            },
            {
              "note": "D#2",
              "pitch": 51,
              "beat": 8.75,
              "dur": 0.5,
              "vel": 127
            },
            {
              "note": "D#2",
              "pitch": 51,
              "beat": 9.5,
              "dur": 0.556,
              "vel": 127
            },
            {
              "note": "D#2",
              "pitch": 51,
              "beat": 10.25,
              "dur": 0.584,
              "vel": 127
            },
            {
              "note": "D#2",
              "pitch": 51,
              "beat": 11.0,
              "dur": 0.5,
              "vel": 127
            },
            {
              "note": "D#2",
              "pitch": 51,
              "beat": 11.5,
              "dur": 0.5,
              "vel": 127
            },
            {
              "note": "A#1",
              "pitch": 46,
              "beat": 12.0,
              "dur": 0.25,
              "vel": 127
            },
            {
              "note": "A#1",
              "pitch": 46,
              "beat": 12.25,
              "dur": 0.5,
              "vel": 127
            },
            {
              "note": "A#1",
              "pitch": 46,
              "beat": 12.75,
              "dur": 0.614,
              "vel": 127
            },
            {
              "note": "A#1",
              "pitch": 46,
              "beat": 13.5,
              "dur": 0.556,
              "vel": 127
            },
            {
              "note": "A#1",
              "pitch": 46,
              "beat": 14.25,
              "dur": 0.584,
              "vel": 127
            },
            {
              "note": "F2",
              "pitch": 53,
              "beat": 15.0,
              "dur": 0.5,
              "vel": 127
            },
            {
              "note": "F2",
              "pitch": 53,
              "beat": 15.5,
              "dur": 0.5,
              "vel": 127
            },
            {
              "note": "F#2",
              "pitch": 54,
              "beat": 16.0,
              "dur": 0.25,
              "vel": 127
            },
            {
              "note": "F#2",
              "pitch": 54,
              "beat": 16.25,
              "dur": 0.5,
              "vel": 127
            },
            {
              "note": "F#2",
              "pitch": 54,
              "beat": 16.75,
              "dur": 0.5,
              "vel": 127
            },
            {
              "note": "F#2",
              "pitch": 54,
              "beat": 17.5,
              "dur": 0.556,
              "vel": 127
            },
            {
              "note": "F#2",
              "pitch": 54,
              "beat": 18.25,
              "dur": 0.584,
              "vel": 127
            },
            {
              "note": "F#2",
              "pitch": 54,
              "beat": 19.0,
              "dur": 0.5,
              "vel": 127
            },
            {
              "note": "F#2",
              "pitch": 54,
              "beat": 19.5,
              "dur": 0.5,
              "vel": 127
            },
            {
              "note": "C#2",
              "pitch": 49,
              "beat": 20.0,
              "dur": 0.25,
              "vel": 127
            },
            {
              "note": "C#2",
              "pitch": 49,
              "beat": 20.25,
              "dur": 0.5,
              "vel": 127
            },
            {
              "note": "C#2",
              "pitch": 49,
              "beat": 20.75,
              "dur": 0.5,
              "vel": 127
            },
            {
              "note": "C#2",
              "pitch": 49,
              "beat": 21.5,
              "dur": 0.556,
              "vel": 127
            },
            {
              "note": "C#2",
              "pitch": 49,
              "beat": 22.25,
              "dur": 0.584,
              "vel": 127
            },
            {
              "note": "G#2",
              "pitch": 56,
              "beat": 23.0,
              "dur": 0.373,
              "vel": 127
            },
            {
              "note": "G#2",
              "pitch": 56,
              "beat": 23.5,
              "dur": 0.373,
              "vel": 127
            },
            {
              "note": "D#2",
              "pitch": 51,
              "beat": 24.0,
              "dur": 0.25,
              "vel": 127
            },
            {
              "note": "D#2",
              "pitch": 51,
              "beat": 24.25,
              "dur": 0.5,
              "vel": 127
            },
            {
              "note": "D#2",
              "pitch": 51,
              "beat": 24.75,
              "dur": 0.5,
              "vel": 127
            },
            {
              "note": "D#2",
              "pitch": 51,
              "beat": 25.5,
              "dur": 0.556,
              "vel": 127
            },
            {
              "note": "D#2",
              "pitch": 51,
              "beat": 26.25,
              "dur": 0.584,
              "vel": 127
            },
            {
              "note": "D#2",
              "pitch": 51,
              "beat": 27.0,
              "dur": 0.5,
              "vel": 127
            },
            {
              "note": "G#2",
              "pitch": 56,
              "beat": 27.5,
              "dur": 0.5,
              "vel": 127
            },
            {
              "note": "A#2",
              "pitch": 58,
              "beat": 28.0,
              "dur": 0.25,
              "vel": 127
            },
            {
              "note": "A#2",
              "pitch": 58,
              "beat": 28.25,
              "dur": 0.5,
              "vel": 127
            },
            {
              "note": "A#2",
              "pitch": 58,
              "beat": 28.75,
              "dur": 0.614,
              "vel": 127
            },
            {
              "note": "A#2",
              "pitch": 58,
              "beat": 29.5,
              "dur": 0.556,
              "vel": 127
            },
            {
              "note": "A#2",
              "pitch": 58,
              "beat": 30.25,
              "dur": 0.584,
              "vel": 127
            },
            {
              "note": "F2",
              "pitch": 53,
              "beat": 31.0,
              "dur": 0.5,
              "vel": 127
            },
            {
              "note": "F2",
              "pitch": 53,
              "beat": 31.5,
              "dur": 0.5,
              "vel": 127
            }
          ]
        },
        {
          "bar_start": 122.0,
          "bar_end": 122.25,
          "name": "",
          "notes": [
            {
              "note": "F#2",
              "pitch": 54,
              "beat": 0.0,
              "dur": 0.25,
              "vel": 127
            },
            {
              "note": "F#2",
              "pitch": 54,
              "beat": 0.25,
              "dur": 0.5,
              "vel": 127
            },
            {
              "note": "F#2",
              "pitch": 54,
              "beat": 0.75,
              "dur": 0.5,
              "vel": 127
            },
            {
              "note": "F#2",
              "pitch": 54,
              "beat": 1.5,
              "dur": 0.556,
              "vel": 127
            },
            {
              "note": "F#2",
              "pitch": 54,
              "beat": 2.25,
              "dur": 0.584,
              "vel": 127
            },
            {
              "note": "F#2",
              "pitch": 54,
              "beat": 3.0,
              "dur": 0.5,
              "vel": 127
            },
            {
              "note": "F#2",
              "pitch": 54,
              "beat": 3.5,
              "dur": 0.5,
              "vel": 127
            },
            {
              "note": "C#2",
              "pitch": 49,
              "beat": 4.0,
              "dur": 0.25,
              "vel": 127
            },
            {
              "note": "C#2",
              "pitch": 49,
              "beat": 4.25,
              "dur": 0.5,
              "vel": 127
            },
            {
              "note": "C#2",
              "pitch": 49,
              "beat": 4.75,
              "dur": 0.5,
              "vel": 127
            },
            {
              "note": "C#2",
              "pitch": 49,
              "beat": 5.5,
              "dur": 0.556,
              "vel": 127
            },
            {
              "note": "C#2",
              "pitch": 49,
              "beat": 6.25,
              "dur": 0.584,
              "vel": 127
            },
            {
              "note": "C#2",
              "pitch": 49,
              "beat": 7.0,
              "dur": 0.5,
              "vel": 127
            },
            {
              "note": "C#2",
              "pitch": 49,
              "beat": 7.5,
              "dur": 0.5,
              "vel": 127
            },
            {
              "note": "D#2",
              "pitch": 51,
              "beat": 8.0,
              "dur": 0.25,
              "vel": 127
            },
            {
              "note": "D#2",
              "pitch": 51,
              "beat": 8.25,
              "dur": 0.5,
              "vel": 127
            },
            {
              "note": "D#2",
              "pitch": 51,
              "beat": 8.75,
              "dur": 0.5,
              "vel": 127
            },
            {
              "note": "D#2",
              "pitch": 51,
              "beat": 9.5,
              "dur": 0.556,
              "vel": 127
            },
            {
              "note": "D#2",
              "pitch": 51,
              "beat": 10.25,
              "dur": 0.584,
              "vel": 127
            },
            {
              "note": "D#2",
              "pitch": 51,
              "beat": 11.0,
              "dur": 0.5,
              "vel": 127
            },
            {
              "note": "D#2",
              "pitch": 51,
              "beat": 11.5,
              "dur": 0.5,
              "vel": 127
            },
            {
              "note": "A#1",
              "pitch": 46,
              "beat": 12.0,
              "dur": 0.25,
              "vel": 127
            },
            {
              "note": "A#1",
              "pitch": 46,
              "beat": 12.25,
              "dur": 0.5,
              "vel": 127
            },
            {
              "note": "A#1",
              "pitch": 46,
              "beat": 12.75,
              "dur": 0.614,
              "vel": 127
            },
            {
              "note": "A#1",
              "pitch": 46,
              "beat": 13.5,
              "dur": 0.556,
              "vel": 127
            },
            {
              "note": "A#1",
              "pitch": 46,
              "beat": 14.25,
              "dur": 0.584,
              "vel": 127
            },
            {
              "note": "F2",
              "pitch": 53,
              "beat": 15.0,
              "dur": 0.5,
              "vel": 127
            },
            {
              "note": "F2",
              "pitch": 53,
              "beat": 15.5,
              "dur": 0.5,
              "vel": 127
            },
            {
              "note": "F#2",
              "pitch": 54,
              "beat": 16.0,
              "dur": 0.25,
              "vel": 127
            },
            {
              "note": "F#2",
              "pitch": 54,
              "beat": 16.25,
              "dur": 0.5,
              "vel": 127
            },
            {
              "note": "F#2",
              "pitch": 54,
              "beat": 16.75,
              "dur": 0.5,
              "vel": 127
            },
            {
              "note": "F#2",
              "pitch": 54,
              "beat": 17.5,
              "dur": 0.556,
              "vel": 127
            },
            {
              "note": "F#2",
              "pitch": 54,
              "beat": 18.25,
              "dur": 0.584,
              "vel": 127
            },
            {
              "note": "F#2",
              "pitch": 54,
              "beat": 19.0,
              "dur": 0.5,
              "vel": 127
            },
            {
              "note": "F#2",
              "pitch": 54,
              "beat": 19.5,
              "dur": 0.5,
              "vel": 127
            },
            {
              "note": "C#2",
              "pitch": 49,
              "beat": 20.0,
              "dur": 0.25,
              "vel": 127
            },
            {
              "note": "C#2",
              "pitch": 49,
              "beat": 20.25,
              "dur": 0.5,
              "vel": 127
            },
            {
              "note": "C#2",
              "pitch": 49,
              "beat": 20.75,
              "dur": 0.5,
              "vel": 127
            },
            {
              "note": "C#2",
              "pitch": 49,
              "beat": 21.5,
              "dur": 0.556,
              "vel": 127
            },
            {
              "note": "C#2",
              "pitch": 49,
              "beat": 22.25,
              "dur": 0.584,
              "vel": 127
            },
            {
              "note": "G#2",
              "pitch": 56,
              "beat": 23.0,
              "dur": 0.373,
              "vel": 127
            },
            {
              "note": "G#2",
              "pitch": 56,
              "beat": 23.5,
              "dur": 0.373,
              "vel": 127
            },
            {
              "note": "D#2",
              "pitch": 51,
              "beat": 24.0,
              "dur": 0.25,
              "vel": 127
            },
            {
              "note": "D#2",
              "pitch": 51,
              "beat": 24.25,
              "dur": 0.5,
              "vel": 127
            },
            {
              "note": "D#2",
              "pitch": 51,
              "beat": 24.75,
              "dur": 0.5,
              "vel": 127
            },
            {
              "note": "D#2",
              "pitch": 51,
              "beat": 25.5,
              "dur": 0.556,
              "vel": 127
            },
            {
              "note": "D#2",
              "pitch": 51,
              "beat": 26.25,
              "dur": 0.584,
              "vel": 127
            },
            {
              "note": "D#2",
              "pitch": 51,
              "beat": 27.0,
              "dur": 0.5,
              "vel": 127
            },
            {
              "note": "G#2",
              "pitch": 56,
              "beat": 27.5,
              "dur": 0.5,
              "vel": 127
            },
            {
              "note": "A#2",
              "pitch": 58,
              "beat": 28.0,
              "dur": 0.25,
              "vel": 127
            },
            {
              "note": "A#2",
              "pitch": 58,
              "beat": 28.25,
              "dur": 0.5,
              "vel": 127
            },
            {
              "note": "A#2",
              "pitch": 58,
              "beat": 28.75,
              "dur": 0.614,
              "vel": 127
            },
            {
              "note": "A#2",
              "pitch": 58,
              "beat": 29.5,
              "dur": 0.556,
              "vel": 127
            },
            {
              "note": "A#2",
              "pitch": 58,
              "beat": 30.25,
              "dur": 0.584,
              "vel": 127
            },
            {
              "note": "F2",
              "pitch": 53,
              "beat": 31.0,
              "dur": 0.5,
              "vel": 127
            },
            {
              "note": "F2",
              "pitch": 53,
              "beat": 31.5,
              "dur": 0.5,
              "vel": 127
            }
          ]
        },
        {
          "bar_start": 123.0,
          "bar_end": 123.25,
          "name": "",
          "notes": [
            {
              "note": "F#2",
              "pitch": 54,
              "beat": 0.0,
              "dur": 0.25,
              "vel": 127
            },
            {
              "note": "F#2",
              "pitch": 54,
              "beat": 0.25,
              "dur": 0.5,
              "vel": 127
            },
            {
              "note": "F#2",
              "pitch": 54,
              "beat": 0.75,
              "dur": 0.5,
              "vel": 127
            },
            {
              "note": "F#2",
              "pitch": 54,
              "beat": 1.5,
              "dur": 0.556,
              "vel": 127
            },
            {
              "note": "F#2",
              "pitch": 54,
              "beat": 2.25,
              "dur": 0.584,
              "vel": 127
            },
            {
              "note": "F#2",
              "pitch": 54,
              "beat": 3.0,
              "dur": 0.5,
              "vel": 127
            },
            {
              "note": "F#2",
              "pitch": 54,
              "beat": 3.5,
              "dur": 0.5,
              "vel": 127
            },
            {
              "note": "C#2",
              "pitch": 49,
              "beat": 4.0,
              "dur": 0.25,
              "vel": 127
            },
            {
              "note": "C#2",
              "pitch": 49,
              "beat": 4.25,
              "dur": 0.5,
              "vel": 127
            },
            {
              "note": "C#2",
              "pitch": 49,
              "beat": 4.75,
              "dur": 0.5,
              "vel": 127
            },
            {
              "note": "C#2",
              "pitch": 49,
              "beat": 5.5,
              "dur": 0.556,
              "vel": 127
            },
            {
              "note": "C#2",
              "pitch": 49,
              "beat": 6.25,
              "dur": 0.584,
              "vel": 127
            },
            {
              "note": "C#2",
              "pitch": 49,
              "beat": 7.0,
              "dur": 0.5,
              "vel": 127
            },
            {
              "note": "C#2",
              "pitch": 49,
              "beat": 7.5,
              "dur": 0.5,
              "vel": 127
            },
            {
              "note": "D#2",
              "pitch": 51,
              "beat": 8.0,
              "dur": 0.25,
              "vel": 127
            },
            {
              "note": "D#2",
              "pitch": 51,
              "beat": 8.25,
              "dur": 0.5,
              "vel": 127
            },
            {
              "note": "D#2",
              "pitch": 51,
              "beat": 8.75,
              "dur": 0.5,
              "vel": 127
            },
            {
              "note": "D#2",
              "pitch": 51,
              "beat": 9.5,
              "dur": 0.556,
              "vel": 127
            },
            {
              "note": "D#2",
              "pitch": 51,
              "beat": 10.25,
              "dur": 0.584,
              "vel": 127
            },
            {
              "note": "D#2",
              "pitch": 51,
              "beat": 11.0,
              "dur": 0.5,
              "vel": 127
            },
            {
              "note": "D#2",
              "pitch": 51,
              "beat": 11.5,
              "dur": 0.5,
              "vel": 127
            },
            {
              "note": "A#1",
              "pitch": 46,
              "beat": 12.0,
              "dur": 0.25,
              "vel": 127
            },
            {
              "note": "A#1",
              "pitch": 46,
              "beat": 12.25,
              "dur": 0.5,
              "vel": 127
            },
            {
              "note": "A#1",
              "pitch": 46,
              "beat": 12.75,
              "dur": 0.614,
              "vel": 127
            },
            {
              "note": "A#1",
              "pitch": 46,
              "beat": 13.5,
              "dur": 0.556,
              "vel": 127
            },
            {
              "note": "A#1",
              "pitch": 46,
              "beat": 14.25,
              "dur": 0.584,
              "vel": 127
            },
            {
              "note": "F2",
              "pitch": 53,
              "beat": 15.0,
              "dur": 0.5,
              "vel": 127
            },
            {
              "note": "F2",
              "pitch": 53,
              "beat": 15.5,
              "dur": 0.5,
              "vel": 127
            },
            {
              "note": "F#2",
              "pitch": 54,
              "beat": 16.0,
              "dur": 0.25,
              "vel": 127
            },
            {
              "note": "F#2",
              "pitch": 54,
              "beat": 16.25,
              "dur": 0.5,
              "vel": 127
            },
            {
              "note": "F#2",
              "pitch": 54,
              "beat": 16.75,
              "dur": 0.5,
              "vel": 127
            },
            {
              "note": "F#2",
              "pitch": 54,
              "beat": 17.5,
              "dur": 0.556,
              "vel": 127
            },
            {
              "note": "F#2",
              "pitch": 54,
              "beat": 18.25,
              "dur": 0.584,
              "vel": 127
            },
            {
              "note": "F#2",
              "pitch": 54,
              "beat": 19.0,
              "dur": 0.5,
              "vel": 127
            },
            {
              "note": "F#2",
              "pitch": 54,
              "beat": 19.5,
              "dur": 0.5,
              "vel": 127
            },
            {
              "note": "C#2",
              "pitch": 49,
              "beat": 20.0,
              "dur": 0.25,
              "vel": 127
            },
            {
              "note": "C#2",
              "pitch": 49,
              "beat": 20.25,
              "dur": 0.5,
              "vel": 127
            },
            {
              "note": "C#2",
              "pitch": 49,
              "beat": 20.75,
              "dur": 0.5,
              "vel": 127
            },
            {
              "note": "C#2",
              "pitch": 49,
              "beat": 21.5,
              "dur": 0.556,
              "vel": 127
            },
            {
              "note": "C#2",
              "pitch": 49,
              "beat": 22.25,
              "dur": 0.584,
              "vel": 127
            },
            {
              "note": "G#2",
              "pitch": 56,
              "beat": 23.0,
              "dur": 0.373,
              "vel": 127
            },
            {
              "note": "G#2",
              "pitch": 56,
              "beat": 23.5,
              "dur": 0.373,
              "vel": 127
            },
            {
              "note": "D#2",
              "pitch": 51,
              "beat": 24.0,
              "dur": 0.25,
              "vel": 127
            },
            {
              "note": "D#2",
              "pitch": 51,
              "beat": 24.25,
              "dur": 0.5,
              "vel": 127
            },
            {
              "note": "D#2",
              "pitch": 51,
              "beat": 24.75,
              "dur": 0.5,
              "vel": 127
            },
            {
              "note": "D#2",
              "pitch": 51,
              "beat": 25.5,
              "dur": 0.556,
              "vel": 127
            },
            {
              "note": "D#2",
              "pitch": 51,
              "beat": 26.25,
              "dur": 0.584,
              "vel": 127
            },
            {
              "note": "D#2",
              "pitch": 51,
              "beat": 27.0,
              "dur": 0.5,
              "vel": 127
            },
            {
              "note": "G#2",
              "pitch": 56,
              "beat": 27.5,
              "dur": 0.5,
              "vel": 127
            },
            {
              "note": "A#2",
              "pitch": 58,
              "beat": 28.0,
              "dur": 0.25,
              "vel": 127
            },
            {
              "note": "A#2",
              "pitch": 58,
              "beat": 28.25,
              "dur": 0.5,
              "vel": 127
            },
            {
              "note": "A#2",
              "pitch": 58,
              "beat": 28.75,
              "dur": 0.614,
              "vel": 127
            },
            {
              "note": "A#2",
              "pitch": 58,
              "beat": 29.5,
              "dur": 0.556,
              "vel": 127
            },
            {
              "note": "A#2",
              "pitch": 58,
              "beat": 30.25,
              "dur": 0.584,
              "vel": 127
            },
            {
              "note": "F2",
              "pitch": 53,
              "beat": 31.0,
              "dur": 0.5,
              "vel": 127
            },
            {
              "note": "F2",
              "pitch": 53,
              "beat": 31.5,
              "dur": 0.5,
              "vel": 127
            }
          ]
        },
        {
          "bar_start": 124.0,
          "bar_end": 124.25,
          "name": "",
          "notes": [
            {
              "note": "F#2",
              "pitch": 54,
              "beat": 0.0,
              "dur": 0.25,
              "vel": 127
            },
            {
              "note": "F#2",
              "pitch": 54,
              "beat": 0.25,
              "dur": 0.5,
              "vel": 127
            },
            {
              "note": "F#2",
              "pitch": 54,
              "beat": 0.75,
              "dur": 0.5,
              "vel": 127
            },
            {
              "note": "F#2",
              "pitch": 54,
              "beat": 1.5,
              "dur": 0.556,
              "vel": 127
            },
            {
              "note": "F#2",
              "pitch": 54,
              "beat": 2.25,
              "dur": 0.584,
              "vel": 127
            },
            {
              "note": "F#2",
              "pitch": 54,
              "beat": 3.0,
              "dur": 0.5,
              "vel": 127
            },
            {
              "note": "F#2",
              "pitch": 54,
              "beat": 3.5,
              "dur": 0.5,
              "vel": 127
            },
            {
              "note": "C#2",
              "pitch": 49,
              "beat": 4.0,
              "dur": 0.25,
              "vel": 127
            },
            {
              "note": "C#2",
              "pitch": 49,
              "beat": 4.25,
              "dur": 0.5,
              "vel": 127
            },
            {
              "note": "C#2",
              "pitch": 49,
              "beat": 4.75,
              "dur": 0.5,
              "vel": 127
            },
            {
              "note": "C#2",
              "pitch": 49,
              "beat": 5.5,
              "dur": 0.556,
              "vel": 127
            },
            {
              "note": "C#2",
              "pitch": 49,
              "beat": 6.25,
              "dur": 0.584,
              "vel": 127
            },
            {
              "note": "C#2",
              "pitch": 49,
              "beat": 7.0,
              "dur": 0.5,
              "vel": 127
            },
            {
              "note": "C#2",
              "pitch": 49,
              "beat": 7.5,
              "dur": 0.5,
              "vel": 127
            },
            {
              "note": "D#2",
              "pitch": 51,
              "beat": 8.0,
              "dur": 0.25,
              "vel": 127
            },
            {
              "note": "D#2",
              "pitch": 51,
              "beat": 8.25,
              "dur": 0.5,
              "vel": 127
            },
            {
              "note": "D#2",
              "pitch": 51,
              "beat": 8.75,
              "dur": 0.5,
              "vel": 127
            },
            {
              "note": "D#2",
              "pitch": 51,
              "beat": 9.5,
              "dur": 0.556,
              "vel": 127
            },
            {
              "note": "D#2",
              "pitch": 51,
              "beat": 10.25,
              "dur": 0.584,
              "vel": 127
            },
            {
              "note": "D#2",
              "pitch": 51,
              "beat": 11.0,
              "dur": 0.5,
              "vel": 127
            },
            {
              "note": "D#2",
              "pitch": 51,
              "beat": 11.5,
              "dur": 0.5,
              "vel": 127
            },
            {
              "note": "A#1",
              "pitch": 46,
              "beat": 12.0,
              "dur": 0.25,
              "vel": 127
            },
            {
              "note": "A#1",
              "pitch": 46,
              "beat": 12.25,
              "dur": 0.5,
              "vel": 127
            },
            {
              "note": "A#1",
              "pitch": 46,
              "beat": 12.75,
              "dur": 0.614,
              "vel": 127
            },
            {
              "note": "A#1",
              "pitch": 46,
              "beat": 13.5,
              "dur": 0.556,
              "vel": 127
            },
            {
              "note": "A#1",
              "pitch": 46,
              "beat": 14.25,
              "dur": 0.584,
              "vel": 127
            },
            {
              "note": "F2",
              "pitch": 53,
              "beat": 15.0,
              "dur": 0.5,
              "vel": 127
            },
            {
              "note": "F2",
              "pitch": 53,
              "beat": 15.5,
              "dur": 0.5,
              "vel": 127
            },
            {
              "note": "F#2",
              "pitch": 54,
              "beat": 16.0,
              "dur": 0.25,
              "vel": 127
            },
            {
              "note": "F#2",
              "pitch": 54,
              "beat": 16.25,
              "dur": 0.5,
              "vel": 127
            },
            {
              "note": "F#2",
              "pitch": 54,
              "beat": 16.75,
              "dur": 0.5,
              "vel": 127
            },
            {
              "note": "F#2",
              "pitch": 54,
              "beat": 17.5,
              "dur": 0.556,
              "vel": 127
            },
            {
              "note": "F#2",
              "pitch": 54,
              "beat": 18.25,
              "dur": 0.584,
              "vel": 127
            },
            {
              "note": "F#2",
              "pitch": 54,
              "beat": 19.0,
              "dur": 0.5,
              "vel": 127
            },
            {
              "note": "F#2",
              "pitch": 54,
              "beat": 19.5,
              "dur": 0.5,
              "vel": 127
            },
            {
              "note": "C#2",
              "pitch": 49,
              "beat": 20.0,
              "dur": 0.25,
              "vel": 127
            },
            {
              "note": "C#2",
              "pitch": 49,
              "beat": 20.25,
              "dur": 0.5,
              "vel": 127
            },
            {
              "note": "C#2",
              "pitch": 49,
              "beat": 20.75,
              "dur": 0.5,
              "vel": 127
            },
            {
              "note": "C#2",
              "pitch": 49,
              "beat": 21.5,
              "dur": 0.556,
              "vel": 127
            },
            {
              "note": "C#2",
              "pitch": 49,
              "beat": 22.25,
              "dur": 0.584,
              "vel": 127
            },
            {
              "note": "G#2",
              "pitch": 56,
              "beat": 23.0,
              "dur": 0.373,
              "vel": 127
            },
            {
              "note": "G#2",
              "pitch": 56,
              "beat": 23.5,
              "dur": 0.373,
              "vel": 127
            },
            {
              "note": "D#2",
              "pitch": 51,
              "beat": 24.0,
              "dur": 0.25,
              "vel": 127
            },
            {
              "note": "D#2",
              "pitch": 51,
              "beat": 24.25,
              "dur": 0.5,
              "vel": 127
            },
            {
              "note": "D#2",
              "pitch": 51,
              "beat": 24.75,
              "dur": 0.5,
              "vel": 127
            },
            {
              "note": "D#2",
              "pitch": 51,
              "beat": 25.5,
              "dur": 0.556,
              "vel": 127
            },
            {
              "note": "D#2",
              "pitch": 51,
              "beat": 26.25,
              "dur": 0.584,
              "vel": 127
            },
            {
              "note": "D#2",
              "pitch": 51,
              "beat": 27.0,
              "dur": 0.5,
              "vel": 127
            },
            {
              "note": "G#2",
              "pitch": 56,
              "beat": 27.5,
              "dur": 0.5,
              "vel": 127
            },
            {
              "note": "A#2",
              "pitch": 58,
              "beat": 28.0,
              "dur": 0.25,
              "vel": 127
            },
            {
              "note": "A#2",
              "pitch": 58,
              "beat": 28.25,
              "dur": 0.5,
              "vel": 127
            },
            {
              "note": "A#2",
              "pitch": 58,
              "beat": 28.75,
              "dur": 0.614,
              "vel": 127
            },
            {
              "note": "A#2",
              "pitch": 58,
              "beat": 29.5,
              "dur": 0.556,
              "vel": 127
            },
            {
              "note": "A#2",
              "pitch": 58,
              "beat": 30.25,
              "dur": 0.584,
              "vel": 127
            },
            {
              "note": "F2",
              "pitch": 53,
              "beat": 31.0,
              "dur": 0.5,
              "vel": 127
            },
            {
              "note": "F2",
              "pitch": 53,
              "beat": 31.5,
              "dur": 0.5,
              "vel": 127
            }
          ]
        },
        {
          "bar_start": 125.0,
          "bar_end": 125.25,
          "name": "",
          "notes": [
            {
              "note": "F#2",
              "pitch": 54,
              "beat": 0.0,
              "dur": 0.25,
              "vel": 127
            },
            {
              "note": "F#2",
              "pitch": 54,
              "beat": 0.25,
              "dur": 0.5,
              "vel": 127
            },
            {
              "note": "F#2",
              "pitch": 54,
              "beat": 0.75,
              "dur": 0.5,
              "vel": 127
            },
            {
              "note": "F#2",
              "pitch": 54,
              "beat": 1.5,
              "dur": 0.556,
              "vel": 127
            },
            {
              "note": "F#2",
              "pitch": 54,
              "beat": 2.25,
              "dur": 0.584,
              "vel": 127
            },
            {
              "note": "F#2",
              "pitch": 54,
              "beat": 3.0,
              "dur": 0.5,
              "vel": 127
            },
            {
              "note": "F#2",
              "pitch": 54,
              "beat": 3.5,
              "dur": 0.5,
              "vel": 127
            },
            {
              "note": "C#2",
              "pitch": 49,
              "beat": 4.0,
              "dur": 0.25,
              "vel": 127
            },
            {
              "note": "C#2",
              "pitch": 49,
              "beat": 4.25,
              "dur": 0.5,
              "vel": 127
            },
            {
              "note": "C#2",
              "pitch": 49,
              "beat": 4.75,
              "dur": 0.5,
              "vel": 127
            },
            {
              "note": "C#2",
              "pitch": 49,
              "beat": 5.5,
              "dur": 0.556,
              "vel": 127
            },
            {
              "note": "C#2",
              "pitch": 49,
              "beat": 6.25,
              "dur": 0.584,
              "vel": 127
            },
            {
              "note": "C#2",
              "pitch": 49,
              "beat": 7.0,
              "dur": 0.5,
              "vel": 127
            },
            {
              "note": "C#2",
              "pitch": 49,
              "beat": 7.5,
              "dur": 0.5,
              "vel": 127
            },
            {
              "note": "D#2",
              "pitch": 51,
              "beat": 8.0,
              "dur": 0.25,
              "vel": 127
            },
            {
              "note": "D#2",
              "pitch": 51,
              "beat": 8.25,
              "dur": 0.5,
              "vel": 127
            },
            {
              "note": "D#2",
              "pitch": 51,
              "beat": 8.75,
              "dur": 0.5,
              "vel": 127
            },
            {
              "note": "D#2",
              "pitch": 51,
              "beat": 9.5,
              "dur": 0.556,
              "vel": 127
            },
            {
              "note": "D#2",
              "pitch": 51,
              "beat": 10.25,
              "dur": 0.584,
              "vel": 127
            },
            {
              "note": "D#2",
              "pitch": 51,
              "beat": 11.0,
              "dur": 0.5,
              "vel": 127
            },
            {
              "note": "D#2",
              "pitch": 51,
              "beat": 11.5,
              "dur": 0.5,
              "vel": 127
            },
            {
              "note": "A#1",
              "pitch": 46,
              "beat": 12.0,
              "dur": 0.25,
              "vel": 127
            },
            {
              "note": "A#1",
              "pitch": 46,
              "beat": 12.25,
              "dur": 0.5,
              "vel": 127
            },
            {
              "note": "A#1",
              "pitch": 46,
              "beat": 12.75,
              "dur": 0.614,
              "vel": 127
            },
            {
              "note": "A#1",
              "pitch": 46,
              "beat": 13.5,
              "dur": 0.556,
              "vel": 127
            },
            {
              "note": "A#1",
              "pitch": 46,
              "beat": 14.25,
              "dur": 0.584,
              "vel": 127
            },
            {
              "note": "F2",
              "pitch": 53,
              "beat": 15.0,
              "dur": 0.5,
              "vel": 127
            },
            {
              "note": "F2",
              "pitch": 53,
              "beat": 15.5,
              "dur": 0.5,
              "vel": 127
            },
            {
              "note": "F#2",
              "pitch": 54,
              "beat": 16.0,
              "dur": 0.25,
              "vel": 127
            },
            {
              "note": "F#2",
              "pitch": 54,
              "beat": 16.25,
              "dur": 0.5,
              "vel": 127
            },
            {
              "note": "F#2",
              "pitch": 54,
              "beat": 16.75,
              "dur": 0.5,
              "vel": 127
            },
            {
              "note": "F#2",
              "pitch": 54,
              "beat": 17.5,
              "dur": 0.556,
              "vel": 127
            },
            {
              "note": "F#2",
              "pitch": 54,
              "beat": 18.25,
              "dur": 0.584,
              "vel": 127
            },
            {
              "note": "F#2",
              "pitch": 54,
              "beat": 19.0,
              "dur": 0.5,
              "vel": 127
            },
            {
              "note": "F#2",
              "pitch": 54,
              "beat": 19.5,
              "dur": 0.5,
              "vel": 127
            },
            {
              "note": "C#2",
              "pitch": 49,
              "beat": 20.0,
              "dur": 0.25,
              "vel": 127
            },
            {
              "note": "C#2",
              "pitch": 49,
              "beat": 20.25,
              "dur": 0.5,
              "vel": 127
            },
            {
              "note": "C#2",
              "pitch": 49,
              "beat": 20.75,
              "dur": 0.5,
              "vel": 127
            },
            {
              "note": "C#2",
              "pitch": 49,
              "beat": 21.5,
              "dur": 0.556,
              "vel": 127
            },
            {
              "note": "C#2",
              "pitch": 49,
              "beat": 22.25,
              "dur": 0.584,
              "vel": 127
            },
            {
              "note": "G#2",
              "pitch": 56,
              "beat": 23.0,
              "dur": 0.373,
              "vel": 127
            },
            {
              "note": "G#2",
              "pitch": 56,
              "beat": 23.5,
              "dur": 0.373,
              "vel": 127
            },
            {
              "note": "D#2",
              "pitch": 51,
              "beat": 24.0,
              "dur": 0.25,
              "vel": 127
            },
            {
              "note": "D#2",
              "pitch": 51,
              "beat": 24.25,
              "dur": 0.5,
              "vel": 127
            },
            {
              "note": "D#2",
              "pitch": 51,
              "beat": 24.75,
              "dur": 0.5,
              "vel": 127
            },
            {
              "note": "D#2",
              "pitch": 51,
              "beat": 25.5,
              "dur": 0.556,
              "vel": 127
            },
            {
              "note": "D#2",
              "pitch": 51,
              "beat": 26.25,
              "dur": 0.584,
              "vel": 127
            },
            {
              "note": "D#2",
              "pitch": 51,
              "beat": 27.0,
              "dur": 0.5,
              "vel": 127
            },
            {
              "note": "G#2",
              "pitch": 56,
              "beat": 27.5,
              "dur": 0.5,
              "vel": 127
            },
            {
              "note": "A#2",
              "pitch": 58,
              "beat": 28.0,
              "dur": 0.25,
              "vel": 127
            },
            {
              "note": "A#2",
              "pitch": 58,
              "beat": 28.25,
              "dur": 0.5,
              "vel": 127
            },
            {
              "note": "A#2",
              "pitch": 58,
              "beat": 28.75,
              "dur": 0.614,
              "vel": 127
            },
            {
              "note": "A#2",
              "pitch": 58,
              "beat": 29.5,
              "dur": 0.556,
              "vel": 127
            },
            {
              "note": "A#2",
              "pitch": 58,
              "beat": 30.25,
              "dur": 0.584,
              "vel": 127
            },
            {
              "note": "F2",
              "pitch": 53,
              "beat": 31.0,
              "dur": 0.5,
              "vel": 127
            },
            {
              "note": "F2",
              "pitch": 53,
              "beat": 31.5,
              "dur": 0.5,
              "vel": 127
            }
          ]
        },
        {
          "bar_start": 126.0,
          "bar_end": 126.25,
          "name": "",
          "notes": [
            {
              "note": "F#2",
              "pitch": 54,
              "beat": 0.0,
              "dur": 0.25,
              "vel": 127
            },
            {
              "note": "F#2",
              "pitch": 54,
              "beat": 0.25,
              "dur": 0.5,
              "vel": 127
            },
            {
              "note": "F#2",
              "pitch": 54,
              "beat": 0.75,
              "dur": 0.5,
              "vel": 127
            },
            {
              "note": "F#2",
              "pitch": 54,
              "beat": 1.5,
              "dur": 0.556,
              "vel": 127
            },
            {
              "note": "F#2",
              "pitch": 54,
              "beat": 2.25,
              "dur": 0.584,
              "vel": 127
            },
            {
              "note": "F#2",
              "pitch": 54,
              "beat": 3.0,
              "dur": 0.5,
              "vel": 127
            },
            {
              "note": "F#2",
              "pitch": 54,
              "beat": 3.5,
              "dur": 0.5,
              "vel": 127
            },
            {
              "note": "C#2",
              "pitch": 49,
              "beat": 4.0,
              "dur": 0.25,
              "vel": 127
            },
            {
              "note": "C#2",
              "pitch": 49,
              "beat": 4.25,
              "dur": 0.5,
              "vel": 127
            },
            {
              "note": "C#2",
              "pitch": 49,
              "beat": 4.75,
              "dur": 0.5,
              "vel": 127
            },
            {
              "note": "C#2",
              "pitch": 49,
              "beat": 5.5,
              "dur": 0.556,
              "vel": 127
            },
            {
              "note": "C#2",
              "pitch": 49,
              "beat": 6.25,
              "dur": 0.584,
              "vel": 127
            },
            {
              "note": "C#2",
              "pitch": 49,
              "beat": 7.0,
              "dur": 0.5,
              "vel": 127
            },
            {
              "note": "C#2",
              "pitch": 49,
              "beat": 7.5,
              "dur": 0.5,
              "vel": 127
            },
            {
              "note": "D#2",
              "pitch": 51,
              "beat": 8.0,
              "dur": 0.25,
              "vel": 127
            },
            {
              "note": "D#2",
              "pitch": 51,
              "beat": 8.25,
              "dur": 0.5,
              "vel": 127
            },
            {
              "note": "D#2",
              "pitch": 51,
              "beat": 8.75,
              "dur": 0.5,
              "vel": 127
            },
            {
              "note": "D#2",
              "pitch": 51,
              "beat": 9.5,
              "dur": 0.556,
              "vel": 127
            },
            {
              "note": "D#2",
              "pitch": 51,
              "beat": 10.25,
              "dur": 0.584,
              "vel": 127
            },
            {
              "note": "D#2",
              "pitch": 51,
              "beat": 11.0,
              "dur": 0.5,
              "vel": 127
            },
            {
              "note": "D#2",
              "pitch": 51,
              "beat": 11.5,
              "dur": 0.5,
              "vel": 127
            },
            {
              "note": "A#1",
              "pitch": 46,
              "beat": 12.0,
              "dur": 0.25,
              "vel": 127
            },
            {
              "note": "A#1",
              "pitch": 46,
              "beat": 12.25,
              "dur": 0.5,
              "vel": 127
            },
            {
              "note": "A#1",
              "pitch": 46,
              "beat": 12.75,
              "dur": 0.614,
              "vel": 127
            },
            {
              "note": "A#1",
              "pitch": 46,
              "beat": 13.5,
              "dur": 0.556,
              "vel": 127
            },
            {
              "note": "A#1",
              "pitch": 46,
              "beat": 14.25,
              "dur": 0.584,
              "vel": 127
            },
            {
              "note": "F2",
              "pitch": 53,
              "beat": 15.0,
              "dur": 0.5,
              "vel": 127
            },
            {
              "note": "F2",
              "pitch": 53,
              "beat": 15.5,
              "dur": 0.5,
              "vel": 127
            },
            {
              "note": "F#2",
              "pitch": 54,
              "beat": 16.0,
              "dur": 0.25,
              "vel": 127
            },
            {
              "note": "F#2",
              "pitch": 54,
              "beat": 16.25,
              "dur": 0.5,
              "vel": 127
            },
            {
              "note": "F#2",
              "pitch": 54,
              "beat": 16.75,
              "dur": 0.5,
              "vel": 127
            },
            {
              "note": "F#2",
              "pitch": 54,
              "beat": 17.5,
              "dur": 0.556,
              "vel": 127
            },
            {
              "note": "F#2",
              "pitch": 54,
              "beat": 18.25,
              "dur": 0.584,
              "vel": 127
            },
            {
              "note": "F#2",
              "pitch": 54,
              "beat": 19.0,
              "dur": 0.5,
              "vel": 127
            },
            {
              "note": "F#2",
              "pitch": 54,
              "beat": 19.5,
              "dur": 0.5,
              "vel": 127
            },
            {
              "note": "C#2",
              "pitch": 49,
              "beat": 20.0,
              "dur": 0.25,
              "vel": 127
            },
            {
              "note": "C#2",
              "pitch": 49,
              "beat": 20.25,
              "dur": 0.5,
              "vel": 127
            },
            {
              "note": "C#2",
              "pitch": 49,
              "beat": 20.75,
              "dur": 0.5,
              "vel": 127
            },
            {
              "note": "C#2",
              "pitch": 49,
              "beat": 21.5,
              "dur": 0.556,
              "vel": 127
            },
            {
              "note": "C#2",
              "pitch": 49,
              "beat": 22.25,
              "dur": 0.584,
              "vel": 127
            },
            {
              "note": "G#2",
              "pitch": 56,
              "beat": 23.0,
              "dur": 0.373,
              "vel": 127
            },
            {
              "note": "G#2",
              "pitch": 56,
              "beat": 23.5,
              "dur": 0.373,
              "vel": 127
            },
            {
              "note": "D#2",
              "pitch": 51,
              "beat": 24.0,
              "dur": 0.25,
              "vel": 127
            },
            {
              "note": "D#2",
              "pitch": 51,
              "beat": 24.25,
              "dur": 0.5,
              "vel": 127
            },
            {
              "note": "D#2",
              "pitch": 51,
              "beat": 24.75,
              "dur": 0.5,
              "vel": 127
            },
            {
              "note": "D#2",
              "pitch": 51,
              "beat": 25.5,
              "dur": 0.556,
              "vel": 127
            },
            {
              "note": "D#2",
              "pitch": 51,
              "beat": 26.25,
              "dur": 0.584,
              "vel": 127
            },
            {
              "note": "D#2",
              "pitch": 51,
              "beat": 27.0,
              "dur": 0.5,
              "vel": 127
            },
            {
              "note": "G#2",
              "pitch": 56,
              "beat": 27.5,
              "dur": 0.5,
              "vel": 127
            },
            {
              "note": "A#2",
              "pitch": 58,
              "beat": 28.0,
              "dur": 0.25,
              "vel": 127
            },
            {
              "note": "A#2",
              "pitch": 58,
              "beat": 28.25,
              "dur": 0.5,
              "vel": 127
            },
            {
              "note": "A#2",
              "pitch": 58,
              "beat": 28.75,
              "dur": 0.614,
              "vel": 127
            },
            {
              "note": "A#2",
              "pitch": 58,
              "beat": 29.5,
              "dur": 0.556,
              "vel": 127
            },
            {
              "note": "A#2",
              "pitch": 58,
              "beat": 30.25,
              "dur": 0.584,
              "vel": 127
            },
            {
              "note": "F2",
              "pitch": 53,
              "beat": 31.0,
              "dur": 0.5,
              "vel": 127
            },
            {
              "note": "F2",
              "pitch": 53,
              "beat": 31.5,
              "dur": 0.5,
              "vel": 127
            }
          ]
        },
        {
          "bar_start": 127.0,
          "bar_end": 128.0,
          "name": "",
          "notes": [
            {
              "note": "F#2",
              "pitch": 54,
              "beat": 0.0,
              "dur": 0.25,
              "vel": 127
            },
            {
              "note": "F#2",
              "pitch": 54,
              "beat": 0.25,
              "dur": 0.5,
              "vel": 127
            },
            {
              "note": "F#2",
              "pitch": 54,
              "beat": 0.75,
              "dur": 0.5,
              "vel": 127
            },
            {
              "note": "F#2",
              "pitch": 54,
              "beat": 1.5,
              "dur": 0.556,
              "vel": 127
            },
            {
              "note": "F#2",
              "pitch": 54,
              "beat": 2.25,
              "dur": 0.584,
              "vel": 127
            },
            {
              "note": "F#2",
              "pitch": 54,
              "beat": 3.0,
              "dur": 0.5,
              "vel": 127
            },
            {
              "note": "F#2",
              "pitch": 54,
              "beat": 3.5,
              "dur": 0.5,
              "vel": 127
            },
            {
              "note": "C#2",
              "pitch": 49,
              "beat": 4.0,
              "dur": 0.25,
              "vel": 127
            },
            {
              "note": "C#2",
              "pitch": 49,
              "beat": 4.25,
              "dur": 0.5,
              "vel": 127
            },
            {
              "note": "C#2",
              "pitch": 49,
              "beat": 4.75,
              "dur": 0.5,
              "vel": 127
            },
            {
              "note": "C#2",
              "pitch": 49,
              "beat": 5.5,
              "dur": 0.556,
              "vel": 127
            },
            {
              "note": "C#2",
              "pitch": 49,
              "beat": 6.25,
              "dur": 0.584,
              "vel": 127
            },
            {
              "note": "C#2",
              "pitch": 49,
              "beat": 7.0,
              "dur": 0.5,
              "vel": 127
            },
            {
              "note": "C#2",
              "pitch": 49,
              "beat": 7.5,
              "dur": 0.5,
              "vel": 127
            },
            {
              "note": "D#2",
              "pitch": 51,
              "beat": 8.0,
              "dur": 0.25,
              "vel": 127
            },
            {
              "note": "D#2",
              "pitch": 51,
              "beat": 8.25,
              "dur": 0.5,
              "vel": 127
            },
            {
              "note": "D#2",
              "pitch": 51,
              "beat": 8.75,
              "dur": 0.5,
              "vel": 127
            },
            {
              "note": "D#2",
              "pitch": 51,
              "beat": 9.5,
              "dur": 0.556,
              "vel": 127
            },
            {
              "note": "D#2",
              "pitch": 51,
              "beat": 10.25,
              "dur": 0.584,
              "vel": 127
            },
            {
              "note": "D#2",
              "pitch": 51,
              "beat": 11.0,
              "dur": 0.5,
              "vel": 127
            },
            {
              "note": "D#2",
              "pitch": 51,
              "beat": 11.5,
              "dur": 0.5,
              "vel": 127
            },
            {
              "note": "A#1",
              "pitch": 46,
              "beat": 12.0,
              "dur": 0.25,
              "vel": 127
            },
            {
              "note": "A#1",
              "pitch": 46,
              "beat": 12.25,
              "dur": 0.5,
              "vel": 127
            },
            {
              "note": "A#1",
              "pitch": 46,
              "beat": 12.75,
              "dur": 0.614,
              "vel": 127
            },
            {
              "note": "A#1",
              "pitch": 46,
              "beat": 13.5,
              "dur": 0.556,
              "vel": 127
            },
            {
              "note": "A#1",
              "pitch": 46,
              "beat": 14.25,
              "dur": 0.584,
              "vel": 127
            },
            {
              "note": "F2",
              "pitch": 53,
              "beat": 15.0,
              "dur": 0.5,
              "vel": 127
            },
            {
              "note": "F2",
              "pitch": 53,
              "beat": 15.5,
              "dur": 0.5,
              "vel": 127
            },
            {
              "note": "F#2",
              "pitch": 54,
              "beat": 16.0,
              "dur": 0.25,
              "vel": 127
            },
            {
              "note": "F#2",
              "pitch": 54,
              "beat": 16.25,
              "dur": 0.5,
              "vel": 127
            },
            {
              "note": "F#2",
              "pitch": 54,
              "beat": 16.75,
              "dur": 0.5,
              "vel": 127
            },
            {
              "note": "F#2",
              "pitch": 54,
              "beat": 17.5,
              "dur": 0.556,
              "vel": 127
            },
            {
              "note": "F#2",
              "pitch": 54,
              "beat": 18.25,
              "dur": 0.584,
              "vel": 127
            },
            {
              "note": "F#2",
              "pitch": 54,
              "beat": 19.0,
              "dur": 0.5,
              "vel": 127
            },
            {
              "note": "F#2",
              "pitch": 54,
              "beat": 19.5,
              "dur": 0.5,
              "vel": 127
            },
            {
              "note": "C#2",
              "pitch": 49,
              "beat": 20.0,
              "dur": 0.25,
              "vel": 127
            },
            {
              "note": "C#2",
              "pitch": 49,
              "beat": 20.25,
              "dur": 0.5,
              "vel": 127
            },
            {
              "note": "C#2",
              "pitch": 49,
              "beat": 20.75,
              "dur": 0.5,
              "vel": 127
            },
            {
              "note": "C#2",
              "pitch": 49,
              "beat": 21.5,
              "dur": 0.556,
              "vel": 127
            },
            {
              "note": "C#2",
              "pitch": 49,
              "beat": 22.25,
              "dur": 0.584,
              "vel": 127
            },
            {
              "note": "G#2",
              "pitch": 56,
              "beat": 23.0,
              "dur": 0.373,
              "vel": 127
            },
            {
              "note": "G#2",
              "pitch": 56,
              "beat": 23.5,
              "dur": 0.373,
              "vel": 127
            },
            {
              "note": "D#2",
              "pitch": 51,
              "beat": 24.0,
              "dur": 0.25,
              "vel": 127
            },
            {
              "note": "D#2",
              "pitch": 51,
              "beat": 24.25,
              "dur": 0.5,
              "vel": 127
            },
            {
              "note": "D#2",
              "pitch": 51,
              "beat": 24.75,
              "dur": 0.5,
              "vel": 127
            },
            {
              "note": "D#2",
              "pitch": 51,
              "beat": 25.5,
              "dur": 0.556,
              "vel": 127
            },
            {
              "note": "D#2",
              "pitch": 51,
              "beat": 26.25,
              "dur": 0.584,
              "vel": 127
            },
            {
              "note": "D#2",
              "pitch": 51,
              "beat": 27.0,
              "dur": 0.5,
              "vel": 127
            },
            {
              "note": "G#2",
              "pitch": 56,
              "beat": 27.5,
              "dur": 0.5,
              "vel": 127
            },
            {
              "note": "A#2",
              "pitch": 58,
              "beat": 28.0,
              "dur": 0.25,
              "vel": 127
            },
            {
              "note": "A#2",
              "pitch": 58,
              "beat": 28.25,
              "dur": 0.5,
              "vel": 127
            },
            {
              "note": "A#2",
              "pitch": 58,
              "beat": 28.75,
              "dur": 0.614,
              "vel": 127
            },
            {
              "note": "A#2",
              "pitch": 58,
              "beat": 29.5,
              "dur": 0.556,
              "vel": 127
            },
            {
              "note": "A#2",
              "pitch": 58,
              "beat": 30.25,
              "dur": 0.584,
              "vel": 127
            },
            {
              "note": "F2",
              "pitch": 53,
              "beat": 31.0,
              "dur": 0.5,
              "vel": 127
            },
            {
              "note": "F2",
              "pitch": 53,
              "beat": 31.5,
              "dur": 0.5,
              "vel": 127
            }
          ]
        },
        {
          "bar_start": 128.0,
          "bar_end": 128.25,
          "name": "",
          "notes": [
            {
              "note": "F#2",
              "pitch": 54,
              "beat": 0.0,
              "dur": 0.25,
              "vel": 127
            },
            {
              "note": "F#2",
              "pitch": 54,
              "beat": 0.25,
              "dur": 0.5,
              "vel": 127
            },
            {
              "note": "F#2",
              "pitch": 54,
              "beat": 0.75,
              "dur": 0.5,
              "vel": 127
            },
            {
              "note": "F#2",
              "pitch": 54,
              "beat": 1.5,
              "dur": 0.556,
              "vel": 127
            },
            {
              "note": "F#2",
              "pitch": 54,
              "beat": 2.25,
              "dur": 0.584,
              "vel": 127
            },
            {
              "note": "F#2",
              "pitch": 54,
              "beat": 3.0,
              "dur": 0.5,
              "vel": 127
            },
            {
              "note": "F#2",
              "pitch": 54,
              "beat": 3.5,
              "dur": 0.5,
              "vel": 127
            },
            {
              "note": "C#2",
              "pitch": 49,
              "beat": 4.0,
              "dur": 0.25,
              "vel": 127
            },
            {
              "note": "C#2",
              "pitch": 49,
              "beat": 4.25,
              "dur": 0.5,
              "vel": 127
            },
            {
              "note": "C#2",
              "pitch": 49,
              "beat": 4.75,
              "dur": 0.5,
              "vel": 127
            },
            {
              "note": "C#2",
              "pitch": 49,
              "beat": 5.5,
              "dur": 0.556,
              "vel": 127
            },
            {
              "note": "C#2",
              "pitch": 49,
              "beat": 6.25,
              "dur": 0.584,
              "vel": 127
            },
            {
              "note": "C#2",
              "pitch": 49,
              "beat": 7.0,
              "dur": 0.5,
              "vel": 127
            },
            {
              "note": "C#2",
              "pitch": 49,
              "beat": 7.5,
              "dur": 0.5,
              "vel": 127
            },
            {
              "note": "D#2",
              "pitch": 51,
              "beat": 8.0,
              "dur": 0.25,
              "vel": 127
            },
            {
              "note": "D#2",
              "pitch": 51,
              "beat": 8.25,
              "dur": 0.5,
              "vel": 127
            },
            {
              "note": "D#2",
              "pitch": 51,
              "beat": 8.75,
              "dur": 0.5,
              "vel": 127
            },
            {
              "note": "D#2",
              "pitch": 51,
              "beat": 9.5,
              "dur": 0.556,
              "vel": 127
            },
            {
              "note": "D#2",
              "pitch": 51,
              "beat": 10.25,
              "dur": 0.584,
              "vel": 127
            },
            {
              "note": "D#2",
              "pitch": 51,
              "beat": 11.0,
              "dur": 0.5,
              "vel": 127
            },
            {
              "note": "D#2",
              "pitch": 51,
              "beat": 11.5,
              "dur": 0.5,
              "vel": 127
            },
            {
              "note": "A#1",
              "pitch": 46,
              "beat": 12.0,
              "dur": 0.25,
              "vel": 127
            },
            {
              "note": "A#1",
              "pitch": 46,
              "beat": 12.25,
              "dur": 0.5,
              "vel": 127
            },
            {
              "note": "A#1",
              "pitch": 46,
              "beat": 12.75,
              "dur": 0.614,
              "vel": 127
            },
            {
              "note": "A#1",
              "pitch": 46,
              "beat": 13.5,
              "dur": 0.556,
              "vel": 127
            },
            {
              "note": "A#1",
              "pitch": 46,
              "beat": 14.25,
              "dur": 0.584,
              "vel": 127
            },
            {
              "note": "F2",
              "pitch": 53,
              "beat": 15.0,
              "dur": 0.5,
              "vel": 127
            },
            {
              "note": "F2",
              "pitch": 53,
              "beat": 15.5,
              "dur": 0.5,
              "vel": 127
            },
            {
              "note": "F#2",
              "pitch": 54,
              "beat": 16.0,
              "dur": 0.25,
              "vel": 127
            },
            {
              "note": "F#2",
              "pitch": 54,
              "beat": 16.25,
              "dur": 0.5,
              "vel": 127
            },
            {
              "note": "F#2",
              "pitch": 54,
              "beat": 16.75,
              "dur": 0.5,
              "vel": 127
            },
            {
              "note": "F#2",
              "pitch": 54,
              "beat": 17.5,
              "dur": 0.556,
              "vel": 127
            },
            {
              "note": "F#2",
              "pitch": 54,
              "beat": 18.25,
              "dur": 0.584,
              "vel": 127
            },
            {
              "note": "F#2",
              "pitch": 54,
              "beat": 19.0,
              "dur": 0.5,
              "vel": 127
            },
            {
              "note": "F#2",
              "pitch": 54,
              "beat": 19.5,
              "dur": 0.5,
              "vel": 127
            },
            {
              "note": "C#2",
              "pitch": 49,
              "beat": 20.0,
              "dur": 0.25,
              "vel": 127
            },
            {
              "note": "C#2",
              "pitch": 49,
              "beat": 20.25,
              "dur": 0.5,
              "vel": 127
            },
            {
              "note": "C#2",
              "pitch": 49,
              "beat": 20.75,
              "dur": 0.5,
              "vel": 127
            },
            {
              "note": "C#2",
              "pitch": 49,
              "beat": 21.5,
              "dur": 0.556,
              "vel": 127
            },
            {
              "note": "C#2",
              "pitch": 49,
              "beat": 22.25,
              "dur": 0.584,
              "vel": 127
            },
            {
              "note": "G#2",
              "pitch": 56,
              "beat": 23.0,
              "dur": 0.373,
              "vel": 127
            },
            {
              "note": "G#2",
              "pitch": 56,
              "beat": 23.5,
              "dur": 0.373,
              "vel": 127
            },
            {
              "note": "D#2",
              "pitch": 51,
              "beat": 24.0,
              "dur": 0.25,
              "vel": 127
            },
            {
              "note": "D#2",
              "pitch": 51,
              "beat": 24.25,
              "dur": 0.5,
              "vel": 127
            },
            {
              "note": "D#2",
              "pitch": 51,
              "beat": 24.75,
              "dur": 0.5,
              "vel": 127
            },
            {
              "note": "D#2",
              "pitch": 51,
              "beat": 25.5,
              "dur": 0.556,
              "vel": 127
            },
            {
              "note": "D#2",
              "pitch": 51,
              "beat": 26.25,
              "dur": 0.584,
              "vel": 127
            },
            {
              "note": "D#2",
              "pitch": 51,
              "beat": 27.0,
              "dur": 0.5,
              "vel": 127
            },
            {
              "note": "G#2",
              "pitch": 56,
              "beat": 27.5,
              "dur": 0.5,
              "vel": 127
            },
            {
              "note": "A#2",
              "pitch": 58,
              "beat": 28.0,
              "dur": 0.25,
              "vel": 127
            },
            {
              "note": "A#2",
              "pitch": 58,
              "beat": 28.25,
              "dur": 0.5,
              "vel": 127
            },
            {
              "note": "A#2",
              "pitch": 58,
              "beat": 28.75,
              "dur": 0.614,
              "vel": 127
            },
            {
              "note": "A#2",
              "pitch": 58,
              "beat": 29.5,
              "dur": 0.556,
              "vel": 127
            },
            {
              "note": "A#2",
              "pitch": 58,
              "beat": 30.25,
              "dur": 0.584,
              "vel": 127
            },
            {
              "note": "F2",
              "pitch": 53,
              "beat": 31.0,
              "dur": 0.5,
              "vel": 127
            },
            {
              "note": "F2",
              "pitch": 53,
              "beat": 31.5,
              "dur": 0.5,
              "vel": 127
            }
          ]
        },
        {
          "bar_start": 129.0,
          "bar_end": 129.25,
          "name": "",
          "notes": [
            {
              "note": "F#2",
              "pitch": 54,
              "beat": 0.0,
              "dur": 0.25,
              "vel": 127
            },
            {
              "note": "F#2",
              "pitch": 54,
              "beat": 0.25,
              "dur": 0.5,
              "vel": 127
            },
            {
              "note": "F#2",
              "pitch": 54,
              "beat": 0.75,
              "dur": 0.5,
              "vel": 127
            },
            {
              "note": "F#2",
              "pitch": 54,
              "beat": 1.5,
              "dur": 0.556,
              "vel": 127
            },
            {
              "note": "F#2",
              "pitch": 54,
              "beat": 2.25,
              "dur": 0.584,
              "vel": 127
            },
            {
              "note": "F#2",
              "pitch": 54,
              "beat": 3.0,
              "dur": 0.5,
              "vel": 127
            },
            {
              "note": "F#2",
              "pitch": 54,
              "beat": 3.5,
              "dur": 0.5,
              "vel": 127
            },
            {
              "note": "C#2",
              "pitch": 49,
              "beat": 4.0,
              "dur": 0.25,
              "vel": 127
            },
            {
              "note": "C#2",
              "pitch": 49,
              "beat": 4.25,
              "dur": 0.5,
              "vel": 127
            },
            {
              "note": "C#2",
              "pitch": 49,
              "beat": 4.75,
              "dur": 0.5,
              "vel": 127
            },
            {
              "note": "C#2",
              "pitch": 49,
              "beat": 5.5,
              "dur": 0.556,
              "vel": 127
            },
            {
              "note": "C#2",
              "pitch": 49,
              "beat": 6.25,
              "dur": 0.584,
              "vel": 127
            },
            {
              "note": "C#2",
              "pitch": 49,
              "beat": 7.0,
              "dur": 0.5,
              "vel": 127
            },
            {
              "note": "C#2",
              "pitch": 49,
              "beat": 7.5,
              "dur": 0.5,
              "vel": 127
            },
            {
              "note": "D#2",
              "pitch": 51,
              "beat": 8.0,
              "dur": 0.25,
              "vel": 127
            },
            {
              "note": "D#2",
              "pitch": 51,
              "beat": 8.25,
              "dur": 0.5,
              "vel": 127
            },
            {
              "note": "D#2",
              "pitch": 51,
              "beat": 8.75,
              "dur": 0.5,
              "vel": 127
            },
            {
              "note": "D#2",
              "pitch": 51,
              "beat": 9.5,
              "dur": 0.556,
              "vel": 127
            },
            {
              "note": "D#2",
              "pitch": 51,
              "beat": 10.25,
              "dur": 0.584,
              "vel": 127
            },
            {
              "note": "D#2",
              "pitch": 51,
              "beat": 11.0,
              "dur": 0.5,
              "vel": 127
            },
            {
              "note": "D#2",
              "pitch": 51,
              "beat": 11.5,
              "dur": 0.5,
              "vel": 127
            },
            {
              "note": "A#1",
              "pitch": 46,
              "beat": 12.0,
              "dur": 0.25,
              "vel": 127
            },
            {
              "note": "A#1",
              "pitch": 46,
              "beat": 12.25,
              "dur": 0.5,
              "vel": 127
            },
            {
              "note": "A#1",
              "pitch": 46,
              "beat": 12.75,
              "dur": 0.614,
              "vel": 127
            },
            {
              "note": "A#1",
              "pitch": 46,
              "beat": 13.5,
              "dur": 0.556,
              "vel": 127
            },
            {
              "note": "A#1",
              "pitch": 46,
              "beat": 14.25,
              "dur": 0.584,
              "vel": 127
            },
            {
              "note": "F2",
              "pitch": 53,
              "beat": 15.0,
              "dur": 0.5,
              "vel": 127
            },
            {
              "note": "F2",
              "pitch": 53,
              "beat": 15.5,
              "dur": 0.5,
              "vel": 127
            },
            {
              "note": "F#2",
              "pitch": 54,
              "beat": 16.0,
              "dur": 0.25,
              "vel": 127
            },
            {
              "note": "F#2",
              "pitch": 54,
              "beat": 16.25,
              "dur": 0.5,
              "vel": 127
            },
            {
              "note": "F#2",
              "pitch": 54,
              "beat": 16.75,
              "dur": 0.5,
              "vel": 127
            },
            {
              "note": "F#2",
              "pitch": 54,
              "beat": 17.5,
              "dur": 0.556,
              "vel": 127
            },
            {
              "note": "F#2",
              "pitch": 54,
              "beat": 18.25,
              "dur": 0.584,
              "vel": 127
            },
            {
              "note": "F#2",
              "pitch": 54,
              "beat": 19.0,
              "dur": 0.5,
              "vel": 127
            },
            {
              "note": "F#2",
              "pitch": 54,
              "beat": 19.5,
              "dur": 0.5,
              "vel": 127
            },
            {
              "note": "C#2",
              "pitch": 49,
              "beat": 20.0,
              "dur": 0.25,
              "vel": 127
            },
            {
              "note": "C#2",
              "pitch": 49,
              "beat": 20.25,
              "dur": 0.5,
              "vel": 127
            },
            {
              "note": "C#2",
              "pitch": 49,
              "beat": 20.75,
              "dur": 0.5,
              "vel": 127
            },
            {
              "note": "C#2",
              "pitch": 49,
              "beat": 21.5,
              "dur": 0.556,
              "vel": 127
            },
            {
              "note": "C#2",
              "pitch": 49,
              "beat": 22.25,
              "dur": 0.584,
              "vel": 127
            },
            {
              "note": "G#2",
              "pitch": 56,
              "beat": 23.0,
              "dur": 0.373,
              "vel": 127
            },
            {
              "note": "G#2",
              "pitch": 56,
              "beat": 23.5,
              "dur": 0.373,
              "vel": 127
            },
            {
              "note": "D#2",
              "pitch": 51,
              "beat": 24.0,
              "dur": 0.25,
              "vel": 127
            },
            {
              "note": "D#2",
              "pitch": 51,
              "beat": 24.25,
              "dur": 0.5,
              "vel": 127
            },
            {
              "note": "D#2",
              "pitch": 51,
              "beat": 24.75,
              "dur": 0.5,
              "vel": 127
            },
            {
              "note": "D#2",
              "pitch": 51,
              "beat": 25.5,
              "dur": 0.556,
              "vel": 127
            },
            {
              "note": "D#2",
              "pitch": 51,
              "beat": 26.25,
              "dur": 0.584,
              "vel": 127
            },
            {
              "note": "D#2",
              "pitch": 51,
              "beat": 27.0,
              "dur": 0.5,
              "vel": 127
            },
            {
              "note": "G#2",
              "pitch": 56,
              "beat": 27.5,
              "dur": 0.5,
              "vel": 127
            },
            {
              "note": "A#2",
              "pitch": 58,
              "beat": 28.0,
              "dur": 0.25,
              "vel": 127
            },
            {
              "note": "A#2",
              "pitch": 58,
              "beat": 28.25,
              "dur": 0.5,
              "vel": 127
            },
            {
              "note": "A#2",
              "pitch": 58,
              "beat": 28.75,
              "dur": 0.614,
              "vel": 127
            },
            {
              "note": "A#2",
              "pitch": 58,
              "beat": 29.5,
              "dur": 0.556,
              "vel": 127
            },
            {
              "note": "A#2",
              "pitch": 58,
              "beat": 30.25,
              "dur": 0.584,
              "vel": 127
            },
            {
              "note": "F2",
              "pitch": 53,
              "beat": 31.0,
              "dur": 0.5,
              "vel": 127
            },
            {
              "note": "F2",
              "pitch": 53,
              "beat": 31.5,
              "dur": 0.5,
              "vel": 127
            }
          ]
        },
        {
          "bar_start": 130.0,
          "bar_end": 130.25,
          "name": "",
          "notes": [
            {
              "note": "F#2",
              "pitch": 54,
              "beat": 0.0,
              "dur": 0.25,
              "vel": 127
            },
            {
              "note": "F#2",
              "pitch": 54,
              "beat": 0.25,
              "dur": 0.5,
              "vel": 127
            },
            {
              "note": "F#2",
              "pitch": 54,
              "beat": 0.75,
              "dur": 0.5,
              "vel": 127
            },
            {
              "note": "F#2",
              "pitch": 54,
              "beat": 1.5,
              "dur": 0.556,
              "vel": 127
            },
            {
              "note": "F#2",
              "pitch": 54,
              "beat": 2.25,
              "dur": 0.584,
              "vel": 127
            },
            {
              "note": "F#2",
              "pitch": 54,
              "beat": 3.0,
              "dur": 0.5,
              "vel": 127
            },
            {
              "note": "F#2",
              "pitch": 54,
              "beat": 3.5,
              "dur": 0.5,
              "vel": 127
            },
            {
              "note": "C#2",
              "pitch": 49,
              "beat": 4.0,
              "dur": 0.25,
              "vel": 127
            },
            {
              "note": "C#2",
              "pitch": 49,
              "beat": 4.25,
              "dur": 0.5,
              "vel": 127
            },
            {
              "note": "C#2",
              "pitch": 49,
              "beat": 4.75,
              "dur": 0.5,
              "vel": 127
            },
            {
              "note": "C#2",
              "pitch": 49,
              "beat": 5.5,
              "dur": 0.556,
              "vel": 127
            },
            {
              "note": "C#2",
              "pitch": 49,
              "beat": 6.25,
              "dur": 0.584,
              "vel": 127
            },
            {
              "note": "C#2",
              "pitch": 49,
              "beat": 7.0,
              "dur": 0.5,
              "vel": 127
            },
            {
              "note": "C#2",
              "pitch": 49,
              "beat": 7.5,
              "dur": 0.5,
              "vel": 127
            },
            {
              "note": "D#2",
              "pitch": 51,
              "beat": 8.0,
              "dur": 0.25,
              "vel": 127
            },
            {
              "note": "D#2",
              "pitch": 51,
              "beat": 8.25,
              "dur": 0.5,
              "vel": 127
            },
            {
              "note": "D#2",
              "pitch": 51,
              "beat": 8.75,
              "dur": 0.5,
              "vel": 127
            },
            {
              "note": "D#2",
              "pitch": 51,
              "beat": 9.5,
              "dur": 0.556,
              "vel": 127
            },
            {
              "note": "D#2",
              "pitch": 51,
              "beat": 10.25,
              "dur": 0.584,
              "vel": 127
            },
            {
              "note": "D#2",
              "pitch": 51,
              "beat": 11.0,
              "dur": 0.5,
              "vel": 127
            },
            {
              "note": "D#2",
              "pitch": 51,
              "beat": 11.5,
              "dur": 0.5,
              "vel": 127
            },
            {
              "note": "A#1",
              "pitch": 46,
              "beat": 12.0,
              "dur": 0.25,
              "vel": 127
            },
            {
              "note": "A#1",
              "pitch": 46,
              "beat": 12.25,
              "dur": 0.5,
              "vel": 127
            },
            {
              "note": "A#1",
              "pitch": 46,
              "beat": 12.75,
              "dur": 0.614,
              "vel": 127
            },
            {
              "note": "A#1",
              "pitch": 46,
              "beat": 13.5,
              "dur": 0.556,
              "vel": 127
            },
            {
              "note": "A#1",
              "pitch": 46,
              "beat": 14.25,
              "dur": 0.584,
              "vel": 127
            },
            {
              "note": "F2",
              "pitch": 53,
              "beat": 15.0,
              "dur": 0.5,
              "vel": 127
            },
            {
              "note": "F2",
              "pitch": 53,
              "beat": 15.5,
              "dur": 0.5,
              "vel": 127
            },
            {
              "note": "F#2",
              "pitch": 54,
              "beat": 16.0,
              "dur": 0.25,
              "vel": 127
            },
            {
              "note": "F#2",
              "pitch": 54,
              "beat": 16.25,
              "dur": 0.5,
              "vel": 127
            },
            {
              "note": "F#2",
              "pitch": 54,
              "beat": 16.75,
              "dur": 0.5,
              "vel": 127
            },
            {
              "note": "F#2",
              "pitch": 54,
              "beat": 17.5,
              "dur": 0.556,
              "vel": 127
            },
            {
              "note": "F#2",
              "pitch": 54,
              "beat": 18.25,
              "dur": 0.584,
              "vel": 127
            },
            {
              "note": "F#2",
              "pitch": 54,
              "beat": 19.0,
              "dur": 0.5,
              "vel": 127
            },
            {
              "note": "F#2",
              "pitch": 54,
              "beat": 19.5,
              "dur": 0.5,
              "vel": 127
            },
            {
              "note": "C#2",
              "pitch": 49,
              "beat": 20.0,
              "dur": 0.25,
              "vel": 127
            },
            {
              "note": "C#2",
              "pitch": 49,
              "beat": 20.25,
              "dur": 0.5,
              "vel": 127
            },
            {
              "note": "C#2",
              "pitch": 49,
              "beat": 20.75,
              "dur": 0.5,
              "vel": 127
            },
            {
              "note": "C#2",
              "pitch": 49,
              "beat": 21.5,
              "dur": 0.556,
              "vel": 127
            },
            {
              "note": "C#2",
              "pitch": 49,
              "beat": 22.25,
              "dur": 0.584,
              "vel": 127
            },
            {
              "note": "G#2",
              "pitch": 56,
              "beat": 23.0,
              "dur": 0.373,
              "vel": 127
            },
            {
              "note": "G#2",
              "pitch": 56,
              "beat": 23.5,
              "dur": 0.373,
              "vel": 127
            },
            {
              "note": "D#2",
              "pitch": 51,
              "beat": 24.0,
              "dur": 0.25,
              "vel": 127
            },
            {
              "note": "D#2",
              "pitch": 51,
              "beat": 24.25,
              "dur": 0.5,
              "vel": 127
            },
            {
              "note": "D#2",
              "pitch": 51,
              "beat": 24.75,
              "dur": 0.5,
              "vel": 127
            },
            {
              "note": "D#2",
              "pitch": 51,
              "beat": 25.5,
              "dur": 0.556,
              "vel": 127
            },
            {
              "note": "D#2",
              "pitch": 51,
              "beat": 26.25,
              "dur": 0.584,
              "vel": 127
            },
            {
              "note": "D#2",
              "pitch": 51,
              "beat": 27.0,
              "dur": 0.5,
              "vel": 127
            },
            {
              "note": "G#2",
              "pitch": 56,
              "beat": 27.5,
              "dur": 0.5,
              "vel": 127
            },
            {
              "note": "A#2",
              "pitch": 58,
              "beat": 28.0,
              "dur": 0.25,
              "vel": 127
            },
            {
              "note": "A#2",
              "pitch": 58,
              "beat": 28.25,
              "dur": 0.5,
              "vel": 127
            },
            {
              "note": "A#2",
              "pitch": 58,
              "beat": 28.75,
              "dur": 0.614,
              "vel": 127
            },
            {
              "note": "A#2",
              "pitch": 58,
              "beat": 29.5,
              "dur": 0.556,
              "vel": 127
            },
            {
              "note": "A#2",
              "pitch": 58,
              "beat": 30.25,
              "dur": 0.584,
              "vel": 127
            },
            {
              "note": "F2",
              "pitch": 53,
              "beat": 31.0,
              "dur": 0.5,
              "vel": 127
            },
            {
              "note": "F2",
              "pitch": 53,
              "beat": 31.5,
              "dur": 0.5,
              "vel": 127
            }
          ]
        },
        {
          "bar_start": 131.0,
          "bar_end": 131.25,
          "name": "",
          "notes": [
            {
              "note": "F#2",
              "pitch": 54,
              "beat": 0.0,
              "dur": 0.25,
              "vel": 127
            },
            {
              "note": "F#2",
              "pitch": 54,
              "beat": 0.25,
              "dur": 0.5,
              "vel": 127
            },
            {
              "note": "F#2",
              "pitch": 54,
              "beat": 0.75,
              "dur": 0.5,
              "vel": 127
            },
            {
              "note": "F#2",
              "pitch": 54,
              "beat": 1.5,
              "dur": 0.556,
              "vel": 127
            },
            {
              "note": "F#2",
              "pitch": 54,
              "beat": 2.25,
              "dur": 0.584,
              "vel": 127
            },
            {
              "note": "F#2",
              "pitch": 54,
              "beat": 3.0,
              "dur": 0.5,
              "vel": 127
            },
            {
              "note": "F#2",
              "pitch": 54,
              "beat": 3.5,
              "dur": 0.5,
              "vel": 127
            },
            {
              "note": "C#2",
              "pitch": 49,
              "beat": 4.0,
              "dur": 0.25,
              "vel": 127
            },
            {
              "note": "C#2",
              "pitch": 49,
              "beat": 4.25,
              "dur": 0.5,
              "vel": 127
            },
            {
              "note": "C#2",
              "pitch": 49,
              "beat": 4.75,
              "dur": 0.5,
              "vel": 127
            },
            {
              "note": "C#2",
              "pitch": 49,
              "beat": 5.5,
              "dur": 0.556,
              "vel": 127
            },
            {
              "note": "C#2",
              "pitch": 49,
              "beat": 6.25,
              "dur": 0.584,
              "vel": 127
            },
            {
              "note": "C#2",
              "pitch": 49,
              "beat": 7.0,
              "dur": 0.5,
              "vel": 127
            },
            {
              "note": "C#2",
              "pitch": 49,
              "beat": 7.5,
              "dur": 0.5,
              "vel": 127
            },
            {
              "note": "D#2",
              "pitch": 51,
              "beat": 8.0,
              "dur": 0.25,
              "vel": 127
            },
            {
              "note": "D#2",
              "pitch": 51,
              "beat": 8.25,
              "dur": 0.5,
              "vel": 127
            },
            {
              "note": "D#2",
              "pitch": 51,
              "beat": 8.75,
              "dur": 0.5,
              "vel": 127
            },
            {
              "note": "D#2",
              "pitch": 51,
              "beat": 9.5,
              "dur": 0.556,
              "vel": 127
            },
            {
              "note": "D#2",
              "pitch": 51,
              "beat": 10.25,
              "dur": 0.584,
              "vel": 127
            },
            {
              "note": "D#2",
              "pitch": 51,
              "beat": 11.0,
              "dur": 0.5,
              "vel": 127
            },
            {
              "note": "D#2",
              "pitch": 51,
              "beat": 11.5,
              "dur": 0.5,
              "vel": 127
            },
            {
              "note": "A#1",
              "pitch": 46,
              "beat": 12.0,
              "dur": 0.25,
              "vel": 127
            },
            {
              "note": "A#1",
              "pitch": 46,
              "beat": 12.25,
              "dur": 0.5,
              "vel": 127
            },
            {
              "note": "A#1",
              "pitch": 46,
              "beat": 12.75,
              "dur": 0.614,
              "vel": 127
            },
            {
              "note": "A#1",
              "pitch": 46,
              "beat": 13.5,
              "dur": 0.556,
              "vel": 127
            },
            {
              "note": "A#1",
              "pitch": 46,
              "beat": 14.25,
              "dur": 0.584,
              "vel": 127
            },
            {
              "note": "F2",
              "pitch": 53,
              "beat": 15.0,
              "dur": 0.5,
              "vel": 127
            },
            {
              "note": "F2",
              "pitch": 53,
              "beat": 15.5,
              "dur": 0.5,
              "vel": 127
            },
            {
              "note": "F#2",
              "pitch": 54,
              "beat": 16.0,
              "dur": 0.25,
              "vel": 127
            },
            {
              "note": "F#2",
              "pitch": 54,
              "beat": 16.25,
              "dur": 0.5,
              "vel": 127
            },
            {
              "note": "F#2",
              "pitch": 54,
              "beat": 16.75,
              "dur": 0.5,
              "vel": 127
            },
            {
              "note": "F#2",
              "pitch": 54,
              "beat": 17.5,
              "dur": 0.556,
              "vel": 127
            },
            {
              "note": "F#2",
              "pitch": 54,
              "beat": 18.25,
              "dur": 0.584,
              "vel": 127
            },
            {
              "note": "F#2",
              "pitch": 54,
              "beat": 19.0,
              "dur": 0.5,
              "vel": 127
            },
            {
              "note": "F#2",
              "pitch": 54,
              "beat": 19.5,
              "dur": 0.5,
              "vel": 127
            },
            {
              "note": "C#2",
              "pitch": 49,
              "beat": 20.0,
              "dur": 0.25,
              "vel": 127
            },
            {
              "note": "C#2",
              "pitch": 49,
              "beat": 20.25,
              "dur": 0.5,
              "vel": 127
            },
            {
              "note": "C#2",
              "pitch": 49,
              "beat": 20.75,
              "dur": 0.5,
              "vel": 127
            },
            {
              "note": "C#2",
              "pitch": 49,
              "beat": 21.5,
              "dur": 0.556,
              "vel": 127
            },
            {
              "note": "C#2",
              "pitch": 49,
              "beat": 22.25,
              "dur": 0.584,
              "vel": 127
            },
            {
              "note": "G#2",
              "pitch": 56,
              "beat": 23.0,
              "dur": 0.373,
              "vel": 127
            },
            {
              "note": "G#2",
              "pitch": 56,
              "beat": 23.5,
              "dur": 0.373,
              "vel": 127
            },
            {
              "note": "D#2",
              "pitch": 51,
              "beat": 24.0,
              "dur": 0.25,
              "vel": 127
            },
            {
              "note": "D#2",
              "pitch": 51,
              "beat": 24.25,
              "dur": 0.5,
              "vel": 127
            },
            {
              "note": "D#2",
              "pitch": 51,
              "beat": 24.75,
              "dur": 0.5,
              "vel": 127
            },
            {
              "note": "D#2",
              "pitch": 51,
              "beat": 25.5,
              "dur": 0.556,
              "vel": 127
            },
            {
              "note": "D#2",
              "pitch": 51,
              "beat": 26.25,
              "dur": 0.584,
              "vel": 127
            },
            {
              "note": "D#2",
              "pitch": 51,
              "beat": 27.0,
              "dur": 0.5,
              "vel": 127
            },
            {
              "note": "G#2",
              "pitch": 56,
              "beat": 27.5,
              "dur": 0.5,
              "vel": 127
            },
            {
              "note": "A#2",
              "pitch": 58,
              "beat": 28.0,
              "dur": 0.25,
              "vel": 127
            },
            {
              "note": "A#2",
              "pitch": 58,
              "beat": 28.25,
              "dur": 0.5,
              "vel": 127
            },
            {
              "note": "A#2",
              "pitch": 58,
              "beat": 28.75,
              "dur": 0.614,
              "vel": 127
            },
            {
              "note": "A#2",
              "pitch": 58,
              "beat": 29.5,
              "dur": 0.556,
              "vel": 127
            },
            {
              "note": "A#2",
              "pitch": 58,
              "beat": 30.25,
              "dur": 0.584,
              "vel": 127
            },
            {
              "note": "F2",
              "pitch": 53,
              "beat": 31.0,
              "dur": 0.5,
              "vel": 127
            },
            {
              "note": "F2",
              "pitch": 53,
              "beat": 31.5,
              "dur": 0.5,
              "vel": 127
            }
          ]
        },
        {
          "bar_start": 132.0,
          "bar_end": 132.25,
          "name": "",
          "notes": [
            {
              "note": "F#2",
              "pitch": 54,
              "beat": 0.0,
              "dur": 0.25,
              "vel": 127
            },
            {
              "note": "F#2",
              "pitch": 54,
              "beat": 0.25,
              "dur": 0.5,
              "vel": 127
            },
            {
              "note": "F#2",
              "pitch": 54,
              "beat": 0.75,
              "dur": 0.5,
              "vel": 127
            },
            {
              "note": "F#2",
              "pitch": 54,
              "beat": 1.5,
              "dur": 0.556,
              "vel": 127
            },
            {
              "note": "F#2",
              "pitch": 54,
              "beat": 2.25,
              "dur": 0.584,
              "vel": 127
            },
            {
              "note": "F#2",
              "pitch": 54,
              "beat": 3.0,
              "dur": 0.5,
              "vel": 127
            },
            {
              "note": "F#2",
              "pitch": 54,
              "beat": 3.5,
              "dur": 0.5,
              "vel": 127
            },
            {
              "note": "C#2",
              "pitch": 49,
              "beat": 4.0,
              "dur": 0.25,
              "vel": 127
            },
            {
              "note": "C#2",
              "pitch": 49,
              "beat": 4.25,
              "dur": 0.5,
              "vel": 127
            },
            {
              "note": "C#2",
              "pitch": 49,
              "beat": 4.75,
              "dur": 0.5,
              "vel": 127
            },
            {
              "note": "C#2",
              "pitch": 49,
              "beat": 5.5,
              "dur": 0.556,
              "vel": 127
            },
            {
              "note": "C#2",
              "pitch": 49,
              "beat": 6.25,
              "dur": 0.584,
              "vel": 127
            },
            {
              "note": "C#2",
              "pitch": 49,
              "beat": 7.0,
              "dur": 0.5,
              "vel": 127
            },
            {
              "note": "C#2",
              "pitch": 49,
              "beat": 7.5,
              "dur": 0.5,
              "vel": 127
            },
            {
              "note": "D#2",
              "pitch": 51,
              "beat": 8.0,
              "dur": 0.25,
              "vel": 127
            },
            {
              "note": "D#2",
              "pitch": 51,
              "beat": 8.25,
              "dur": 0.5,
              "vel": 127
            },
            {
              "note": "D#2",
              "pitch": 51,
              "beat": 8.75,
              "dur": 0.5,
              "vel": 127
            },
            {
              "note": "D#2",
              "pitch": 51,
              "beat": 9.5,
              "dur": 0.556,
              "vel": 127
            },
            {
              "note": "D#2",
              "pitch": 51,
              "beat": 10.25,
              "dur": 0.584,
              "vel": 127
            },
            {
              "note": "D#2",
              "pitch": 51,
              "beat": 11.0,
              "dur": 0.5,
              "vel": 127
            },
            {
              "note": "D#2",
              "pitch": 51,
              "beat": 11.5,
              "dur": 0.5,
              "vel": 127
            },
            {
              "note": "A#1",
              "pitch": 46,
              "beat": 12.0,
              "dur": 0.25,
              "vel": 127
            },
            {
              "note": "A#1",
              "pitch": 46,
              "beat": 12.25,
              "dur": 0.5,
              "vel": 127
            },
            {
              "note": "A#1",
              "pitch": 46,
              "beat": 12.75,
              "dur": 0.614,
              "vel": 127
            },
            {
              "note": "A#1",
              "pitch": 46,
              "beat": 13.5,
              "dur": 0.556,
              "vel": 127
            },
            {
              "note": "A#1",
              "pitch": 46,
              "beat": 14.25,
              "dur": 0.584,
              "vel": 127
            },
            {
              "note": "F2",
              "pitch": 53,
              "beat": 15.0,
              "dur": 0.5,
              "vel": 127
            },
            {
              "note": "F2",
              "pitch": 53,
              "beat": 15.5,
              "dur": 0.5,
              "vel": 127
            },
            {
              "note": "F#2",
              "pitch": 54,
              "beat": 16.0,
              "dur": 0.25,
              "vel": 127
            },
            {
              "note": "F#2",
              "pitch": 54,
              "beat": 16.25,
              "dur": 0.5,
              "vel": 127
            },
            {
              "note": "F#2",
              "pitch": 54,
              "beat": 16.75,
              "dur": 0.5,
              "vel": 127
            },
            {
              "note": "F#2",
              "pitch": 54,
              "beat": 17.5,
              "dur": 0.556,
              "vel": 127
            },
            {
              "note": "F#2",
              "pitch": 54,
              "beat": 18.25,
              "dur": 0.584,
              "vel": 127
            },
            {
              "note": "F#2",
              "pitch": 54,
              "beat": 19.0,
              "dur": 0.5,
              "vel": 127
            },
            {
              "note": "F#2",
              "pitch": 54,
              "beat": 19.5,
              "dur": 0.5,
              "vel": 127
            },
            {
              "note": "C#2",
              "pitch": 49,
              "beat": 20.0,
              "dur": 0.25,
              "vel": 127
            },
            {
              "note": "C#2",
              "pitch": 49,
              "beat": 20.25,
              "dur": 0.5,
              "vel": 127
            },
            {
              "note": "C#2",
              "pitch": 49,
              "beat": 20.75,
              "dur": 0.5,
              "vel": 127
            },
            {
              "note": "C#2",
              "pitch": 49,
              "beat": 21.5,
              "dur": 0.556,
              "vel": 127
            },
            {
              "note": "C#2",
              "pitch": 49,
              "beat": 22.25,
              "dur": 0.584,
              "vel": 127
            },
            {
              "note": "G#2",
              "pitch": 56,
              "beat": 23.0,
              "dur": 0.373,
              "vel": 127
            },
            {
              "note": "G#2",
              "pitch": 56,
              "beat": 23.5,
              "dur": 0.373,
              "vel": 127
            },
            {
              "note": "D#2",
              "pitch": 51,
              "beat": 24.0,
              "dur": 0.25,
              "vel": 127
            },
            {
              "note": "D#2",
              "pitch": 51,
              "beat": 24.25,
              "dur": 0.5,
              "vel": 127
            },
            {
              "note": "D#2",
              "pitch": 51,
              "beat": 24.75,
              "dur": 0.5,
              "vel": 127
            },
            {
              "note": "D#2",
              "pitch": 51,
              "beat": 25.5,
              "dur": 0.556,
              "vel": 127
            },
            {
              "note": "D#2",
              "pitch": 51,
              "beat": 26.25,
              "dur": 0.584,
              "vel": 127
            },
            {
              "note": "D#2",
              "pitch": 51,
              "beat": 27.0,
              "dur": 0.5,
              "vel": 127
            },
            {
              "note": "G#2",
              "pitch": 56,
              "beat": 27.5,
              "dur": 0.5,
              "vel": 127
            },
            {
              "note": "A#2",
              "pitch": 58,
              "beat": 28.0,
              "dur": 0.25,
              "vel": 127
            },
            {
              "note": "A#2",
              "pitch": 58,
              "beat": 28.25,
              "dur": 0.5,
              "vel": 127
            },
            {
              "note": "A#2",
              "pitch": 58,
              "beat": 28.75,
              "dur": 0.614,
              "vel": 127
            },
            {
              "note": "A#2",
              "pitch": 58,
              "beat": 29.5,
              "dur": 0.556,
              "vel": 127
            },
            {
              "note": "A#2",
              "pitch": 58,
              "beat": 30.25,
              "dur": 0.584,
              "vel": 127
            },
            {
              "note": "F2",
              "pitch": 53,
              "beat": 31.0,
              "dur": 0.5,
              "vel": 127
            },
            {
              "note": "F2",
              "pitch": 53,
              "beat": 31.5,
              "dur": 0.5,
              "vel": 127
            }
          ]
        },
        {
          "bar_start": 133.0,
          "bar_end": 133.25,
          "name": "",
          "notes": [
            {
              "note": "F#2",
              "pitch": 54,
              "beat": 0.0,
              "dur": 0.25,
              "vel": 127
            },
            {
              "note": "F#2",
              "pitch": 54,
              "beat": 0.25,
              "dur": 0.5,
              "vel": 127
            },
            {
              "note": "F#2",
              "pitch": 54,
              "beat": 0.75,
              "dur": 0.5,
              "vel": 127
            },
            {
              "note": "F#2",
              "pitch": 54,
              "beat": 1.5,
              "dur": 0.556,
              "vel": 127
            },
            {
              "note": "F#2",
              "pitch": 54,
              "beat": 2.25,
              "dur": 0.584,
              "vel": 127
            },
            {
              "note": "F#2",
              "pitch": 54,
              "beat": 3.0,
              "dur": 0.5,
              "vel": 127
            },
            {
              "note": "F#2",
              "pitch": 54,
              "beat": 3.5,
              "dur": 0.5,
              "vel": 127
            },
            {
              "note": "C#2",
              "pitch": 49,
              "beat": 4.0,
              "dur": 0.25,
              "vel": 127
            },
            {
              "note": "C#2",
              "pitch": 49,
              "beat": 4.25,
              "dur": 0.5,
              "vel": 127
            },
            {
              "note": "C#2",
              "pitch": 49,
              "beat": 4.75,
              "dur": 0.5,
              "vel": 127
            },
            {
              "note": "C#2",
              "pitch": 49,
              "beat": 5.5,
              "dur": 0.556,
              "vel": 127
            },
            {
              "note": "C#2",
              "pitch": 49,
              "beat": 6.25,
              "dur": 0.584,
              "vel": 127
            },
            {
              "note": "C#2",
              "pitch": 49,
              "beat": 7.0,
              "dur": 0.5,
              "vel": 127
            },
            {
              "note": "C#2",
              "pitch": 49,
              "beat": 7.5,
              "dur": 0.5,
              "vel": 127
            },
            {
              "note": "D#2",
              "pitch": 51,
              "beat": 8.0,
              "dur": 0.25,
              "vel": 127
            },
            {
              "note": "D#2",
              "pitch": 51,
              "beat": 8.25,
              "dur": 0.5,
              "vel": 127
            },
            {
              "note": "D#2",
              "pitch": 51,
              "beat": 8.75,
              "dur": 0.5,
              "vel": 127
            },
            {
              "note": "D#2",
              "pitch": 51,
              "beat": 9.5,
              "dur": 0.556,
              "vel": 127
            },
            {
              "note": "D#2",
              "pitch": 51,
              "beat": 10.25,
              "dur": 0.584,
              "vel": 127
            },
            {
              "note": "D#2",
              "pitch": 51,
              "beat": 11.0,
              "dur": 0.5,
              "vel": 127
            },
            {
              "note": "D#2",
              "pitch": 51,
              "beat": 11.5,
              "dur": 0.5,
              "vel": 127
            },
            {
              "note": "A#1",
              "pitch": 46,
              "beat": 12.0,
              "dur": 0.25,
              "vel": 127
            },
            {
              "note": "A#1",
              "pitch": 46,
              "beat": 12.25,
              "dur": 0.5,
              "vel": 127
            },
            {
              "note": "A#1",
              "pitch": 46,
              "beat": 12.75,
              "dur": 0.614,
              "vel": 127
            },
            {
              "note": "A#1",
              "pitch": 46,
              "beat": 13.5,
              "dur": 0.556,
              "vel": 127
            },
            {
              "note": "A#1",
              "pitch": 46,
              "beat": 14.25,
              "dur": 0.584,
              "vel": 127
            },
            {
              "note": "F2",
              "pitch": 53,
              "beat": 15.0,
              "dur": 0.5,
              "vel": 127
            },
            {
              "note": "F2",
              "pitch": 53,
              "beat": 15.5,
              "dur": 0.5,
              "vel": 127
            },
            {
              "note": "F#2",
              "pitch": 54,
              "beat": 16.0,
              "dur": 0.25,
              "vel": 127
            },
            {
              "note": "F#2",
              "pitch": 54,
              "beat": 16.25,
              "dur": 0.5,
              "vel": 127
            },
            {
              "note": "F#2",
              "pitch": 54,
              "beat": 16.75,
              "dur": 0.5,
              "vel": 127
            },
            {
              "note": "F#2",
              "pitch": 54,
              "beat": 17.5,
              "dur": 0.556,
              "vel": 127
            },
            {
              "note": "F#2",
              "pitch": 54,
              "beat": 18.25,
              "dur": 0.584,
              "vel": 127
            },
            {
              "note": "F#2",
              "pitch": 54,
              "beat": 19.0,
              "dur": 0.5,
              "vel": 127
            },
            {
              "note": "F#2",
              "pitch": 54,
              "beat": 19.5,
              "dur": 0.5,
              "vel": 127
            },
            {
              "note": "C#2",
              "pitch": 49,
              "beat": 20.0,
              "dur": 0.25,
              "vel": 127
            },
            {
              "note": "C#2",
              "pitch": 49,
              "beat": 20.25,
              "dur": 0.5,
              "vel": 127
            },
            {
              "note": "C#2",
              "pitch": 49,
              "beat": 20.75,
              "dur": 0.5,
              "vel": 127
            },
            {
              "note": "C#2",
              "pitch": 49,
              "beat": 21.5,
              "dur": 0.556,
              "vel": 127
            },
            {
              "note": "C#2",
              "pitch": 49,
              "beat": 22.25,
              "dur": 0.584,
              "vel": 127
            },
            {
              "note": "G#2",
              "pitch": 56,
              "beat": 23.0,
              "dur": 0.373,
              "vel": 127
            },
            {
              "note": "G#2",
              "pitch": 56,
              "beat": 23.5,
              "dur": 0.373,
              "vel": 127
            },
            {
              "note": "D#2",
              "pitch": 51,
              "beat": 24.0,
              "dur": 0.25,
              "vel": 127
            },
            {
              "note": "D#2",
              "pitch": 51,
              "beat": 24.25,
              "dur": 0.5,
              "vel": 127
            },
            {
              "note": "D#2",
              "pitch": 51,
              "beat": 24.75,
              "dur": 0.5,
              "vel": 127
            },
            {
              "note": "D#2",
              "pitch": 51,
              "beat": 25.5,
              "dur": 0.556,
              "vel": 127
            },
            {
              "note": "D#2",
              "pitch": 51,
              "beat": 26.25,
              "dur": 0.584,
              "vel": 127
            },
            {
              "note": "D#2",
              "pitch": 51,
              "beat": 27.0,
              "dur": 0.5,
              "vel": 127
            },
            {
              "note": "G#2",
              "pitch": 56,
              "beat": 27.5,
              "dur": 0.5,
              "vel": 127
            },
            {
              "note": "A#2",
              "pitch": 58,
              "beat": 28.0,
              "dur": 0.25,
              "vel": 127
            },
            {
              "note": "A#2",
              "pitch": 58,
              "beat": 28.25,
              "dur": 0.5,
              "vel": 127
            },
            {
              "note": "A#2",
              "pitch": 58,
              "beat": 28.75,
              "dur": 0.614,
              "vel": 127
            },
            {
              "note": "A#2",
              "pitch": 58,
              "beat": 29.5,
              "dur": 0.556,
              "vel": 127
            },
            {
              "note": "A#2",
              "pitch": 58,
              "beat": 30.25,
              "dur": 0.584,
              "vel": 127
            },
            {
              "note": "F2",
              "pitch": 53,
              "beat": 31.0,
              "dur": 0.5,
              "vel": 127
            },
            {
              "note": "F2",
              "pitch": 53,
              "beat": 31.5,
              "dur": 0.5,
              "vel": 127
            }
          ]
        },
        {
          "bar_start": 136.0,
          "bar_end": 159.0,
          "name": "",
          "notes": [
            {
              "note": "F#2",
              "pitch": 54,
              "beat": 0.0,
              "dur": 0.25,
              "vel": 127
            },
            {
              "note": "F#2",
              "pitch": 54,
              "beat": 0.25,
              "dur": 0.5,
              "vel": 127
            },
            {
              "note": "F#2",
              "pitch": 54,
              "beat": 0.75,
              "dur": 0.5,
              "vel": 127
            },
            {
              "note": "F#2",
              "pitch": 54,
              "beat": 1.5,
              "dur": 0.556,
              "vel": 127
            },
            {
              "note": "F#2",
              "pitch": 54,
              "beat": 2.25,
              "dur": 0.584,
              "vel": 127
            },
            {
              "note": "F#2",
              "pitch": 54,
              "beat": 3.0,
              "dur": 0.5,
              "vel": 127
            },
            {
              "note": "F#2",
              "pitch": 54,
              "beat": 3.5,
              "dur": 0.5,
              "vel": 127
            },
            {
              "note": "C#2",
              "pitch": 49,
              "beat": 4.0,
              "dur": 0.25,
              "vel": 127
            },
            {
              "note": "C#2",
              "pitch": 49,
              "beat": 4.25,
              "dur": 0.5,
              "vel": 127
            },
            {
              "note": "C#2",
              "pitch": 49,
              "beat": 4.75,
              "dur": 0.5,
              "vel": 127
            },
            {
              "note": "C#2",
              "pitch": 49,
              "beat": 5.5,
              "dur": 0.556,
              "vel": 127
            },
            {
              "note": "C#2",
              "pitch": 49,
              "beat": 6.25,
              "dur": 0.584,
              "vel": 127
            },
            {
              "note": "C#2",
              "pitch": 49,
              "beat": 7.0,
              "dur": 0.5,
              "vel": 127
            },
            {
              "note": "C#2",
              "pitch": 49,
              "beat": 7.5,
              "dur": 0.5,
              "vel": 127
            },
            {
              "note": "D#2",
              "pitch": 51,
              "beat": 8.0,
              "dur": 0.25,
              "vel": 127
            },
            {
              "note": "D#2",
              "pitch": 51,
              "beat": 8.25,
              "dur": 0.5,
              "vel": 127
            },
            {
              "note": "D#2",
              "pitch": 51,
              "beat": 8.75,
              "dur": 0.5,
              "vel": 127
            },
            {
              "note": "D#2",
              "pitch": 51,
              "beat": 9.5,
              "dur": 0.556,
              "vel": 127
            },
            {
              "note": "D#2",
              "pitch": 51,
              "beat": 10.25,
              "dur": 0.584,
              "vel": 127
            },
            {
              "note": "D#2",
              "pitch": 51,
              "beat": 11.0,
              "dur": 0.5,
              "vel": 127
            },
            {
              "note": "D#2",
              "pitch": 51,
              "beat": 11.5,
              "dur": 0.5,
              "vel": 127
            },
            {
              "note": "A#1",
              "pitch": 46,
              "beat": 12.0,
              "dur": 0.25,
              "vel": 127
            },
            {
              "note": "A#1",
              "pitch": 46,
              "beat": 12.25,
              "dur": 0.5,
              "vel": 127
            },
            {
              "note": "A#1",
              "pitch": 46,
              "beat": 12.75,
              "dur": 0.614,
              "vel": 127
            },
            {
              "note": "A#1",
              "pitch": 46,
              "beat": 13.5,
              "dur": 0.556,
              "vel": 127
            },
            {
              "note": "A#1",
              "pitch": 46,
              "beat": 14.25,
              "dur": 0.584,
              "vel": 127
            },
            {
              "note": "F2",
              "pitch": 53,
              "beat": 15.0,
              "dur": 0.5,
              "vel": 127
            },
            {
              "note": "F2",
              "pitch": 53,
              "beat": 15.5,
              "dur": 0.5,
              "vel": 127
            },
            {
              "note": "F#2",
              "pitch": 54,
              "beat": 16.0,
              "dur": 0.25,
              "vel": 127
            },
            {
              "note": "F#2",
              "pitch": 54,
              "beat": 16.25,
              "dur": 0.5,
              "vel": 127
            },
            {
              "note": "F#2",
              "pitch": 54,
              "beat": 16.75,
              "dur": 0.5,
              "vel": 127
            },
            {
              "note": "F#2",
              "pitch": 54,
              "beat": 17.5,
              "dur": 0.556,
              "vel": 127
            },
            {
              "note": "F#2",
              "pitch": 54,
              "beat": 18.25,
              "dur": 0.584,
              "vel": 127
            },
            {
              "note": "F#2",
              "pitch": 54,
              "beat": 19.0,
              "dur": 0.5,
              "vel": 127
            },
            {
              "note": "F#2",
              "pitch": 54,
              "beat": 19.5,
              "dur": 0.5,
              "vel": 127
            },
            {
              "note": "C#2",
              "pitch": 49,
              "beat": 20.0,
              "dur": 0.25,
              "vel": 127
            },
            {
              "note": "C#2",
              "pitch": 49,
              "beat": 20.25,
              "dur": 0.5,
              "vel": 127
            },
            {
              "note": "C#2",
              "pitch": 49,
              "beat": 20.75,
              "dur": 0.5,
              "vel": 127
            },
            {
              "note": "C#2",
              "pitch": 49,
              "beat": 21.5,
              "dur": 0.556,
              "vel": 127
            },
            {
              "note": "C#2",
              "pitch": 49,
              "beat": 22.25,
              "dur": 0.584,
              "vel": 127
            },
            {
              "note": "G#2",
              "pitch": 56,
              "beat": 23.0,
              "dur": 0.373,
              "vel": 127
            },
            {
              "note": "G#2",
              "pitch": 56,
              "beat": 23.5,
              "dur": 0.373,
              "vel": 127
            },
            {
              "note": "D#2",
              "pitch": 51,
              "beat": 24.0,
              "dur": 0.25,
              "vel": 127
            },
            {
              "note": "D#2",
              "pitch": 51,
              "beat": 24.25,
              "dur": 0.5,
              "vel": 127
            },
            {
              "note": "D#2",
              "pitch": 51,
              "beat": 24.75,
              "dur": 0.5,
              "vel": 127
            },
            {
              "note": "D#2",
              "pitch": 51,
              "beat": 25.5,
              "dur": 0.556,
              "vel": 127
            },
            {
              "note": "D#2",
              "pitch": 51,
              "beat": 26.25,
              "dur": 0.584,
              "vel": 127
            },
            {
              "note": "D#2",
              "pitch": 51,
              "beat": 27.0,
              "dur": 0.5,
              "vel": 127
            },
            {
              "note": "G#2",
              "pitch": 56,
              "beat": 27.5,
              "dur": 0.5,
              "vel": 127
            },
            {
              "note": "A#2",
              "pitch": 58,
              "beat": 28.0,
              "dur": 0.25,
              "vel": 127
            },
            {
              "note": "A#2",
              "pitch": 58,
              "beat": 28.25,
              "dur": 0.5,
              "vel": 127
            },
            {
              "note": "A#2",
              "pitch": 58,
              "beat": 28.75,
              "dur": 0.614,
              "vel": 127
            },
            {
              "note": "A#2",
              "pitch": 58,
              "beat": 29.5,
              "dur": 0.556,
              "vel": 127
            },
            {
              "note": "A#2",
              "pitch": 58,
              "beat": 30.25,
              "dur": 0.584,
              "vel": 127
            },
            {
              "note": "F2",
              "pitch": 53,
              "beat": 31.0,
              "dur": 0.5,
              "vel": 127
            },
            {
              "note": "F2",
              "pitch": 53,
              "beat": 31.5,
              "dur": 0.5,
              "vel": 127
            }
          ]
        }
      ],
      "automations": [],
      "children": []
    },
    "94": {
      "id": "94",
      "name": "rave lead",
      "type": "MidiTrack",
      "group_id": "67",
      "devices": [
        {
          "type": "PluginDevice",
          "plugin": "Serum_x64",
          "preset": "",
          "vst_params": []
        },
        {
          "type": "StereoGain",
          "On": "true",
          "PhaseInvertL": "false",
          "PhaseInvertR": "false",
          "ChannelMode": "1",
          "StereoWidth": "0.002267573727",
          "MidSideBalance": "1",
          "Mono": "false",
          "BassMono": "false",
          "BassMonoFrequency": "120",
          "Balance": "0",
          "Gain": "1",
          "LegacyGain": "0",
          "Mute": "false",
          "DcFilter": "false"
        },
        {
          "type": "Amp",
          "On": "true",
          "AmpType": "2",
          "Bass": "3.88888884",
          "Middle": "3.88888884",
          "Treble": "6.74603176",
          "Presence": "3.01587319",
          "Gain": "5.03937006",
          "Volume": "7.53968239",
          "DualMono": "true",
          "DryWet": "0.6428571343"
        },
        {
          "type": "Eq8",
          "bands": []
        },
        {
          "type": "PluginDevice",
          "plugin": "Kickstart 2",
          "preset": "",
          "vst_params": []
        }
      ],
      "clips": [
        {
          "bar_start": 16.0,
          "bar_end": 31.0,
          "name": "",
          "notes": [
            {
              "note": "F#2",
              "pitch": 54,
              "beat": 0.0,
              "dur": 0.25,
              "vel": 127
            },
            {
              "note": "F#2",
              "pitch": 54,
              "beat": 0.25,
              "dur": 0.5,
              "vel": 127
            },
            {
              "note": "F#2",
              "pitch": 54,
              "beat": 0.75,
              "dur": 0.5,
              "vel": 127
            },
            {
              "note": "F#2",
              "pitch": 54,
              "beat": 1.5,
              "dur": 0.556,
              "vel": 127
            },
            {
              "note": "F#2",
              "pitch": 54,
              "beat": 2.25,
              "dur": 0.584,
              "vel": 127
            },
            {
              "note": "F#2",
              "pitch": 54,
              "beat": 3.0,
              "dur": 0.5,
              "vel": 127
            },
            {
              "note": "F#2",
              "pitch": 54,
              "beat": 3.5,
              "dur": 0.5,
              "vel": 127
            },
            {
              "note": "C#2",
              "pitch": 49,
              "beat": 4.0,
              "dur": 0.25,
              "vel": 127
            },
            {
              "note": "C#2",
              "pitch": 49,
              "beat": 4.25,
              "dur": 0.5,
              "vel": 127
            },
            {
              "note": "C#2",
              "pitch": 49,
              "beat": 4.75,
              "dur": 0.5,
              "vel": 127
            },
            {
              "note": "C#2",
              "pitch": 49,
              "beat": 5.5,
              "dur": 0.556,
              "vel": 127
            },
            {
              "note": "C#2",
              "pitch": 49,
              "beat": 6.25,
              "dur": 0.584,
              "vel": 127
            },
            {
              "note": "C#2",
              "pitch": 49,
              "beat": 7.0,
              "dur": 0.5,
              "vel": 127
            },
            {
              "note": "C#2",
              "pitch": 49,
              "beat": 7.5,
              "dur": 0.5,
              "vel": 127
            },
            {
              "note": "D#2",
              "pitch": 51,
              "beat": 8.0,
              "dur": 0.25,
              "vel": 127
            },
            {
              "note": "D#2",
              "pitch": 51,
              "beat": 8.25,
              "dur": 0.5,
              "vel": 127
            },
            {
              "note": "D#2",
              "pitch": 51,
              "beat": 8.75,
              "dur": 0.5,
              "vel": 127
            },
            {
              "note": "D#2",
              "pitch": 51,
              "beat": 9.5,
              "dur": 0.556,
              "vel": 127
            },
            {
              "note": "D#2",
              "pitch": 51,
              "beat": 10.25,
              "dur": 0.584,
              "vel": 127
            },
            {
              "note": "D#2",
              "pitch": 51,
              "beat": 11.0,
              "dur": 0.5,
              "vel": 127
            },
            {
              "note": "D#2",
              "pitch": 51,
              "beat": 11.5,
              "dur": 0.5,
              "vel": 127
            },
            {
              "note": "A#1",
              "pitch": 46,
              "beat": 12.0,
              "dur": 0.25,
              "vel": 127
            },
            {
              "note": "A#1",
              "pitch": 46,
              "beat": 12.25,
              "dur": 0.5,
              "vel": 127
            },
            {
              "note": "A#1",
              "pitch": 46,
              "beat": 12.75,
              "dur": 0.614,
              "vel": 127
            },
            {
              "note": "A#1",
              "pitch": 46,
              "beat": 13.5,
              "dur": 0.556,
              "vel": 127
            },
            {
              "note": "A#1",
              "pitch": 46,
              "beat": 14.25,
              "dur": 0.584,
              "vel": 127
            },
            {
              "note": "F2",
              "pitch": 53,
              "beat": 15.0,
              "dur": 0.5,
              "vel": 127
            },
            {
              "note": "F2",
              "pitch": 53,
              "beat": 15.5,
              "dur": 0.5,
              "vel": 127
            },
            {
              "note": "F#2",
              "pitch": 54,
              "beat": 16.0,
              "dur": 0.25,
              "vel": 127
            },
            {
              "note": "F#2",
              "pitch": 54,
              "beat": 16.25,
              "dur": 0.5,
              "vel": 127
            },
            {
              "note": "F#2",
              "pitch": 54,
              "beat": 16.75,
              "dur": 0.5,
              "vel": 127
            },
            {
              "note": "F#2",
              "pitch": 54,
              "beat": 17.5,
              "dur": 0.556,
              "vel": 127
            },
            {
              "note": "F#2",
              "pitch": 54,
              "beat": 18.25,
              "dur": 0.584,
              "vel": 127
            },
            {
              "note": "F#2",
              "pitch": 54,
              "beat": 19.0,
              "dur": 0.5,
              "vel": 127
            },
            {
              "note": "F#2",
              "pitch": 54,
              "beat": 19.5,
              "dur": 0.5,
              "vel": 127
            },
            {
              "note": "C#2",
              "pitch": 49,
              "beat": 20.0,
              "dur": 0.25,
              "vel": 127
            },
            {
              "note": "C#2",
              "pitch": 49,
              "beat": 20.25,
              "dur": 0.5,
              "vel": 127
            },
            {
              "note": "C#2",
              "pitch": 49,
              "beat": 20.75,
              "dur": 0.5,
              "vel": 127
            },
            {
              "note": "C#2",
              "pitch": 49,
              "beat": 21.5,
              "dur": 0.556,
              "vel": 127
            },
            {
              "note": "C#2",
              "pitch": 49,
              "beat": 22.25,
              "dur": 0.584,
              "vel": 127
            },
            {
              "note": "G#2",
              "pitch": 56,
              "beat": 23.0,
              "dur": 0.373,
              "vel": 127
            },
            {
              "note": "G#2",
              "pitch": 56,
              "beat": 23.5,
              "dur": 0.373,
              "vel": 127
            },
            {
              "note": "D#2",
              "pitch": 51,
              "beat": 24.0,
              "dur": 0.25,
              "vel": 127
            },
            {
              "note": "D#2",
              "pitch": 51,
              "beat": 24.25,
              "dur": 0.5,
              "vel": 127
            },
            {
              "note": "D#2",
              "pitch": 51,
              "beat": 24.75,
              "dur": 0.5,
              "vel": 127
            },
            {
              "note": "D#2",
              "pitch": 51,
              "beat": 25.5,
              "dur": 0.556,
              "vel": 127
            },
            {
              "note": "D#2",
              "pitch": 51,
              "beat": 26.25,
              "dur": 0.584,
              "vel": 127
            },
            {
              "note": "D#2",
              "pitch": 51,
              "beat": 27.0,
              "dur": 0.5,
              "vel": 127
            },
            {
              "note": "G#2",
              "pitch": 56,
              "beat": 27.5,
              "dur": 0.5,
              "vel": 127
            },
            {
              "note": "A#2",
              "pitch": 58,
              "beat": 28.0,
              "dur": 0.25,
              "vel": 127
            },
            {
              "note": "A#2",
              "pitch": 58,
              "beat": 28.25,
              "dur": 0.5,
              "vel": 127
            },
            {
              "note": "A#2",
              "pitch": 58,
              "beat": 28.75,
              "dur": 0.614,
              "vel": 127
            },
            {
              "note": "A#2",
              "pitch": 58,
              "beat": 29.5,
              "dur": 0.556,
              "vel": 127
            },
            {
              "note": "A#2",
              "pitch": 58,
              "beat": 30.25,
              "dur": 0.584,
              "vel": 127
            },
            {
              "note": "F2",
              "pitch": 53,
              "beat": 31.0,
              "dur": 0.5,
              "vel": 127
            },
            {
              "note": "F2",
              "pitch": 53,
              "beat": 31.5,
              "dur": 0.5,
              "vel": 127
            }
          ]
        },
        {
          "bar_start": 32.0,
          "bar_end": 48.0,
          "name": "",
          "notes": [
            {
              "note": "F#2",
              "pitch": 54,
              "beat": 0.0,
              "dur": 0.25,
              "vel": 127
            },
            {
              "note": "F#2",
              "pitch": 54,
              "beat": 0.25,
              "dur": 0.5,
              "vel": 127
            },
            {
              "note": "F#2",
              "pitch": 54,
              "beat": 0.75,
              "dur": 0.5,
              "vel": 127
            },
            {
              "note": "F#2",
              "pitch": 54,
              "beat": 1.5,
              "dur": 0.556,
              "vel": 127
            },
            {
              "note": "F#2",
              "pitch": 54,
              "beat": 2.25,
              "dur": 0.584,
              "vel": 127
            },
            {
              "note": "F#2",
              "pitch": 54,
              "beat": 3.0,
              "dur": 0.5,
              "vel": 127
            },
            {
              "note": "F#2",
              "pitch": 54,
              "beat": 3.5,
              "dur": 0.5,
              "vel": 127
            },
            {
              "note": "C#2",
              "pitch": 49,
              "beat": 4.0,
              "dur": 0.25,
              "vel": 127
            },
            {
              "note": "C#2",
              "pitch": 49,
              "beat": 4.25,
              "dur": 0.5,
              "vel": 127
            },
            {
              "note": "C#2",
              "pitch": 49,
              "beat": 4.75,
              "dur": 0.5,
              "vel": 127
            },
            {
              "note": "C#2",
              "pitch": 49,
              "beat": 5.5,
              "dur": 0.556,
              "vel": 127
            },
            {
              "note": "C#2",
              "pitch": 49,
              "beat": 6.25,
              "dur": 0.584,
              "vel": 127
            },
            {
              "note": "C#2",
              "pitch": 49,
              "beat": 7.0,
              "dur": 0.5,
              "vel": 127
            },
            {
              "note": "C#2",
              "pitch": 49,
              "beat": 7.5,
              "dur": 0.5,
              "vel": 127
            },
            {
              "note": "D#2",
              "pitch": 51,
              "beat": 8.0,
              "dur": 0.25,
              "vel": 127
            },
            {
              "note": "D#2",
              "pitch": 51,
              "beat": 8.25,
              "dur": 0.5,
              "vel": 127
            },
            {
              "note": "D#2",
              "pitch": 51,
              "beat": 8.75,
              "dur": 0.5,
              "vel": 127
            },
            {
              "note": "D#2",
              "pitch": 51,
              "beat": 9.5,
              "dur": 0.556,
              "vel": 127
            },
            {
              "note": "D#2",
              "pitch": 51,
              "beat": 10.25,
              "dur": 0.584,
              "vel": 127
            },
            {
              "note": "D#2",
              "pitch": 51,
              "beat": 11.0,
              "dur": 0.5,
              "vel": 127
            },
            {
              "note": "D#2",
              "pitch": 51,
              "beat": 11.5,
              "dur": 0.5,
              "vel": 127
            },
            {
              "note": "A#1",
              "pitch": 46,
              "beat": 12.0,
              "dur": 0.25,
              "vel": 127
            },
            {
              "note": "A#1",
              "pitch": 46,
              "beat": 12.25,
              "dur": 0.5,
              "vel": 127
            },
            {
              "note": "A#1",
              "pitch": 46,
              "beat": 12.75,
              "dur": 0.614,
              "vel": 127
            },
            {
              "note": "A#1",
              "pitch": 46,
              "beat": 13.5,
              "dur": 0.556,
              "vel": 127
            },
            {
              "note": "A#1",
              "pitch": 46,
              "beat": 14.25,
              "dur": 0.584,
              "vel": 127
            },
            {
              "note": "F2",
              "pitch": 53,
              "beat": 15.0,
              "dur": 0.5,
              "vel": 127
            },
            {
              "note": "F2",
              "pitch": 53,
              "beat": 15.5,
              "dur": 0.5,
              "vel": 127
            },
            {
              "note": "F#2",
              "pitch": 54,
              "beat": 16.0,
              "dur": 0.25,
              "vel": 127
            },
            {
              "note": "F#2",
              "pitch": 54,
              "beat": 16.25,
              "dur": 0.5,
              "vel": 127
            },
            {
              "note": "F#2",
              "pitch": 54,
              "beat": 16.75,
              "dur": 0.5,
              "vel": 127
            },
            {
              "note": "F#2",
              "pitch": 54,
              "beat": 17.5,
              "dur": 0.556,
              "vel": 127
            },
            {
              "note": "F#2",
              "pitch": 54,
              "beat": 18.25,
              "dur": 0.584,
              "vel": 127
            },
            {
              "note": "F#2",
              "pitch": 54,
              "beat": 19.0,
              "dur": 0.5,
              "vel": 127
            },
            {
              "note": "F#2",
              "pitch": 54,
              "beat": 19.5,
              "dur": 0.5,
              "vel": 127
            },
            {
              "note": "C#2",
              "pitch": 49,
              "beat": 20.0,
              "dur": 0.25,
              "vel": 127
            },
            {
              "note": "C#2",
              "pitch": 49,
              "beat": 20.25,
              "dur": 0.5,
              "vel": 127
            },
            {
              "note": "C#2",
              "pitch": 49,
              "beat": 20.75,
              "dur": 0.5,
              "vel": 127
            },
            {
              "note": "C#2",
              "pitch": 49,
              "beat": 21.5,
              "dur": 0.556,
              "vel": 127
            },
            {
              "note": "C#2",
              "pitch": 49,
              "beat": 22.25,
              "dur": 0.584,
              "vel": 127
            },
            {
              "note": "G#2",
              "pitch": 56,
              "beat": 23.0,
              "dur": 0.373,
              "vel": 127
            },
            {
              "note": "G#2",
              "pitch": 56,
              "beat": 23.5,
              "dur": 0.373,
              "vel": 127
            },
            {
              "note": "D#2",
              "pitch": 51,
              "beat": 24.0,
              "dur": 0.25,
              "vel": 127
            },
            {
              "note": "D#2",
              "pitch": 51,
              "beat": 24.25,
              "dur": 0.5,
              "vel": 127
            },
            {
              "note": "D#2",
              "pitch": 51,
              "beat": 24.75,
              "dur": 0.5,
              "vel": 127
            },
            {
              "note": "D#2",
              "pitch": 51,
              "beat": 25.5,
              "dur": 0.556,
              "vel": 127
            },
            {
              "note": "D#2",
              "pitch": 51,
              "beat": 26.25,
              "dur": 0.584,
              "vel": 127
            },
            {
              "note": "D#2",
              "pitch": 51,
              "beat": 27.0,
              "dur": 0.5,
              "vel": 127
            },
            {
              "note": "G#2",
              "pitch": 56,
              "beat": 27.5,
              "dur": 0.5,
              "vel": 127
            },
            {
              "note": "A#2",
              "pitch": 58,
              "beat": 28.0,
              "dur": 0.25,
              "vel": 127
            },
            {
              "note": "A#2",
              "pitch": 58,
              "beat": 28.25,
              "dur": 0.5,
              "vel": 127
            },
            {
              "note": "A#2",
              "pitch": 58,
              "beat": 28.75,
              "dur": 0.614,
              "vel": 127
            },
            {
              "note": "A#2",
              "pitch": 58,
              "beat": 29.5,
              "dur": 0.556,
              "vel": 127
            },
            {
              "note": "A#2",
              "pitch": 58,
              "beat": 30.25,
              "dur": 0.584,
              "vel": 127
            },
            {
              "note": "F2",
              "pitch": 53,
              "beat": 31.0,
              "dur": 0.5,
              "vel": 127
            },
            {
              "note": "F2",
              "pitch": 53,
              "beat": 31.5,
              "dur": 0.5,
              "vel": 127
            }
          ]
        }
      ],
      "automations": [],
      "children": []
    },
    "110": {
      "id": "110",
      "name": "rave lead 2",
      "type": "MidiTrack",
      "group_id": "67",
      "devices": [
        {
          "type": "PluginDevice",
          "plugin": "Serum_x64",
          "preset": "",
          "vst_params": []
        },
        {
          "type": "PluginDevice",
          "plugin": "Kickstart 2",
          "preset": "",
          "vst_params": []
        },
        {
          "type": "StereoGain",
          "On": "true",
          "PhaseInvertL": "false",
          "PhaseInvertR": "false",
          "ChannelMode": "1",
          "StereoWidth": "0.3832199872",
          "MidSideBalance": "1",
          "Mono": "false",
          "BassMono": "false",
          "BassMonoFrequency": "120",
          "Balance": "0",
          "Gain": "1",
          "LegacyGain": "0",
          "Mute": "false",
          "DcFilter": "false"
        }
      ],
      "clips": [
        {
          "bar_start": 24.0,
          "bar_end": 31.0,
          "name": "",
          "notes": [
            {
              "note": "F#2",
              "pitch": 54,
              "beat": 0.0,
              "dur": 0.25,
              "vel": 127
            },
            {
              "note": "F#2",
              "pitch": 54,
              "beat": 0.25,
              "dur": 0.5,
              "vel": 127
            },
            {
              "note": "F#2",
              "pitch": 54,
              "beat": 0.75,
              "dur": 0.5,
              "vel": 127
            },
            {
              "note": "F#2",
              "pitch": 54,
              "beat": 1.5,
              "dur": 0.556,
              "vel": 127
            },
            {
              "note": "F#2",
              "pitch": 54,
              "beat": 2.25,
              "dur": 0.584,
              "vel": 127
            },
            {
              "note": "F#2",
              "pitch": 54,
              "beat": 3.0,
              "dur": 0.5,
              "vel": 127
            },
            {
              "note": "F#2",
              "pitch": 54,
              "beat": 3.5,
              "dur": 0.5,
              "vel": 127
            },
            {
              "note": "C#2",
              "pitch": 49,
              "beat": 4.0,
              "dur": 0.25,
              "vel": 127
            },
            {
              "note": "C#2",
              "pitch": 49,
              "beat": 4.25,
              "dur": 0.5,
              "vel": 127
            },
            {
              "note": "C#2",
              "pitch": 49,
              "beat": 4.75,
              "dur": 0.5,
              "vel": 127
            },
            {
              "note": "C#2",
              "pitch": 49,
              "beat": 5.5,
              "dur": 0.556,
              "vel": 127
            },
            {
              "note": "C#2",
              "pitch": 49,
              "beat": 6.25,
              "dur": 0.584,
              "vel": 127
            },
            {
              "note": "C#2",
              "pitch": 49,
              "beat": 7.0,
              "dur": 0.5,
              "vel": 127
            },
            {
              "note": "C#2",
              "pitch": 49,
              "beat": 7.5,
              "dur": 0.5,
              "vel": 127
            },
            {
              "note": "D#2",
              "pitch": 51,
              "beat": 8.0,
              "dur": 0.25,
              "vel": 127
            },
            {
              "note": "D#2",
              "pitch": 51,
              "beat": 8.25,
              "dur": 0.5,
              "vel": 127
            },
            {
              "note": "D#2",
              "pitch": 51,
              "beat": 8.75,
              "dur": 0.5,
              "vel": 127
            },
            {
              "note": "D#2",
              "pitch": 51,
              "beat": 9.5,
              "dur": 0.556,
              "vel": 127
            },
            {
              "note": "D#2",
              "pitch": 51,
              "beat": 10.25,
              "dur": 0.584,
              "vel": 127
            },
            {
              "note": "D#2",
              "pitch": 51,
              "beat": 11.0,
              "dur": 0.5,
              "vel": 127
            },
            {
              "note": "D#2",
              "pitch": 51,
              "beat": 11.5,
              "dur": 0.5,
              "vel": 127
            },
            {
              "note": "A#1",
              "pitch": 46,
              "beat": 12.0,
              "dur": 0.25,
              "vel": 127
            },
            {
              "note": "A#1",
              "pitch": 46,
              "beat": 12.25,
              "dur": 0.5,
              "vel": 127
            },
            {
              "note": "A#1",
              "pitch": 46,
              "beat": 12.75,
              "dur": 0.614,
              "vel": 127
            },
            {
              "note": "A#1",
              "pitch": 46,
              "beat": 13.5,
              "dur": 0.556,
              "vel": 127
            },
            {
              "note": "A#1",
              "pitch": 46,
              "beat": 14.25,
              "dur": 0.584,
              "vel": 127
            },
            {
              "note": "F2",
              "pitch": 53,
              "beat": 15.0,
              "dur": 0.5,
              "vel": 127
            },
            {
              "note": "F2",
              "pitch": 53,
              "beat": 15.5,
              "dur": 0.5,
              "vel": 127
            },
            {
              "note": "F#2",
              "pitch": 54,
              "beat": 16.0,
              "dur": 0.25,
              "vel": 127
            },
            {
              "note": "F#2",
              "pitch": 54,
              "beat": 16.25,
              "dur": 0.5,
              "vel": 127
            },
            {
              "note": "F#2",
              "pitch": 54,
              "beat": 16.75,
              "dur": 0.5,
              "vel": 127
            },
            {
              "note": "F#2",
              "pitch": 54,
              "beat": 17.5,
              "dur": 0.556,
              "vel": 127
            },
            {
              "note": "F#2",
              "pitch": 54,
              "beat": 18.25,
              "dur": 0.584,
              "vel": 127
            },
            {
              "note": "F#2",
              "pitch": 54,
              "beat": 19.0,
              "dur": 0.5,
              "vel": 127
            },
            {
              "note": "F#2",
              "pitch": 54,
              "beat": 19.5,
              "dur": 0.5,
              "vel": 127
            },
            {
              "note": "C#2",
              "pitch": 49,
              "beat": 20.0,
              "dur": 0.25,
              "vel": 127
            },
            {
              "note": "C#2",
              "pitch": 49,
              "beat": 20.25,
              "dur": 0.5,
              "vel": 127
            },
            {
              "note": "C#2",
              "pitch": 49,
              "beat": 20.75,
              "dur": 0.5,
              "vel": 127
            },
            {
              "note": "C#2",
              "pitch": 49,
              "beat": 21.5,
              "dur": 0.556,
              "vel": 127
            },
            {
              "note": "C#2",
              "pitch": 49,
              "beat": 22.25,
              "dur": 0.584,
              "vel": 127
            },
            {
              "note": "G#2",
              "pitch": 56,
              "beat": 23.0,
              "dur": 0.373,
              "vel": 127
            },
            {
              "note": "G#2",
              "pitch": 56,
              "beat": 23.5,
              "dur": 0.373,
              "vel": 127
            },
            {
              "note": "D#2",
              "pitch": 51,
              "beat": 24.0,
              "dur": 0.25,
              "vel": 127
            },
            {
              "note": "D#2",
              "pitch": 51,
              "beat": 24.25,
              "dur": 0.5,
              "vel": 127
            },
            {
              "note": "D#2",
              "pitch": 51,
              "beat": 24.75,
              "dur": 0.5,
              "vel": 127
            },
            {
              "note": "D#2",
              "pitch": 51,
              "beat": 25.5,
              "dur": 0.556,
              "vel": 127
            },
            {
              "note": "D#2",
              "pitch": 51,
              "beat": 26.25,
              "dur": 0.584,
              "vel": 127
            },
            {
              "note": "D#2",
              "pitch": 51,
              "beat": 27.0,
              "dur": 0.5,
              "vel": 127
            },
            {
              "note": "G#2",
              "pitch": 56,
              "beat": 27.5,
              "dur": 0.5,
              "vel": 127
            },
            {
              "note": "A#2",
              "pitch": 58,
              "beat": 28.0,
              "dur": 0.25,
              "vel": 127
            },
            {
              "note": "A#2",
              "pitch": 58,
              "beat": 28.25,
              "dur": 0.5,
              "vel": 127
            },
            {
              "note": "A#2",
              "pitch": 58,
              "beat": 28.75,
              "dur": 0.614,
              "vel": 127
            },
            {
              "note": "A#2",
              "pitch": 58,
              "beat": 29.5,
              "dur": 0.556,
              "vel": 127
            },
            {
              "note": "A#2",
              "pitch": 58,
              "beat": 30.25,
              "dur": 0.584,
              "vel": 127
            },
            {
              "note": "F2",
              "pitch": 53,
              "beat": 31.0,
              "dur": 0.5,
              "vel": 127
            },
            {
              "note": "F2",
              "pitch": 53,
              "beat": 31.5,
              "dur": 0.5,
              "vel": 127
            }
          ]
        },
        {
          "bar_start": 32.0,
          "bar_end": 40.0,
          "name": "",
          "notes": [
            {
              "note": "F#2",
              "pitch": 54,
              "beat": 0.0,
              "dur": 0.25,
              "vel": 127
            },
            {
              "note": "F#2",
              "pitch": 54,
              "beat": 0.25,
              "dur": 0.5,
              "vel": 127
            },
            {
              "note": "F#2",
              "pitch": 54,
              "beat": 0.75,
              "dur": 0.5,
              "vel": 127
            },
            {
              "note": "F#2",
              "pitch": 54,
              "beat": 1.5,
              "dur": 0.556,
              "vel": 127
            },
            {
              "note": "F#2",
              "pitch": 54,
              "beat": 2.25,
              "dur": 0.584,
              "vel": 127
            },
            {
              "note": "F#2",
              "pitch": 54,
              "beat": 3.0,
              "dur": 0.5,
              "vel": 127
            },
            {
              "note": "F#2",
              "pitch": 54,
              "beat": 3.5,
              "dur": 0.5,
              "vel": 127
            },
            {
              "note": "C#2",
              "pitch": 49,
              "beat": 4.0,
              "dur": 0.25,
              "vel": 127
            },
            {
              "note": "C#2",
              "pitch": 49,
              "beat": 4.25,
              "dur": 0.5,
              "vel": 127
            },
            {
              "note": "C#2",
              "pitch": 49,
              "beat": 4.75,
              "dur": 0.5,
              "vel": 127
            },
            {
              "note": "C#2",
              "pitch": 49,
              "beat": 5.5,
              "dur": 0.556,
              "vel": 127
            },
            {
              "note": "C#2",
              "pitch": 49,
              "beat": 6.25,
              "dur": 0.584,
              "vel": 127
            },
            {
              "note": "C#2",
              "pitch": 49,
              "beat": 7.0,
              "dur": 0.5,
              "vel": 127
            },
            {
              "note": "C#2",
              "pitch": 49,
              "beat": 7.5,
              "dur": 0.5,
              "vel": 127
            },
            {
              "note": "D#2",
              "pitch": 51,
              "beat": 8.0,
              "dur": 0.25,
              "vel": 127
            },
            {
              "note": "D#2",
              "pitch": 51,
              "beat": 8.25,
              "dur": 0.5,
              "vel": 127
            },
            {
              "note": "D#2",
              "pitch": 51,
              "beat": 8.75,
              "dur": 0.5,
              "vel": 127
            },
            {
              "note": "D#2",
              "pitch": 51,
              "beat": 9.5,
              "dur": 0.556,
              "vel": 127
            },
            {
              "note": "D#2",
              "pitch": 51,
              "beat": 10.25,
              "dur": 0.584,
              "vel": 127
            },
            {
              "note": "D#2",
              "pitch": 51,
              "beat": 11.0,
              "dur": 0.5,
              "vel": 127
            },
            {
              "note": "D#2",
              "pitch": 51,
              "beat": 11.5,
              "dur": 0.5,
              "vel": 127
            },
            {
              "note": "A#1",
              "pitch": 46,
              "beat": 12.0,
              "dur": 0.25,
              "vel": 127
            },
            {
              "note": "A#1",
              "pitch": 46,
              "beat": 12.25,
              "dur": 0.5,
              "vel": 127
            },
            {
              "note": "A#1",
              "pitch": 46,
              "beat": 12.75,
              "dur": 0.614,
              "vel": 127
            },
            {
              "note": "A#1",
              "pitch": 46,
              "beat": 13.5,
              "dur": 0.556,
              "vel": 127
            },
            {
              "note": "A#1",
              "pitch": 46,
              "beat": 14.25,
              "dur": 0.584,
              "vel": 127
            },
            {
              "note": "F2",
              "pitch": 53,
              "beat": 15.0,
              "dur": 0.5,
              "vel": 127
            },
            {
              "note": "F2",
              "pitch": 53,
              "beat": 15.5,
              "dur": 0.5,
              "vel": 127
            },
            {
              "note": "F#2",
              "pitch": 54,
              "beat": 16.0,
              "dur": 0.25,
              "vel": 127
            },
            {
              "note": "F#2",
              "pitch": 54,
              "beat": 16.25,
              "dur": 0.5,
              "vel": 127
            },
            {
              "note": "F#2",
              "pitch": 54,
              "beat": 16.75,
              "dur": 0.5,
              "vel": 127
            },
            {
              "note": "F#2",
              "pitch": 54,
              "beat": 17.5,
              "dur": 0.556,
              "vel": 127
            },
            {
              "note": "F#2",
              "pitch": 54,
              "beat": 18.25,
              "dur": 0.584,
              "vel": 127
            },
            {
              "note": "F#2",
              "pitch": 54,
              "beat": 19.0,
              "dur": 0.5,
              "vel": 127
            },
            {
              "note": "F#2",
              "pitch": 54,
              "beat": 19.5,
              "dur": 0.5,
              "vel": 127
            },
            {
              "note": "C#2",
              "pitch": 49,
              "beat": 20.0,
              "dur": 0.25,
              "vel": 127
            },
            {
              "note": "C#2",
              "pitch": 49,
              "beat": 20.25,
              "dur": 0.5,
              "vel": 127
            },
            {
              "note": "C#2",
              "pitch": 49,
              "beat": 20.75,
              "dur": 0.5,
              "vel": 127
            },
            {
              "note": "C#2",
              "pitch": 49,
              "beat": 21.5,
              "dur": 0.556,
              "vel": 127
            },
            {
              "note": "C#2",
              "pitch": 49,
              "beat": 22.25,
              "dur": 0.584,
              "vel": 127
            },
            {
              "note": "G#2",
              "pitch": 56,
              "beat": 23.0,
              "dur": 0.373,
              "vel": 127
            },
            {
              "note": "G#2",
              "pitch": 56,
              "beat": 23.5,
              "dur": 0.373,
              "vel": 127
            },
            {
              "note": "D#2",
              "pitch": 51,
              "beat": 24.0,
              "dur": 0.25,
              "vel": 127
            },
            {
              "note": "D#2",
              "pitch": 51,
              "beat": 24.25,
              "dur": 0.5,
              "vel": 127
            },
            {
              "note": "D#2",
              "pitch": 51,
              "beat": 24.75,
              "dur": 0.5,
              "vel": 127
            },
            {
              "note": "D#2",
              "pitch": 51,
              "beat": 25.5,
              "dur": 0.556,
              "vel": 127
            },
            {
              "note": "D#2",
              "pitch": 51,
              "beat": 26.25,
              "dur": 0.584,
              "vel": 127
            },
            {
              "note": "D#2",
              "pitch": 51,
              "beat": 27.0,
              "dur": 0.5,
              "vel": 127
            },
            {
              "note": "G#2",
              "pitch": 56,
              "beat": 27.5,
              "dur": 0.5,
              "vel": 127
            },
            {
              "note": "A#2",
              "pitch": 58,
              "beat": 28.0,
              "dur": 0.25,
              "vel": 127
            },
            {
              "note": "A#2",
              "pitch": 58,
              "beat": 28.25,
              "dur": 0.5,
              "vel": 127
            },
            {
              "note": "A#2",
              "pitch": 58,
              "beat": 28.75,
              "dur": 0.614,
              "vel": 127
            },
            {
              "note": "A#2",
              "pitch": 58,
              "beat": 29.5,
              "dur": 0.556,
              "vel": 127
            },
            {
              "note": "A#2",
              "pitch": 58,
              "beat": 30.25,
              "dur": 0.584,
              "vel": 127
            },
            {
              "note": "F2",
              "pitch": 53,
              "beat": 31.0,
              "dur": 0.5,
              "vel": 127
            },
            {
              "note": "F2",
              "pitch": 53,
              "beat": 31.5,
              "dur": 0.5,
              "vel": 127
            }
          ]
        },
        {
          "bar_start": 40.0,
          "bar_end": 48.0,
          "name": "",
          "notes": [
            {
              "note": "F#2",
              "pitch": 54,
              "beat": 0.0,
              "dur": 0.25,
              "vel": 127
            },
            {
              "note": "F#2",
              "pitch": 54,
              "beat": 0.25,
              "dur": 0.5,
              "vel": 127
            },
            {
              "note": "F#2",
              "pitch": 54,
              "beat": 0.75,
              "dur": 0.5,
              "vel": 127
            },
            {
              "note": "F#2",
              "pitch": 54,
              "beat": 1.5,
              "dur": 0.556,
              "vel": 127
            },
            {
              "note": "F#2",
              "pitch": 54,
              "beat": 2.25,
              "dur": 0.584,
              "vel": 127
            },
            {
              "note": "F#2",
              "pitch": 54,
              "beat": 3.0,
              "dur": 0.5,
              "vel": 127
            },
            {
              "note": "F#2",
              "pitch": 54,
              "beat": 3.5,
              "dur": 0.5,
              "vel": 127
            },
            {
              "note": "C#2",
              "pitch": 49,
              "beat": 4.0,
              "dur": 0.25,
              "vel": 127
            },
            {
              "note": "C#2",
              "pitch": 49,
              "beat": 4.25,
              "dur": 0.5,
              "vel": 127
            },
            {
              "note": "C#2",
              "pitch": 49,
              "beat": 4.75,
              "dur": 0.5,
              "vel": 127
            },
            {
              "note": "C#2",
              "pitch": 49,
              "beat": 5.5,
              "dur": 0.556,
              "vel": 127
            },
            {
              "note": "C#2",
              "pitch": 49,
              "beat": 6.25,
              "dur": 0.584,
              "vel": 127
            },
            {
              "note": "C#2",
              "pitch": 49,
              "beat": 7.0,
              "dur": 0.5,
              "vel": 127
            },
            {
              "note": "C#2",
              "pitch": 49,
              "beat": 7.5,
              "dur": 0.5,
              "vel": 127
            },
            {
              "note": "D#2",
              "pitch": 51,
              "beat": 8.0,
              "dur": 0.25,
              "vel": 127
            },
            {
              "note": "D#2",
              "pitch": 51,
              "beat": 8.25,
              "dur": 0.5,
              "vel": 127
            },
            {
              "note": "D#2",
              "pitch": 51,
              "beat": 8.75,
              "dur": 0.5,
              "vel": 127
            },
            {
              "note": "D#2",
              "pitch": 51,
              "beat": 9.5,
              "dur": 0.556,
              "vel": 127
            },
            {
              "note": "D#2",
              "pitch": 51,
              "beat": 10.25,
              "dur": 0.584,
              "vel": 127
            },
            {
              "note": "D#2",
              "pitch": 51,
              "beat": 11.0,
              "dur": 0.5,
              "vel": 127
            },
            {
              "note": "D#2",
              "pitch": 51,
              "beat": 11.5,
              "dur": 0.5,
              "vel": 127
            },
            {
              "note": "A#1",
              "pitch": 46,
              "beat": 12.0,
              "dur": 0.25,
              "vel": 127
            },
            {
              "note": "A#1",
              "pitch": 46,
              "beat": 12.25,
              "dur": 0.5,
              "vel": 127
            },
            {
              "note": "A#1",
              "pitch": 46,
              "beat": 12.75,
              "dur": 0.614,
              "vel": 127
            },
            {
              "note": "A#1",
              "pitch": 46,
              "beat": 13.5,
              "dur": 0.556,
              "vel": 127
            },
            {
              "note": "A#1",
              "pitch": 46,
              "beat": 14.25,
              "dur": 0.584,
              "vel": 127
            },
            {
              "note": "F2",
              "pitch": 53,
              "beat": 15.0,
              "dur": 0.5,
              "vel": 127
            },
            {
              "note": "F2",
              "pitch": 53,
              "beat": 15.5,
              "dur": 0.5,
              "vel": 127
            },
            {
              "note": "F#2",
              "pitch": 54,
              "beat": 16.0,
              "dur": 0.25,
              "vel": 127
            },
            {
              "note": "F#2",
              "pitch": 54,
              "beat": 16.25,
              "dur": 0.5,
              "vel": 127
            },
            {
              "note": "F#2",
              "pitch": 54,
              "beat": 16.75,
              "dur": 0.5,
              "vel": 127
            },
            {
              "note": "F#2",
              "pitch": 54,
              "beat": 17.5,
              "dur": 0.556,
              "vel": 127
            },
            {
              "note": "F#2",
              "pitch": 54,
              "beat": 18.25,
              "dur": 0.584,
              "vel": 127
            },
            {
              "note": "F#2",
              "pitch": 54,
              "beat": 19.0,
              "dur": 0.5,
              "vel": 127
            },
            {
              "note": "F#2",
              "pitch": 54,
              "beat": 19.5,
              "dur": 0.5,
              "vel": 127
            },
            {
              "note": "C#2",
              "pitch": 49,
              "beat": 20.0,
              "dur": 0.25,
              "vel": 127
            },
            {
              "note": "C#2",
              "pitch": 49,
              "beat": 20.25,
              "dur": 0.5,
              "vel": 127
            },
            {
              "note": "C#2",
              "pitch": 49,
              "beat": 20.75,
              "dur": 0.5,
              "vel": 127
            },
            {
              "note": "C#2",
              "pitch": 49,
              "beat": 21.5,
              "dur": 0.556,
              "vel": 127
            },
            {
              "note": "C#2",
              "pitch": 49,
              "beat": 22.25,
              "dur": 0.584,
              "vel": 127
            },
            {
              "note": "G#2",
              "pitch": 56,
              "beat": 23.0,
              "dur": 0.373,
              "vel": 127
            },
            {
              "note": "G#2",
              "pitch": 56,
              "beat": 23.5,
              "dur": 0.373,
              "vel": 127
            },
            {
              "note": "D#2",
              "pitch": 51,
              "beat": 24.0,
              "dur": 0.25,
              "vel": 127
            },
            {
              "note": "D#2",
              "pitch": 51,
              "beat": 24.25,
              "dur": 0.5,
              "vel": 127
            },
            {
              "note": "D#2",
              "pitch": 51,
              "beat": 24.75,
              "dur": 0.5,
              "vel": 127
            },
            {
              "note": "D#2",
              "pitch": 51,
              "beat": 25.5,
              "dur": 0.556,
              "vel": 127
            },
            {
              "note": "D#2",
              "pitch": 51,
              "beat": 26.25,
              "dur": 0.584,
              "vel": 127
            },
            {
              "note": "D#2",
              "pitch": 51,
              "beat": 27.0,
              "dur": 0.5,
              "vel": 127
            },
            {
              "note": "G#2",
              "pitch": 56,
              "beat": 27.5,
              "dur": 0.5,
              "vel": 127
            },
            {
              "note": "A#2",
              "pitch": 58,
              "beat": 28.0,
              "dur": 0.25,
              "vel": 127
            },
            {
              "note": "A#2",
              "pitch": 58,
              "beat": 28.25,
              "dur": 0.5,
              "vel": 127
            },
            {
              "note": "A#2",
              "pitch": 58,
              "beat": 28.75,
              "dur": 0.614,
              "vel": 127
            },
            {
              "note": "A#2",
              "pitch": 58,
              "beat": 29.5,
              "dur": 0.556,
              "vel": 127
            },
            {
              "note": "A#2",
              "pitch": 58,
              "beat": 30.25,
              "dur": 0.584,
              "vel": 127
            },
            {
              "note": "F2",
              "pitch": 53,
              "beat": 31.0,
              "dur": 0.5,
              "vel": 127
            },
            {
              "note": "F2",
              "pitch": 53,
              "beat": 31.5,
              "dur": 0.5,
              "vel": 127
            }
          ]
        }
      ],
      "automations": [],
      "children": []
    },
    "111": {
      "id": "111",
      "name": "saw",
      "type": "MidiTrack",
      "group_id": "67",
      "devices": [
        {
          "type": "PluginDevice",
          "plugin": "Serum_x64",
          "preset": "",
          "vst_params": []
        },
        {
          "type": "Reverb",
          "PreDelay": "2.5",
          "RoomSize": "100",
          "DecayTime": "1465.73853",
          "FreezeOn": "false"
        },
        {
          "type": "Eq8",
          "bands": []
        }
      ],
      "clips": [
        {
          "bar_start": 40.0,
          "bar_end": 48.0,
          "name": "",
          "notes": [
            {
              "note": "F3",
              "pitch": 65,
              "beat": 19.0,
              "dur": 3.5,
              "vel": 127
            },
            {
              "note": "G#3",
              "pitch": 68,
              "beat": 22.5,
              "dur": 3.5,
              "vel": 127
            },
            {
              "note": "A#3",
              "pitch": 70,
              "beat": 26.0,
              "dur": 6.0,
              "vel": 127
            },
            {
              "note": "F3",
              "pitch": 65,
              "beat": 35.0,
              "dur": 3.5,
              "vel": 127
            },
            {
              "note": "G#3",
              "pitch": 68,
              "beat": 38.5,
              "dur": 3.5,
              "vel": 127
            },
            {
              "note": "A#3",
              "pitch": 70,
              "beat": 42.0,
              "dur": 6.0,
              "vel": 127
            }
          ]
        }
      ],
      "automations": [],
      "children": []
    },
    "112": {
      "id": "112",
      "name": "pad",
      "type": "MidiTrack",
      "group_id": "67",
      "devices": [
        {
          "type": "PluginDevice",
          "plugin": "Serum_x64",
          "preset": "",
          "vst_params": []
        },
        {
          "type": "Eq8",
          "bands": []
        },
        {
          "type": "AudioEffectGroupDevice",
          "On": "true",
          "Speaker": "true",
          "Volume": "1",
          "Panorama": "0",
          "PreDelay": "0.5",
          "BandHighOn": "true",
          "BandLowOn": "true",
          "BandFreq": "830",
          "BandWidth": "4.04166651",
          "SpinOn": "true",
          "EarlyReflectModFreq": "0.2976999879",
          "EarlyReflectModDepth": "17.5000019",
          "DiffuseDelay": "0.5",
          "ShelfHighOn": "true",
          "ShelfHiFreq": "4500.00049",
          "ShelfHiGain": "0.6999999881",
          "ShelfLowOn": "false",
          "ShelfLoFreq": "90",
          "ShelfLoGain": "0.75",
          "ChorusOn": "true"
        },
        {
          "type": "StereoGain",
          "On": "true",
          "PhaseInvertL": "false",
          "PhaseInvertR": "false",
          "ChannelMode": "1",
          "StereoWidth": "1",
          "MidSideBalance": "1",
          "Mono": "false",
          "BassMono": "false",
          "BassMonoFrequency": "120",
          "Balance": "0",
          "Gain": "0.5991327167",
          "LegacyGain": "0",
          "Mute": "false",
          "DcFilter": "false"
        },
        {
          "type": "Eq8",
          "bands": []
        },
        {
          "type": "Reverb",
          "PreDelay": "2.5",
          "RoomSize": "100",
          "DecayTime": "5963.57813",
          "FreezeOn": "false"
        },
        {
          "type": "AutoFilter",
          "Cutoff": "113.095238",
          "Drive": "0",
          "Frequency": "0.1099999994",
          "Resonance": "0.1379310191",
          "Slope": "true",
          "DryWet": "1"
        },
        {
          "type": "AutoPan",
          "On": "true",
          "Type": "0",
          "Frequency": "0.1964203268",
          "RateType": "0",
          "BeatRate": "4",
          "StereoMode": "0",
          "Spin": "0",
          "Phase": "180",
          "Offset": "0",
          "IsOn": "true",
          "Quantize": "false",
          "BeatQuantize": "2",
          "NoiseWidth": "0.5",
          "LfoAmount": "0.3095238209",
          "LfoInvert": "false",
          "LfoShape": "0"
        }
      ],
      "clips": [
        {
          "bar_start": 36.0,
          "bar_end": 48.0,
          "name": "",
          "notes": [
            {
              "note": "F#2",
              "pitch": 54,
              "beat": 0.0,
              "dur": 4.0,
              "vel": 105
            },
            {
              "note": "C#3",
              "pitch": 61,
              "beat": 0.0,
              "dur": 4.0,
              "vel": 105
            },
            {
              "note": "F#3",
              "pitch": 66,
              "beat": 0.0,
              "dur": 4.0,
              "vel": 105
            },
            {
              "note": "A#3",
              "pitch": 70,
              "beat": 0.0,
              "dur": 4.0,
              "vel": 105
            },
            {
              "note": "G#2",
              "pitch": 56,
              "beat": 3.98,
              "dur": 4.0,
              "vel": 105
            },
            {
              "note": "C#2",
              "pitch": 49,
              "beat": 4.0,
              "dur": 4.0,
              "vel": 105
            },
            {
              "note": "C#3",
              "pitch": 61,
              "beat": 4.0,
              "dur": 4.0,
              "vel": 105
            },
            {
              "note": "F3",
              "pitch": 65,
              "beat": 4.0,
              "dur": 4.0,
              "vel": 105
            },
            {
              "note": "D#2",
              "pitch": 51,
              "beat": 8.0,
              "dur": 4.0,
              "vel": 105
            },
            {
              "note": "A#2",
              "pitch": 58,
              "beat": 8.0,
              "dur": 4.0,
              "vel": 105
            },
            {
              "note": "D#3",
              "pitch": 63,
              "beat": 8.0,
              "dur": 4.0,
              "vel": 105
            },
            {
              "note": "F#3",
              "pitch": 66,
              "beat": 8.0,
              "dur": 4.0,
              "vel": 105
            },
            {
              "note": "A#1",
              "pitch": 46,
              "beat": 12.0,
              "dur": 4.0,
              "vel": 105
            },
            {
              "note": "F2",
              "pitch": 53,
              "beat": 12.0,
              "dur": 4.0,
              "vel": 105
            },
            {
              "note": "A#2",
              "pitch": 58,
              "beat": 12.0,
              "dur": 4.0,
              "vel": 105
            },
            {
              "note": "C#3",
              "pitch": 61,
              "beat": 12.0,
              "dur": 4.0,
              "vel": 105
            }
          ]
        }
      ],
      "automations": [],
      "children": []
    },
    "113": {
      "id": "113",
      "name": "pluck",
      "type": "MidiTrack",
      "group_id": "67",
      "devices": [
        {
          "type": "PluginDevice",
          "plugin": "Serum_x64",
          "preset": "",
          "vst_params": []
        },
        {
          "type": "Delay",
          "On": "true",
          "DelayLine_SmoothingMode": "0",
          "DelayLine_Link": "true",
          "DelayLine_PingPong": "false",
          "DelayLine_SyncL": "true",
          "DelayLine_SyncR": "true",
          "DelayLine_TimeL": "0.3749999404",
          "DelayLine_TimeR": "0.3749999404",
          "DelayLine_SimpleDelayTimeL": "100",
          "DelayLine_SimpleDelayTimeR": "100",
          "DelayLine_PingPongDelayTimeL": "1",
          "DelayLine_PingPongDelayTimeR": "1",
          "DelayLine_SyncedSixteenthL": "3",
          "DelayLine_SyncedSixteenthR": "3",
          "DelayLine_OffsetL": "0",
          "DelayLine_OffsetR": "0",
          "Feedback": "0.5",
          "Freeze": "false",
          "Filter_On": "true",
          "Filter_Frequency": "518.967285"
        }
      ],
      "clips": [
        {
          "bar_start": 40.0,
          "bar_end": 44.0,
          "name": "",
          "notes": [
            {
              "note": "D#3",
              "pitch": 63,
              "beat": 0.5,
              "dur": 0.25,
              "vel": 127
            },
            {
              "note": "F3",
              "pitch": 65,
              "beat": 4.5,
              "dur": 0.25,
              "vel": 127
            },
            {
              "note": "D#3",
              "pitch": 63,
              "beat": 8.5,
              "dur": 0.25,
              "vel": 127
            },
            {
              "note": "C#3",
              "pitch": 61,
              "beat": 12.5,
              "dur": 0.25,
              "vel": 127
            }
          ]
        },
        {
          "bar_start": 44.0,
          "bar_end": 48.0,
          "name": "",
          "notes": [
            {
              "note": "D#3",
              "pitch": 63,
              "beat": 0.5,
              "dur": 0.25,
              "vel": 127
            },
            {
              "note": "G#3",
              "pitch": 68,
              "beat": 4.5,
              "dur": 0.25,
              "vel": 127
            },
            {
              "note": "F3",
              "pitch": 65,
              "beat": 8.5,
              "dur": 0.25,
              "vel": 127
            },
            {
              "note": "C#3",
              "pitch": 61,
              "beat": 12.5,
              "dur": 0.25,
              "vel": 127
            }
          ]
        }
      ],
      "automations": [],
      "children": []
    },
    "114": {
      "id": "114",
      "name": "piano",
      "type": "MidiTrack",
      "group_id": "67",
      "devices": [
        {
          "type": "InstrumentGroupDevice",
          "On": "true",
          "Drive": "0",
          "Compand": "0",
          "Random": "0",
          "Mode": "0",
          "Operation": "2",
          "MaxOut": "127",
          "MinOut": "1",
          "Range": "127",
          "Lowest": "1",
          "SampleStart": "0",
          "SampleLength": "1",
          "LoopOn": "false",
          "LoopLength": "1",
          "LoopFade": "0",
          "Reverse": "false",
          "Snap": "false",
          "SampleSelector": "0",
          "IsOn": "false",
          "TransposeKey": "0"
        },
        {
          "type": "Reverb",
          "PreDelay": "2.5",
          "RoomSize": "100",
          "DecayTime": "1756.69055",
          "FreezeOn": "false"
        },
        {
          "type": "AudioEffectGroupDevice",
          "On": "true",
          "Delay_SyncL": "true",
          "Delay_TimeL": "0.3749999702",
          "Delay_SyncedDivisionL": "-2",
          "Delay_SyncedSixteenthL": "3",
          "Delay_SyncModeL": "2",
          "Delay_OffsetL": "0",
          "Delay_TimeR": "0.3749999702",
          "Delay_SyncR": "true",
          "Delay_SyncedDivisionR": "-3",
          "Delay_SyncedSixteenthR": "3",
          "Delay_SyncModeR": "2",
          "Delay_OffsetR": "0",
          "Delay_TimeLink": "true",
          "Delay_Repitch": "true",
          "Feedback": "0.8333333731",
          "FeedbackInvert": "false",
          "ChannelMode": "1",
          "InputGain": "0",
          "OutputGain": "1"
        },
        {
          "type": "Eq8",
          "bands": []
        }
      ],
      "clips": [
        {
          "bar_start": 48.0,
          "bar_end": 56.0,
          "name": "",
          "notes": [
            {
              "note": "A#4",
              "pitch": 82,
              "beat": 1.5,
              "dur": 0.5,
              "vel": 95
            },
            {
              "note": "G#4",
              "pitch": 80,
              "beat": 3.0,
              "dur": 0.5,
              "vel": 95
            },
            {
              "note": "F#4",
              "pitch": 78,
              "beat": 5.5,
              "dur": 0.5,
              "vel": 95
            },
            {
              "note": "F4",
              "pitch": 77,
              "beat": 7.0,
              "dur": 0.5,
              "vel": 95
            },
            {
              "note": "F4",
              "pitch": 77,
              "beat": 9.5,
              "dur": 0.535,
              "vel": 95
            },
            {
              "note": "D#4",
              "pitch": 75,
              "beat": 11.0,
              "dur": 0.535,
              "vel": 95
            },
            {
              "note": "D#4",
              "pitch": 75,
              "beat": 13.5,
              "dur": 0.535,
              "vel": 95
            },
            {
              "note": "F4",
              "pitch": 77,
              "beat": 15.0,
              "dur": 0.535,
              "vel": 95
            },
            {
              "note": "A#4",
              "pitch": 82,
              "beat": 17.5,
              "dur": 0.5,
              "vel": 95
            },
            {
              "note": "G#4",
              "pitch": 80,
              "beat": 19.0,
              "dur": 0.5,
              "vel": 95
            },
            {
              "note": "C5",
              "pitch": 84,
              "beat": 21.5,
              "dur": 0.5,
              "vel": 95
            },
            {
              "note": "C#5",
              "pitch": 85,
              "beat": 23.0,
              "dur": 0.5,
              "vel": 95
            },
            {
              "note": "A#4",
              "pitch": 82,
              "beat": 25.5,
              "dur": 0.535,
              "vel": 95
            },
            {
              "note": "C5",
              "pitch": 84,
              "beat": 27.0,
              "dur": 0.535,
              "vel": 95
            },
            {
              "note": "G#4",
              "pitch": 80,
              "beat": 29.5,
              "dur": 0.535,
              "vel": 95
            },
            {
              "note": "A#4",
              "pitch": 82,
              "beat": 31.0,
              "dur": 0.535,
              "vel": 95
            }
          ]
        },
        {
          "bar_start": 78.0,
          "bar_end": 95.0,
          "name": "",
          "notes": [
            {
              "note": "A#4",
              "pitch": 82,
              "beat": 1.5,
              "dur": 0.5,
              "vel": 95
            },
            {
              "note": "G#4",
              "pitch": 80,
              "beat": 3.0,
              "dur": 0.5,
              "vel": 95
            },
            {
              "note": "F#4",
              "pitch": 78,
              "beat": 5.5,
              "dur": 0.5,
              "vel": 95
            },
            {
              "note": "F4",
              "pitch": 77,
              "beat": 7.0,
              "dur": 0.5,
              "vel": 95
            },
            {
              "note": "F4",
              "pitch": 77,
              "beat": 9.5,
              "dur": 0.535,
              "vel": 95
            },
            {
              "note": "D#4",
              "pitch": 75,
              "beat": 11.0,
              "dur": 0.535,
              "vel": 95
            },
            {
              "note": "D#4",
              "pitch": 75,
              "beat": 13.5,
              "dur": 0.535,
              "vel": 95
            },
            {
              "note": "F4",
              "pitch": 77,
              "beat": 15.0,
              "dur": 0.535,
              "vel": 95
            },
            {
              "note": "A#4",
              "pitch": 82,
              "beat": 17.5,
              "dur": 0.5,
              "vel": 95
            },
            {
              "note": "G#4",
              "pitch": 80,
              "beat": 19.0,
              "dur": 0.5,
              "vel": 95
            },
            {
              "note": "C5",
              "pitch": 84,
              "beat": 21.5,
              "dur": 0.5,
              "vel": 95
            },
            {
              "note": "C#5",
              "pitch": 85,
              "beat": 23.0,
              "dur": 0.5,
              "vel": 95
            },
            {
              "note": "A#4",
              "pitch": 82,
              "beat": 25.5,
              "dur": 0.535,
              "vel": 95
            },
            {
              "note": "C5",
              "pitch": 84,
              "beat": 27.0,
              "dur": 0.535,
              "vel": 95
            },
            {
              "note": "G#4",
              "pitch": 80,
              "beat": 29.5,
              "dur": 0.535,
              "vel": 95
            },
            {
              "note": "A#4",
              "pitch": 82,
              "beat": 31.0,
              "dur": 0.535,
              "vel": 95
            }
          ]
        },
        {
          "bar_start": 96.0,
          "bar_end": 111.0,
          "name": "",
          "notes": [
            {
              "note": "A#4",
              "pitch": 82,
              "beat": 1.5,
              "dur": 0.5,
              "vel": 95
            },
            {
              "note": "G#4",
              "pitch": 80,
              "beat": 3.0,
              "dur": 0.5,
              "vel": 95
            },
            {
              "note": "F#4",
              "pitch": 78,
              "beat": 5.5,
              "dur": 0.5,
              "vel": 95
            },
            {
              "note": "F4",
              "pitch": 77,
              "beat": 7.0,
              "dur": 0.5,
              "vel": 95
            },
            {
              "note": "F4",
              "pitch": 77,
              "beat": 9.5,
              "dur": 0.535,
              "vel": 95
            },
            {
              "note": "D#4",
              "pitch": 75,
              "beat": 11.0,
              "dur": 0.535,
              "vel": 95
            },
            {
              "note": "D#4",
              "pitch": 75,
              "beat": 13.5,
              "dur": 0.535,
              "vel": 95
            },
            {
              "note": "F4",
              "pitch": 77,
              "beat": 15.0,
              "dur": 0.535,
              "vel": 95
            },
            {
              "note": "A#4",
              "pitch": 82,
              "beat": 17.5,
              "dur": 0.5,
              "vel": 95
            },
            {
              "note": "G#4",
              "pitch": 80,
              "beat": 19.0,
              "dur": 0.5,
              "vel": 95
            },
            {
              "note": "C5",
              "pitch": 84,
              "beat": 21.5,
              "dur": 0.5,
              "vel": 95
            },
            {
              "note": "C#5",
              "pitch": 85,
              "beat": 23.0,
              "dur": 0.5,
              "vel": 95
            },
            {
              "note": "A#4",
              "pitch": 82,
              "beat": 25.5,
              "dur": 0.535,
              "vel": 95
            },
            {
              "note": "C5",
              "pitch": 84,
              "beat": 27.0,
              "dur": 0.535,
              "vel": 95
            },
            {
              "note": "G#4",
              "pitch": 80,
              "beat": 29.5,
              "dur": 0.535,
              "vel": 95
            },
            {
              "note": "A#4",
              "pitch": 82,
              "beat": 31.0,
              "dur": 0.535,
              "vel": 95
            }
          ]
        },
        {
          "bar_start": 134.0,
          "bar_end": 144.0,
          "name": "",
          "notes": [
            {
              "note": "A#4",
              "pitch": 82,
              "beat": 1.5,
              "dur": 0.5,
              "vel": 95
            },
            {
              "note": "G#4",
              "pitch": 80,
              "beat": 3.0,
              "dur": 0.5,
              "vel": 95
            },
            {
              "note": "F#4",
              "pitch": 78,
              "beat": 5.5,
              "dur": 0.5,
              "vel": 95
            },
            {
              "note": "F4",
              "pitch": 77,
              "beat": 7.0,
              "dur": 0.5,
              "vel": 95
            },
            {
              "note": "F4",
              "pitch": 77,
              "beat": 9.5,
              "dur": 0.535,
              "vel": 95
            },
            {
              "note": "D#4",
              "pitch": 75,
              "beat": 11.0,
              "dur": 0.535,
              "vel": 95
            },
            {
              "note": "D#4",
              "pitch": 75,
              "beat": 13.5,
              "dur": 0.535,
              "vel": 95
            },
            {
              "note": "F4",
              "pitch": 77,
              "beat": 15.0,
              "dur": 0.535,
              "vel": 95
            },
            {
              "note": "A#4",
              "pitch": 82,
              "beat": 17.5,
              "dur": 0.5,
              "vel": 95
            },
            {
              "note": "G#4",
              "pitch": 80,
              "beat": 19.0,
              "dur": 0.5,
              "vel": 95
            },
            {
              "note": "C5",
              "pitch": 84,
              "beat": 21.5,
              "dur": 0.5,
              "vel": 95
            },
            {
              "note": "C#5",
              "pitch": 85,
              "beat": 23.0,
              "dur": 0.5,
              "vel": 95
            },
            {
              "note": "A#4",
              "pitch": 82,
              "beat": 25.5,
              "dur": 0.535,
              "vel": 95
            },
            {
              "note": "C5",
              "pitch": 84,
              "beat": 27.0,
              "dur": 0.535,
              "vel": 95
            },
            {
              "note": "G#4",
              "pitch": 80,
              "beat": 29.5,
              "dur": 0.535,
              "vel": 95
            },
            {
              "note": "A#4",
              "pitch": 82,
              "beat": 31.0,
              "dur": 0.535,
              "vel": 95
            }
          ]
        },
        {
          "bar_start": 144.0,
          "bar_end": 148.0,
          "name": "",
          "notes": [
            {
              "note": "A#4",
              "pitch": 82,
              "beat": 1.5,
              "dur": 0.5,
              "vel": 95
            },
            {
              "note": "G#4",
              "pitch": 80,
              "beat": 3.0,
              "dur": 0.5,
              "vel": 95
            },
            {
              "note": "F#4",
              "pitch": 78,
              "beat": 5.5,
              "dur": 0.5,
              "vel": 95
            },
            {
              "note": "F4",
              "pitch": 77,
              "beat": 7.0,
              "dur": 0.5,
              "vel": 95
            },
            {
              "note": "F4",
              "pitch": 77,
              "beat": 9.5,
              "dur": 0.535,
              "vel": 95
            },
            {
              "note": "D#4",
              "pitch": 75,
              "beat": 11.0,
              "dur": 0.535,
              "vel": 95
            },
            {
              "note": "D#4",
              "pitch": 75,
              "beat": 13.5,
              "dur": 0.535,
              "vel": 95
            },
            {
              "note": "F4",
              "pitch": 77,
              "beat": 15.0,
              "dur": 0.535,
              "vel": 95
            },
            {
              "note": "A#4",
              "pitch": 82,
              "beat": 17.5,
              "dur": 0.5,
              "vel": 95
            },
            {
              "note": "G#4",
              "pitch": 80,
              "beat": 19.0,
              "dur": 0.5,
              "vel": 95
            },
            {
              "note": "C5",
              "pitch": 84,
              "beat": 21.5,
              "dur": 0.5,
              "vel": 95
            },
            {
              "note": "C#5",
              "pitch": 85,
              "beat": 23.0,
              "dur": 0.5,
              "vel": 95
            },
            {
              "note": "A#4",
              "pitch": 82,
              "beat": 25.5,
              "dur": 0.535,
              "vel": 95
            },
            {
              "note": "C5",
              "pitch": 84,
              "beat": 27.0,
              "dur": 0.535,
              "vel": 95
            },
            {
              "note": "G#4",
              "pitch": 80,
              "beat": 29.5,
              "dur": 0.535,
              "vel": 95
            },
            {
              "note": "A#4",
              "pitch": 82,
              "beat": 31.0,
              "dur": 0.535,
              "vel": 95
            }
          ]
        },
        {
          "bar_start": 148.0,
          "bar_end": 152.0,
          "name": "",
          "notes": [
            {
              "note": "A#4",
              "pitch": 82,
              "beat": 1.5,
              "dur": 0.5,
              "vel": 95
            },
            {
              "note": "G#4",
              "pitch": 80,
              "beat": 3.0,
              "dur": 0.5,
              "vel": 95
            },
            {
              "note": "F#4",
              "pitch": 78,
              "beat": 5.5,
              "dur": 0.5,
              "vel": 95
            },
            {
              "note": "F4",
              "pitch": 77,
              "beat": 7.0,
              "dur": 0.5,
              "vel": 95
            },
            {
              "note": "F4",
              "pitch": 77,
              "beat": 9.5,
              "dur": 0.535,
              "vel": 95
            },
            {
              "note": "D#4",
              "pitch": 75,
              "beat": 11.0,
              "dur": 0.535,
              "vel": 95
            },
            {
              "note": "D#4",
              "pitch": 75,
              "beat": 13.5,
              "dur": 0.535,
              "vel": 95
            },
            {
              "note": "F4",
              "pitch": 77,
              "beat": 15.0,
              "dur": 0.535,
              "vel": 95
            },
            {
              "note": "A#4",
              "pitch": 82,
              "beat": 17.5,
              "dur": 0.5,
              "vel": 95
            },
            {
              "note": "G#4",
              "pitch": 80,
              "beat": 19.0,
              "dur": 0.5,
              "vel": 95
            },
            {
              "note": "C5",
              "pitch": 84,
              "beat": 21.5,
              "dur": 0.5,
              "vel": 95
            },
            {
              "note": "C#5",
              "pitch": 85,
              "beat": 23.0,
              "dur": 0.5,
              "vel": 95
            },
            {
              "note": "A#4",
              "pitch": 82,
              "beat": 25.5,
              "dur": 0.535,
              "vel": 95
            },
            {
              "note": "C5",
              "pitch": 84,
              "beat": 27.0,
              "dur": 0.535,
              "vel": 95
            },
            {
              "note": "G#4",
              "pitch": 80,
              "beat": 29.5,
              "dur": 0.535,
              "vel": 95
            },
            {
              "note": "A#4",
              "pitch": 82,
              "beat": 31.0,
              "dur": 0.535,
              "vel": 95
            }
          ]
        },
        {
          "bar_start": 152.0,
          "bar_end": 156.0,
          "name": "",
          "notes": [
            {
              "note": "A#4",
              "pitch": 82,
              "beat": 1.5,
              "dur": 0.5,
              "vel": 95
            },
            {
              "note": "G#4",
              "pitch": 80,
              "beat": 3.0,
              "dur": 0.5,
              "vel": 95
            },
            {
              "note": "F#4",
              "pitch": 78,
              "beat": 5.5,
              "dur": 0.5,
              "vel": 95
            },
            {
              "note": "F4",
              "pitch": 77,
              "beat": 7.0,
              "dur": 0.5,
              "vel": 95
            },
            {
              "note": "F4",
              "pitch": 77,
              "beat": 9.5,
              "dur": 0.535,
              "vel": 95
            },
            {
              "note": "D#4",
              "pitch": 75,
              "beat": 11.0,
              "dur": 0.535,
              "vel": 95
            },
            {
              "note": "D#4",
              "pitch": 75,
              "beat": 13.5,
              "dur": 0.535,
              "vel": 95
            },
            {
              "note": "F4",
              "pitch": 77,
              "beat": 15.0,
              "dur": 0.535,
              "vel": 95
            },
            {
              "note": "A#4",
              "pitch": 82,
              "beat": 17.5,
              "dur": 0.5,
              "vel": 95
            },
            {
              "note": "G#4",
              "pitch": 80,
              "beat": 19.0,
              "dur": 0.5,
              "vel": 95
            },
            {
              "note": "C5",
              "pitch": 84,
              "beat": 21.5,
              "dur": 0.5,
              "vel": 95
            },
            {
              "note": "C#5",
              "pitch": 85,
              "beat": 23.0,
              "dur": 0.5,
              "vel": 95
            },
            {
              "note": "A#4",
              "pitch": 82,
              "beat": 25.5,
              "dur": 0.535,
              "vel": 95
            },
            {
              "note": "C5",
              "pitch": 84,
              "beat": 27.0,
              "dur": 0.535,
              "vel": 95
            },
            {
              "note": "G#4",
              "pitch": 80,
              "beat": 29.5,
              "dur": 0.535,
              "vel": 95
            },
            {
              "note": "A#4",
              "pitch": 82,
              "beat": 31.0,
              "dur": 0.535,
              "vel": 95
            }
          ]
        },
        {
          "bar_start": 156.0,
          "bar_end": 159.0,
          "name": "",
          "notes": [
            {
              "note": "A#4",
              "pitch": 82,
              "beat": 1.5,
              "dur": 0.5,
              "vel": 95
            },
            {
              "note": "G#4",
              "pitch": 80,
              "beat": 3.0,
              "dur": 0.5,
              "vel": 95
            },
            {
              "note": "F#4",
              "pitch": 78,
              "beat": 5.5,
              "dur": 0.5,
              "vel": 95
            },
            {
              "note": "F4",
              "pitch": 77,
              "beat": 7.0,
              "dur": 0.5,
              "vel": 95
            },
            {
              "note": "F4",
              "pitch": 77,
              "beat": 9.5,
              "dur": 0.535,
              "vel": 95
            },
            {
              "note": "D#4",
              "pitch": 75,
              "beat": 11.0,
              "dur": 0.535,
              "vel": 95
            },
            {
              "note": "D#4",
              "pitch": 75,
              "beat": 13.5,
              "dur": 0.535,
              "vel": 95
            },
            {
              "note": "F4",
              "pitch": 77,
              "beat": 15.0,
              "dur": 0.535,
              "vel": 95
            },
            {
              "note": "A#4",
              "pitch": 82,
              "beat": 17.5,
              "dur": 0.5,
              "vel": 95
            },
            {
              "note": "G#4",
              "pitch": 80,
              "beat": 19.0,
              "dur": 0.5,
              "vel": 95
            },
            {
              "note": "C5",
              "pitch": 84,
              "beat": 21.5,
              "dur": 0.5,
              "vel": 95
            },
            {
              "note": "C#5",
              "pitch": 85,
              "beat": 23.0,
              "dur": 0.5,
              "vel": 95
            },
            {
              "note": "A#4",
              "pitch": 82,
              "beat": 25.5,
              "dur": 0.535,
              "vel": 95
            },
            {
              "note": "C5",
              "pitch": 84,
              "beat": 27.0,
              "dur": 0.535,
              "vel": 95
            },
            {
              "note": "G#4",
              "pitch": 80,
              "beat": 29.5,
              "dur": 0.535,
              "vel": 95
            },
            {
              "note": "A#4",
              "pitch": 82,
              "beat": 31.0,
              "dur": 0.535,
              "vel": 95
            }
          ]
        }
      ],
      "automations": [],
      "children": []
    },
    "136": {
      "id": "136",
      "name": "main pad",
      "type": "MidiTrack",
      "group_id": "67",
      "devices": [
        {
          "type": "PluginDevice",
          "plugin": "Serum_x64",
          "preset": "",
          "vst_params": []
        },
        {
          "type": "Eq8",
          "bands": []
        },
        {
          "type": "FrequencyShifter",
          "On": "true",
          "ModulationMode": "0",
          "Coarse": "0",
          "Fine": "0",
          "RingModCoarse": "1000",
          "Amount": "1",
          "InvertR": "false",
          "DriveOn": "false",
          "Drive": "0",
          "Type": "0",
          "Frequency": "0.4999999702",
          "RateType": "0",
          "BeatRate": "4",
          "StereoMode": "0",
          "Spin": "0",
          "Phase": "180",
          "Offset": "0",
          "IsOn": "true",
          "Quantize": "false",
          "BeatQuantize": "0"
        },
        {
          "type": "StereoGain",
          "On": "true",
          "PhaseInvertL": "false",
          "PhaseInvertR": "false",
          "ChannelMode": "1",
          "StereoWidth": "1",
          "MidSideBalance": "1",
          "Mono": "false",
          "BassMono": "false",
          "BassMonoFrequency": "120",
          "Balance": "0",
          "Gain": "1",
          "LegacyGain": "0",
          "Mute": "false",
          "DcFilter": "false"
        }
      ],
      "clips": [
        {
          "bar_start": 56.0,
          "bar_end": 71.0,
          "name": "",
          "notes": [
            {
              "note": "F#1",
              "pitch": 42,
              "beat": 0.0,
              "dur": 4.0,
              "vel": 105
            },
            {
              "note": "F#2",
              "pitch": 54,
              "beat": 0.0,
              "dur": 4.0,
              "vel": 105
            },
            {
              "note": "A#2",
              "pitch": 58,
              "beat": 0.0,
              "dur": 4.0,
              "vel": 105
            },
            {
              "note": "C#3",
              "pitch": 61,
              "beat": 0.0,
              "dur": 4.0,
              "vel": 105
            },
            {
              "note": "F3",
              "pitch": 65,
              "beat": 0.0,
              "dur": 4.0,
              "vel": 105
            },
            {
              "note": "G#2",
              "pitch": 56,
              "beat": 3.98,
              "dur": 3.99,
              "vel": 105
            },
            {
              "note": "C#2",
              "pitch": 49,
              "beat": 4.0,
              "dur": 3.99,
              "vel": 105
            },
            {
              "note": "C#3",
              "pitch": 61,
              "beat": 4.0,
              "dur": 3.99,
              "vel": 105
            },
            {
              "note": "F3",
              "pitch": 65,
              "beat": 4.0,
              "dur": 3.99,
              "vel": 105
            },
            {
              "note": "C#1",
              "pitch": 37,
              "beat": 4.01,
              "dur": 3.99,
              "vel": 105
            },
            {
              "note": "A#0",
              "pitch": 34,
              "beat": 8.0,
              "dur": 4.0,
              "vel": 105
            },
            {
              "note": "A#1",
              "pitch": 46,
              "beat": 8.0,
              "dur": 4.0,
              "vel": 105
            },
            {
              "note": "F2",
              "pitch": 53,
              "beat": 8.0,
              "dur": 4.0,
              "vel": 105
            },
            {
              "note": "A#2",
              "pitch": 58,
              "beat": 8.0,
              "dur": 4.0,
              "vel": 105
            },
            {
              "note": "C#3",
              "pitch": 61,
              "beat": 8.0,
              "dur": 4.0,
              "vel": 105
            },
            {
              "note": "G#2",
              "pitch": 56,
              "beat": 11.98,
              "dur": 3.99,
              "vel": 105
            },
            {
              "note": "C#2",
              "pitch": 49,
              "beat": 12.0,
              "dur": 3.99,
              "vel": 105
            },
            {
              "note": "C#3",
              "pitch": 61,
              "beat": 12.0,
              "dur": 3.99,
              "vel": 105
            },
            {
              "note": "F3",
              "pitch": 65,
              "beat": 12.0,
              "dur": 3.99,
              "vel": 105
            },
            {
              "note": "C#1",
              "pitch": 37,
              "beat": 12.01,
              "dur": 3.99,
              "vel": 105
            }
          ]
        },
        {
          "bar_start": 71.0,
          "bar_end": 72.0,
          "name": "",
          "notes": [
            {
              "note": "F#1",
              "pitch": 42,
              "beat": 0.0,
              "dur": 4.0,
              "vel": 105
            },
            {
              "note": "F#2",
              "pitch": 54,
              "beat": 0.0,
              "dur": 4.0,
              "vel": 105
            },
            {
              "note": "A#2",
              "pitch": 58,
              "beat": 0.0,
              "dur": 4.0,
              "vel": 105
            },
            {
              "note": "C#3",
              "pitch": 61,
              "beat": 0.0,
              "dur": 4.0,
              "vel": 105
            },
            {
              "note": "F3",
              "pitch": 65,
              "beat": 0.0,
              "dur": 4.0,
              "vel": 105
            },
            {
              "note": "G#2",
              "pitch": 56,
              "beat": 3.98,
              "dur": 3.99,
              "vel": 105
            },
            {
              "note": "C#2",
              "pitch": 49,
              "beat": 4.0,
              "dur": 3.99,
              "vel": 105
            },
            {
              "note": "C#3",
              "pitch": 61,
              "beat": 4.0,
              "dur": 3.99,
              "vel": 105
            },
            {
              "note": "F3",
              "pitch": 65,
              "beat": 4.0,
              "dur": 3.99,
              "vel": 105
            },
            {
              "note": "C#1",
              "pitch": 37,
              "beat": 4.01,
              "dur": 3.99,
              "vel": 105
            },
            {
              "note": "A#0",
              "pitch": 34,
              "beat": 8.0,
              "dur": 4.0,
              "vel": 105
            },
            {
              "note": "A#1",
              "pitch": 46,
              "beat": 8.0,
              "dur": 4.0,
              "vel": 105
            },
            {
              "note": "F2",
              "pitch": 53,
              "beat": 8.0,
              "dur": 4.0,
              "vel": 105
            },
            {
              "note": "A#2",
              "pitch": 58,
              "beat": 8.0,
              "dur": 4.0,
              "vel": 105
            },
            {
              "note": "C#3",
              "pitch": 61,
              "beat": 8.0,
              "dur": 4.0,
              "vel": 105
            },
            {
              "note": "G#2",
              "pitch": 56,
              "beat": 11.98,
              "dur": 3.99,
              "vel": 105
            },
            {
              "note": "C#2",
              "pitch": 49,
              "beat": 12.0,
              "dur": 3.99,
              "vel": 105
            },
            {
              "note": "C#3",
              "pitch": 61,
              "beat": 12.0,
              "dur": 3.99,
              "vel": 105
            },
            {
              "note": "F3",
              "pitch": 65,
              "beat": 12.0,
              "dur": 3.99,
              "vel": 105
            },
            {
              "note": "C#1",
              "pitch": 37,
              "beat": 12.01,
              "dur": 3.99,
              "vel": 105
            }
          ]
        },
        {
          "bar_start": 72.0,
          "bar_end": 78.0,
          "name": "",
          "notes": [
            {
              "note": "F#1",
              "pitch": 42,
              "beat": 0.0,
              "dur": 4.0,
              "vel": 105
            },
            {
              "note": "F#2",
              "pitch": 54,
              "beat": 0.0,
              "dur": 4.0,
              "vel": 105
            },
            {
              "note": "A#2",
              "pitch": 58,
              "beat": 0.0,
              "dur": 4.0,
              "vel": 105
            },
            {
              "note": "C#3",
              "pitch": 61,
              "beat": 0.0,
              "dur": 4.0,
              "vel": 105
            },
            {
              "note": "F3",
              "pitch": 65,
              "beat": 0.0,
              "dur": 4.0,
              "vel": 105
            },
            {
              "note": "G#2",
              "pitch": 56,
              "beat": 3.98,
              "dur": 3.99,
              "vel": 105
            },
            {
              "note": "C#2",
              "pitch": 49,
              "beat": 4.0,
              "dur": 3.99,
              "vel": 105
            },
            {
              "note": "C#3",
              "pitch": 61,
              "beat": 4.0,
              "dur": 3.99,
              "vel": 105
            },
            {
              "note": "F3",
              "pitch": 65,
              "beat": 4.0,
              "dur": 3.99,
              "vel": 105
            },
            {
              "note": "C#1",
              "pitch": 37,
              "beat": 4.01,
              "dur": 3.99,
              "vel": 105
            },
            {
              "note": "A#0",
              "pitch": 34,
              "beat": 8.0,
              "dur": 4.0,
              "vel": 105
            },
            {
              "note": "A#1",
              "pitch": 46,
              "beat": 8.0,
              "dur": 4.0,
              "vel": 105
            },
            {
              "note": "F2",
              "pitch": 53,
              "beat": 8.0,
              "dur": 4.0,
              "vel": 105
            },
            {
              "note": "A#2",
              "pitch": 58,
              "beat": 8.0,
              "dur": 4.0,
              "vel": 105
            },
            {
              "note": "C#3",
              "pitch": 61,
              "beat": 8.0,
              "dur": 4.0,
              "vel": 105
            },
            {
              "note": "G#2",
              "pitch": 56,
              "beat": 11.98,
              "dur": 3.99,
              "vel": 105
            },
            {
              "note": "C#2",
              "pitch": 49,
              "beat": 12.0,
              "dur": 3.99,
              "vel": 105
            },
            {
              "note": "C#3",
              "pitch": 61,
              "beat": 12.0,
              "dur": 3.99,
              "vel": 105
            },
            {
              "note": "F3",
              "pitch": 65,
              "beat": 12.0,
              "dur": 3.99,
              "vel": 105
            },
            {
              "note": "C#1",
              "pitch": 37,
              "beat": 12.01,
              "dur": 3.99,
              "vel": 105
            }
          ]
        },
        {
          "bar_start": 80.0,
          "bar_end": 95.0,
          "name": "",
          "notes": [
            {
              "note": "F#1",
              "pitch": 42,
              "beat": 0.0,
              "dur": 4.0,
              "vel": 105
            },
            {
              "note": "F#2",
              "pitch": 54,
              "beat": 0.0,
              "dur": 4.0,
              "vel": 105
            },
            {
              "note": "A#2",
              "pitch": 58,
              "beat": 0.0,
              "dur": 4.0,
              "vel": 105
            },
            {
              "note": "C#3",
              "pitch": 61,
              "beat": 0.0,
              "dur": 4.0,
              "vel": 105
            },
            {
              "note": "F3",
              "pitch": 65,
              "beat": 0.0,
              "dur": 4.0,
              "vel": 105
            },
            {
              "note": "G#2",
              "pitch": 56,
              "beat": 3.98,
              "dur": 3.99,
              "vel": 105
            },
            {
              "note": "C#2",
              "pitch": 49,
              "beat": 4.0,
              "dur": 3.99,
              "vel": 105
            },
            {
              "note": "C#3",
              "pitch": 61,
              "beat": 4.0,
              "dur": 3.99,
              "vel": 105
            },
            {
              "note": "F3",
              "pitch": 65,
              "beat": 4.0,
              "dur": 3.99,
              "vel": 105
            },
            {
              "note": "C#1",
              "pitch": 37,
              "beat": 4.01,
              "dur": 3.99,
              "vel": 105
            },
            {
              "note": "A#0",
              "pitch": 34,
              "beat": 8.0,
              "dur": 4.0,
              "vel": 105
            },
            {
              "note": "A#1",
              "pitch": 46,
              "beat": 8.0,
              "dur": 4.0,
              "vel": 105
            },
            {
              "note": "F2",
              "pitch": 53,
              "beat": 8.0,
              "dur": 4.0,
              "vel": 105
            },
            {
              "note": "A#2",
              "pitch": 58,
              "beat": 8.0,
              "dur": 4.0,
              "vel": 105
            },
            {
              "note": "C#3",
              "pitch": 61,
              "beat": 8.0,
              "dur": 4.0,
              "vel": 105
            },
            {
              "note": "G#2",
              "pitch": 56,
              "beat": 11.98,
              "dur": 3.99,
              "vel": 105
            },
            {
              "note": "C#2",
              "pitch": 49,
              "beat": 12.0,
              "dur": 3.99,
              "vel": 105
            },
            {
              "note": "C#3",
              "pitch": 61,
              "beat": 12.0,
              "dur": 3.99,
              "vel": 105
            },
            {
              "note": "F3",
              "pitch": 65,
              "beat": 12.0,
              "dur": 3.99,
              "vel": 105
            },
            {
              "note": "C#1",
              "pitch": 37,
              "beat": 12.01,
              "dur": 3.99,
              "vel": 105
            }
          ]
        },
        {
          "bar_start": 96.0,
          "bar_end": 111.0,
          "name": "",
          "notes": [
            {
              "note": "F#1",
              "pitch": 42,
              "beat": 0.0,
              "dur": 4.0,
              "vel": 105
            },
            {
              "note": "F#2",
              "pitch": 54,
              "beat": 0.0,
              "dur": 4.0,
              "vel": 105
            },
            {
              "note": "A#2",
              "pitch": 58,
              "beat": 0.0,
              "dur": 4.0,
              "vel": 105
            },
            {
              "note": "C#3",
              "pitch": 61,
              "beat": 0.0,
              "dur": 4.0,
              "vel": 105
            },
            {
              "note": "F3",
              "pitch": 65,
              "beat": 0.0,
              "dur": 4.0,
              "vel": 105
            },
            {
              "note": "G#2",
              "pitch": 56,
              "beat": 3.98,
              "dur": 3.99,
              "vel": 105
            },
            {
              "note": "C#2",
              "pitch": 49,
              "beat": 4.0,
              "dur": 3.99,
              "vel": 105
            },
            {
              "note": "C#3",
              "pitch": 61,
              "beat": 4.0,
              "dur": 3.99,
              "vel": 105
            },
            {
              "note": "F3",
              "pitch": 65,
              "beat": 4.0,
              "dur": 3.99,
              "vel": 105
            },
            {
              "note": "C#1",
              "pitch": 37,
              "beat": 4.01,
              "dur": 3.99,
              "vel": 105
            },
            {
              "note": "A#0",
              "pitch": 34,
              "beat": 8.0,
              "dur": 4.0,
              "vel": 105
            },
            {
              "note": "A#1",
              "pitch": 46,
              "beat": 8.0,
              "dur": 4.0,
              "vel": 105
            },
            {
              "note": "F2",
              "pitch": 53,
              "beat": 8.0,
              "dur": 4.0,
              "vel": 105
            },
            {
              "note": "A#2",
              "pitch": 58,
              "beat": 8.0,
              "dur": 4.0,
              "vel": 105
            },
            {
              "note": "C#3",
              "pitch": 61,
              "beat": 8.0,
              "dur": 4.0,
              "vel": 105
            },
            {
              "note": "G#2",
              "pitch": 56,
              "beat": 11.98,
              "dur": 3.99,
              "vel": 105
            },
            {
              "note": "C#2",
              "pitch": 49,
              "beat": 12.0,
              "dur": 3.99,
              "vel": 105
            },
            {
              "note": "C#3",
              "pitch": 61,
              "beat": 12.0,
              "dur": 3.99,
              "vel": 105
            },
            {
              "note": "F3",
              "pitch": 65,
              "beat": 12.0,
              "dur": 3.99,
              "vel": 105
            },
            {
              "note": "C#1",
              "pitch": 37,
              "beat": 12.01,
              "dur": 3.99,
              "vel": 105
            }
          ]
        },
        {
          "bar_start": 112.0,
          "bar_end": 134.0,
          "name": "",
          "notes": [
            {
              "note": "F#1",
              "pitch": 42,
              "beat": 0.0,
              "dur": 4.0,
              "vel": 105
            },
            {
              "note": "F#2",
              "pitch": 54,
              "beat": 0.0,
              "dur": 4.0,
              "vel": 105
            },
            {
              "note": "A#2",
              "pitch": 58,
              "beat": 0.0,
              "dur": 4.0,
              "vel": 105
            },
            {
              "note": "C#3",
              "pitch": 61,
              "beat": 0.0,
              "dur": 4.0,
              "vel": 105
            },
            {
              "note": "F3",
              "pitch": 65,
              "beat": 0.0,
              "dur": 4.0,
              "vel": 105
            },
            {
              "note": "G#2",
              "pitch": 56,
              "beat": 3.98,
              "dur": 3.99,
              "vel": 105
            },
            {
              "note": "C#2",
              "pitch": 49,
              "beat": 4.0,
              "dur": 3.99,
              "vel": 105
            },
            {
              "note": "C#3",
              "pitch": 61,
              "beat": 4.0,
              "dur": 3.99,
              "vel": 105
            },
            {
              "note": "F3",
              "pitch": 65,
              "beat": 4.0,
              "dur": 3.99,
              "vel": 105
            },
            {
              "note": "C#1",
              "pitch": 37,
              "beat": 4.01,
              "dur": 3.99,
              "vel": 105
            },
            {
              "note": "A#0",
              "pitch": 34,
              "beat": 8.0,
              "dur": 4.0,
              "vel": 105
            },
            {
              "note": "A#1",
              "pitch": 46,
              "beat": 8.0,
              "dur": 4.0,
              "vel": 105
            },
            {
              "note": "F2",
              "pitch": 53,
              "beat": 8.0,
              "dur": 4.0,
              "vel": 105
            },
            {
              "note": "A#2",
              "pitch": 58,
              "beat": 8.0,
              "dur": 4.0,
              "vel": 105
            },
            {
              "note": "C#3",
              "pitch": 61,
              "beat": 8.0,
              "dur": 4.0,
              "vel": 105
            },
            {
              "note": "G#2",
              "pitch": 56,
              "beat": 11.98,
              "dur": 3.99,
              "vel": 105
            },
            {
              "note": "C#2",
              "pitch": 49,
              "beat": 12.0,
              "dur": 3.99,
              "vel": 105
            },
            {
              "note": "C#3",
              "pitch": 61,
              "beat": 12.0,
              "dur": 3.99,
              "vel": 105
            },
            {
              "note": "F3",
              "pitch": 65,
              "beat": 12.0,
              "dur": 3.99,
              "vel": 105
            },
            {
              "note": "C#1",
              "pitch": 37,
              "beat": 12.01,
              "dur": 3.99,
              "vel": 105
            }
          ]
        },
        {
          "bar_start": 136.0,
          "bar_end": 159.0,
          "name": "",
          "notes": [
            {
              "note": "F#1",
              "pitch": 42,
              "beat": 0.0,
              "dur": 4.0,
              "vel": 105
            },
            {
              "note": "F#2",
              "pitch": 54,
              "beat": 0.0,
              "dur": 4.0,
              "vel": 105
            },
            {
              "note": "A#2",
              "pitch": 58,
              "beat": 0.0,
              "dur": 4.0,
              "vel": 105
            },
            {
              "note": "C#3",
              "pitch": 61,
              "beat": 0.0,
              "dur": 4.0,
              "vel": 105
            },
            {
              "note": "F3",
              "pitch": 65,
              "beat": 0.0,
              "dur": 4.0,
              "vel": 105
            },
            {
              "note": "G#2",
              "pitch": 56,
              "beat": 3.98,
              "dur": 3.99,
              "vel": 105
            },
            {
              "note": "C#2",
              "pitch": 49,
              "beat": 4.0,
              "dur": 3.99,
              "vel": 105
            },
            {
              "note": "C#3",
              "pitch": 61,
              "beat": 4.0,
              "dur": 3.99,
              "vel": 105
            },
            {
              "note": "F3",
              "pitch": 65,
              "beat": 4.0,
              "dur": 3.99,
              "vel": 105
            },
            {
              "note": "C#1",
              "pitch": 37,
              "beat": 4.01,
              "dur": 3.99,
              "vel": 105
            },
            {
              "note": "A#0",
              "pitch": 34,
              "beat": 8.0,
              "dur": 4.0,
              "vel": 105
            },
            {
              "note": "A#1",
              "pitch": 46,
              "beat": 8.0,
              "dur": 4.0,
              "vel": 105
            },
            {
              "note": "F2",
              "pitch": 53,
              "beat": 8.0,
              "dur": 4.0,
              "vel": 105
            },
            {
              "note": "A#2",
              "pitch": 58,
              "beat": 8.0,
              "dur": 4.0,
              "vel": 105
            },
            {
              "note": "C#3",
              "pitch": 61,
              "beat": 8.0,
              "dur": 4.0,
              "vel": 105
            },
            {
              "note": "G#2",
              "pitch": 56,
              "beat": 11.98,
              "dur": 3.99,
              "vel": 105
            },
            {
              "note": "C#2",
              "pitch": 49,
              "beat": 12.0,
              "dur": 3.99,
              "vel": 105
            },
            {
              "note": "C#3",
              "pitch": 61,
              "beat": 12.0,
              "dur": 3.99,
              "vel": 105
            },
            {
              "note": "F3",
              "pitch": 65,
              "beat": 12.0,
              "dur": 3.99,
              "vel": 105
            },
            {
              "note": "C#1",
              "pitch": 37,
              "beat": 12.01,
              "dur": 3.99,
              "vel": 105
            }
          ]
        }
      ],
      "automations": [],
      "children": []
    },
    "137": {
      "id": "137",
      "name": "drop pad",
      "type": "MidiTrack",
      "group_id": "67",
      "devices": [
        {
          "type": "PluginDevice",
          "plugin": "Serum_x64",
          "preset": "",
          "vst_params": []
        },
        {
          "type": "StereoGain",
          "On": "true",
          "PhaseInvertL": "false",
          "PhaseInvertR": "false",
          "ChannelMode": "1",
          "StereoWidth": "1",
          "MidSideBalance": "1",
          "Mono": "false",
          "BassMono": "false",
          "BassMonoFrequency": "120",
          "Balance": "0",
          "Gain": "1",
          "LegacyGain": "0",
          "Mute": "false",
          "DcFilter": "false"
        }
      ],
      "clips": [
        {
          "bar_start": 80.0,
          "bar_end": 95.0,
          "name": "",
          "notes": [
            {
              "note": "F#2",
              "pitch": 54,
              "beat": 0.0,
              "dur": 4.0,
              "vel": 105
            },
            {
              "note": "F#3",
              "pitch": 66,
              "beat": 0.0,
              "dur": 4.0,
              "vel": 105
            },
            {
              "note": "A#3",
              "pitch": 70,
              "beat": 0.0,
              "dur": 4.0,
              "vel": 105
            },
            {
              "note": "C#4",
              "pitch": 73,
              "beat": 0.0,
              "dur": 4.0,
              "vel": 105
            },
            {
              "note": "F4",
              "pitch": 77,
              "beat": 0.0,
              "dur": 4.0,
              "vel": 105
            },
            {
              "note": "G#3",
              "pitch": 68,
              "beat": 3.98,
              "dur": 3.99,
              "vel": 105
            },
            {
              "note": "C#3",
              "pitch": 61,
              "beat": 4.0,
              "dur": 3.99,
              "vel": 105
            },
            {
              "note": "C#4",
              "pitch": 73,
              "beat": 4.0,
              "dur": 3.99,
              "vel": 105
            },
            {
              "note": "F4",
              "pitch": 77,
              "beat": 4.0,
              "dur": 3.99,
              "vel": 105
            },
            {
              "note": "C#2",
              "pitch": 49,
              "beat": 4.01,
              "dur": 3.99,
              "vel": 105
            },
            {
              "note": "A#1",
              "pitch": 46,
              "beat": 8.0,
              "dur": 4.0,
              "vel": 105
            },
            {
              "note": "A#2",
              "pitch": 58,
              "beat": 8.0,
              "dur": 4.0,
              "vel": 105
            },
            {
              "note": "F3",
              "pitch": 65,
              "beat": 8.0,
              "dur": 4.0,
              "vel": 105
            },
            {
              "note": "A#3",
              "pitch": 70,
              "beat": 8.0,
              "dur": 4.0,
              "vel": 105
            },
            {
              "note": "C#4",
              "pitch": 73,
              "beat": 8.0,
              "dur": 4.0,
              "vel": 105
            },
            {
              "note": "G#3",
              "pitch": 68,
              "beat": 11.98,
              "dur": 3.99,
              "vel": 105
            },
            {
              "note": "C#3",
              "pitch": 61,
              "beat": 12.0,
              "dur": 3.99,
              "vel": 105
            },
            {
              "note": "C#4",
              "pitch": 73,
              "beat": 12.0,
              "dur": 3.99,
              "vel": 105
            },
            {
              "note": "F4",
              "pitch": 77,
              "beat": 12.0,
              "dur": 3.99,
              "vel": 105
            },
            {
              "note": "C#2",
              "pitch": 49,
              "beat": 12.01,
              "dur": 3.99,
              "vel": 105
            }
          ]
        },
        {
          "bar_start": 96.0,
          "bar_end": 111.0,
          "name": "",
          "notes": [
            {
              "note": "F#2",
              "pitch": 54,
              "beat": 0.0,
              "dur": 4.0,
              "vel": 105
            },
            {
              "note": "F#3",
              "pitch": 66,
              "beat": 0.0,
              "dur": 4.0,
              "vel": 105
            },
            {
              "note": "A#3",
              "pitch": 70,
              "beat": 0.0,
              "dur": 4.0,
              "vel": 105
            },
            {
              "note": "C#4",
              "pitch": 73,
              "beat": 0.0,
              "dur": 4.0,
              "vel": 105
            },
            {
              "note": "F4",
              "pitch": 77,
              "beat": 0.0,
              "dur": 4.0,
              "vel": 105
            },
            {
              "note": "G#3",
              "pitch": 68,
              "beat": 3.98,
              "dur": 3.99,
              "vel": 105
            },
            {
              "note": "C#3",
              "pitch": 61,
              "beat": 4.0,
              "dur": 3.99,
              "vel": 105
            },
            {
              "note": "C#4",
              "pitch": 73,
              "beat": 4.0,
              "dur": 3.99,
              "vel": 105
            },
            {
              "note": "F4",
              "pitch": 77,
              "beat": 4.0,
              "dur": 3.99,
              "vel": 105
            },
            {
              "note": "C#2",
              "pitch": 49,
              "beat": 4.01,
              "dur": 3.99,
              "vel": 105
            },
            {
              "note": "A#1",
              "pitch": 46,
              "beat": 8.0,
              "dur": 4.0,
              "vel": 105
            },
            {
              "note": "A#2",
              "pitch": 58,
              "beat": 8.0,
              "dur": 4.0,
              "vel": 105
            },
            {
              "note": "F3",
              "pitch": 65,
              "beat": 8.0,
              "dur": 4.0,
              "vel": 105
            },
            {
              "note": "A#3",
              "pitch": 70,
              "beat": 8.0,
              "dur": 4.0,
              "vel": 105
            },
            {
              "note": "C#4",
              "pitch": 73,
              "beat": 8.0,
              "dur": 4.0,
              "vel": 105
            },
            {
              "note": "G#3",
              "pitch": 68,
              "beat": 11.98,
              "dur": 3.99,
              "vel": 105
            },
            {
              "note": "C#3",
              "pitch": 61,
              "beat": 12.0,
              "dur": 3.99,
              "vel": 105
            },
            {
              "note": "C#4",
              "pitch": 73,
              "beat": 12.0,
              "dur": 3.99,
              "vel": 105
            },
            {
              "note": "F4",
              "pitch": 77,
              "beat": 12.0,
              "dur": 3.99,
              "vel": 105
            },
            {
              "note": "C#2",
              "pitch": 49,
              "beat": 12.01,
              "dur": 3.99,
              "vel": 105
            }
          ]
        },
        {
          "bar_start": 124.0,
          "bar_end": 134.0,
          "name": "",
          "notes": [
            {
              "note": "F#2",
              "pitch": 54,
              "beat": 0.0,
              "dur": 4.0,
              "vel": 105
            },
            {
              "note": "F#3",
              "pitch": 66,
              "beat": 0.0,
              "dur": 4.0,
              "vel": 105
            },
            {
              "note": "A#3",
              "pitch": 70,
              "beat": 0.0,
              "dur": 4.0,
              "vel": 105
            },
            {
              "note": "C#4",
              "pitch": 73,
              "beat": 0.0,
              "dur": 4.0,
              "vel": 105
            },
            {
              "note": "F4",
              "pitch": 77,
              "beat": 0.0,
              "dur": 4.0,
              "vel": 105
            },
            {
              "note": "G#3",
              "pitch": 68,
              "beat": 3.98,
              "dur": 3.99,
              "vel": 105
            },
            {
              "note": "C#3",
              "pitch": 61,
              "beat": 4.0,
              "dur": 3.99,
              "vel": 105
            },
            {
              "note": "C#4",
              "pitch": 73,
              "beat": 4.0,
              "dur": 3.99,
              "vel": 105
            },
            {
              "note": "F4",
              "pitch": 77,
              "beat": 4.0,
              "dur": 3.99,
              "vel": 105
            },
            {
              "note": "C#2",
              "pitch": 49,
              "beat": 4.01,
              "dur": 3.99,
              "vel": 105
            },
            {
              "note": "A#1",
              "pitch": 46,
              "beat": 8.0,
              "dur": 4.0,
              "vel": 105
            },
            {
              "note": "A#2",
              "pitch": 58,
              "beat": 8.0,
              "dur": 4.0,
              "vel": 105
            },
            {
              "note": "F3",
              "pitch": 65,
              "beat": 8.0,
              "dur": 4.0,
              "vel": 105
            },
            {
              "note": "A#3",
              "pitch": 70,
              "beat": 8.0,
              "dur": 4.0,
              "vel": 105
            },
            {
              "note": "C#4",
              "pitch": 73,
              "beat": 8.0,
              "dur": 4.0,
              "vel": 105
            },
            {
              "note": "G#3",
              "pitch": 68,
              "beat": 11.98,
              "dur": 3.99,
              "vel": 105
            },
            {
              "note": "C#3",
              "pitch": 61,
              "beat": 12.0,
              "dur": 3.99,
              "vel": 105
            },
            {
              "note": "C#4",
              "pitch": 73,
              "beat": 12.0,
              "dur": 3.99,
              "vel": 105
            },
            {
              "note": "F4",
              "pitch": 77,
              "beat": 12.0,
              "dur": 3.99,
              "vel": 105
            },
            {
              "note": "C#2",
              "pitch": 49,
              "beat": 12.01,
              "dur": 3.99,
              "vel": 105
            }
          ]
        },
        {
          "bar_start": 136.0,
          "bar_end": 159.0,
          "name": "",
          "notes": [
            {
              "note": "F#2",
              "pitch": 54,
              "beat": 0.0,
              "dur": 4.0,
              "vel": 105
            },
            {
              "note": "F#3",
              "pitch": 66,
              "beat": 0.0,
              "dur": 4.0,
              "vel": 105
            },
            {
              "note": "A#3",
              "pitch": 70,
              "beat": 0.0,
              "dur": 4.0,
              "vel": 105
            },
            {
              "note": "C#4",
              "pitch": 73,
              "beat": 0.0,
              "dur": 4.0,
              "vel": 105
            },
            {
              "note": "F4",
              "pitch": 77,
              "beat": 0.0,
              "dur": 4.0,
              "vel": 105
            },
            {
              "note": "G#3",
              "pitch": 68,
              "beat": 3.98,
              "dur": 3.99,
              "vel": 105
            },
            {
              "note": "C#3",
              "pitch": 61,
              "beat": 4.0,
              "dur": 3.99,
              "vel": 105
            },
            {
              "note": "C#4",
              "pitch": 73,
              "beat": 4.0,
              "dur": 3.99,
              "vel": 105
            },
            {
              "note": "F4",
              "pitch": 77,
              "beat": 4.0,
              "dur": 3.99,
              "vel": 105
            },
            {
              "note": "C#2",
              "pitch": 49,
              "beat": 4.01,
              "dur": 3.99,
              "vel": 105
            },
            {
              "note": "A#1",
              "pitch": 46,
              "beat": 8.0,
              "dur": 4.0,
              "vel": 105
            },
            {
              "note": "A#2",
              "pitch": 58,
              "beat": 8.0,
              "dur": 4.0,
              "vel": 105
            },
            {
              "note": "F3",
              "pitch": 65,
              "beat": 8.0,
              "dur": 4.0,
              "vel": 105
            },
            {
              "note": "A#3",
              "pitch": 70,
              "beat": 8.0,
              "dur": 4.0,
              "vel": 105
            },
            {
              "note": "C#4",
              "pitch": 73,
              "beat": 8.0,
              "dur": 4.0,
              "vel": 105
            },
            {
              "note": "G#3",
              "pitch": 68,
              "beat": 11.98,
              "dur": 3.99,
              "vel": 105
            },
            {
              "note": "C#3",
              "pitch": 61,
              "beat": 12.0,
              "dur": 3.99,
              "vel": 105
            },
            {
              "note": "C#4",
              "pitch": 73,
              "beat": 12.0,
              "dur": 3.99,
              "vel": 105
            },
            {
              "note": "F4",
              "pitch": 77,
              "beat": 12.0,
              "dur": 3.99,
              "vel": 105
            },
            {
              "note": "C#2",
              "pitch": 49,
              "beat": 12.01,
              "dur": 3.99,
              "vel": 105
            }
          ]
        }
      ],
      "automations": [],
      "children": []
    },
    "128": {
      "id": "128",
      "name": "lead",
      "type": "MidiTrack",
      "group_id": "133",
      "devices": [
        {
          "type": "PluginDevice",
          "plugin": "Serum_x64",
          "preset": "",
          "vst_params": []
        }
      ],
      "clips": [
        {
          "bar_start": 56.0,
          "bar_end": 68.0,
          "name": "",
          "notes": [
            {
              "note": "D#3",
              "pitch": 63,
              "beat": 0.0,
              "dur": 1.0,
              "vel": 105
            },
            {
              "note": "F#5",
              "pitch": 90,
              "beat": 0.0,
              "dur": 1.0,
              "vel": 105
            },
            {
              "note": "F#6",
              "pitch": 102,
              "beat": 0.0,
              "dur": 1.0,
              "vel": 105
            },
            {
              "note": "A#6",
              "pitch": 106,
              "beat": 0.0,
              "dur": 1.0,
              "vel": 105
            },
            {
              "note": "C#7",
              "pitch": 109,
              "beat": 0.0,
              "dur": 1.0,
              "vel": 105
            },
            {
              "note": "D#3",
              "pitch": 63,
              "beat": 1.5,
              "dur": 1.0,
              "vel": 105
            },
            {
              "note": "F#5",
              "pitch": 90,
              "beat": 1.5,
              "dur": 1.0,
              "vel": 105
            },
            {
              "note": "F#6",
              "pitch": 102,
              "beat": 1.5,
              "dur": 1.0,
              "vel": 105
            },
            {
              "note": "A#6",
              "pitch": 106,
              "beat": 1.5,
              "dur": 1.0,
              "vel": 105
            },
            {
              "note": "C#7",
              "pitch": 109,
              "beat": 1.5,
              "dur": 1.0,
              "vel": 105
            },
            {
              "note": "G#6",
              "pitch": 104,
              "beat": 3.98,
              "dur": 1.0,
              "vel": 105
            },
            {
              "note": "F3",
              "pitch": 65,
              "beat": 4.0,
              "dur": 1.0,
              "vel": 105
            },
            {
              "note": "C#6",
              "pitch": 97,
              "beat": 4.0,
              "dur": 1.0,
              "vel": 105
            },
            {
              "note": "C#7",
              "pitch": 109,
              "beat": 4.0,
              "dur": 1.0,
              "vel": 105
            },
            {
              "note": "C#5",
              "pitch": 85,
              "beat": 4.01,
              "dur": 1.0,
              "vel": 105
            },
            {
              "note": "G#6",
              "pitch": 104,
              "beat": 5.48,
              "dur": 1.25,
              "vel": 105
            },
            {
              "note": "F3",
              "pitch": 65,
              "beat": 5.5,
              "dur": 1.25,
              "vel": 105
            },
            {
              "note": "C#6",
              "pitch": 97,
              "beat": 5.5,
              "dur": 1.25,
              "vel": 105
            },
            {
              "note": "C#7",
              "pitch": 109,
              "beat": 5.5,
              "dur": 1.25,
              "vel": 105
            },
            {
              "note": "C#5",
              "pitch": 85,
              "beat": 5.51,
              "dur": 1.25,
              "vel": 105
            },
            {
              "note": "F#3",
              "pitch": 66,
              "beat": 8.0,
              "dur": 1.0,
              "vel": 105
            },
            {
              "note": "A#4",
              "pitch": 82,
              "beat": 8.0,
              "dur": 1.0,
              "vel": 105
            },
            {
              "note": "A#5",
              "pitch": 94,
              "beat": 8.0,
              "dur": 1.0,
              "vel": 105
            },
            {
              "note": "F6",
              "pitch": 101,
              "beat": 8.0,
              "dur": 1.0,
              "vel": 105
            },
            {
              "note": "A#6",
              "pitch": 106,
              "beat": 8.0,
              "dur": 1.0,
              "vel": 105
            },
            {
              "note": "C#7",
              "pitch": 109,
              "beat": 8.0,
              "dur": 1.0,
              "vel": 105
            },
            {
              "note": "F#3",
              "pitch": 66,
              "beat": 9.5,
              "dur": 1.0,
              "vel": 105
            },
            {
              "note": "A#4",
              "pitch": 82,
              "beat": 9.5,
              "dur": 1.0,
              "vel": 105
            },
            {
              "note": "A#5",
              "pitch": 94,
              "beat": 9.5,
              "dur": 1.0,
              "vel": 105
            },
            {
              "note": "F6",
              "pitch": 101,
              "beat": 9.5,
              "dur": 1.0,
              "vel": 105
            },
            {
              "note": "A#6",
              "pitch": 106,
              "beat": 9.5,
              "dur": 1.0,
              "vel": 105
            },
            {
              "note": "C#7",
              "pitch": 109,
              "beat": 9.5,
              "dur": 1.0,
              "vel": 105
            },
            {
              "note": "G#6",
              "pitch": 104,
              "beat": 11.98,
              "dur": 1.0,
              "vel": 105
            },
            {
              "note": "F3",
              "pitch": 65,
              "beat": 12.0,
              "dur": 1.0,
              "vel": 105
            },
            {
              "note": "C#5",
              "pitch": 85,
              "beat": 12.0,
              "dur": 1.0,
              "vel": 105
            },
            {
              "note": "C#6",
              "pitch": 97,
              "beat": 12.0,
              "dur": 1.0,
              "vel": 105
            },
            {
              "note": "C#7",
              "pitch": 109,
              "beat": 12.0,
              "dur": 1.0,
              "vel": 105
            },
            {
              "note": "G#6",
              "pitch": 104,
              "beat": 13.48,
              "dur": 1.0,
              "vel": 105
            },
            {
              "note": "F3",
              "pitch": 65,
              "beat": 13.5,
              "dur": 1.0,
              "vel": 105
            },
            {
              "note": "C#5",
              "pitch": 85,
              "beat": 13.5,
              "dur": 1.0,
              "vel": 105
            },
            {
              "note": "C#6",
              "pitch": 97,
              "beat": 13.5,
              "dur": 1.0,
              "vel": 105
            },
            {
              "note": "C#7",
              "pitch": 109,
              "beat": 13.5,
              "dur": 1.0,
              "vel": 105
            },
            {
              "note": "G#6",
              "pitch": 104,
              "beat": 14.48,
              "dur": 1.5,
              "vel": 105
            },
            {
              "note": "F3",
              "pitch": 65,
              "beat": 14.5,
              "dur": 1.5,
              "vel": 105
            },
            {
              "note": "C#5",
              "pitch": 85,
              "beat": 14.5,
              "dur": 1.5,
              "vel": 105
            },
            {
              "note": "C#6",
              "pitch": 97,
              "beat": 14.5,
              "dur": 1.5,
              "vel": 105
            },
            {
              "note": "C#7",
              "pitch": 109,
              "beat": 14.5,
              "dur": 1.5,
              "vel": 105
            }
          ]
        },
        {
          "bar_start": 68.0,
          "bar_end": 72.0,
          "name": "",
          "notes": [
            {
              "note": "D#3",
              "pitch": 63,
              "beat": 0.0,
              "dur": 1.0,
              "vel": 105
            },
            {
              "note": "F#5",
              "pitch": 90,
              "beat": 0.0,
              "dur": 1.0,
              "vel": 105
            },
            {
              "note": "F#6",
              "pitch": 102,
              "beat": 0.0,
              "dur": 1.0,
              "vel": 105
            },
            {
              "note": "A#6",
              "pitch": 106,
              "beat": 0.0,
              "dur": 1.0,
              "vel": 105
            },
            {
              "note": "C#7",
              "pitch": 109,
              "beat": 0.0,
              "dur": 1.0,
              "vel": 105
            },
            {
              "note": "D#3",
              "pitch": 63,
              "beat": 1.5,
              "dur": 1.0,
              "vel": 105
            },
            {
              "note": "F#5",
              "pitch": 90,
              "beat": 1.5,
              "dur": 1.0,
              "vel": 105
            },
            {
              "note": "F#6",
              "pitch": 102,
              "beat": 1.5,
              "dur": 1.0,
              "vel": 105
            },
            {
              "note": "A#6",
              "pitch": 106,
              "beat": 1.5,
              "dur": 1.0,
              "vel": 105
            },
            {
              "note": "C#7",
              "pitch": 109,
              "beat": 1.5,
              "dur": 1.0,
              "vel": 105
            },
            {
              "note": "G#6",
              "pitch": 104,
              "beat": 3.98,
              "dur": 1.0,
              "vel": 105
            },
            {
              "note": "F3",
              "pitch": 65,
              "beat": 4.0,
              "dur": 1.0,
              "vel": 105
            },
            {
              "note": "C#6",
              "pitch": 97,
              "beat": 4.0,
              "dur": 1.0,
              "vel": 105
            },
            {
              "note": "C#7",
              "pitch": 109,
              "beat": 4.0,
              "dur": 1.0,
              "vel": 105
            },
            {
              "note": "C#5",
              "pitch": 85,
              "beat": 4.01,
              "dur": 1.0,
              "vel": 105
            },
            {
              "note": "G#6",
              "pitch": 104,
              "beat": 5.48,
              "dur": 1.25,
              "vel": 105
            },
            {
              "note": "F3",
              "pitch": 65,
              "beat": 5.5,
              "dur": 1.25,
              "vel": 105
            },
            {
              "note": "C#6",
              "pitch": 97,
              "beat": 5.5,
              "dur": 1.25,
              "vel": 105
            },
            {
              "note": "C#7",
              "pitch": 109,
              "beat": 5.5,
              "dur": 1.25,
              "vel": 105
            },
            {
              "note": "C#5",
              "pitch": 85,
              "beat": 5.51,
              "dur": 1.25,
              "vel": 105
            },
            {
              "note": "F#3",
              "pitch": 66,
              "beat": 8.0,
              "dur": 1.0,
              "vel": 105
            },
            {
              "note": "A#4",
              "pitch": 82,
              "beat": 8.0,
              "dur": 1.0,
              "vel": 105
            },
            {
              "note": "A#5",
              "pitch": 94,
              "beat": 8.0,
              "dur": 1.0,
              "vel": 105
            },
            {
              "note": "F6",
              "pitch": 101,
              "beat": 8.0,
              "dur": 1.0,
              "vel": 105
            },
            {
              "note": "A#6",
              "pitch": 106,
              "beat": 8.0,
              "dur": 1.0,
              "vel": 105
            },
            {
              "note": "C#7",
              "pitch": 109,
              "beat": 8.0,
              "dur": 1.0,
              "vel": 105
            },
            {
              "note": "F#3",
              "pitch": 66,
              "beat": 9.5,
              "dur": 1.0,
              "vel": 105
            },
            {
              "note": "A#4",
              "pitch": 82,
              "beat": 9.5,
              "dur": 1.0,
              "vel": 105
            },
            {
              "note": "A#5",
              "pitch": 94,
              "beat": 9.5,
              "dur": 1.0,
              "vel": 105
            },
            {
              "note": "F6",
              "pitch": 101,
              "beat": 9.5,
              "dur": 1.0,
              "vel": 105
            },
            {
              "note": "A#6",
              "pitch": 106,
              "beat": 9.5,
              "dur": 1.0,
              "vel": 105
            },
            {
              "note": "C#7",
              "pitch": 109,
              "beat": 9.5,
              "dur": 1.0,
              "vel": 105
            },
            {
              "note": "G#6",
              "pitch": 104,
              "beat": 11.98,
              "dur": 0.02,
              "vel": 105
            },
            {
              "note": "F#3",
              "pitch": 66,
              "beat": 12.0,
              "dur": 1.0,
              "vel": 105
            },
            {
              "note": "A#4",
              "pitch": 82,
              "beat": 12.0,
              "dur": 1.0,
              "vel": 105
            },
            {
              "note": "A#5",
              "pitch": 94,
              "beat": 12.0,
              "dur": 1.0,
              "vel": 105
            },
            {
              "note": "F6",
              "pitch": 101,
              "beat": 12.0,
              "dur": 1.0,
              "vel": 105
            },
            {
              "note": "A#6",
              "pitch": 106,
              "beat": 12.0,
              "dur": 1.0,
              "vel": 105
            },
            {
              "note": "C#7",
              "pitch": 109,
              "beat": 12.0,
              "dur": 1.0,
              "vel": 105
            },
            {
              "note": "F#3",
              "pitch": 66,
              "beat": 13.5,
              "dur": 1.0,
              "vel": 105
            },
            {
              "note": "A#4",
              "pitch": 82,
              "beat": 13.5,
              "dur": 1.0,
              "vel": 105
            },
            {
              "note": "A#5",
              "pitch": 94,
              "beat": 13.5,
              "dur": 1.0,
              "vel": 105
            },
            {
              "note": "F6",
              "pitch": 101,
              "beat": 13.5,
              "dur": 1.0,
              "vel": 105
            },
            {
              "note": "A#6",
              "pitch": 106,
              "beat": 13.5,
              "dur": 1.0,
              "vel": 105
            },
            {
              "note": "C#7",
              "pitch": 109,
              "beat": 13.5,
              "dur": 1.0,
              "vel": 105
            }
          ]
        },
        {
          "bar_start": 72.0,
          "bar_end": 78.0,
          "name": "",
          "notes": [
            {
              "note": "D#3",
              "pitch": 63,
              "beat": 0.0,
              "dur": 1.0,
              "vel": 105
            },
            {
              "note": "F#5",
              "pitch": 90,
              "beat": 0.0,
              "dur": 1.0,
              "vel": 105
            },
            {
              "note": "F#6",
              "pitch": 102,
              "beat": 0.0,
              "dur": 1.0,
              "vel": 105
            },
            {
              "note": "A#6",
              "pitch": 106,
              "beat": 0.0,
              "dur": 1.0,
              "vel": 105
            },
            {
              "note": "C#7",
              "pitch": 109,
              "beat": 0.0,
              "dur": 1.0,
              "vel": 105
            },
            {
              "note": "D#3",
              "pitch": 63,
              "beat": 1.5,
              "dur": 1.0,
              "vel": 105
            },
            {
              "note": "F#5",
              "pitch": 90,
              "beat": 1.5,
              "dur": 1.0,
              "vel": 105
            },
            {
              "note": "F#6",
              "pitch": 102,
              "beat": 1.5,
              "dur": 1.0,
              "vel": 105
            },
            {
              "note": "A#6",
              "pitch": 106,
              "beat": 1.5,
              "dur": 1.0,
              "vel": 105
            },
            {
              "note": "C#7",
              "pitch": 109,
              "beat": 1.5,
              "dur": 1.0,
              "vel": 105
            },
            {
              "note": "G#6",
              "pitch": 104,
              "beat": 3.98,
              "dur": 1.0,
              "vel": 105
            },
            {
              "note": "F3",
              "pitch": 65,
              "beat": 4.0,
              "dur": 1.0,
              "vel": 105
            },
            {
              "note": "C#6",
              "pitch": 97,
              "beat": 4.0,
              "dur": 1.0,
              "vel": 105
            },
            {
              "note": "C#7",
              "pitch": 109,
              "beat": 4.0,
              "dur": 1.0,
              "vel": 105
            },
            {
              "note": "C#5",
              "pitch": 85,
              "beat": 4.01,
              "dur": 1.0,
              "vel": 105
            },
            {
              "note": "G#6",
              "pitch": 104,
              "beat": 5.48,
              "dur": 1.25,
              "vel": 105
            },
            {
              "note": "F3",
              "pitch": 65,
              "beat": 5.5,
              "dur": 1.25,
              "vel": 105
            },
            {
              "note": "C#6",
              "pitch": 97,
              "beat": 5.5,
              "dur": 1.25,
              "vel": 105
            },
            {
              "note": "C#7",
              "pitch": 109,
              "beat": 5.5,
              "dur": 1.25,
              "vel": 105
            },
            {
              "note": "C#5",
              "pitch": 85,
              "beat": 5.51,
              "dur": 1.25,
              "vel": 105
            },
            {
              "note": "F#3",
              "pitch": 66,
              "beat": 8.0,
              "dur": 1.0,
              "vel": 105
            },
            {
              "note": "A#4",
              "pitch": 82,
              "beat": 8.0,
              "dur": 1.0,
              "vel": 105
            },
            {
              "note": "A#5",
              "pitch": 94,
              "beat": 8.0,
              "dur": 1.0,
              "vel": 105
            },
            {
              "note": "F6",
              "pitch": 101,
              "beat": 8.0,
              "dur": 1.0,
              "vel": 105
            },
            {
              "note": "A#6",
              "pitch": 106,
              "beat": 8.0,
              "dur": 1.0,
              "vel": 105
            },
            {
              "note": "C#7",
              "pitch": 109,
              "beat": 8.0,
              "dur": 1.0,
              "vel": 105
            },
            {
              "note": "F#3",
              "pitch": 66,
              "beat": 9.5,
              "dur": 1.0,
              "vel": 105
            },
            {
              "note": "A#4",
              "pitch": 82,
              "beat": 9.5,
              "dur": 1.0,
              "vel": 105
            },
            {
              "note": "A#5",
              "pitch": 94,
              "beat": 9.5,
              "dur": 1.0,
              "vel": 105
            },
            {
              "note": "F6",
              "pitch": 101,
              "beat": 9.5,
              "dur": 1.0,
              "vel": 105
            },
            {
              "note": "A#6",
              "pitch": 106,
              "beat": 9.5,
              "dur": 1.0,
              "vel": 105
            },
            {
              "note": "C#7",
              "pitch": 109,
              "beat": 9.5,
              "dur": 1.0,
              "vel": 105
            },
            {
              "note": "G#6",
              "pitch": 104,
              "beat": 11.98,
              "dur": 1.0,
              "vel": 105
            },
            {
              "note": "F3",
              "pitch": 65,
              "beat": 12.0,
              "dur": 1.0,
              "vel": 105
            },
            {
              "note": "C#5",
              "pitch": 85,
              "beat": 12.0,
              "dur": 1.0,
              "vel": 105
            },
            {
              "note": "C#6",
              "pitch": 97,
              "beat": 12.0,
              "dur": 1.0,
              "vel": 105
            },
            {
              "note": "C#7",
              "pitch": 109,
              "beat": 12.0,
              "dur": 1.0,
              "vel": 105
            },
            {
              "note": "G#6",
              "pitch": 104,
              "beat": 13.48,
              "dur": 1.0,
              "vel": 105
            },
            {
              "note": "F3",
              "pitch": 65,
              "beat": 13.5,
              "dur": 1.0,
              "vel": 105
            },
            {
              "note": "C#5",
              "pitch": 85,
              "beat": 13.5,
              "dur": 1.0,
              "vel": 105
            },
            {
              "note": "C#6",
              "pitch": 97,
              "beat": 13.5,
              "dur": 1.0,
              "vel": 105
            },
            {
              "note": "C#7",
              "pitch": 109,
              "beat": 13.5,
              "dur": 1.0,
              "vel": 105
            },
            {
              "note": "G#6",
              "pitch": 104,
              "beat": 14.48,
              "dur": 1.5,
              "vel": 105
            },
            {
              "note": "F3",
              "pitch": 65,
              "beat": 14.5,
              "dur": 1.5,
              "vel": 105
            },
            {
              "note": "C#5",
              "pitch": 85,
              "beat": 14.5,
              "dur": 1.5,
              "vel": 105
            },
            {
              "note": "C#6",
              "pitch": 97,
              "beat": 14.5,
              "dur": 1.5,
              "vel": 105
            },
            {
              "note": "C#7",
              "pitch": 109,
              "beat": 14.5,
              "dur": 1.5,
              "vel": 105
            }
          ]
        },
        {
          "bar_start": 80.0,
          "bar_end": 95.0,
          "name": "",
          "notes": [
            {
              "note": "D#3",
              "pitch": 63,
              "beat": 0.0,
              "dur": 1.0,
              "vel": 105
            },
            {
              "note": "F#5",
              "pitch": 90,
              "beat": 0.0,
              "dur": 1.0,
              "vel": 105
            },
            {
              "note": "F#6",
              "pitch": 102,
              "beat": 0.0,
              "dur": 1.0,
              "vel": 105
            },
            {
              "note": "A#6",
              "pitch": 106,
              "beat": 0.0,
              "dur": 1.0,
              "vel": 105
            },
            {
              "note": "C#7",
              "pitch": 109,
              "beat": 0.0,
              "dur": 1.0,
              "vel": 105
            },
            {
              "note": "D#3",
              "pitch": 63,
              "beat": 1.5,
              "dur": 1.0,
              "vel": 105
            },
            {
              "note": "F#5",
              "pitch": 90,
              "beat": 1.5,
              "dur": 1.0,
              "vel": 105
            },
            {
              "note": "F#6",
              "pitch": 102,
              "beat": 1.5,
              "dur": 1.0,
              "vel": 105
            },
            {
              "note": "A#6",
              "pitch": 106,
              "beat": 1.5,
              "dur": 1.0,
              "vel": 105
            },
            {
              "note": "C#7",
              "pitch": 109,
              "beat": 1.5,
              "dur": 1.0,
              "vel": 105
            },
            {
              "note": "G#6",
              "pitch": 104,
              "beat": 3.98,
              "dur": 1.0,
              "vel": 105
            },
            {
              "note": "F3",
              "pitch": 65,
              "beat": 4.0,
              "dur": 1.0,
              "vel": 105
            },
            {
              "note": "C#6",
              "pitch": 97,
              "beat": 4.0,
              "dur": 1.0,
              "vel": 105
            },
            {
              "note": "C#7",
              "pitch": 109,
              "beat": 4.0,
              "dur": 1.0,
              "vel": 105
            },
            {
              "note": "C#5",
              "pitch": 85,
              "beat": 4.01,
              "dur": 1.0,
              "vel": 105
            },
            {
              "note": "G#6",
              "pitch": 104,
              "beat": 5.48,
              "dur": 1.25,
              "vel": 105
            },
            {
              "note": "F3",
              "pitch": 65,
              "beat": 5.5,
              "dur": 1.25,
              "vel": 105
            },
            {
              "note": "C#6",
              "pitch": 97,
              "beat": 5.5,
              "dur": 1.25,
              "vel": 105
            },
            {
              "note": "C#7",
              "pitch": 109,
              "beat": 5.5,
              "dur": 1.25,
              "vel": 105
            },
            {
              "note": "C#5",
              "pitch": 85,
              "beat": 5.51,
              "dur": 1.25,
              "vel": 105
            },
            {
              "note": "F#3",
              "pitch": 66,
              "beat": 8.0,
              "dur": 1.0,
              "vel": 105
            },
            {
              "note": "A#4",
              "pitch": 82,
              "beat": 8.0,
              "dur": 1.0,
              "vel": 105
            },
            {
              "note": "A#5",
              "pitch": 94,
              "beat": 8.0,
              "dur": 1.0,
              "vel": 105
            },
            {
              "note": "F6",
              "pitch": 101,
              "beat": 8.0,
              "dur": 1.0,
              "vel": 105
            },
            {
              "note": "A#6",
              "pitch": 106,
              "beat": 8.0,
              "dur": 1.0,
              "vel": 105
            },
            {
              "note": "C#7",
              "pitch": 109,
              "beat": 8.0,
              "dur": 1.0,
              "vel": 105
            },
            {
              "note": "F#3",
              "pitch": 66,
              "beat": 9.5,
              "dur": 1.0,
              "vel": 105
            },
            {
              "note": "A#4",
              "pitch": 82,
              "beat": 9.5,
              "dur": 1.0,
              "vel": 105
            },
            {
              "note": "A#5",
              "pitch": 94,
              "beat": 9.5,
              "dur": 1.0,
              "vel": 105
            },
            {
              "note": "F6",
              "pitch": 101,
              "beat": 9.5,
              "dur": 1.0,
              "vel": 105
            },
            {
              "note": "A#6",
              "pitch": 106,
              "beat": 9.5,
              "dur": 1.0,
              "vel": 105
            },
            {
              "note": "C#7",
              "pitch": 109,
              "beat": 9.5,
              "dur": 1.0,
              "vel": 105
            },
            {
              "note": "G#6",
              "pitch": 104,
              "beat": 11.98,
              "dur": 1.0,
              "vel": 105
            },
            {
              "note": "F3",
              "pitch": 65,
              "beat": 12.0,
              "dur": 1.0,
              "vel": 105
            },
            {
              "note": "C#5",
              "pitch": 85,
              "beat": 12.0,
              "dur": 1.0,
              "vel": 105
            },
            {
              "note": "C#6",
              "pitch": 97,
              "beat": 12.0,
              "dur": 1.0,
              "vel": 105
            },
            {
              "note": "C#7",
              "pitch": 109,
              "beat": 12.0,
              "dur": 1.0,
              "vel": 105
            },
            {
              "note": "G#6",
              "pitch": 104,
              "beat": 13.48,
              "dur": 1.0,
              "vel": 105
            },
            {
              "note": "F3",
              "pitch": 65,
              "beat": 13.5,
              "dur": 1.0,
              "vel": 105
            },
            {
              "note": "C#5",
              "pitch": 85,
              "beat": 13.5,
              "dur": 1.0,
              "vel": 105
            },
            {
              "note": "C#6",
              "pitch": 97,
              "beat": 13.5,
              "dur": 1.0,
              "vel": 105
            },
            {
              "note": "C#7",
              "pitch": 109,
              "beat": 13.5,
              "dur": 1.0,
              "vel": 105
            },
            {
              "note": "G#6",
              "pitch": 104,
              "beat": 14.48,
              "dur": 1.5,
              "vel": 105
            },
            {
              "note": "F3",
              "pitch": 65,
              "beat": 14.5,
              "dur": 1.5,
              "vel": 105
            },
            {
              "note": "C#5",
              "pitch": 85,
              "beat": 14.5,
              "dur": 1.5,
              "vel": 105
            },
            {
              "note": "C#6",
              "pitch": 97,
              "beat": 14.5,
              "dur": 1.5,
              "vel": 105
            },
            {
              "note": "C#7",
              "pitch": 109,
              "beat": 14.5,
              "dur": 1.5,
              "vel": 105
            }
          ]
        },
        {
          "bar_start": 96.0,
          "bar_end": 111.0,
          "name": "",
          "notes": [
            {
              "note": "D#3",
              "pitch": 63,
              "beat": 0.0,
              "dur": 1.0,
              "vel": 105
            },
            {
              "note": "F#5",
              "pitch": 90,
              "beat": 0.0,
              "dur": 1.0,
              "vel": 105
            },
            {
              "note": "F#6",
              "pitch": 102,
              "beat": 0.0,
              "dur": 1.0,
              "vel": 105
            },
            {
              "note": "A#6",
              "pitch": 106,
              "beat": 0.0,
              "dur": 1.0,
              "vel": 105
            },
            {
              "note": "C#7",
              "pitch": 109,
              "beat": 0.0,
              "dur": 1.0,
              "vel": 105
            },
            {
              "note": "D#3",
              "pitch": 63,
              "beat": 1.5,
              "dur": 1.0,
              "vel": 105
            },
            {
              "note": "F#5",
              "pitch": 90,
              "beat": 1.5,
              "dur": 1.0,
              "vel": 105
            },
            {
              "note": "F#6",
              "pitch": 102,
              "beat": 1.5,
              "dur": 1.0,
              "vel": 105
            },
            {
              "note": "A#6",
              "pitch": 106,
              "beat": 1.5,
              "dur": 1.0,
              "vel": 105
            },
            {
              "note": "C#7",
              "pitch": 109,
              "beat": 1.5,
              "dur": 1.0,
              "vel": 105
            },
            {
              "note": "G#6",
              "pitch": 104,
              "beat": 3.98,
              "dur": 1.0,
              "vel": 105
            },
            {
              "note": "F3",
              "pitch": 65,
              "beat": 4.0,
              "dur": 1.0,
              "vel": 105
            },
            {
              "note": "C#6",
              "pitch": 97,
              "beat": 4.0,
              "dur": 1.0,
              "vel": 105
            },
            {
              "note": "C#7",
              "pitch": 109,
              "beat": 4.0,
              "dur": 1.0,
              "vel": 105
            },
            {
              "note": "C#5",
              "pitch": 85,
              "beat": 4.01,
              "dur": 1.0,
              "vel": 105
            },
            {
              "note": "G#6",
              "pitch": 104,
              "beat": 5.48,
              "dur": 1.25,
              "vel": 105
            },
            {
              "note": "F3",
              "pitch": 65,
              "beat": 5.5,
              "dur": 1.25,
              "vel": 105
            },
            {
              "note": "C#6",
              "pitch": 97,
              "beat": 5.5,
              "dur": 1.25,
              "vel": 105
            },
            {
              "note": "C#7",
              "pitch": 109,
              "beat": 5.5,
              "dur": 1.25,
              "vel": 105
            },
            {
              "note": "C#5",
              "pitch": 85,
              "beat": 5.51,
              "dur": 1.25,
              "vel": 105
            },
            {
              "note": "F#3",
              "pitch": 66,
              "beat": 8.0,
              "dur": 1.0,
              "vel": 105
            },
            {
              "note": "A#4",
              "pitch": 82,
              "beat": 8.0,
              "dur": 1.0,
              "vel": 105
            },
            {
              "note": "A#5",
              "pitch": 94,
              "beat": 8.0,
              "dur": 1.0,
              "vel": 105
            },
            {
              "note": "F6",
              "pitch": 101,
              "beat": 8.0,
              "dur": 1.0,
              "vel": 105
            },
            {
              "note": "A#6",
              "pitch": 106,
              "beat": 8.0,
              "dur": 1.0,
              "vel": 105
            },
            {
              "note": "C#7",
              "pitch": 109,
              "beat": 8.0,
              "dur": 1.0,
              "vel": 105
            },
            {
              "note": "F#3",
              "pitch": 66,
              "beat": 9.5,
              "dur": 1.0,
              "vel": 105
            },
            {
              "note": "A#4",
              "pitch": 82,
              "beat": 9.5,
              "dur": 1.0,
              "vel": 105
            },
            {
              "note": "A#5",
              "pitch": 94,
              "beat": 9.5,
              "dur": 1.0,
              "vel": 105
            },
            {
              "note": "F6",
              "pitch": 101,
              "beat": 9.5,
              "dur": 1.0,
              "vel": 105
            },
            {
              "note": "A#6",
              "pitch": 106,
              "beat": 9.5,
              "dur": 1.0,
              "vel": 105
            },
            {
              "note": "C#7",
              "pitch": 109,
              "beat": 9.5,
              "dur": 1.0,
              "vel": 105
            },
            {
              "note": "G#6",
              "pitch": 104,
              "beat": 11.98,
              "dur": 1.0,
              "vel": 105
            },
            {
              "note": "F3",
              "pitch": 65,
              "beat": 12.0,
              "dur": 1.0,
              "vel": 105
            },
            {
              "note": "C#5",
              "pitch": 85,
              "beat": 12.0,
              "dur": 1.0,
              "vel": 105
            },
            {
              "note": "C#6",
              "pitch": 97,
              "beat": 12.0,
              "dur": 1.0,
              "vel": 105
            },
            {
              "note": "C#7",
              "pitch": 109,
              "beat": 12.0,
              "dur": 1.0,
              "vel": 105
            },
            {
              "note": "G#6",
              "pitch": 104,
              "beat": 13.48,
              "dur": 1.0,
              "vel": 105
            },
            {
              "note": "F3",
              "pitch": 65,
              "beat": 13.5,
              "dur": 1.0,
              "vel": 105
            },
            {
              "note": "C#5",
              "pitch": 85,
              "beat": 13.5,
              "dur": 1.0,
              "vel": 105
            },
            {
              "note": "C#6",
              "pitch": 97,
              "beat": 13.5,
              "dur": 1.0,
              "vel": 105
            },
            {
              "note": "C#7",
              "pitch": 109,
              "beat": 13.5,
              "dur": 1.0,
              "vel": 105
            },
            {
              "note": "G#6",
              "pitch": 104,
              "beat": 14.48,
              "dur": 1.5,
              "vel": 105
            },
            {
              "note": "F3",
              "pitch": 65,
              "beat": 14.5,
              "dur": 1.5,
              "vel": 105
            },
            {
              "note": "C#5",
              "pitch": 85,
              "beat": 14.5,
              "dur": 1.5,
              "vel": 105
            },
            {
              "note": "C#6",
              "pitch": 97,
              "beat": 14.5,
              "dur": 1.5,
              "vel": 105
            },
            {
              "note": "C#7",
              "pitch": 109,
              "beat": 14.5,
              "dur": 1.5,
              "vel": 105
            }
          ]
        },
        {
          "bar_start": 112.0,
          "bar_end": 119.0,
          "name": "",
          "notes": [
            {
              "note": "D#3",
              "pitch": 63,
              "beat": 0.0,
              "dur": 1.0,
              "vel": 105
            },
            {
              "note": "F#5",
              "pitch": 90,
              "beat": 0.0,
              "dur": 1.0,
              "vel": 105
            },
            {
              "note": "F#6",
              "pitch": 102,
              "beat": 0.0,
              "dur": 1.0,
              "vel": 105
            },
            {
              "note": "A#6",
              "pitch": 106,
              "beat": 0.0,
              "dur": 1.0,
              "vel": 105
            },
            {
              "note": "C#7",
              "pitch": 109,
              "beat": 0.0,
              "dur": 1.0,
              "vel": 105
            },
            {
              "note": "D#3",
              "pitch": 63,
              "beat": 1.5,
              "dur": 1.0,
              "vel": 105
            },
            {
              "note": "F#5",
              "pitch": 90,
              "beat": 1.5,
              "dur": 1.0,
              "vel": 105
            },
            {
              "note": "F#6",
              "pitch": 102,
              "beat": 1.5,
              "dur": 1.0,
              "vel": 105
            },
            {
              "note": "A#6",
              "pitch": 106,
              "beat": 1.5,
              "dur": 1.0,
              "vel": 105
            },
            {
              "note": "C#7",
              "pitch": 109,
              "beat": 1.5,
              "dur": 1.0,
              "vel": 105
            },
            {
              "note": "G#6",
              "pitch": 104,
              "beat": 3.98,
              "dur": 1.0,
              "vel": 105
            },
            {
              "note": "F3",
              "pitch": 65,
              "beat": 4.0,
              "dur": 1.0,
              "vel": 105
            },
            {
              "note": "C#6",
              "pitch": 97,
              "beat": 4.0,
              "dur": 1.0,
              "vel": 105
            },
            {
              "note": "C#7",
              "pitch": 109,
              "beat": 4.0,
              "dur": 1.0,
              "vel": 105
            },
            {
              "note": "C#5",
              "pitch": 85,
              "beat": 4.01,
              "dur": 1.0,
              "vel": 105
            },
            {
              "note": "G#6",
              "pitch": 104,
              "beat": 5.48,
              "dur": 1.25,
              "vel": 105
            },
            {
              "note": "F3",
              "pitch": 65,
              "beat": 5.5,
              "dur": 1.25,
              "vel": 105
            },
            {
              "note": "C#6",
              "pitch": 97,
              "beat": 5.5,
              "dur": 1.25,
              "vel": 105
            },
            {
              "note": "C#7",
              "pitch": 109,
              "beat": 5.5,
              "dur": 1.25,
              "vel": 105
            },
            {
              "note": "C#5",
              "pitch": 85,
              "beat": 5.51,
              "dur": 1.25,
              "vel": 105
            },
            {
              "note": "F#3",
              "pitch": 66,
              "beat": 8.0,
              "dur": 1.0,
              "vel": 105
            },
            {
              "note": "A#4",
              "pitch": 82,
              "beat": 8.0,
              "dur": 1.0,
              "vel": 105
            },
            {
              "note": "A#5",
              "pitch": 94,
              "beat": 8.0,
              "dur": 1.0,
              "vel": 105
            },
            {
              "note": "F6",
              "pitch": 101,
              "beat": 8.0,
              "dur": 1.0,
              "vel": 105
            },
            {
              "note": "A#6",
              "pitch": 106,
              "beat": 8.0,
              "dur": 1.0,
              "vel": 105
            },
            {
              "note": "C#7",
              "pitch": 109,
              "beat": 8.0,
              "dur": 1.0,
              "vel": 105
            },
            {
              "note": "F#3",
              "pitch": 66,
              "beat": 9.5,
              "dur": 1.0,
              "vel": 105
            },
            {
              "note": "A#4",
              "pitch": 82,
              "beat": 9.5,
              "dur": 1.0,
              "vel": 105
            },
            {
              "note": "A#5",
              "pitch": 94,
              "beat": 9.5,
              "dur": 1.0,
              "vel": 105
            },
            {
              "note": "F6",
              "pitch": 101,
              "beat": 9.5,
              "dur": 1.0,
              "vel": 105
            },
            {
              "note": "A#6",
              "pitch": 106,
              "beat": 9.5,
              "dur": 1.0,
              "vel": 105
            },
            {
              "note": "C#7",
              "pitch": 109,
              "beat": 9.5,
              "dur": 1.0,
              "vel": 105
            },
            {
              "note": "G#6",
              "pitch": 104,
              "beat": 11.98,
              "dur": 1.0,
              "vel": 105
            },
            {
              "note": "F3",
              "pitch": 65,
              "beat": 12.0,
              "dur": 1.0,
              "vel": 105
            },
            {
              "note": "C#5",
              "pitch": 85,
              "beat": 12.0,
              "dur": 1.0,
              "vel": 105
            },
            {
              "note": "C#6",
              "pitch": 97,
              "beat": 12.0,
              "dur": 1.0,
              "vel": 105
            },
            {
              "note": "C#7",
              "pitch": 109,
              "beat": 12.0,
              "dur": 1.0,
              "vel": 105
            },
            {
              "note": "G#6",
              "pitch": 104,
              "beat": 13.48,
              "dur": 1.0,
              "vel": 105
            },
            {
              "note": "F3",
              "pitch": 65,
              "beat": 13.5,
              "dur": 1.0,
              "vel": 105
            },
            {
              "note": "C#5",
              "pitch": 85,
              "beat": 13.5,
              "dur": 1.0,
              "vel": 105
            },
            {
              "note": "C#6",
              "pitch": 97,
              "beat": 13.5,
              "dur": 1.0,
              "vel": 105
            },
            {
              "note": "C#7",
              "pitch": 109,
              "beat": 13.5,
              "dur": 1.0,
              "vel": 105
            },
            {
              "note": "G#6",
              "pitch": 104,
              "beat": 14.48,
              "dur": 1.5,
              "vel": 105
            },
            {
              "note": "F3",
              "pitch": 65,
              "beat": 14.5,
              "dur": 1.5,
              "vel": 105
            },
            {
              "note": "C#5",
              "pitch": 85,
              "beat": 14.5,
              "dur": 1.5,
              "vel": 105
            },
            {
              "note": "C#6",
              "pitch": 97,
              "beat": 14.5,
              "dur": 1.5,
              "vel": 105
            },
            {
              "note": "C#7",
              "pitch": 109,
              "beat": 14.5,
              "dur": 1.5,
              "vel": 105
            }
          ]
        },
        {
          "bar_start": 120.0,
          "bar_end": 120.25,
          "name": "",
          "notes": [
            {
              "note": "D#3",
              "pitch": 63,
              "beat": 0.0,
              "dur": 1.0,
              "vel": 105
            },
            {
              "note": "F#5",
              "pitch": 90,
              "beat": 0.0,
              "dur": 1.0,
              "vel": 105
            },
            {
              "note": "F#6",
              "pitch": 102,
              "beat": 0.0,
              "dur": 1.0,
              "vel": 105
            },
            {
              "note": "A#6",
              "pitch": 106,
              "beat": 0.0,
              "dur": 1.0,
              "vel": 105
            },
            {
              "note": "C#7",
              "pitch": 109,
              "beat": 0.0,
              "dur": 1.0,
              "vel": 105
            },
            {
              "note": "D#3",
              "pitch": 63,
              "beat": 1.5,
              "dur": 1.0,
              "vel": 105
            },
            {
              "note": "F#5",
              "pitch": 90,
              "beat": 1.5,
              "dur": 1.0,
              "vel": 105
            },
            {
              "note": "F#6",
              "pitch": 102,
              "beat": 1.5,
              "dur": 1.0,
              "vel": 105
            },
            {
              "note": "A#6",
              "pitch": 106,
              "beat": 1.5,
              "dur": 1.0,
              "vel": 105
            },
            {
              "note": "C#7",
              "pitch": 109,
              "beat": 1.5,
              "dur": 1.0,
              "vel": 105
            },
            {
              "note": "G#6",
              "pitch": 104,
              "beat": 3.98,
              "dur": 1.0,
              "vel": 105
            },
            {
              "note": "F3",
              "pitch": 65,
              "beat": 4.0,
              "dur": 1.0,
              "vel": 105
            },
            {
              "note": "C#6",
              "pitch": 97,
              "beat": 4.0,
              "dur": 1.0,
              "vel": 105
            },
            {
              "note": "C#7",
              "pitch": 109,
              "beat": 4.0,
              "dur": 1.0,
              "vel": 105
            },
            {
              "note": "C#5",
              "pitch": 85,
              "beat": 4.01,
              "dur": 1.0,
              "vel": 105
            },
            {
              "note": "G#6",
              "pitch": 104,
              "beat": 5.48,
              "dur": 1.25,
              "vel": 105
            },
            {
              "note": "F3",
              "pitch": 65,
              "beat": 5.5,
              "dur": 1.25,
              "vel": 105
            },
            {
              "note": "C#6",
              "pitch": 97,
              "beat": 5.5,
              "dur": 1.25,
              "vel": 105
            },
            {
              "note": "C#7",
              "pitch": 109,
              "beat": 5.5,
              "dur": 1.25,
              "vel": 105
            },
            {
              "note": "C#5",
              "pitch": 85,
              "beat": 5.51,
              "dur": 1.25,
              "vel": 105
            },
            {
              "note": "F#3",
              "pitch": 66,
              "beat": 8.0,
              "dur": 1.0,
              "vel": 105
            },
            {
              "note": "A#4",
              "pitch": 82,
              "beat": 8.0,
              "dur": 1.0,
              "vel": 105
            },
            {
              "note": "A#5",
              "pitch": 94,
              "beat": 8.0,
              "dur": 1.0,
              "vel": 105
            },
            {
              "note": "F6",
              "pitch": 101,
              "beat": 8.0,
              "dur": 1.0,
              "vel": 105
            },
            {
              "note": "A#6",
              "pitch": 106,
              "beat": 8.0,
              "dur": 1.0,
              "vel": 105
            },
            {
              "note": "C#7",
              "pitch": 109,
              "beat": 8.0,
              "dur": 1.0,
              "vel": 105
            },
            {
              "note": "F#3",
              "pitch": 66,
              "beat": 9.5,
              "dur": 1.0,
              "vel": 105
            },
            {
              "note": "A#4",
              "pitch": 82,
              "beat": 9.5,
              "dur": 1.0,
              "vel": 105
            },
            {
              "note": "A#5",
              "pitch": 94,
              "beat": 9.5,
              "dur": 1.0,
              "vel": 105
            },
            {
              "note": "F6",
              "pitch": 101,
              "beat": 9.5,
              "dur": 1.0,
              "vel": 105
            },
            {
              "note": "A#6",
              "pitch": 106,
              "beat": 9.5,
              "dur": 1.0,
              "vel": 105
            },
            {
              "note": "C#7",
              "pitch": 109,
              "beat": 9.5,
              "dur": 1.0,
              "vel": 105
            },
            {
              "note": "G#6",
              "pitch": 104,
              "beat": 11.98,
              "dur": 1.0,
              "vel": 105
            },
            {
              "note": "F3",
              "pitch": 65,
              "beat": 12.0,
              "dur": 1.0,
              "vel": 105
            },
            {
              "note": "C#5",
              "pitch": 85,
              "beat": 12.0,
              "dur": 1.0,
              "vel": 105
            },
            {
              "note": "C#6",
              "pitch": 97,
              "beat": 12.0,
              "dur": 1.0,
              "vel": 105
            },
            {
              "note": "C#7",
              "pitch": 109,
              "beat": 12.0,
              "dur": 1.0,
              "vel": 105
            },
            {
              "note": "G#6",
              "pitch": 104,
              "beat": 13.48,
              "dur": 1.0,
              "vel": 105
            },
            {
              "note": "F3",
              "pitch": 65,
              "beat": 13.5,
              "dur": 1.0,
              "vel": 105
            },
            {
              "note": "C#5",
              "pitch": 85,
              "beat": 13.5,
              "dur": 1.0,
              "vel": 105
            },
            {
              "note": "C#6",
              "pitch": 97,
              "beat": 13.5,
              "dur": 1.0,
              "vel": 105
            },
            {
              "note": "C#7",
              "pitch": 109,
              "beat": 13.5,
              "dur": 1.0,
              "vel": 105
            },
            {
              "note": "G#6",
              "pitch": 104,
              "beat": 14.48,
              "dur": 1.5,
              "vel": 105
            },
            {
              "note": "F3",
              "pitch": 65,
              "beat": 14.5,
              "dur": 1.5,
              "vel": 105
            },
            {
              "note": "C#5",
              "pitch": 85,
              "beat": 14.5,
              "dur": 1.5,
              "vel": 105
            },
            {
              "note": "C#6",
              "pitch": 97,
              "beat": 14.5,
              "dur": 1.5,
              "vel": 105
            },
            {
              "note": "C#7",
              "pitch": 109,
              "beat": 14.5,
              "dur": 1.5,
              "vel": 105
            }
          ]
        },
        {
          "bar_start": 121.0,
          "bar_end": 121.25,
          "name": "",
          "notes": [
            {
              "note": "D#3",
              "pitch": 63,
              "beat": 0.0,
              "dur": 1.0,
              "vel": 105
            },
            {
              "note": "F#5",
              "pitch": 90,
              "beat": 0.0,
              "dur": 1.0,
              "vel": 105
            },
            {
              "note": "F#6",
              "pitch": 102,
              "beat": 0.0,
              "dur": 1.0,
              "vel": 105
            },
            {
              "note": "A#6",
              "pitch": 106,
              "beat": 0.0,
              "dur": 1.0,
              "vel": 105
            },
            {
              "note": "C#7",
              "pitch": 109,
              "beat": 0.0,
              "dur": 1.0,
              "vel": 105
            },
            {
              "note": "D#3",
              "pitch": 63,
              "beat": 1.5,
              "dur": 1.0,
              "vel": 105
            },
            {
              "note": "F#5",
              "pitch": 90,
              "beat": 1.5,
              "dur": 1.0,
              "vel": 105
            },
            {
              "note": "F#6",
              "pitch": 102,
              "beat": 1.5,
              "dur": 1.0,
              "vel": 105
            },
            {
              "note": "A#6",
              "pitch": 106,
              "beat": 1.5,
              "dur": 1.0,
              "vel": 105
            },
            {
              "note": "C#7",
              "pitch": 109,
              "beat": 1.5,
              "dur": 1.0,
              "vel": 105
            },
            {
              "note": "G#6",
              "pitch": 104,
              "beat": 3.98,
              "dur": 1.0,
              "vel": 105
            },
            {
              "note": "F3",
              "pitch": 65,
              "beat": 4.0,
              "dur": 1.0,
              "vel": 105
            },
            {
              "note": "C#6",
              "pitch": 97,
              "beat": 4.0,
              "dur": 1.0,
              "vel": 105
            },
            {
              "note": "C#7",
              "pitch": 109,
              "beat": 4.0,
              "dur": 1.0,
              "vel": 105
            },
            {
              "note": "C#5",
              "pitch": 85,
              "beat": 4.01,
              "dur": 1.0,
              "vel": 105
            },
            {
              "note": "G#6",
              "pitch": 104,
              "beat": 5.48,
              "dur": 1.25,
              "vel": 105
            },
            {
              "note": "F3",
              "pitch": 65,
              "beat": 5.5,
              "dur": 1.25,
              "vel": 105
            },
            {
              "note": "C#6",
              "pitch": 97,
              "beat": 5.5,
              "dur": 1.25,
              "vel": 105
            },
            {
              "note": "C#7",
              "pitch": 109,
              "beat": 5.5,
              "dur": 1.25,
              "vel": 105
            },
            {
              "note": "C#5",
              "pitch": 85,
              "beat": 5.51,
              "dur": 1.25,
              "vel": 105
            },
            {
              "note": "F#3",
              "pitch": 66,
              "beat": 8.0,
              "dur": 1.0,
              "vel": 105
            },
            {
              "note": "A#4",
              "pitch": 82,
              "beat": 8.0,
              "dur": 1.0,
              "vel": 105
            },
            {
              "note": "A#5",
              "pitch": 94,
              "beat": 8.0,
              "dur": 1.0,
              "vel": 105
            },
            {
              "note": "F6",
              "pitch": 101,
              "beat": 8.0,
              "dur": 1.0,
              "vel": 105
            },
            {
              "note": "A#6",
              "pitch": 106,
              "beat": 8.0,
              "dur": 1.0,
              "vel": 105
            },
            {
              "note": "C#7",
              "pitch": 109,
              "beat": 8.0,
              "dur": 1.0,
              "vel": 105
            },
            {
              "note": "F#3",
              "pitch": 66,
              "beat": 9.5,
              "dur": 1.0,
              "vel": 105
            },
            {
              "note": "A#4",
              "pitch": 82,
              "beat": 9.5,
              "dur": 1.0,
              "vel": 105
            },
            {
              "note": "A#5",
              "pitch": 94,
              "beat": 9.5,
              "dur": 1.0,
              "vel": 105
            },
            {
              "note": "F6",
              "pitch": 101,
              "beat": 9.5,
              "dur": 1.0,
              "vel": 105
            },
            {
              "note": "A#6",
              "pitch": 106,
              "beat": 9.5,
              "dur": 1.0,
              "vel": 105
            },
            {
              "note": "C#7",
              "pitch": 109,
              "beat": 9.5,
              "dur": 1.0,
              "vel": 105
            },
            {
              "note": "G#6",
              "pitch": 104,
              "beat": 11.98,
              "dur": 1.0,
              "vel": 105
            },
            {
              "note": "F3",
              "pitch": 65,
              "beat": 12.0,
              "dur": 1.0,
              "vel": 105
            },
            {
              "note": "C#5",
              "pitch": 85,
              "beat": 12.0,
              "dur": 1.0,
              "vel": 105
            },
            {
              "note": "C#6",
              "pitch": 97,
              "beat": 12.0,
              "dur": 1.0,
              "vel": 105
            },
            {
              "note": "C#7",
              "pitch": 109,
              "beat": 12.0,
              "dur": 1.0,
              "vel": 105
            },
            {
              "note": "G#6",
              "pitch": 104,
              "beat": 13.48,
              "dur": 1.0,
              "vel": 105
            },
            {
              "note": "F3",
              "pitch": 65,
              "beat": 13.5,
              "dur": 1.0,
              "vel": 105
            },
            {
              "note": "C#5",
              "pitch": 85,
              "beat": 13.5,
              "dur": 1.0,
              "vel": 105
            },
            {
              "note": "C#6",
              "pitch": 97,
              "beat": 13.5,
              "dur": 1.0,
              "vel": 105
            },
            {
              "note": "C#7",
              "pitch": 109,
              "beat": 13.5,
              "dur": 1.0,
              "vel": 105
            },
            {
              "note": "G#6",
              "pitch": 104,
              "beat": 14.48,
              "dur": 1.5,
              "vel": 105
            },
            {
              "note": "F3",
              "pitch": 65,
              "beat": 14.5,
              "dur": 1.5,
              "vel": 105
            },
            {
              "note": "C#5",
              "pitch": 85,
              "beat": 14.5,
              "dur": 1.5,
              "vel": 105
            },
            {
              "note": "C#6",
              "pitch": 97,
              "beat": 14.5,
              "dur": 1.5,
              "vel": 105
            },
            {
              "note": "C#7",
              "pitch": 109,
              "beat": 14.5,
              "dur": 1.5,
              "vel": 105
            }
          ]
        },
        {
          "bar_start": 122.0,
          "bar_end": 122.25,
          "name": "",
          "notes": [
            {
              "note": "D#3",
              "pitch": 63,
              "beat": 0.0,
              "dur": 1.0,
              "vel": 105
            },
            {
              "note": "F#5",
              "pitch": 90,
              "beat": 0.0,
              "dur": 1.0,
              "vel": 105
            },
            {
              "note": "F#6",
              "pitch": 102,
              "beat": 0.0,
              "dur": 1.0,
              "vel": 105
            },
            {
              "note": "A#6",
              "pitch": 106,
              "beat": 0.0,
              "dur": 1.0,
              "vel": 105
            },
            {
              "note": "C#7",
              "pitch": 109,
              "beat": 0.0,
              "dur": 1.0,
              "vel": 105
            },
            {
              "note": "D#3",
              "pitch": 63,
              "beat": 1.5,
              "dur": 1.0,
              "vel": 105
            },
            {
              "note": "F#5",
              "pitch": 90,
              "beat": 1.5,
              "dur": 1.0,
              "vel": 105
            },
            {
              "note": "F#6",
              "pitch": 102,
              "beat": 1.5,
              "dur": 1.0,
              "vel": 105
            },
            {
              "note": "A#6",
              "pitch": 106,
              "beat": 1.5,
              "dur": 1.0,
              "vel": 105
            },
            {
              "note": "C#7",
              "pitch": 109,
              "beat": 1.5,
              "dur": 1.0,
              "vel": 105
            },
            {
              "note": "G#6",
              "pitch": 104,
              "beat": 3.98,
              "dur": 1.0,
              "vel": 105
            },
            {
              "note": "F3",
              "pitch": 65,
              "beat": 4.0,
              "dur": 1.0,
              "vel": 105
            },
            {
              "note": "C#6",
              "pitch": 97,
              "beat": 4.0,
              "dur": 1.0,
              "vel": 105
            },
            {
              "note": "C#7",
              "pitch": 109,
              "beat": 4.0,
              "dur": 1.0,
              "vel": 105
            },
            {
              "note": "C#5",
              "pitch": 85,
              "beat": 4.01,
              "dur": 1.0,
              "vel": 105
            },
            {
              "note": "G#6",
              "pitch": 104,
              "beat": 5.48,
              "dur": 1.25,
              "vel": 105
            },
            {
              "note": "F3",
              "pitch": 65,
              "beat": 5.5,
              "dur": 1.25,
              "vel": 105
            },
            {
              "note": "C#6",
              "pitch": 97,
              "beat": 5.5,
              "dur": 1.25,
              "vel": 105
            },
            {
              "note": "C#7",
              "pitch": 109,
              "beat": 5.5,
              "dur": 1.25,
              "vel": 105
            },
            {
              "note": "C#5",
              "pitch": 85,
              "beat": 5.51,
              "dur": 1.25,
              "vel": 105
            },
            {
              "note": "F#3",
              "pitch": 66,
              "beat": 8.0,
              "dur": 1.0,
              "vel": 105
            },
            {
              "note": "A#4",
              "pitch": 82,
              "beat": 8.0,
              "dur": 1.0,
              "vel": 105
            },
            {
              "note": "A#5",
              "pitch": 94,
              "beat": 8.0,
              "dur": 1.0,
              "vel": 105
            },
            {
              "note": "F6",
              "pitch": 101,
              "beat": 8.0,
              "dur": 1.0,
              "vel": 105
            },
            {
              "note": "A#6",
              "pitch": 106,
              "beat": 8.0,
              "dur": 1.0,
              "vel": 105
            },
            {
              "note": "C#7",
              "pitch": 109,
              "beat": 8.0,
              "dur": 1.0,
              "vel": 105
            },
            {
              "note": "F#3",
              "pitch": 66,
              "beat": 9.5,
              "dur": 1.0,
              "vel": 105
            },
            {
              "note": "A#4",
              "pitch": 82,
              "beat": 9.5,
              "dur": 1.0,
              "vel": 105
            },
            {
              "note": "A#5",
              "pitch": 94,
              "beat": 9.5,
              "dur": 1.0,
              "vel": 105
            },
            {
              "note": "F6",
              "pitch": 101,
              "beat": 9.5,
              "dur": 1.0,
              "vel": 105
            },
            {
              "note": "A#6",
              "pitch": 106,
              "beat": 9.5,
              "dur": 1.0,
              "vel": 105
            },
            {
              "note": "C#7",
              "pitch": 109,
              "beat": 9.5,
              "dur": 1.0,
              "vel": 105
            },
            {
              "note": "G#6",
              "pitch": 104,
              "beat": 11.98,
              "dur": 1.0,
              "vel": 105
            },
            {
              "note": "F3",
              "pitch": 65,
              "beat": 12.0,
              "dur": 1.0,
              "vel": 105
            },
            {
              "note": "C#5",
              "pitch": 85,
              "beat": 12.0,
              "dur": 1.0,
              "vel": 105
            },
            {
              "note": "C#6",
              "pitch": 97,
              "beat": 12.0,
              "dur": 1.0,
              "vel": 105
            },
            {
              "note": "C#7",
              "pitch": 109,
              "beat": 12.0,
              "dur": 1.0,
              "vel": 105
            },
            {
              "note": "G#6",
              "pitch": 104,
              "beat": 13.48,
              "dur": 1.0,
              "vel": 105
            },
            {
              "note": "F3",
              "pitch": 65,
              "beat": 13.5,
              "dur": 1.0,
              "vel": 105
            },
            {
              "note": "C#5",
              "pitch": 85,
              "beat": 13.5,
              "dur": 1.0,
              "vel": 105
            },
            {
              "note": "C#6",
              "pitch": 97,
              "beat": 13.5,
              "dur": 1.0,
              "vel": 105
            },
            {
              "note": "C#7",
              "pitch": 109,
              "beat": 13.5,
              "dur": 1.0,
              "vel": 105
            },
            {
              "note": "G#6",
              "pitch": 104,
              "beat": 14.48,
              "dur": 1.5,
              "vel": 105
            },
            {
              "note": "F3",
              "pitch": 65,
              "beat": 14.5,
              "dur": 1.5,
              "vel": 105
            },
            {
              "note": "C#5",
              "pitch": 85,
              "beat": 14.5,
              "dur": 1.5,
              "vel": 105
            },
            {
              "note": "C#6",
              "pitch": 97,
              "beat": 14.5,
              "dur": 1.5,
              "vel": 105
            },
            {
              "note": "C#7",
              "pitch": 109,
              "beat": 14.5,
              "dur": 1.5,
              "vel": 105
            }
          ]
        },
        {
          "bar_start": 123.0,
          "bar_end": 123.25,
          "name": "",
          "notes": [
            {
              "note": "D#3",
              "pitch": 63,
              "beat": 0.0,
              "dur": 1.0,
              "vel": 105
            },
            {
              "note": "F#5",
              "pitch": 90,
              "beat": 0.0,
              "dur": 1.0,
              "vel": 105
            },
            {
              "note": "F#6",
              "pitch": 102,
              "beat": 0.0,
              "dur": 1.0,
              "vel": 105
            },
            {
              "note": "A#6",
              "pitch": 106,
              "beat": 0.0,
              "dur": 1.0,
              "vel": 105
            },
            {
              "note": "C#7",
              "pitch": 109,
              "beat": 0.0,
              "dur": 1.0,
              "vel": 105
            },
            {
              "note": "D#3",
              "pitch": 63,
              "beat": 1.5,
              "dur": 1.0,
              "vel": 105
            },
            {
              "note": "F#5",
              "pitch": 90,
              "beat": 1.5,
              "dur": 1.0,
              "vel": 105
            },
            {
              "note": "F#6",
              "pitch": 102,
              "beat": 1.5,
              "dur": 1.0,
              "vel": 105
            },
            {
              "note": "A#6",
              "pitch": 106,
              "beat": 1.5,
              "dur": 1.0,
              "vel": 105
            },
            {
              "note": "C#7",
              "pitch": 109,
              "beat": 1.5,
              "dur": 1.0,
              "vel": 105
            },
            {
              "note": "G#6",
              "pitch": 104,
              "beat": 3.98,
              "dur": 1.0,
              "vel": 105
            },
            {
              "note": "F3",
              "pitch": 65,
              "beat": 4.0,
              "dur": 1.0,
              "vel": 105
            },
            {
              "note": "C#6",
              "pitch": 97,
              "beat": 4.0,
              "dur": 1.0,
              "vel": 105
            },
            {
              "note": "C#7",
              "pitch": 109,
              "beat": 4.0,
              "dur": 1.0,
              "vel": 105
            },
            {
              "note": "C#5",
              "pitch": 85,
              "beat": 4.01,
              "dur": 1.0,
              "vel": 105
            },
            {
              "note": "G#6",
              "pitch": 104,
              "beat": 5.48,
              "dur": 1.25,
              "vel": 105
            },
            {
              "note": "F3",
              "pitch": 65,
              "beat": 5.5,
              "dur": 1.25,
              "vel": 105
            },
            {
              "note": "C#6",
              "pitch": 97,
              "beat": 5.5,
              "dur": 1.25,
              "vel": 105
            },
            {
              "note": "C#7",
              "pitch": 109,
              "beat": 5.5,
              "dur": 1.25,
              "vel": 105
            },
            {
              "note": "C#5",
              "pitch": 85,
              "beat": 5.51,
              "dur": 1.25,
              "vel": 105
            },
            {
              "note": "F#3",
              "pitch": 66,
              "beat": 8.0,
              "dur": 1.0,
              "vel": 105
            },
            {
              "note": "A#4",
              "pitch": 82,
              "beat": 8.0,
              "dur": 1.0,
              "vel": 105
            },
            {
              "note": "A#5",
              "pitch": 94,
              "beat": 8.0,
              "dur": 1.0,
              "vel": 105
            },
            {
              "note": "F6",
              "pitch": 101,
              "beat": 8.0,
              "dur": 1.0,
              "vel": 105
            },
            {
              "note": "A#6",
              "pitch": 106,
              "beat": 8.0,
              "dur": 1.0,
              "vel": 105
            },
            {
              "note": "C#7",
              "pitch": 109,
              "beat": 8.0,
              "dur": 1.0,
              "vel": 105
            },
            {
              "note": "F#3",
              "pitch": 66,
              "beat": 9.5,
              "dur": 1.0,
              "vel": 105
            },
            {
              "note": "A#4",
              "pitch": 82,
              "beat": 9.5,
              "dur": 1.0,
              "vel": 105
            },
            {
              "note": "A#5",
              "pitch": 94,
              "beat": 9.5,
              "dur": 1.0,
              "vel": 105
            },
            {
              "note": "F6",
              "pitch": 101,
              "beat": 9.5,
              "dur": 1.0,
              "vel": 105
            },
            {
              "note": "A#6",
              "pitch": 106,
              "beat": 9.5,
              "dur": 1.0,
              "vel": 105
            },
            {
              "note": "C#7",
              "pitch": 109,
              "beat": 9.5,
              "dur": 1.0,
              "vel": 105
            },
            {
              "note": "G#6",
              "pitch": 104,
              "beat": 11.98,
              "dur": 1.0,
              "vel": 105
            },
            {
              "note": "F3",
              "pitch": 65,
              "beat": 12.0,
              "dur": 1.0,
              "vel": 105
            },
            {
              "note": "C#5",
              "pitch": 85,
              "beat": 12.0,
              "dur": 1.0,
              "vel": 105
            },
            {
              "note": "C#6",
              "pitch": 97,
              "beat": 12.0,
              "dur": 1.0,
              "vel": 105
            },
            {
              "note": "C#7",
              "pitch": 109,
              "beat": 12.0,
              "dur": 1.0,
              "vel": 105
            },
            {
              "note": "G#6",
              "pitch": 104,
              "beat": 13.48,
              "dur": 1.0,
              "vel": 105
            },
            {
              "note": "F3",
              "pitch": 65,
              "beat": 13.5,
              "dur": 1.0,
              "vel": 105
            },
            {
              "note": "C#5",
              "pitch": 85,
              "beat": 13.5,
              "dur": 1.0,
              "vel": 105
            },
            {
              "note": "C#6",
              "pitch": 97,
              "beat": 13.5,
              "dur": 1.0,
              "vel": 105
            },
            {
              "note": "C#7",
              "pitch": 109,
              "beat": 13.5,
              "dur": 1.0,
              "vel": 105
            },
            {
              "note": "G#6",
              "pitch": 104,
              "beat": 14.48,
              "dur": 1.5,
              "vel": 105
            },
            {
              "note": "F3",
              "pitch": 65,
              "beat": 14.5,
              "dur": 1.5,
              "vel": 105
            },
            {
              "note": "C#5",
              "pitch": 85,
              "beat": 14.5,
              "dur": 1.5,
              "vel": 105
            },
            {
              "note": "C#6",
              "pitch": 97,
              "beat": 14.5,
              "dur": 1.5,
              "vel": 105
            },
            {
              "note": "C#7",
              "pitch": 109,
              "beat": 14.5,
              "dur": 1.5,
              "vel": 105
            }
          ]
        },
        {
          "bar_start": 124.0,
          "bar_end": 124.25,
          "name": "",
          "notes": [
            {
              "note": "D#3",
              "pitch": 63,
              "beat": 0.0,
              "dur": 1.0,
              "vel": 105
            },
            {
              "note": "F#5",
              "pitch": 90,
              "beat": 0.0,
              "dur": 1.0,
              "vel": 105
            },
            {
              "note": "F#6",
              "pitch": 102,
              "beat": 0.0,
              "dur": 1.0,
              "vel": 105
            },
            {
              "note": "A#6",
              "pitch": 106,
              "beat": 0.0,
              "dur": 1.0,
              "vel": 105
            },
            {
              "note": "C#7",
              "pitch": 109,
              "beat": 0.0,
              "dur": 1.0,
              "vel": 105
            },
            {
              "note": "D#3",
              "pitch": 63,
              "beat": 1.5,
              "dur": 1.0,
              "vel": 105
            },
            {
              "note": "F#5",
              "pitch": 90,
              "beat": 1.5,
              "dur": 1.0,
              "vel": 105
            },
            {
              "note": "F#6",
              "pitch": 102,
              "beat": 1.5,
              "dur": 1.0,
              "vel": 105
            },
            {
              "note": "A#6",
              "pitch": 106,
              "beat": 1.5,
              "dur": 1.0,
              "vel": 105
            },
            {
              "note": "C#7",
              "pitch": 109,
              "beat": 1.5,
              "dur": 1.0,
              "vel": 105
            },
            {
              "note": "G#6",
              "pitch": 104,
              "beat": 3.98,
              "dur": 1.0,
              "vel": 105
            },
            {
              "note": "F3",
              "pitch": 65,
              "beat": 4.0,
              "dur": 1.0,
              "vel": 105
            },
            {
              "note": "C#6",
              "pitch": 97,
              "beat": 4.0,
              "dur": 1.0,
              "vel": 105
            },
            {
              "note": "C#7",
              "pitch": 109,
              "beat": 4.0,
              "dur": 1.0,
              "vel": 105
            },
            {
              "note": "C#5",
              "pitch": 85,
              "beat": 4.01,
              "dur": 1.0,
              "vel": 105
            },
            {
              "note": "G#6",
              "pitch": 104,
              "beat": 5.48,
              "dur": 1.25,
              "vel": 105
            },
            {
              "note": "F3",
              "pitch": 65,
              "beat": 5.5,
              "dur": 1.25,
              "vel": 105
            },
            {
              "note": "C#6",
              "pitch": 97,
              "beat": 5.5,
              "dur": 1.25,
              "vel": 105
            },
            {
              "note": "C#7",
              "pitch": 109,
              "beat": 5.5,
              "dur": 1.25,
              "vel": 105
            },
            {
              "note": "C#5",
              "pitch": 85,
              "beat": 5.51,
              "dur": 1.25,
              "vel": 105
            },
            {
              "note": "F#3",
              "pitch": 66,
              "beat": 8.0,
              "dur": 1.0,
              "vel": 105
            },
            {
              "note": "A#4",
              "pitch": 82,
              "beat": 8.0,
              "dur": 1.0,
              "vel": 105
            },
            {
              "note": "A#5",
              "pitch": 94,
              "beat": 8.0,
              "dur": 1.0,
              "vel": 105
            },
            {
              "note": "F6",
              "pitch": 101,
              "beat": 8.0,
              "dur": 1.0,
              "vel": 105
            },
            {
              "note": "A#6",
              "pitch": 106,
              "beat": 8.0,
              "dur": 1.0,
              "vel": 105
            },
            {
              "note": "C#7",
              "pitch": 109,
              "beat": 8.0,
              "dur": 1.0,
              "vel": 105
            },
            {
              "note": "F#3",
              "pitch": 66,
              "beat": 9.5,
              "dur": 1.0,
              "vel": 105
            },
            {
              "note": "A#4",
              "pitch": 82,
              "beat": 9.5,
              "dur": 1.0,
              "vel": 105
            },
            {
              "note": "A#5",
              "pitch": 94,
              "beat": 9.5,
              "dur": 1.0,
              "vel": 105
            },
            {
              "note": "F6",
              "pitch": 101,
              "beat": 9.5,
              "dur": 1.0,
              "vel": 105
            },
            {
              "note": "A#6",
              "pitch": 106,
              "beat": 9.5,
              "dur": 1.0,
              "vel": 105
            },
            {
              "note": "C#7",
              "pitch": 109,
              "beat": 9.5,
              "dur": 1.0,
              "vel": 105
            },
            {
              "note": "G#6",
              "pitch": 104,
              "beat": 11.98,
              "dur": 1.0,
              "vel": 105
            },
            {
              "note": "F3",
              "pitch": 65,
              "beat": 12.0,
              "dur": 1.0,
              "vel": 105
            },
            {
              "note": "C#5",
              "pitch": 85,
              "beat": 12.0,
              "dur": 1.0,
              "vel": 105
            },
            {
              "note": "C#6",
              "pitch": 97,
              "beat": 12.0,
              "dur": 1.0,
              "vel": 105
            },
            {
              "note": "C#7",
              "pitch": 109,
              "beat": 12.0,
              "dur": 1.0,
              "vel": 105
            },
            {
              "note": "G#6",
              "pitch": 104,
              "beat": 13.48,
              "dur": 1.0,
              "vel": 105
            },
            {
              "note": "F3",
              "pitch": 65,
              "beat": 13.5,
              "dur": 1.0,
              "vel": 105
            },
            {
              "note": "C#5",
              "pitch": 85,
              "beat": 13.5,
              "dur": 1.0,
              "vel": 105
            },
            {
              "note": "C#6",
              "pitch": 97,
              "beat": 13.5,
              "dur": 1.0,
              "vel": 105
            },
            {
              "note": "C#7",
              "pitch": 109,
              "beat": 13.5,
              "dur": 1.0,
              "vel": 105
            },
            {
              "note": "G#6",
              "pitch": 104,
              "beat": 14.48,
              "dur": 1.5,
              "vel": 105
            },
            {
              "note": "F3",
              "pitch": 65,
              "beat": 14.5,
              "dur": 1.5,
              "vel": 105
            },
            {
              "note": "C#5",
              "pitch": 85,
              "beat": 14.5,
              "dur": 1.5,
              "vel": 105
            },
            {
              "note": "C#6",
              "pitch": 97,
              "beat": 14.5,
              "dur": 1.5,
              "vel": 105
            },
            {
              "note": "C#7",
              "pitch": 109,
              "beat": 14.5,
              "dur": 1.5,
              "vel": 105
            }
          ]
        },
        {
          "bar_start": 125.0,
          "bar_end": 125.25,
          "name": "",
          "notes": [
            {
              "note": "D#3",
              "pitch": 63,
              "beat": 0.0,
              "dur": 1.0,
              "vel": 105
            },
            {
              "note": "F#5",
              "pitch": 90,
              "beat": 0.0,
              "dur": 1.0,
              "vel": 105
            },
            {
              "note": "F#6",
              "pitch": 102,
              "beat": 0.0,
              "dur": 1.0,
              "vel": 105
            },
            {
              "note": "A#6",
              "pitch": 106,
              "beat": 0.0,
              "dur": 1.0,
              "vel": 105
            },
            {
              "note": "C#7",
              "pitch": 109,
              "beat": 0.0,
              "dur": 1.0,
              "vel": 105
            },
            {
              "note": "D#3",
              "pitch": 63,
              "beat": 1.5,
              "dur": 1.0,
              "vel": 105
            },
            {
              "note": "F#5",
              "pitch": 90,
              "beat": 1.5,
              "dur": 1.0,
              "vel": 105
            },
            {
              "note": "F#6",
              "pitch": 102,
              "beat": 1.5,
              "dur": 1.0,
              "vel": 105
            },
            {
              "note": "A#6",
              "pitch": 106,
              "beat": 1.5,
              "dur": 1.0,
              "vel": 105
            },
            {
              "note": "C#7",
              "pitch": 109,
              "beat": 1.5,
              "dur": 1.0,
              "vel": 105
            },
            {
              "note": "G#6",
              "pitch": 104,
              "beat": 3.98,
              "dur": 1.0,
              "vel": 105
            },
            {
              "note": "F3",
              "pitch": 65,
              "beat": 4.0,
              "dur": 1.0,
              "vel": 105
            },
            {
              "note": "C#6",
              "pitch": 97,
              "beat": 4.0,
              "dur": 1.0,
              "vel": 105
            },
            {
              "note": "C#7",
              "pitch": 109,
              "beat": 4.0,
              "dur": 1.0,
              "vel": 105
            },
            {
              "note": "C#5",
              "pitch": 85,
              "beat": 4.01,
              "dur": 1.0,
              "vel": 105
            },
            {
              "note": "G#6",
              "pitch": 104,
              "beat": 5.48,
              "dur": 1.25,
              "vel": 105
            },
            {
              "note": "F3",
              "pitch": 65,
              "beat": 5.5,
              "dur": 1.25,
              "vel": 105
            },
            {
              "note": "C#6",
              "pitch": 97,
              "beat": 5.5,
              "dur": 1.25,
              "vel": 105
            },
            {
              "note": "C#7",
              "pitch": 109,
              "beat": 5.5,
              "dur": 1.25,
              "vel": 105
            },
            {
              "note": "C#5",
              "pitch": 85,
              "beat": 5.51,
              "dur": 1.25,
              "vel": 105
            },
            {
              "note": "F#3",
              "pitch": 66,
              "beat": 8.0,
              "dur": 1.0,
              "vel": 105
            },
            {
              "note": "A#4",
              "pitch": 82,
              "beat": 8.0,
              "dur": 1.0,
              "vel": 105
            },
            {
              "note": "A#5",
              "pitch": 94,
              "beat": 8.0,
              "dur": 1.0,
              "vel": 105
            },
            {
              "note": "F6",
              "pitch": 101,
              "beat": 8.0,
              "dur": 1.0,
              "vel": 105
            },
            {
              "note": "A#6",
              "pitch": 106,
              "beat": 8.0,
              "dur": 1.0,
              "vel": 105
            },
            {
              "note": "C#7",
              "pitch": 109,
              "beat": 8.0,
              "dur": 1.0,
              "vel": 105
            },
            {
              "note": "F#3",
              "pitch": 66,
              "beat": 9.5,
              "dur": 1.0,
              "vel": 105
            },
            {
              "note": "A#4",
              "pitch": 82,
              "beat": 9.5,
              "dur": 1.0,
              "vel": 105
            },
            {
              "note": "A#5",
              "pitch": 94,
              "beat": 9.5,
              "dur": 1.0,
              "vel": 105
            },
            {
              "note": "F6",
              "pitch": 101,
              "beat": 9.5,
              "dur": 1.0,
              "vel": 105
            },
            {
              "note": "A#6",
              "pitch": 106,
              "beat": 9.5,
              "dur": 1.0,
              "vel": 105
            },
            {
              "note": "C#7",
              "pitch": 109,
              "beat": 9.5,
              "dur": 1.0,
              "vel": 105
            },
            {
              "note": "G#6",
              "pitch": 104,
              "beat": 11.98,
              "dur": 1.0,
              "vel": 105
            },
            {
              "note": "F3",
              "pitch": 65,
              "beat": 12.0,
              "dur": 1.0,
              "vel": 105
            },
            {
              "note": "C#5",
              "pitch": 85,
              "beat": 12.0,
              "dur": 1.0,
              "vel": 105
            },
            {
              "note": "C#6",
              "pitch": 97,
              "beat": 12.0,
              "dur": 1.0,
              "vel": 105
            },
            {
              "note": "C#7",
              "pitch": 109,
              "beat": 12.0,
              "dur": 1.0,
              "vel": 105
            },
            {
              "note": "G#6",
              "pitch": 104,
              "beat": 13.48,
              "dur": 1.0,
              "vel": 105
            },
            {
              "note": "F3",
              "pitch": 65,
              "beat": 13.5,
              "dur": 1.0,
              "vel": 105
            },
            {
              "note": "C#5",
              "pitch": 85,
              "beat": 13.5,
              "dur": 1.0,
              "vel": 105
            },
            {
              "note": "C#6",
              "pitch": 97,
              "beat": 13.5,
              "dur": 1.0,
              "vel": 105
            },
            {
              "note": "C#7",
              "pitch": 109,
              "beat": 13.5,
              "dur": 1.0,
              "vel": 105
            },
            {
              "note": "G#6",
              "pitch": 104,
              "beat": 14.48,
              "dur": 1.5,
              "vel": 105
            },
            {
              "note": "F3",
              "pitch": 65,
              "beat": 14.5,
              "dur": 1.5,
              "vel": 105
            },
            {
              "note": "C#5",
              "pitch": 85,
              "beat": 14.5,
              "dur": 1.5,
              "vel": 105
            },
            {
              "note": "C#6",
              "pitch": 97,
              "beat": 14.5,
              "dur": 1.5,
              "vel": 105
            },
            {
              "note": "C#7",
              "pitch": 109,
              "beat": 14.5,
              "dur": 1.5,
              "vel": 105
            }
          ]
        },
        {
          "bar_start": 126.0,
          "bar_end": 126.25,
          "name": "",
          "notes": [
            {
              "note": "D#3",
              "pitch": 63,
              "beat": 0.0,
              "dur": 1.0,
              "vel": 105
            },
            {
              "note": "F#5",
              "pitch": 90,
              "beat": 0.0,
              "dur": 1.0,
              "vel": 105
            },
            {
              "note": "F#6",
              "pitch": 102,
              "beat": 0.0,
              "dur": 1.0,
              "vel": 105
            },
            {
              "note": "A#6",
              "pitch": 106,
              "beat": 0.0,
              "dur": 1.0,
              "vel": 105
            },
            {
              "note": "C#7",
              "pitch": 109,
              "beat": 0.0,
              "dur": 1.0,
              "vel": 105
            },
            {
              "note": "D#3",
              "pitch": 63,
              "beat": 1.5,
              "dur": 1.0,
              "vel": 105
            },
            {
              "note": "F#5",
              "pitch": 90,
              "beat": 1.5,
              "dur": 1.0,
              "vel": 105
            },
            {
              "note": "F#6",
              "pitch": 102,
              "beat": 1.5,
              "dur": 1.0,
              "vel": 105
            },
            {
              "note": "A#6",
              "pitch": 106,
              "beat": 1.5,
              "dur": 1.0,
              "vel": 105
            },
            {
              "note": "C#7",
              "pitch": 109,
              "beat": 1.5,
              "dur": 1.0,
              "vel": 105
            },
            {
              "note": "G#6",
              "pitch": 104,
              "beat": 3.98,
              "dur": 1.0,
              "vel": 105
            },
            {
              "note": "F3",
              "pitch": 65,
              "beat": 4.0,
              "dur": 1.0,
              "vel": 105
            },
            {
              "note": "C#6",
              "pitch": 97,
              "beat": 4.0,
              "dur": 1.0,
              "vel": 105
            },
            {
              "note": "C#7",
              "pitch": 109,
              "beat": 4.0,
              "dur": 1.0,
              "vel": 105
            },
            {
              "note": "C#5",
              "pitch": 85,
              "beat": 4.01,
              "dur": 1.0,
              "vel": 105
            },
            {
              "note": "G#6",
              "pitch": 104,
              "beat": 5.48,
              "dur": 1.25,
              "vel": 105
            },
            {
              "note": "F3",
              "pitch": 65,
              "beat": 5.5,
              "dur": 1.25,
              "vel": 105
            },
            {
              "note": "C#6",
              "pitch": 97,
              "beat": 5.5,
              "dur": 1.25,
              "vel": 105
            },
            {
              "note": "C#7",
              "pitch": 109,
              "beat": 5.5,
              "dur": 1.25,
              "vel": 105
            },
            {
              "note": "C#5",
              "pitch": 85,
              "beat": 5.51,
              "dur": 1.25,
              "vel": 105
            },
            {
              "note": "F#3",
              "pitch": 66,
              "beat": 8.0,
              "dur": 1.0,
              "vel": 105
            },
            {
              "note": "A#4",
              "pitch": 82,
              "beat": 8.0,
              "dur": 1.0,
              "vel": 105
            },
            {
              "note": "A#5",
              "pitch": 94,
              "beat": 8.0,
              "dur": 1.0,
              "vel": 105
            },
            {
              "note": "F6",
              "pitch": 101,
              "beat": 8.0,
              "dur": 1.0,
              "vel": 105
            },
            {
              "note": "A#6",
              "pitch": 106,
              "beat": 8.0,
              "dur": 1.0,
              "vel": 105
            },
            {
              "note": "C#7",
              "pitch": 109,
              "beat": 8.0,
              "dur": 1.0,
              "vel": 105
            },
            {
              "note": "F#3",
              "pitch": 66,
              "beat": 9.5,
              "dur": 1.0,
              "vel": 105
            },
            {
              "note": "A#4",
              "pitch": 82,
              "beat": 9.5,
              "dur": 1.0,
              "vel": 105
            },
            {
              "note": "A#5",
              "pitch": 94,
              "beat": 9.5,
              "dur": 1.0,
              "vel": 105
            },
            {
              "note": "F6",
              "pitch": 101,
              "beat": 9.5,
              "dur": 1.0,
              "vel": 105
            },
            {
              "note": "A#6",
              "pitch": 106,
              "beat": 9.5,
              "dur": 1.0,
              "vel": 105
            },
            {
              "note": "C#7",
              "pitch": 109,
              "beat": 9.5,
              "dur": 1.0,
              "vel": 105
            },
            {
              "note": "G#6",
              "pitch": 104,
              "beat": 11.98,
              "dur": 1.0,
              "vel": 105
            },
            {
              "note": "F3",
              "pitch": 65,
              "beat": 12.0,
              "dur": 1.0,
              "vel": 105
            },
            {
              "note": "C#5",
              "pitch": 85,
              "beat": 12.0,
              "dur": 1.0,
              "vel": 105
            },
            {
              "note": "C#6",
              "pitch": 97,
              "beat": 12.0,
              "dur": 1.0,
              "vel": 105
            },
            {
              "note": "C#7",
              "pitch": 109,
              "beat": 12.0,
              "dur": 1.0,
              "vel": 105
            },
            {
              "note": "G#6",
              "pitch": 104,
              "beat": 13.48,
              "dur": 1.0,
              "vel": 105
            },
            {
              "note": "F3",
              "pitch": 65,
              "beat": 13.5,
              "dur": 1.0,
              "vel": 105
            },
            {
              "note": "C#5",
              "pitch": 85,
              "beat": 13.5,
              "dur": 1.0,
              "vel": 105
            },
            {
              "note": "C#6",
              "pitch": 97,
              "beat": 13.5,
              "dur": 1.0,
              "vel": 105
            },
            {
              "note": "C#7",
              "pitch": 109,
              "beat": 13.5,
              "dur": 1.0,
              "vel": 105
            },
            {
              "note": "G#6",
              "pitch": 104,
              "beat": 14.48,
              "dur": 1.5,
              "vel": 105
            },
            {
              "note": "F3",
              "pitch": 65,
              "beat": 14.5,
              "dur": 1.5,
              "vel": 105
            },
            {
              "note": "C#5",
              "pitch": 85,
              "beat": 14.5,
              "dur": 1.5,
              "vel": 105
            },
            {
              "note": "C#6",
              "pitch": 97,
              "beat": 14.5,
              "dur": 1.5,
              "vel": 105
            },
            {
              "note": "C#7",
              "pitch": 109,
              "beat": 14.5,
              "dur": 1.5,
              "vel": 105
            }
          ]
        },
        {
          "bar_start": 127.0,
          "bar_end": 127.25,
          "name": "",
          "notes": [
            {
              "note": "D#3",
              "pitch": 63,
              "beat": 0.0,
              "dur": 1.0,
              "vel": 105
            },
            {
              "note": "F#5",
              "pitch": 90,
              "beat": 0.0,
              "dur": 1.0,
              "vel": 105
            },
            {
              "note": "F#6",
              "pitch": 102,
              "beat": 0.0,
              "dur": 1.0,
              "vel": 105
            },
            {
              "note": "A#6",
              "pitch": 106,
              "beat": 0.0,
              "dur": 1.0,
              "vel": 105
            },
            {
              "note": "C#7",
              "pitch": 109,
              "beat": 0.0,
              "dur": 1.0,
              "vel": 105
            },
            {
              "note": "D#3",
              "pitch": 63,
              "beat": 1.5,
              "dur": 1.0,
              "vel": 105
            },
            {
              "note": "F#5",
              "pitch": 90,
              "beat": 1.5,
              "dur": 1.0,
              "vel": 105
            },
            {
              "note": "F#6",
              "pitch": 102,
              "beat": 1.5,
              "dur": 1.0,
              "vel": 105
            },
            {
              "note": "A#6",
              "pitch": 106,
              "beat": 1.5,
              "dur": 1.0,
              "vel": 105
            },
            {
              "note": "C#7",
              "pitch": 109,
              "beat": 1.5,
              "dur": 1.0,
              "vel": 105
            },
            {
              "note": "G#6",
              "pitch": 104,
              "beat": 3.98,
              "dur": 1.0,
              "vel": 105
            },
            {
              "note": "F3",
              "pitch": 65,
              "beat": 4.0,
              "dur": 1.0,
              "vel": 105
            },
            {
              "note": "C#6",
              "pitch": 97,
              "beat": 4.0,
              "dur": 1.0,
              "vel": 105
            },
            {
              "note": "C#7",
              "pitch": 109,
              "beat": 4.0,
              "dur": 1.0,
              "vel": 105
            },
            {
              "note": "C#5",
              "pitch": 85,
              "beat": 4.01,
              "dur": 1.0,
              "vel": 105
            },
            {
              "note": "G#6",
              "pitch": 104,
              "beat": 5.48,
              "dur": 1.25,
              "vel": 105
            },
            {
              "note": "F3",
              "pitch": 65,
              "beat": 5.5,
              "dur": 1.25,
              "vel": 105
            },
            {
              "note": "C#6",
              "pitch": 97,
              "beat": 5.5,
              "dur": 1.25,
              "vel": 105
            },
            {
              "note": "C#7",
              "pitch": 109,
              "beat": 5.5,
              "dur": 1.25,
              "vel": 105
            },
            {
              "note": "C#5",
              "pitch": 85,
              "beat": 5.51,
              "dur": 1.25,
              "vel": 105
            },
            {
              "note": "F#3",
              "pitch": 66,
              "beat": 8.0,
              "dur": 1.0,
              "vel": 105
            },
            {
              "note": "A#4",
              "pitch": 82,
              "beat": 8.0,
              "dur": 1.0,
              "vel": 105
            },
            {
              "note": "A#5",
              "pitch": 94,
              "beat": 8.0,
              "dur": 1.0,
              "vel": 105
            },
            {
              "note": "F6",
              "pitch": 101,
              "beat": 8.0,
              "dur": 1.0,
              "vel": 105
            },
            {
              "note": "A#6",
              "pitch": 106,
              "beat": 8.0,
              "dur": 1.0,
              "vel": 105
            },
            {
              "note": "C#7",
              "pitch": 109,
              "beat": 8.0,
              "dur": 1.0,
              "vel": 105
            },
            {
              "note": "F#3",
              "pitch": 66,
              "beat": 9.5,
              "dur": 1.0,
              "vel": 105
            },
            {
              "note": "A#4",
              "pitch": 82,
              "beat": 9.5,
              "dur": 1.0,
              "vel": 105
            },
            {
              "note": "A#5",
              "pitch": 94,
              "beat": 9.5,
              "dur": 1.0,
              "vel": 105
            },
            {
              "note": "F6",
              "pitch": 101,
              "beat": 9.5,
              "dur": 1.0,
              "vel": 105
            },
            {
              "note": "A#6",
              "pitch": 106,
              "beat": 9.5,
              "dur": 1.0,
              "vel": 105
            },
            {
              "note": "C#7",
              "pitch": 109,
              "beat": 9.5,
              "dur": 1.0,
              "vel": 105
            },
            {
              "note": "G#6",
              "pitch": 104,
              "beat": 11.98,
              "dur": 1.0,
              "vel": 105
            },
            {
              "note": "F3",
              "pitch": 65,
              "beat": 12.0,
              "dur": 1.0,
              "vel": 105
            },
            {
              "note": "C#5",
              "pitch": 85,
              "beat": 12.0,
              "dur": 1.0,
              "vel": 105
            },
            {
              "note": "C#6",
              "pitch": 97,
              "beat": 12.0,
              "dur": 1.0,
              "vel": 105
            },
            {
              "note": "C#7",
              "pitch": 109,
              "beat": 12.0,
              "dur": 1.0,
              "vel": 105
            },
            {
              "note": "G#6",
              "pitch": 104,
              "beat": 13.48,
              "dur": 1.0,
              "vel": 105
            },
            {
              "note": "F3",
              "pitch": 65,
              "beat": 13.5,
              "dur": 1.0,
              "vel": 105
            },
            {
              "note": "C#5",
              "pitch": 85,
              "beat": 13.5,
              "dur": 1.0,
              "vel": 105
            },
            {
              "note": "C#6",
              "pitch": 97,
              "beat": 13.5,
              "dur": 1.0,
              "vel": 105
            },
            {
              "note": "C#7",
              "pitch": 109,
              "beat": 13.5,
              "dur": 1.0,
              "vel": 105
            },
            {
              "note": "G#6",
              "pitch": 104,
              "beat": 14.48,
              "dur": 1.5,
              "vel": 105
            },
            {
              "note": "F3",
              "pitch": 65,
              "beat": 14.5,
              "dur": 1.5,
              "vel": 105
            },
            {
              "note": "C#5",
              "pitch": 85,
              "beat": 14.5,
              "dur": 1.5,
              "vel": 105
            },
            {
              "note": "C#6",
              "pitch": 97,
              "beat": 14.5,
              "dur": 1.5,
              "vel": 105
            },
            {
              "note": "C#7",
              "pitch": 109,
              "beat": 14.5,
              "dur": 1.5,
              "vel": 105
            }
          ]
        },
        {
          "bar_start": 136.0,
          "bar_end": 159.0,
          "name": "",
          "notes": [
            {
              "note": "D#3",
              "pitch": 63,
              "beat": 0.0,
              "dur": 1.0,
              "vel": 105
            },
            {
              "note": "F#5",
              "pitch": 90,
              "beat": 0.0,
              "dur": 1.0,
              "vel": 105
            },
            {
              "note": "F#6",
              "pitch": 102,
              "beat": 0.0,
              "dur": 1.0,
              "vel": 105
            },
            {
              "note": "A#6",
              "pitch": 106,
              "beat": 0.0,
              "dur": 1.0,
              "vel": 105
            },
            {
              "note": "C#7",
              "pitch": 109,
              "beat": 0.0,
              "dur": 1.0,
              "vel": 105
            },
            {
              "note": "D#3",
              "pitch": 63,
              "beat": 1.5,
              "dur": 1.0,
              "vel": 105
            },
            {
              "note": "F#5",
              "pitch": 90,
              "beat": 1.5,
              "dur": 1.0,
              "vel": 105
            },
            {
              "note": "F#6",
              "pitch": 102,
              "beat": 1.5,
              "dur": 1.0,
              "vel": 105
            },
            {
              "note": "A#6",
              "pitch": 106,
              "beat": 1.5,
              "dur": 1.0,
              "vel": 105
            },
            {
              "note": "C#7",
              "pitch": 109,
              "beat": 1.5,
              "dur": 1.0,
              "vel": 105
            },
            {
              "note": "G#6",
              "pitch": 104,
              "beat": 3.98,
              "dur": 1.0,
              "vel": 105
            },
            {
              "note": "F3",
              "pitch": 65,
              "beat": 4.0,
              "dur": 1.0,
              "vel": 105
            },
            {
              "note": "C#6",
              "pitch": 97,
              "beat": 4.0,
              "dur": 1.0,
              "vel": 105
            },
            {
              "note": "C#7",
              "pitch": 109,
              "beat": 4.0,
              "dur": 1.0,
              "vel": 105
            },
            {
              "note": "C#5",
              "pitch": 85,
              "beat": 4.01,
              "dur": 1.0,
              "vel": 105
            },
            {
              "note": "G#6",
              "pitch": 104,
              "beat": 5.48,
              "dur": 1.25,
              "vel": 105
            },
            {
              "note": "F3",
              "pitch": 65,
              "beat": 5.5,
              "dur": 1.25,
              "vel": 105
            },
            {
              "note": "C#6",
              "pitch": 97,
              "beat": 5.5,
              "dur": 1.25,
              "vel": 105
            },
            {
              "note": "C#7",
              "pitch": 109,
              "beat": 5.5,
              "dur": 1.25,
              "vel": 105
            },
            {
              "note": "C#5",
              "pitch": 85,
              "beat": 5.51,
              "dur": 1.25,
              "vel": 105
            },
            {
              "note": "F#3",
              "pitch": 66,
              "beat": 8.0,
              "dur": 1.0,
              "vel": 105
            },
            {
              "note": "A#4",
              "pitch": 82,
              "beat": 8.0,
              "dur": 1.0,
              "vel": 105
            },
            {
              "note": "A#5",
              "pitch": 94,
              "beat": 8.0,
              "dur": 1.0,
              "vel": 105
            },
            {
              "note": "F6",
              "pitch": 101,
              "beat": 8.0,
              "dur": 1.0,
              "vel": 105
            },
            {
              "note": "A#6",
              "pitch": 106,
              "beat": 8.0,
              "dur": 1.0,
              "vel": 105
            },
            {
              "note": "C#7",
              "pitch": 109,
              "beat": 8.0,
              "dur": 1.0,
              "vel": 105
            },
            {
              "note": "F#3",
              "pitch": 66,
              "beat": 9.5,
              "dur": 1.0,
              "vel": 105
            },
            {
              "note": "A#4",
              "pitch": 82,
              "beat": 9.5,
              "dur": 1.0,
              "vel": 105
            },
            {
              "note": "A#5",
              "pitch": 94,
              "beat": 9.5,
              "dur": 1.0,
              "vel": 105
            },
            {
              "note": "F6",
              "pitch": 101,
              "beat": 9.5,
              "dur": 1.0,
              "vel": 105
            },
            {
              "note": "A#6",
              "pitch": 106,
              "beat": 9.5,
              "dur": 1.0,
              "vel": 105
            },
            {
              "note": "C#7",
              "pitch": 109,
              "beat": 9.5,
              "dur": 1.0,
              "vel": 105
            },
            {
              "note": "G#6",
              "pitch": 104,
              "beat": 11.98,
              "dur": 1.0,
              "vel": 105
            },
            {
              "note": "F3",
              "pitch": 65,
              "beat": 12.0,
              "dur": 1.0,
              "vel": 105
            },
            {
              "note": "C#5",
              "pitch": 85,
              "beat": 12.0,
              "dur": 1.0,
              "vel": 105
            },
            {
              "note": "C#6",
              "pitch": 97,
              "beat": 12.0,
              "dur": 1.0,
              "vel": 105
            },
            {
              "note": "C#7",
              "pitch": 109,
              "beat": 12.0,
              "dur": 1.0,
              "vel": 105
            },
            {
              "note": "G#6",
              "pitch": 104,
              "beat": 13.48,
              "dur": 1.0,
              "vel": 105
            },
            {
              "note": "F3",
              "pitch": 65,
              "beat": 13.5,
              "dur": 1.0,
              "vel": 105
            },
            {
              "note": "C#5",
              "pitch": 85,
              "beat": 13.5,
              "dur": 1.0,
              "vel": 105
            },
            {
              "note": "C#6",
              "pitch": 97,
              "beat": 13.5,
              "dur": 1.0,
              "vel": 105
            },
            {
              "note": "C#7",
              "pitch": 109,
              "beat": 13.5,
              "dur": 1.0,
              "vel": 105
            },
            {
              "note": "G#6",
              "pitch": 104,
              "beat": 14.48,
              "dur": 1.5,
              "vel": 105
            },
            {
              "note": "F3",
              "pitch": 65,
              "beat": 14.5,
              "dur": 1.5,
              "vel": 105
            },
            {
              "note": "C#5",
              "pitch": 85,
              "beat": 14.5,
              "dur": 1.5,
              "vel": 105
            },
            {
              "note": "C#6",
              "pitch": 97,
              "beat": 14.5,
              "dur": 1.5,
              "vel": 105
            },
            {
              "note": "C#7",
              "pitch": 109,
              "beat": 14.5,
              "dur": 1.5,
              "vel": 105
            }
          ]
        }
      ],
      "automations": [],
      "children": []
    },
    "129": {
      "id": "129",
      "name": "lead 2",
      "type": "MidiTrack",
      "group_id": "133",
      "devices": [
        {
          "type": "PluginDevice",
          "plugin": "Serum_x64",
          "preset": "",
          "vst_params": []
        },
        {
          "type": "Amp",
          "On": "true",
          "AmpType": "2",
          "Bass": "4.52380943",
          "Middle": "5",
          "Treble": "5",
          "Presence": "4.3650794",
          "Gain": "5",
          "Volume": "9",
          "DualMono": "false",
          "DryWet": "0.3888888955"
        },
        {
          "type": "StereoGain",
          "On": "true",
          "PhaseInvertL": "false",
          "PhaseInvertR": "false",
          "ChannelMode": "1",
          "StereoWidth": "0",
          "MidSideBalance": "1",
          "Mono": "false",
          "BassMono": "false",
          "BassMonoFrequency": "120",
          "Balance": "0",
          "Gain": "1",
          "LegacyGain": "0",
          "Mute": "false",
          "DcFilter": "false"
        }
      ],
      "clips": [
        {
          "bar_start": 56.0,
          "bar_end": 68.0,
          "name": "",
          "notes": [
            {
              "note": "D#3",
              "pitch": 63,
              "beat": 0.0,
              "dur": 1.0,
              "vel": 105
            },
            {
              "note": "F#5",
              "pitch": 90,
              "beat": 0.0,
              "dur": 1.0,
              "vel": 105
            },
            {
              "note": "F#6",
              "pitch": 102,
              "beat": 0.0,
              "dur": 1.0,
              "vel": 105
            },
            {
              "note": "A#6",
              "pitch": 106,
              "beat": 0.0,
              "dur": 1.0,
              "vel": 105
            },
            {
              "note": "C#7",
              "pitch": 109,
              "beat": 0.0,
              "dur": 1.0,
              "vel": 105
            },
            {
              "note": "D#3",
              "pitch": 63,
              "beat": 1.5,
              "dur": 1.0,
              "vel": 105
            },
            {
              "note": "F#5",
              "pitch": 90,
              "beat": 1.5,
              "dur": 1.0,
              "vel": 105
            },
            {
              "note": "F#6",
              "pitch": 102,
              "beat": 1.5,
              "dur": 1.0,
              "vel": 105
            },
            {
              "note": "A#6",
              "pitch": 106,
              "beat": 1.5,
              "dur": 1.0,
              "vel": 105
            },
            {
              "note": "C#7",
              "pitch": 109,
              "beat": 1.5,
              "dur": 1.0,
              "vel": 105
            },
            {
              "note": "G#6",
              "pitch": 104,
              "beat": 3.98,
              "dur": 1.0,
              "vel": 105
            },
            {
              "note": "F3",
              "pitch": 65,
              "beat": 4.0,
              "dur": 1.0,
              "vel": 105
            },
            {
              "note": "C#6",
              "pitch": 97,
              "beat": 4.0,
              "dur": 1.0,
              "vel": 105
            },
            {
              "note": "C#7",
              "pitch": 109,
              "beat": 4.0,
              "dur": 1.0,
              "vel": 105
            },
            {
              "note": "C#5",
              "pitch": 85,
              "beat": 4.01,
              "dur": 1.0,
              "vel": 105
            },
            {
              "note": "G#6",
              "pitch": 104,
              "beat": 5.48,
              "dur": 1.25,
              "vel": 105
            },
            {
              "note": "F3",
              "pitch": 65,
              "beat": 5.5,
              "dur": 1.25,
              "vel": 105
            },
            {
              "note": "C#6",
              "pitch": 97,
              "beat": 5.5,
              "dur": 1.25,
              "vel": 105
            },
            {
              "note": "C#7",
              "pitch": 109,
              "beat": 5.5,
              "dur": 1.25,
              "vel": 105
            },
            {
              "note": "C#5",
              "pitch": 85,
              "beat": 5.51,
              "dur": 1.25,
              "vel": 105
            },
            {
              "note": "F#3",
              "pitch": 66,
              "beat": 8.0,
              "dur": 1.0,
              "vel": 105
            },
            {
              "note": "A#4",
              "pitch": 82,
              "beat": 8.0,
              "dur": 1.0,
              "vel": 105
            },
            {
              "note": "A#5",
              "pitch": 94,
              "beat": 8.0,
              "dur": 1.0,
              "vel": 105
            },
            {
              "note": "F6",
              "pitch": 101,
              "beat": 8.0,
              "dur": 1.0,
              "vel": 105
            },
            {
              "note": "A#6",
              "pitch": 106,
              "beat": 8.0,
              "dur": 1.0,
              "vel": 105
            },
            {
              "note": "C#7",
              "pitch": 109,
              "beat": 8.0,
              "dur": 1.0,
              "vel": 105
            },
            {
              "note": "F#3",
              "pitch": 66,
              "beat": 9.5,
              "dur": 1.0,
              "vel": 105
            },
            {
              "note": "A#4",
              "pitch": 82,
              "beat": 9.5,
              "dur": 1.0,
              "vel": 105
            },
            {
              "note": "A#5",
              "pitch": 94,
              "beat": 9.5,
              "dur": 1.0,
              "vel": 105
            },
            {
              "note": "F6",
              "pitch": 101,
              "beat": 9.5,
              "dur": 1.0,
              "vel": 105
            },
            {
              "note": "A#6",
              "pitch": 106,
              "beat": 9.5,
              "dur": 1.0,
              "vel": 105
            },
            {
              "note": "C#7",
              "pitch": 109,
              "beat": 9.5,
              "dur": 1.0,
              "vel": 105
            },
            {
              "note": "G#6",
              "pitch": 104,
              "beat": 11.98,
              "dur": 1.0,
              "vel": 105
            },
            {
              "note": "F3",
              "pitch": 65,
              "beat": 12.0,
              "dur": 1.0,
              "vel": 105
            },
            {
              "note": "C#5",
              "pitch": 85,
              "beat": 12.0,
              "dur": 1.0,
              "vel": 105
            },
            {
              "note": "C#6",
              "pitch": 97,
              "beat": 12.0,
              "dur": 1.0,
              "vel": 105
            },
            {
              "note": "C#7",
              "pitch": 109,
              "beat": 12.0,
              "dur": 1.0,
              "vel": 105
            },
            {
              "note": "G#6",
              "pitch": 104,
              "beat": 13.48,
              "dur": 1.0,
              "vel": 105
            },
            {
              "note": "F3",
              "pitch": 65,
              "beat": 13.5,
              "dur": 1.0,
              "vel": 105
            },
            {
              "note": "C#5",
              "pitch": 85,
              "beat": 13.5,
              "dur": 1.0,
              "vel": 105
            },
            {
              "note": "C#6",
              "pitch": 97,
              "beat": 13.5,
              "dur": 1.0,
              "vel": 105
            },
            {
              "note": "C#7",
              "pitch": 109,
              "beat": 13.5,
              "dur": 1.0,
              "vel": 105
            },
            {
              "note": "G#6",
              "pitch": 104,
              "beat": 14.48,
              "dur": 1.5,
              "vel": 105
            },
            {
              "note": "F3",
              "pitch": 65,
              "beat": 14.5,
              "dur": 1.5,
              "vel": 105
            },
            {
              "note": "C#5",
              "pitch": 85,
              "beat": 14.5,
              "dur": 1.5,
              "vel": 105
            },
            {
              "note": "C#6",
              "pitch": 97,
              "beat": 14.5,
              "dur": 1.5,
              "vel": 105
            },
            {
              "note": "C#7",
              "pitch": 109,
              "beat": 14.5,
              "dur": 1.5,
              "vel": 105
            }
          ]
        },
        {
          "bar_start": 68.0,
          "bar_end": 72.0,
          "name": "",
          "notes": [
            {
              "note": "D#3",
              "pitch": 63,
              "beat": 0.0,
              "dur": 1.0,
              "vel": 105
            },
            {
              "note": "F#5",
              "pitch": 90,
              "beat": 0.0,
              "dur": 1.0,
              "vel": 105
            },
            {
              "note": "F#6",
              "pitch": 102,
              "beat": 0.0,
              "dur": 1.0,
              "vel": 105
            },
            {
              "note": "A#6",
              "pitch": 106,
              "beat": 0.0,
              "dur": 1.0,
              "vel": 105
            },
            {
              "note": "C#7",
              "pitch": 109,
              "beat": 0.0,
              "dur": 1.0,
              "vel": 105
            },
            {
              "note": "D#3",
              "pitch": 63,
              "beat": 1.5,
              "dur": 1.0,
              "vel": 105
            },
            {
              "note": "F#5",
              "pitch": 90,
              "beat": 1.5,
              "dur": 1.0,
              "vel": 105
            },
            {
              "note": "F#6",
              "pitch": 102,
              "beat": 1.5,
              "dur": 1.0,
              "vel": 105
            },
            {
              "note": "A#6",
              "pitch": 106,
              "beat": 1.5,
              "dur": 1.0,
              "vel": 105
            },
            {
              "note": "C#7",
              "pitch": 109,
              "beat": 1.5,
              "dur": 1.0,
              "vel": 105
            },
            {
              "note": "G#6",
              "pitch": 104,
              "beat": 3.98,
              "dur": 1.0,
              "vel": 105
            },
            {
              "note": "F3",
              "pitch": 65,
              "beat": 4.0,
              "dur": 1.0,
              "vel": 105
            },
            {
              "note": "C#6",
              "pitch": 97,
              "beat": 4.0,
              "dur": 1.0,
              "vel": 105
            },
            {
              "note": "C#7",
              "pitch": 109,
              "beat": 4.0,
              "dur": 1.0,
              "vel": 105
            },
            {
              "note": "C#5",
              "pitch": 85,
              "beat": 4.01,
              "dur": 1.0,
              "vel": 105
            },
            {
              "note": "G#6",
              "pitch": 104,
              "beat": 5.48,
              "dur": 1.25,
              "vel": 105
            },
            {
              "note": "F3",
              "pitch": 65,
              "beat": 5.5,
              "dur": 1.25,
              "vel": 105
            },
            {
              "note": "C#6",
              "pitch": 97,
              "beat": 5.5,
              "dur": 1.25,
              "vel": 105
            },
            {
              "note": "C#7",
              "pitch": 109,
              "beat": 5.5,
              "dur": 1.25,
              "vel": 105
            },
            {
              "note": "C#5",
              "pitch": 85,
              "beat": 5.51,
              "dur": 1.25,
              "vel": 105
            },
            {
              "note": "F#3",
              "pitch": 66,
              "beat": 8.0,
              "dur": 1.0,
              "vel": 105
            },
            {
              "note": "A#4",
              "pitch": 82,
              "beat": 8.0,
              "dur": 1.0,
              "vel": 105
            },
            {
              "note": "A#5",
              "pitch": 94,
              "beat": 8.0,
              "dur": 1.0,
              "vel": 105
            },
            {
              "note": "F6",
              "pitch": 101,
              "beat": 8.0,
              "dur": 1.0,
              "vel": 105
            },
            {
              "note": "A#6",
              "pitch": 106,
              "beat": 8.0,
              "dur": 1.0,
              "vel": 105
            },
            {
              "note": "C#7",
              "pitch": 109,
              "beat": 8.0,
              "dur": 1.0,
              "vel": 105
            },
            {
              "note": "F#3",
              "pitch": 66,
              "beat": 9.5,
              "dur": 1.0,
              "vel": 105
            },
            {
              "note": "A#4",
              "pitch": 82,
              "beat": 9.5,
              "dur": 1.0,
              "vel": 105
            },
            {
              "note": "A#5",
              "pitch": 94,
              "beat": 9.5,
              "dur": 1.0,
              "vel": 105
            },
            {
              "note": "F6",
              "pitch": 101,
              "beat": 9.5,
              "dur": 1.0,
              "vel": 105
            },
            {
              "note": "A#6",
              "pitch": 106,
              "beat": 9.5,
              "dur": 1.0,
              "vel": 105
            },
            {
              "note": "C#7",
              "pitch": 109,
              "beat": 9.5,
              "dur": 1.0,
              "vel": 105
            },
            {
              "note": "G#6",
              "pitch": 104,
              "beat": 11.98,
              "dur": 0.02,
              "vel": 105
            },
            {
              "note": "F#3",
              "pitch": 66,
              "beat": 12.0,
              "dur": 1.0,
              "vel": 105
            },
            {
              "note": "A#4",
              "pitch": 82,
              "beat": 12.0,
              "dur": 1.0,
              "vel": 105
            },
            {
              "note": "A#5",
              "pitch": 94,
              "beat": 12.0,
              "dur": 1.0,
              "vel": 105
            },
            {
              "note": "F6",
              "pitch": 101,
              "beat": 12.0,
              "dur": 1.0,
              "vel": 105
            },
            {
              "note": "A#6",
              "pitch": 106,
              "beat": 12.0,
              "dur": 1.0,
              "vel": 105
            },
            {
              "note": "C#7",
              "pitch": 109,
              "beat": 12.0,
              "dur": 1.0,
              "vel": 105
            },
            {
              "note": "F#3",
              "pitch": 66,
              "beat": 13.5,
              "dur": 1.0,
              "vel": 105
            },
            {
              "note": "A#4",
              "pitch": 82,
              "beat": 13.5,
              "dur": 1.0,
              "vel": 105
            },
            {
              "note": "A#5",
              "pitch": 94,
              "beat": 13.5,
              "dur": 1.0,
              "vel": 105
            },
            {
              "note": "F6",
              "pitch": 101,
              "beat": 13.5,
              "dur": 1.0,
              "vel": 105
            },
            {
              "note": "A#6",
              "pitch": 106,
              "beat": 13.5,
              "dur": 1.0,
              "vel": 105
            },
            {
              "note": "C#7",
              "pitch": 109,
              "beat": 13.5,
              "dur": 1.0,
              "vel": 105
            }
          ]
        },
        {
          "bar_start": 72.0,
          "bar_end": 78.0,
          "name": "",
          "notes": [
            {
              "note": "D#3",
              "pitch": 63,
              "beat": 0.0,
              "dur": 1.0,
              "vel": 105
            },
            {
              "note": "F#5",
              "pitch": 90,
              "beat": 0.0,
              "dur": 1.0,
              "vel": 105
            },
            {
              "note": "F#6",
              "pitch": 102,
              "beat": 0.0,
              "dur": 1.0,
              "vel": 105
            },
            {
              "note": "A#6",
              "pitch": 106,
              "beat": 0.0,
              "dur": 1.0,
              "vel": 105
            },
            {
              "note": "C#7",
              "pitch": 109,
              "beat": 0.0,
              "dur": 1.0,
              "vel": 105
            },
            {
              "note": "D#3",
              "pitch": 63,
              "beat": 1.5,
              "dur": 1.0,
              "vel": 105
            },
            {
              "note": "F#5",
              "pitch": 90,
              "beat": 1.5,
              "dur": 1.0,
              "vel": 105
            },
            {
              "note": "F#6",
              "pitch": 102,
              "beat": 1.5,
              "dur": 1.0,
              "vel": 105
            },
            {
              "note": "A#6",
              "pitch": 106,
              "beat": 1.5,
              "dur": 1.0,
              "vel": 105
            },
            {
              "note": "C#7",
              "pitch": 109,
              "beat": 1.5,
              "dur": 1.0,
              "vel": 105
            },
            {
              "note": "G#6",
              "pitch": 104,
              "beat": 3.98,
              "dur": 1.0,
              "vel": 105
            },
            {
              "note": "F3",
              "pitch": 65,
              "beat": 4.0,
              "dur": 1.0,
              "vel": 105
            },
            {
              "note": "C#6",
              "pitch": 97,
              "beat": 4.0,
              "dur": 1.0,
              "vel": 105
            },
            {
              "note": "C#7",
              "pitch": 109,
              "beat": 4.0,
              "dur": 1.0,
              "vel": 105
            },
            {
              "note": "C#5",
              "pitch": 85,
              "beat": 4.01,
              "dur": 1.0,
              "vel": 105
            },
            {
              "note": "G#6",
              "pitch": 104,
              "beat": 5.48,
              "dur": 1.25,
              "vel": 105
            },
            {
              "note": "F3",
              "pitch": 65,
              "beat": 5.5,
              "dur": 1.25,
              "vel": 105
            },
            {
              "note": "C#6",
              "pitch": 97,
              "beat": 5.5,
              "dur": 1.25,
              "vel": 105
            },
            {
              "note": "C#7",
              "pitch": 109,
              "beat": 5.5,
              "dur": 1.25,
              "vel": 105
            },
            {
              "note": "C#5",
              "pitch": 85,
              "beat": 5.51,
              "dur": 1.25,
              "vel": 105
            },
            {
              "note": "F#3",
              "pitch": 66,
              "beat": 8.0,
              "dur": 1.0,
              "vel": 105
            },
            {
              "note": "A#4",
              "pitch": 82,
              "beat": 8.0,
              "dur": 1.0,
              "vel": 105
            },
            {
              "note": "A#5",
              "pitch": 94,
              "beat": 8.0,
              "dur": 1.0,
              "vel": 105
            },
            {
              "note": "F6",
              "pitch": 101,
              "beat": 8.0,
              "dur": 1.0,
              "vel": 105
            },
            {
              "note": "A#6",
              "pitch": 106,
              "beat": 8.0,
              "dur": 1.0,
              "vel": 105
            },
            {
              "note": "C#7",
              "pitch": 109,
              "beat": 8.0,
              "dur": 1.0,
              "vel": 105
            },
            {
              "note": "F#3",
              "pitch": 66,
              "beat": 9.5,
              "dur": 1.0,
              "vel": 105
            },
            {
              "note": "A#4",
              "pitch": 82,
              "beat": 9.5,
              "dur": 1.0,
              "vel": 105
            },
            {
              "note": "A#5",
              "pitch": 94,
              "beat": 9.5,
              "dur": 1.0,
              "vel": 105
            },
            {
              "note": "F6",
              "pitch": 101,
              "beat": 9.5,
              "dur": 1.0,
              "vel": 105
            },
            {
              "note": "A#6",
              "pitch": 106,
              "beat": 9.5,
              "dur": 1.0,
              "vel": 105
            },
            {
              "note": "C#7",
              "pitch": 109,
              "beat": 9.5,
              "dur": 1.0,
              "vel": 105
            },
            {
              "note": "G#6",
              "pitch": 104,
              "beat": 11.98,
              "dur": 1.0,
              "vel": 105
            },
            {
              "note": "F3",
              "pitch": 65,
              "beat": 12.0,
              "dur": 1.0,
              "vel": 105
            },
            {
              "note": "C#5",
              "pitch": 85,
              "beat": 12.0,
              "dur": 1.0,
              "vel": 105
            },
            {
              "note": "C#6",
              "pitch": 97,
              "beat": 12.0,
              "dur": 1.0,
              "vel": 105
            },
            {
              "note": "C#7",
              "pitch": 109,
              "beat": 12.0,
              "dur": 1.0,
              "vel": 105
            },
            {
              "note": "G#6",
              "pitch": 104,
              "beat": 13.48,
              "dur": 1.0,
              "vel": 105
            },
            {
              "note": "F3",
              "pitch": 65,
              "beat": 13.5,
              "dur": 1.0,
              "vel": 105
            },
            {
              "note": "C#5",
              "pitch": 85,
              "beat": 13.5,
              "dur": 1.0,
              "vel": 105
            },
            {
              "note": "C#6",
              "pitch": 97,
              "beat": 13.5,
              "dur": 1.0,
              "vel": 105
            },
            {
              "note": "C#7",
              "pitch": 109,
              "beat": 13.5,
              "dur": 1.0,
              "vel": 105
            },
            {
              "note": "G#6",
              "pitch": 104,
              "beat": 14.48,
              "dur": 1.5,
              "vel": 105
            },
            {
              "note": "F3",
              "pitch": 65,
              "beat": 14.5,
              "dur": 1.5,
              "vel": 105
            },
            {
              "note": "C#5",
              "pitch": 85,
              "beat": 14.5,
              "dur": 1.5,
              "vel": 105
            },
            {
              "note": "C#6",
              "pitch": 97,
              "beat": 14.5,
              "dur": 1.5,
              "vel": 105
            },
            {
              "note": "C#7",
              "pitch": 109,
              "beat": 14.5,
              "dur": 1.5,
              "vel": 105
            }
          ]
        },
        {
          "bar_start": 80.0,
          "bar_end": 95.0,
          "name": "",
          "notes": [
            {
              "note": "D#3",
              "pitch": 63,
              "beat": 0.0,
              "dur": 1.0,
              "vel": 105
            },
            {
              "note": "F#5",
              "pitch": 90,
              "beat": 0.0,
              "dur": 1.0,
              "vel": 105
            },
            {
              "note": "F#6",
              "pitch": 102,
              "beat": 0.0,
              "dur": 1.0,
              "vel": 105
            },
            {
              "note": "A#6",
              "pitch": 106,
              "beat": 0.0,
              "dur": 1.0,
              "vel": 105
            },
            {
              "note": "C#7",
              "pitch": 109,
              "beat": 0.0,
              "dur": 1.0,
              "vel": 105
            },
            {
              "note": "D#3",
              "pitch": 63,
              "beat": 1.5,
              "dur": 1.0,
              "vel": 105
            },
            {
              "note": "F#5",
              "pitch": 90,
              "beat": 1.5,
              "dur": 1.0,
              "vel": 105
            },
            {
              "note": "F#6",
              "pitch": 102,
              "beat": 1.5,
              "dur": 1.0,
              "vel": 105
            },
            {
              "note": "A#6",
              "pitch": 106,
              "beat": 1.5,
              "dur": 1.0,
              "vel": 105
            },
            {
              "note": "C#7",
              "pitch": 109,
              "beat": 1.5,
              "dur": 1.0,
              "vel": 105
            },
            {
              "note": "G#6",
              "pitch": 104,
              "beat": 3.98,
              "dur": 1.0,
              "vel": 105
            },
            {
              "note": "F3",
              "pitch": 65,
              "beat": 4.0,
              "dur": 1.0,
              "vel": 105
            },
            {
              "note": "C#6",
              "pitch": 97,
              "beat": 4.0,
              "dur": 1.0,
              "vel": 105
            },
            {
              "note": "C#7",
              "pitch": 109,
              "beat": 4.0,
              "dur": 1.0,
              "vel": 105
            },
            {
              "note": "C#5",
              "pitch": 85,
              "beat": 4.01,
              "dur": 1.0,
              "vel": 105
            },
            {
              "note": "G#6",
              "pitch": 104,
              "beat": 5.48,
              "dur": 1.25,
              "vel": 105
            },
            {
              "note": "F3",
              "pitch": 65,
              "beat": 5.5,
              "dur": 1.25,
              "vel": 105
            },
            {
              "note": "C#6",
              "pitch": 97,
              "beat": 5.5,
              "dur": 1.25,
              "vel": 105
            },
            {
              "note": "C#7",
              "pitch": 109,
              "beat": 5.5,
              "dur": 1.25,
              "vel": 105
            },
            {
              "note": "C#5",
              "pitch": 85,
              "beat": 5.51,
              "dur": 1.25,
              "vel": 105
            },
            {
              "note": "F#3",
              "pitch": 66,
              "beat": 8.0,
              "dur": 1.0,
              "vel": 105
            },
            {
              "note": "A#4",
              "pitch": 82,
              "beat": 8.0,
              "dur": 1.0,
              "vel": 105
            },
            {
              "note": "A#5",
              "pitch": 94,
              "beat": 8.0,
              "dur": 1.0,
              "vel": 105
            },
            {
              "note": "F6",
              "pitch": 101,
              "beat": 8.0,
              "dur": 1.0,
              "vel": 105
            },
            {
              "note": "A#6",
              "pitch": 106,
              "beat": 8.0,
              "dur": 1.0,
              "vel": 105
            },
            {
              "note": "C#7",
              "pitch": 109,
              "beat": 8.0,
              "dur": 1.0,
              "vel": 105
            },
            {
              "note": "F#3",
              "pitch": 66,
              "beat": 9.5,
              "dur": 1.0,
              "vel": 105
            },
            {
              "note": "A#4",
              "pitch": 82,
              "beat": 9.5,
              "dur": 1.0,
              "vel": 105
            },
            {
              "note": "A#5",
              "pitch": 94,
              "beat": 9.5,
              "dur": 1.0,
              "vel": 105
            },
            {
              "note": "F6",
              "pitch": 101,
              "beat": 9.5,
              "dur": 1.0,
              "vel": 105
            },
            {
              "note": "A#6",
              "pitch": 106,
              "beat": 9.5,
              "dur": 1.0,
              "vel": 105
            },
            {
              "note": "C#7",
              "pitch": 109,
              "beat": 9.5,
              "dur": 1.0,
              "vel": 105
            },
            {
              "note": "G#6",
              "pitch": 104,
              "beat": 11.98,
              "dur": 1.0,
              "vel": 105
            },
            {
              "note": "F3",
              "pitch": 65,
              "beat": 12.0,
              "dur": 1.0,
              "vel": 105
            },
            {
              "note": "C#5",
              "pitch": 85,
              "beat": 12.0,
              "dur": 1.0,
              "vel": 105
            },
            {
              "note": "C#6",
              "pitch": 97,
              "beat": 12.0,
              "dur": 1.0,
              "vel": 105
            },
            {
              "note": "C#7",
              "pitch": 109,
              "beat": 12.0,
              "dur": 1.0,
              "vel": 105
            },
            {
              "note": "G#6",
              "pitch": 104,
              "beat": 13.48,
              "dur": 1.0,
              "vel": 105
            },
            {
              "note": "F3",
              "pitch": 65,
              "beat": 13.5,
              "dur": 1.0,
              "vel": 105
            },
            {
              "note": "C#5",
              "pitch": 85,
              "beat": 13.5,
              "dur": 1.0,
              "vel": 105
            },
            {
              "note": "C#6",
              "pitch": 97,
              "beat": 13.5,
              "dur": 1.0,
              "vel": 105
            },
            {
              "note": "C#7",
              "pitch": 109,
              "beat": 13.5,
              "dur": 1.0,
              "vel": 105
            },
            {
              "note": "G#6",
              "pitch": 104,
              "beat": 14.48,
              "dur": 1.5,
              "vel": 105
            },
            {
              "note": "F3",
              "pitch": 65,
              "beat": 14.5,
              "dur": 1.5,
              "vel": 105
            },
            {
              "note": "C#5",
              "pitch": 85,
              "beat": 14.5,
              "dur": 1.5,
              "vel": 105
            },
            {
              "note": "C#6",
              "pitch": 97,
              "beat": 14.5,
              "dur": 1.5,
              "vel": 105
            },
            {
              "note": "C#7",
              "pitch": 109,
              "beat": 14.5,
              "dur": 1.5,
              "vel": 105
            }
          ]
        },
        {
          "bar_start": 96.0,
          "bar_end": 111.0,
          "name": "",
          "notes": [
            {
              "note": "D#3",
              "pitch": 63,
              "beat": 0.0,
              "dur": 1.0,
              "vel": 105
            },
            {
              "note": "F#5",
              "pitch": 90,
              "beat": 0.0,
              "dur": 1.0,
              "vel": 105
            },
            {
              "note": "F#6",
              "pitch": 102,
              "beat": 0.0,
              "dur": 1.0,
              "vel": 105
            },
            {
              "note": "A#6",
              "pitch": 106,
              "beat": 0.0,
              "dur": 1.0,
              "vel": 105
            },
            {
              "note": "C#7",
              "pitch": 109,
              "beat": 0.0,
              "dur": 1.0,
              "vel": 105
            },
            {
              "note": "D#3",
              "pitch": 63,
              "beat": 1.5,
              "dur": 1.0,
              "vel": 105
            },
            {
              "note": "F#5",
              "pitch": 90,
              "beat": 1.5,
              "dur": 1.0,
              "vel": 105
            },
            {
              "note": "F#6",
              "pitch": 102,
              "beat": 1.5,
              "dur": 1.0,
              "vel": 105
            },
            {
              "note": "A#6",
              "pitch": 106,
              "beat": 1.5,
              "dur": 1.0,
              "vel": 105
            },
            {
              "note": "C#7",
              "pitch": 109,
              "beat": 1.5,
              "dur": 1.0,
              "vel": 105
            },
            {
              "note": "G#6",
              "pitch": 104,
              "beat": 3.98,
              "dur": 1.0,
              "vel": 105
            },
            {
              "note": "F3",
              "pitch": 65,
              "beat": 4.0,
              "dur": 1.0,
              "vel": 105
            },
            {
              "note": "C#6",
              "pitch": 97,
              "beat": 4.0,
              "dur": 1.0,
              "vel": 105
            },
            {
              "note": "C#7",
              "pitch": 109,
              "beat": 4.0,
              "dur": 1.0,
              "vel": 105
            },
            {
              "note": "C#5",
              "pitch": 85,
              "beat": 4.01,
              "dur": 1.0,
              "vel": 105
            },
            {
              "note": "G#6",
              "pitch": 104,
              "beat": 5.48,
              "dur": 1.25,
              "vel": 105
            },
            {
              "note": "F3",
              "pitch": 65,
              "beat": 5.5,
              "dur": 1.25,
              "vel": 105
            },
            {
              "note": "C#6",
              "pitch": 97,
              "beat": 5.5,
              "dur": 1.25,
              "vel": 105
            },
            {
              "note": "C#7",
              "pitch": 109,
              "beat": 5.5,
              "dur": 1.25,
              "vel": 105
            },
            {
              "note": "C#5",
              "pitch": 85,
              "beat": 5.51,
              "dur": 1.25,
              "vel": 105
            },
            {
              "note": "F#3",
              "pitch": 66,
              "beat": 8.0,
              "dur": 1.0,
              "vel": 105
            },
            {
              "note": "A#4",
              "pitch": 82,
              "beat": 8.0,
              "dur": 1.0,
              "vel": 105
            },
            {
              "note": "A#5",
              "pitch": 94,
              "beat": 8.0,
              "dur": 1.0,
              "vel": 105
            },
            {
              "note": "F6",
              "pitch": 101,
              "beat": 8.0,
              "dur": 1.0,
              "vel": 105
            },
            {
              "note": "A#6",
              "pitch": 106,
              "beat": 8.0,
              "dur": 1.0,
              "vel": 105
            },
            {
              "note": "C#7",
              "pitch": 109,
              "beat": 8.0,
              "dur": 1.0,
              "vel": 105
            },
            {
              "note": "F#3",
              "pitch": 66,
              "beat": 9.5,
              "dur": 1.0,
              "vel": 105
            },
            {
              "note": "A#4",
              "pitch": 82,
              "beat": 9.5,
              "dur": 1.0,
              "vel": 105
            },
            {
              "note": "A#5",
              "pitch": 94,
              "beat": 9.5,
              "dur": 1.0,
              "vel": 105
            },
            {
              "note": "F6",
              "pitch": 101,
              "beat": 9.5,
              "dur": 1.0,
              "vel": 105
            },
            {
              "note": "A#6",
              "pitch": 106,
              "beat": 9.5,
              "dur": 1.0,
              "vel": 105
            },
            {
              "note": "C#7",
              "pitch": 109,
              "beat": 9.5,
              "dur": 1.0,
              "vel": 105
            },
            {
              "note": "G#6",
              "pitch": 104,
              "beat": 11.98,
              "dur": 1.0,
              "vel": 105
            },
            {
              "note": "F3",
              "pitch": 65,
              "beat": 12.0,
              "dur": 1.0,
              "vel": 105
            },
            {
              "note": "C#5",
              "pitch": 85,
              "beat": 12.0,
              "dur": 1.0,
              "vel": 105
            },
            {
              "note": "C#6",
              "pitch": 97,
              "beat": 12.0,
              "dur": 1.0,
              "vel": 105
            },
            {
              "note": "C#7",
              "pitch": 109,
              "beat": 12.0,
              "dur": 1.0,
              "vel": 105
            },
            {
              "note": "G#6",
              "pitch": 104,
              "beat": 13.48,
              "dur": 1.0,
              "vel": 105
            },
            {
              "note": "F3",
              "pitch": 65,
              "beat": 13.5,
              "dur": 1.0,
              "vel": 105
            },
            {
              "note": "C#5",
              "pitch": 85,
              "beat": 13.5,
              "dur": 1.0,
              "vel": 105
            },
            {
              "note": "C#6",
              "pitch": 97,
              "beat": 13.5,
              "dur": 1.0,
              "vel": 105
            },
            {
              "note": "C#7",
              "pitch": 109,
              "beat": 13.5,
              "dur": 1.0,
              "vel": 105
            },
            {
              "note": "G#6",
              "pitch": 104,
              "beat": 14.48,
              "dur": 1.5,
              "vel": 105
            },
            {
              "note": "F3",
              "pitch": 65,
              "beat": 14.5,
              "dur": 1.5,
              "vel": 105
            },
            {
              "note": "C#5",
              "pitch": 85,
              "beat": 14.5,
              "dur": 1.5,
              "vel": 105
            },
            {
              "note": "C#6",
              "pitch": 97,
              "beat": 14.5,
              "dur": 1.5,
              "vel": 105
            },
            {
              "note": "C#7",
              "pitch": 109,
              "beat": 14.5,
              "dur": 1.5,
              "vel": 105
            }
          ]
        },
        {
          "bar_start": 112.0,
          "bar_end": 119.0,
          "name": "",
          "notes": [
            {
              "note": "D#3",
              "pitch": 63,
              "beat": 0.0,
              "dur": 1.0,
              "vel": 105
            },
            {
              "note": "F#5",
              "pitch": 90,
              "beat": 0.0,
              "dur": 1.0,
              "vel": 105
            },
            {
              "note": "F#6",
              "pitch": 102,
              "beat": 0.0,
              "dur": 1.0,
              "vel": 105
            },
            {
              "note": "A#6",
              "pitch": 106,
              "beat": 0.0,
              "dur": 1.0,
              "vel": 105
            },
            {
              "note": "C#7",
              "pitch": 109,
              "beat": 0.0,
              "dur": 1.0,
              "vel": 105
            },
            {
              "note": "D#3",
              "pitch": 63,
              "beat": 1.5,
              "dur": 1.0,
              "vel": 105
            },
            {
              "note": "F#5",
              "pitch": 90,
              "beat": 1.5,
              "dur": 1.0,
              "vel": 105
            },
            {
              "note": "F#6",
              "pitch": 102,
              "beat": 1.5,
              "dur": 1.0,
              "vel": 105
            },
            {
              "note": "A#6",
              "pitch": 106,
              "beat": 1.5,
              "dur": 1.0,
              "vel": 105
            },
            {
              "note": "C#7",
              "pitch": 109,
              "beat": 1.5,
              "dur": 1.0,
              "vel": 105
            },
            {
              "note": "G#6",
              "pitch": 104,
              "beat": 3.98,
              "dur": 1.0,
              "vel": 105
            },
            {
              "note": "F3",
              "pitch": 65,
              "beat": 4.0,
              "dur": 1.0,
              "vel": 105
            },
            {
              "note": "C#6",
              "pitch": 97,
              "beat": 4.0,
              "dur": 1.0,
              "vel": 105
            },
            {
              "note": "C#7",
              "pitch": 109,
              "beat": 4.0,
              "dur": 1.0,
              "vel": 105
            },
            {
              "note": "C#5",
              "pitch": 85,
              "beat": 4.01,
              "dur": 1.0,
              "vel": 105
            },
            {
              "note": "G#6",
              "pitch": 104,
              "beat": 5.48,
              "dur": 1.25,
              "vel": 105
            },
            {
              "note": "F3",
              "pitch": 65,
              "beat": 5.5,
              "dur": 1.25,
              "vel": 105
            },
            {
              "note": "C#6",
              "pitch": 97,
              "beat": 5.5,
              "dur": 1.25,
              "vel": 105
            },
            {
              "note": "C#7",
              "pitch": 109,
              "beat": 5.5,
              "dur": 1.25,
              "vel": 105
            },
            {
              "note": "C#5",
              "pitch": 85,
              "beat": 5.51,
              "dur": 1.25,
              "vel": 105
            },
            {
              "note": "F#3",
              "pitch": 66,
              "beat": 8.0,
              "dur": 1.0,
              "vel": 105
            },
            {
              "note": "A#4",
              "pitch": 82,
              "beat": 8.0,
              "dur": 1.0,
              "vel": 105
            },
            {
              "note": "A#5",
              "pitch": 94,
              "beat": 8.0,
              "dur": 1.0,
              "vel": 105
            },
            {
              "note": "F6",
              "pitch": 101,
              "beat": 8.0,
              "dur": 1.0,
              "vel": 105
            },
            {
              "note": "A#6",
              "pitch": 106,
              "beat": 8.0,
              "dur": 1.0,
              "vel": 105
            },
            {
              "note": "C#7",
              "pitch": 109,
              "beat": 8.0,
              "dur": 1.0,
              "vel": 105
            },
            {
              "note": "F#3",
              "pitch": 66,
              "beat": 9.5,
              "dur": 1.0,
              "vel": 105
            },
            {
              "note": "A#4",
              "pitch": 82,
              "beat": 9.5,
              "dur": 1.0,
              "vel": 105
            },
            {
              "note": "A#5",
              "pitch": 94,
              "beat": 9.5,
              "dur": 1.0,
              "vel": 105
            },
            {
              "note": "F6",
              "pitch": 101,
              "beat": 9.5,
              "dur": 1.0,
              "vel": 105
            },
            {
              "note": "A#6",
              "pitch": 106,
              "beat": 9.5,
              "dur": 1.0,
              "vel": 105
            },
            {
              "note": "C#7",
              "pitch": 109,
              "beat": 9.5,
              "dur": 1.0,
              "vel": 105
            },
            {
              "note": "G#6",
              "pitch": 104,
              "beat": 11.98,
              "dur": 1.0,
              "vel": 105
            },
            {
              "note": "F3",
              "pitch": 65,
              "beat": 12.0,
              "dur": 1.0,
              "vel": 105
            },
            {
              "note": "C#5",
              "pitch": 85,
              "beat": 12.0,
              "dur": 1.0,
              "vel": 105
            },
            {
              "note": "C#6",
              "pitch": 97,
              "beat": 12.0,
              "dur": 1.0,
              "vel": 105
            },
            {
              "note": "C#7",
              "pitch": 109,
              "beat": 12.0,
              "dur": 1.0,
              "vel": 105
            },
            {
              "note": "G#6",
              "pitch": 104,
              "beat": 13.48,
              "dur": 1.0,
              "vel": 105
            },
            {
              "note": "F3",
              "pitch": 65,
              "beat": 13.5,
              "dur": 1.0,
              "vel": 105
            },
            {
              "note": "C#5",
              "pitch": 85,
              "beat": 13.5,
              "dur": 1.0,
              "vel": 105
            },
            {
              "note": "C#6",
              "pitch": 97,
              "beat": 13.5,
              "dur": 1.0,
              "vel": 105
            },
            {
              "note": "C#7",
              "pitch": 109,
              "beat": 13.5,
              "dur": 1.0,
              "vel": 105
            },
            {
              "note": "G#6",
              "pitch": 104,
              "beat": 14.48,
              "dur": 1.5,
              "vel": 105
            },
            {
              "note": "F3",
              "pitch": 65,
              "beat": 14.5,
              "dur": 1.5,
              "vel": 105
            },
            {
              "note": "C#5",
              "pitch": 85,
              "beat": 14.5,
              "dur": 1.5,
              "vel": 105
            },
            {
              "note": "C#6",
              "pitch": 97,
              "beat": 14.5,
              "dur": 1.5,
              "vel": 105
            },
            {
              "note": "C#7",
              "pitch": 109,
              "beat": 14.5,
              "dur": 1.5,
              "vel": 105
            }
          ]
        },
        {
          "bar_start": 120.0,
          "bar_end": 120.25,
          "name": "",
          "notes": [
            {
              "note": "D#3",
              "pitch": 63,
              "beat": 0.0,
              "dur": 1.0,
              "vel": 105
            },
            {
              "note": "F#5",
              "pitch": 90,
              "beat": 0.0,
              "dur": 1.0,
              "vel": 105
            },
            {
              "note": "F#6",
              "pitch": 102,
              "beat": 0.0,
              "dur": 1.0,
              "vel": 105
            },
            {
              "note": "A#6",
              "pitch": 106,
              "beat": 0.0,
              "dur": 1.0,
              "vel": 105
            },
            {
              "note": "C#7",
              "pitch": 109,
              "beat": 0.0,
              "dur": 1.0,
              "vel": 105
            },
            {
              "note": "D#3",
              "pitch": 63,
              "beat": 1.5,
              "dur": 1.0,
              "vel": 105
            },
            {
              "note": "F#5",
              "pitch": 90,
              "beat": 1.5,
              "dur": 1.0,
              "vel": 105
            },
            {
              "note": "F#6",
              "pitch": 102,
              "beat": 1.5,
              "dur": 1.0,
              "vel": 105
            },
            {
              "note": "A#6",
              "pitch": 106,
              "beat": 1.5,
              "dur": 1.0,
              "vel": 105
            },
            {
              "note": "C#7",
              "pitch": 109,
              "beat": 1.5,
              "dur": 1.0,
              "vel": 105
            },
            {
              "note": "G#6",
              "pitch": 104,
              "beat": 3.98,
              "dur": 1.0,
              "vel": 105
            },
            {
              "note": "F3",
              "pitch": 65,
              "beat": 4.0,
              "dur": 1.0,
              "vel": 105
            },
            {
              "note": "C#6",
              "pitch": 97,
              "beat": 4.0,
              "dur": 1.0,
              "vel": 105
            },
            {
              "note": "C#7",
              "pitch": 109,
              "beat": 4.0,
              "dur": 1.0,
              "vel": 105
            },
            {
              "note": "C#5",
              "pitch": 85,
              "beat": 4.01,
              "dur": 1.0,
              "vel": 105
            },
            {
              "note": "G#6",
              "pitch": 104,
              "beat": 5.48,
              "dur": 1.25,
              "vel": 105
            },
            {
              "note": "F3",
              "pitch": 65,
              "beat": 5.5,
              "dur": 1.25,
              "vel": 105
            },
            {
              "note": "C#6",
              "pitch": 97,
              "beat": 5.5,
              "dur": 1.25,
              "vel": 105
            },
            {
              "note": "C#7",
              "pitch": 109,
              "beat": 5.5,
              "dur": 1.25,
              "vel": 105
            },
            {
              "note": "C#5",
              "pitch": 85,
              "beat": 5.51,
              "dur": 1.25,
              "vel": 105
            },
            {
              "note": "F#3",
              "pitch": 66,
              "beat": 8.0,
              "dur": 1.0,
              "vel": 105
            },
            {
              "note": "A#4",
              "pitch": 82,
              "beat": 8.0,
              "dur": 1.0,
              "vel": 105
            },
            {
              "note": "A#5",
              "pitch": 94,
              "beat": 8.0,
              "dur": 1.0,
              "vel": 105
            },
            {
              "note": "F6",
              "pitch": 101,
              "beat": 8.0,
              "dur": 1.0,
              "vel": 105
            },
            {
              "note": "A#6",
              "pitch": 106,
              "beat": 8.0,
              "dur": 1.0,
              "vel": 105
            },
            {
              "note": "C#7",
              "pitch": 109,
              "beat": 8.0,
              "dur": 1.0,
              "vel": 105
            },
            {
              "note": "F#3",
              "pitch": 66,
              "beat": 9.5,
              "dur": 1.0,
              "vel": 105
            },
            {
              "note": "A#4",
              "pitch": 82,
              "beat": 9.5,
              "dur": 1.0,
              "vel": 105
            },
            {
              "note": "A#5",
              "pitch": 94,
              "beat": 9.5,
              "dur": 1.0,
              "vel": 105
            },
            {
              "note": "F6",
              "pitch": 101,
              "beat": 9.5,
              "dur": 1.0,
              "vel": 105
            },
            {
              "note": "A#6",
              "pitch": 106,
              "beat": 9.5,
              "dur": 1.0,
              "vel": 105
            },
            {
              "note": "C#7",
              "pitch": 109,
              "beat": 9.5,
              "dur": 1.0,
              "vel": 105
            },
            {
              "note": "G#6",
              "pitch": 104,
              "beat": 11.98,
              "dur": 1.0,
              "vel": 105
            },
            {
              "note": "F3",
              "pitch": 65,
              "beat": 12.0,
              "dur": 1.0,
              "vel": 105
            },
            {
              "note": "C#5",
              "pitch": 85,
              "beat": 12.0,
              "dur": 1.0,
              "vel": 105
            },
            {
              "note": "C#6",
              "pitch": 97,
              "beat": 12.0,
              "dur": 1.0,
              "vel": 105
            },
            {
              "note": "C#7",
              "pitch": 109,
              "beat": 12.0,
              "dur": 1.0,
              "vel": 105
            },
            {
              "note": "G#6",
              "pitch": 104,
              "beat": 13.48,
              "dur": 1.0,
              "vel": 105
            },
            {
              "note": "F3",
              "pitch": 65,
              "beat": 13.5,
              "dur": 1.0,
              "vel": 105
            },
            {
              "note": "C#5",
              "pitch": 85,
              "beat": 13.5,
              "dur": 1.0,
              "vel": 105
            },
            {
              "note": "C#6",
              "pitch": 97,
              "beat": 13.5,
              "dur": 1.0,
              "vel": 105
            },
            {
              "note": "C#7",
              "pitch": 109,
              "beat": 13.5,
              "dur": 1.0,
              "vel": 105
            },
            {
              "note": "G#6",
              "pitch": 104,
              "beat": 14.48,
              "dur": 1.5,
              "vel": 105
            },
            {
              "note": "F3",
              "pitch": 65,
              "beat": 14.5,
              "dur": 1.5,
              "vel": 105
            },
            {
              "note": "C#5",
              "pitch": 85,
              "beat": 14.5,
              "dur": 1.5,
              "vel": 105
            },
            {
              "note": "C#6",
              "pitch": 97,
              "beat": 14.5,
              "dur": 1.5,
              "vel": 105
            },
            {
              "note": "C#7",
              "pitch": 109,
              "beat": 14.5,
              "dur": 1.5,
              "vel": 105
            }
          ]
        },
        {
          "bar_start": 121.0,
          "bar_end": 121.25,
          "name": "",
          "notes": [
            {
              "note": "D#3",
              "pitch": 63,
              "beat": 0.0,
              "dur": 1.0,
              "vel": 105
            },
            {
              "note": "F#5",
              "pitch": 90,
              "beat": 0.0,
              "dur": 1.0,
              "vel": 105
            },
            {
              "note": "F#6",
              "pitch": 102,
              "beat": 0.0,
              "dur": 1.0,
              "vel": 105
            },
            {
              "note": "A#6",
              "pitch": 106,
              "beat": 0.0,
              "dur": 1.0,
              "vel": 105
            },
            {
              "note": "C#7",
              "pitch": 109,
              "beat": 0.0,
              "dur": 1.0,
              "vel": 105
            },
            {
              "note": "D#3",
              "pitch": 63,
              "beat": 1.5,
              "dur": 1.0,
              "vel": 105
            },
            {
              "note": "F#5",
              "pitch": 90,
              "beat": 1.5,
              "dur": 1.0,
              "vel": 105
            },
            {
              "note": "F#6",
              "pitch": 102,
              "beat": 1.5,
              "dur": 1.0,
              "vel": 105
            },
            {
              "note": "A#6",
              "pitch": 106,
              "beat": 1.5,
              "dur": 1.0,
              "vel": 105
            },
            {
              "note": "C#7",
              "pitch": 109,
              "beat": 1.5,
              "dur": 1.0,
              "vel": 105
            },
            {
              "note": "G#6",
              "pitch": 104,
              "beat": 3.98,
              "dur": 1.0,
              "vel": 105
            },
            {
              "note": "F3",
              "pitch": 65,
              "beat": 4.0,
              "dur": 1.0,
              "vel": 105
            },
            {
              "note": "C#6",
              "pitch": 97,
              "beat": 4.0,
              "dur": 1.0,
              "vel": 105
            },
            {
              "note": "C#7",
              "pitch": 109,
              "beat": 4.0,
              "dur": 1.0,
              "vel": 105
            },
            {
              "note": "C#5",
              "pitch": 85,
              "beat": 4.01,
              "dur": 1.0,
              "vel": 105
            },
            {
              "note": "G#6",
              "pitch": 104,
              "beat": 5.48,
              "dur": 1.25,
              "vel": 105
            },
            {
              "note": "F3",
              "pitch": 65,
              "beat": 5.5,
              "dur": 1.25,
              "vel": 105
            },
            {
              "note": "C#6",
              "pitch": 97,
              "beat": 5.5,
              "dur": 1.25,
              "vel": 105
            },
            {
              "note": "C#7",
              "pitch": 109,
              "beat": 5.5,
              "dur": 1.25,
              "vel": 105
            },
            {
              "note": "C#5",
              "pitch": 85,
              "beat": 5.51,
              "dur": 1.25,
              "vel": 105
            },
            {
              "note": "F#3",
              "pitch": 66,
              "beat": 8.0,
              "dur": 1.0,
              "vel": 105
            },
            {
              "note": "A#4",
              "pitch": 82,
              "beat": 8.0,
              "dur": 1.0,
              "vel": 105
            },
            {
              "note": "A#5",
              "pitch": 94,
              "beat": 8.0,
              "dur": 1.0,
              "vel": 105
            },
            {
              "note": "F6",
              "pitch": 101,
              "beat": 8.0,
              "dur": 1.0,
              "vel": 105
            },
            {
              "note": "A#6",
              "pitch": 106,
              "beat": 8.0,
              "dur": 1.0,
              "vel": 105
            },
            {
              "note": "C#7",
              "pitch": 109,
              "beat": 8.0,
              "dur": 1.0,
              "vel": 105
            },
            {
              "note": "F#3",
              "pitch": 66,
              "beat": 9.5,
              "dur": 1.0,
              "vel": 105
            },
            {
              "note": "A#4",
              "pitch": 82,
              "beat": 9.5,
              "dur": 1.0,
              "vel": 105
            },
            {
              "note": "A#5",
              "pitch": 94,
              "beat": 9.5,
              "dur": 1.0,
              "vel": 105
            },
            {
              "note": "F6",
              "pitch": 101,
              "beat": 9.5,
              "dur": 1.0,
              "vel": 105
            },
            {
              "note": "A#6",
              "pitch": 106,
              "beat": 9.5,
              "dur": 1.0,
              "vel": 105
            },
            {
              "note": "C#7",
              "pitch": 109,
              "beat": 9.5,
              "dur": 1.0,
              "vel": 105
            },
            {
              "note": "G#6",
              "pitch": 104,
              "beat": 11.98,
              "dur": 1.0,
              "vel": 105
            },
            {
              "note": "F3",
              "pitch": 65,
              "beat": 12.0,
              "dur": 1.0,
              "vel": 105
            },
            {
              "note": "C#5",
              "pitch": 85,
              "beat": 12.0,
              "dur": 1.0,
              "vel": 105
            },
            {
              "note": "C#6",
              "pitch": 97,
              "beat": 12.0,
              "dur": 1.0,
              "vel": 105
            },
            {
              "note": "C#7",
              "pitch": 109,
              "beat": 12.0,
              "dur": 1.0,
              "vel": 105
            },
            {
              "note": "G#6",
              "pitch": 104,
              "beat": 13.48,
              "dur": 1.0,
              "vel": 105
            },
            {
              "note": "F3",
              "pitch": 65,
              "beat": 13.5,
              "dur": 1.0,
              "vel": 105
            },
            {
              "note": "C#5",
              "pitch": 85,
              "beat": 13.5,
              "dur": 1.0,
              "vel": 105
            },
            {
              "note": "C#6",
              "pitch": 97,
              "beat": 13.5,
              "dur": 1.0,
              "vel": 105
            },
            {
              "note": "C#7",
              "pitch": 109,
              "beat": 13.5,
              "dur": 1.0,
              "vel": 105
            },
            {
              "note": "G#6",
              "pitch": 104,
              "beat": 14.48,
              "dur": 1.5,
              "vel": 105
            },
            {
              "note": "F3",
              "pitch": 65,
              "beat": 14.5,
              "dur": 1.5,
              "vel": 105
            },
            {
              "note": "C#5",
              "pitch": 85,
              "beat": 14.5,
              "dur": 1.5,
              "vel": 105
            },
            {
              "note": "C#6",
              "pitch": 97,
              "beat": 14.5,
              "dur": 1.5,
              "vel": 105
            },
            {
              "note": "C#7",
              "pitch": 109,
              "beat": 14.5,
              "dur": 1.5,
              "vel": 105
            }
          ]
        },
        {
          "bar_start": 122.0,
          "bar_end": 122.25,
          "name": "",
          "notes": [
            {
              "note": "D#3",
              "pitch": 63,
              "beat": 0.0,
              "dur": 1.0,
              "vel": 105
            },
            {
              "note": "F#5",
              "pitch": 90,
              "beat": 0.0,
              "dur": 1.0,
              "vel": 105
            },
            {
              "note": "F#6",
              "pitch": 102,
              "beat": 0.0,
              "dur": 1.0,
              "vel": 105
            },
            {
              "note": "A#6",
              "pitch": 106,
              "beat": 0.0,
              "dur": 1.0,
              "vel": 105
            },
            {
              "note": "C#7",
              "pitch": 109,
              "beat": 0.0,
              "dur": 1.0,
              "vel": 105
            },
            {
              "note": "D#3",
              "pitch": 63,
              "beat": 1.5,
              "dur": 1.0,
              "vel": 105
            },
            {
              "note": "F#5",
              "pitch": 90,
              "beat": 1.5,
              "dur": 1.0,
              "vel": 105
            },
            {
              "note": "F#6",
              "pitch": 102,
              "beat": 1.5,
              "dur": 1.0,
              "vel": 105
            },
            {
              "note": "A#6",
              "pitch": 106,
              "beat": 1.5,
              "dur": 1.0,
              "vel": 105
            },
            {
              "note": "C#7",
              "pitch": 109,
              "beat": 1.5,
              "dur": 1.0,
              "vel": 105
            },
            {
              "note": "G#6",
              "pitch": 104,
              "beat": 3.98,
              "dur": 1.0,
              "vel": 105
            },
            {
              "note": "F3",
              "pitch": 65,
              "beat": 4.0,
              "dur": 1.0,
              "vel": 105
            },
            {
              "note": "C#6",
              "pitch": 97,
              "beat": 4.0,
              "dur": 1.0,
              "vel": 105
            },
            {
              "note": "C#7",
              "pitch": 109,
              "beat": 4.0,
              "dur": 1.0,
              "vel": 105
            },
            {
              "note": "C#5",
              "pitch": 85,
              "beat": 4.01,
              "dur": 1.0,
              "vel": 105
            },
            {
              "note": "G#6",
              "pitch": 104,
              "beat": 5.48,
              "dur": 1.25,
              "vel": 105
            },
            {
              "note": "F3",
              "pitch": 65,
              "beat": 5.5,
              "dur": 1.25,
              "vel": 105
            },
            {
              "note": "C#6",
              "pitch": 97,
              "beat": 5.5,
              "dur": 1.25,
              "vel": 105
            },
            {
              "note": "C#7",
              "pitch": 109,
              "beat": 5.5,
              "dur": 1.25,
              "vel": 105
            },
            {
              "note": "C#5",
              "pitch": 85,
              "beat": 5.51,
              "dur": 1.25,
              "vel": 105
            },
            {
              "note": "F#3",
              "pitch": 66,
              "beat": 8.0,
              "dur": 1.0,
              "vel": 105
            },
            {
              "note": "A#4",
              "pitch": 82,
              "beat": 8.0,
              "dur": 1.0,
              "vel": 105
            },
            {
              "note": "A#5",
              "pitch": 94,
              "beat": 8.0,
              "dur": 1.0,
              "vel": 105
            },
            {
              "note": "F6",
              "pitch": 101,
              "beat": 8.0,
              "dur": 1.0,
              "vel": 105
            },
            {
              "note": "A#6",
              "pitch": 106,
              "beat": 8.0,
              "dur": 1.0,
              "vel": 105
            },
            {
              "note": "C#7",
              "pitch": 109,
              "beat": 8.0,
              "dur": 1.0,
              "vel": 105
            },
            {
              "note": "F#3",
              "pitch": 66,
              "beat": 9.5,
              "dur": 1.0,
              "vel": 105
            },
            {
              "note": "A#4",
              "pitch": 82,
              "beat": 9.5,
              "dur": 1.0,
              "vel": 105
            },
            {
              "note": "A#5",
              "pitch": 94,
              "beat": 9.5,
              "dur": 1.0,
              "vel": 105
            },
            {
              "note": "F6",
              "pitch": 101,
              "beat": 9.5,
              "dur": 1.0,
              "vel": 105
            },
            {
              "note": "A#6",
              "pitch": 106,
              "beat": 9.5,
              "dur": 1.0,
              "vel": 105
            },
            {
              "note": "C#7",
              "pitch": 109,
              "beat": 9.5,
              "dur": 1.0,
              "vel": 105
            },
            {
              "note": "G#6",
              "pitch": 104,
              "beat": 11.98,
              "dur": 1.0,
              "vel": 105
            },
            {
              "note": "F3",
              "pitch": 65,
              "beat": 12.0,
              "dur": 1.0,
              "vel": 105
            },
            {
              "note": "C#5",
              "pitch": 85,
              "beat": 12.0,
              "dur": 1.0,
              "vel": 105
            },
            {
              "note": "C#6",
              "pitch": 97,
              "beat": 12.0,
              "dur": 1.0,
              "vel": 105
            },
            {
              "note": "C#7",
              "pitch": 109,
              "beat": 12.0,
              "dur": 1.0,
              "vel": 105
            },
            {
              "note": "G#6",
              "pitch": 104,
              "beat": 13.48,
              "dur": 1.0,
              "vel": 105
            },
            {
              "note": "F3",
              "pitch": 65,
              "beat": 13.5,
              "dur": 1.0,
              "vel": 105
            },
            {
              "note": "C#5",
              "pitch": 85,
              "beat": 13.5,
              "dur": 1.0,
              "vel": 105
            },
            {
              "note": "C#6",
              "pitch": 97,
              "beat": 13.5,
              "dur": 1.0,
              "vel": 105
            },
            {
              "note": "C#7",
              "pitch": 109,
              "beat": 13.5,
              "dur": 1.0,
              "vel": 105
            },
            {
              "note": "G#6",
              "pitch": 104,
              "beat": 14.48,
              "dur": 1.5,
              "vel": 105
            },
            {
              "note": "F3",
              "pitch": 65,
              "beat": 14.5,
              "dur": 1.5,
              "vel": 105
            },
            {
              "note": "C#5",
              "pitch": 85,
              "beat": 14.5,
              "dur": 1.5,
              "vel": 105
            },
            {
              "note": "C#6",
              "pitch": 97,
              "beat": 14.5,
              "dur": 1.5,
              "vel": 105
            },
            {
              "note": "C#7",
              "pitch": 109,
              "beat": 14.5,
              "dur": 1.5,
              "vel": 105
            }
          ]
        },
        {
          "bar_start": 123.0,
          "bar_end": 123.25,
          "name": "",
          "notes": [
            {
              "note": "D#3",
              "pitch": 63,
              "beat": 0.0,
              "dur": 1.0,
              "vel": 105
            },
            {
              "note": "F#5",
              "pitch": 90,
              "beat": 0.0,
              "dur": 1.0,
              "vel": 105
            },
            {
              "note": "F#6",
              "pitch": 102,
              "beat": 0.0,
              "dur": 1.0,
              "vel": 105
            },
            {
              "note": "A#6",
              "pitch": 106,
              "beat": 0.0,
              "dur": 1.0,
              "vel": 105
            },
            {
              "note": "C#7",
              "pitch": 109,
              "beat": 0.0,
              "dur": 1.0,
              "vel": 105
            },
            {
              "note": "D#3",
              "pitch": 63,
              "beat": 1.5,
              "dur": 1.0,
              "vel": 105
            },
            {
              "note": "F#5",
              "pitch": 90,
              "beat": 1.5,
              "dur": 1.0,
              "vel": 105
            },
            {
              "note": "F#6",
              "pitch": 102,
              "beat": 1.5,
              "dur": 1.0,
              "vel": 105
            },
            {
              "note": "A#6",
              "pitch": 106,
              "beat": 1.5,
              "dur": 1.0,
              "vel": 105
            },
            {
              "note": "C#7",
              "pitch": 109,
              "beat": 1.5,
              "dur": 1.0,
              "vel": 105
            },
            {
              "note": "G#6",
              "pitch": 104,
              "beat": 3.98,
              "dur": 1.0,
              "vel": 105
            },
            {
              "note": "F3",
              "pitch": 65,
              "beat": 4.0,
              "dur": 1.0,
              "vel": 105
            },
            {
              "note": "C#6",
              "pitch": 97,
              "beat": 4.0,
              "dur": 1.0,
              "vel": 105
            },
            {
              "note": "C#7",
              "pitch": 109,
              "beat": 4.0,
              "dur": 1.0,
              "vel": 105
            },
            {
              "note": "C#5",
              "pitch": 85,
              "beat": 4.01,
              "dur": 1.0,
              "vel": 105
            },
            {
              "note": "G#6",
              "pitch": 104,
              "beat": 5.48,
              "dur": 1.25,
              "vel": 105
            },
            {
              "note": "F3",
              "pitch": 65,
              "beat": 5.5,
              "dur": 1.25,
              "vel": 105
            },
            {
              "note": "C#6",
              "pitch": 97,
              "beat": 5.5,
              "dur": 1.25,
              "vel": 105
            },
            {
              "note": "C#7",
              "pitch": 109,
              "beat": 5.5,
              "dur": 1.25,
              "vel": 105
            },
            {
              "note": "C#5",
              "pitch": 85,
              "beat": 5.51,
              "dur": 1.25,
              "vel": 105
            },
            {
              "note": "F#3",
              "pitch": 66,
              "beat": 8.0,
              "dur": 1.0,
              "vel": 105
            },
            {
              "note": "A#4",
              "pitch": 82,
              "beat": 8.0,
              "dur": 1.0,
              "vel": 105
            },
            {
              "note": "A#5",
              "pitch": 94,
              "beat": 8.0,
              "dur": 1.0,
              "vel": 105
            },
            {
              "note": "F6",
              "pitch": 101,
              "beat": 8.0,
              "dur": 1.0,
              "vel": 105
            },
            {
              "note": "A#6",
              "pitch": 106,
              "beat": 8.0,
              "dur": 1.0,
              "vel": 105
            },
            {
              "note": "C#7",
              "pitch": 109,
              "beat": 8.0,
              "dur": 1.0,
              "vel": 105
            },
            {
              "note": "F#3",
              "pitch": 66,
              "beat": 9.5,
              "dur": 1.0,
              "vel": 105
            },
            {
              "note": "A#4",
              "pitch": 82,
              "beat": 9.5,
              "dur": 1.0,
              "vel": 105
            },
            {
              "note": "A#5",
              "pitch": 94,
              "beat": 9.5,
              "dur": 1.0,
              "vel": 105
            },
            {
              "note": "F6",
              "pitch": 101,
              "beat": 9.5,
              "dur": 1.0,
              "vel": 105
            },
            {
              "note": "A#6",
              "pitch": 106,
              "beat": 9.5,
              "dur": 1.0,
              "vel": 105
            },
            {
              "note": "C#7",
              "pitch": 109,
              "beat": 9.5,
              "dur": 1.0,
              "vel": 105
            },
            {
              "note": "G#6",
              "pitch": 104,
              "beat": 11.98,
              "dur": 1.0,
              "vel": 105
            },
            {
              "note": "F3",
              "pitch": 65,
              "beat": 12.0,
              "dur": 1.0,
              "vel": 105
            },
            {
              "note": "C#5",
              "pitch": 85,
              "beat": 12.0,
              "dur": 1.0,
              "vel": 105
            },
            {
              "note": "C#6",
              "pitch": 97,
              "beat": 12.0,
              "dur": 1.0,
              "vel": 105
            },
            {
              "note": "C#7",
              "pitch": 109,
              "beat": 12.0,
              "dur": 1.0,
              "vel": 105
            },
            {
              "note": "G#6",
              "pitch": 104,
              "beat": 13.48,
              "dur": 1.0,
              "vel": 105
            },
            {
              "note": "F3",
              "pitch": 65,
              "beat": 13.5,
              "dur": 1.0,
              "vel": 105
            },
            {
              "note": "C#5",
              "pitch": 85,
              "beat": 13.5,
              "dur": 1.0,
              "vel": 105
            },
            {
              "note": "C#6",
              "pitch": 97,
              "beat": 13.5,
              "dur": 1.0,
              "vel": 105
            },
            {
              "note": "C#7",
              "pitch": 109,
              "beat": 13.5,
              "dur": 1.0,
              "vel": 105
            },
            {
              "note": "G#6",
              "pitch": 104,
              "beat": 14.48,
              "dur": 1.5,
              "vel": 105
            },
            {
              "note": "F3",
              "pitch": 65,
              "beat": 14.5,
              "dur": 1.5,
              "vel": 105
            },
            {
              "note": "C#5",
              "pitch": 85,
              "beat": 14.5,
              "dur": 1.5,
              "vel": 105
            },
            {
              "note": "C#6",
              "pitch": 97,
              "beat": 14.5,
              "dur": 1.5,
              "vel": 105
            },
            {
              "note": "C#7",
              "pitch": 109,
              "beat": 14.5,
              "dur": 1.5,
              "vel": 105
            }
          ]
        },
        {
          "bar_start": 124.0,
          "bar_end": 124.25,
          "name": "",
          "notes": [
            {
              "note": "D#3",
              "pitch": 63,
              "beat": 0.0,
              "dur": 1.0,
              "vel": 105
            },
            {
              "note": "F#5",
              "pitch": 90,
              "beat": 0.0,
              "dur": 1.0,
              "vel": 105
            },
            {
              "note": "F#6",
              "pitch": 102,
              "beat": 0.0,
              "dur": 1.0,
              "vel": 105
            },
            {
              "note": "A#6",
              "pitch": 106,
              "beat": 0.0,
              "dur": 1.0,
              "vel": 105
            },
            {
              "note": "C#7",
              "pitch": 109,
              "beat": 0.0,
              "dur": 1.0,
              "vel": 105
            },
            {
              "note": "D#3",
              "pitch": 63,
              "beat": 1.5,
              "dur": 1.0,
              "vel": 105
            },
            {
              "note": "F#5",
              "pitch": 90,
              "beat": 1.5,
              "dur": 1.0,
              "vel": 105
            },
            {
              "note": "F#6",
              "pitch": 102,
              "beat": 1.5,
              "dur": 1.0,
              "vel": 105
            },
            {
              "note": "A#6",
              "pitch": 106,
              "beat": 1.5,
              "dur": 1.0,
              "vel": 105
            },
            {
              "note": "C#7",
              "pitch": 109,
              "beat": 1.5,
              "dur": 1.0,
              "vel": 105
            },
            {
              "note": "G#6",
              "pitch": 104,
              "beat": 3.98,
              "dur": 1.0,
              "vel": 105
            },
            {
              "note": "F3",
              "pitch": 65,
              "beat": 4.0,
              "dur": 1.0,
              "vel": 105
            },
            {
              "note": "C#6",
              "pitch": 97,
              "beat": 4.0,
              "dur": 1.0,
              "vel": 105
            },
            {
              "note": "C#7",
              "pitch": 109,
              "beat": 4.0,
              "dur": 1.0,
              "vel": 105
            },
            {
              "note": "C#5",
              "pitch": 85,
              "beat": 4.01,
              "dur": 1.0,
              "vel": 105
            },
            {
              "note": "G#6",
              "pitch": 104,
              "beat": 5.48,
              "dur": 1.25,
              "vel": 105
            },
            {
              "note": "F3",
              "pitch": 65,
              "beat": 5.5,
              "dur": 1.25,
              "vel": 105
            },
            {
              "note": "C#6",
              "pitch": 97,
              "beat": 5.5,
              "dur": 1.25,
              "vel": 105
            },
            {
              "note": "C#7",
              "pitch": 109,
              "beat": 5.5,
              "dur": 1.25,
              "vel": 105
            },
            {
              "note": "C#5",
              "pitch": 85,
              "beat": 5.51,
              "dur": 1.25,
              "vel": 105
            },
            {
              "note": "F#3",
              "pitch": 66,
              "beat": 8.0,
              "dur": 1.0,
              "vel": 105
            },
            {
              "note": "A#4",
              "pitch": 82,
              "beat": 8.0,
              "dur": 1.0,
              "vel": 105
            },
            {
              "note": "A#5",
              "pitch": 94,
              "beat": 8.0,
              "dur": 1.0,
              "vel": 105
            },
            {
              "note": "F6",
              "pitch": 101,
              "beat": 8.0,
              "dur": 1.0,
              "vel": 105
            },
            {
              "note": "A#6",
              "pitch": 106,
              "beat": 8.0,
              "dur": 1.0,
              "vel": 105
            },
            {
              "note": "C#7",
              "pitch": 109,
              "beat": 8.0,
              "dur": 1.0,
              "vel": 105
            },
            {
              "note": "F#3",
              "pitch": 66,
              "beat": 9.5,
              "dur": 1.0,
              "vel": 105
            },
            {
              "note": "A#4",
              "pitch": 82,
              "beat": 9.5,
              "dur": 1.0,
              "vel": 105
            },
            {
              "note": "A#5",
              "pitch": 94,
              "beat": 9.5,
              "dur": 1.0,
              "vel": 105
            },
            {
              "note": "F6",
              "pitch": 101,
              "beat": 9.5,
              "dur": 1.0,
              "vel": 105
            },
            {
              "note": "A#6",
              "pitch": 106,
              "beat": 9.5,
              "dur": 1.0,
              "vel": 105
            },
            {
              "note": "C#7",
              "pitch": 109,
              "beat": 9.5,
              "dur": 1.0,
              "vel": 105
            },
            {
              "note": "G#6",
              "pitch": 104,
              "beat": 11.98,
              "dur": 1.0,
              "vel": 105
            },
            {
              "note": "F3",
              "pitch": 65,
              "beat": 12.0,
              "dur": 1.0,
              "vel": 105
            },
            {
              "note": "C#5",
              "pitch": 85,
              "beat": 12.0,
              "dur": 1.0,
              "vel": 105
            },
            {
              "note": "C#6",
              "pitch": 97,
              "beat": 12.0,
              "dur": 1.0,
              "vel": 105
            },
            {
              "note": "C#7",
              "pitch": 109,
              "beat": 12.0,
              "dur": 1.0,
              "vel": 105
            },
            {
              "note": "G#6",
              "pitch": 104,
              "beat": 13.48,
              "dur": 1.0,
              "vel": 105
            },
            {
              "note": "F3",
              "pitch": 65,
              "beat": 13.5,
              "dur": 1.0,
              "vel": 105
            },
            {
              "note": "C#5",
              "pitch": 85,
              "beat": 13.5,
              "dur": 1.0,
              "vel": 105
            },
            {
              "note": "C#6",
              "pitch": 97,
              "beat": 13.5,
              "dur": 1.0,
              "vel": 105
            },
            {
              "note": "C#7",
              "pitch": 109,
              "beat": 13.5,
              "dur": 1.0,
              "vel": 105
            },
            {
              "note": "G#6",
              "pitch": 104,
              "beat": 14.48,
              "dur": 1.5,
              "vel": 105
            },
            {
              "note": "F3",
              "pitch": 65,
              "beat": 14.5,
              "dur": 1.5,
              "vel": 105
            },
            {
              "note": "C#5",
              "pitch": 85,
              "beat": 14.5,
              "dur": 1.5,
              "vel": 105
            },
            {
              "note": "C#6",
              "pitch": 97,
              "beat": 14.5,
              "dur": 1.5,
              "vel": 105
            },
            {
              "note": "C#7",
              "pitch": 109,
              "beat": 14.5,
              "dur": 1.5,
              "vel": 105
            }
          ]
        },
        {
          "bar_start": 125.0,
          "bar_end": 125.25,
          "name": "",
          "notes": [
            {
              "note": "D#3",
              "pitch": 63,
              "beat": 0.0,
              "dur": 1.0,
              "vel": 105
            },
            {
              "note": "F#5",
              "pitch": 90,
              "beat": 0.0,
              "dur": 1.0,
              "vel": 105
            },
            {
              "note": "F#6",
              "pitch": 102,
              "beat": 0.0,
              "dur": 1.0,
              "vel": 105
            },
            {
              "note": "A#6",
              "pitch": 106,
              "beat": 0.0,
              "dur": 1.0,
              "vel": 105
            },
            {
              "note": "C#7",
              "pitch": 109,
              "beat": 0.0,
              "dur": 1.0,
              "vel": 105
            },
            {
              "note": "D#3",
              "pitch": 63,
              "beat": 1.5,
              "dur": 1.0,
              "vel": 105
            },
            {
              "note": "F#5",
              "pitch": 90,
              "beat": 1.5,
              "dur": 1.0,
              "vel": 105
            },
            {
              "note": "F#6",
              "pitch": 102,
              "beat": 1.5,
              "dur": 1.0,
              "vel": 105
            },
            {
              "note": "A#6",
              "pitch": 106,
              "beat": 1.5,
              "dur": 1.0,
              "vel": 105
            },
            {
              "note": "C#7",
              "pitch": 109,
              "beat": 1.5,
              "dur": 1.0,
              "vel": 105
            },
            {
              "note": "G#6",
              "pitch": 104,
              "beat": 3.98,
              "dur": 1.0,
              "vel": 105
            },
            {
              "note": "F3",
              "pitch": 65,
              "beat": 4.0,
              "dur": 1.0,
              "vel": 105
            },
            {
              "note": "C#6",
              "pitch": 97,
              "beat": 4.0,
              "dur": 1.0,
              "vel": 105
            },
            {
              "note": "C#7",
              "pitch": 109,
              "beat": 4.0,
              "dur": 1.0,
              "vel": 105
            },
            {
              "note": "C#5",
              "pitch": 85,
              "beat": 4.01,
              "dur": 1.0,
              "vel": 105
            },
            {
              "note": "G#6",
              "pitch": 104,
              "beat": 5.48,
              "dur": 1.25,
              "vel": 105
            },
            {
              "note": "F3",
              "pitch": 65,
              "beat": 5.5,
              "dur": 1.25,
              "vel": 105
            },
            {
              "note": "C#6",
              "pitch": 97,
              "beat": 5.5,
              "dur": 1.25,
              "vel": 105
            },
            {
              "note": "C#7",
              "pitch": 109,
              "beat": 5.5,
              "dur": 1.25,
              "vel": 105
            },
            {
              "note": "C#5",
              "pitch": 85,
              "beat": 5.51,
              "dur": 1.25,
              "vel": 105
            },
            {
              "note": "F#3",
              "pitch": 66,
              "beat": 8.0,
              "dur": 1.0,
              "vel": 105
            },
            {
              "note": "A#4",
              "pitch": 82,
              "beat": 8.0,
              "dur": 1.0,
              "vel": 105
            },
            {
              "note": "A#5",
              "pitch": 94,
              "beat": 8.0,
              "dur": 1.0,
              "vel": 105
            },
            {
              "note": "F6",
              "pitch": 101,
              "beat": 8.0,
              "dur": 1.0,
              "vel": 105
            },
            {
              "note": "A#6",
              "pitch": 106,
              "beat": 8.0,
              "dur": 1.0,
              "vel": 105
            },
            {
              "note": "C#7",
              "pitch": 109,
              "beat": 8.0,
              "dur": 1.0,
              "vel": 105
            },
            {
              "note": "F#3",
              "pitch": 66,
              "beat": 9.5,
              "dur": 1.0,
              "vel": 105
            },
            {
              "note": "A#4",
              "pitch": 82,
              "beat": 9.5,
              "dur": 1.0,
              "vel": 105
            },
            {
              "note": "A#5",
              "pitch": 94,
              "beat": 9.5,
              "dur": 1.0,
              "vel": 105
            },
            {
              "note": "F6",
              "pitch": 101,
              "beat": 9.5,
              "dur": 1.0,
              "vel": 105
            },
            {
              "note": "A#6",
              "pitch": 106,
              "beat": 9.5,
              "dur": 1.0,
              "vel": 105
            },
            {
              "note": "C#7",
              "pitch": 109,
              "beat": 9.5,
              "dur": 1.0,
              "vel": 105
            },
            {
              "note": "G#6",
              "pitch": 104,
              "beat": 11.98,
              "dur": 1.0,
              "vel": 105
            },
            {
              "note": "F3",
              "pitch": 65,
              "beat": 12.0,
              "dur": 1.0,
              "vel": 105
            },
            {
              "note": "C#5",
              "pitch": 85,
              "beat": 12.0,
              "dur": 1.0,
              "vel": 105
            },
            {
              "note": "C#6",
              "pitch": 97,
              "beat": 12.0,
              "dur": 1.0,
              "vel": 105
            },
            {
              "note": "C#7",
              "pitch": 109,
              "beat": 12.0,
              "dur": 1.0,
              "vel": 105
            },
            {
              "note": "G#6",
              "pitch": 104,
              "beat": 13.48,
              "dur": 1.0,
              "vel": 105
            },
            {
              "note": "F3",
              "pitch": 65,
              "beat": 13.5,
              "dur": 1.0,
              "vel": 105
            },
            {
              "note": "C#5",
              "pitch": 85,
              "beat": 13.5,
              "dur": 1.0,
              "vel": 105
            },
            {
              "note": "C#6",
              "pitch": 97,
              "beat": 13.5,
              "dur": 1.0,
              "vel": 105
            },
            {
              "note": "C#7",
              "pitch": 109,
              "beat": 13.5,
              "dur": 1.0,
              "vel": 105
            },
            {
              "note": "G#6",
              "pitch": 104,
              "beat": 14.48,
              "dur": 1.5,
              "vel": 105
            },
            {
              "note": "F3",
              "pitch": 65,
              "beat": 14.5,
              "dur": 1.5,
              "vel": 105
            },
            {
              "note": "C#5",
              "pitch": 85,
              "beat": 14.5,
              "dur": 1.5,
              "vel": 105
            },
            {
              "note": "C#6",
              "pitch": 97,
              "beat": 14.5,
              "dur": 1.5,
              "vel": 105
            },
            {
              "note": "C#7",
              "pitch": 109,
              "beat": 14.5,
              "dur": 1.5,
              "vel": 105
            }
          ]
        },
        {
          "bar_start": 126.0,
          "bar_end": 126.25,
          "name": "",
          "notes": [
            {
              "note": "D#3",
              "pitch": 63,
              "beat": 0.0,
              "dur": 1.0,
              "vel": 105
            },
            {
              "note": "F#5",
              "pitch": 90,
              "beat": 0.0,
              "dur": 1.0,
              "vel": 105
            },
            {
              "note": "F#6",
              "pitch": 102,
              "beat": 0.0,
              "dur": 1.0,
              "vel": 105
            },
            {
              "note": "A#6",
              "pitch": 106,
              "beat": 0.0,
              "dur": 1.0,
              "vel": 105
            },
            {
              "note": "C#7",
              "pitch": 109,
              "beat": 0.0,
              "dur": 1.0,
              "vel": 105
            },
            {
              "note": "D#3",
              "pitch": 63,
              "beat": 1.5,
              "dur": 1.0,
              "vel": 105
            },
            {
              "note": "F#5",
              "pitch": 90,
              "beat": 1.5,
              "dur": 1.0,
              "vel": 105
            },
            {
              "note": "F#6",
              "pitch": 102,
              "beat": 1.5,
              "dur": 1.0,
              "vel": 105
            },
            {
              "note": "A#6",
              "pitch": 106,
              "beat": 1.5,
              "dur": 1.0,
              "vel": 105
            },
            {
              "note": "C#7",
              "pitch": 109,
              "beat": 1.5,
              "dur": 1.0,
              "vel": 105
            },
            {
              "note": "G#6",
              "pitch": 104,
              "beat": 3.98,
              "dur": 1.0,
              "vel": 105
            },
            {
              "note": "F3",
              "pitch": 65,
              "beat": 4.0,
              "dur": 1.0,
              "vel": 105
            },
            {
              "note": "C#6",
              "pitch": 97,
              "beat": 4.0,
              "dur": 1.0,
              "vel": 105
            },
            {
              "note": "C#7",
              "pitch": 109,
              "beat": 4.0,
              "dur": 1.0,
              "vel": 105
            },
            {
              "note": "C#5",
              "pitch": 85,
              "beat": 4.01,
              "dur": 1.0,
              "vel": 105
            },
            {
              "note": "G#6",
              "pitch": 104,
              "beat": 5.48,
              "dur": 1.25,
              "vel": 105
            },
            {
              "note": "F3",
              "pitch": 65,
              "beat": 5.5,
              "dur": 1.25,
              "vel": 105
            },
            {
              "note": "C#6",
              "pitch": 97,
              "beat": 5.5,
              "dur": 1.25,
              "vel": 105
            },
            {
              "note": "C#7",
              "pitch": 109,
              "beat": 5.5,
              "dur": 1.25,
              "vel": 105
            },
            {
              "note": "C#5",
              "pitch": 85,
              "beat": 5.51,
              "dur": 1.25,
              "vel": 105
            },
            {
              "note": "F#3",
              "pitch": 66,
              "beat": 8.0,
              "dur": 1.0,
              "vel": 105
            },
            {
              "note": "A#4",
              "pitch": 82,
              "beat": 8.0,
              "dur": 1.0,
              "vel": 105
            },
            {
              "note": "A#5",
              "pitch": 94,
              "beat": 8.0,
              "dur": 1.0,
              "vel": 105
            },
            {
              "note": "F6",
              "pitch": 101,
              "beat": 8.0,
              "dur": 1.0,
              "vel": 105
            },
            {
              "note": "A#6",
              "pitch": 106,
              "beat": 8.0,
              "dur": 1.0,
              "vel": 105
            },
            {
              "note": "C#7",
              "pitch": 109,
              "beat": 8.0,
              "dur": 1.0,
              "vel": 105
            },
            {
              "note": "F#3",
              "pitch": 66,
              "beat": 9.5,
              "dur": 1.0,
              "vel": 105
            },
            {
              "note": "A#4",
              "pitch": 82,
              "beat": 9.5,
              "dur": 1.0,
              "vel": 105
            },
            {
              "note": "A#5",
              "pitch": 94,
              "beat": 9.5,
              "dur": 1.0,
              "vel": 105
            },
            {
              "note": "F6",
              "pitch": 101,
              "beat": 9.5,
              "dur": 1.0,
              "vel": 105
            },
            {
              "note": "A#6",
              "pitch": 106,
              "beat": 9.5,
              "dur": 1.0,
              "vel": 105
            },
            {
              "note": "C#7",
              "pitch": 109,
              "beat": 9.5,
              "dur": 1.0,
              "vel": 105
            },
            {
              "note": "G#6",
              "pitch": 104,
              "beat": 11.98,
              "dur": 1.0,
              "vel": 105
            },
            {
              "note": "F3",
              "pitch": 65,
              "beat": 12.0,
              "dur": 1.0,
              "vel": 105
            },
            {
              "note": "C#5",
              "pitch": 85,
              "beat": 12.0,
              "dur": 1.0,
              "vel": 105
            },
            {
              "note": "C#6",
              "pitch": 97,
              "beat": 12.0,
              "dur": 1.0,
              "vel": 105
            },
            {
              "note": "C#7",
              "pitch": 109,
              "beat": 12.0,
              "dur": 1.0,
              "vel": 105
            },
            {
              "note": "G#6",
              "pitch": 104,
              "beat": 13.48,
              "dur": 1.0,
              "vel": 105
            },
            {
              "note": "F3",
              "pitch": 65,
              "beat": 13.5,
              "dur": 1.0,
              "vel": 105
            },
            {
              "note": "C#5",
              "pitch": 85,
              "beat": 13.5,
              "dur": 1.0,
              "vel": 105
            },
            {
              "note": "C#6",
              "pitch": 97,
              "beat": 13.5,
              "dur": 1.0,
              "vel": 105
            },
            {
              "note": "C#7",
              "pitch": 109,
              "beat": 13.5,
              "dur": 1.0,
              "vel": 105
            },
            {
              "note": "G#6",
              "pitch": 104,
              "beat": 14.48,
              "dur": 1.5,
              "vel": 105
            },
            {
              "note": "F3",
              "pitch": 65,
              "beat": 14.5,
              "dur": 1.5,
              "vel": 105
            },
            {
              "note": "C#5",
              "pitch": 85,
              "beat": 14.5,
              "dur": 1.5,
              "vel": 105
            },
            {
              "note": "C#6",
              "pitch": 97,
              "beat": 14.5,
              "dur": 1.5,
              "vel": 105
            },
            {
              "note": "C#7",
              "pitch": 109,
              "beat": 14.5,
              "dur": 1.5,
              "vel": 105
            }
          ]
        },
        {
          "bar_start": 127.0,
          "bar_end": 127.25,
          "name": "",
          "notes": [
            {
              "note": "D#3",
              "pitch": 63,
              "beat": 0.0,
              "dur": 1.0,
              "vel": 105
            },
            {
              "note": "F#5",
              "pitch": 90,
              "beat": 0.0,
              "dur": 1.0,
              "vel": 105
            },
            {
              "note": "F#6",
              "pitch": 102,
              "beat": 0.0,
              "dur": 1.0,
              "vel": 105
            },
            {
              "note": "A#6",
              "pitch": 106,
              "beat": 0.0,
              "dur": 1.0,
              "vel": 105
            },
            {
              "note": "C#7",
              "pitch": 109,
              "beat": 0.0,
              "dur": 1.0,
              "vel": 105
            },
            {
              "note": "D#3",
              "pitch": 63,
              "beat": 1.5,
              "dur": 1.0,
              "vel": 105
            },
            {
              "note": "F#5",
              "pitch": 90,
              "beat": 1.5,
              "dur": 1.0,
              "vel": 105
            },
            {
              "note": "F#6",
              "pitch": 102,
              "beat": 1.5,
              "dur": 1.0,
              "vel": 105
            },
            {
              "note": "A#6",
              "pitch": 106,
              "beat": 1.5,
              "dur": 1.0,
              "vel": 105
            },
            {
              "note": "C#7",
              "pitch": 109,
              "beat": 1.5,
              "dur": 1.0,
              "vel": 105
            },
            {
              "note": "G#6",
              "pitch": 104,
              "beat": 3.98,
              "dur": 1.0,
              "vel": 105
            },
            {
              "note": "F3",
              "pitch": 65,
              "beat": 4.0,
              "dur": 1.0,
              "vel": 105
            },
            {
              "note": "C#6",
              "pitch": 97,
              "beat": 4.0,
              "dur": 1.0,
              "vel": 105
            },
            {
              "note": "C#7",
              "pitch": 109,
              "beat": 4.0,
              "dur": 1.0,
              "vel": 105
            },
            {
              "note": "C#5",
              "pitch": 85,
              "beat": 4.01,
              "dur": 1.0,
              "vel": 105
            },
            {
              "note": "G#6",
              "pitch": 104,
              "beat": 5.48,
              "dur": 1.25,
              "vel": 105
            },
            {
              "note": "F3",
              "pitch": 65,
              "beat": 5.5,
              "dur": 1.25,
              "vel": 105
            },
            {
              "note": "C#6",
              "pitch": 97,
              "beat": 5.5,
              "dur": 1.25,
              "vel": 105
            },
            {
              "note": "C#7",
              "pitch": 109,
              "beat": 5.5,
              "dur": 1.25,
              "vel": 105
            },
            {
              "note": "C#5",
              "pitch": 85,
              "beat": 5.51,
              "dur": 1.25,
              "vel": 105
            },
            {
              "note": "F#3",
              "pitch": 66,
              "beat": 8.0,
              "dur": 1.0,
              "vel": 105
            },
            {
              "note": "A#4",
              "pitch": 82,
              "beat": 8.0,
              "dur": 1.0,
              "vel": 105
            },
            {
              "note": "A#5",
              "pitch": 94,
              "beat": 8.0,
              "dur": 1.0,
              "vel": 105
            },
            {
              "note": "F6",
              "pitch": 101,
              "beat": 8.0,
              "dur": 1.0,
              "vel": 105
            },
            {
              "note": "A#6",
              "pitch": 106,
              "beat": 8.0,
              "dur": 1.0,
              "vel": 105
            },
            {
              "note": "C#7",
              "pitch": 109,
              "beat": 8.0,
              "dur": 1.0,
              "vel": 105
            },
            {
              "note": "F#3",
              "pitch": 66,
              "beat": 9.5,
              "dur": 1.0,
              "vel": 105
            },
            {
              "note": "A#4",
              "pitch": 82,
              "beat": 9.5,
              "dur": 1.0,
              "vel": 105
            },
            {
              "note": "A#5",
              "pitch": 94,
              "beat": 9.5,
              "dur": 1.0,
              "vel": 105
            },
            {
              "note": "F6",
              "pitch": 101,
              "beat": 9.5,
              "dur": 1.0,
              "vel": 105
            },
            {
              "note": "A#6",
              "pitch": 106,
              "beat": 9.5,
              "dur": 1.0,
              "vel": 105
            },
            {
              "note": "C#7",
              "pitch": 109,
              "beat": 9.5,
              "dur": 1.0,
              "vel": 105
            },
            {
              "note": "G#6",
              "pitch": 104,
              "beat": 11.98,
              "dur": 1.0,
              "vel": 105
            },
            {
              "note": "F3",
              "pitch": 65,
              "beat": 12.0,
              "dur": 1.0,
              "vel": 105
            },
            {
              "note": "C#5",
              "pitch": 85,
              "beat": 12.0,
              "dur": 1.0,
              "vel": 105
            },
            {
              "note": "C#6",
              "pitch": 97,
              "beat": 12.0,
              "dur": 1.0,
              "vel": 105
            },
            {
              "note": "C#7",
              "pitch": 109,
              "beat": 12.0,
              "dur": 1.0,
              "vel": 105
            },
            {
              "note": "G#6",
              "pitch": 104,
              "beat": 13.48,
              "dur": 1.0,
              "vel": 105
            },
            {
              "note": "F3",
              "pitch": 65,
              "beat": 13.5,
              "dur": 1.0,
              "vel": 105
            },
            {
              "note": "C#5",
              "pitch": 85,
              "beat": 13.5,
              "dur": 1.0,
              "vel": 105
            },
            {
              "note": "C#6",
              "pitch": 97,
              "beat": 13.5,
              "dur": 1.0,
              "vel": 105
            },
            {
              "note": "C#7",
              "pitch": 109,
              "beat": 13.5,
              "dur": 1.0,
              "vel": 105
            },
            {
              "note": "G#6",
              "pitch": 104,
              "beat": 14.48,
              "dur": 1.5,
              "vel": 105
            },
            {
              "note": "F3",
              "pitch": 65,
              "beat": 14.5,
              "dur": 1.5,
              "vel": 105
            },
            {
              "note": "C#5",
              "pitch": 85,
              "beat": 14.5,
              "dur": 1.5,
              "vel": 105
            },
            {
              "note": "C#6",
              "pitch": 97,
              "beat": 14.5,
              "dur": 1.5,
              "vel": 105
            },
            {
              "note": "C#7",
              "pitch": 109,
              "beat": 14.5,
              "dur": 1.5,
              "vel": 105
            }
          ]
        },
        {
          "bar_start": 136.0,
          "bar_end": 159.0,
          "name": "",
          "notes": [
            {
              "note": "D#3",
              "pitch": 63,
              "beat": 0.0,
              "dur": 1.0,
              "vel": 105
            },
            {
              "note": "F#5",
              "pitch": 90,
              "beat": 0.0,
              "dur": 1.0,
              "vel": 105
            },
            {
              "note": "F#6",
              "pitch": 102,
              "beat": 0.0,
              "dur": 1.0,
              "vel": 105
            },
            {
              "note": "A#6",
              "pitch": 106,
              "beat": 0.0,
              "dur": 1.0,
              "vel": 105
            },
            {
              "note": "C#7",
              "pitch": 109,
              "beat": 0.0,
              "dur": 1.0,
              "vel": 105
            },
            {
              "note": "D#3",
              "pitch": 63,
              "beat": 1.5,
              "dur": 1.0,
              "vel": 105
            },
            {
              "note": "F#5",
              "pitch": 90,
              "beat": 1.5,
              "dur": 1.0,
              "vel": 105
            },
            {
              "note": "F#6",
              "pitch": 102,
              "beat": 1.5,
              "dur": 1.0,
              "vel": 105
            },
            {
              "note": "A#6",
              "pitch": 106,
              "beat": 1.5,
              "dur": 1.0,
              "vel": 105
            },
            {
              "note": "C#7",
              "pitch": 109,
              "beat": 1.5,
              "dur": 1.0,
              "vel": 105
            },
            {
              "note": "G#6",
              "pitch": 104,
              "beat": 3.98,
              "dur": 1.0,
              "vel": 105
            },
            {
              "note": "F3",
              "pitch": 65,
              "beat": 4.0,
              "dur": 1.0,
              "vel": 105
            },
            {
              "note": "C#6",
              "pitch": 97,
              "beat": 4.0,
              "dur": 1.0,
              "vel": 105
            },
            {
              "note": "C#7",
              "pitch": 109,
              "beat": 4.0,
              "dur": 1.0,
              "vel": 105
            },
            {
              "note": "C#5",
              "pitch": 85,
              "beat": 4.01,
              "dur": 1.0,
              "vel": 105
            },
            {
              "note": "G#6",
              "pitch": 104,
              "beat": 5.48,
              "dur": 1.25,
              "vel": 105
            },
            {
              "note": "F3",
              "pitch": 65,
              "beat": 5.5,
              "dur": 1.25,
              "vel": 105
            },
            {
              "note": "C#6",
              "pitch": 97,
              "beat": 5.5,
              "dur": 1.25,
              "vel": 105
            },
            {
              "note": "C#7",
              "pitch": 109,
              "beat": 5.5,
              "dur": 1.25,
              "vel": 105
            },
            {
              "note": "C#5",
              "pitch": 85,
              "beat": 5.51,
              "dur": 1.25,
              "vel": 105
            },
            {
              "note": "F#3",
              "pitch": 66,
              "beat": 8.0,
              "dur": 1.0,
              "vel": 105
            },
            {
              "note": "A#4",
              "pitch": 82,
              "beat": 8.0,
              "dur": 1.0,
              "vel": 105
            },
            {
              "note": "A#5",
              "pitch": 94,
              "beat": 8.0,
              "dur": 1.0,
              "vel": 105
            },
            {
              "note": "F6",
              "pitch": 101,
              "beat": 8.0,
              "dur": 1.0,
              "vel": 105
            },
            {
              "note": "A#6",
              "pitch": 106,
              "beat": 8.0,
              "dur": 1.0,
              "vel": 105
            },
            {
              "note": "C#7",
              "pitch": 109,
              "beat": 8.0,
              "dur": 1.0,
              "vel": 105
            },
            {
              "note": "F#3",
              "pitch": 66,
              "beat": 9.5,
              "dur": 1.0,
              "vel": 105
            },
            {
              "note": "A#4",
              "pitch": 82,
              "beat": 9.5,
              "dur": 1.0,
              "vel": 105
            },
            {
              "note": "A#5",
              "pitch": 94,
              "beat": 9.5,
              "dur": 1.0,
              "vel": 105
            },
            {
              "note": "F6",
              "pitch": 101,
              "beat": 9.5,
              "dur": 1.0,
              "vel": 105
            },
            {
              "note": "A#6",
              "pitch": 106,
              "beat": 9.5,
              "dur": 1.0,
              "vel": 105
            },
            {
              "note": "C#7",
              "pitch": 109,
              "beat": 9.5,
              "dur": 1.0,
              "vel": 105
            },
            {
              "note": "G#6",
              "pitch": 104,
              "beat": 11.98,
              "dur": 1.0,
              "vel": 105
            },
            {
              "note": "F3",
              "pitch": 65,
              "beat": 12.0,
              "dur": 1.0,
              "vel": 105
            },
            {
              "note": "C#5",
              "pitch": 85,
              "beat": 12.0,
              "dur": 1.0,
              "vel": 105
            },
            {
              "note": "C#6",
              "pitch": 97,
              "beat": 12.0,
              "dur": 1.0,
              "vel": 105
            },
            {
              "note": "C#7",
              "pitch": 109,
              "beat": 12.0,
              "dur": 1.0,
              "vel": 105
            },
            {
              "note": "G#6",
              "pitch": 104,
              "beat": 13.48,
              "dur": 1.0,
              "vel": 105
            },
            {
              "note": "F3",
              "pitch": 65,
              "beat": 13.5,
              "dur": 1.0,
              "vel": 105
            },
            {
              "note": "C#5",
              "pitch": 85,
              "beat": 13.5,
              "dur": 1.0,
              "vel": 105
            },
            {
              "note": "C#6",
              "pitch": 97,
              "beat": 13.5,
              "dur": 1.0,
              "vel": 105
            },
            {
              "note": "C#7",
              "pitch": 109,
              "beat": 13.5,
              "dur": 1.0,
              "vel": 105
            },
            {
              "note": "G#6",
              "pitch": 104,
              "beat": 14.48,
              "dur": 1.5,
              "vel": 105
            },
            {
              "note": "F3",
              "pitch": 65,
              "beat": 14.5,
              "dur": 1.5,
              "vel": 105
            },
            {
              "note": "C#5",
              "pitch": 85,
              "beat": 14.5,
              "dur": 1.5,
              "vel": 105
            },
            {
              "note": "C#6",
              "pitch": 97,
              "beat": 14.5,
              "dur": 1.5,
              "vel": 105
            },
            {
              "note": "C#7",
              "pitch": 109,
              "beat": 14.5,
              "dur": 1.5,
              "vel": 105
            }
          ]
        }
      ],
      "automations": [],
      "children": []
    },
    "134": {
      "id": "134",
      "name": "chord",
      "type": "MidiTrack",
      "group_id": "133",
      "devices": [
        {
          "type": "PluginDevice",
          "plugin": "Serum_x64",
          "preset": "",
          "vst_params": []
        },
        {
          "type": "Eq8",
          "bands": []
        },
        {
          "type": "StereoGain",
          "On": "true",
          "PhaseInvertL": "false",
          "PhaseInvertR": "false",
          "ChannelMode": "1",
          "StereoWidth": "0.1111111194",
          "MidSideBalance": "1",
          "Mono": "false",
          "BassMono": "false",
          "BassMonoFrequency": "120",
          "Balance": "0",
          "Gain": "1",
          "LegacyGain": "0",
          "Mute": "false",
          "DcFilter": "false"
        }
      ],
      "clips": [
        {
          "bar_start": 56.0,
          "bar_end": 68.0,
          "name": "",
          "notes": [
            {
              "note": "F#1",
              "pitch": 42,
              "beat": 0.0,
              "dur": 1.0,
              "vel": 105
            },
            {
              "note": "F#2",
              "pitch": 54,
              "beat": 0.0,
              "dur": 1.0,
              "vel": 105
            },
            {
              "note": "A#2",
              "pitch": 58,
              "beat": 0.0,
              "dur": 1.0,
              "vel": 105
            },
            {
              "note": "C#3",
              "pitch": 61,
              "beat": 0.0,
              "dur": 1.0,
              "vel": 105
            },
            {
              "note": "F3",
              "pitch": 65,
              "beat": 0.0,
              "dur": 1.0,
              "vel": 105
            },
            {
              "note": "F#1",
              "pitch": 42,
              "beat": 1.5,
              "dur": 1.0,
              "vel": 105
            },
            {
              "note": "F#2",
              "pitch": 54,
              "beat": 1.5,
              "dur": 1.0,
              "vel": 105
            },
            {
              "note": "A#2",
              "pitch": 58,
              "beat": 1.5,
              "dur": 1.0,
              "vel": 105
            },
            {
              "note": "C#3",
              "pitch": 61,
              "beat": 1.5,
              "dur": 1.0,
              "vel": 105
            },
            {
              "note": "F3",
              "pitch": 65,
              "beat": 1.5,
              "dur": 1.0,
              "vel": 105
            },
            {
              "note": "G#2",
              "pitch": 56,
              "beat": 3.98,
              "dur": 1.0,
              "vel": 105
            },
            {
              "note": "C#2",
              "pitch": 49,
              "beat": 4.0,
              "dur": 1.0,
              "vel": 105
            },
            {
              "note": "C#3",
              "pitch": 61,
              "beat": 4.0,
              "dur": 1.0,
              "vel": 105
            },
            {
              "note": "F3",
              "pitch": 65,
              "beat": 4.0,
              "dur": 1.0,
              "vel": 105
            },
            {
              "note": "C#1",
              "pitch": 37,
              "beat": 4.01,
              "dur": 1.0,
              "vel": 105
            },
            {
              "note": "G#2",
              "pitch": 56,
              "beat": 5.48,
              "dur": 1.0,
              "vel": 105
            },
            {
              "note": "C#2",
              "pitch": 49,
              "beat": 5.5,
              "dur": 1.0,
              "vel": 105
            },
            {
              "note": "C#3",
              "pitch": 61,
              "beat": 5.5,
              "dur": 1.0,
              "vel": 105
            },
            {
              "note": "F3",
              "pitch": 65,
              "beat": 5.5,
              "dur": 1.0,
              "vel": 105
            },
            {
              "note": "C#1",
              "pitch": 37,
              "beat": 5.51,
              "dur": 1.0,
              "vel": 105
            },
            {
              "note": "A#0",
              "pitch": 34,
              "beat": 8.0,
              "dur": 1.0,
              "vel": 105
            },
            {
              "note": "A#1",
              "pitch": 46,
              "beat": 8.0,
              "dur": 1.0,
              "vel": 105
            },
            {
              "note": "F2",
              "pitch": 53,
              "beat": 8.0,
              "dur": 1.0,
              "vel": 105
            },
            {
              "note": "A#2",
              "pitch": 58,
              "beat": 8.0,
              "dur": 1.0,
              "vel": 105
            },
            {
              "note": "C#3",
              "pitch": 61,
              "beat": 8.0,
              "dur": 1.0,
              "vel": 105
            },
            {
              "note": "A#0",
              "pitch": 34,
              "beat": 9.5,
              "dur": 1.0,
              "vel": 105
            },
            {
              "note": "A#1",
              "pitch": 46,
              "beat": 9.5,
              "dur": 1.0,
              "vel": 105
            },
            {
              "note": "F2",
              "pitch": 53,
              "beat": 9.5,
              "dur": 1.0,
              "vel": 105
            },
            {
              "note": "A#2",
              "pitch": 58,
              "beat": 9.5,
              "dur": 1.0,
              "vel": 105
            },
            {
              "note": "C#3",
              "pitch": 61,
              "beat": 9.5,
              "dur": 1.0,
              "vel": 105
            },
            {
              "note": "G#2",
              "pitch": 56,
              "beat": 11.98,
              "dur": 1.0,
              "vel": 105
            },
            {
              "note": "C#1",
              "pitch": 37,
              "beat": 12.0,
              "dur": 1.0,
              "vel": 105
            },
            {
              "note": "C#2",
              "pitch": 49,
              "beat": 12.0,
              "dur": 1.0,
              "vel": 105
            },
            {
              "note": "C#3",
              "pitch": 61,
              "beat": 12.0,
              "dur": 1.0,
              "vel": 105
            },
            {
              "note": "F3",
              "pitch": 65,
              "beat": 12.0,
              "dur": 1.0,
              "vel": 105
            },
            {
              "note": "G#2",
              "pitch": 56,
              "beat": 13.48,
              "dur": 1.0,
              "vel": 105
            },
            {
              "note": "C#1",
              "pitch": 37,
              "beat": 13.5,
              "dur": 1.0,
              "vel": 105
            },
            {
              "note": "C#2",
              "pitch": 49,
              "beat": 13.5,
              "dur": 1.0,
              "vel": 105
            },
            {
              "note": "C#3",
              "pitch": 61,
              "beat": 13.5,
              "dur": 1.0,
              "vel": 105
            },
            {
              "note": "F3",
              "pitch": 65,
              "beat": 13.5,
              "dur": 1.0,
              "vel": 105
            },
            {
              "note": "G#2",
              "pitch": 56,
              "beat": 14.48,
              "dur": 1.5,
              "vel": 105
            },
            {
              "note": "C#1",
              "pitch": 37,
              "beat": 14.5,
              "dur": 1.5,
              "vel": 105
            },
            {
              "note": "C#2",
              "pitch": 49,
              "beat": 14.5,
              "dur": 1.5,
              "vel": 105
            },
            {
              "note": "C#3",
              "pitch": 61,
              "beat": 14.5,
              "dur": 1.5,
              "vel": 105
            },
            {
              "note": "F3",
              "pitch": 65,
              "beat": 14.5,
              "dur": 1.5,
              "vel": 105
            }
          ]
        },
        {
          "bar_start": 68.0,
          "bar_end": 72.0,
          "name": "",
          "notes": [
            {
              "note": "F#1",
              "pitch": 42,
              "beat": 0.0,
              "dur": 1.0,
              "vel": 105
            },
            {
              "note": "F#2",
              "pitch": 54,
              "beat": 0.0,
              "dur": 1.0,
              "vel": 105
            },
            {
              "note": "A#2",
              "pitch": 58,
              "beat": 0.0,
              "dur": 1.0,
              "vel": 105
            },
            {
              "note": "C#3",
              "pitch": 61,
              "beat": 0.0,
              "dur": 1.0,
              "vel": 105
            },
            {
              "note": "F3",
              "pitch": 65,
              "beat": 0.0,
              "dur": 1.0,
              "vel": 105
            },
            {
              "note": "F#1",
              "pitch": 42,
              "beat": 1.5,
              "dur": 1.0,
              "vel": 105
            },
            {
              "note": "F#2",
              "pitch": 54,
              "beat": 1.5,
              "dur": 1.0,
              "vel": 105
            },
            {
              "note": "A#2",
              "pitch": 58,
              "beat": 1.5,
              "dur": 1.0,
              "vel": 105
            },
            {
              "note": "C#3",
              "pitch": 61,
              "beat": 1.5,
              "dur": 1.0,
              "vel": 105
            },
            {
              "note": "F3",
              "pitch": 65,
              "beat": 1.5,
              "dur": 1.0,
              "vel": 105
            },
            {
              "note": "G#2",
              "pitch": 56,
              "beat": 3.98,
              "dur": 1.0,
              "vel": 105
            },
            {
              "note": "C#2",
              "pitch": 49,
              "beat": 4.0,
              "dur": 1.0,
              "vel": 105
            },
            {
              "note": "C#3",
              "pitch": 61,
              "beat": 4.0,
              "dur": 1.0,
              "vel": 105
            },
            {
              "note": "F3",
              "pitch": 65,
              "beat": 4.0,
              "dur": 1.0,
              "vel": 105
            },
            {
              "note": "C#1",
              "pitch": 37,
              "beat": 4.01,
              "dur": 1.0,
              "vel": 105
            },
            {
              "note": "G#2",
              "pitch": 56,
              "beat": 5.48,
              "dur": 1.0,
              "vel": 105
            },
            {
              "note": "C#2",
              "pitch": 49,
              "beat": 5.5,
              "dur": 1.0,
              "vel": 105
            },
            {
              "note": "C#3",
              "pitch": 61,
              "beat": 5.5,
              "dur": 1.0,
              "vel": 105
            },
            {
              "note": "F3",
              "pitch": 65,
              "beat": 5.5,
              "dur": 1.0,
              "vel": 105
            },
            {
              "note": "C#1",
              "pitch": 37,
              "beat": 5.51,
              "dur": 1.0,
              "vel": 105
            },
            {
              "note": "A#0",
              "pitch": 34,
              "beat": 8.0,
              "dur": 1.0,
              "vel": 105
            },
            {
              "note": "A#1",
              "pitch": 46,
              "beat": 8.0,
              "dur": 1.0,
              "vel": 105
            },
            {
              "note": "F2",
              "pitch": 53,
              "beat": 8.0,
              "dur": 1.0,
              "vel": 105
            },
            {
              "note": "A#2",
              "pitch": 58,
              "beat": 8.0,
              "dur": 1.0,
              "vel": 105
            },
            {
              "note": "C#3",
              "pitch": 61,
              "beat": 8.0,
              "dur": 1.0,
              "vel": 105
            },
            {
              "note": "A#0",
              "pitch": 34,
              "beat": 9.5,
              "dur": 1.0,
              "vel": 105
            },
            {
              "note": "A#1",
              "pitch": 46,
              "beat": 9.5,
              "dur": 1.0,
              "vel": 105
            },
            {
              "note": "F2",
              "pitch": 53,
              "beat": 9.5,
              "dur": 1.0,
              "vel": 105
            },
            {
              "note": "A#2",
              "pitch": 58,
              "beat": 9.5,
              "dur": 1.0,
              "vel": 105
            },
            {
              "note": "C#3",
              "pitch": 61,
              "beat": 9.5,
              "dur": 1.0,
              "vel": 105
            },
            {
              "note": "G#2",
              "pitch": 56,
              "beat": 11.98,
              "dur": 0.02,
              "vel": 105
            },
            {
              "note": "A#0",
              "pitch": 34,
              "beat": 12.0,
              "dur": 1.0,
              "vel": 105
            },
            {
              "note": "A#1",
              "pitch": 46,
              "beat": 12.0,
              "dur": 1.0,
              "vel": 105
            },
            {
              "note": "F2",
              "pitch": 53,
              "beat": 12.0,
              "dur": 1.0,
              "vel": 105
            },
            {
              "note": "A#2",
              "pitch": 58,
              "beat": 12.0,
              "dur": 1.0,
              "vel": 105
            },
            {
              "note": "C#3",
              "pitch": 61,
              "beat": 12.0,
              "dur": 1.0,
              "vel": 105
            },
            {
              "note": "A#0",
              "pitch": 34,
              "beat": 13.5,
              "dur": 1.0,
              "vel": 105
            },
            {
              "note": "A#1",
              "pitch": 46,
              "beat": 13.5,
              "dur": 1.0,
              "vel": 105
            },
            {
              "note": "F2",
              "pitch": 53,
              "beat": 13.5,
              "dur": 1.0,
              "vel": 105
            },
            {
              "note": "A#2",
              "pitch": 58,
              "beat": 13.5,
              "dur": 1.0,
              "vel": 105
            },
            {
              "note": "C#3",
              "pitch": 61,
              "beat": 13.5,
              "dur": 1.0,
              "vel": 105
            },
            {
              "note": "G#2",
              "pitch": 56,
              "beat": 15.98,
              "dur": 1.0,
              "vel": 105
            }
          ]
        },
        {
          "bar_start": 72.0,
          "bar_end": 78.0,
          "name": "",
          "notes": [
            {
              "note": "F#1",
              "pitch": 42,
              "beat": 0.0,
              "dur": 1.0,
              "vel": 105
            },
            {
              "note": "F#2",
              "pitch": 54,
              "beat": 0.0,
              "dur": 1.0,
              "vel": 105
            },
            {
              "note": "A#2",
              "pitch": 58,
              "beat": 0.0,
              "dur": 1.0,
              "vel": 105
            },
            {
              "note": "C#3",
              "pitch": 61,
              "beat": 0.0,
              "dur": 1.0,
              "vel": 105
            },
            {
              "note": "F3",
              "pitch": 65,
              "beat": 0.0,
              "dur": 1.0,
              "vel": 105
            },
            {
              "note": "F#1",
              "pitch": 42,
              "beat": 1.5,
              "dur": 1.0,
              "vel": 105
            },
            {
              "note": "F#2",
              "pitch": 54,
              "beat": 1.5,
              "dur": 1.0,
              "vel": 105
            },
            {
              "note": "A#2",
              "pitch": 58,
              "beat": 1.5,
              "dur": 1.0,
              "vel": 105
            },
            {
              "note": "C#3",
              "pitch": 61,
              "beat": 1.5,
              "dur": 1.0,
              "vel": 105
            },
            {
              "note": "F3",
              "pitch": 65,
              "beat": 1.5,
              "dur": 1.0,
              "vel": 105
            },
            {
              "note": "G#2",
              "pitch": 56,
              "beat": 3.98,
              "dur": 1.0,
              "vel": 105
            },
            {
              "note": "C#2",
              "pitch": 49,
              "beat": 4.0,
              "dur": 1.0,
              "vel": 105
            },
            {
              "note": "C#3",
              "pitch": 61,
              "beat": 4.0,
              "dur": 1.0,
              "vel": 105
            },
            {
              "note": "F3",
              "pitch": 65,
              "beat": 4.0,
              "dur": 1.0,
              "vel": 105
            },
            {
              "note": "C#1",
              "pitch": 37,
              "beat": 4.01,
              "dur": 1.0,
              "vel": 105
            },
            {
              "note": "G#2",
              "pitch": 56,
              "beat": 5.48,
              "dur": 1.0,
              "vel": 105
            },
            {
              "note": "C#2",
              "pitch": 49,
              "beat": 5.5,
              "dur": 1.0,
              "vel": 105
            },
            {
              "note": "C#3",
              "pitch": 61,
              "beat": 5.5,
              "dur": 1.0,
              "vel": 105
            },
            {
              "note": "F3",
              "pitch": 65,
              "beat": 5.5,
              "dur": 1.0,
              "vel": 105
            },
            {
              "note": "C#1",
              "pitch": 37,
              "beat": 5.51,
              "dur": 1.0,
              "vel": 105
            },
            {
              "note": "A#0",
              "pitch": 34,
              "beat": 8.0,
              "dur": 1.0,
              "vel": 105
            },
            {
              "note": "A#1",
              "pitch": 46,
              "beat": 8.0,
              "dur": 1.0,
              "vel": 105
            },
            {
              "note": "F2",
              "pitch": 53,
              "beat": 8.0,
              "dur": 1.0,
              "vel": 105
            },
            {
              "note": "A#2",
              "pitch": 58,
              "beat": 8.0,
              "dur": 1.0,
              "vel": 105
            },
            {
              "note": "C#3",
              "pitch": 61,
              "beat": 8.0,
              "dur": 1.0,
              "vel": 105
            },
            {
              "note": "A#0",
              "pitch": 34,
              "beat": 9.5,
              "dur": 1.0,
              "vel": 105
            },
            {
              "note": "A#1",
              "pitch": 46,
              "beat": 9.5,
              "dur": 1.0,
              "vel": 105
            },
            {
              "note": "F2",
              "pitch": 53,
              "beat": 9.5,
              "dur": 1.0,
              "vel": 105
            },
            {
              "note": "A#2",
              "pitch": 58,
              "beat": 9.5,
              "dur": 1.0,
              "vel": 105
            },
            {
              "note": "C#3",
              "pitch": 61,
              "beat": 9.5,
              "dur": 1.0,
              "vel": 105
            },
            {
              "note": "G#2",
              "pitch": 56,
              "beat": 11.98,
              "dur": 1.0,
              "vel": 105
            },
            {
              "note": "C#1",
              "pitch": 37,
              "beat": 12.0,
              "dur": 1.0,
              "vel": 105
            },
            {
              "note": "C#2",
              "pitch": 49,
              "beat": 12.0,
              "dur": 1.0,
              "vel": 105
            },
            {
              "note": "C#3",
              "pitch": 61,
              "beat": 12.0,
              "dur": 1.0,
              "vel": 105
            },
            {
              "note": "F3",
              "pitch": 65,
              "beat": 12.0,
              "dur": 1.0,
              "vel": 105
            },
            {
              "note": "G#2",
              "pitch": 56,
              "beat": 13.48,
              "dur": 1.0,
              "vel": 105
            },
            {
              "note": "C#1",
              "pitch": 37,
              "beat": 13.5,
              "dur": 1.0,
              "vel": 105
            },
            {
              "note": "C#2",
              "pitch": 49,
              "beat": 13.5,
              "dur": 1.0,
              "vel": 105
            },
            {
              "note": "C#3",
              "pitch": 61,
              "beat": 13.5,
              "dur": 1.0,
              "vel": 105
            },
            {
              "note": "F3",
              "pitch": 65,
              "beat": 13.5,
              "dur": 1.0,
              "vel": 105
            },
            {
              "note": "G#2",
              "pitch": 56,
              "beat": 14.48,
              "dur": 1.5,
              "vel": 105
            },
            {
              "note": "C#1",
              "pitch": 37,
              "beat": 14.5,
              "dur": 1.5,
              "vel": 105
            },
            {
              "note": "C#2",
              "pitch": 49,
              "beat": 14.5,
              "dur": 1.5,
              "vel": 105
            },
            {
              "note": "C#3",
              "pitch": 61,
              "beat": 14.5,
              "dur": 1.5,
              "vel": 105
            },
            {
              "note": "F3",
              "pitch": 65,
              "beat": 14.5,
              "dur": 1.5,
              "vel": 105
            }
          ]
        },
        {
          "bar_start": 80.0,
          "bar_end": 95.0,
          "name": "",
          "notes": [
            {
              "note": "F#1",
              "pitch": 42,
              "beat": 0.0,
              "dur": 1.0,
              "vel": 105
            },
            {
              "note": "F#2",
              "pitch": 54,
              "beat": 0.0,
              "dur": 1.0,
              "vel": 105
            },
            {
              "note": "A#2",
              "pitch": 58,
              "beat": 0.0,
              "dur": 1.0,
              "vel": 105
            },
            {
              "note": "C#3",
              "pitch": 61,
              "beat": 0.0,
              "dur": 1.0,
              "vel": 105
            },
            {
              "note": "F3",
              "pitch": 65,
              "beat": 0.0,
              "dur": 1.0,
              "vel": 105
            },
            {
              "note": "F#1",
              "pitch": 42,
              "beat": 1.5,
              "dur": 1.0,
              "vel": 105
            },
            {
              "note": "F#2",
              "pitch": 54,
              "beat": 1.5,
              "dur": 1.0,
              "vel": 105
            },
            {
              "note": "A#2",
              "pitch": 58,
              "beat": 1.5,
              "dur": 1.0,
              "vel": 105
            },
            {
              "note": "C#3",
              "pitch": 61,
              "beat": 1.5,
              "dur": 1.0,
              "vel": 105
            },
            {
              "note": "F3",
              "pitch": 65,
              "beat": 1.5,
              "dur": 1.0,
              "vel": 105
            },
            {
              "note": "G#2",
              "pitch": 56,
              "beat": 3.98,
              "dur": 1.0,
              "vel": 105
            },
            {
              "note": "C#2",
              "pitch": 49,
              "beat": 4.0,
              "dur": 1.0,
              "vel": 105
            },
            {
              "note": "C#3",
              "pitch": 61,
              "beat": 4.0,
              "dur": 1.0,
              "vel": 105
            },
            {
              "note": "F3",
              "pitch": 65,
              "beat": 4.0,
              "dur": 1.0,
              "vel": 105
            },
            {
              "note": "C#1",
              "pitch": 37,
              "beat": 4.01,
              "dur": 1.0,
              "vel": 105
            },
            {
              "note": "G#2",
              "pitch": 56,
              "beat": 5.48,
              "dur": 1.0,
              "vel": 105
            },
            {
              "note": "C#2",
              "pitch": 49,
              "beat": 5.5,
              "dur": 1.0,
              "vel": 105
            },
            {
              "note": "C#3",
              "pitch": 61,
              "beat": 5.5,
              "dur": 1.0,
              "vel": 105
            },
            {
              "note": "F3",
              "pitch": 65,
              "beat": 5.5,
              "dur": 1.0,
              "vel": 105
            },
            {
              "note": "C#1",
              "pitch": 37,
              "beat": 5.51,
              "dur": 1.0,
              "vel": 105
            },
            {
              "note": "A#0",
              "pitch": 34,
              "beat": 8.0,
              "dur": 1.0,
              "vel": 105
            },
            {
              "note": "A#1",
              "pitch": 46,
              "beat": 8.0,
              "dur": 1.0,
              "vel": 105
            },
            {
              "note": "F2",
              "pitch": 53,
              "beat": 8.0,
              "dur": 1.0,
              "vel": 105
            },
            {
              "note": "A#2",
              "pitch": 58,
              "beat": 8.0,
              "dur": 1.0,
              "vel": 105
            },
            {
              "note": "C#3",
              "pitch": 61,
              "beat": 8.0,
              "dur": 1.0,
              "vel": 105
            },
            {
              "note": "A#0",
              "pitch": 34,
              "beat": 9.5,
              "dur": 1.0,
              "vel": 105
            },
            {
              "note": "A#1",
              "pitch": 46,
              "beat": 9.5,
              "dur": 1.0,
              "vel": 105
            },
            {
              "note": "F2",
              "pitch": 53,
              "beat": 9.5,
              "dur": 1.0,
              "vel": 105
            },
            {
              "note": "A#2",
              "pitch": 58,
              "beat": 9.5,
              "dur": 1.0,
              "vel": 105
            },
            {
              "note": "C#3",
              "pitch": 61,
              "beat": 9.5,
              "dur": 1.0,
              "vel": 105
            },
            {
              "note": "G#2",
              "pitch": 56,
              "beat": 11.98,
              "dur": 1.0,
              "vel": 105
            },
            {
              "note": "C#1",
              "pitch": 37,
              "beat": 12.0,
              "dur": 1.0,
              "vel": 105
            },
            {
              "note": "C#2",
              "pitch": 49,
              "beat": 12.0,
              "dur": 1.0,
              "vel": 105
            },
            {
              "note": "C#3",
              "pitch": 61,
              "beat": 12.0,
              "dur": 1.0,
              "vel": 105
            },
            {
              "note": "F3",
              "pitch": 65,
              "beat": 12.0,
              "dur": 1.0,
              "vel": 105
            },
            {
              "note": "G#2",
              "pitch": 56,
              "beat": 13.48,
              "dur": 1.0,
              "vel": 105
            },
            {
              "note": "C#1",
              "pitch": 37,
              "beat": 13.5,
              "dur": 1.0,
              "vel": 105
            },
            {
              "note": "C#2",
              "pitch": 49,
              "beat": 13.5,
              "dur": 1.0,
              "vel": 105
            },
            {
              "note": "C#3",
              "pitch": 61,
              "beat": 13.5,
              "dur": 1.0,
              "vel": 105
            },
            {
              "note": "F3",
              "pitch": 65,
              "beat": 13.5,
              "dur": 1.0,
              "vel": 105
            },
            {
              "note": "G#2",
              "pitch": 56,
              "beat": 14.48,
              "dur": 1.5,
              "vel": 105
            },
            {
              "note": "C#1",
              "pitch": 37,
              "beat": 14.5,
              "dur": 1.5,
              "vel": 105
            },
            {
              "note": "C#2",
              "pitch": 49,
              "beat": 14.5,
              "dur": 1.5,
              "vel": 105
            },
            {
              "note": "C#3",
              "pitch": 61,
              "beat": 14.5,
              "dur": 1.5,
              "vel": 105
            },
            {
              "note": "F3",
              "pitch": 65,
              "beat": 14.5,
              "dur": 1.5,
              "vel": 105
            }
          ]
        },
        {
          "bar_start": 96.0,
          "bar_end": 111.0,
          "name": "",
          "notes": [
            {
              "note": "F#1",
              "pitch": 42,
              "beat": 0.0,
              "dur": 1.0,
              "vel": 105
            },
            {
              "note": "F#2",
              "pitch": 54,
              "beat": 0.0,
              "dur": 1.0,
              "vel": 105
            },
            {
              "note": "A#2",
              "pitch": 58,
              "beat": 0.0,
              "dur": 1.0,
              "vel": 105
            },
            {
              "note": "C#3",
              "pitch": 61,
              "beat": 0.0,
              "dur": 1.0,
              "vel": 105
            },
            {
              "note": "F3",
              "pitch": 65,
              "beat": 0.0,
              "dur": 1.0,
              "vel": 105
            },
            {
              "note": "F#1",
              "pitch": 42,
              "beat": 1.5,
              "dur": 1.0,
              "vel": 105
            },
            {
              "note": "F#2",
              "pitch": 54,
              "beat": 1.5,
              "dur": 1.0,
              "vel": 105
            },
            {
              "note": "A#2",
              "pitch": 58,
              "beat": 1.5,
              "dur": 1.0,
              "vel": 105
            },
            {
              "note": "C#3",
              "pitch": 61,
              "beat": 1.5,
              "dur": 1.0,
              "vel": 105
            },
            {
              "note": "F3",
              "pitch": 65,
              "beat": 1.5,
              "dur": 1.0,
              "vel": 105
            },
            {
              "note": "G#2",
              "pitch": 56,
              "beat": 3.98,
              "dur": 1.0,
              "vel": 105
            },
            {
              "note": "C#2",
              "pitch": 49,
              "beat": 4.0,
              "dur": 1.0,
              "vel": 105
            },
            {
              "note": "C#3",
              "pitch": 61,
              "beat": 4.0,
              "dur": 1.0,
              "vel": 105
            },
            {
              "note": "F3",
              "pitch": 65,
              "beat": 4.0,
              "dur": 1.0,
              "vel": 105
            },
            {
              "note": "C#1",
              "pitch": 37,
              "beat": 4.01,
              "dur": 1.0,
              "vel": 105
            },
            {
              "note": "G#2",
              "pitch": 56,
              "beat": 5.48,
              "dur": 1.0,
              "vel": 105
            },
            {
              "note": "C#2",
              "pitch": 49,
              "beat": 5.5,
              "dur": 1.0,
              "vel": 105
            },
            {
              "note": "C#3",
              "pitch": 61,
              "beat": 5.5,
              "dur": 1.0,
              "vel": 105
            },
            {
              "note": "F3",
              "pitch": 65,
              "beat": 5.5,
              "dur": 1.0,
              "vel": 105
            },
            {
              "note": "C#1",
              "pitch": 37,
              "beat": 5.51,
              "dur": 1.0,
              "vel": 105
            },
            {
              "note": "A#0",
              "pitch": 34,
              "beat": 8.0,
              "dur": 1.0,
              "vel": 105
            },
            {
              "note": "A#1",
              "pitch": 46,
              "beat": 8.0,
              "dur": 1.0,
              "vel": 105
            },
            {
              "note": "F2",
              "pitch": 53,
              "beat": 8.0,
              "dur": 1.0,
              "vel": 105
            },
            {
              "note": "A#2",
              "pitch": 58,
              "beat": 8.0,
              "dur": 1.0,
              "vel": 105
            },
            {
              "note": "C#3",
              "pitch": 61,
              "beat": 8.0,
              "dur": 1.0,
              "vel": 105
            },
            {
              "note": "A#0",
              "pitch": 34,
              "beat": 9.5,
              "dur": 1.0,
              "vel": 105
            },
            {
              "note": "A#1",
              "pitch": 46,
              "beat": 9.5,
              "dur": 1.0,
              "vel": 105
            },
            {
              "note": "F2",
              "pitch": 53,
              "beat": 9.5,
              "dur": 1.0,
              "vel": 105
            },
            {
              "note": "A#2",
              "pitch": 58,
              "beat": 9.5,
              "dur": 1.0,
              "vel": 105
            },
            {
              "note": "C#3",
              "pitch": 61,
              "beat": 9.5,
              "dur": 1.0,
              "vel": 105
            },
            {
              "note": "G#2",
              "pitch": 56,
              "beat": 11.98,
              "dur": 1.0,
              "vel": 105
            },
            {
              "note": "C#1",
              "pitch": 37,
              "beat": 12.0,
              "dur": 1.0,
              "vel": 105
            },
            {
              "note": "C#2",
              "pitch": 49,
              "beat": 12.0,
              "dur": 1.0,
              "vel": 105
            },
            {
              "note": "C#3",
              "pitch": 61,
              "beat": 12.0,
              "dur": 1.0,
              "vel": 105
            },
            {
              "note": "F3",
              "pitch": 65,
              "beat": 12.0,
              "dur": 1.0,
              "vel": 105
            },
            {
              "note": "G#2",
              "pitch": 56,
              "beat": 13.48,
              "dur": 1.0,
              "vel": 105
            },
            {
              "note": "C#1",
              "pitch": 37,
              "beat": 13.5,
              "dur": 1.0,
              "vel": 105
            },
            {
              "note": "C#2",
              "pitch": 49,
              "beat": 13.5,
              "dur": 1.0,
              "vel": 105
            },
            {
              "note": "C#3",
              "pitch": 61,
              "beat": 13.5,
              "dur": 1.0,
              "vel": 105
            },
            {
              "note": "F3",
              "pitch": 65,
              "beat": 13.5,
              "dur": 1.0,
              "vel": 105
            },
            {
              "note": "G#2",
              "pitch": 56,
              "beat": 14.48,
              "dur": 1.5,
              "vel": 105
            },
            {
              "note": "C#1",
              "pitch": 37,
              "beat": 14.5,
              "dur": 1.5,
              "vel": 105
            },
            {
              "note": "C#2",
              "pitch": 49,
              "beat": 14.5,
              "dur": 1.5,
              "vel": 105
            },
            {
              "note": "C#3",
              "pitch": 61,
              "beat": 14.5,
              "dur": 1.5,
              "vel": 105
            },
            {
              "note": "F3",
              "pitch": 65,
              "beat": 14.5,
              "dur": 1.5,
              "vel": 105
            }
          ]
        },
        {
          "bar_start": 112.0,
          "bar_end": 120.0,
          "name": "",
          "notes": [
            {
              "note": "F#1",
              "pitch": 42,
              "beat": 0.0,
              "dur": 1.0,
              "vel": 105
            },
            {
              "note": "F#2",
              "pitch": 54,
              "beat": 0.0,
              "dur": 1.0,
              "vel": 105
            },
            {
              "note": "A#2",
              "pitch": 58,
              "beat": 0.0,
              "dur": 1.0,
              "vel": 105
            },
            {
              "note": "C#3",
              "pitch": 61,
              "beat": 0.0,
              "dur": 1.0,
              "vel": 105
            },
            {
              "note": "F3",
              "pitch": 65,
              "beat": 0.0,
              "dur": 1.0,
              "vel": 105
            },
            {
              "note": "F#1",
              "pitch": 42,
              "beat": 1.5,
              "dur": 1.0,
              "vel": 105
            },
            {
              "note": "F#2",
              "pitch": 54,
              "beat": 1.5,
              "dur": 1.0,
              "vel": 105
            },
            {
              "note": "A#2",
              "pitch": 58,
              "beat": 1.5,
              "dur": 1.0,
              "vel": 105
            },
            {
              "note": "C#3",
              "pitch": 61,
              "beat": 1.5,
              "dur": 1.0,
              "vel": 105
            },
            {
              "note": "F3",
              "pitch": 65,
              "beat": 1.5,
              "dur": 1.0,
              "vel": 105
            },
            {
              "note": "G#2",
              "pitch": 56,
              "beat": 3.98,
              "dur": 1.0,
              "vel": 105
            },
            {
              "note": "C#2",
              "pitch": 49,
              "beat": 4.0,
              "dur": 1.0,
              "vel": 105
            },
            {
              "note": "C#3",
              "pitch": 61,
              "beat": 4.0,
              "dur": 1.0,
              "vel": 105
            },
            {
              "note": "F3",
              "pitch": 65,
              "beat": 4.0,
              "dur": 1.0,
              "vel": 105
            },
            {
              "note": "C#1",
              "pitch": 37,
              "beat": 4.01,
              "dur": 1.0,
              "vel": 105
            },
            {
              "note": "G#2",
              "pitch": 56,
              "beat": 5.48,
              "dur": 1.0,
              "vel": 105
            },
            {
              "note": "C#2",
              "pitch": 49,
              "beat": 5.5,
              "dur": 1.0,
              "vel": 105
            },
            {
              "note": "C#3",
              "pitch": 61,
              "beat": 5.5,
              "dur": 1.0,
              "vel": 105
            },
            {
              "note": "F3",
              "pitch": 65,
              "beat": 5.5,
              "dur": 1.0,
              "vel": 105
            },
            {
              "note": "C#1",
              "pitch": 37,
              "beat": 5.51,
              "dur": 1.0,
              "vel": 105
            },
            {
              "note": "A#0",
              "pitch": 34,
              "beat": 8.0,
              "dur": 1.0,
              "vel": 105
            },
            {
              "note": "A#1",
              "pitch": 46,
              "beat": 8.0,
              "dur": 1.0,
              "vel": 105
            },
            {
              "note": "F2",
              "pitch": 53,
              "beat": 8.0,
              "dur": 1.0,
              "vel": 105
            },
            {
              "note": "A#2",
              "pitch": 58,
              "beat": 8.0,
              "dur": 1.0,
              "vel": 105
            },
            {
              "note": "C#3",
              "pitch": 61,
              "beat": 8.0,
              "dur": 1.0,
              "vel": 105
            },
            {
              "note": "A#0",
              "pitch": 34,
              "beat": 9.5,
              "dur": 1.0,
              "vel": 105
            },
            {
              "note": "A#1",
              "pitch": 46,
              "beat": 9.5,
              "dur": 1.0,
              "vel": 105
            },
            {
              "note": "F2",
              "pitch": 53,
              "beat": 9.5,
              "dur": 1.0,
              "vel": 105
            },
            {
              "note": "A#2",
              "pitch": 58,
              "beat": 9.5,
              "dur": 1.0,
              "vel": 105
            },
            {
              "note": "C#3",
              "pitch": 61,
              "beat": 9.5,
              "dur": 1.0,
              "vel": 105
            },
            {
              "note": "G#2",
              "pitch": 56,
              "beat": 11.98,
              "dur": 1.0,
              "vel": 105
            },
            {
              "note": "C#1",
              "pitch": 37,
              "beat": 12.0,
              "dur": 1.0,
              "vel": 105
            },
            {
              "note": "C#2",
              "pitch": 49,
              "beat": 12.0,
              "dur": 1.0,
              "vel": 105
            },
            {
              "note": "C#3",
              "pitch": 61,
              "beat": 12.0,
              "dur": 1.0,
              "vel": 105
            },
            {
              "note": "F3",
              "pitch": 65,
              "beat": 12.0,
              "dur": 1.0,
              "vel": 105
            },
            {
              "note": "G#2",
              "pitch": 56,
              "beat": 13.48,
              "dur": 1.0,
              "vel": 105
            },
            {
              "note": "C#1",
              "pitch": 37,
              "beat": 13.5,
              "dur": 1.0,
              "vel": 105
            },
            {
              "note": "C#2",
              "pitch": 49,
              "beat": 13.5,
              "dur": 1.0,
              "vel": 105
            },
            {
              "note": "C#3",
              "pitch": 61,
              "beat": 13.5,
              "dur": 1.0,
              "vel": 105
            },
            {
              "note": "F3",
              "pitch": 65,
              "beat": 13.5,
              "dur": 1.0,
              "vel": 105
            },
            {
              "note": "G#2",
              "pitch": 56,
              "beat": 14.48,
              "dur": 1.5,
              "vel": 105
            },
            {
              "note": "C#1",
              "pitch": 37,
              "beat": 14.5,
              "dur": 1.5,
              "vel": 105
            },
            {
              "note": "C#2",
              "pitch": 49,
              "beat": 14.5,
              "dur": 1.5,
              "vel": 105
            },
            {
              "note": "C#3",
              "pitch": 61,
              "beat": 14.5,
              "dur": 1.5,
              "vel": 105
            },
            {
              "note": "F3",
              "pitch": 65,
              "beat": 14.5,
              "dur": 1.5,
              "vel": 105
            }
          ]
        },
        {
          "bar_start": 120.0,
          "bar_end": 120.25,
          "name": "",
          "notes": [
            {
              "note": "F#1",
              "pitch": 42,
              "beat": 0.0,
              "dur": 1.0,
              "vel": 105
            },
            {
              "note": "F#2",
              "pitch": 54,
              "beat": 0.0,
              "dur": 1.0,
              "vel": 105
            },
            {
              "note": "A#2",
              "pitch": 58,
              "beat": 0.0,
              "dur": 1.0,
              "vel": 105
            },
            {
              "note": "C#3",
              "pitch": 61,
              "beat": 0.0,
              "dur": 1.0,
              "vel": 105
            },
            {
              "note": "F3",
              "pitch": 65,
              "beat": 0.0,
              "dur": 1.0,
              "vel": 105
            },
            {
              "note": "F#1",
              "pitch": 42,
              "beat": 1.5,
              "dur": 1.0,
              "vel": 105
            },
            {
              "note": "F#2",
              "pitch": 54,
              "beat": 1.5,
              "dur": 1.0,
              "vel": 105
            },
            {
              "note": "A#2",
              "pitch": 58,
              "beat": 1.5,
              "dur": 1.0,
              "vel": 105
            },
            {
              "note": "C#3",
              "pitch": 61,
              "beat": 1.5,
              "dur": 1.0,
              "vel": 105
            },
            {
              "note": "F3",
              "pitch": 65,
              "beat": 1.5,
              "dur": 1.0,
              "vel": 105
            },
            {
              "note": "G#2",
              "pitch": 56,
              "beat": 3.98,
              "dur": 1.0,
              "vel": 105
            },
            {
              "note": "C#2",
              "pitch": 49,
              "beat": 4.0,
              "dur": 1.0,
              "vel": 105
            },
            {
              "note": "C#3",
              "pitch": 61,
              "beat": 4.0,
              "dur": 1.0,
              "vel": 105
            },
            {
              "note": "F3",
              "pitch": 65,
              "beat": 4.0,
              "dur": 1.0,
              "vel": 105
            },
            {
              "note": "C#1",
              "pitch": 37,
              "beat": 4.01,
              "dur": 1.0,
              "vel": 105
            },
            {
              "note": "G#2",
              "pitch": 56,
              "beat": 5.48,
              "dur": 1.0,
              "vel": 105
            },
            {
              "note": "C#2",
              "pitch": 49,
              "beat": 5.5,
              "dur": 1.0,
              "vel": 105
            },
            {
              "note": "C#3",
              "pitch": 61,
              "beat": 5.5,
              "dur": 1.0,
              "vel": 105
            },
            {
              "note": "F3",
              "pitch": 65,
              "beat": 5.5,
              "dur": 1.0,
              "vel": 105
            },
            {
              "note": "C#1",
              "pitch": 37,
              "beat": 5.51,
              "dur": 1.0,
              "vel": 105
            },
            {
              "note": "A#0",
              "pitch": 34,
              "beat": 8.0,
              "dur": 1.0,
              "vel": 105
            },
            {
              "note": "A#1",
              "pitch": 46,
              "beat": 8.0,
              "dur": 1.0,
              "vel": 105
            },
            {
              "note": "F2",
              "pitch": 53,
              "beat": 8.0,
              "dur": 1.0,
              "vel": 105
            },
            {
              "note": "A#2",
              "pitch": 58,
              "beat": 8.0,
              "dur": 1.0,
              "vel": 105
            },
            {
              "note": "C#3",
              "pitch": 61,
              "beat": 8.0,
              "dur": 1.0,
              "vel": 105
            },
            {
              "note": "A#0",
              "pitch": 34,
              "beat": 9.5,
              "dur": 1.0,
              "vel": 105
            },
            {
              "note": "A#1",
              "pitch": 46,
              "beat": 9.5,
              "dur": 1.0,
              "vel": 105
            },
            {
              "note": "F2",
              "pitch": 53,
              "beat": 9.5,
              "dur": 1.0,
              "vel": 105
            },
            {
              "note": "A#2",
              "pitch": 58,
              "beat": 9.5,
              "dur": 1.0,
              "vel": 105
            },
            {
              "note": "C#3",
              "pitch": 61,
              "beat": 9.5,
              "dur": 1.0,
              "vel": 105
            },
            {
              "note": "G#2",
              "pitch": 56,
              "beat": 11.98,
              "dur": 1.0,
              "vel": 105
            },
            {
              "note": "C#1",
              "pitch": 37,
              "beat": 12.0,
              "dur": 1.0,
              "vel": 105
            },
            {
              "note": "C#2",
              "pitch": 49,
              "beat": 12.0,
              "dur": 1.0,
              "vel": 105
            },
            {
              "note": "C#3",
              "pitch": 61,
              "beat": 12.0,
              "dur": 1.0,
              "vel": 105
            },
            {
              "note": "F3",
              "pitch": 65,
              "beat": 12.0,
              "dur": 1.0,
              "vel": 105
            },
            {
              "note": "G#2",
              "pitch": 56,
              "beat": 13.48,
              "dur": 1.0,
              "vel": 105
            },
            {
              "note": "C#1",
              "pitch": 37,
              "beat": 13.5,
              "dur": 1.0,
              "vel": 105
            },
            {
              "note": "C#2",
              "pitch": 49,
              "beat": 13.5,
              "dur": 1.0,
              "vel": 105
            },
            {
              "note": "C#3",
              "pitch": 61,
              "beat": 13.5,
              "dur": 1.0,
              "vel": 105
            },
            {
              "note": "F3",
              "pitch": 65,
              "beat": 13.5,
              "dur": 1.0,
              "vel": 105
            },
            {
              "note": "G#2",
              "pitch": 56,
              "beat": 14.48,
              "dur": 1.5,
              "vel": 105
            },
            {
              "note": "C#1",
              "pitch": 37,
              "beat": 14.5,
              "dur": 1.5,
              "vel": 105
            },
            {
              "note": "C#2",
              "pitch": 49,
              "beat": 14.5,
              "dur": 1.5,
              "vel": 105
            },
            {
              "note": "C#3",
              "pitch": 61,
              "beat": 14.5,
              "dur": 1.5,
              "vel": 105
            },
            {
              "note": "F3",
              "pitch": 65,
              "beat": 14.5,
              "dur": 1.5,
              "vel": 105
            }
          ]
        },
        {
          "bar_start": 121.0,
          "bar_end": 121.25,
          "name": "",
          "notes": [
            {
              "note": "F#1",
              "pitch": 42,
              "beat": 0.0,
              "dur": 1.0,
              "vel": 105
            },
            {
              "note": "F#2",
              "pitch": 54,
              "beat": 0.0,
              "dur": 1.0,
              "vel": 105
            },
            {
              "note": "A#2",
              "pitch": 58,
              "beat": 0.0,
              "dur": 1.0,
              "vel": 105
            },
            {
              "note": "C#3",
              "pitch": 61,
              "beat": 0.0,
              "dur": 1.0,
              "vel": 105
            },
            {
              "note": "F3",
              "pitch": 65,
              "beat": 0.0,
              "dur": 1.0,
              "vel": 105
            },
            {
              "note": "F#1",
              "pitch": 42,
              "beat": 1.5,
              "dur": 1.0,
              "vel": 105
            },
            {
              "note": "F#2",
              "pitch": 54,
              "beat": 1.5,
              "dur": 1.0,
              "vel": 105
            },
            {
              "note": "A#2",
              "pitch": 58,
              "beat": 1.5,
              "dur": 1.0,
              "vel": 105
            },
            {
              "note": "C#3",
              "pitch": 61,
              "beat": 1.5,
              "dur": 1.0,
              "vel": 105
            },
            {
              "note": "F3",
              "pitch": 65,
              "beat": 1.5,
              "dur": 1.0,
              "vel": 105
            },
            {
              "note": "G#2",
              "pitch": 56,
              "beat": 3.98,
              "dur": 1.0,
              "vel": 105
            },
            {
              "note": "C#2",
              "pitch": 49,
              "beat": 4.0,
              "dur": 1.0,
              "vel": 105
            },
            {
              "note": "C#3",
              "pitch": 61,
              "beat": 4.0,
              "dur": 1.0,
              "vel": 105
            },
            {
              "note": "F3",
              "pitch": 65,
              "beat": 4.0,
              "dur": 1.0,
              "vel": 105
            },
            {
              "note": "C#1",
              "pitch": 37,
              "beat": 4.01,
              "dur": 1.0,
              "vel": 105
            },
            {
              "note": "G#2",
              "pitch": 56,
              "beat": 5.48,
              "dur": 1.0,
              "vel": 105
            },
            {
              "note": "C#2",
              "pitch": 49,
              "beat": 5.5,
              "dur": 1.0,
              "vel": 105
            },
            {
              "note": "C#3",
              "pitch": 61,
              "beat": 5.5,
              "dur": 1.0,
              "vel": 105
            },
            {
              "note": "F3",
              "pitch": 65,
              "beat": 5.5,
              "dur": 1.0,
              "vel": 105
            },
            {
              "note": "C#1",
              "pitch": 37,
              "beat": 5.51,
              "dur": 1.0,
              "vel": 105
            },
            {
              "note": "A#0",
              "pitch": 34,
              "beat": 8.0,
              "dur": 1.0,
              "vel": 105
            },
            {
              "note": "A#1",
              "pitch": 46,
              "beat": 8.0,
              "dur": 1.0,
              "vel": 105
            },
            {
              "note": "F2",
              "pitch": 53,
              "beat": 8.0,
              "dur": 1.0,
              "vel": 105
            },
            {
              "note": "A#2",
              "pitch": 58,
              "beat": 8.0,
              "dur": 1.0,
              "vel": 105
            },
            {
              "note": "C#3",
              "pitch": 61,
              "beat": 8.0,
              "dur": 1.0,
              "vel": 105
            },
            {
              "note": "A#0",
              "pitch": 34,
              "beat": 9.5,
              "dur": 1.0,
              "vel": 105
            },
            {
              "note": "A#1",
              "pitch": 46,
              "beat": 9.5,
              "dur": 1.0,
              "vel": 105
            },
            {
              "note": "F2",
              "pitch": 53,
              "beat": 9.5,
              "dur": 1.0,
              "vel": 105
            },
            {
              "note": "A#2",
              "pitch": 58,
              "beat": 9.5,
              "dur": 1.0,
              "vel": 105
            },
            {
              "note": "C#3",
              "pitch": 61,
              "beat": 9.5,
              "dur": 1.0,
              "vel": 105
            },
            {
              "note": "G#2",
              "pitch": 56,
              "beat": 11.98,
              "dur": 1.0,
              "vel": 105
            },
            {
              "note": "C#1",
              "pitch": 37,
              "beat": 12.0,
              "dur": 1.0,
              "vel": 105
            },
            {
              "note": "C#2",
              "pitch": 49,
              "beat": 12.0,
              "dur": 1.0,
              "vel": 105
            },
            {
              "note": "C#3",
              "pitch": 61,
              "beat": 12.0,
              "dur": 1.0,
              "vel": 105
            },
            {
              "note": "F3",
              "pitch": 65,
              "beat": 12.0,
              "dur": 1.0,
              "vel": 105
            },
            {
              "note": "G#2",
              "pitch": 56,
              "beat": 13.48,
              "dur": 1.0,
              "vel": 105
            },
            {
              "note": "C#1",
              "pitch": 37,
              "beat": 13.5,
              "dur": 1.0,
              "vel": 105
            },
            {
              "note": "C#2",
              "pitch": 49,
              "beat": 13.5,
              "dur": 1.0,
              "vel": 105
            },
            {
              "note": "C#3",
              "pitch": 61,
              "beat": 13.5,
              "dur": 1.0,
              "vel": 105
            },
            {
              "note": "F3",
              "pitch": 65,
              "beat": 13.5,
              "dur": 1.0,
              "vel": 105
            },
            {
              "note": "G#2",
              "pitch": 56,
              "beat": 14.48,
              "dur": 1.5,
              "vel": 105
            },
            {
              "note": "C#1",
              "pitch": 37,
              "beat": 14.5,
              "dur": 1.5,
              "vel": 105
            },
            {
              "note": "C#2",
              "pitch": 49,
              "beat": 14.5,
              "dur": 1.5,
              "vel": 105
            },
            {
              "note": "C#3",
              "pitch": 61,
              "beat": 14.5,
              "dur": 1.5,
              "vel": 105
            },
            {
              "note": "F3",
              "pitch": 65,
              "beat": 14.5,
              "dur": 1.5,
              "vel": 105
            }
          ]
        },
        {
          "bar_start": 122.0,
          "bar_end": 122.25,
          "name": "",
          "notes": [
            {
              "note": "F#1",
              "pitch": 42,
              "beat": 0.0,
              "dur": 1.0,
              "vel": 105
            },
            {
              "note": "F#2",
              "pitch": 54,
              "beat": 0.0,
              "dur": 1.0,
              "vel": 105
            },
            {
              "note": "A#2",
              "pitch": 58,
              "beat": 0.0,
              "dur": 1.0,
              "vel": 105
            },
            {
              "note": "C#3",
              "pitch": 61,
              "beat": 0.0,
              "dur": 1.0,
              "vel": 105
            },
            {
              "note": "F3",
              "pitch": 65,
              "beat": 0.0,
              "dur": 1.0,
              "vel": 105
            },
            {
              "note": "F#1",
              "pitch": 42,
              "beat": 1.5,
              "dur": 1.0,
              "vel": 105
            },
            {
              "note": "F#2",
              "pitch": 54,
              "beat": 1.5,
              "dur": 1.0,
              "vel": 105
            },
            {
              "note": "A#2",
              "pitch": 58,
              "beat": 1.5,
              "dur": 1.0,
              "vel": 105
            },
            {
              "note": "C#3",
              "pitch": 61,
              "beat": 1.5,
              "dur": 1.0,
              "vel": 105
            },
            {
              "note": "F3",
              "pitch": 65,
              "beat": 1.5,
              "dur": 1.0,
              "vel": 105
            },
            {
              "note": "G#2",
              "pitch": 56,
              "beat": 3.98,
              "dur": 1.0,
              "vel": 105
            },
            {
              "note": "C#2",
              "pitch": 49,
              "beat": 4.0,
              "dur": 1.0,
              "vel": 105
            },
            {
              "note": "C#3",
              "pitch": 61,
              "beat": 4.0,
              "dur": 1.0,
              "vel": 105
            },
            {
              "note": "F3",
              "pitch": 65,
              "beat": 4.0,
              "dur": 1.0,
              "vel": 105
            },
            {
              "note": "C#1",
              "pitch": 37,
              "beat": 4.01,
              "dur": 1.0,
              "vel": 105
            },
            {
              "note": "G#2",
              "pitch": 56,
              "beat": 5.48,
              "dur": 1.0,
              "vel": 105
            },
            {
              "note": "C#2",
              "pitch": 49,
              "beat": 5.5,
              "dur": 1.0,
              "vel": 105
            },
            {
              "note": "C#3",
              "pitch": 61,
              "beat": 5.5,
              "dur": 1.0,
              "vel": 105
            },
            {
              "note": "F3",
              "pitch": 65,
              "beat": 5.5,
              "dur": 1.0,
              "vel": 105
            },
            {
              "note": "C#1",
              "pitch": 37,
              "beat": 5.51,
              "dur": 1.0,
              "vel": 105
            },
            {
              "note": "A#0",
              "pitch": 34,
              "beat": 8.0,
              "dur": 1.0,
              "vel": 105
            },
            {
              "note": "A#1",
              "pitch": 46,
              "beat": 8.0,
              "dur": 1.0,
              "vel": 105
            },
            {
              "note": "F2",
              "pitch": 53,
              "beat": 8.0,
              "dur": 1.0,
              "vel": 105
            },
            {
              "note": "A#2",
              "pitch": 58,
              "beat": 8.0,
              "dur": 1.0,
              "vel": 105
            },
            {
              "note": "C#3",
              "pitch": 61,
              "beat": 8.0,
              "dur": 1.0,
              "vel": 105
            },
            {
              "note": "A#0",
              "pitch": 34,
              "beat": 9.5,
              "dur": 1.0,
              "vel": 105
            },
            {
              "note": "A#1",
              "pitch": 46,
              "beat": 9.5,
              "dur": 1.0,
              "vel": 105
            },
            {
              "note": "F2",
              "pitch": 53,
              "beat": 9.5,
              "dur": 1.0,
              "vel": 105
            },
            {
              "note": "A#2",
              "pitch": 58,
              "beat": 9.5,
              "dur": 1.0,
              "vel": 105
            },
            {
              "note": "C#3",
              "pitch": 61,
              "beat": 9.5,
              "dur": 1.0,
              "vel": 105
            },
            {
              "note": "G#2",
              "pitch": 56,
              "beat": 11.98,
              "dur": 1.0,
              "vel": 105
            },
            {
              "note": "C#1",
              "pitch": 37,
              "beat": 12.0,
              "dur": 1.0,
              "vel": 105
            },
            {
              "note": "C#2",
              "pitch": 49,
              "beat": 12.0,
              "dur": 1.0,
              "vel": 105
            },
            {
              "note": "C#3",
              "pitch": 61,
              "beat": 12.0,
              "dur": 1.0,
              "vel": 105
            },
            {
              "note": "F3",
              "pitch": 65,
              "beat": 12.0,
              "dur": 1.0,
              "vel": 105
            },
            {
              "note": "G#2",
              "pitch": 56,
              "beat": 13.48,
              "dur": 1.0,
              "vel": 105
            },
            {
              "note": "C#1",
              "pitch": 37,
              "beat": 13.5,
              "dur": 1.0,
              "vel": 105
            },
            {
              "note": "C#2",
              "pitch": 49,
              "beat": 13.5,
              "dur": 1.0,
              "vel": 105
            },
            {
              "note": "C#3",
              "pitch": 61,
              "beat": 13.5,
              "dur": 1.0,
              "vel": 105
            },
            {
              "note": "F3",
              "pitch": 65,
              "beat": 13.5,
              "dur": 1.0,
              "vel": 105
            },
            {
              "note": "G#2",
              "pitch": 56,
              "beat": 14.48,
              "dur": 1.5,
              "vel": 105
            },
            {
              "note": "C#1",
              "pitch": 37,
              "beat": 14.5,
              "dur": 1.5,
              "vel": 105
            },
            {
              "note": "C#2",
              "pitch": 49,
              "beat": 14.5,
              "dur": 1.5,
              "vel": 105
            },
            {
              "note": "C#3",
              "pitch": 61,
              "beat": 14.5,
              "dur": 1.5,
              "vel": 105
            },
            {
              "note": "F3",
              "pitch": 65,
              "beat": 14.5,
              "dur": 1.5,
              "vel": 105
            }
          ]
        },
        {
          "bar_start": 123.0,
          "bar_end": 123.25,
          "name": "",
          "notes": [
            {
              "note": "F#1",
              "pitch": 42,
              "beat": 0.0,
              "dur": 1.0,
              "vel": 105
            },
            {
              "note": "F#2",
              "pitch": 54,
              "beat": 0.0,
              "dur": 1.0,
              "vel": 105
            },
            {
              "note": "A#2",
              "pitch": 58,
              "beat": 0.0,
              "dur": 1.0,
              "vel": 105
            },
            {
              "note": "C#3",
              "pitch": 61,
              "beat": 0.0,
              "dur": 1.0,
              "vel": 105
            },
            {
              "note": "F3",
              "pitch": 65,
              "beat": 0.0,
              "dur": 1.0,
              "vel": 105
            },
            {
              "note": "F#1",
              "pitch": 42,
              "beat": 1.5,
              "dur": 1.0,
              "vel": 105
            },
            {
              "note": "F#2",
              "pitch": 54,
              "beat": 1.5,
              "dur": 1.0,
              "vel": 105
            },
            {
              "note": "A#2",
              "pitch": 58,
              "beat": 1.5,
              "dur": 1.0,
              "vel": 105
            },
            {
              "note": "C#3",
              "pitch": 61,
              "beat": 1.5,
              "dur": 1.0,
              "vel": 105
            },
            {
              "note": "F3",
              "pitch": 65,
              "beat": 1.5,
              "dur": 1.0,
              "vel": 105
            },
            {
              "note": "G#2",
              "pitch": 56,
              "beat": 3.98,
              "dur": 1.0,
              "vel": 105
            },
            {
              "note": "C#2",
              "pitch": 49,
              "beat": 4.0,
              "dur": 1.0,
              "vel": 105
            },
            {
              "note": "C#3",
              "pitch": 61,
              "beat": 4.0,
              "dur": 1.0,
              "vel": 105
            },
            {
              "note": "F3",
              "pitch": 65,
              "beat": 4.0,
              "dur": 1.0,
              "vel": 105
            },
            {
              "note": "C#1",
              "pitch": 37,
              "beat": 4.01,
              "dur": 1.0,
              "vel": 105
            },
            {
              "note": "G#2",
              "pitch": 56,
              "beat": 5.48,
              "dur": 1.0,
              "vel": 105
            },
            {
              "note": "C#2",
              "pitch": 49,
              "beat": 5.5,
              "dur": 1.0,
              "vel": 105
            },
            {
              "note": "C#3",
              "pitch": 61,
              "beat": 5.5,
              "dur": 1.0,
              "vel": 105
            },
            {
              "note": "F3",
              "pitch": 65,
              "beat": 5.5,
              "dur": 1.0,
              "vel": 105
            },
            {
              "note": "C#1",
              "pitch": 37,
              "beat": 5.51,
              "dur": 1.0,
              "vel": 105
            },
            {
              "note": "A#0",
              "pitch": 34,
              "beat": 8.0,
              "dur": 1.0,
              "vel": 105
            },
            {
              "note": "A#1",
              "pitch": 46,
              "beat": 8.0,
              "dur": 1.0,
              "vel": 105
            },
            {
              "note": "F2",
              "pitch": 53,
              "beat": 8.0,
              "dur": 1.0,
              "vel": 105
            },
            {
              "note": "A#2",
              "pitch": 58,
              "beat": 8.0,
              "dur": 1.0,
              "vel": 105
            },
            {
              "note": "C#3",
              "pitch": 61,
              "beat": 8.0,
              "dur": 1.0,
              "vel": 105
            },
            {
              "note": "A#0",
              "pitch": 34,
              "beat": 9.5,
              "dur": 1.0,
              "vel": 105
            },
            {
              "note": "A#1",
              "pitch": 46,
              "beat": 9.5,
              "dur": 1.0,
              "vel": 105
            },
            {
              "note": "F2",
              "pitch": 53,
              "beat": 9.5,
              "dur": 1.0,
              "vel": 105
            },
            {
              "note": "A#2",
              "pitch": 58,
              "beat": 9.5,
              "dur": 1.0,
              "vel": 105
            },
            {
              "note": "C#3",
              "pitch": 61,
              "beat": 9.5,
              "dur": 1.0,
              "vel": 105
            },
            {
              "note": "G#2",
              "pitch": 56,
              "beat": 11.98,
              "dur": 1.0,
              "vel": 105
            },
            {
              "note": "C#1",
              "pitch": 37,
              "beat": 12.0,
              "dur": 1.0,
              "vel": 105
            },
            {
              "note": "C#2",
              "pitch": 49,
              "beat": 12.0,
              "dur": 1.0,
              "vel": 105
            },
            {
              "note": "C#3",
              "pitch": 61,
              "beat": 12.0,
              "dur": 1.0,
              "vel": 105
            },
            {
              "note": "F3",
              "pitch": 65,
              "beat": 12.0,
              "dur": 1.0,
              "vel": 105
            },
            {
              "note": "G#2",
              "pitch": 56,
              "beat": 13.48,
              "dur": 1.0,
              "vel": 105
            },
            {
              "note": "C#1",
              "pitch": 37,
              "beat": 13.5,
              "dur": 1.0,
              "vel": 105
            },
            {
              "note": "C#2",
              "pitch": 49,
              "beat": 13.5,
              "dur": 1.0,
              "vel": 105
            },
            {
              "note": "C#3",
              "pitch": 61,
              "beat": 13.5,
              "dur": 1.0,
              "vel": 105
            },
            {
              "note": "F3",
              "pitch": 65,
              "beat": 13.5,
              "dur": 1.0,
              "vel": 105
            },
            {
              "note": "G#2",
              "pitch": 56,
              "beat": 14.48,
              "dur": 1.5,
              "vel": 105
            },
            {
              "note": "C#1",
              "pitch": 37,
              "beat": 14.5,
              "dur": 1.5,
              "vel": 105
            },
            {
              "note": "C#2",
              "pitch": 49,
              "beat": 14.5,
              "dur": 1.5,
              "vel": 105
            },
            {
              "note": "C#3",
              "pitch": 61,
              "beat": 14.5,
              "dur": 1.5,
              "vel": 105
            },
            {
              "note": "F3",
              "pitch": 65,
              "beat": 14.5,
              "dur": 1.5,
              "vel": 105
            }
          ]
        },
        {
          "bar_start": 124.0,
          "bar_end": 124.25,
          "name": "",
          "notes": [
            {
              "note": "F#1",
              "pitch": 42,
              "beat": 0.0,
              "dur": 1.0,
              "vel": 105
            },
            {
              "note": "F#2",
              "pitch": 54,
              "beat": 0.0,
              "dur": 1.0,
              "vel": 105
            },
            {
              "note": "A#2",
              "pitch": 58,
              "beat": 0.0,
              "dur": 1.0,
              "vel": 105
            },
            {
              "note": "C#3",
              "pitch": 61,
              "beat": 0.0,
              "dur": 1.0,
              "vel": 105
            },
            {
              "note": "F3",
              "pitch": 65,
              "beat": 0.0,
              "dur": 1.0,
              "vel": 105
            },
            {
              "note": "F#1",
              "pitch": 42,
              "beat": 1.5,
              "dur": 1.0,
              "vel": 105
            },
            {
              "note": "F#2",
              "pitch": 54,
              "beat": 1.5,
              "dur": 1.0,
              "vel": 105
            },
            {
              "note": "A#2",
              "pitch": 58,
              "beat": 1.5,
              "dur": 1.0,
              "vel": 105
            },
            {
              "note": "C#3",
              "pitch": 61,
              "beat": 1.5,
              "dur": 1.0,
              "vel": 105
            },
            {
              "note": "F3",
              "pitch": 65,
              "beat": 1.5,
              "dur": 1.0,
              "vel": 105
            },
            {
              "note": "G#2",
              "pitch": 56,
              "beat": 3.98,
              "dur": 1.0,
              "vel": 105
            },
            {
              "note": "C#2",
              "pitch": 49,
              "beat": 4.0,
              "dur": 1.0,
              "vel": 105
            },
            {
              "note": "C#3",
              "pitch": 61,
              "beat": 4.0,
              "dur": 1.0,
              "vel": 105
            },
            {
              "note": "F3",
              "pitch": 65,
              "beat": 4.0,
              "dur": 1.0,
              "vel": 105
            },
            {
              "note": "C#1",
              "pitch": 37,
              "beat": 4.01,
              "dur": 1.0,
              "vel": 105
            },
            {
              "note": "G#2",
              "pitch": 56,
              "beat": 5.48,
              "dur": 1.0,
              "vel": 105
            },
            {
              "note": "C#2",
              "pitch": 49,
              "beat": 5.5,
              "dur": 1.0,
              "vel": 105
            },
            {
              "note": "C#3",
              "pitch": 61,
              "beat": 5.5,
              "dur": 1.0,
              "vel": 105
            },
            {
              "note": "F3",
              "pitch": 65,
              "beat": 5.5,
              "dur": 1.0,
              "vel": 105
            },
            {
              "note": "C#1",
              "pitch": 37,
              "beat": 5.51,
              "dur": 1.0,
              "vel": 105
            },
            {
              "note": "A#0",
              "pitch": 34,
              "beat": 8.0,
              "dur": 1.0,
              "vel": 105
            },
            {
              "note": "A#1",
              "pitch": 46,
              "beat": 8.0,
              "dur": 1.0,
              "vel": 105
            },
            {
              "note": "F2",
              "pitch": 53,
              "beat": 8.0,
              "dur": 1.0,
              "vel": 105
            },
            {
              "note": "A#2",
              "pitch": 58,
              "beat": 8.0,
              "dur": 1.0,
              "vel": 105
            },
            {
              "note": "C#3",
              "pitch": 61,
              "beat": 8.0,
              "dur": 1.0,
              "vel": 105
            },
            {
              "note": "A#0",
              "pitch": 34,
              "beat": 9.5,
              "dur": 1.0,
              "vel": 105
            },
            {
              "note": "A#1",
              "pitch": 46,
              "beat": 9.5,
              "dur": 1.0,
              "vel": 105
            },
            {
              "note": "F2",
              "pitch": 53,
              "beat": 9.5,
              "dur": 1.0,
              "vel": 105
            },
            {
              "note": "A#2",
              "pitch": 58,
              "beat": 9.5,
              "dur": 1.0,
              "vel": 105
            },
            {
              "note": "C#3",
              "pitch": 61,
              "beat": 9.5,
              "dur": 1.0,
              "vel": 105
            },
            {
              "note": "G#2",
              "pitch": 56,
              "beat": 11.98,
              "dur": 1.0,
              "vel": 105
            },
            {
              "note": "C#1",
              "pitch": 37,
              "beat": 12.0,
              "dur": 1.0,
              "vel": 105
            },
            {
              "note": "C#2",
              "pitch": 49,
              "beat": 12.0,
              "dur": 1.0,
              "vel": 105
            },
            {
              "note": "C#3",
              "pitch": 61,
              "beat": 12.0,
              "dur": 1.0,
              "vel": 105
            },
            {
              "note": "F3",
              "pitch": 65,
              "beat": 12.0,
              "dur": 1.0,
              "vel": 105
            },
            {
              "note": "G#2",
              "pitch": 56,
              "beat": 13.48,
              "dur": 1.0,
              "vel": 105
            },
            {
              "note": "C#1",
              "pitch": 37,
              "beat": 13.5,
              "dur": 1.0,
              "vel": 105
            },
            {
              "note": "C#2",
              "pitch": 49,
              "beat": 13.5,
              "dur": 1.0,
              "vel": 105
            },
            {
              "note": "C#3",
              "pitch": 61,
              "beat": 13.5,
              "dur": 1.0,
              "vel": 105
            },
            {
              "note": "F3",
              "pitch": 65,
              "beat": 13.5,
              "dur": 1.0,
              "vel": 105
            },
            {
              "note": "G#2",
              "pitch": 56,
              "beat": 14.48,
              "dur": 1.5,
              "vel": 105
            },
            {
              "note": "C#1",
              "pitch": 37,
              "beat": 14.5,
              "dur": 1.5,
              "vel": 105
            },
            {
              "note": "C#2",
              "pitch": 49,
              "beat": 14.5,
              "dur": 1.5,
              "vel": 105
            },
            {
              "note": "C#3",
              "pitch": 61,
              "beat": 14.5,
              "dur": 1.5,
              "vel": 105
            },
            {
              "note": "F3",
              "pitch": 65,
              "beat": 14.5,
              "dur": 1.5,
              "vel": 105
            }
          ]
        },
        {
          "bar_start": 125.0,
          "bar_end": 125.25,
          "name": "",
          "notes": [
            {
              "note": "F#1",
              "pitch": 42,
              "beat": 0.0,
              "dur": 1.0,
              "vel": 105
            },
            {
              "note": "F#2",
              "pitch": 54,
              "beat": 0.0,
              "dur": 1.0,
              "vel": 105
            },
            {
              "note": "A#2",
              "pitch": 58,
              "beat": 0.0,
              "dur": 1.0,
              "vel": 105
            },
            {
              "note": "C#3",
              "pitch": 61,
              "beat": 0.0,
              "dur": 1.0,
              "vel": 105
            },
            {
              "note": "F3",
              "pitch": 65,
              "beat": 0.0,
              "dur": 1.0,
              "vel": 105
            },
            {
              "note": "F#1",
              "pitch": 42,
              "beat": 1.5,
              "dur": 1.0,
              "vel": 105
            },
            {
              "note": "F#2",
              "pitch": 54,
              "beat": 1.5,
              "dur": 1.0,
              "vel": 105
            },
            {
              "note": "A#2",
              "pitch": 58,
              "beat": 1.5,
              "dur": 1.0,
              "vel": 105
            },
            {
              "note": "C#3",
              "pitch": 61,
              "beat": 1.5,
              "dur": 1.0,
              "vel": 105
            },
            {
              "note": "F3",
              "pitch": 65,
              "beat": 1.5,
              "dur": 1.0,
              "vel": 105
            },
            {
              "note": "G#2",
              "pitch": 56,
              "beat": 3.98,
              "dur": 1.0,
              "vel": 105
            },
            {
              "note": "C#2",
              "pitch": 49,
              "beat": 4.0,
              "dur": 1.0,
              "vel": 105
            },
            {
              "note": "C#3",
              "pitch": 61,
              "beat": 4.0,
              "dur": 1.0,
              "vel": 105
            },
            {
              "note": "F3",
              "pitch": 65,
              "beat": 4.0,
              "dur": 1.0,
              "vel": 105
            },
            {
              "note": "C#1",
              "pitch": 37,
              "beat": 4.01,
              "dur": 1.0,
              "vel": 105
            },
            {
              "note": "G#2",
              "pitch": 56,
              "beat": 5.48,
              "dur": 1.0,
              "vel": 105
            },
            {
              "note": "C#2",
              "pitch": 49,
              "beat": 5.5,
              "dur": 1.0,
              "vel": 105
            },
            {
              "note": "C#3",
              "pitch": 61,
              "beat": 5.5,
              "dur": 1.0,
              "vel": 105
            },
            {
              "note": "F3",
              "pitch": 65,
              "beat": 5.5,
              "dur": 1.0,
              "vel": 105
            },
            {
              "note": "C#1",
              "pitch": 37,
              "beat": 5.51,
              "dur": 1.0,
              "vel": 105
            },
            {
              "note": "A#0",
              "pitch": 34,
              "beat": 8.0,
              "dur": 1.0,
              "vel": 105
            },
            {
              "note": "A#1",
              "pitch": 46,
              "beat": 8.0,
              "dur": 1.0,
              "vel": 105
            },
            {
              "note": "F2",
              "pitch": 53,
              "beat": 8.0,
              "dur": 1.0,
              "vel": 105
            },
            {
              "note": "A#2",
              "pitch": 58,
              "beat": 8.0,
              "dur": 1.0,
              "vel": 105
            },
            {
              "note": "C#3",
              "pitch": 61,
              "beat": 8.0,
              "dur": 1.0,
              "vel": 105
            },
            {
              "note": "A#0",
              "pitch": 34,
              "beat": 9.5,
              "dur": 1.0,
              "vel": 105
            },
            {
              "note": "A#1",
              "pitch": 46,
              "beat": 9.5,
              "dur": 1.0,
              "vel": 105
            },
            {
              "note": "F2",
              "pitch": 53,
              "beat": 9.5,
              "dur": 1.0,
              "vel": 105
            },
            {
              "note": "A#2",
              "pitch": 58,
              "beat": 9.5,
              "dur": 1.0,
              "vel": 105
            },
            {
              "note": "C#3",
              "pitch": 61,
              "beat": 9.5,
              "dur": 1.0,
              "vel": 105
            },
            {
              "note": "G#2",
              "pitch": 56,
              "beat": 11.98,
              "dur": 1.0,
              "vel": 105
            },
            {
              "note": "C#1",
              "pitch": 37,
              "beat": 12.0,
              "dur": 1.0,
              "vel": 105
            },
            {
              "note": "C#2",
              "pitch": 49,
              "beat": 12.0,
              "dur": 1.0,
              "vel": 105
            },
            {
              "note": "C#3",
              "pitch": 61,
              "beat": 12.0,
              "dur": 1.0,
              "vel": 105
            },
            {
              "note": "F3",
              "pitch": 65,
              "beat": 12.0,
              "dur": 1.0,
              "vel": 105
            },
            {
              "note": "G#2",
              "pitch": 56,
              "beat": 13.48,
              "dur": 1.0,
              "vel": 105
            },
            {
              "note": "C#1",
              "pitch": 37,
              "beat": 13.5,
              "dur": 1.0,
              "vel": 105
            },
            {
              "note": "C#2",
              "pitch": 49,
              "beat": 13.5,
              "dur": 1.0,
              "vel": 105
            },
            {
              "note": "C#3",
              "pitch": 61,
              "beat": 13.5,
              "dur": 1.0,
              "vel": 105
            },
            {
              "note": "F3",
              "pitch": 65,
              "beat": 13.5,
              "dur": 1.0,
              "vel": 105
            },
            {
              "note": "G#2",
              "pitch": 56,
              "beat": 14.48,
              "dur": 1.5,
              "vel": 105
            },
            {
              "note": "C#1",
              "pitch": 37,
              "beat": 14.5,
              "dur": 1.5,
              "vel": 105
            },
            {
              "note": "C#2",
              "pitch": 49,
              "beat": 14.5,
              "dur": 1.5,
              "vel": 105
            },
            {
              "note": "C#3",
              "pitch": 61,
              "beat": 14.5,
              "dur": 1.5,
              "vel": 105
            },
            {
              "note": "F3",
              "pitch": 65,
              "beat": 14.5,
              "dur": 1.5,
              "vel": 105
            }
          ]
        },
        {
          "bar_start": 126.0,
          "bar_end": 126.25,
          "name": "",
          "notes": [
            {
              "note": "F#1",
              "pitch": 42,
              "beat": 0.0,
              "dur": 1.0,
              "vel": 105
            },
            {
              "note": "F#2",
              "pitch": 54,
              "beat": 0.0,
              "dur": 1.0,
              "vel": 105
            },
            {
              "note": "A#2",
              "pitch": 58,
              "beat": 0.0,
              "dur": 1.0,
              "vel": 105
            },
            {
              "note": "C#3",
              "pitch": 61,
              "beat": 0.0,
              "dur": 1.0,
              "vel": 105
            },
            {
              "note": "F3",
              "pitch": 65,
              "beat": 0.0,
              "dur": 1.0,
              "vel": 105
            },
            {
              "note": "F#1",
              "pitch": 42,
              "beat": 1.5,
              "dur": 1.0,
              "vel": 105
            },
            {
              "note": "F#2",
              "pitch": 54,
              "beat": 1.5,
              "dur": 1.0,
              "vel": 105
            },
            {
              "note": "A#2",
              "pitch": 58,
              "beat": 1.5,
              "dur": 1.0,
              "vel": 105
            },
            {
              "note": "C#3",
              "pitch": 61,
              "beat": 1.5,
              "dur": 1.0,
              "vel": 105
            },
            {
              "note": "F3",
              "pitch": 65,
              "beat": 1.5,
              "dur": 1.0,
              "vel": 105
            },
            {
              "note": "G#2",
              "pitch": 56,
              "beat": 3.98,
              "dur": 1.0,
              "vel": 105
            },
            {
              "note": "C#2",
              "pitch": 49,
              "beat": 4.0,
              "dur": 1.0,
              "vel": 105
            },
            {
              "note": "C#3",
              "pitch": 61,
              "beat": 4.0,
              "dur": 1.0,
              "vel": 105
            },
            {
              "note": "F3",
              "pitch": 65,
              "beat": 4.0,
              "dur": 1.0,
              "vel": 105
            },
            {
              "note": "C#1",
              "pitch": 37,
              "beat": 4.01,
              "dur": 1.0,
              "vel": 105
            },
            {
              "note": "G#2",
              "pitch": 56,
              "beat": 5.48,
              "dur": 1.0,
              "vel": 105
            },
            {
              "note": "C#2",
              "pitch": 49,
              "beat": 5.5,
              "dur": 1.0,
              "vel": 105
            },
            {
              "note": "C#3",
              "pitch": 61,
              "beat": 5.5,
              "dur": 1.0,
              "vel": 105
            },
            {
              "note": "F3",
              "pitch": 65,
              "beat": 5.5,
              "dur": 1.0,
              "vel": 105
            },
            {
              "note": "C#1",
              "pitch": 37,
              "beat": 5.51,
              "dur": 1.0,
              "vel": 105
            },
            {
              "note": "A#0",
              "pitch": 34,
              "beat": 8.0,
              "dur": 1.0,
              "vel": 105
            },
            {
              "note": "A#1",
              "pitch": 46,
              "beat": 8.0,
              "dur": 1.0,
              "vel": 105
            },
            {
              "note": "F2",
              "pitch": 53,
              "beat": 8.0,
              "dur": 1.0,
              "vel": 105
            },
            {
              "note": "A#2",
              "pitch": 58,
              "beat": 8.0,
              "dur": 1.0,
              "vel": 105
            },
            {
              "note": "C#3",
              "pitch": 61,
              "beat": 8.0,
              "dur": 1.0,
              "vel": 105
            },
            {
              "note": "A#0",
              "pitch": 34,
              "beat": 9.5,
              "dur": 1.0,
              "vel": 105
            },
            {
              "note": "A#1",
              "pitch": 46,
              "beat": 9.5,
              "dur": 1.0,
              "vel": 105
            },
            {
              "note": "F2",
              "pitch": 53,
              "beat": 9.5,
              "dur": 1.0,
              "vel": 105
            },
            {
              "note": "A#2",
              "pitch": 58,
              "beat": 9.5,
              "dur": 1.0,
              "vel": 105
            },
            {
              "note": "C#3",
              "pitch": 61,
              "beat": 9.5,
              "dur": 1.0,
              "vel": 105
            },
            {
              "note": "G#2",
              "pitch": 56,
              "beat": 11.98,
              "dur": 1.0,
              "vel": 105
            },
            {
              "note": "C#1",
              "pitch": 37,
              "beat": 12.0,
              "dur": 1.0,
              "vel": 105
            },
            {
              "note": "C#2",
              "pitch": 49,
              "beat": 12.0,
              "dur": 1.0,
              "vel": 105
            },
            {
              "note": "C#3",
              "pitch": 61,
              "beat": 12.0,
              "dur": 1.0,
              "vel": 105
            },
            {
              "note": "F3",
              "pitch": 65,
              "beat": 12.0,
              "dur": 1.0,
              "vel": 105
            },
            {
              "note": "G#2",
              "pitch": 56,
              "beat": 13.48,
              "dur": 1.0,
              "vel": 105
            },
            {
              "note": "C#1",
              "pitch": 37,
              "beat": 13.5,
              "dur": 1.0,
              "vel": 105
            },
            {
              "note": "C#2",
              "pitch": 49,
              "beat": 13.5,
              "dur": 1.0,
              "vel": 105
            },
            {
              "note": "C#3",
              "pitch": 61,
              "beat": 13.5,
              "dur": 1.0,
              "vel": 105
            },
            {
              "note": "F3",
              "pitch": 65,
              "beat": 13.5,
              "dur": 1.0,
              "vel": 105
            },
            {
              "note": "G#2",
              "pitch": 56,
              "beat": 14.48,
              "dur": 1.5,
              "vel": 105
            },
            {
              "note": "C#1",
              "pitch": 37,
              "beat": 14.5,
              "dur": 1.5,
              "vel": 105
            },
            {
              "note": "C#2",
              "pitch": 49,
              "beat": 14.5,
              "dur": 1.5,
              "vel": 105
            },
            {
              "note": "C#3",
              "pitch": 61,
              "beat": 14.5,
              "dur": 1.5,
              "vel": 105
            },
            {
              "note": "F3",
              "pitch": 65,
              "beat": 14.5,
              "dur": 1.5,
              "vel": 105
            }
          ]
        },
        {
          "bar_start": 127.0,
          "bar_end": 127.25,
          "name": "",
          "notes": [
            {
              "note": "F#1",
              "pitch": 42,
              "beat": 0.0,
              "dur": 1.0,
              "vel": 105
            },
            {
              "note": "F#2",
              "pitch": 54,
              "beat": 0.0,
              "dur": 1.0,
              "vel": 105
            },
            {
              "note": "A#2",
              "pitch": 58,
              "beat": 0.0,
              "dur": 1.0,
              "vel": 105
            },
            {
              "note": "C#3",
              "pitch": 61,
              "beat": 0.0,
              "dur": 1.0,
              "vel": 105
            },
            {
              "note": "F3",
              "pitch": 65,
              "beat": 0.0,
              "dur": 1.0,
              "vel": 105
            },
            {
              "note": "F#1",
              "pitch": 42,
              "beat": 1.5,
              "dur": 1.0,
              "vel": 105
            },
            {
              "note": "F#2",
              "pitch": 54,
              "beat": 1.5,
              "dur": 1.0,
              "vel": 105
            },
            {
              "note": "A#2",
              "pitch": 58,
              "beat": 1.5,
              "dur": 1.0,
              "vel": 105
            },
            {
              "note": "C#3",
              "pitch": 61,
              "beat": 1.5,
              "dur": 1.0,
              "vel": 105
            },
            {
              "note": "F3",
              "pitch": 65,
              "beat": 1.5,
              "dur": 1.0,
              "vel": 105
            },
            {
              "note": "G#2",
              "pitch": 56,
              "beat": 3.98,
              "dur": 1.0,
              "vel": 105
            },
            {
              "note": "C#2",
              "pitch": 49,
              "beat": 4.0,
              "dur": 1.0,
              "vel": 105
            },
            {
              "note": "C#3",
              "pitch": 61,
              "beat": 4.0,
              "dur": 1.0,
              "vel": 105
            },
            {
              "note": "F3",
              "pitch": 65,
              "beat": 4.0,
              "dur": 1.0,
              "vel": 105
            },
            {
              "note": "C#1",
              "pitch": 37,
              "beat": 4.01,
              "dur": 1.0,
              "vel": 105
            },
            {
              "note": "G#2",
              "pitch": 56,
              "beat": 5.48,
              "dur": 1.0,
              "vel": 105
            },
            {
              "note": "C#2",
              "pitch": 49,
              "beat": 5.5,
              "dur": 1.0,
              "vel": 105
            },
            {
              "note": "C#3",
              "pitch": 61,
              "beat": 5.5,
              "dur": 1.0,
              "vel": 105
            },
            {
              "note": "F3",
              "pitch": 65,
              "beat": 5.5,
              "dur": 1.0,
              "vel": 105
            },
            {
              "note": "C#1",
              "pitch": 37,
              "beat": 5.51,
              "dur": 1.0,
              "vel": 105
            },
            {
              "note": "A#0",
              "pitch": 34,
              "beat": 8.0,
              "dur": 1.0,
              "vel": 105
            },
            {
              "note": "A#1",
              "pitch": 46,
              "beat": 8.0,
              "dur": 1.0,
              "vel": 105
            },
            {
              "note": "F2",
              "pitch": 53,
              "beat": 8.0,
              "dur": 1.0,
              "vel": 105
            },
            {
              "note": "A#2",
              "pitch": 58,
              "beat": 8.0,
              "dur": 1.0,
              "vel": 105
            },
            {
              "note": "C#3",
              "pitch": 61,
              "beat": 8.0,
              "dur": 1.0,
              "vel": 105
            },
            {
              "note": "A#0",
              "pitch": 34,
              "beat": 9.5,
              "dur": 1.0,
              "vel": 105
            },
            {
              "note": "A#1",
              "pitch": 46,
              "beat": 9.5,
              "dur": 1.0,
              "vel": 105
            },
            {
              "note": "F2",
              "pitch": 53,
              "beat": 9.5,
              "dur": 1.0,
              "vel": 105
            },
            {
              "note": "A#2",
              "pitch": 58,
              "beat": 9.5,
              "dur": 1.0,
              "vel": 105
            },
            {
              "note": "C#3",
              "pitch": 61,
              "beat": 9.5,
              "dur": 1.0,
              "vel": 105
            },
            {
              "note": "G#2",
              "pitch": 56,
              "beat": 11.98,
              "dur": 1.0,
              "vel": 105
            },
            {
              "note": "C#1",
              "pitch": 37,
              "beat": 12.0,
              "dur": 1.0,
              "vel": 105
            },
            {
              "note": "C#2",
              "pitch": 49,
              "beat": 12.0,
              "dur": 1.0,
              "vel": 105
            },
            {
              "note": "C#3",
              "pitch": 61,
              "beat": 12.0,
              "dur": 1.0,
              "vel": 105
            },
            {
              "note": "F3",
              "pitch": 65,
              "beat": 12.0,
              "dur": 1.0,
              "vel": 105
            },
            {
              "note": "G#2",
              "pitch": 56,
              "beat": 13.48,
              "dur": 1.0,
              "vel": 105
            },
            {
              "note": "C#1",
              "pitch": 37,
              "beat": 13.5,
              "dur": 1.0,
              "vel": 105
            },
            {
              "note": "C#2",
              "pitch": 49,
              "beat": 13.5,
              "dur": 1.0,
              "vel": 105
            },
            {
              "note": "C#3",
              "pitch": 61,
              "beat": 13.5,
              "dur": 1.0,
              "vel": 105
            },
            {
              "note": "F3",
              "pitch": 65,
              "beat": 13.5,
              "dur": 1.0,
              "vel": 105
            },
            {
              "note": "G#2",
              "pitch": 56,
              "beat": 14.48,
              "dur": 1.5,
              "vel": 105
            },
            {
              "note": "C#1",
              "pitch": 37,
              "beat": 14.5,
              "dur": 1.5,
              "vel": 105
            },
            {
              "note": "C#2",
              "pitch": 49,
              "beat": 14.5,
              "dur": 1.5,
              "vel": 105
            },
            {
              "note": "C#3",
              "pitch": 61,
              "beat": 14.5,
              "dur": 1.5,
              "vel": 105
            },
            {
              "note": "F3",
              "pitch": 65,
              "beat": 14.5,
              "dur": 1.5,
              "vel": 105
            }
          ]
        },
        {
          "bar_start": 136.0,
          "bar_end": 159.0,
          "name": "",
          "notes": [
            {
              "note": "F#1",
              "pitch": 42,
              "beat": 0.0,
              "dur": 1.0,
              "vel": 105
            },
            {
              "note": "F#2",
              "pitch": 54,
              "beat": 0.0,
              "dur": 1.0,
              "vel": 105
            },
            {
              "note": "A#2",
              "pitch": 58,
              "beat": 0.0,
              "dur": 1.0,
              "vel": 105
            },
            {
              "note": "C#3",
              "pitch": 61,
              "beat": 0.0,
              "dur": 1.0,
              "vel": 105
            },
            {
              "note": "F3",
              "pitch": 65,
              "beat": 0.0,
              "dur": 1.0,
              "vel": 105
            },
            {
              "note": "F#1",
              "pitch": 42,
              "beat": 1.5,
              "dur": 1.0,
              "vel": 105
            },
            {
              "note": "F#2",
              "pitch": 54,
              "beat": 1.5,
              "dur": 1.0,
              "vel": 105
            },
            {
              "note": "A#2",
              "pitch": 58,
              "beat": 1.5,
              "dur": 1.0,
              "vel": 105
            },
            {
              "note": "C#3",
              "pitch": 61,
              "beat": 1.5,
              "dur": 1.0,
              "vel": 105
            },
            {
              "note": "F3",
              "pitch": 65,
              "beat": 1.5,
              "dur": 1.0,
              "vel": 105
            },
            {
              "note": "G#2",
              "pitch": 56,
              "beat": 3.98,
              "dur": 1.0,
              "vel": 105
            },
            {
              "note": "C#2",
              "pitch": 49,
              "beat": 4.0,
              "dur": 1.0,
              "vel": 105
            },
            {
              "note": "C#3",
              "pitch": 61,
              "beat": 4.0,
              "dur": 1.0,
              "vel": 105
            },
            {
              "note": "F3",
              "pitch": 65,
              "beat": 4.0,
              "dur": 1.0,
              "vel": 105
            },
            {
              "note": "C#1",
              "pitch": 37,
              "beat": 4.01,
              "dur": 1.0,
              "vel": 105
            },
            {
              "note": "G#2",
              "pitch": 56,
              "beat": 5.48,
              "dur": 1.0,
              "vel": 105
            },
            {
              "note": "C#2",
              "pitch": 49,
              "beat": 5.5,
              "dur": 1.0,
              "vel": 105
            },
            {
              "note": "C#3",
              "pitch": 61,
              "beat": 5.5,
              "dur": 1.0,
              "vel": 105
            },
            {
              "note": "F3",
              "pitch": 65,
              "beat": 5.5,
              "dur": 1.0,
              "vel": 105
            },
            {
              "note": "C#1",
              "pitch": 37,
              "beat": 5.51,
              "dur": 1.0,
              "vel": 105
            },
            {
              "note": "A#0",
              "pitch": 34,
              "beat": 8.0,
              "dur": 1.0,
              "vel": 105
            },
            {
              "note": "A#1",
              "pitch": 46,
              "beat": 8.0,
              "dur": 1.0,
              "vel": 105
            },
            {
              "note": "F2",
              "pitch": 53,
              "beat": 8.0,
              "dur": 1.0,
              "vel": 105
            },
            {
              "note": "A#2",
              "pitch": 58,
              "beat": 8.0,
              "dur": 1.0,
              "vel": 105
            },
            {
              "note": "C#3",
              "pitch": 61,
              "beat": 8.0,
              "dur": 1.0,
              "vel": 105
            },
            {
              "note": "A#0",
              "pitch": 34,
              "beat": 9.5,
              "dur": 1.0,
              "vel": 105
            },
            {
              "note": "A#1",
              "pitch": 46,
              "beat": 9.5,
              "dur": 1.0,
              "vel": 105
            },
            {
              "note": "F2",
              "pitch": 53,
              "beat": 9.5,
              "dur": 1.0,
              "vel": 105
            },
            {
              "note": "A#2",
              "pitch": 58,
              "beat": 9.5,
              "dur": 1.0,
              "vel": 105
            },
            {
              "note": "C#3",
              "pitch": 61,
              "beat": 9.5,
              "dur": 1.0,
              "vel": 105
            },
            {
              "note": "G#2",
              "pitch": 56,
              "beat": 11.98,
              "dur": 1.0,
              "vel": 105
            },
            {
              "note": "C#1",
              "pitch": 37,
              "beat": 12.0,
              "dur": 1.0,
              "vel": 105
            },
            {
              "note": "C#2",
              "pitch": 49,
              "beat": 12.0,
              "dur": 1.0,
              "vel": 105
            },
            {
              "note": "C#3",
              "pitch": 61,
              "beat": 12.0,
              "dur": 1.0,
              "vel": 105
            },
            {
              "note": "F3",
              "pitch": 65,
              "beat": 12.0,
              "dur": 1.0,
              "vel": 105
            },
            {
              "note": "G#2",
              "pitch": 56,
              "beat": 13.48,
              "dur": 1.0,
              "vel": 105
            },
            {
              "note": "C#1",
              "pitch": 37,
              "beat": 13.5,
              "dur": 1.0,
              "vel": 105
            },
            {
              "note": "C#2",
              "pitch": 49,
              "beat": 13.5,
              "dur": 1.0,
              "vel": 105
            },
            {
              "note": "C#3",
              "pitch": 61,
              "beat": 13.5,
              "dur": 1.0,
              "vel": 105
            },
            {
              "note": "F3",
              "pitch": 65,
              "beat": 13.5,
              "dur": 1.0,
              "vel": 105
            },
            {
              "note": "G#2",
              "pitch": 56,
              "beat": 14.48,
              "dur": 1.5,
              "vel": 105
            },
            {
              "note": "C#1",
              "pitch": 37,
              "beat": 14.5,
              "dur": 1.5,
              "vel": 105
            },
            {
              "note": "C#2",
              "pitch": 49,
              "beat": 14.5,
              "dur": 1.5,
              "vel": 105
            },
            {
              "note": "C#3",
              "pitch": 61,
              "beat": 14.5,
              "dur": 1.5,
              "vel": 105
            },
            {
              "note": "F3",
              "pitch": 65,
              "beat": 14.5,
              "dur": 1.5,
              "vel": 105
            }
          ]
        }
      ],
      "automations": [],
      "children": []
    },
    "135": {
      "id": "135",
      "name": "piano",
      "type": "MidiTrack",
      "group_id": "133",
      "devices": [
        {
          "type": "InstrumentGroupDevice",
          "On": "true",
          "Drive": "0",
          "Compand": "0",
          "Random": "0",
          "Mode": "0",
          "Operation": "2",
          "MaxOut": "127",
          "MinOut": "1",
          "Range": "127",
          "Lowest": "1",
          "SampleStart": "0",
          "SampleLength": "1",
          "LoopOn": "false",
          "LoopLength": "1",
          "LoopFade": "0",
          "Reverse": "false",
          "Snap": "false",
          "SampleSelector": "0",
          "IsOn": "false",
          "TransposeKey": "0"
        },
        {
          "type": "Eq8",
          "bands": []
        },
        {
          "type": "Amp",
          "On": "true",
          "AmpType": "0",
          "Bass": "5",
          "Middle": "5",
          "Treble": "5",
          "Presence": "5.35433054",
          "Gain": "5.98425198",
          "Volume": "6.19047642",
          "DualMono": "false",
          "DryWet": "0.4365079403"
        }
      ],
      "clips": [
        {
          "bar_start": 56.0,
          "bar_end": 68.0,
          "name": "",
          "notes": [
            {
              "note": "F#1",
              "pitch": 42,
              "beat": 0.0,
              "dur": 1.25,
              "vel": 97
            },
            {
              "note": "F#2",
              "pitch": 54,
              "beat": 0.0,
              "dur": 1.25,
              "vel": 97
            },
            {
              "note": "A#2",
              "pitch": 58,
              "beat": 0.0,
              "dur": 1.25,
              "vel": 97
            },
            {
              "note": "C#3",
              "pitch": 61,
              "beat": 0.0,
              "dur": 1.25,
              "vel": 97
            },
            {
              "note": "F3",
              "pitch": 65,
              "beat": 0.0,
              "dur": 1.25,
              "vel": 97
            },
            {
              "note": "A#3",
              "pitch": 70,
              "beat": 0.0,
              "dur": 1.0,
              "vel": 105
            },
            {
              "note": "F#1",
              "pitch": 42,
              "beat": 1.5,
              "dur": 1.25,
              "vel": 97
            },
            {
              "note": "F#2",
              "pitch": 54,
              "beat": 1.5,
              "dur": 1.25,
              "vel": 97
            },
            {
              "note": "A#2",
              "pitch": 58,
              "beat": 1.5,
              "dur": 1.25,
              "vel": 97
            },
            {
              "note": "C#3",
              "pitch": 61,
              "beat": 1.5,
              "dur": 1.25,
              "vel": 97
            },
            {
              "note": "F3",
              "pitch": 65,
              "beat": 1.5,
              "dur": 1.25,
              "vel": 97
            },
            {
              "note": "A#3",
              "pitch": 70,
              "beat": 1.5,
              "dur": 1.0,
              "vel": 105
            },
            {
              "note": "G#2",
              "pitch": 56,
              "beat": 3.98,
              "dur": 1.25,
              "vel": 97
            },
            {
              "note": "C#2",
              "pitch": 49,
              "beat": 4.0,
              "dur": 1.25,
              "vel": 97
            },
            {
              "note": "C#3",
              "pitch": 61,
              "beat": 4.0,
              "dur": 1.25,
              "vel": 97
            },
            {
              "note": "F3",
              "pitch": 65,
              "beat": 4.0,
              "dur": 1.25,
              "vel": 97
            },
            {
              "note": "C4",
              "pitch": 72,
              "beat": 4.0,
              "dur": 1.0,
              "vel": 105
            },
            {
              "note": "C#1",
              "pitch": 37,
              "beat": 4.01,
              "dur": 1.25,
              "vel": 97
            },
            {
              "note": "G#2",
              "pitch": 56,
              "beat": 5.48,
              "dur": 1.25,
              "vel": 97
            },
            {
              "note": "C#2",
              "pitch": 49,
              "beat": 5.5,
              "dur": 1.25,
              "vel": 97
            },
            {
              "note": "C#3",
              "pitch": 61,
              "beat": 5.5,
              "dur": 1.25,
              "vel": 97
            },
            {
              "note": "F3",
              "pitch": 65,
              "beat": 5.5,
              "dur": 1.25,
              "vel": 97
            },
            {
              "note": "C4",
              "pitch": 72,
              "beat": 5.5,
              "dur": 1.25,
              "vel": 105
            },
            {
              "note": "C#1",
              "pitch": 37,
              "beat": 5.51,
              "dur": 1.25,
              "vel": 97
            },
            {
              "note": "A#0",
              "pitch": 34,
              "beat": 8.0,
              "dur": 1.25,
              "vel": 97
            },
            {
              "note": "A#1",
              "pitch": 46,
              "beat": 8.0,
              "dur": 1.25,
              "vel": 97
            },
            {
              "note": "F2",
              "pitch": 53,
              "beat": 8.0,
              "dur": 1.25,
              "vel": 97
            },
            {
              "note": "A#2",
              "pitch": 58,
              "beat": 8.0,
              "dur": 1.25,
              "vel": 97
            },
            {
              "note": "C#3",
              "pitch": 61,
              "beat": 8.0,
              "dur": 1.25,
              "vel": 97
            },
            {
              "note": "C#4",
              "pitch": 73,
              "beat": 8.0,
              "dur": 1.0,
              "vel": 105
            },
            {
              "note": "A#0",
              "pitch": 34,
              "beat": 9.5,
              "dur": 1.25,
              "vel": 97
            },
            {
              "note": "A#1",
              "pitch": 46,
              "beat": 9.5,
              "dur": 1.25,
              "vel": 97
            },
            {
              "note": "F2",
              "pitch": 53,
              "beat": 9.5,
              "dur": 1.25,
              "vel": 97
            },
            {
              "note": "A#2",
              "pitch": 58,
              "beat": 9.5,
              "dur": 1.25,
              "vel": 97
            },
            {
              "note": "C#3",
              "pitch": 61,
              "beat": 9.5,
              "dur": 1.25,
              "vel": 97
            },
            {
              "note": "C#4",
              "pitch": 73,
              "beat": 9.5,
              "dur": 1.0,
              "vel": 105
            },
            {
              "note": "G#2",
              "pitch": 56,
              "beat": 11.98,
              "dur": 1.25,
              "vel": 97
            },
            {
              "note": "C#1",
              "pitch": 37,
              "beat": 12.0,
              "dur": 1.25,
              "vel": 97
            },
            {
              "note": "C#2",
              "pitch": 49,
              "beat": 12.0,
              "dur": 1.25,
              "vel": 97
            },
            {
              "note": "C#3",
              "pitch": 61,
              "beat": 12.0,
              "dur": 1.25,
              "vel": 97
            },
            {
              "note": "F3",
              "pitch": 65,
              "beat": 12.0,
              "dur": 1.25,
              "vel": 97
            },
            {
              "note": "C4",
              "pitch": 72,
              "beat": 12.0,
              "dur": 1.0,
              "vel": 105
            },
            {
              "note": "G#2",
              "pitch": 56,
              "beat": 13.48,
              "dur": 1.0,
              "vel": 97
            },
            {
              "note": "C#1",
              "pitch": 37,
              "beat": 13.5,
              "dur": 1.0,
              "vel": 97
            },
            {
              "note": "C#2",
              "pitch": 49,
              "beat": 13.5,
              "dur": 1.0,
              "vel": 97
            },
            {
              "note": "C#3",
              "pitch": 61,
              "beat": 13.5,
              "dur": 1.0,
              "vel": 97
            },
            {
              "note": "F3",
              "pitch": 65,
              "beat": 13.5,
              "dur": 1.0,
              "vel": 97
            },
            {
              "note": "C4",
              "pitch": 72,
              "beat": 13.5,
              "dur": 1.0,
              "vel": 105
            },
            {
              "note": "G#2",
              "pitch": 56,
              "beat": 14.48,
              "dur": 1.75,
              "vel": 97
            },
            {
              "note": "C#1",
              "pitch": 37,
              "beat": 14.5,
              "dur": 1.75,
              "vel": 97
            },
            {
              "note": "C#2",
              "pitch": 49,
              "beat": 14.5,
              "dur": 1.75,
              "vel": 97
            },
            {
              "note": "C#3",
              "pitch": 61,
              "beat": 14.5,
              "dur": 1.75,
              "vel": 97
            },
            {
              "note": "F3",
              "pitch": 65,
              "beat": 14.5,
              "dur": 1.75,
              "vel": 97
            },
            {
              "note": "C4",
              "pitch": 72,
              "beat": 14.5,
              "dur": 1.5,
              "vel": 105
            }
          ]
        },
        {
          "bar_start": 68.0,
          "bar_end": 72.0,
          "name": "",
          "notes": [
            {
              "note": "F#1",
              "pitch": 42,
              "beat": 0.0,
              "dur": 1.0,
              "vel": 105
            },
            {
              "note": "F#2",
              "pitch": 54,
              "beat": 0.0,
              "dur": 1.0,
              "vel": 105
            },
            {
              "note": "A#2",
              "pitch": 58,
              "beat": 0.0,
              "dur": 1.0,
              "vel": 105
            },
            {
              "note": "C#3",
              "pitch": 61,
              "beat": 0.0,
              "dur": 1.0,
              "vel": 105
            },
            {
              "note": "F3",
              "pitch": 65,
              "beat": 0.0,
              "dur": 1.0,
              "vel": 105
            },
            {
              "note": "F#1",
              "pitch": 42,
              "beat": 1.5,
              "dur": 1.0,
              "vel": 105
            },
            {
              "note": "F#2",
              "pitch": 54,
              "beat": 1.5,
              "dur": 1.0,
              "vel": 105
            },
            {
              "note": "A#2",
              "pitch": 58,
              "beat": 1.5,
              "dur": 1.0,
              "vel": 105
            },
            {
              "note": "C#3",
              "pitch": 61,
              "beat": 1.5,
              "dur": 1.0,
              "vel": 105
            },
            {
              "note": "F3",
              "pitch": 65,
              "beat": 1.5,
              "dur": 1.0,
              "vel": 105
            },
            {
              "note": "G#2",
              "pitch": 56,
              "beat": 3.98,
              "dur": 1.0,
              "vel": 105
            },
            {
              "note": "C#2",
              "pitch": 49,
              "beat": 4.0,
              "dur": 1.0,
              "vel": 105
            },
            {
              "note": "C#3",
              "pitch": 61,
              "beat": 4.0,
              "dur": 1.0,
              "vel": 105
            },
            {
              "note": "F3",
              "pitch": 65,
              "beat": 4.0,
              "dur": 1.0,
              "vel": 105
            },
            {
              "note": "C#1",
              "pitch": 37,
              "beat": 4.01,
              "dur": 1.0,
              "vel": 105
            },
            {
              "note": "G#2",
              "pitch": 56,
              "beat": 5.48,
              "dur": 1.0,
              "vel": 105
            },
            {
              "note": "C#2",
              "pitch": 49,
              "beat": 5.5,
              "dur": 1.0,
              "vel": 105
            },
            {
              "note": "C#3",
              "pitch": 61,
              "beat": 5.5,
              "dur": 1.0,
              "vel": 105
            },
            {
              "note": "F3",
              "pitch": 65,
              "beat": 5.5,
              "dur": 1.0,
              "vel": 105
            },
            {
              "note": "C#1",
              "pitch": 37,
              "beat": 5.51,
              "dur": 1.0,
              "vel": 105
            },
            {
              "note": "A#0",
              "pitch": 34,
              "beat": 8.0,
              "dur": 1.0,
              "vel": 105
            },
            {
              "note": "A#1",
              "pitch": 46,
              "beat": 8.0,
              "dur": 1.0,
              "vel": 105
            },
            {
              "note": "F2",
              "pitch": 53,
              "beat": 8.0,
              "dur": 1.0,
              "vel": 105
            },
            {
              "note": "A#2",
              "pitch": 58,
              "beat": 8.0,
              "dur": 1.0,
              "vel": 105
            },
            {
              "note": "C#3",
              "pitch": 61,
              "beat": 8.0,
              "dur": 1.0,
              "vel": 105
            },
            {
              "note": "A#0",
              "pitch": 34,
              "beat": 9.5,
              "dur": 1.0,
              "vel": 105
            },
            {
              "note": "A#1",
              "pitch": 46,
              "beat": 9.5,
              "dur": 1.0,
              "vel": 105
            },
            {
              "note": "F2",
              "pitch": 53,
              "beat": 9.5,
              "dur": 1.0,
              "vel": 105
            },
            {
              "note": "A#2",
              "pitch": 58,
              "beat": 9.5,
              "dur": 1.0,
              "vel": 105
            },
            {
              "note": "C#3",
              "pitch": 61,
              "beat": 9.5,
              "dur": 1.0,
              "vel": 105
            },
            {
              "note": "G#2",
              "pitch": 56,
              "beat": 11.98,
              "dur": 0.02,
              "vel": 105
            },
            {
              "note": "A#0",
              "pitch": 34,
              "beat": 12.0,
              "dur": 1.0,
              "vel": 105
            },
            {
              "note": "A#1",
              "pitch": 46,
              "beat": 12.0,
              "dur": 1.0,
              "vel": 105
            },
            {
              "note": "F2",
              "pitch": 53,
              "beat": 12.0,
              "dur": 1.0,
              "vel": 105
            },
            {
              "note": "A#2",
              "pitch": 58,
              "beat": 12.0,
              "dur": 1.0,
              "vel": 105
            },
            {
              "note": "C#3",
              "pitch": 61,
              "beat": 12.0,
              "dur": 1.0,
              "vel": 105
            },
            {
              "note": "A#0",
              "pitch": 34,
              "beat": 13.5,
              "dur": 1.0,
              "vel": 105
            },
            {
              "note": "A#1",
              "pitch": 46,
              "beat": 13.5,
              "dur": 1.0,
              "vel": 105
            },
            {
              "note": "F2",
              "pitch": 53,
              "beat": 13.5,
              "dur": 1.0,
              "vel": 105
            },
            {
              "note": "A#2",
              "pitch": 58,
              "beat": 13.5,
              "dur": 1.0,
              "vel": 105
            },
            {
              "note": "C#3",
              "pitch": 61,
              "beat": 13.5,
              "dur": 1.0,
              "vel": 105
            },
            {
              "note": "G#2",
              "pitch": 56,
              "beat": 15.98,
              "dur": 1.0,
              "vel": 105
            }
          ]
        },
        {
          "bar_start": 72.0,
          "bar_end": 78.0,
          "name": "",
          "notes": [
            {
              "note": "F#1",
              "pitch": 42,
              "beat": 0.0,
              "dur": 1.25,
              "vel": 97
            },
            {
              "note": "F#2",
              "pitch": 54,
              "beat": 0.0,
              "dur": 1.25,
              "vel": 97
            },
            {
              "note": "A#2",
              "pitch": 58,
              "beat": 0.0,
              "dur": 1.25,
              "vel": 97
            },
            {
              "note": "C#3",
              "pitch": 61,
              "beat": 0.0,
              "dur": 1.25,
              "vel": 97
            },
            {
              "note": "F3",
              "pitch": 65,
              "beat": 0.0,
              "dur": 1.25,
              "vel": 97
            },
            {
              "note": "A#3",
              "pitch": 70,
              "beat": 0.0,
              "dur": 1.0,
              "vel": 105
            },
            {
              "note": "F#1",
              "pitch": 42,
              "beat": 1.5,
              "dur": 1.25,
              "vel": 97
            },
            {
              "note": "F#2",
              "pitch": 54,
              "beat": 1.5,
              "dur": 1.25,
              "vel": 97
            },
            {
              "note": "A#2",
              "pitch": 58,
              "beat": 1.5,
              "dur": 1.25,
              "vel": 97
            },
            {
              "note": "C#3",
              "pitch": 61,
              "beat": 1.5,
              "dur": 1.25,
              "vel": 97
            },
            {
              "note": "F3",
              "pitch": 65,
              "beat": 1.5,
              "dur": 1.25,
              "vel": 97
            },
            {
              "note": "A#3",
              "pitch": 70,
              "beat": 1.5,
              "dur": 1.0,
              "vel": 105
            },
            {
              "note": "G#2",
              "pitch": 56,
              "beat": 3.98,
              "dur": 1.25,
              "vel": 97
            },
            {
              "note": "C#2",
              "pitch": 49,
              "beat": 4.0,
              "dur": 1.25,
              "vel": 97
            },
            {
              "note": "C#3",
              "pitch": 61,
              "beat": 4.0,
              "dur": 1.25,
              "vel": 97
            },
            {
              "note": "F3",
              "pitch": 65,
              "beat": 4.0,
              "dur": 1.25,
              "vel": 97
            },
            {
              "note": "C4",
              "pitch": 72,
              "beat": 4.0,
              "dur": 1.0,
              "vel": 105
            },
            {
              "note": "C#1",
              "pitch": 37,
              "beat": 4.01,
              "dur": 1.25,
              "vel": 97
            },
            {
              "note": "G#2",
              "pitch": 56,
              "beat": 5.48,
              "dur": 1.25,
              "vel": 97
            },
            {
              "note": "C#2",
              "pitch": 49,
              "beat": 5.5,
              "dur": 1.25,
              "vel": 97
            },
            {
              "note": "C#3",
              "pitch": 61,
              "beat": 5.5,
              "dur": 1.25,
              "vel": 97
            },
            {
              "note": "F3",
              "pitch": 65,
              "beat": 5.5,
              "dur": 1.25,
              "vel": 97
            },
            {
              "note": "C4",
              "pitch": 72,
              "beat": 5.5,
              "dur": 1.25,
              "vel": 105
            },
            {
              "note": "C#1",
              "pitch": 37,
              "beat": 5.51,
              "dur": 1.25,
              "vel": 97
            },
            {
              "note": "A#0",
              "pitch": 34,
              "beat": 8.0,
              "dur": 1.25,
              "vel": 97
            },
            {
              "note": "A#1",
              "pitch": 46,
              "beat": 8.0,
              "dur": 1.25,
              "vel": 97
            },
            {
              "note": "F2",
              "pitch": 53,
              "beat": 8.0,
              "dur": 1.25,
              "vel": 97
            },
            {
              "note": "A#2",
              "pitch": 58,
              "beat": 8.0,
              "dur": 1.25,
              "vel": 97
            },
            {
              "note": "C#3",
              "pitch": 61,
              "beat": 8.0,
              "dur": 1.25,
              "vel": 97
            },
            {
              "note": "C#4",
              "pitch": 73,
              "beat": 8.0,
              "dur": 1.0,
              "vel": 105
            },
            {
              "note": "A#0",
              "pitch": 34,
              "beat": 9.5,
              "dur": 1.25,
              "vel": 97
            },
            {
              "note": "A#1",
              "pitch": 46,
              "beat": 9.5,
              "dur": 1.25,
              "vel": 97
            },
            {
              "note": "F2",
              "pitch": 53,
              "beat": 9.5,
              "dur": 1.25,
              "vel": 97
            },
            {
              "note": "A#2",
              "pitch": 58,
              "beat": 9.5,
              "dur": 1.25,
              "vel": 97
            },
            {
              "note": "C#3",
              "pitch": 61,
              "beat": 9.5,
              "dur": 1.25,
              "vel": 97
            },
            {
              "note": "C#4",
              "pitch": 73,
              "beat": 9.5,
              "dur": 1.0,
              "vel": 105
            },
            {
              "note": "G#2",
              "pitch": 56,
              "beat": 11.98,
              "dur": 1.25,
              "vel": 97
            },
            {
              "note": "C#1",
              "pitch": 37,
              "beat": 12.0,
              "dur": 1.25,
              "vel": 97
            },
            {
              "note": "C#2",
              "pitch": 49,
              "beat": 12.0,
              "dur": 1.25,
              "vel": 97
            },
            {
              "note": "C#3",
              "pitch": 61,
              "beat": 12.0,
              "dur": 1.25,
              "vel": 97
            },
            {
              "note": "F3",
              "pitch": 65,
              "beat": 12.0,
              "dur": 1.25,
              "vel": 97
            },
            {
              "note": "C4",
              "pitch": 72,
              "beat": 12.0,
              "dur": 1.0,
              "vel": 105
            },
            {
              "note": "G#2",
              "pitch": 56,
              "beat": 13.48,
              "dur": 1.0,
              "vel": 97
            },
            {
              "note": "C#1",
              "pitch": 37,
              "beat": 13.5,
              "dur": 1.0,
              "vel": 97
            },
            {
              "note": "C#2",
              "pitch": 49,
              "beat": 13.5,
              "dur": 1.0,
              "vel": 97
            },
            {
              "note": "C#3",
              "pitch": 61,
              "beat": 13.5,
              "dur": 1.0,
              "vel": 97
            },
            {
              "note": "F3",
              "pitch": 65,
              "beat": 13.5,
              "dur": 1.0,
              "vel": 97
            },
            {
              "note": "C4",
              "pitch": 72,
              "beat": 13.5,
              "dur": 1.0,
              "vel": 105
            },
            {
              "note": "G#2",
              "pitch": 56,
              "beat": 14.48,
              "dur": 1.75,
              "vel": 97
            },
            {
              "note": "C#1",
              "pitch": 37,
              "beat": 14.5,
              "dur": 1.75,
              "vel": 97
            },
            {
              "note": "C#2",
              "pitch": 49,
              "beat": 14.5,
              "dur": 1.75,
              "vel": 97
            },
            {
              "note": "C#3",
              "pitch": 61,
              "beat": 14.5,
              "dur": 1.75,
              "vel": 97
            },
            {
              "note": "F3",
              "pitch": 65,
              "beat": 14.5,
              "dur": 1.75,
              "vel": 97
            },
            {
              "note": "C4",
              "pitch": 72,
              "beat": 14.5,
              "dur": 1.5,
              "vel": 105
            }
          ]
        },
        {
          "bar_start": 80.0,
          "bar_end": 95.0,
          "name": "",
          "notes": [
            {
              "note": "F#1",
              "pitch": 42,
              "beat": 0.0,
              "dur": 1.25,
              "vel": 97
            },
            {
              "note": "F#2",
              "pitch": 54,
              "beat": 0.0,
              "dur": 1.25,
              "vel": 97
            },
            {
              "note": "A#2",
              "pitch": 58,
              "beat": 0.0,
              "dur": 1.25,
              "vel": 97
            },
            {
              "note": "C#3",
              "pitch": 61,
              "beat": 0.0,
              "dur": 1.25,
              "vel": 97
            },
            {
              "note": "F3",
              "pitch": 65,
              "beat": 0.0,
              "dur": 1.25,
              "vel": 97
            },
            {
              "note": "A#3",
              "pitch": 70,
              "beat": 0.0,
              "dur": 1.0,
              "vel": 105
            },
            {
              "note": "F#1",
              "pitch": 42,
              "beat": 1.5,
              "dur": 1.25,
              "vel": 97
            },
            {
              "note": "F#2",
              "pitch": 54,
              "beat": 1.5,
              "dur": 1.25,
              "vel": 97
            },
            {
              "note": "A#2",
              "pitch": 58,
              "beat": 1.5,
              "dur": 1.25,
              "vel": 97
            },
            {
              "note": "C#3",
              "pitch": 61,
              "beat": 1.5,
              "dur": 1.25,
              "vel": 97
            },
            {
              "note": "F3",
              "pitch": 65,
              "beat": 1.5,
              "dur": 1.25,
              "vel": 97
            },
            {
              "note": "A#3",
              "pitch": 70,
              "beat": 1.5,
              "dur": 1.0,
              "vel": 105
            },
            {
              "note": "G#2",
              "pitch": 56,
              "beat": 3.98,
              "dur": 1.25,
              "vel": 97
            },
            {
              "note": "C#2",
              "pitch": 49,
              "beat": 4.0,
              "dur": 1.25,
              "vel": 97
            },
            {
              "note": "C#3",
              "pitch": 61,
              "beat": 4.0,
              "dur": 1.25,
              "vel": 97
            },
            {
              "note": "F3",
              "pitch": 65,
              "beat": 4.0,
              "dur": 1.25,
              "vel": 97
            },
            {
              "note": "C4",
              "pitch": 72,
              "beat": 4.0,
              "dur": 1.0,
              "vel": 105
            },
            {
              "note": "C#1",
              "pitch": 37,
              "beat": 4.01,
              "dur": 1.25,
              "vel": 97
            },
            {
              "note": "G#2",
              "pitch": 56,
              "beat": 5.48,
              "dur": 1.25,
              "vel": 97
            },
            {
              "note": "C#2",
              "pitch": 49,
              "beat": 5.5,
              "dur": 1.25,
              "vel": 97
            },
            {
              "note": "C#3",
              "pitch": 61,
              "beat": 5.5,
              "dur": 1.25,
              "vel": 97
            },
            {
              "note": "F3",
              "pitch": 65,
              "beat": 5.5,
              "dur": 1.25,
              "vel": 97
            },
            {
              "note": "C4",
              "pitch": 72,
              "beat": 5.5,
              "dur": 1.25,
              "vel": 105
            },
            {
              "note": "C#1",
              "pitch": 37,
              "beat": 5.51,
              "dur": 1.25,
              "vel": 97
            },
            {
              "note": "A#0",
              "pitch": 34,
              "beat": 8.0,
              "dur": 1.25,
              "vel": 97
            },
            {
              "note": "A#1",
              "pitch": 46,
              "beat": 8.0,
              "dur": 1.25,
              "vel": 97
            },
            {
              "note": "F2",
              "pitch": 53,
              "beat": 8.0,
              "dur": 1.25,
              "vel": 97
            },
            {
              "note": "A#2",
              "pitch": 58,
              "beat": 8.0,
              "dur": 1.25,
              "vel": 97
            },
            {
              "note": "C#3",
              "pitch": 61,
              "beat": 8.0,
              "dur": 1.25,
              "vel": 97
            },
            {
              "note": "C#4",
              "pitch": 73,
              "beat": 8.0,
              "dur": 1.0,
              "vel": 105
            },
            {
              "note": "A#0",
              "pitch": 34,
              "beat": 9.5,
              "dur": 1.25,
              "vel": 97
            },
            {
              "note": "A#1",
              "pitch": 46,
              "beat": 9.5,
              "dur": 1.25,
              "vel": 97
            },
            {
              "note": "F2",
              "pitch": 53,
              "beat": 9.5,
              "dur": 1.25,
              "vel": 97
            },
            {
              "note": "A#2",
              "pitch": 58,
              "beat": 9.5,
              "dur": 1.25,
              "vel": 97
            },
            {
              "note": "C#3",
              "pitch": 61,
              "beat": 9.5,
              "dur": 1.25,
              "vel": 97
            },
            {
              "note": "C#4",
              "pitch": 73,
              "beat": 9.5,
              "dur": 1.0,
              "vel": 105
            },
            {
              "note": "G#2",
              "pitch": 56,
              "beat": 11.98,
              "dur": 1.25,
              "vel": 97
            },
            {
              "note": "C#1",
              "pitch": 37,
              "beat": 12.0,
              "dur": 1.25,
              "vel": 97
            },
            {
              "note": "C#2",
              "pitch": 49,
              "beat": 12.0,
              "dur": 1.25,
              "vel": 97
            },
            {
              "note": "C#3",
              "pitch": 61,
              "beat": 12.0,
              "dur": 1.25,
              "vel": 97
            },
            {
              "note": "F3",
              "pitch": 65,
              "beat": 12.0,
              "dur": 1.25,
              "vel": 97
            },
            {
              "note": "C4",
              "pitch": 72,
              "beat": 12.0,
              "dur": 1.0,
              "vel": 105
            },
            {
              "note": "G#2",
              "pitch": 56,
              "beat": 13.48,
              "dur": 1.0,
              "vel": 97
            },
            {
              "note": "C#1",
              "pitch": 37,
              "beat": 13.5,
              "dur": 1.0,
              "vel": 97
            },
            {
              "note": "C#2",
              "pitch": 49,
              "beat": 13.5,
              "dur": 1.0,
              "vel": 97
            },
            {
              "note": "C#3",
              "pitch": 61,
              "beat": 13.5,
              "dur": 1.0,
              "vel": 97
            },
            {
              "note": "F3",
              "pitch": 65,
              "beat": 13.5,
              "dur": 1.0,
              "vel": 97
            },
            {
              "note": "C4",
              "pitch": 72,
              "beat": 13.5,
              "dur": 1.0,
              "vel": 105
            },
            {
              "note": "G#2",
              "pitch": 56,
              "beat": 14.48,
              "dur": 1.75,
              "vel": 97
            },
            {
              "note": "C#1",
              "pitch": 37,
              "beat": 14.5,
              "dur": 1.75,
              "vel": 97
            },
            {
              "note": "C#2",
              "pitch": 49,
              "beat": 14.5,
              "dur": 1.75,
              "vel": 97
            },
            {
              "note": "C#3",
              "pitch": 61,
              "beat": 14.5,
              "dur": 1.75,
              "vel": 97
            },
            {
              "note": "F3",
              "pitch": 65,
              "beat": 14.5,
              "dur": 1.75,
              "vel": 97
            },
            {
              "note": "C4",
              "pitch": 72,
              "beat": 14.5,
              "dur": 1.5,
              "vel": 105
            }
          ]
        },
        {
          "bar_start": 96.0,
          "bar_end": 111.0,
          "name": "",
          "notes": [
            {
              "note": "F#1",
              "pitch": 42,
              "beat": 0.0,
              "dur": 1.25,
              "vel": 97
            },
            {
              "note": "F#2",
              "pitch": 54,
              "beat": 0.0,
              "dur": 1.25,
              "vel": 97
            },
            {
              "note": "A#2",
              "pitch": 58,
              "beat": 0.0,
              "dur": 1.25,
              "vel": 97
            },
            {
              "note": "C#3",
              "pitch": 61,
              "beat": 0.0,
              "dur": 1.25,
              "vel": 97
            },
            {
              "note": "F3",
              "pitch": 65,
              "beat": 0.0,
              "dur": 1.25,
              "vel": 97
            },
            {
              "note": "A#3",
              "pitch": 70,
              "beat": 0.0,
              "dur": 1.0,
              "vel": 105
            },
            {
              "note": "F#1",
              "pitch": 42,
              "beat": 1.5,
              "dur": 1.25,
              "vel": 97
            },
            {
              "note": "F#2",
              "pitch": 54,
              "beat": 1.5,
              "dur": 1.25,
              "vel": 97
            },
            {
              "note": "A#2",
              "pitch": 58,
              "beat": 1.5,
              "dur": 1.25,
              "vel": 97
            },
            {
              "note": "C#3",
              "pitch": 61,
              "beat": 1.5,
              "dur": 1.25,
              "vel": 97
            },
            {
              "note": "F3",
              "pitch": 65,
              "beat": 1.5,
              "dur": 1.25,
              "vel": 97
            },
            {
              "note": "A#3",
              "pitch": 70,
              "beat": 1.5,
              "dur": 1.0,
              "vel": 105
            },
            {
              "note": "G#2",
              "pitch": 56,
              "beat": 3.98,
              "dur": 1.25,
              "vel": 97
            },
            {
              "note": "C#2",
              "pitch": 49,
              "beat": 4.0,
              "dur": 1.25,
              "vel": 97
            },
            {
              "note": "C#3",
              "pitch": 61,
              "beat": 4.0,
              "dur": 1.25,
              "vel": 97
            },
            {
              "note": "F3",
              "pitch": 65,
              "beat": 4.0,
              "dur": 1.25,
              "vel": 97
            },
            {
              "note": "C4",
              "pitch": 72,
              "beat": 4.0,
              "dur": 1.0,
              "vel": 105
            },
            {
              "note": "C#1",
              "pitch": 37,
              "beat": 4.01,
              "dur": 1.25,
              "vel": 97
            },
            {
              "note": "G#2",
              "pitch": 56,
              "beat": 5.48,
              "dur": 1.25,
              "vel": 97
            },
            {
              "note": "C#2",
              "pitch": 49,
              "beat": 5.5,
              "dur": 1.25,
              "vel": 97
            },
            {
              "note": "C#3",
              "pitch": 61,
              "beat": 5.5,
              "dur": 1.25,
              "vel": 97
            },
            {
              "note": "F3",
              "pitch": 65,
              "beat": 5.5,
              "dur": 1.25,
              "vel": 97
            },
            {
              "note": "C4",
              "pitch": 72,
              "beat": 5.5,
              "dur": 1.25,
              "vel": 105
            },
            {
              "note": "C#1",
              "pitch": 37,
              "beat": 5.51,
              "dur": 1.25,
              "vel": 97
            },
            {
              "note": "A#0",
              "pitch": 34,
              "beat": 8.0,
              "dur": 1.25,
              "vel": 97
            },
            {
              "note": "A#1",
              "pitch": 46,
              "beat": 8.0,
              "dur": 1.25,
              "vel": 97
            },
            {
              "note": "F2",
              "pitch": 53,
              "beat": 8.0,
              "dur": 1.25,
              "vel": 97
            },
            {
              "note": "A#2",
              "pitch": 58,
              "beat": 8.0,
              "dur": 1.25,
              "vel": 97
            },
            {
              "note": "C#3",
              "pitch": 61,
              "beat": 8.0,
              "dur": 1.25,
              "vel": 97
            },
            {
              "note": "C#4",
              "pitch": 73,
              "beat": 8.0,
              "dur": 1.0,
              "vel": 105
            },
            {
              "note": "A#0",
              "pitch": 34,
              "beat": 9.5,
              "dur": 1.25,
              "vel": 97
            },
            {
              "note": "A#1",
              "pitch": 46,
              "beat": 9.5,
              "dur": 1.25,
              "vel": 97
            },
            {
              "note": "F2",
              "pitch": 53,
              "beat": 9.5,
              "dur": 1.25,
              "vel": 97
            },
            {
              "note": "A#2",
              "pitch": 58,
              "beat": 9.5,
              "dur": 1.25,
              "vel": 97
            },
            {
              "note": "C#3",
              "pitch": 61,
              "beat": 9.5,
              "dur": 1.25,
              "vel": 97
            },
            {
              "note": "C#4",
              "pitch": 73,
              "beat": 9.5,
              "dur": 1.0,
              "vel": 105
            },
            {
              "note": "G#2",
              "pitch": 56,
              "beat": 11.98,
              "dur": 1.25,
              "vel": 97
            },
            {
              "note": "C#1",
              "pitch": 37,
              "beat": 12.0,
              "dur": 1.25,
              "vel": 97
            },
            {
              "note": "C#2",
              "pitch": 49,
              "beat": 12.0,
              "dur": 1.25,
              "vel": 97
            },
            {
              "note": "C#3",
              "pitch": 61,
              "beat": 12.0,
              "dur": 1.25,
              "vel": 97
            },
            {
              "note": "F3",
              "pitch": 65,
              "beat": 12.0,
              "dur": 1.25,
              "vel": 97
            },
            {
              "note": "C4",
              "pitch": 72,
              "beat": 12.0,
              "dur": 1.0,
              "vel": 105
            },
            {
              "note": "G#2",
              "pitch": 56,
              "beat": 13.48,
              "dur": 1.0,
              "vel": 97
            },
            {
              "note": "C#1",
              "pitch": 37,
              "beat": 13.5,
              "dur": 1.0,
              "vel": 97
            },
            {
              "note": "C#2",
              "pitch": 49,
              "beat": 13.5,
              "dur": 1.0,
              "vel": 97
            },
            {
              "note": "C#3",
              "pitch": 61,
              "beat": 13.5,
              "dur": 1.0,
              "vel": 97
            },
            {
              "note": "F3",
              "pitch": 65,
              "beat": 13.5,
              "dur": 1.0,
              "vel": 97
            },
            {
              "note": "C4",
              "pitch": 72,
              "beat": 13.5,
              "dur": 1.0,
              "vel": 105
            },
            {
              "note": "G#2",
              "pitch": 56,
              "beat": 14.48,
              "dur": 1.75,
              "vel": 97
            },
            {
              "note": "C#1",
              "pitch": 37,
              "beat": 14.5,
              "dur": 1.75,
              "vel": 97
            },
            {
              "note": "C#2",
              "pitch": 49,
              "beat": 14.5,
              "dur": 1.75,
              "vel": 97
            },
            {
              "note": "C#3",
              "pitch": 61,
              "beat": 14.5,
              "dur": 1.75,
              "vel": 97
            },
            {
              "note": "F3",
              "pitch": 65,
              "beat": 14.5,
              "dur": 1.75,
              "vel": 97
            },
            {
              "note": "C4",
              "pitch": 72,
              "beat": 14.5,
              "dur": 1.5,
              "vel": 105
            }
          ]
        },
        {
          "bar_start": 112.0,
          "bar_end": 120.0,
          "name": "",
          "notes": [
            {
              "note": "F#1",
              "pitch": 42,
              "beat": 0.0,
              "dur": 1.25,
              "vel": 97
            },
            {
              "note": "F#2",
              "pitch": 54,
              "beat": 0.0,
              "dur": 1.25,
              "vel": 97
            },
            {
              "note": "A#2",
              "pitch": 58,
              "beat": 0.0,
              "dur": 1.25,
              "vel": 97
            },
            {
              "note": "C#3",
              "pitch": 61,
              "beat": 0.0,
              "dur": 1.25,
              "vel": 97
            },
            {
              "note": "F3",
              "pitch": 65,
              "beat": 0.0,
              "dur": 1.25,
              "vel": 97
            },
            {
              "note": "A#3",
              "pitch": 70,
              "beat": 0.0,
              "dur": 1.0,
              "vel": 105
            },
            {
              "note": "F#1",
              "pitch": 42,
              "beat": 1.5,
              "dur": 1.25,
              "vel": 97
            },
            {
              "note": "F#2",
              "pitch": 54,
              "beat": 1.5,
              "dur": 1.25,
              "vel": 97
            },
            {
              "note": "A#2",
              "pitch": 58,
              "beat": 1.5,
              "dur": 1.25,
              "vel": 97
            },
            {
              "note": "C#3",
              "pitch": 61,
              "beat": 1.5,
              "dur": 1.25,
              "vel": 97
            },
            {
              "note": "F3",
              "pitch": 65,
              "beat": 1.5,
              "dur": 1.25,
              "vel": 97
            },
            {
              "note": "A#3",
              "pitch": 70,
              "beat": 1.5,
              "dur": 1.0,
              "vel": 105
            },
            {
              "note": "G#2",
              "pitch": 56,
              "beat": 3.98,
              "dur": 1.25,
              "vel": 97
            },
            {
              "note": "C#2",
              "pitch": 49,
              "beat": 4.0,
              "dur": 1.25,
              "vel": 97
            },
            {
              "note": "C#3",
              "pitch": 61,
              "beat": 4.0,
              "dur": 1.25,
              "vel": 97
            },
            {
              "note": "F3",
              "pitch": 65,
              "beat": 4.0,
              "dur": 1.25,
              "vel": 97
            },
            {
              "note": "C4",
              "pitch": 72,
              "beat": 4.0,
              "dur": 1.0,
              "vel": 105
            },
            {
              "note": "C#1",
              "pitch": 37,
              "beat": 4.01,
              "dur": 1.25,
              "vel": 97
            },
            {
              "note": "G#2",
              "pitch": 56,
              "beat": 5.48,
              "dur": 1.25,
              "vel": 97
            },
            {
              "note": "C#2",
              "pitch": 49,
              "beat": 5.5,
              "dur": 1.25,
              "vel": 97
            },
            {
              "note": "C#3",
              "pitch": 61,
              "beat": 5.5,
              "dur": 1.25,
              "vel": 97
            },
            {
              "note": "F3",
              "pitch": 65,
              "beat": 5.5,
              "dur": 1.25,
              "vel": 97
            },
            {
              "note": "C4",
              "pitch": 72,
              "beat": 5.5,
              "dur": 1.25,
              "vel": 105
            },
            {
              "note": "C#1",
              "pitch": 37,
              "beat": 5.51,
              "dur": 1.25,
              "vel": 97
            },
            {
              "note": "A#0",
              "pitch": 34,
              "beat": 8.0,
              "dur": 1.25,
              "vel": 97
            },
            {
              "note": "A#1",
              "pitch": 46,
              "beat": 8.0,
              "dur": 1.25,
              "vel": 97
            },
            {
              "note": "F2",
              "pitch": 53,
              "beat": 8.0,
              "dur": 1.25,
              "vel": 97
            },
            {
              "note": "A#2",
              "pitch": 58,
              "beat": 8.0,
              "dur": 1.25,
              "vel": 97
            },
            {
              "note": "C#3",
              "pitch": 61,
              "beat": 8.0,
              "dur": 1.25,
              "vel": 97
            },
            {
              "note": "C#4",
              "pitch": 73,
              "beat": 8.0,
              "dur": 1.0,
              "vel": 105
            },
            {
              "note": "A#0",
              "pitch": 34,
              "beat": 9.5,
              "dur": 1.25,
              "vel": 97
            },
            {
              "note": "A#1",
              "pitch": 46,
              "beat": 9.5,
              "dur": 1.25,
              "vel": 97
            },
            {
              "note": "F2",
              "pitch": 53,
              "beat": 9.5,
              "dur": 1.25,
              "vel": 97
            },
            {
              "note": "A#2",
              "pitch": 58,
              "beat": 9.5,
              "dur": 1.25,
              "vel": 97
            },
            {
              "note": "C#3",
              "pitch": 61,
              "beat": 9.5,
              "dur": 1.25,
              "vel": 97
            },
            {
              "note": "C#4",
              "pitch": 73,
              "beat": 9.5,
              "dur": 1.0,
              "vel": 105
            },
            {
              "note": "G#2",
              "pitch": 56,
              "beat": 11.98,
              "dur": 1.25,
              "vel": 97
            },
            {
              "note": "C#1",
              "pitch": 37,
              "beat": 12.0,
              "dur": 1.25,
              "vel": 97
            },
            {
              "note": "C#2",
              "pitch": 49,
              "beat": 12.0,
              "dur": 1.25,
              "vel": 97
            },
            {
              "note": "C#3",
              "pitch": 61,
              "beat": 12.0,
              "dur": 1.25,
              "vel": 97
            },
            {
              "note": "F3",
              "pitch": 65,
              "beat": 12.0,
              "dur": 1.25,
              "vel": 97
            },
            {
              "note": "C4",
              "pitch": 72,
              "beat": 12.0,
              "dur": 1.0,
              "vel": 105
            },
            {
              "note": "G#2",
              "pitch": 56,
              "beat": 13.48,
              "dur": 1.0,
              "vel": 97
            },
            {
              "note": "C#1",
              "pitch": 37,
              "beat": 13.5,
              "dur": 1.0,
              "vel": 97
            },
            {
              "note": "C#2",
              "pitch": 49,
              "beat": 13.5,
              "dur": 1.0,
              "vel": 97
            },
            {
              "note": "C#3",
              "pitch": 61,
              "beat": 13.5,
              "dur": 1.0,
              "vel": 97
            },
            {
              "note": "F3",
              "pitch": 65,
              "beat": 13.5,
              "dur": 1.0,
              "vel": 97
            },
            {
              "note": "C4",
              "pitch": 72,
              "beat": 13.5,
              "dur": 1.0,
              "vel": 105
            },
            {
              "note": "G#2",
              "pitch": 56,
              "beat": 14.48,
              "dur": 1.75,
              "vel": 97
            },
            {
              "note": "C#1",
              "pitch": 37,
              "beat": 14.5,
              "dur": 1.75,
              "vel": 97
            },
            {
              "note": "C#2",
              "pitch": 49,
              "beat": 14.5,
              "dur": 1.75,
              "vel": 97
            },
            {
              "note": "C#3",
              "pitch": 61,
              "beat": 14.5,
              "dur": 1.75,
              "vel": 97
            },
            {
              "note": "F3",
              "pitch": 65,
              "beat": 14.5,
              "dur": 1.75,
              "vel": 97
            },
            {
              "note": "C4",
              "pitch": 72,
              "beat": 14.5,
              "dur": 1.5,
              "vel": 105
            }
          ]
        },
        {
          "bar_start": 120.0,
          "bar_end": 120.25,
          "name": "",
          "notes": [
            {
              "note": "F#1",
              "pitch": 42,
              "beat": 0.0,
              "dur": 1.0,
              "vel": 105
            },
            {
              "note": "F#2",
              "pitch": 54,
              "beat": 0.0,
              "dur": 1.0,
              "vel": 105
            },
            {
              "note": "A#2",
              "pitch": 58,
              "beat": 0.0,
              "dur": 1.0,
              "vel": 105
            },
            {
              "note": "C#3",
              "pitch": 61,
              "beat": 0.0,
              "dur": 1.0,
              "vel": 105
            },
            {
              "note": "F3",
              "pitch": 65,
              "beat": 0.0,
              "dur": 1.0,
              "vel": 105
            },
            {
              "note": "F#1",
              "pitch": 42,
              "beat": 1.5,
              "dur": 1.0,
              "vel": 105
            },
            {
              "note": "F#2",
              "pitch": 54,
              "beat": 1.5,
              "dur": 1.0,
              "vel": 105
            },
            {
              "note": "A#2",
              "pitch": 58,
              "beat": 1.5,
              "dur": 1.0,
              "vel": 105
            },
            {
              "note": "C#3",
              "pitch": 61,
              "beat": 1.5,
              "dur": 1.0,
              "vel": 105
            },
            {
              "note": "F3",
              "pitch": 65,
              "beat": 1.5,
              "dur": 1.0,
              "vel": 105
            },
            {
              "note": "G#2",
              "pitch": 56,
              "beat": 3.98,
              "dur": 1.0,
              "vel": 105
            },
            {
              "note": "C#2",
              "pitch": 49,
              "beat": 4.0,
              "dur": 1.0,
              "vel": 105
            },
            {
              "note": "C#3",
              "pitch": 61,
              "beat": 4.0,
              "dur": 1.0,
              "vel": 105
            },
            {
              "note": "F3",
              "pitch": 65,
              "beat": 4.0,
              "dur": 1.0,
              "vel": 105
            },
            {
              "note": "C#1",
              "pitch": 37,
              "beat": 4.01,
              "dur": 1.0,
              "vel": 105
            },
            {
              "note": "G#2",
              "pitch": 56,
              "beat": 5.48,
              "dur": 1.0,
              "vel": 105
            },
            {
              "note": "C#2",
              "pitch": 49,
              "beat": 5.5,
              "dur": 1.0,
              "vel": 105
            },
            {
              "note": "C#3",
              "pitch": 61,
              "beat": 5.5,
              "dur": 1.0,
              "vel": 105
            },
            {
              "note": "F3",
              "pitch": 65,
              "beat": 5.5,
              "dur": 1.0,
              "vel": 105
            },
            {
              "note": "C#1",
              "pitch": 37,
              "beat": 5.51,
              "dur": 1.0,
              "vel": 105
            },
            {
              "note": "A#0",
              "pitch": 34,
              "beat": 8.0,
              "dur": 1.0,
              "vel": 105
            },
            {
              "note": "A#1",
              "pitch": 46,
              "beat": 8.0,
              "dur": 1.0,
              "vel": 105
            },
            {
              "note": "F2",
              "pitch": 53,
              "beat": 8.0,
              "dur": 1.0,
              "vel": 105
            },
            {
              "note": "A#2",
              "pitch": 58,
              "beat": 8.0,
              "dur": 1.0,
              "vel": 105
            },
            {
              "note": "C#3",
              "pitch": 61,
              "beat": 8.0,
              "dur": 1.0,
              "vel": 105
            },
            {
              "note": "A#0",
              "pitch": 34,
              "beat": 9.5,
              "dur": 1.0,
              "vel": 105
            },
            {
              "note": "A#1",
              "pitch": 46,
              "beat": 9.5,
              "dur": 1.0,
              "vel": 105
            },
            {
              "note": "F2",
              "pitch": 53,
              "beat": 9.5,
              "dur": 1.0,
              "vel": 105
            },
            {
              "note": "A#2",
              "pitch": 58,
              "beat": 9.5,
              "dur": 1.0,
              "vel": 105
            },
            {
              "note": "C#3",
              "pitch": 61,
              "beat": 9.5,
              "dur": 1.0,
              "vel": 105
            },
            {
              "note": "G#2",
              "pitch": 56,
              "beat": 11.98,
              "dur": 1.0,
              "vel": 105
            },
            {
              "note": "C#1",
              "pitch": 37,
              "beat": 12.0,
              "dur": 1.0,
              "vel": 105
            },
            {
              "note": "C#2",
              "pitch": 49,
              "beat": 12.0,
              "dur": 1.0,
              "vel": 105
            },
            {
              "note": "C#3",
              "pitch": 61,
              "beat": 12.0,
              "dur": 1.0,
              "vel": 105
            },
            {
              "note": "F3",
              "pitch": 65,
              "beat": 12.0,
              "dur": 1.0,
              "vel": 105
            },
            {
              "note": "G#2",
              "pitch": 56,
              "beat": 13.48,
              "dur": 1.0,
              "vel": 105
            },
            {
              "note": "C#1",
              "pitch": 37,
              "beat": 13.5,
              "dur": 1.0,
              "vel": 105
            },
            {
              "note": "C#2",
              "pitch": 49,
              "beat": 13.5,
              "dur": 1.0,
              "vel": 105
            },
            {
              "note": "C#3",
              "pitch": 61,
              "beat": 13.5,
              "dur": 1.0,
              "vel": 105
            },
            {
              "note": "F3",
              "pitch": 65,
              "beat": 13.5,
              "dur": 1.0,
              "vel": 105
            },
            {
              "note": "G#2",
              "pitch": 56,
              "beat": 14.48,
              "dur": 1.5,
              "vel": 105
            },
            {
              "note": "C#1",
              "pitch": 37,
              "beat": 14.5,
              "dur": 1.5,
              "vel": 105
            },
            {
              "note": "C#2",
              "pitch": 49,
              "beat": 14.5,
              "dur": 1.5,
              "vel": 105
            },
            {
              "note": "C#3",
              "pitch": 61,
              "beat": 14.5,
              "dur": 1.5,
              "vel": 105
            },
            {
              "note": "F3",
              "pitch": 65,
              "beat": 14.5,
              "dur": 1.5,
              "vel": 105
            }
          ]
        },
        {
          "bar_start": 121.0,
          "bar_end": 121.25,
          "name": "",
          "notes": [
            {
              "note": "F#1",
              "pitch": 42,
              "beat": 0.0,
              "dur": 1.0,
              "vel": 105
            },
            {
              "note": "F#2",
              "pitch": 54,
              "beat": 0.0,
              "dur": 1.0,
              "vel": 105
            },
            {
              "note": "A#2",
              "pitch": 58,
              "beat": 0.0,
              "dur": 1.0,
              "vel": 105
            },
            {
              "note": "C#3",
              "pitch": 61,
              "beat": 0.0,
              "dur": 1.0,
              "vel": 105
            },
            {
              "note": "F3",
              "pitch": 65,
              "beat": 0.0,
              "dur": 1.0,
              "vel": 105
            },
            {
              "note": "F#1",
              "pitch": 42,
              "beat": 1.5,
              "dur": 1.0,
              "vel": 105
            },
            {
              "note": "F#2",
              "pitch": 54,
              "beat": 1.5,
              "dur": 1.0,
              "vel": 105
            },
            {
              "note": "A#2",
              "pitch": 58,
              "beat": 1.5,
              "dur": 1.0,
              "vel": 105
            },
            {
              "note": "C#3",
              "pitch": 61,
              "beat": 1.5,
              "dur": 1.0,
              "vel": 105
            },
            {
              "note": "F3",
              "pitch": 65,
              "beat": 1.5,
              "dur": 1.0,
              "vel": 105
            },
            {
              "note": "G#2",
              "pitch": 56,
              "beat": 3.98,
              "dur": 1.0,
              "vel": 105
            },
            {
              "note": "C#2",
              "pitch": 49,
              "beat": 4.0,
              "dur": 1.0,
              "vel": 105
            },
            {
              "note": "C#3",
              "pitch": 61,
              "beat": 4.0,
              "dur": 1.0,
              "vel": 105
            },
            {
              "note": "F3",
              "pitch": 65,
              "beat": 4.0,
              "dur": 1.0,
              "vel": 105
            },
            {
              "note": "C#1",
              "pitch": 37,
              "beat": 4.01,
              "dur": 1.0,
              "vel": 105
            },
            {
              "note": "G#2",
              "pitch": 56,
              "beat": 5.48,
              "dur": 1.0,
              "vel": 105
            },
            {
              "note": "C#2",
              "pitch": 49,
              "beat": 5.5,
              "dur": 1.0,
              "vel": 105
            },
            {
              "note": "C#3",
              "pitch": 61,
              "beat": 5.5,
              "dur": 1.0,
              "vel": 105
            },
            {
              "note": "F3",
              "pitch": 65,
              "beat": 5.5,
              "dur": 1.0,
              "vel": 105
            },
            {
              "note": "C#1",
              "pitch": 37,
              "beat": 5.51,
              "dur": 1.0,
              "vel": 105
            },
            {
              "note": "A#0",
              "pitch": 34,
              "beat": 8.0,
              "dur": 1.0,
              "vel": 105
            },
            {
              "note": "A#1",
              "pitch": 46,
              "beat": 8.0,
              "dur": 1.0,
              "vel": 105
            },
            {
              "note": "F2",
              "pitch": 53,
              "beat": 8.0,
              "dur": 1.0,
              "vel": 105
            },
            {
              "note": "A#2",
              "pitch": 58,
              "beat": 8.0,
              "dur": 1.0,
              "vel": 105
            },
            {
              "note": "C#3",
              "pitch": 61,
              "beat": 8.0,
              "dur": 1.0,
              "vel": 105
            },
            {
              "note": "A#0",
              "pitch": 34,
              "beat": 9.5,
              "dur": 1.0,
              "vel": 105
            },
            {
              "note": "A#1",
              "pitch": 46,
              "beat": 9.5,
              "dur": 1.0,
              "vel": 105
            },
            {
              "note": "F2",
              "pitch": 53,
              "beat": 9.5,
              "dur": 1.0,
              "vel": 105
            },
            {
              "note": "A#2",
              "pitch": 58,
              "beat": 9.5,
              "dur": 1.0,
              "vel": 105
            },
            {
              "note": "C#3",
              "pitch": 61,
              "beat": 9.5,
              "dur": 1.0,
              "vel": 105
            },
            {
              "note": "G#2",
              "pitch": 56,
              "beat": 11.98,
              "dur": 1.0,
              "vel": 105
            },
            {
              "note": "C#1",
              "pitch": 37,
              "beat": 12.0,
              "dur": 1.0,
              "vel": 105
            },
            {
              "note": "C#2",
              "pitch": 49,
              "beat": 12.0,
              "dur": 1.0,
              "vel": 105
            },
            {
              "note": "C#3",
              "pitch": 61,
              "beat": 12.0,
              "dur": 1.0,
              "vel": 105
            },
            {
              "note": "F3",
              "pitch": 65,
              "beat": 12.0,
              "dur": 1.0,
              "vel": 105
            },
            {
              "note": "G#2",
              "pitch": 56,
              "beat": 13.48,
              "dur": 1.0,
              "vel": 105
            },
            {
              "note": "C#1",
              "pitch": 37,
              "beat": 13.5,
              "dur": 1.0,
              "vel": 105
            },
            {
              "note": "C#2",
              "pitch": 49,
              "beat": 13.5,
              "dur": 1.0,
              "vel": 105
            },
            {
              "note": "C#3",
              "pitch": 61,
              "beat": 13.5,
              "dur": 1.0,
              "vel": 105
            },
            {
              "note": "F3",
              "pitch": 65,
              "beat": 13.5,
              "dur": 1.0,
              "vel": 105
            },
            {
              "note": "G#2",
              "pitch": 56,
              "beat": 14.48,
              "dur": 1.5,
              "vel": 105
            },
            {
              "note": "C#1",
              "pitch": 37,
              "beat": 14.5,
              "dur": 1.5,
              "vel": 105
            },
            {
              "note": "C#2",
              "pitch": 49,
              "beat": 14.5,
              "dur": 1.5,
              "vel": 105
            },
            {
              "note": "C#3",
              "pitch": 61,
              "beat": 14.5,
              "dur": 1.5,
              "vel": 105
            },
            {
              "note": "F3",
              "pitch": 65,
              "beat": 14.5,
              "dur": 1.5,
              "vel": 105
            }
          ]
        },
        {
          "bar_start": 122.0,
          "bar_end": 122.25,
          "name": "",
          "notes": [
            {
              "note": "F#1",
              "pitch": 42,
              "beat": 0.0,
              "dur": 1.0,
              "vel": 105
            },
            {
              "note": "F#2",
              "pitch": 54,
              "beat": 0.0,
              "dur": 1.0,
              "vel": 105
            },
            {
              "note": "A#2",
              "pitch": 58,
              "beat": 0.0,
              "dur": 1.0,
              "vel": 105
            },
            {
              "note": "C#3",
              "pitch": 61,
              "beat": 0.0,
              "dur": 1.0,
              "vel": 105
            },
            {
              "note": "F3",
              "pitch": 65,
              "beat": 0.0,
              "dur": 1.0,
              "vel": 105
            },
            {
              "note": "F#1",
              "pitch": 42,
              "beat": 1.5,
              "dur": 1.0,
              "vel": 105
            },
            {
              "note": "F#2",
              "pitch": 54,
              "beat": 1.5,
              "dur": 1.0,
              "vel": 105
            },
            {
              "note": "A#2",
              "pitch": 58,
              "beat": 1.5,
              "dur": 1.0,
              "vel": 105
            },
            {
              "note": "C#3",
              "pitch": 61,
              "beat": 1.5,
              "dur": 1.0,
              "vel": 105
            },
            {
              "note": "F3",
              "pitch": 65,
              "beat": 1.5,
              "dur": 1.0,
              "vel": 105
            },
            {
              "note": "G#2",
              "pitch": 56,
              "beat": 3.98,
              "dur": 1.0,
              "vel": 105
            },
            {
              "note": "C#2",
              "pitch": 49,
              "beat": 4.0,
              "dur": 1.0,
              "vel": 105
            },
            {
              "note": "C#3",
              "pitch": 61,
              "beat": 4.0,
              "dur": 1.0,
              "vel": 105
            },
            {
              "note": "F3",
              "pitch": 65,
              "beat": 4.0,
              "dur": 1.0,
              "vel": 105
            },
            {
              "note": "C#1",
              "pitch": 37,
              "beat": 4.01,
              "dur": 1.0,
              "vel": 105
            },
            {
              "note": "G#2",
              "pitch": 56,
              "beat": 5.48,
              "dur": 1.0,
              "vel": 105
            },
            {
              "note": "C#2",
              "pitch": 49,
              "beat": 5.5,
              "dur": 1.0,
              "vel": 105
            },
            {
              "note": "C#3",
              "pitch": 61,
              "beat": 5.5,
              "dur": 1.0,
              "vel": 105
            },
            {
              "note": "F3",
              "pitch": 65,
              "beat": 5.5,
              "dur": 1.0,
              "vel": 105
            },
            {
              "note": "C#1",
              "pitch": 37,
              "beat": 5.51,
              "dur": 1.0,
              "vel": 105
            },
            {
              "note": "A#0",
              "pitch": 34,
              "beat": 8.0,
              "dur": 1.0,
              "vel": 105
            },
            {
              "note": "A#1",
              "pitch": 46,
              "beat": 8.0,
              "dur": 1.0,
              "vel": 105
            },
            {
              "note": "F2",
              "pitch": 53,
              "beat": 8.0,
              "dur": 1.0,
              "vel": 105
            },
            {
              "note": "A#2",
              "pitch": 58,
              "beat": 8.0,
              "dur": 1.0,
              "vel": 105
            },
            {
              "note": "C#3",
              "pitch": 61,
              "beat": 8.0,
              "dur": 1.0,
              "vel": 105
            },
            {
              "note": "A#0",
              "pitch": 34,
              "beat": 9.5,
              "dur": 1.0,
              "vel": 105
            },
            {
              "note": "A#1",
              "pitch": 46,
              "beat": 9.5,
              "dur": 1.0,
              "vel": 105
            },
            {
              "note": "F2",
              "pitch": 53,
              "beat": 9.5,
              "dur": 1.0,
              "vel": 105
            },
            {
              "note": "A#2",
              "pitch": 58,
              "beat": 9.5,
              "dur": 1.0,
              "vel": 105
            },
            {
              "note": "C#3",
              "pitch": 61,
              "beat": 9.5,
              "dur": 1.0,
              "vel": 105
            },
            {
              "note": "G#2",
              "pitch": 56,
              "beat": 11.98,
              "dur": 1.0,
              "vel": 105
            },
            {
              "note": "C#1",
              "pitch": 37,
              "beat": 12.0,
              "dur": 1.0,
              "vel": 105
            },
            {
              "note": "C#2",
              "pitch": 49,
              "beat": 12.0,
              "dur": 1.0,
              "vel": 105
            },
            {
              "note": "C#3",
              "pitch": 61,
              "beat": 12.0,
              "dur": 1.0,
              "vel": 105
            },
            {
              "note": "F3",
              "pitch": 65,
              "beat": 12.0,
              "dur": 1.0,
              "vel": 105
            },
            {
              "note": "G#2",
              "pitch": 56,
              "beat": 13.48,
              "dur": 1.0,
              "vel": 105
            },
            {
              "note": "C#1",
              "pitch": 37,
              "beat": 13.5,
              "dur": 1.0,
              "vel": 105
            },
            {
              "note": "C#2",
              "pitch": 49,
              "beat": 13.5,
              "dur": 1.0,
              "vel": 105
            },
            {
              "note": "C#3",
              "pitch": 61,
              "beat": 13.5,
              "dur": 1.0,
              "vel": 105
            },
            {
              "note": "F3",
              "pitch": 65,
              "beat": 13.5,
              "dur": 1.0,
              "vel": 105
            },
            {
              "note": "G#2",
              "pitch": 56,
              "beat": 14.48,
              "dur": 1.5,
              "vel": 105
            },
            {
              "note": "C#1",
              "pitch": 37,
              "beat": 14.5,
              "dur": 1.5,
              "vel": 105
            },
            {
              "note": "C#2",
              "pitch": 49,
              "beat": 14.5,
              "dur": 1.5,
              "vel": 105
            },
            {
              "note": "C#3",
              "pitch": 61,
              "beat": 14.5,
              "dur": 1.5,
              "vel": 105
            },
            {
              "note": "F3",
              "pitch": 65,
              "beat": 14.5,
              "dur": 1.5,
              "vel": 105
            }
          ]
        },
        {
          "bar_start": 123.0,
          "bar_end": 123.25,
          "name": "",
          "notes": [
            {
              "note": "F#1",
              "pitch": 42,
              "beat": 0.0,
              "dur": 1.0,
              "vel": 105
            },
            {
              "note": "F#2",
              "pitch": 54,
              "beat": 0.0,
              "dur": 1.0,
              "vel": 105
            },
            {
              "note": "A#2",
              "pitch": 58,
              "beat": 0.0,
              "dur": 1.0,
              "vel": 105
            },
            {
              "note": "C#3",
              "pitch": 61,
              "beat": 0.0,
              "dur": 1.0,
              "vel": 105
            },
            {
              "note": "F3",
              "pitch": 65,
              "beat": 0.0,
              "dur": 1.0,
              "vel": 105
            },
            {
              "note": "F#1",
              "pitch": 42,
              "beat": 1.5,
              "dur": 1.0,
              "vel": 105
            },
            {
              "note": "F#2",
              "pitch": 54,
              "beat": 1.5,
              "dur": 1.0,
              "vel": 105
            },
            {
              "note": "A#2",
              "pitch": 58,
              "beat": 1.5,
              "dur": 1.0,
              "vel": 105
            },
            {
              "note": "C#3",
              "pitch": 61,
              "beat": 1.5,
              "dur": 1.0,
              "vel": 105
            },
            {
              "note": "F3",
              "pitch": 65,
              "beat": 1.5,
              "dur": 1.0,
              "vel": 105
            },
            {
              "note": "G#2",
              "pitch": 56,
              "beat": 3.98,
              "dur": 1.0,
              "vel": 105
            },
            {
              "note": "C#2",
              "pitch": 49,
              "beat": 4.0,
              "dur": 1.0,
              "vel": 105
            },
            {
              "note": "C#3",
              "pitch": 61,
              "beat": 4.0,
              "dur": 1.0,
              "vel": 105
            },
            {
              "note": "F3",
              "pitch": 65,
              "beat": 4.0,
              "dur": 1.0,
              "vel": 105
            },
            {
              "note": "C#1",
              "pitch": 37,
              "beat": 4.01,
              "dur": 1.0,
              "vel": 105
            },
            {
              "note": "G#2",
              "pitch": 56,
              "beat": 5.48,
              "dur": 1.0,
              "vel": 105
            },
            {
              "note": "C#2",
              "pitch": 49,
              "beat": 5.5,
              "dur": 1.0,
              "vel": 105
            },
            {
              "note": "C#3",
              "pitch": 61,
              "beat": 5.5,
              "dur": 1.0,
              "vel": 105
            },
            {
              "note": "F3",
              "pitch": 65,
              "beat": 5.5,
              "dur": 1.0,
              "vel": 105
            },
            {
              "note": "C#1",
              "pitch": 37,
              "beat": 5.51,
              "dur": 1.0,
              "vel": 105
            },
            {
              "note": "A#0",
              "pitch": 34,
              "beat": 8.0,
              "dur": 1.0,
              "vel": 105
            },
            {
              "note": "A#1",
              "pitch": 46,
              "beat": 8.0,
              "dur": 1.0,
              "vel": 105
            },
            {
              "note": "F2",
              "pitch": 53,
              "beat": 8.0,
              "dur": 1.0,
              "vel": 105
            },
            {
              "note": "A#2",
              "pitch": 58,
              "beat": 8.0,
              "dur": 1.0,
              "vel": 105
            },
            {
              "note": "C#3",
              "pitch": 61,
              "beat": 8.0,
              "dur": 1.0,
              "vel": 105
            },
            {
              "note": "A#0",
              "pitch": 34,
              "beat": 9.5,
              "dur": 1.0,
              "vel": 105
            },
            {
              "note": "A#1",
              "pitch": 46,
              "beat": 9.5,
              "dur": 1.0,
              "vel": 105
            },
            {
              "note": "F2",
              "pitch": 53,
              "beat": 9.5,
              "dur": 1.0,
              "vel": 105
            },
            {
              "note": "A#2",
              "pitch": 58,
              "beat": 9.5,
              "dur": 1.0,
              "vel": 105
            },
            {
              "note": "C#3",
              "pitch": 61,
              "beat": 9.5,
              "dur": 1.0,
              "vel": 105
            },
            {
              "note": "G#2",
              "pitch": 56,
              "beat": 11.98,
              "dur": 1.0,
              "vel": 105
            },
            {
              "note": "C#1",
              "pitch": 37,
              "beat": 12.0,
              "dur": 1.0,
              "vel": 105
            },
            {
              "note": "C#2",
              "pitch": 49,
              "beat": 12.0,
              "dur": 1.0,
              "vel": 105
            },
            {
              "note": "C#3",
              "pitch": 61,
              "beat": 12.0,
              "dur": 1.0,
              "vel": 105
            },
            {
              "note": "F3",
              "pitch": 65,
              "beat": 12.0,
              "dur": 1.0,
              "vel": 105
            },
            {
              "note": "G#2",
              "pitch": 56,
              "beat": 13.48,
              "dur": 1.0,
              "vel": 105
            },
            {
              "note": "C#1",
              "pitch": 37,
              "beat": 13.5,
              "dur": 1.0,
              "vel": 105
            },
            {
              "note": "C#2",
              "pitch": 49,
              "beat": 13.5,
              "dur": 1.0,
              "vel": 105
            },
            {
              "note": "C#3",
              "pitch": 61,
              "beat": 13.5,
              "dur": 1.0,
              "vel": 105
            },
            {
              "note": "F3",
              "pitch": 65,
              "beat": 13.5,
              "dur": 1.0,
              "vel": 105
            },
            {
              "note": "G#2",
              "pitch": 56,
              "beat": 14.48,
              "dur": 1.5,
              "vel": 105
            },
            {
              "note": "C#1",
              "pitch": 37,
              "beat": 14.5,
              "dur": 1.5,
              "vel": 105
            },
            {
              "note": "C#2",
              "pitch": 49,
              "beat": 14.5,
              "dur": 1.5,
              "vel": 105
            },
            {
              "note": "C#3",
              "pitch": 61,
              "beat": 14.5,
              "dur": 1.5,
              "vel": 105
            },
            {
              "note": "F3",
              "pitch": 65,
              "beat": 14.5,
              "dur": 1.5,
              "vel": 105
            }
          ]
        },
        {
          "bar_start": 124.0,
          "bar_end": 124.25,
          "name": "",
          "notes": [
            {
              "note": "F#1",
              "pitch": 42,
              "beat": 0.0,
              "dur": 1.0,
              "vel": 105
            },
            {
              "note": "F#2",
              "pitch": 54,
              "beat": 0.0,
              "dur": 1.0,
              "vel": 105
            },
            {
              "note": "A#2",
              "pitch": 58,
              "beat": 0.0,
              "dur": 1.0,
              "vel": 105
            },
            {
              "note": "C#3",
              "pitch": 61,
              "beat": 0.0,
              "dur": 1.0,
              "vel": 105
            },
            {
              "note": "F3",
              "pitch": 65,
              "beat": 0.0,
              "dur": 1.0,
              "vel": 105
            },
            {
              "note": "F#1",
              "pitch": 42,
              "beat": 1.5,
              "dur": 1.0,
              "vel": 105
            },
            {
              "note": "F#2",
              "pitch": 54,
              "beat": 1.5,
              "dur": 1.0,
              "vel": 105
            },
            {
              "note": "A#2",
              "pitch": 58,
              "beat": 1.5,
              "dur": 1.0,
              "vel": 105
            },
            {
              "note": "C#3",
              "pitch": 61,
              "beat": 1.5,
              "dur": 1.0,
              "vel": 105
            },
            {
              "note": "F3",
              "pitch": 65,
              "beat": 1.5,
              "dur": 1.0,
              "vel": 105
            },
            {
              "note": "G#2",
              "pitch": 56,
              "beat": 3.98,
              "dur": 1.0,
              "vel": 105
            },
            {
              "note": "C#2",
              "pitch": 49,
              "beat": 4.0,
              "dur": 1.0,
              "vel": 105
            },
            {
              "note": "C#3",
              "pitch": 61,
              "beat": 4.0,
              "dur": 1.0,
              "vel": 105
            },
            {
              "note": "F3",
              "pitch": 65,
              "beat": 4.0,
              "dur": 1.0,
              "vel": 105
            },
            {
              "note": "C#1",
              "pitch": 37,
              "beat": 4.01,
              "dur": 1.0,
              "vel": 105
            },
            {
              "note": "G#2",
              "pitch": 56,
              "beat": 5.48,
              "dur": 1.0,
              "vel": 105
            },
            {
              "note": "C#2",
              "pitch": 49,
              "beat": 5.5,
              "dur": 1.0,
              "vel": 105
            },
            {
              "note": "C#3",
              "pitch": 61,
              "beat": 5.5,
              "dur": 1.0,
              "vel": 105
            },
            {
              "note": "F3",
              "pitch": 65,
              "beat": 5.5,
              "dur": 1.0,
              "vel": 105
            },
            {
              "note": "C#1",
              "pitch": 37,
              "beat": 5.51,
              "dur": 1.0,
              "vel": 105
            },
            {
              "note": "A#0",
              "pitch": 34,
              "beat": 8.0,
              "dur": 1.0,
              "vel": 105
            },
            {
              "note": "A#1",
              "pitch": 46,
              "beat": 8.0,
              "dur": 1.0,
              "vel": 105
            },
            {
              "note": "F2",
              "pitch": 53,
              "beat": 8.0,
              "dur": 1.0,
              "vel": 105
            },
            {
              "note": "A#2",
              "pitch": 58,
              "beat": 8.0,
              "dur": 1.0,
              "vel": 105
            },
            {
              "note": "C#3",
              "pitch": 61,
              "beat": 8.0,
              "dur": 1.0,
              "vel": 105
            },
            {
              "note": "A#0",
              "pitch": 34,
              "beat": 9.5,
              "dur": 1.0,
              "vel": 105
            },
            {
              "note": "A#1",
              "pitch": 46,
              "beat": 9.5,
              "dur": 1.0,
              "vel": 105
            },
            {
              "note": "F2",
              "pitch": 53,
              "beat": 9.5,
              "dur": 1.0,
              "vel": 105
            },
            {
              "note": "A#2",
              "pitch": 58,
              "beat": 9.5,
              "dur": 1.0,
              "vel": 105
            },
            {
              "note": "C#3",
              "pitch": 61,
              "beat": 9.5,
              "dur": 1.0,
              "vel": 105
            },
            {
              "note": "G#2",
              "pitch": 56,
              "beat": 11.98,
              "dur": 1.0,
              "vel": 105
            },
            {
              "note": "C#1",
              "pitch": 37,
              "beat": 12.0,
              "dur": 1.0,
              "vel": 105
            },
            {
              "note": "C#2",
              "pitch": 49,
              "beat": 12.0,
              "dur": 1.0,
              "vel": 105
            },
            {
              "note": "C#3",
              "pitch": 61,
              "beat": 12.0,
              "dur": 1.0,
              "vel": 105
            },
            {
              "note": "F3",
              "pitch": 65,
              "beat": 12.0,
              "dur": 1.0,
              "vel": 105
            },
            {
              "note": "G#2",
              "pitch": 56,
              "beat": 13.48,
              "dur": 1.0,
              "vel": 105
            },
            {
              "note": "C#1",
              "pitch": 37,
              "beat": 13.5,
              "dur": 1.0,
              "vel": 105
            },
            {
              "note": "C#2",
              "pitch": 49,
              "beat": 13.5,
              "dur": 1.0,
              "vel": 105
            },
            {
              "note": "C#3",
              "pitch": 61,
              "beat": 13.5,
              "dur": 1.0,
              "vel": 105
            },
            {
              "note": "F3",
              "pitch": 65,
              "beat": 13.5,
              "dur": 1.0,
              "vel": 105
            },
            {
              "note": "G#2",
              "pitch": 56,
              "beat": 14.48,
              "dur": 1.5,
              "vel": 105
            },
            {
              "note": "C#1",
              "pitch": 37,
              "beat": 14.5,
              "dur": 1.5,
              "vel": 105
            },
            {
              "note": "C#2",
              "pitch": 49,
              "beat": 14.5,
              "dur": 1.5,
              "vel": 105
            },
            {
              "note": "C#3",
              "pitch": 61,
              "beat": 14.5,
              "dur": 1.5,
              "vel": 105
            },
            {
              "note": "F3",
              "pitch": 65,
              "beat": 14.5,
              "dur": 1.5,
              "vel": 105
            }
          ]
        },
        {
          "bar_start": 125.0,
          "bar_end": 125.25,
          "name": "",
          "notes": [
            {
              "note": "F#1",
              "pitch": 42,
              "beat": 0.0,
              "dur": 1.0,
              "vel": 105
            },
            {
              "note": "F#2",
              "pitch": 54,
              "beat": 0.0,
              "dur": 1.0,
              "vel": 105
            },
            {
              "note": "A#2",
              "pitch": 58,
              "beat": 0.0,
              "dur": 1.0,
              "vel": 105
            },
            {
              "note": "C#3",
              "pitch": 61,
              "beat": 0.0,
              "dur": 1.0,
              "vel": 105
            },
            {
              "note": "F3",
              "pitch": 65,
              "beat": 0.0,
              "dur": 1.0,
              "vel": 105
            },
            {
              "note": "F#1",
              "pitch": 42,
              "beat": 1.5,
              "dur": 1.0,
              "vel": 105
            },
            {
              "note": "F#2",
              "pitch": 54,
              "beat": 1.5,
              "dur": 1.0,
              "vel": 105
            },
            {
              "note": "A#2",
              "pitch": 58,
              "beat": 1.5,
              "dur": 1.0,
              "vel": 105
            },
            {
              "note": "C#3",
              "pitch": 61,
              "beat": 1.5,
              "dur": 1.0,
              "vel": 105
            },
            {
              "note": "F3",
              "pitch": 65,
              "beat": 1.5,
              "dur": 1.0,
              "vel": 105
            },
            {
              "note": "G#2",
              "pitch": 56,
              "beat": 3.98,
              "dur": 1.0,
              "vel": 105
            },
            {
              "note": "C#2",
              "pitch": 49,
              "beat": 4.0,
              "dur": 1.0,
              "vel": 105
            },
            {
              "note": "C#3",
              "pitch": 61,
              "beat": 4.0,
              "dur": 1.0,
              "vel": 105
            },
            {
              "note": "F3",
              "pitch": 65,
              "beat": 4.0,
              "dur": 1.0,
              "vel": 105
            },
            {
              "note": "C#1",
              "pitch": 37,
              "beat": 4.01,
              "dur": 1.0,
              "vel": 105
            },
            {
              "note": "G#2",
              "pitch": 56,
              "beat": 5.48,
              "dur": 1.0,
              "vel": 105
            },
            {
              "note": "C#2",
              "pitch": 49,
              "beat": 5.5,
              "dur": 1.0,
              "vel": 105
            },
            {
              "note": "C#3",
              "pitch": 61,
              "beat": 5.5,
              "dur": 1.0,
              "vel": 105
            },
            {
              "note": "F3",
              "pitch": 65,
              "beat": 5.5,
              "dur": 1.0,
              "vel": 105
            },
            {
              "note": "C#1",
              "pitch": 37,
              "beat": 5.51,
              "dur": 1.0,
              "vel": 105
            },
            {
              "note": "A#0",
              "pitch": 34,
              "beat": 8.0,
              "dur": 1.0,
              "vel": 105
            },
            {
              "note": "A#1",
              "pitch": 46,
              "beat": 8.0,
              "dur": 1.0,
              "vel": 105
            },
            {
              "note": "F2",
              "pitch": 53,
              "beat": 8.0,
              "dur": 1.0,
              "vel": 105
            },
            {
              "note": "A#2",
              "pitch": 58,
              "beat": 8.0,
              "dur": 1.0,
              "vel": 105
            },
            {
              "note": "C#3",
              "pitch": 61,
              "beat": 8.0,
              "dur": 1.0,
              "vel": 105
            },
            {
              "note": "A#0",
              "pitch": 34,
              "beat": 9.5,
              "dur": 1.0,
              "vel": 105
            },
            {
              "note": "A#1",
              "pitch": 46,
              "beat": 9.5,
              "dur": 1.0,
              "vel": 105
            },
            {
              "note": "F2",
              "pitch": 53,
              "beat": 9.5,
              "dur": 1.0,
              "vel": 105
            },
            {
              "note": "A#2",
              "pitch": 58,
              "beat": 9.5,
              "dur": 1.0,
              "vel": 105
            },
            {
              "note": "C#3",
              "pitch": 61,
              "beat": 9.5,
              "dur": 1.0,
              "vel": 105
            },
            {
              "note": "G#2",
              "pitch": 56,
              "beat": 11.98,
              "dur": 1.0,
              "vel": 105
            },
            {
              "note": "C#1",
              "pitch": 37,
              "beat": 12.0,
              "dur": 1.0,
              "vel": 105
            },
            {
              "note": "C#2",
              "pitch": 49,
              "beat": 12.0,
              "dur": 1.0,
              "vel": 105
            },
            {
              "note": "C#3",
              "pitch": 61,
              "beat": 12.0,
              "dur": 1.0,
              "vel": 105
            },
            {
              "note": "F3",
              "pitch": 65,
              "beat": 12.0,
              "dur": 1.0,
              "vel": 105
            },
            {
              "note": "G#2",
              "pitch": 56,
              "beat": 13.48,
              "dur": 1.0,
              "vel": 105
            },
            {
              "note": "C#1",
              "pitch": 37,
              "beat": 13.5,
              "dur": 1.0,
              "vel": 105
            },
            {
              "note": "C#2",
              "pitch": 49,
              "beat": 13.5,
              "dur": 1.0,
              "vel": 105
            },
            {
              "note": "C#3",
              "pitch": 61,
              "beat": 13.5,
              "dur": 1.0,
              "vel": 105
            },
            {
              "note": "F3",
              "pitch": 65,
              "beat": 13.5,
              "dur": 1.0,
              "vel": 105
            },
            {
              "note": "G#2",
              "pitch": 56,
              "beat": 14.48,
              "dur": 1.5,
              "vel": 105
            },
            {
              "note": "C#1",
              "pitch": 37,
              "beat": 14.5,
              "dur": 1.5,
              "vel": 105
            },
            {
              "note": "C#2",
              "pitch": 49,
              "beat": 14.5,
              "dur": 1.5,
              "vel": 105
            },
            {
              "note": "C#3",
              "pitch": 61,
              "beat": 14.5,
              "dur": 1.5,
              "vel": 105
            },
            {
              "note": "F3",
              "pitch": 65,
              "beat": 14.5,
              "dur": 1.5,
              "vel": 105
            }
          ]
        },
        {
          "bar_start": 126.0,
          "bar_end": 126.25,
          "name": "",
          "notes": [
            {
              "note": "F#1",
              "pitch": 42,
              "beat": 0.0,
              "dur": 1.0,
              "vel": 105
            },
            {
              "note": "F#2",
              "pitch": 54,
              "beat": 0.0,
              "dur": 1.0,
              "vel": 105
            },
            {
              "note": "A#2",
              "pitch": 58,
              "beat": 0.0,
              "dur": 1.0,
              "vel": 105
            },
            {
              "note": "C#3",
              "pitch": 61,
              "beat": 0.0,
              "dur": 1.0,
              "vel": 105
            },
            {
              "note": "F3",
              "pitch": 65,
              "beat": 0.0,
              "dur": 1.0,
              "vel": 105
            },
            {
              "note": "F#1",
              "pitch": 42,
              "beat": 1.5,
              "dur": 1.0,
              "vel": 105
            },
            {
              "note": "F#2",
              "pitch": 54,
              "beat": 1.5,
              "dur": 1.0,
              "vel": 105
            },
            {
              "note": "A#2",
              "pitch": 58,
              "beat": 1.5,
              "dur": 1.0,
              "vel": 105
            },
            {
              "note": "C#3",
              "pitch": 61,
              "beat": 1.5,
              "dur": 1.0,
              "vel": 105
            },
            {
              "note": "F3",
              "pitch": 65,
              "beat": 1.5,
              "dur": 1.0,
              "vel": 105
            },
            {
              "note": "G#2",
              "pitch": 56,
              "beat": 3.98,
              "dur": 1.0,
              "vel": 105
            },
            {
              "note": "C#2",
              "pitch": 49,
              "beat": 4.0,
              "dur": 1.0,
              "vel": 105
            },
            {
              "note": "C#3",
              "pitch": 61,
              "beat": 4.0,
              "dur": 1.0,
              "vel": 105
            },
            {
              "note": "F3",
              "pitch": 65,
              "beat": 4.0,
              "dur": 1.0,
              "vel": 105
            },
            {
              "note": "C#1",
              "pitch": 37,
              "beat": 4.01,
              "dur": 1.0,
              "vel": 105
            },
            {
              "note": "G#2",
              "pitch": 56,
              "beat": 5.48,
              "dur": 1.0,
              "vel": 105
            },
            {
              "note": "C#2",
              "pitch": 49,
              "beat": 5.5,
              "dur": 1.0,
              "vel": 105
            },
            {
              "note": "C#3",
              "pitch": 61,
              "beat": 5.5,
              "dur": 1.0,
              "vel": 105
            },
            {
              "note": "F3",
              "pitch": 65,
              "beat": 5.5,
              "dur": 1.0,
              "vel": 105
            },
            {
              "note": "C#1",
              "pitch": 37,
              "beat": 5.51,
              "dur": 1.0,
              "vel": 105
            },
            {
              "note": "A#0",
              "pitch": 34,
              "beat": 8.0,
              "dur": 1.0,
              "vel": 105
            },
            {
              "note": "A#1",
              "pitch": 46,
              "beat": 8.0,
              "dur": 1.0,
              "vel": 105
            },
            {
              "note": "F2",
              "pitch": 53,
              "beat": 8.0,
              "dur": 1.0,
              "vel": 105
            },
            {
              "note": "A#2",
              "pitch": 58,
              "beat": 8.0,
              "dur": 1.0,
              "vel": 105
            },
            {
              "note": "C#3",
              "pitch": 61,
              "beat": 8.0,
              "dur": 1.0,
              "vel": 105
            },
            {
              "note": "A#0",
              "pitch": 34,
              "beat": 9.5,
              "dur": 1.0,
              "vel": 105
            },
            {
              "note": "A#1",
              "pitch": 46,
              "beat": 9.5,
              "dur": 1.0,
              "vel": 105
            },
            {
              "note": "F2",
              "pitch": 53,
              "beat": 9.5,
              "dur": 1.0,
              "vel": 105
            },
            {
              "note": "A#2",
              "pitch": 58,
              "beat": 9.5,
              "dur": 1.0,
              "vel": 105
            },
            {
              "note": "C#3",
              "pitch": 61,
              "beat": 9.5,
              "dur": 1.0,
              "vel": 105
            },
            {
              "note": "G#2",
              "pitch": 56,
              "beat": 11.98,
              "dur": 1.0,
              "vel": 105
            },
            {
              "note": "C#1",
              "pitch": 37,
              "beat": 12.0,
              "dur": 1.0,
              "vel": 105
            },
            {
              "note": "C#2",
              "pitch": 49,
              "beat": 12.0,
              "dur": 1.0,
              "vel": 105
            },
            {
              "note": "C#3",
              "pitch": 61,
              "beat": 12.0,
              "dur": 1.0,
              "vel": 105
            },
            {
              "note": "F3",
              "pitch": 65,
              "beat": 12.0,
              "dur": 1.0,
              "vel": 105
            },
            {
              "note": "G#2",
              "pitch": 56,
              "beat": 13.48,
              "dur": 1.0,
              "vel": 105
            },
            {
              "note": "C#1",
              "pitch": 37,
              "beat": 13.5,
              "dur": 1.0,
              "vel": 105
            },
            {
              "note": "C#2",
              "pitch": 49,
              "beat": 13.5,
              "dur": 1.0,
              "vel": 105
            },
            {
              "note": "C#3",
              "pitch": 61,
              "beat": 13.5,
              "dur": 1.0,
              "vel": 105
            },
            {
              "note": "F3",
              "pitch": 65,
              "beat": 13.5,
              "dur": 1.0,
              "vel": 105
            },
            {
              "note": "G#2",
              "pitch": 56,
              "beat": 14.48,
              "dur": 1.5,
              "vel": 105
            },
            {
              "note": "C#1",
              "pitch": 37,
              "beat": 14.5,
              "dur": 1.5,
              "vel": 105
            },
            {
              "note": "C#2",
              "pitch": 49,
              "beat": 14.5,
              "dur": 1.5,
              "vel": 105
            },
            {
              "note": "C#3",
              "pitch": 61,
              "beat": 14.5,
              "dur": 1.5,
              "vel": 105
            },
            {
              "note": "F3",
              "pitch": 65,
              "beat": 14.5,
              "dur": 1.5,
              "vel": 105
            }
          ]
        },
        {
          "bar_start": 127.0,
          "bar_end": 127.25,
          "name": "",
          "notes": [
            {
              "note": "F#1",
              "pitch": 42,
              "beat": 0.0,
              "dur": 1.0,
              "vel": 105
            },
            {
              "note": "F#2",
              "pitch": 54,
              "beat": 0.0,
              "dur": 1.0,
              "vel": 105
            },
            {
              "note": "A#2",
              "pitch": 58,
              "beat": 0.0,
              "dur": 1.0,
              "vel": 105
            },
            {
              "note": "C#3",
              "pitch": 61,
              "beat": 0.0,
              "dur": 1.0,
              "vel": 105
            },
            {
              "note": "F3",
              "pitch": 65,
              "beat": 0.0,
              "dur": 1.0,
              "vel": 105
            },
            {
              "note": "F#1",
              "pitch": 42,
              "beat": 1.5,
              "dur": 1.0,
              "vel": 105
            },
            {
              "note": "F#2",
              "pitch": 54,
              "beat": 1.5,
              "dur": 1.0,
              "vel": 105
            },
            {
              "note": "A#2",
              "pitch": 58,
              "beat": 1.5,
              "dur": 1.0,
              "vel": 105
            },
            {
              "note": "C#3",
              "pitch": 61,
              "beat": 1.5,
              "dur": 1.0,
              "vel": 105
            },
            {
              "note": "F3",
              "pitch": 65,
              "beat": 1.5,
              "dur": 1.0,
              "vel": 105
            },
            {
              "note": "G#2",
              "pitch": 56,
              "beat": 3.98,
              "dur": 1.0,
              "vel": 105
            },
            {
              "note": "C#2",
              "pitch": 49,
              "beat": 4.0,
              "dur": 1.0,
              "vel": 105
            },
            {
              "note": "C#3",
              "pitch": 61,
              "beat": 4.0,
              "dur": 1.0,
              "vel": 105
            },
            {
              "note": "F3",
              "pitch": 65,
              "beat": 4.0,
              "dur": 1.0,
              "vel": 105
            },
            {
              "note": "C#1",
              "pitch": 37,
              "beat": 4.01,
              "dur": 1.0,
              "vel": 105
            },
            {
              "note": "G#2",
              "pitch": 56,
              "beat": 5.48,
              "dur": 1.0,
              "vel": 105
            },
            {
              "note": "C#2",
              "pitch": 49,
              "beat": 5.5,
              "dur": 1.0,
              "vel": 105
            },
            {
              "note": "C#3",
              "pitch": 61,
              "beat": 5.5,
              "dur": 1.0,
              "vel": 105
            },
            {
              "note": "F3",
              "pitch": 65,
              "beat": 5.5,
              "dur": 1.0,
              "vel": 105
            },
            {
              "note": "C#1",
              "pitch": 37,
              "beat": 5.51,
              "dur": 1.0,
              "vel": 105
            },
            {
              "note": "A#0",
              "pitch": 34,
              "beat": 8.0,
              "dur": 1.0,
              "vel": 105
            },
            {
              "note": "A#1",
              "pitch": 46,
              "beat": 8.0,
              "dur": 1.0,
              "vel": 105
            },
            {
              "note": "F2",
              "pitch": 53,
              "beat": 8.0,
              "dur": 1.0,
              "vel": 105
            },
            {
              "note": "A#2",
              "pitch": 58,
              "beat": 8.0,
              "dur": 1.0,
              "vel": 105
            },
            {
              "note": "C#3",
              "pitch": 61,
              "beat": 8.0,
              "dur": 1.0,
              "vel": 105
            },
            {
              "note": "A#0",
              "pitch": 34,
              "beat": 9.5,
              "dur": 1.0,
              "vel": 105
            },
            {
              "note": "A#1",
              "pitch": 46,
              "beat": 9.5,
              "dur": 1.0,
              "vel": 105
            },
            {
              "note": "F2",
              "pitch": 53,
              "beat": 9.5,
              "dur": 1.0,
              "vel": 105
            },
            {
              "note": "A#2",
              "pitch": 58,
              "beat": 9.5,
              "dur": 1.0,
              "vel": 105
            },
            {
              "note": "C#3",
              "pitch": 61,
              "beat": 9.5,
              "dur": 1.0,
              "vel": 105
            },
            {
              "note": "G#2",
              "pitch": 56,
              "beat": 11.98,
              "dur": 1.0,
              "vel": 105
            },
            {
              "note": "C#1",
              "pitch": 37,
              "beat": 12.0,
              "dur": 1.0,
              "vel": 105
            },
            {
              "note": "C#2",
              "pitch": 49,
              "beat": 12.0,
              "dur": 1.0,
              "vel": 105
            },
            {
              "note": "C#3",
              "pitch": 61,
              "beat": 12.0,
              "dur": 1.0,
              "vel": 105
            },
            {
              "note": "F3",
              "pitch": 65,
              "beat": 12.0,
              "dur": 1.0,
              "vel": 105
            },
            {
              "note": "G#2",
              "pitch": 56,
              "beat": 13.48,
              "dur": 1.0,
              "vel": 105
            },
            {
              "note": "C#1",
              "pitch": 37,
              "beat": 13.5,
              "dur": 1.0,
              "vel": 105
            },
            {
              "note": "C#2",
              "pitch": 49,
              "beat": 13.5,
              "dur": 1.0,
              "vel": 105
            },
            {
              "note": "C#3",
              "pitch": 61,
              "beat": 13.5,
              "dur": 1.0,
              "vel": 105
            },
            {
              "note": "F3",
              "pitch": 65,
              "beat": 13.5,
              "dur": 1.0,
              "vel": 105
            },
            {
              "note": "G#2",
              "pitch": 56,
              "beat": 14.48,
              "dur": 1.5,
              "vel": 105
            },
            {
              "note": "C#1",
              "pitch": 37,
              "beat": 14.5,
              "dur": 1.5,
              "vel": 105
            },
            {
              "note": "C#2",
              "pitch": 49,
              "beat": 14.5,
              "dur": 1.5,
              "vel": 105
            },
            {
              "note": "C#3",
              "pitch": 61,
              "beat": 14.5,
              "dur": 1.5,
              "vel": 105
            },
            {
              "note": "F3",
              "pitch": 65,
              "beat": 14.5,
              "dur": 1.5,
              "vel": 105
            }
          ]
        },
        {
          "bar_start": 136.0,
          "bar_end": 159.0,
          "name": "",
          "notes": [
            {
              "note": "F#1",
              "pitch": 42,
              "beat": 0.0,
              "dur": 1.25,
              "vel": 97
            },
            {
              "note": "F#2",
              "pitch": 54,
              "beat": 0.0,
              "dur": 1.25,
              "vel": 97
            },
            {
              "note": "A#2",
              "pitch": 58,
              "beat": 0.0,
              "dur": 1.25,
              "vel": 97
            },
            {
              "note": "C#3",
              "pitch": 61,
              "beat": 0.0,
              "dur": 1.25,
              "vel": 97
            },
            {
              "note": "F3",
              "pitch": 65,
              "beat": 0.0,
              "dur": 1.25,
              "vel": 97
            },
            {
              "note": "A#3",
              "pitch": 70,
              "beat": 0.0,
              "dur": 1.0,
              "vel": 105
            },
            {
              "note": "F#1",
              "pitch": 42,
              "beat": 1.5,
              "dur": 1.25,
              "vel": 97
            },
            {
              "note": "F#2",
              "pitch": 54,
              "beat": 1.5,
              "dur": 1.25,
              "vel": 97
            },
            {
              "note": "A#2",
              "pitch": 58,
              "beat": 1.5,
              "dur": 1.25,
              "vel": 97
            },
            {
              "note": "C#3",
              "pitch": 61,
              "beat": 1.5,
              "dur": 1.25,
              "vel": 97
            },
            {
              "note": "F3",
              "pitch": 65,
              "beat": 1.5,
              "dur": 1.25,
              "vel": 97
            },
            {
              "note": "A#3",
              "pitch": 70,
              "beat": 1.5,
              "dur": 1.0,
              "vel": 105
            },
            {
              "note": "G#2",
              "pitch": 56,
              "beat": 3.98,
              "dur": 1.25,
              "vel": 97
            },
            {
              "note": "C#2",
              "pitch": 49,
              "beat": 4.0,
              "dur": 1.25,
              "vel": 97
            },
            {
              "note": "C#3",
              "pitch": 61,
              "beat": 4.0,
              "dur": 1.25,
              "vel": 97
            },
            {
              "note": "F3",
              "pitch": 65,
              "beat": 4.0,
              "dur": 1.25,
              "vel": 97
            },
            {
              "note": "C4",
              "pitch": 72,
              "beat": 4.0,
              "dur": 1.0,
              "vel": 105
            },
            {
              "note": "C#1",
              "pitch": 37,
              "beat": 4.01,
              "dur": 1.25,
              "vel": 97
            },
            {
              "note": "G#2",
              "pitch": 56,
              "beat": 5.48,
              "dur": 1.25,
              "vel": 97
            },
            {
              "note": "C#2",
              "pitch": 49,
              "beat": 5.5,
              "dur": 1.25,
              "vel": 97
            },
            {
              "note": "C#3",
              "pitch": 61,
              "beat": 5.5,
              "dur": 1.25,
              "vel": 97
            },
            {
              "note": "F3",
              "pitch": 65,
              "beat": 5.5,
              "dur": 1.25,
              "vel": 97
            },
            {
              "note": "C4",
              "pitch": 72,
              "beat": 5.5,
              "dur": 1.25,
              "vel": 105
            },
            {
              "note": "C#1",
              "pitch": 37,
              "beat": 5.51,
              "dur": 1.25,
              "vel": 97
            },
            {
              "note": "A#0",
              "pitch": 34,
              "beat": 8.0,
              "dur": 1.25,
              "vel": 97
            },
            {
              "note": "A#1",
              "pitch": 46,
              "beat": 8.0,
              "dur": 1.25,
              "vel": 97
            },
            {
              "note": "F2",
              "pitch": 53,
              "beat": 8.0,
              "dur": 1.25,
              "vel": 97
            },
            {
              "note": "A#2",
              "pitch": 58,
              "beat": 8.0,
              "dur": 1.25,
              "vel": 97
            },
            {
              "note": "C#3",
              "pitch": 61,
              "beat": 8.0,
              "dur": 1.25,
              "vel": 97
            },
            {
              "note": "C#4",
              "pitch": 73,
              "beat": 8.0,
              "dur": 1.0,
              "vel": 105
            },
            {
              "note": "A#0",
              "pitch": 34,
              "beat": 9.5,
              "dur": 1.25,
              "vel": 97
            },
            {
              "note": "A#1",
              "pitch": 46,
              "beat": 9.5,
              "dur": 1.25,
              "vel": 97
            },
            {
              "note": "F2",
              "pitch": 53,
              "beat": 9.5,
              "dur": 1.25,
              "vel": 97
            },
            {
              "note": "A#2",
              "pitch": 58,
              "beat": 9.5,
              "dur": 1.25,
              "vel": 97
            },
            {
              "note": "C#3",
              "pitch": 61,
              "beat": 9.5,
              "dur": 1.25,
              "vel": 97
            },
            {
              "note": "C#4",
              "pitch": 73,
              "beat": 9.5,
              "dur": 1.0,
              "vel": 105
            },
            {
              "note": "G#2",
              "pitch": 56,
              "beat": 11.98,
              "dur": 1.25,
              "vel": 97
            },
            {
              "note": "C#1",
              "pitch": 37,
              "beat": 12.0,
              "dur": 1.25,
              "vel": 97
            },
            {
              "note": "C#2",
              "pitch": 49,
              "beat": 12.0,
              "dur": 1.25,
              "vel": 97
            },
            {
              "note": "C#3",
              "pitch": 61,
              "beat": 12.0,
              "dur": 1.25,
              "vel": 97
            },
            {
              "note": "F3",
              "pitch": 65,
              "beat": 12.0,
              "dur": 1.25,
              "vel": 97
            },
            {
              "note": "C4",
              "pitch": 72,
              "beat": 12.0,
              "dur": 1.0,
              "vel": 105
            },
            {
              "note": "G#2",
              "pitch": 56,
              "beat": 13.48,
              "dur": 1.0,
              "vel": 97
            },
            {
              "note": "C#1",
              "pitch": 37,
              "beat": 13.5,
              "dur": 1.0,
              "vel": 97
            },
            {
              "note": "C#2",
              "pitch": 49,
              "beat": 13.5,
              "dur": 1.0,
              "vel": 97
            },
            {
              "note": "C#3",
              "pitch": 61,
              "beat": 13.5,
              "dur": 1.0,
              "vel": 97
            },
            {
              "note": "F3",
              "pitch": 65,
              "beat": 13.5,
              "dur": 1.0,
              "vel": 97
            },
            {
              "note": "C4",
              "pitch": 72,
              "beat": 13.5,
              "dur": 1.0,
              "vel": 105
            },
            {
              "note": "G#2",
              "pitch": 56,
              "beat": 14.48,
              "dur": 1.75,
              "vel": 97
            },
            {
              "note": "C#1",
              "pitch": 37,
              "beat": 14.5,
              "dur": 1.75,
              "vel": 97
            },
            {
              "note": "C#2",
              "pitch": 49,
              "beat": 14.5,
              "dur": 1.75,
              "vel": 97
            },
            {
              "note": "C#3",
              "pitch": 61,
              "beat": 14.5,
              "dur": 1.75,
              "vel": 97
            },
            {
              "note": "F3",
              "pitch": 65,
              "beat": 14.5,
              "dur": 1.75,
              "vel": 97
            },
            {
              "note": "C4",
              "pitch": 72,
              "beat": 14.5,
              "dur": 1.5,
              "vel": 105
            }
          ]
        }
      ],
      "automations": [],
      "children": []
    },
    "124": {
      "id": "124",
      "name": "main chord",
      "type": "MidiTrack",
      "group_id": "127",
      "devices": [
        {
          "type": "PluginDevice",
          "plugin": "Serum_x64",
          "preset": "",
          "vst_params": []
        },
        {
          "type": "MultibandDynamics",
          "DryWet": "1"
        },
        {
          "type": "Eq8",
          "bands": []
        }
      ],
      "clips": [
        {
          "bar_start": 56.0,
          "bar_end": 68.0,
          "name": "",
          "notes": [
            {
              "note": "F#1",
              "pitch": 42,
              "beat": 0.0,
              "dur": 1.0,
              "vel": 105
            },
            {
              "note": "F#2",
              "pitch": 54,
              "beat": 0.0,
              "dur": 1.0,
              "vel": 105
            },
            {
              "note": "A#2",
              "pitch": 58,
              "beat": 0.0,
              "dur": 1.0,
              "vel": 105
            },
            {
              "note": "C#3",
              "pitch": 61,
              "beat": 0.0,
              "dur": 1.0,
              "vel": 105
            },
            {
              "note": "F3",
              "pitch": 65,
              "beat": 0.0,
              "dur": 1.0,
              "vel": 105
            },
            {
              "note": "F#1",
              "pitch": 42,
              "beat": 1.5,
              "dur": 1.0,
              "vel": 105
            },
            {
              "note": "F#2",
              "pitch": 54,
              "beat": 1.5,
              "dur": 1.0,
              "vel": 105
            },
            {
              "note": "A#2",
              "pitch": 58,
              "beat": 1.5,
              "dur": 1.0,
              "vel": 105
            },
            {
              "note": "C#3",
              "pitch": 61,
              "beat": 1.5,
              "dur": 1.0,
              "vel": 105
            },
            {
              "note": "F3",
              "pitch": 65,
              "beat": 1.5,
              "dur": 1.0,
              "vel": 105
            },
            {
              "note": "G#2",
              "pitch": 56,
              "beat": 3.98,
              "dur": 1.0,
              "vel": 105
            },
            {
              "note": "C#2",
              "pitch": 49,
              "beat": 4.0,
              "dur": 1.0,
              "vel": 105
            },
            {
              "note": "C#3",
              "pitch": 61,
              "beat": 4.0,
              "dur": 1.0,
              "vel": 105
            },
            {
              "note": "F3",
              "pitch": 65,
              "beat": 4.0,
              "dur": 1.0,
              "vel": 105
            },
            {
              "note": "C#1",
              "pitch": 37,
              "beat": 4.01,
              "dur": 1.0,
              "vel": 105
            },
            {
              "note": "G#2",
              "pitch": 56,
              "beat": 5.48,
              "dur": 1.0,
              "vel": 105
            },
            {
              "note": "C#2",
              "pitch": 49,
              "beat": 5.5,
              "dur": 1.0,
              "vel": 105
            },
            {
              "note": "C#3",
              "pitch": 61,
              "beat": 5.5,
              "dur": 1.0,
              "vel": 105
            },
            {
              "note": "F3",
              "pitch": 65,
              "beat": 5.5,
              "dur": 1.0,
              "vel": 105
            },
            {
              "note": "C#1",
              "pitch": 37,
              "beat": 5.51,
              "dur": 1.0,
              "vel": 105
            },
            {
              "note": "A#0",
              "pitch": 34,
              "beat": 8.0,
              "dur": 1.0,
              "vel": 105
            },
            {
              "note": "A#1",
              "pitch": 46,
              "beat": 8.0,
              "dur": 1.0,
              "vel": 105
            },
            {
              "note": "F2",
              "pitch": 53,
              "beat": 8.0,
              "dur": 1.0,
              "vel": 105
            },
            {
              "note": "A#2",
              "pitch": 58,
              "beat": 8.0,
              "dur": 1.0,
              "vel": 105
            },
            {
              "note": "C#3",
              "pitch": 61,
              "beat": 8.0,
              "dur": 1.0,
              "vel": 105
            },
            {
              "note": "A#0",
              "pitch": 34,
              "beat": 9.5,
              "dur": 1.0,
              "vel": 105
            },
            {
              "note": "A#1",
              "pitch": 46,
              "beat": 9.5,
              "dur": 1.0,
              "vel": 105
            },
            {
              "note": "F2",
              "pitch": 53,
              "beat": 9.5,
              "dur": 1.0,
              "vel": 105
            },
            {
              "note": "A#2",
              "pitch": 58,
              "beat": 9.5,
              "dur": 1.0,
              "vel": 105
            },
            {
              "note": "C#3",
              "pitch": 61,
              "beat": 9.5,
              "dur": 1.0,
              "vel": 105
            },
            {
              "note": "G#2",
              "pitch": 56,
              "beat": 11.98,
              "dur": 1.0,
              "vel": 105
            },
            {
              "note": "C#1",
              "pitch": 37,
              "beat": 12.0,
              "dur": 1.0,
              "vel": 105
            },
            {
              "note": "C#2",
              "pitch": 49,
              "beat": 12.0,
              "dur": 1.0,
              "vel": 105
            },
            {
              "note": "C#3",
              "pitch": 61,
              "beat": 12.0,
              "dur": 1.0,
              "vel": 105
            },
            {
              "note": "F3",
              "pitch": 65,
              "beat": 12.0,
              "dur": 1.0,
              "vel": 105
            },
            {
              "note": "G#2",
              "pitch": 56,
              "beat": 13.48,
              "dur": 1.0,
              "vel": 105
            },
            {
              "note": "C#1",
              "pitch": 37,
              "beat": 13.5,
              "dur": 1.0,
              "vel": 105
            },
            {
              "note": "C#2",
              "pitch": 49,
              "beat": 13.5,
              "dur": 1.0,
              "vel": 105
            },
            {
              "note": "C#3",
              "pitch": 61,
              "beat": 13.5,
              "dur": 1.0,
              "vel": 105
            },
            {
              "note": "F3",
              "pitch": 65,
              "beat": 13.5,
              "dur": 1.0,
              "vel": 105
            },
            {
              "note": "G#2",
              "pitch": 56,
              "beat": 14.48,
              "dur": 1.5,
              "vel": 105
            },
            {
              "note": "C#1",
              "pitch": 37,
              "beat": 14.5,
              "dur": 1.5,
              "vel": 105
            },
            {
              "note": "C#2",
              "pitch": 49,
              "beat": 14.5,
              "dur": 1.5,
              "vel": 105
            },
            {
              "note": "C#3",
              "pitch": 61,
              "beat": 14.5,
              "dur": 1.5,
              "vel": 105
            },
            {
              "note": "F3",
              "pitch": 65,
              "beat": 14.5,
              "dur": 1.5,
              "vel": 105
            }
          ]
        },
        {
          "bar_start": 68.0,
          "bar_end": 72.0,
          "name": "",
          "notes": [
            {
              "note": "F#1",
              "pitch": 42,
              "beat": 0.0,
              "dur": 1.0,
              "vel": 105
            },
            {
              "note": "F#2",
              "pitch": 54,
              "beat": 0.0,
              "dur": 1.0,
              "vel": 105
            },
            {
              "note": "A#2",
              "pitch": 58,
              "beat": 0.0,
              "dur": 1.0,
              "vel": 105
            },
            {
              "note": "C#3",
              "pitch": 61,
              "beat": 0.0,
              "dur": 1.0,
              "vel": 105
            },
            {
              "note": "F3",
              "pitch": 65,
              "beat": 0.0,
              "dur": 1.0,
              "vel": 105
            },
            {
              "note": "F#1",
              "pitch": 42,
              "beat": 1.5,
              "dur": 1.0,
              "vel": 105
            },
            {
              "note": "F#2",
              "pitch": 54,
              "beat": 1.5,
              "dur": 1.0,
              "vel": 105
            },
            {
              "note": "A#2",
              "pitch": 58,
              "beat": 1.5,
              "dur": 1.0,
              "vel": 105
            },
            {
              "note": "C#3",
              "pitch": 61,
              "beat": 1.5,
              "dur": 1.0,
              "vel": 105
            },
            {
              "note": "F3",
              "pitch": 65,
              "beat": 1.5,
              "dur": 1.0,
              "vel": 105
            },
            {
              "note": "G#2",
              "pitch": 56,
              "beat": 3.98,
              "dur": 1.0,
              "vel": 105
            },
            {
              "note": "C#2",
              "pitch": 49,
              "beat": 4.0,
              "dur": 1.0,
              "vel": 105
            },
            {
              "note": "C#3",
              "pitch": 61,
              "beat": 4.0,
              "dur": 1.0,
              "vel": 105
            },
            {
              "note": "F3",
              "pitch": 65,
              "beat": 4.0,
              "dur": 1.0,
              "vel": 105
            },
            {
              "note": "C#1",
              "pitch": 37,
              "beat": 4.01,
              "dur": 1.0,
              "vel": 105
            },
            {
              "note": "G#2",
              "pitch": 56,
              "beat": 5.48,
              "dur": 1.0,
              "vel": 105
            },
            {
              "note": "C#2",
              "pitch": 49,
              "beat": 5.5,
              "dur": 1.0,
              "vel": 105
            },
            {
              "note": "C#3",
              "pitch": 61,
              "beat": 5.5,
              "dur": 1.0,
              "vel": 105
            },
            {
              "note": "F3",
              "pitch": 65,
              "beat": 5.5,
              "dur": 1.0,
              "vel": 105
            },
            {
              "note": "C#1",
              "pitch": 37,
              "beat": 5.51,
              "dur": 1.0,
              "vel": 105
            },
            {
              "note": "A#0",
              "pitch": 34,
              "beat": 8.0,
              "dur": 1.0,
              "vel": 105
            },
            {
              "note": "A#1",
              "pitch": 46,
              "beat": 8.0,
              "dur": 1.0,
              "vel": 105
            },
            {
              "note": "F2",
              "pitch": 53,
              "beat": 8.0,
              "dur": 1.0,
              "vel": 105
            },
            {
              "note": "A#2",
              "pitch": 58,
              "beat": 8.0,
              "dur": 1.0,
              "vel": 105
            },
            {
              "note": "C#3",
              "pitch": 61,
              "beat": 8.0,
              "dur": 1.0,
              "vel": 105
            },
            {
              "note": "A#0",
              "pitch": 34,
              "beat": 9.5,
              "dur": 1.0,
              "vel": 105
            },
            {
              "note": "A#1",
              "pitch": 46,
              "beat": 9.5,
              "dur": 1.0,
              "vel": 105
            },
            {
              "note": "F2",
              "pitch": 53,
              "beat": 9.5,
              "dur": 1.0,
              "vel": 105
            },
            {
              "note": "A#2",
              "pitch": 58,
              "beat": 9.5,
              "dur": 1.0,
              "vel": 105
            },
            {
              "note": "C#3",
              "pitch": 61,
              "beat": 9.5,
              "dur": 1.0,
              "vel": 105
            },
            {
              "note": "G#2",
              "pitch": 56,
              "beat": 11.98,
              "dur": 0.02,
              "vel": 105
            },
            {
              "note": "A#0",
              "pitch": 34,
              "beat": 12.0,
              "dur": 1.0,
              "vel": 105
            },
            {
              "note": "A#1",
              "pitch": 46,
              "beat": 12.0,
              "dur": 1.0,
              "vel": 105
            },
            {
              "note": "F2",
              "pitch": 53,
              "beat": 12.0,
              "dur": 1.0,
              "vel": 105
            },
            {
              "note": "A#2",
              "pitch": 58,
              "beat": 12.0,
              "dur": 1.0,
              "vel": 105
            },
            {
              "note": "C#3",
              "pitch": 61,
              "beat": 12.0,
              "dur": 1.0,
              "vel": 105
            },
            {
              "note": "A#0",
              "pitch": 34,
              "beat": 13.5,
              "dur": 1.0,
              "vel": 105
            },
            {
              "note": "A#1",
              "pitch": 46,
              "beat": 13.5,
              "dur": 1.0,
              "vel": 105
            },
            {
              "note": "F2",
              "pitch": 53,
              "beat": 13.5,
              "dur": 1.0,
              "vel": 105
            },
            {
              "note": "A#2",
              "pitch": 58,
              "beat": 13.5,
              "dur": 1.0,
              "vel": 105
            },
            {
              "note": "C#3",
              "pitch": 61,
              "beat": 13.5,
              "dur": 1.0,
              "vel": 105
            }
          ]
        },
        {
          "bar_start": 72.0,
          "bar_end": 78.0,
          "name": "",
          "notes": [
            {
              "note": "F#1",
              "pitch": 42,
              "beat": 0.0,
              "dur": 1.0,
              "vel": 105
            },
            {
              "note": "F#2",
              "pitch": 54,
              "beat": 0.0,
              "dur": 1.0,
              "vel": 105
            },
            {
              "note": "A#2",
              "pitch": 58,
              "beat": 0.0,
              "dur": 1.0,
              "vel": 105
            },
            {
              "note": "C#3",
              "pitch": 61,
              "beat": 0.0,
              "dur": 1.0,
              "vel": 105
            },
            {
              "note": "F3",
              "pitch": 65,
              "beat": 0.0,
              "dur": 1.0,
              "vel": 105
            },
            {
              "note": "F#1",
              "pitch": 42,
              "beat": 1.5,
              "dur": 1.0,
              "vel": 105
            },
            {
              "note": "F#2",
              "pitch": 54,
              "beat": 1.5,
              "dur": 1.0,
              "vel": 105
            },
            {
              "note": "A#2",
              "pitch": 58,
              "beat": 1.5,
              "dur": 1.0,
              "vel": 105
            },
            {
              "note": "C#3",
              "pitch": 61,
              "beat": 1.5,
              "dur": 1.0,
              "vel": 105
            },
            {
              "note": "F3",
              "pitch": 65,
              "beat": 1.5,
              "dur": 1.0,
              "vel": 105
            },
            {
              "note": "G#2",
              "pitch": 56,
              "beat": 3.98,
              "dur": 1.0,
              "vel": 105
            },
            {
              "note": "C#2",
              "pitch": 49,
              "beat": 4.0,
              "dur": 1.0,
              "vel": 105
            },
            {
              "note": "C#3",
              "pitch": 61,
              "beat": 4.0,
              "dur": 1.0,
              "vel": 105
            },
            {
              "note": "F3",
              "pitch": 65,
              "beat": 4.0,
              "dur": 1.0,
              "vel": 105
            },
            {
              "note": "C#1",
              "pitch": 37,
              "beat": 4.01,
              "dur": 1.0,
              "vel": 105
            },
            {
              "note": "G#2",
              "pitch": 56,
              "beat": 5.48,
              "dur": 1.0,
              "vel": 105
            },
            {
              "note": "C#2",
              "pitch": 49,
              "beat": 5.5,
              "dur": 1.0,
              "vel": 105
            },
            {
              "note": "C#3",
              "pitch": 61,
              "beat": 5.5,
              "dur": 1.0,
              "vel": 105
            },
            {
              "note": "F3",
              "pitch": 65,
              "beat": 5.5,
              "dur": 1.0,
              "vel": 105
            },
            {
              "note": "C#1",
              "pitch": 37,
              "beat": 5.51,
              "dur": 1.0,
              "vel": 105
            },
            {
              "note": "A#0",
              "pitch": 34,
              "beat": 8.0,
              "dur": 1.0,
              "vel": 105
            },
            {
              "note": "A#1",
              "pitch": 46,
              "beat": 8.0,
              "dur": 1.0,
              "vel": 105
            },
            {
              "note": "F2",
              "pitch": 53,
              "beat": 8.0,
              "dur": 1.0,
              "vel": 105
            },
            {
              "note": "A#2",
              "pitch": 58,
              "beat": 8.0,
              "dur": 1.0,
              "vel": 105
            },
            {
              "note": "C#3",
              "pitch": 61,
              "beat": 8.0,
              "dur": 1.0,
              "vel": 105
            },
            {
              "note": "A#0",
              "pitch": 34,
              "beat": 9.5,
              "dur": 1.0,
              "vel": 105
            },
            {
              "note": "A#1",
              "pitch": 46,
              "beat": 9.5,
              "dur": 1.0,
              "vel": 105
            },
            {
              "note": "F2",
              "pitch": 53,
              "beat": 9.5,
              "dur": 1.0,
              "vel": 105
            },
            {
              "note": "A#2",
              "pitch": 58,
              "beat": 9.5,
              "dur": 1.0,
              "vel": 105
            },
            {
              "note": "C#3",
              "pitch": 61,
              "beat": 9.5,
              "dur": 1.0,
              "vel": 105
            },
            {
              "note": "G#2",
              "pitch": 56,
              "beat": 11.98,
              "dur": 1.0,
              "vel": 105
            },
            {
              "note": "C#1",
              "pitch": 37,
              "beat": 12.0,
              "dur": 1.0,
              "vel": 105
            },
            {
              "note": "C#2",
              "pitch": 49,
              "beat": 12.0,
              "dur": 1.0,
              "vel": 105
            },
            {
              "note": "C#3",
              "pitch": 61,
              "beat": 12.0,
              "dur": 1.0,
              "vel": 105
            },
            {
              "note": "F3",
              "pitch": 65,
              "beat": 12.0,
              "dur": 1.0,
              "vel": 105
            },
            {
              "note": "G#2",
              "pitch": 56,
              "beat": 13.48,
              "dur": 1.0,
              "vel": 105
            },
            {
              "note": "C#1",
              "pitch": 37,
              "beat": 13.5,
              "dur": 1.0,
              "vel": 105
            },
            {
              "note": "C#2",
              "pitch": 49,
              "beat": 13.5,
              "dur": 1.0,
              "vel": 105
            },
            {
              "note": "C#3",
              "pitch": 61,
              "beat": 13.5,
              "dur": 1.0,
              "vel": 105
            },
            {
              "note": "F3",
              "pitch": 65,
              "beat": 13.5,
              "dur": 1.0,
              "vel": 105
            },
            {
              "note": "G#2",
              "pitch": 56,
              "beat": 14.48,
              "dur": 1.5,
              "vel": 105
            },
            {
              "note": "C#1",
              "pitch": 37,
              "beat": 14.5,
              "dur": 1.5,
              "vel": 105
            },
            {
              "note": "C#2",
              "pitch": 49,
              "beat": 14.5,
              "dur": 1.5,
              "vel": 105
            },
            {
              "note": "C#3",
              "pitch": 61,
              "beat": 14.5,
              "dur": 1.5,
              "vel": 105
            },
            {
              "note": "F3",
              "pitch": 65,
              "beat": 14.5,
              "dur": 1.5,
              "vel": 105
            }
          ]
        },
        {
          "bar_start": 80.0,
          "bar_end": 95.0,
          "name": "",
          "notes": [
            {
              "note": "F#1",
              "pitch": 42,
              "beat": 0.0,
              "dur": 1.0,
              "vel": 105
            },
            {
              "note": "F#2",
              "pitch": 54,
              "beat": 0.0,
              "dur": 1.0,
              "vel": 105
            },
            {
              "note": "A#2",
              "pitch": 58,
              "beat": 0.0,
              "dur": 1.0,
              "vel": 105
            },
            {
              "note": "C#3",
              "pitch": 61,
              "beat": 0.0,
              "dur": 1.0,
              "vel": 105
            },
            {
              "note": "F3",
              "pitch": 65,
              "beat": 0.0,
              "dur": 1.0,
              "vel": 105
            },
            {
              "note": "F#1",
              "pitch": 42,
              "beat": 1.5,
              "dur": 1.0,
              "vel": 105
            },
            {
              "note": "F#2",
              "pitch": 54,
              "beat": 1.5,
              "dur": 1.0,
              "vel": 105
            },
            {
              "note": "A#2",
              "pitch": 58,
              "beat": 1.5,
              "dur": 1.0,
              "vel": 105
            },
            {
              "note": "C#3",
              "pitch": 61,
              "beat": 1.5,
              "dur": 1.0,
              "vel": 105
            },
            {
              "note": "F3",
              "pitch": 65,
              "beat": 1.5,
              "dur": 1.0,
              "vel": 105
            },
            {
              "note": "G#2",
              "pitch": 56,
              "beat": 3.98,
              "dur": 1.0,
              "vel": 105
            },
            {
              "note": "C#2",
              "pitch": 49,
              "beat": 4.0,
              "dur": 1.0,
              "vel": 105
            },
            {
              "note": "C#3",
              "pitch": 61,
              "beat": 4.0,
              "dur": 1.0,
              "vel": 105
            },
            {
              "note": "F3",
              "pitch": 65,
              "beat": 4.0,
              "dur": 1.0,
              "vel": 105
            },
            {
              "note": "C#1",
              "pitch": 37,
              "beat": 4.01,
              "dur": 1.0,
              "vel": 105
            },
            {
              "note": "G#2",
              "pitch": 56,
              "beat": 5.48,
              "dur": 1.0,
              "vel": 105
            },
            {
              "note": "C#2",
              "pitch": 49,
              "beat": 5.5,
              "dur": 1.0,
              "vel": 105
            },
            {
              "note": "C#3",
              "pitch": 61,
              "beat": 5.5,
              "dur": 1.0,
              "vel": 105
            },
            {
              "note": "F3",
              "pitch": 65,
              "beat": 5.5,
              "dur": 1.0,
              "vel": 105
            },
            {
              "note": "C#1",
              "pitch": 37,
              "beat": 5.51,
              "dur": 1.0,
              "vel": 105
            },
            {
              "note": "A#0",
              "pitch": 34,
              "beat": 8.0,
              "dur": 1.0,
              "vel": 105
            },
            {
              "note": "A#1",
              "pitch": 46,
              "beat": 8.0,
              "dur": 1.0,
              "vel": 105
            },
            {
              "note": "F2",
              "pitch": 53,
              "beat": 8.0,
              "dur": 1.0,
              "vel": 105
            },
            {
              "note": "A#2",
              "pitch": 58,
              "beat": 8.0,
              "dur": 1.0,
              "vel": 105
            },
            {
              "note": "C#3",
              "pitch": 61,
              "beat": 8.0,
              "dur": 1.0,
              "vel": 105
            },
            {
              "note": "A#0",
              "pitch": 34,
              "beat": 9.5,
              "dur": 1.0,
              "vel": 105
            },
            {
              "note": "A#1",
              "pitch": 46,
              "beat": 9.5,
              "dur": 1.0,
              "vel": 105
            },
            {
              "note": "F2",
              "pitch": 53,
              "beat": 9.5,
              "dur": 1.0,
              "vel": 105
            },
            {
              "note": "A#2",
              "pitch": 58,
              "beat": 9.5,
              "dur": 1.0,
              "vel": 105
            },
            {
              "note": "C#3",
              "pitch": 61,
              "beat": 9.5,
              "dur": 1.0,
              "vel": 105
            },
            {
              "note": "G#2",
              "pitch": 56,
              "beat": 11.98,
              "dur": 1.0,
              "vel": 105
            },
            {
              "note": "C#1",
              "pitch": 37,
              "beat": 12.0,
              "dur": 1.0,
              "vel": 105
            },
            {
              "note": "C#2",
              "pitch": 49,
              "beat": 12.0,
              "dur": 1.0,
              "vel": 105
            },
            {
              "note": "C#3",
              "pitch": 61,
              "beat": 12.0,
              "dur": 1.0,
              "vel": 105
            },
            {
              "note": "F3",
              "pitch": 65,
              "beat": 12.0,
              "dur": 1.0,
              "vel": 105
            },
            {
              "note": "G#2",
              "pitch": 56,
              "beat": 13.48,
              "dur": 1.0,
              "vel": 105
            },
            {
              "note": "C#1",
              "pitch": 37,
              "beat": 13.5,
              "dur": 1.0,
              "vel": 105
            },
            {
              "note": "C#2",
              "pitch": 49,
              "beat": 13.5,
              "dur": 1.0,
              "vel": 105
            },
            {
              "note": "C#3",
              "pitch": 61,
              "beat": 13.5,
              "dur": 1.0,
              "vel": 105
            },
            {
              "note": "F3",
              "pitch": 65,
              "beat": 13.5,
              "dur": 1.0,
              "vel": 105
            },
            {
              "note": "G#2",
              "pitch": 56,
              "beat": 14.48,
              "dur": 1.5,
              "vel": 105
            },
            {
              "note": "C#1",
              "pitch": 37,
              "beat": 14.5,
              "dur": 1.5,
              "vel": 105
            },
            {
              "note": "C#2",
              "pitch": 49,
              "beat": 14.5,
              "dur": 1.5,
              "vel": 105
            },
            {
              "note": "C#3",
              "pitch": 61,
              "beat": 14.5,
              "dur": 1.5,
              "vel": 105
            },
            {
              "note": "F3",
              "pitch": 65,
              "beat": 14.5,
              "dur": 1.5,
              "vel": 105
            }
          ]
        },
        {
          "bar_start": 96.0,
          "bar_end": 111.0,
          "name": "",
          "notes": [
            {
              "note": "F#1",
              "pitch": 42,
              "beat": 0.0,
              "dur": 1.0,
              "vel": 105
            },
            {
              "note": "F#2",
              "pitch": 54,
              "beat": 0.0,
              "dur": 1.0,
              "vel": 105
            },
            {
              "note": "A#2",
              "pitch": 58,
              "beat": 0.0,
              "dur": 1.0,
              "vel": 105
            },
            {
              "note": "C#3",
              "pitch": 61,
              "beat": 0.0,
              "dur": 1.0,
              "vel": 105
            },
            {
              "note": "F3",
              "pitch": 65,
              "beat": 0.0,
              "dur": 1.0,
              "vel": 105
            },
            {
              "note": "F#1",
              "pitch": 42,
              "beat": 1.5,
              "dur": 1.0,
              "vel": 105
            },
            {
              "note": "F#2",
              "pitch": 54,
              "beat": 1.5,
              "dur": 1.0,
              "vel": 105
            },
            {
              "note": "A#2",
              "pitch": 58,
              "beat": 1.5,
              "dur": 1.0,
              "vel": 105
            },
            {
              "note": "C#3",
              "pitch": 61,
              "beat": 1.5,
              "dur": 1.0,
              "vel": 105
            },
            {
              "note": "F3",
              "pitch": 65,
              "beat": 1.5,
              "dur": 1.0,
              "vel": 105
            },
            {
              "note": "G#2",
              "pitch": 56,
              "beat": 3.98,
              "dur": 1.0,
              "vel": 105
            },
            {
              "note": "C#2",
              "pitch": 49,
              "beat": 4.0,
              "dur": 1.0,
              "vel": 105
            },
            {
              "note": "C#3",
              "pitch": 61,
              "beat": 4.0,
              "dur": 1.0,
              "vel": 105
            },
            {
              "note": "F3",
              "pitch": 65,
              "beat": 4.0,
              "dur": 1.0,
              "vel": 105
            },
            {
              "note": "C#1",
              "pitch": 37,
              "beat": 4.01,
              "dur": 1.0,
              "vel": 105
            },
            {
              "note": "G#2",
              "pitch": 56,
              "beat": 5.48,
              "dur": 1.0,
              "vel": 105
            },
            {
              "note": "C#2",
              "pitch": 49,
              "beat": 5.5,
              "dur": 1.0,
              "vel": 105
            },
            {
              "note": "C#3",
              "pitch": 61,
              "beat": 5.5,
              "dur": 1.0,
              "vel": 105
            },
            {
              "note": "F3",
              "pitch": 65,
              "beat": 5.5,
              "dur": 1.0,
              "vel": 105
            },
            {
              "note": "C#1",
              "pitch": 37,
              "beat": 5.51,
              "dur": 1.0,
              "vel": 105
            },
            {
              "note": "A#0",
              "pitch": 34,
              "beat": 8.0,
              "dur": 1.0,
              "vel": 105
            },
            {
              "note": "A#1",
              "pitch": 46,
              "beat": 8.0,
              "dur": 1.0,
              "vel": 105
            },
            {
              "note": "F2",
              "pitch": 53,
              "beat": 8.0,
              "dur": 1.0,
              "vel": 105
            },
            {
              "note": "A#2",
              "pitch": 58,
              "beat": 8.0,
              "dur": 1.0,
              "vel": 105
            },
            {
              "note": "C#3",
              "pitch": 61,
              "beat": 8.0,
              "dur": 1.0,
              "vel": 105
            },
            {
              "note": "A#0",
              "pitch": 34,
              "beat": 9.5,
              "dur": 1.0,
              "vel": 105
            },
            {
              "note": "A#1",
              "pitch": 46,
              "beat": 9.5,
              "dur": 1.0,
              "vel": 105
            },
            {
              "note": "F2",
              "pitch": 53,
              "beat": 9.5,
              "dur": 1.0,
              "vel": 105
            },
            {
              "note": "A#2",
              "pitch": 58,
              "beat": 9.5,
              "dur": 1.0,
              "vel": 105
            },
            {
              "note": "C#3",
              "pitch": 61,
              "beat": 9.5,
              "dur": 1.0,
              "vel": 105
            },
            {
              "note": "G#2",
              "pitch": 56,
              "beat": 11.98,
              "dur": 1.0,
              "vel": 105
            },
            {
              "note": "C#1",
              "pitch": 37,
              "beat": 12.0,
              "dur": 1.0,
              "vel": 105
            },
            {
              "note": "C#2",
              "pitch": 49,
              "beat": 12.0,
              "dur": 1.0,
              "vel": 105
            },
            {
              "note": "C#3",
              "pitch": 61,
              "beat": 12.0,
              "dur": 1.0,
              "vel": 105
            },
            {
              "note": "F3",
              "pitch": 65,
              "beat": 12.0,
              "dur": 1.0,
              "vel": 105
            },
            {
              "note": "G#2",
              "pitch": 56,
              "beat": 13.48,
              "dur": 1.0,
              "vel": 105
            },
            {
              "note": "C#1",
              "pitch": 37,
              "beat": 13.5,
              "dur": 1.0,
              "vel": 105
            },
            {
              "note": "C#2",
              "pitch": 49,
              "beat": 13.5,
              "dur": 1.0,
              "vel": 105
            },
            {
              "note": "C#3",
              "pitch": 61,
              "beat": 13.5,
              "dur": 1.0,
              "vel": 105
            },
            {
              "note": "F3",
              "pitch": 65,
              "beat": 13.5,
              "dur": 1.0,
              "vel": 105
            },
            {
              "note": "G#2",
              "pitch": 56,
              "beat": 14.48,
              "dur": 1.5,
              "vel": 105
            },
            {
              "note": "C#1",
              "pitch": 37,
              "beat": 14.5,
              "dur": 1.5,
              "vel": 105
            },
            {
              "note": "C#2",
              "pitch": 49,
              "beat": 14.5,
              "dur": 1.5,
              "vel": 105
            },
            {
              "note": "C#3",
              "pitch": 61,
              "beat": 14.5,
              "dur": 1.5,
              "vel": 105
            },
            {
              "note": "F3",
              "pitch": 65,
              "beat": 14.5,
              "dur": 1.5,
              "vel": 105
            }
          ]
        },
        {
          "bar_start": 112.0,
          "bar_end": 120.0,
          "name": "",
          "notes": [
            {
              "note": "F#1",
              "pitch": 42,
              "beat": 0.0,
              "dur": 1.0,
              "vel": 105
            },
            {
              "note": "F#2",
              "pitch": 54,
              "beat": 0.0,
              "dur": 1.0,
              "vel": 105
            },
            {
              "note": "A#2",
              "pitch": 58,
              "beat": 0.0,
              "dur": 1.0,
              "vel": 105
            },
            {
              "note": "C#3",
              "pitch": 61,
              "beat": 0.0,
              "dur": 1.0,
              "vel": 105
            },
            {
              "note": "F3",
              "pitch": 65,
              "beat": 0.0,
              "dur": 1.0,
              "vel": 105
            },
            {
              "note": "F#1",
              "pitch": 42,
              "beat": 1.5,
              "dur": 1.0,
              "vel": 105
            },
            {
              "note": "F#2",
              "pitch": 54,
              "beat": 1.5,
              "dur": 1.0,
              "vel": 105
            },
            {
              "note": "A#2",
              "pitch": 58,
              "beat": 1.5,
              "dur": 1.0,
              "vel": 105
            },
            {
              "note": "C#3",
              "pitch": 61,
              "beat": 1.5,
              "dur": 1.0,
              "vel": 105
            },
            {
              "note": "F3",
              "pitch": 65,
              "beat": 1.5,
              "dur": 1.0,
              "vel": 105
            },
            {
              "note": "G#2",
              "pitch": 56,
              "beat": 3.98,
              "dur": 1.0,
              "vel": 105
            },
            {
              "note": "C#2",
              "pitch": 49,
              "beat": 4.0,
              "dur": 1.0,
              "vel": 105
            },
            {
              "note": "C#3",
              "pitch": 61,
              "beat": 4.0,
              "dur": 1.0,
              "vel": 105
            },
            {
              "note": "F3",
              "pitch": 65,
              "beat": 4.0,
              "dur": 1.0,
              "vel": 105
            },
            {
              "note": "C#1",
              "pitch": 37,
              "beat": 4.01,
              "dur": 1.0,
              "vel": 105
            },
            {
              "note": "G#2",
              "pitch": 56,
              "beat": 5.48,
              "dur": 1.0,
              "vel": 105
            },
            {
              "note": "C#2",
              "pitch": 49,
              "beat": 5.5,
              "dur": 1.0,
              "vel": 105
            },
            {
              "note": "C#3",
              "pitch": 61,
              "beat": 5.5,
              "dur": 1.0,
              "vel": 105
            },
            {
              "note": "F3",
              "pitch": 65,
              "beat": 5.5,
              "dur": 1.0,
              "vel": 105
            },
            {
              "note": "C#1",
              "pitch": 37,
              "beat": 5.51,
              "dur": 1.0,
              "vel": 105
            },
            {
              "note": "A#0",
              "pitch": 34,
              "beat": 8.0,
              "dur": 1.0,
              "vel": 105
            },
            {
              "note": "A#1",
              "pitch": 46,
              "beat": 8.0,
              "dur": 1.0,
              "vel": 105
            },
            {
              "note": "F2",
              "pitch": 53,
              "beat": 8.0,
              "dur": 1.0,
              "vel": 105
            },
            {
              "note": "A#2",
              "pitch": 58,
              "beat": 8.0,
              "dur": 1.0,
              "vel": 105
            },
            {
              "note": "C#3",
              "pitch": 61,
              "beat": 8.0,
              "dur": 1.0,
              "vel": 105
            },
            {
              "note": "A#0",
              "pitch": 34,
              "beat": 9.5,
              "dur": 1.0,
              "vel": 105
            },
            {
              "note": "A#1",
              "pitch": 46,
              "beat": 9.5,
              "dur": 1.0,
              "vel": 105
            },
            {
              "note": "F2",
              "pitch": 53,
              "beat": 9.5,
              "dur": 1.0,
              "vel": 105
            },
            {
              "note": "A#2",
              "pitch": 58,
              "beat": 9.5,
              "dur": 1.0,
              "vel": 105
            },
            {
              "note": "C#3",
              "pitch": 61,
              "beat": 9.5,
              "dur": 1.0,
              "vel": 105
            },
            {
              "note": "G#2",
              "pitch": 56,
              "beat": 11.98,
              "dur": 1.0,
              "vel": 105
            },
            {
              "note": "C#1",
              "pitch": 37,
              "beat": 12.0,
              "dur": 1.0,
              "vel": 105
            },
            {
              "note": "C#2",
              "pitch": 49,
              "beat": 12.0,
              "dur": 1.0,
              "vel": 105
            },
            {
              "note": "C#3",
              "pitch": 61,
              "beat": 12.0,
              "dur": 1.0,
              "vel": 105
            },
            {
              "note": "F3",
              "pitch": 65,
              "beat": 12.0,
              "dur": 1.0,
              "vel": 105
            },
            {
              "note": "G#2",
              "pitch": 56,
              "beat": 13.48,
              "dur": 1.0,
              "vel": 105
            },
            {
              "note": "C#1",
              "pitch": 37,
              "beat": 13.5,
              "dur": 1.0,
              "vel": 105
            },
            {
              "note": "C#2",
              "pitch": 49,
              "beat": 13.5,
              "dur": 1.0,
              "vel": 105
            },
            {
              "note": "C#3",
              "pitch": 61,
              "beat": 13.5,
              "dur": 1.0,
              "vel": 105
            },
            {
              "note": "F3",
              "pitch": 65,
              "beat": 13.5,
              "dur": 1.0,
              "vel": 105
            },
            {
              "note": "G#2",
              "pitch": 56,
              "beat": 14.48,
              "dur": 1.5,
              "vel": 105
            },
            {
              "note": "C#1",
              "pitch": 37,
              "beat": 14.5,
              "dur": 1.5,
              "vel": 105
            },
            {
              "note": "C#2",
              "pitch": 49,
              "beat": 14.5,
              "dur": 1.5,
              "vel": 105
            },
            {
              "note": "C#3",
              "pitch": 61,
              "beat": 14.5,
              "dur": 1.5,
              "vel": 105
            },
            {
              "note": "F3",
              "pitch": 65,
              "beat": 14.5,
              "dur": 1.5,
              "vel": 105
            }
          ]
        },
        {
          "bar_start": 120.0,
          "bar_end": 120.25,
          "name": "",
          "notes": [
            {
              "note": "F#1",
              "pitch": 42,
              "beat": 0.0,
              "dur": 1.0,
              "vel": 105
            },
            {
              "note": "F#2",
              "pitch": 54,
              "beat": 0.0,
              "dur": 1.0,
              "vel": 105
            },
            {
              "note": "A#2",
              "pitch": 58,
              "beat": 0.0,
              "dur": 1.0,
              "vel": 105
            },
            {
              "note": "C#3",
              "pitch": 61,
              "beat": 0.0,
              "dur": 1.0,
              "vel": 105
            },
            {
              "note": "F3",
              "pitch": 65,
              "beat": 0.0,
              "dur": 1.0,
              "vel": 105
            },
            {
              "note": "F#1",
              "pitch": 42,
              "beat": 1.5,
              "dur": 1.0,
              "vel": 105
            },
            {
              "note": "F#2",
              "pitch": 54,
              "beat": 1.5,
              "dur": 1.0,
              "vel": 105
            },
            {
              "note": "A#2",
              "pitch": 58,
              "beat": 1.5,
              "dur": 1.0,
              "vel": 105
            },
            {
              "note": "C#3",
              "pitch": 61,
              "beat": 1.5,
              "dur": 1.0,
              "vel": 105
            },
            {
              "note": "F3",
              "pitch": 65,
              "beat": 1.5,
              "dur": 1.0,
              "vel": 105
            },
            {
              "note": "G#2",
              "pitch": 56,
              "beat": 3.98,
              "dur": 1.0,
              "vel": 105
            },
            {
              "note": "C#2",
              "pitch": 49,
              "beat": 4.0,
              "dur": 1.0,
              "vel": 105
            },
            {
              "note": "C#3",
              "pitch": 61,
              "beat": 4.0,
              "dur": 1.0,
              "vel": 105
            },
            {
              "note": "F3",
              "pitch": 65,
              "beat": 4.0,
              "dur": 1.0,
              "vel": 105
            },
            {
              "note": "C#1",
              "pitch": 37,
              "beat": 4.01,
              "dur": 1.0,
              "vel": 105
            },
            {
              "note": "G#2",
              "pitch": 56,
              "beat": 5.48,
              "dur": 1.0,
              "vel": 105
            },
            {
              "note": "C#2",
              "pitch": 49,
              "beat": 5.5,
              "dur": 1.0,
              "vel": 105
            },
            {
              "note": "C#3",
              "pitch": 61,
              "beat": 5.5,
              "dur": 1.0,
              "vel": 105
            },
            {
              "note": "F3",
              "pitch": 65,
              "beat": 5.5,
              "dur": 1.0,
              "vel": 105
            },
            {
              "note": "C#1",
              "pitch": 37,
              "beat": 5.51,
              "dur": 1.0,
              "vel": 105
            },
            {
              "note": "A#0",
              "pitch": 34,
              "beat": 8.0,
              "dur": 1.0,
              "vel": 105
            },
            {
              "note": "A#1",
              "pitch": 46,
              "beat": 8.0,
              "dur": 1.0,
              "vel": 105
            },
            {
              "note": "F2",
              "pitch": 53,
              "beat": 8.0,
              "dur": 1.0,
              "vel": 105
            },
            {
              "note": "A#2",
              "pitch": 58,
              "beat": 8.0,
              "dur": 1.0,
              "vel": 105
            },
            {
              "note": "C#3",
              "pitch": 61,
              "beat": 8.0,
              "dur": 1.0,
              "vel": 105
            },
            {
              "note": "A#0",
              "pitch": 34,
              "beat": 9.5,
              "dur": 1.0,
              "vel": 105
            },
            {
              "note": "A#1",
              "pitch": 46,
              "beat": 9.5,
              "dur": 1.0,
              "vel": 105
            },
            {
              "note": "F2",
              "pitch": 53,
              "beat": 9.5,
              "dur": 1.0,
              "vel": 105
            },
            {
              "note": "A#2",
              "pitch": 58,
              "beat": 9.5,
              "dur": 1.0,
              "vel": 105
            },
            {
              "note": "C#3",
              "pitch": 61,
              "beat": 9.5,
              "dur": 1.0,
              "vel": 105
            },
            {
              "note": "G#2",
              "pitch": 56,
              "beat": 11.98,
              "dur": 1.0,
              "vel": 105
            },
            {
              "note": "C#1",
              "pitch": 37,
              "beat": 12.0,
              "dur": 1.0,
              "vel": 105
            },
            {
              "note": "C#2",
              "pitch": 49,
              "beat": 12.0,
              "dur": 1.0,
              "vel": 105
            },
            {
              "note": "C#3",
              "pitch": 61,
              "beat": 12.0,
              "dur": 1.0,
              "vel": 105
            },
            {
              "note": "F3",
              "pitch": 65,
              "beat": 12.0,
              "dur": 1.0,
              "vel": 105
            },
            {
              "note": "G#2",
              "pitch": 56,
              "beat": 13.48,
              "dur": 1.0,
              "vel": 105
            },
            {
              "note": "C#1",
              "pitch": 37,
              "beat": 13.5,
              "dur": 1.0,
              "vel": 105
            },
            {
              "note": "C#2",
              "pitch": 49,
              "beat": 13.5,
              "dur": 1.0,
              "vel": 105
            },
            {
              "note": "C#3",
              "pitch": 61,
              "beat": 13.5,
              "dur": 1.0,
              "vel": 105
            },
            {
              "note": "F3",
              "pitch": 65,
              "beat": 13.5,
              "dur": 1.0,
              "vel": 105
            },
            {
              "note": "G#2",
              "pitch": 56,
              "beat": 14.48,
              "dur": 1.5,
              "vel": 105
            },
            {
              "note": "C#1",
              "pitch": 37,
              "beat": 14.5,
              "dur": 1.5,
              "vel": 105
            },
            {
              "note": "C#2",
              "pitch": 49,
              "beat": 14.5,
              "dur": 1.5,
              "vel": 105
            },
            {
              "note": "C#3",
              "pitch": 61,
              "beat": 14.5,
              "dur": 1.5,
              "vel": 105
            },
            {
              "note": "F3",
              "pitch": 65,
              "beat": 14.5,
              "dur": 1.5,
              "vel": 105
            }
          ]
        },
        {
          "bar_start": 121.0,
          "bar_end": 121.25,
          "name": "",
          "notes": [
            {
              "note": "F#1",
              "pitch": 42,
              "beat": 0.0,
              "dur": 1.0,
              "vel": 105
            },
            {
              "note": "F#2",
              "pitch": 54,
              "beat": 0.0,
              "dur": 1.0,
              "vel": 105
            },
            {
              "note": "A#2",
              "pitch": 58,
              "beat": 0.0,
              "dur": 1.0,
              "vel": 105
            },
            {
              "note": "C#3",
              "pitch": 61,
              "beat": 0.0,
              "dur": 1.0,
              "vel": 105
            },
            {
              "note": "F3",
              "pitch": 65,
              "beat": 0.0,
              "dur": 1.0,
              "vel": 105
            },
            {
              "note": "F#1",
              "pitch": 42,
              "beat": 1.5,
              "dur": 1.0,
              "vel": 105
            },
            {
              "note": "F#2",
              "pitch": 54,
              "beat": 1.5,
              "dur": 1.0,
              "vel": 105
            },
            {
              "note": "A#2",
              "pitch": 58,
              "beat": 1.5,
              "dur": 1.0,
              "vel": 105
            },
            {
              "note": "C#3",
              "pitch": 61,
              "beat": 1.5,
              "dur": 1.0,
              "vel": 105
            },
            {
              "note": "F3",
              "pitch": 65,
              "beat": 1.5,
              "dur": 1.0,
              "vel": 105
            },
            {
              "note": "G#2",
              "pitch": 56,
              "beat": 3.98,
              "dur": 1.0,
              "vel": 105
            },
            {
              "note": "C#2",
              "pitch": 49,
              "beat": 4.0,
              "dur": 1.0,
              "vel": 105
            },
            {
              "note": "C#3",
              "pitch": 61,
              "beat": 4.0,
              "dur": 1.0,
              "vel": 105
            },
            {
              "note": "F3",
              "pitch": 65,
              "beat": 4.0,
              "dur": 1.0,
              "vel": 105
            },
            {
              "note": "C#1",
              "pitch": 37,
              "beat": 4.01,
              "dur": 1.0,
              "vel": 105
            },
            {
              "note": "G#2",
              "pitch": 56,
              "beat": 5.48,
              "dur": 1.0,
              "vel": 105
            },
            {
              "note": "C#2",
              "pitch": 49,
              "beat": 5.5,
              "dur": 1.0,
              "vel": 105
            },
            {
              "note": "C#3",
              "pitch": 61,
              "beat": 5.5,
              "dur": 1.0,
              "vel": 105
            },
            {
              "note": "F3",
              "pitch": 65,
              "beat": 5.5,
              "dur": 1.0,
              "vel": 105
            },
            {
              "note": "C#1",
              "pitch": 37,
              "beat": 5.51,
              "dur": 1.0,
              "vel": 105
            },
            {
              "note": "A#0",
              "pitch": 34,
              "beat": 8.0,
              "dur": 1.0,
              "vel": 105
            },
            {
              "note": "A#1",
              "pitch": 46,
              "beat": 8.0,
              "dur": 1.0,
              "vel": 105
            },
            {
              "note": "F2",
              "pitch": 53,
              "beat": 8.0,
              "dur": 1.0,
              "vel": 105
            },
            {
              "note": "A#2",
              "pitch": 58,
              "beat": 8.0,
              "dur": 1.0,
              "vel": 105
            },
            {
              "note": "C#3",
              "pitch": 61,
              "beat": 8.0,
              "dur": 1.0,
              "vel": 105
            },
            {
              "note": "A#0",
              "pitch": 34,
              "beat": 9.5,
              "dur": 1.0,
              "vel": 105
            },
            {
              "note": "A#1",
              "pitch": 46,
              "beat": 9.5,
              "dur": 1.0,
              "vel": 105
            },
            {
              "note": "F2",
              "pitch": 53,
              "beat": 9.5,
              "dur": 1.0,
              "vel": 105
            },
            {
              "note": "A#2",
              "pitch": 58,
              "beat": 9.5,
              "dur": 1.0,
              "vel": 105
            },
            {
              "note": "C#3",
              "pitch": 61,
              "beat": 9.5,
              "dur": 1.0,
              "vel": 105
            },
            {
              "note": "G#2",
              "pitch": 56,
              "beat": 11.98,
              "dur": 1.0,
              "vel": 105
            },
            {
              "note": "C#1",
              "pitch": 37,
              "beat": 12.0,
              "dur": 1.0,
              "vel": 105
            },
            {
              "note": "C#2",
              "pitch": 49,
              "beat": 12.0,
              "dur": 1.0,
              "vel": 105
            },
            {
              "note": "C#3",
              "pitch": 61,
              "beat": 12.0,
              "dur": 1.0,
              "vel": 105
            },
            {
              "note": "F3",
              "pitch": 65,
              "beat": 12.0,
              "dur": 1.0,
              "vel": 105
            },
            {
              "note": "G#2",
              "pitch": 56,
              "beat": 13.48,
              "dur": 1.0,
              "vel": 105
            },
            {
              "note": "C#1",
              "pitch": 37,
              "beat": 13.5,
              "dur": 1.0,
              "vel": 105
            },
            {
              "note": "C#2",
              "pitch": 49,
              "beat": 13.5,
              "dur": 1.0,
              "vel": 105
            },
            {
              "note": "C#3",
              "pitch": 61,
              "beat": 13.5,
              "dur": 1.0,
              "vel": 105
            },
            {
              "note": "F3",
              "pitch": 65,
              "beat": 13.5,
              "dur": 1.0,
              "vel": 105
            },
            {
              "note": "G#2",
              "pitch": 56,
              "beat": 14.48,
              "dur": 1.5,
              "vel": 105
            },
            {
              "note": "C#1",
              "pitch": 37,
              "beat": 14.5,
              "dur": 1.5,
              "vel": 105
            },
            {
              "note": "C#2",
              "pitch": 49,
              "beat": 14.5,
              "dur": 1.5,
              "vel": 105
            },
            {
              "note": "C#3",
              "pitch": 61,
              "beat": 14.5,
              "dur": 1.5,
              "vel": 105
            },
            {
              "note": "F3",
              "pitch": 65,
              "beat": 14.5,
              "dur": 1.5,
              "vel": 105
            }
          ]
        },
        {
          "bar_start": 122.0,
          "bar_end": 122.25,
          "name": "",
          "notes": [
            {
              "note": "F#1",
              "pitch": 42,
              "beat": 0.0,
              "dur": 1.0,
              "vel": 105
            },
            {
              "note": "F#2",
              "pitch": 54,
              "beat": 0.0,
              "dur": 1.0,
              "vel": 105
            },
            {
              "note": "A#2",
              "pitch": 58,
              "beat": 0.0,
              "dur": 1.0,
              "vel": 105
            },
            {
              "note": "C#3",
              "pitch": 61,
              "beat": 0.0,
              "dur": 1.0,
              "vel": 105
            },
            {
              "note": "F3",
              "pitch": 65,
              "beat": 0.0,
              "dur": 1.0,
              "vel": 105
            },
            {
              "note": "F#1",
              "pitch": 42,
              "beat": 1.5,
              "dur": 1.0,
              "vel": 105
            },
            {
              "note": "F#2",
              "pitch": 54,
              "beat": 1.5,
              "dur": 1.0,
              "vel": 105
            },
            {
              "note": "A#2",
              "pitch": 58,
              "beat": 1.5,
              "dur": 1.0,
              "vel": 105
            },
            {
              "note": "C#3",
              "pitch": 61,
              "beat": 1.5,
              "dur": 1.0,
              "vel": 105
            },
            {
              "note": "F3",
              "pitch": 65,
              "beat": 1.5,
              "dur": 1.0,
              "vel": 105
            },
            {
              "note": "G#2",
              "pitch": 56,
              "beat": 3.98,
              "dur": 1.0,
              "vel": 105
            },
            {
              "note": "C#2",
              "pitch": 49,
              "beat": 4.0,
              "dur": 1.0,
              "vel": 105
            },
            {
              "note": "C#3",
              "pitch": 61,
              "beat": 4.0,
              "dur": 1.0,
              "vel": 105
            },
            {
              "note": "F3",
              "pitch": 65,
              "beat": 4.0,
              "dur": 1.0,
              "vel": 105
            },
            {
              "note": "C#1",
              "pitch": 37,
              "beat": 4.01,
              "dur": 1.0,
              "vel": 105
            },
            {
              "note": "G#2",
              "pitch": 56,
              "beat": 5.48,
              "dur": 1.0,
              "vel": 105
            },
            {
              "note": "C#2",
              "pitch": 49,
              "beat": 5.5,
              "dur": 1.0,
              "vel": 105
            },
            {
              "note": "C#3",
              "pitch": 61,
              "beat": 5.5,
              "dur": 1.0,
              "vel": 105
            },
            {
              "note": "F3",
              "pitch": 65,
              "beat": 5.5,
              "dur": 1.0,
              "vel": 105
            },
            {
              "note": "C#1",
              "pitch": 37,
              "beat": 5.51,
              "dur": 1.0,
              "vel": 105
            },
            {
              "note": "A#0",
              "pitch": 34,
              "beat": 8.0,
              "dur": 1.0,
              "vel": 105
            },
            {
              "note": "A#1",
              "pitch": 46,
              "beat": 8.0,
              "dur": 1.0,
              "vel": 105
            },
            {
              "note": "F2",
              "pitch": 53,
              "beat": 8.0,
              "dur": 1.0,
              "vel": 105
            },
            {
              "note": "A#2",
              "pitch": 58,
              "beat": 8.0,
              "dur": 1.0,
              "vel": 105
            },
            {
              "note": "C#3",
              "pitch": 61,
              "beat": 8.0,
              "dur": 1.0,
              "vel": 105
            },
            {
              "note": "A#0",
              "pitch": 34,
              "beat": 9.5,
              "dur": 1.0,
              "vel": 105
            },
            {
              "note": "A#1",
              "pitch": 46,
              "beat": 9.5,
              "dur": 1.0,
              "vel": 105
            },
            {
              "note": "F2",
              "pitch": 53,
              "beat": 9.5,
              "dur": 1.0,
              "vel": 105
            },
            {
              "note": "A#2",
              "pitch": 58,
              "beat": 9.5,
              "dur": 1.0,
              "vel": 105
            },
            {
              "note": "C#3",
              "pitch": 61,
              "beat": 9.5,
              "dur": 1.0,
              "vel": 105
            },
            {
              "note": "G#2",
              "pitch": 56,
              "beat": 11.98,
              "dur": 1.0,
              "vel": 105
            },
            {
              "note": "C#1",
              "pitch": 37,
              "beat": 12.0,
              "dur": 1.0,
              "vel": 105
            },
            {
              "note": "C#2",
              "pitch": 49,
              "beat": 12.0,
              "dur": 1.0,
              "vel": 105
            },
            {
              "note": "C#3",
              "pitch": 61,
              "beat": 12.0,
              "dur": 1.0,
              "vel": 105
            },
            {
              "note": "F3",
              "pitch": 65,
              "beat": 12.0,
              "dur": 1.0,
              "vel": 105
            },
            {
              "note": "G#2",
              "pitch": 56,
              "beat": 13.48,
              "dur": 1.0,
              "vel": 105
            },
            {
              "note": "C#1",
              "pitch": 37,
              "beat": 13.5,
              "dur": 1.0,
              "vel": 105
            },
            {
              "note": "C#2",
              "pitch": 49,
              "beat": 13.5,
              "dur": 1.0,
              "vel": 105
            },
            {
              "note": "C#3",
              "pitch": 61,
              "beat": 13.5,
              "dur": 1.0,
              "vel": 105
            },
            {
              "note": "F3",
              "pitch": 65,
              "beat": 13.5,
              "dur": 1.0,
              "vel": 105
            },
            {
              "note": "G#2",
              "pitch": 56,
              "beat": 14.48,
              "dur": 1.5,
              "vel": 105
            },
            {
              "note": "C#1",
              "pitch": 37,
              "beat": 14.5,
              "dur": 1.5,
              "vel": 105
            },
            {
              "note": "C#2",
              "pitch": 49,
              "beat": 14.5,
              "dur": 1.5,
              "vel": 105
            },
            {
              "note": "C#3",
              "pitch": 61,
              "beat": 14.5,
              "dur": 1.5,
              "vel": 105
            },
            {
              "note": "F3",
              "pitch": 65,
              "beat": 14.5,
              "dur": 1.5,
              "vel": 105
            }
          ]
        },
        {
          "bar_start": 123.0,
          "bar_end": 123.25,
          "name": "",
          "notes": [
            {
              "note": "F#1",
              "pitch": 42,
              "beat": 0.0,
              "dur": 1.0,
              "vel": 105
            },
            {
              "note": "F#2",
              "pitch": 54,
              "beat": 0.0,
              "dur": 1.0,
              "vel": 105
            },
            {
              "note": "A#2",
              "pitch": 58,
              "beat": 0.0,
              "dur": 1.0,
              "vel": 105
            },
            {
              "note": "C#3",
              "pitch": 61,
              "beat": 0.0,
              "dur": 1.0,
              "vel": 105
            },
            {
              "note": "F3",
              "pitch": 65,
              "beat": 0.0,
              "dur": 1.0,
              "vel": 105
            },
            {
              "note": "F#1",
              "pitch": 42,
              "beat": 1.5,
              "dur": 1.0,
              "vel": 105
            },
            {
              "note": "F#2",
              "pitch": 54,
              "beat": 1.5,
              "dur": 1.0,
              "vel": 105
            },
            {
              "note": "A#2",
              "pitch": 58,
              "beat": 1.5,
              "dur": 1.0,
              "vel": 105
            },
            {
              "note": "C#3",
              "pitch": 61,
              "beat": 1.5,
              "dur": 1.0,
              "vel": 105
            },
            {
              "note": "F3",
              "pitch": 65,
              "beat": 1.5,
              "dur": 1.0,
              "vel": 105
            },
            {
              "note": "G#2",
              "pitch": 56,
              "beat": 3.98,
              "dur": 1.0,
              "vel": 105
            },
            {
              "note": "C#2",
              "pitch": 49,
              "beat": 4.0,
              "dur": 1.0,
              "vel": 105
            },
            {
              "note": "C#3",
              "pitch": 61,
              "beat": 4.0,
              "dur": 1.0,
              "vel": 105
            },
            {
              "note": "F3",
              "pitch": 65,
              "beat": 4.0,
              "dur": 1.0,
              "vel": 105
            },
            {
              "note": "C#1",
              "pitch": 37,
              "beat": 4.01,
              "dur": 1.0,
              "vel": 105
            },
            {
              "note": "G#2",
              "pitch": 56,
              "beat": 5.48,
              "dur": 1.0,
              "vel": 105
            },
            {
              "note": "C#2",
              "pitch": 49,
              "beat": 5.5,
              "dur": 1.0,
              "vel": 105
            },
            {
              "note": "C#3",
              "pitch": 61,
              "beat": 5.5,
              "dur": 1.0,
              "vel": 105
            },
            {
              "note": "F3",
              "pitch": 65,
              "beat": 5.5,
              "dur": 1.0,
              "vel": 105
            },
            {
              "note": "C#1",
              "pitch": 37,
              "beat": 5.51,
              "dur": 1.0,
              "vel": 105
            },
            {
              "note": "A#0",
              "pitch": 34,
              "beat": 8.0,
              "dur": 1.0,
              "vel": 105
            },
            {
              "note": "A#1",
              "pitch": 46,
              "beat": 8.0,
              "dur": 1.0,
              "vel": 105
            },
            {
              "note": "F2",
              "pitch": 53,
              "beat": 8.0,
              "dur": 1.0,
              "vel": 105
            },
            {
              "note": "A#2",
              "pitch": 58,
              "beat": 8.0,
              "dur": 1.0,
              "vel": 105
            },
            {
              "note": "C#3",
              "pitch": 61,
              "beat": 8.0,
              "dur": 1.0,
              "vel": 105
            },
            {
              "note": "A#0",
              "pitch": 34,
              "beat": 9.5,
              "dur": 1.0,
              "vel": 105
            },
            {
              "note": "A#1",
              "pitch": 46,
              "beat": 9.5,
              "dur": 1.0,
              "vel": 105
            },
            {
              "note": "F2",
              "pitch": 53,
              "beat": 9.5,
              "dur": 1.0,
              "vel": 105
            },
            {
              "note": "A#2",
              "pitch": 58,
              "beat": 9.5,
              "dur": 1.0,
              "vel": 105
            },
            {
              "note": "C#3",
              "pitch": 61,
              "beat": 9.5,
              "dur": 1.0,
              "vel": 105
            },
            {
              "note": "G#2",
              "pitch": 56,
              "beat": 11.98,
              "dur": 1.0,
              "vel": 105
            },
            {
              "note": "C#1",
              "pitch": 37,
              "beat": 12.0,
              "dur": 1.0,
              "vel": 105
            },
            {
              "note": "C#2",
              "pitch": 49,
              "beat": 12.0,
              "dur": 1.0,
              "vel": 105
            },
            {
              "note": "C#3",
              "pitch": 61,
              "beat": 12.0,
              "dur": 1.0,
              "vel": 105
            },
            {
              "note": "F3",
              "pitch": 65,
              "beat": 12.0,
              "dur": 1.0,
              "vel": 105
            },
            {
              "note": "G#2",
              "pitch": 56,
              "beat": 13.48,
              "dur": 1.0,
              "vel": 105
            },
            {
              "note": "C#1",
              "pitch": 37,
              "beat": 13.5,
              "dur": 1.0,
              "vel": 105
            },
            {
              "note": "C#2",
              "pitch": 49,
              "beat": 13.5,
              "dur": 1.0,
              "vel": 105
            },
            {
              "note": "C#3",
              "pitch": 61,
              "beat": 13.5,
              "dur": 1.0,
              "vel": 105
            },
            {
              "note": "F3",
              "pitch": 65,
              "beat": 13.5,
              "dur": 1.0,
              "vel": 105
            },
            {
              "note": "G#2",
              "pitch": 56,
              "beat": 14.48,
              "dur": 1.5,
              "vel": 105
            },
            {
              "note": "C#1",
              "pitch": 37,
              "beat": 14.5,
              "dur": 1.5,
              "vel": 105
            },
            {
              "note": "C#2",
              "pitch": 49,
              "beat": 14.5,
              "dur": 1.5,
              "vel": 105
            },
            {
              "note": "C#3",
              "pitch": 61,
              "beat": 14.5,
              "dur": 1.5,
              "vel": 105
            },
            {
              "note": "F3",
              "pitch": 65,
              "beat": 14.5,
              "dur": 1.5,
              "vel": 105
            }
          ]
        },
        {
          "bar_start": 124.0,
          "bar_end": 124.25,
          "name": "",
          "notes": [
            {
              "note": "F#1",
              "pitch": 42,
              "beat": 0.0,
              "dur": 1.0,
              "vel": 105
            },
            {
              "note": "F#2",
              "pitch": 54,
              "beat": 0.0,
              "dur": 1.0,
              "vel": 105
            },
            {
              "note": "A#2",
              "pitch": 58,
              "beat": 0.0,
              "dur": 1.0,
              "vel": 105
            },
            {
              "note": "C#3",
              "pitch": 61,
              "beat": 0.0,
              "dur": 1.0,
              "vel": 105
            },
            {
              "note": "F3",
              "pitch": 65,
              "beat": 0.0,
              "dur": 1.0,
              "vel": 105
            },
            {
              "note": "F#1",
              "pitch": 42,
              "beat": 1.5,
              "dur": 1.0,
              "vel": 105
            },
            {
              "note": "F#2",
              "pitch": 54,
              "beat": 1.5,
              "dur": 1.0,
              "vel": 105
            },
            {
              "note": "A#2",
              "pitch": 58,
              "beat": 1.5,
              "dur": 1.0,
              "vel": 105
            },
            {
              "note": "C#3",
              "pitch": 61,
              "beat": 1.5,
              "dur": 1.0,
              "vel": 105
            },
            {
              "note": "F3",
              "pitch": 65,
              "beat": 1.5,
              "dur": 1.0,
              "vel": 105
            },
            {
              "note": "G#2",
              "pitch": 56,
              "beat": 3.98,
              "dur": 1.0,
              "vel": 105
            },
            {
              "note": "C#2",
              "pitch": 49,
              "beat": 4.0,
              "dur": 1.0,
              "vel": 105
            },
            {
              "note": "C#3",
              "pitch": 61,
              "beat": 4.0,
              "dur": 1.0,
              "vel": 105
            },
            {
              "note": "F3",
              "pitch": 65,
              "beat": 4.0,
              "dur": 1.0,
              "vel": 105
            },
            {
              "note": "C#1",
              "pitch": 37,
              "beat": 4.01,
              "dur": 1.0,
              "vel": 105
            },
            {
              "note": "G#2",
              "pitch": 56,
              "beat": 5.48,
              "dur": 1.0,
              "vel": 105
            },
            {
              "note": "C#2",
              "pitch": 49,
              "beat": 5.5,
              "dur": 1.0,
              "vel": 105
            },
            {
              "note": "C#3",
              "pitch": 61,
              "beat": 5.5,
              "dur": 1.0,
              "vel": 105
            },
            {
              "note": "F3",
              "pitch": 65,
              "beat": 5.5,
              "dur": 1.0,
              "vel": 105
            },
            {
              "note": "C#1",
              "pitch": 37,
              "beat": 5.51,
              "dur": 1.0,
              "vel": 105
            },
            {
              "note": "A#0",
              "pitch": 34,
              "beat": 8.0,
              "dur": 1.0,
              "vel": 105
            },
            {
              "note": "A#1",
              "pitch": 46,
              "beat": 8.0,
              "dur": 1.0,
              "vel": 105
            },
            {
              "note": "F2",
              "pitch": 53,
              "beat": 8.0,
              "dur": 1.0,
              "vel": 105
            },
            {
              "note": "A#2",
              "pitch": 58,
              "beat": 8.0,
              "dur": 1.0,
              "vel": 105
            },
            {
              "note": "C#3",
              "pitch": 61,
              "beat": 8.0,
              "dur": 1.0,
              "vel": 105
            },
            {
              "note": "A#0",
              "pitch": 34,
              "beat": 9.5,
              "dur": 1.0,
              "vel": 105
            },
            {
              "note": "A#1",
              "pitch": 46,
              "beat": 9.5,
              "dur": 1.0,
              "vel": 105
            },
            {
              "note": "F2",
              "pitch": 53,
              "beat": 9.5,
              "dur": 1.0,
              "vel": 105
            },
            {
              "note": "A#2",
              "pitch": 58,
              "beat": 9.5,
              "dur": 1.0,
              "vel": 105
            },
            {
              "note": "C#3",
              "pitch": 61,
              "beat": 9.5,
              "dur": 1.0,
              "vel": 105
            },
            {
              "note": "G#2",
              "pitch": 56,
              "beat": 11.98,
              "dur": 1.0,
              "vel": 105
            },
            {
              "note": "C#1",
              "pitch": 37,
              "beat": 12.0,
              "dur": 1.0,
              "vel": 105
            },
            {
              "note": "C#2",
              "pitch": 49,
              "beat": 12.0,
              "dur": 1.0,
              "vel": 105
            },
            {
              "note": "C#3",
              "pitch": 61,
              "beat": 12.0,
              "dur": 1.0,
              "vel": 105
            },
            {
              "note": "F3",
              "pitch": 65,
              "beat": 12.0,
              "dur": 1.0,
              "vel": 105
            },
            {
              "note": "G#2",
              "pitch": 56,
              "beat": 13.48,
              "dur": 1.0,
              "vel": 105
            },
            {
              "note": "C#1",
              "pitch": 37,
              "beat": 13.5,
              "dur": 1.0,
              "vel": 105
            },
            {
              "note": "C#2",
              "pitch": 49,
              "beat": 13.5,
              "dur": 1.0,
              "vel": 105
            },
            {
              "note": "C#3",
              "pitch": 61,
              "beat": 13.5,
              "dur": 1.0,
              "vel": 105
            },
            {
              "note": "F3",
              "pitch": 65,
              "beat": 13.5,
              "dur": 1.0,
              "vel": 105
            },
            {
              "note": "G#2",
              "pitch": 56,
              "beat": 14.48,
              "dur": 1.5,
              "vel": 105
            },
            {
              "note": "C#1",
              "pitch": 37,
              "beat": 14.5,
              "dur": 1.5,
              "vel": 105
            },
            {
              "note": "C#2",
              "pitch": 49,
              "beat": 14.5,
              "dur": 1.5,
              "vel": 105
            },
            {
              "note": "C#3",
              "pitch": 61,
              "beat": 14.5,
              "dur": 1.5,
              "vel": 105
            },
            {
              "note": "F3",
              "pitch": 65,
              "beat": 14.5,
              "dur": 1.5,
              "vel": 105
            }
          ]
        },
        {
          "bar_start": 125.0,
          "bar_end": 125.25,
          "name": "",
          "notes": [
            {
              "note": "F#1",
              "pitch": 42,
              "beat": 0.0,
              "dur": 1.0,
              "vel": 105
            },
            {
              "note": "F#2",
              "pitch": 54,
              "beat": 0.0,
              "dur": 1.0,
              "vel": 105
            },
            {
              "note": "A#2",
              "pitch": 58,
              "beat": 0.0,
              "dur": 1.0,
              "vel": 105
            },
            {
              "note": "C#3",
              "pitch": 61,
              "beat": 0.0,
              "dur": 1.0,
              "vel": 105
            },
            {
              "note": "F3",
              "pitch": 65,
              "beat": 0.0,
              "dur": 1.0,
              "vel": 105
            },
            {
              "note": "F#1",
              "pitch": 42,
              "beat": 1.5,
              "dur": 1.0,
              "vel": 105
            },
            {
              "note": "F#2",
              "pitch": 54,
              "beat": 1.5,
              "dur": 1.0,
              "vel": 105
            },
            {
              "note": "A#2",
              "pitch": 58,
              "beat": 1.5,
              "dur": 1.0,
              "vel": 105
            },
            {
              "note": "C#3",
              "pitch": 61,
              "beat": 1.5,
              "dur": 1.0,
              "vel": 105
            },
            {
              "note": "F3",
              "pitch": 65,
              "beat": 1.5,
              "dur": 1.0,
              "vel": 105
            },
            {
              "note": "G#2",
              "pitch": 56,
              "beat": 3.98,
              "dur": 1.0,
              "vel": 105
            },
            {
              "note": "C#2",
              "pitch": 49,
              "beat": 4.0,
              "dur": 1.0,
              "vel": 105
            },
            {
              "note": "C#3",
              "pitch": 61,
              "beat": 4.0,
              "dur": 1.0,
              "vel": 105
            },
            {
              "note": "F3",
              "pitch": 65,
              "beat": 4.0,
              "dur": 1.0,
              "vel": 105
            },
            {
              "note": "C#1",
              "pitch": 37,
              "beat": 4.01,
              "dur": 1.0,
              "vel": 105
            },
            {
              "note": "G#2",
              "pitch": 56,
              "beat": 5.48,
              "dur": 1.0,
              "vel": 105
            },
            {
              "note": "C#2",
              "pitch": 49,
              "beat": 5.5,
              "dur": 1.0,
              "vel": 105
            },
            {
              "note": "C#3",
              "pitch": 61,
              "beat": 5.5,
              "dur": 1.0,
              "vel": 105
            },
            {
              "note": "F3",
              "pitch": 65,
              "beat": 5.5,
              "dur": 1.0,
              "vel": 105
            },
            {
              "note": "C#1",
              "pitch": 37,
              "beat": 5.51,
              "dur": 1.0,
              "vel": 105
            },
            {
              "note": "A#0",
              "pitch": 34,
              "beat": 8.0,
              "dur": 1.0,
              "vel": 105
            },
            {
              "note": "A#1",
              "pitch": 46,
              "beat": 8.0,
              "dur": 1.0,
              "vel": 105
            },
            {
              "note": "F2",
              "pitch": 53,
              "beat": 8.0,
              "dur": 1.0,
              "vel": 105
            },
            {
              "note": "A#2",
              "pitch": 58,
              "beat": 8.0,
              "dur": 1.0,
              "vel": 105
            },
            {
              "note": "C#3",
              "pitch": 61,
              "beat": 8.0,
              "dur": 1.0,
              "vel": 105
            },
            {
              "note": "A#0",
              "pitch": 34,
              "beat": 9.5,
              "dur": 1.0,
              "vel": 105
            },
            {
              "note": "A#1",
              "pitch": 46,
              "beat": 9.5,
              "dur": 1.0,
              "vel": 105
            },
            {
              "note": "F2",
              "pitch": 53,
              "beat": 9.5,
              "dur": 1.0,
              "vel": 105
            },
            {
              "note": "A#2",
              "pitch": 58,
              "beat": 9.5,
              "dur": 1.0,
              "vel": 105
            },
            {
              "note": "C#3",
              "pitch": 61,
              "beat": 9.5,
              "dur": 1.0,
              "vel": 105
            },
            {
              "note": "G#2",
              "pitch": 56,
              "beat": 11.98,
              "dur": 1.0,
              "vel": 105
            },
            {
              "note": "C#1",
              "pitch": 37,
              "beat": 12.0,
              "dur": 1.0,
              "vel": 105
            },
            {
              "note": "C#2",
              "pitch": 49,
              "beat": 12.0,
              "dur": 1.0,
              "vel": 105
            },
            {
              "note": "C#3",
              "pitch": 61,
              "beat": 12.0,
              "dur": 1.0,
              "vel": 105
            },
            {
              "note": "F3",
              "pitch": 65,
              "beat": 12.0,
              "dur": 1.0,
              "vel": 105
            },
            {
              "note": "G#2",
              "pitch": 56,
              "beat": 13.48,
              "dur": 1.0,
              "vel": 105
            },
            {
              "note": "C#1",
              "pitch": 37,
              "beat": 13.5,
              "dur": 1.0,
              "vel": 105
            },
            {
              "note": "C#2",
              "pitch": 49,
              "beat": 13.5,
              "dur": 1.0,
              "vel": 105
            },
            {
              "note": "C#3",
              "pitch": 61,
              "beat": 13.5,
              "dur": 1.0,
              "vel": 105
            },
            {
              "note": "F3",
              "pitch": 65,
              "beat": 13.5,
              "dur": 1.0,
              "vel": 105
            },
            {
              "note": "G#2",
              "pitch": 56,
              "beat": 14.48,
              "dur": 1.5,
              "vel": 105
            },
            {
              "note": "C#1",
              "pitch": 37,
              "beat": 14.5,
              "dur": 1.5,
              "vel": 105
            },
            {
              "note": "C#2",
              "pitch": 49,
              "beat": 14.5,
              "dur": 1.5,
              "vel": 105
            },
            {
              "note": "C#3",
              "pitch": 61,
              "beat": 14.5,
              "dur": 1.5,
              "vel": 105
            },
            {
              "note": "F3",
              "pitch": 65,
              "beat": 14.5,
              "dur": 1.5,
              "vel": 105
            }
          ]
        },
        {
          "bar_start": 126.0,
          "bar_end": 126.25,
          "name": "",
          "notes": [
            {
              "note": "F#1",
              "pitch": 42,
              "beat": 0.0,
              "dur": 1.0,
              "vel": 105
            },
            {
              "note": "F#2",
              "pitch": 54,
              "beat": 0.0,
              "dur": 1.0,
              "vel": 105
            },
            {
              "note": "A#2",
              "pitch": 58,
              "beat": 0.0,
              "dur": 1.0,
              "vel": 105
            },
            {
              "note": "C#3",
              "pitch": 61,
              "beat": 0.0,
              "dur": 1.0,
              "vel": 105
            },
            {
              "note": "F3",
              "pitch": 65,
              "beat": 0.0,
              "dur": 1.0,
              "vel": 105
            },
            {
              "note": "F#1",
              "pitch": 42,
              "beat": 1.5,
              "dur": 1.0,
              "vel": 105
            },
            {
              "note": "F#2",
              "pitch": 54,
              "beat": 1.5,
              "dur": 1.0,
              "vel": 105
            },
            {
              "note": "A#2",
              "pitch": 58,
              "beat": 1.5,
              "dur": 1.0,
              "vel": 105
            },
            {
              "note": "C#3",
              "pitch": 61,
              "beat": 1.5,
              "dur": 1.0,
              "vel": 105
            },
            {
              "note": "F3",
              "pitch": 65,
              "beat": 1.5,
              "dur": 1.0,
              "vel": 105
            },
            {
              "note": "G#2",
              "pitch": 56,
              "beat": 3.98,
              "dur": 1.0,
              "vel": 105
            },
            {
              "note": "C#2",
              "pitch": 49,
              "beat": 4.0,
              "dur": 1.0,
              "vel": 105
            },
            {
              "note": "C#3",
              "pitch": 61,
              "beat": 4.0,
              "dur": 1.0,
              "vel": 105
            },
            {
              "note": "F3",
              "pitch": 65,
              "beat": 4.0,
              "dur": 1.0,
              "vel": 105
            },
            {
              "note": "C#1",
              "pitch": 37,
              "beat": 4.01,
              "dur": 1.0,
              "vel": 105
            },
            {
              "note": "G#2",
              "pitch": 56,
              "beat": 5.48,
              "dur": 1.0,
              "vel": 105
            },
            {
              "note": "C#2",
              "pitch": 49,
              "beat": 5.5,
              "dur": 1.0,
              "vel": 105
            },
            {
              "note": "C#3",
              "pitch": 61,
              "beat": 5.5,
              "dur": 1.0,
              "vel": 105
            },
            {
              "note": "F3",
              "pitch": 65,
              "beat": 5.5,
              "dur": 1.0,
              "vel": 105
            },
            {
              "note": "C#1",
              "pitch": 37,
              "beat": 5.51,
              "dur": 1.0,
              "vel": 105
            },
            {
              "note": "A#0",
              "pitch": 34,
              "beat": 8.0,
              "dur": 1.0,
              "vel": 105
            },
            {
              "note": "A#1",
              "pitch": 46,
              "beat": 8.0,
              "dur": 1.0,
              "vel": 105
            },
            {
              "note": "F2",
              "pitch": 53,
              "beat": 8.0,
              "dur": 1.0,
              "vel": 105
            },
            {
              "note": "A#2",
              "pitch": 58,
              "beat": 8.0,
              "dur": 1.0,
              "vel": 105
            },
            {
              "note": "C#3",
              "pitch": 61,
              "beat": 8.0,
              "dur": 1.0,
              "vel": 105
            },
            {
              "note": "A#0",
              "pitch": 34,
              "beat": 9.5,
              "dur": 1.0,
              "vel": 105
            },
            {
              "note": "A#1",
              "pitch": 46,
              "beat": 9.5,
              "dur": 1.0,
              "vel": 105
            },
            {
              "note": "F2",
              "pitch": 53,
              "beat": 9.5,
              "dur": 1.0,
              "vel": 105
            },
            {
              "note": "A#2",
              "pitch": 58,
              "beat": 9.5,
              "dur": 1.0,
              "vel": 105
            },
            {
              "note": "C#3",
              "pitch": 61,
              "beat": 9.5,
              "dur": 1.0,
              "vel": 105
            },
            {
              "note": "G#2",
              "pitch": 56,
              "beat": 11.98,
              "dur": 1.0,
              "vel": 105
            },
            {
              "note": "C#1",
              "pitch": 37,
              "beat": 12.0,
              "dur": 1.0,
              "vel": 105
            },
            {
              "note": "C#2",
              "pitch": 49,
              "beat": 12.0,
              "dur": 1.0,
              "vel": 105
            },
            {
              "note": "C#3",
              "pitch": 61,
              "beat": 12.0,
              "dur": 1.0,
              "vel": 105
            },
            {
              "note": "F3",
              "pitch": 65,
              "beat": 12.0,
              "dur": 1.0,
              "vel": 105
            },
            {
              "note": "G#2",
              "pitch": 56,
              "beat": 13.48,
              "dur": 1.0,
              "vel": 105
            },
            {
              "note": "C#1",
              "pitch": 37,
              "beat": 13.5,
              "dur": 1.0,
              "vel": 105
            },
            {
              "note": "C#2",
              "pitch": 49,
              "beat": 13.5,
              "dur": 1.0,
              "vel": 105
            },
            {
              "note": "C#3",
              "pitch": 61,
              "beat": 13.5,
              "dur": 1.0,
              "vel": 105
            },
            {
              "note": "F3",
              "pitch": 65,
              "beat": 13.5,
              "dur": 1.0,
              "vel": 105
            },
            {
              "note": "G#2",
              "pitch": 56,
              "beat": 14.48,
              "dur": 1.5,
              "vel": 105
            },
            {
              "note": "C#1",
              "pitch": 37,
              "beat": 14.5,
              "dur": 1.5,
              "vel": 105
            },
            {
              "note": "C#2",
              "pitch": 49,
              "beat": 14.5,
              "dur": 1.5,
              "vel": 105
            },
            {
              "note": "C#3",
              "pitch": 61,
              "beat": 14.5,
              "dur": 1.5,
              "vel": 105
            },
            {
              "note": "F3",
              "pitch": 65,
              "beat": 14.5,
              "dur": 1.5,
              "vel": 105
            }
          ]
        },
        {
          "bar_start": 127.0,
          "bar_end": 127.25,
          "name": "",
          "notes": [
            {
              "note": "F#1",
              "pitch": 42,
              "beat": 0.0,
              "dur": 1.0,
              "vel": 105
            },
            {
              "note": "F#2",
              "pitch": 54,
              "beat": 0.0,
              "dur": 1.0,
              "vel": 105
            },
            {
              "note": "A#2",
              "pitch": 58,
              "beat": 0.0,
              "dur": 1.0,
              "vel": 105
            },
            {
              "note": "C#3",
              "pitch": 61,
              "beat": 0.0,
              "dur": 1.0,
              "vel": 105
            },
            {
              "note": "F3",
              "pitch": 65,
              "beat": 0.0,
              "dur": 1.0,
              "vel": 105
            },
            {
              "note": "F#1",
              "pitch": 42,
              "beat": 1.5,
              "dur": 1.0,
              "vel": 105
            },
            {
              "note": "F#2",
              "pitch": 54,
              "beat": 1.5,
              "dur": 1.0,
              "vel": 105
            },
            {
              "note": "A#2",
              "pitch": 58,
              "beat": 1.5,
              "dur": 1.0,
              "vel": 105
            },
            {
              "note": "C#3",
              "pitch": 61,
              "beat": 1.5,
              "dur": 1.0,
              "vel": 105
            },
            {
              "note": "F3",
              "pitch": 65,
              "beat": 1.5,
              "dur": 1.0,
              "vel": 105
            },
            {
              "note": "G#2",
              "pitch": 56,
              "beat": 3.98,
              "dur": 1.0,
              "vel": 105
            },
            {
              "note": "C#2",
              "pitch": 49,
              "beat": 4.0,
              "dur": 1.0,
              "vel": 105
            },
            {
              "note": "C#3",
              "pitch": 61,
              "beat": 4.0,
              "dur": 1.0,
              "vel": 105
            },
            {
              "note": "F3",
              "pitch": 65,
              "beat": 4.0,
              "dur": 1.0,
              "vel": 105
            },
            {
              "note": "C#1",
              "pitch": 37,
              "beat": 4.01,
              "dur": 1.0,
              "vel": 105
            },
            {
              "note": "G#2",
              "pitch": 56,
              "beat": 5.48,
              "dur": 1.0,
              "vel": 105
            },
            {
              "note": "C#2",
              "pitch": 49,
              "beat": 5.5,
              "dur": 1.0,
              "vel": 105
            },
            {
              "note": "C#3",
              "pitch": 61,
              "beat": 5.5,
              "dur": 1.0,
              "vel": 105
            },
            {
              "note": "F3",
              "pitch": 65,
              "beat": 5.5,
              "dur": 1.0,
              "vel": 105
            },
            {
              "note": "C#1",
              "pitch": 37,
              "beat": 5.51,
              "dur": 1.0,
              "vel": 105
            },
            {
              "note": "A#0",
              "pitch": 34,
              "beat": 8.0,
              "dur": 1.0,
              "vel": 105
            },
            {
              "note": "A#1",
              "pitch": 46,
              "beat": 8.0,
              "dur": 1.0,
              "vel": 105
            },
            {
              "note": "F2",
              "pitch": 53,
              "beat": 8.0,
              "dur": 1.0,
              "vel": 105
            },
            {
              "note": "A#2",
              "pitch": 58,
              "beat": 8.0,
              "dur": 1.0,
              "vel": 105
            },
            {
              "note": "C#3",
              "pitch": 61,
              "beat": 8.0,
              "dur": 1.0,
              "vel": 105
            },
            {
              "note": "A#0",
              "pitch": 34,
              "beat": 9.5,
              "dur": 1.0,
              "vel": 105
            },
            {
              "note": "A#1",
              "pitch": 46,
              "beat": 9.5,
              "dur": 1.0,
              "vel": 105
            },
            {
              "note": "F2",
              "pitch": 53,
              "beat": 9.5,
              "dur": 1.0,
              "vel": 105
            },
            {
              "note": "A#2",
              "pitch": 58,
              "beat": 9.5,
              "dur": 1.0,
              "vel": 105
            },
            {
              "note": "C#3",
              "pitch": 61,
              "beat": 9.5,
              "dur": 1.0,
              "vel": 105
            },
            {
              "note": "G#2",
              "pitch": 56,
              "beat": 11.98,
              "dur": 1.0,
              "vel": 105
            },
            {
              "note": "C#1",
              "pitch": 37,
              "beat": 12.0,
              "dur": 1.0,
              "vel": 105
            },
            {
              "note": "C#2",
              "pitch": 49,
              "beat": 12.0,
              "dur": 1.0,
              "vel": 105
            },
            {
              "note": "C#3",
              "pitch": 61,
              "beat": 12.0,
              "dur": 1.0,
              "vel": 105
            },
            {
              "note": "F3",
              "pitch": 65,
              "beat": 12.0,
              "dur": 1.0,
              "vel": 105
            },
            {
              "note": "G#2",
              "pitch": 56,
              "beat": 13.48,
              "dur": 1.0,
              "vel": 105
            },
            {
              "note": "C#1",
              "pitch": 37,
              "beat": 13.5,
              "dur": 1.0,
              "vel": 105
            },
            {
              "note": "C#2",
              "pitch": 49,
              "beat": 13.5,
              "dur": 1.0,
              "vel": 105
            },
            {
              "note": "C#3",
              "pitch": 61,
              "beat": 13.5,
              "dur": 1.0,
              "vel": 105
            },
            {
              "note": "F3",
              "pitch": 65,
              "beat": 13.5,
              "dur": 1.0,
              "vel": 105
            },
            {
              "note": "G#2",
              "pitch": 56,
              "beat": 14.48,
              "dur": 1.5,
              "vel": 105
            },
            {
              "note": "C#1",
              "pitch": 37,
              "beat": 14.5,
              "dur": 1.5,
              "vel": 105
            },
            {
              "note": "C#2",
              "pitch": 49,
              "beat": 14.5,
              "dur": 1.5,
              "vel": 105
            },
            {
              "note": "C#3",
              "pitch": 61,
              "beat": 14.5,
              "dur": 1.5,
              "vel": 105
            },
            {
              "note": "F3",
              "pitch": 65,
              "beat": 14.5,
              "dur": 1.5,
              "vel": 105
            }
          ]
        },
        {
          "bar_start": 128.0,
          "bar_end": 128.25,
          "name": "",
          "notes": [
            {
              "note": "F#1",
              "pitch": 42,
              "beat": 0.0,
              "dur": 1.0,
              "vel": 105
            },
            {
              "note": "F#2",
              "pitch": 54,
              "beat": 0.0,
              "dur": 1.0,
              "vel": 105
            },
            {
              "note": "A#2",
              "pitch": 58,
              "beat": 0.0,
              "dur": 1.0,
              "vel": 105
            },
            {
              "note": "C#3",
              "pitch": 61,
              "beat": 0.0,
              "dur": 1.0,
              "vel": 105
            },
            {
              "note": "F3",
              "pitch": 65,
              "beat": 0.0,
              "dur": 1.0,
              "vel": 105
            },
            {
              "note": "F#1",
              "pitch": 42,
              "beat": 1.5,
              "dur": 1.0,
              "vel": 105
            },
            {
              "note": "F#2",
              "pitch": 54,
              "beat": 1.5,
              "dur": 1.0,
              "vel": 105
            },
            {
              "note": "A#2",
              "pitch": 58,
              "beat": 1.5,
              "dur": 1.0,
              "vel": 105
            },
            {
              "note": "C#3",
              "pitch": 61,
              "beat": 1.5,
              "dur": 1.0,
              "vel": 105
            },
            {
              "note": "F3",
              "pitch": 65,
              "beat": 1.5,
              "dur": 1.0,
              "vel": 105
            },
            {
              "note": "G#2",
              "pitch": 56,
              "beat": 3.98,
              "dur": 1.0,
              "vel": 105
            },
            {
              "note": "C#2",
              "pitch": 49,
              "beat": 4.0,
              "dur": 1.0,
              "vel": 105
            },
            {
              "note": "C#3",
              "pitch": 61,
              "beat": 4.0,
              "dur": 1.0,
              "vel": 105
            },
            {
              "note": "F3",
              "pitch": 65,
              "beat": 4.0,
              "dur": 1.0,
              "vel": 105
            },
            {
              "note": "C#1",
              "pitch": 37,
              "beat": 4.01,
              "dur": 1.0,
              "vel": 105
            },
            {
              "note": "G#2",
              "pitch": 56,
              "beat": 5.48,
              "dur": 1.0,
              "vel": 105
            },
            {
              "note": "C#2",
              "pitch": 49,
              "beat": 5.5,
              "dur": 1.0,
              "vel": 105
            },
            {
              "note": "C#3",
              "pitch": 61,
              "beat": 5.5,
              "dur": 1.0,
              "vel": 105
            },
            {
              "note": "F3",
              "pitch": 65,
              "beat": 5.5,
              "dur": 1.0,
              "vel": 105
            },
            {
              "note": "C#1",
              "pitch": 37,
              "beat": 5.51,
              "dur": 1.0,
              "vel": 105
            },
            {
              "note": "A#0",
              "pitch": 34,
              "beat": 8.0,
              "dur": 1.0,
              "vel": 105
            },
            {
              "note": "A#1",
              "pitch": 46,
              "beat": 8.0,
              "dur": 1.0,
              "vel": 105
            },
            {
              "note": "F2",
              "pitch": 53,
              "beat": 8.0,
              "dur": 1.0,
              "vel": 105
            },
            {
              "note": "A#2",
              "pitch": 58,
              "beat": 8.0,
              "dur": 1.0,
              "vel": 105
            },
            {
              "note": "C#3",
              "pitch": 61,
              "beat": 8.0,
              "dur": 1.0,
              "vel": 105
            },
            {
              "note": "A#0",
              "pitch": 34,
              "beat": 9.5,
              "dur": 1.0,
              "vel": 105
            },
            {
              "note": "A#1",
              "pitch": 46,
              "beat": 9.5,
              "dur": 1.0,
              "vel": 105
            },
            {
              "note": "F2",
              "pitch": 53,
              "beat": 9.5,
              "dur": 1.0,
              "vel": 105
            },
            {
              "note": "A#2",
              "pitch": 58,
              "beat": 9.5,
              "dur": 1.0,
              "vel": 105
            },
            {
              "note": "C#3",
              "pitch": 61,
              "beat": 9.5,
              "dur": 1.0,
              "vel": 105
            },
            {
              "note": "G#2",
              "pitch": 56,
              "beat": 11.98,
              "dur": 1.0,
              "vel": 105
            },
            {
              "note": "C#1",
              "pitch": 37,
              "beat": 12.0,
              "dur": 1.0,
              "vel": 105
            },
            {
              "note": "C#2",
              "pitch": 49,
              "beat": 12.0,
              "dur": 1.0,
              "vel": 105
            },
            {
              "note": "C#3",
              "pitch": 61,
              "beat": 12.0,
              "dur": 1.0,
              "vel": 105
            },
            {
              "note": "F3",
              "pitch": 65,
              "beat": 12.0,
              "dur": 1.0,
              "vel": 105
            },
            {
              "note": "G#2",
              "pitch": 56,
              "beat": 13.48,
              "dur": 1.0,
              "vel": 105
            },
            {
              "note": "C#1",
              "pitch": 37,
              "beat": 13.5,
              "dur": 1.0,
              "vel": 105
            },
            {
              "note": "C#2",
              "pitch": 49,
              "beat": 13.5,
              "dur": 1.0,
              "vel": 105
            },
            {
              "note": "C#3",
              "pitch": 61,
              "beat": 13.5,
              "dur": 1.0,
              "vel": 105
            },
            {
              "note": "F3",
              "pitch": 65,
              "beat": 13.5,
              "dur": 1.0,
              "vel": 105
            },
            {
              "note": "G#2",
              "pitch": 56,
              "beat": 14.48,
              "dur": 1.5,
              "vel": 105
            },
            {
              "note": "C#1",
              "pitch": 37,
              "beat": 14.5,
              "dur": 1.5,
              "vel": 105
            },
            {
              "note": "C#2",
              "pitch": 49,
              "beat": 14.5,
              "dur": 1.5,
              "vel": 105
            },
            {
              "note": "C#3",
              "pitch": 61,
              "beat": 14.5,
              "dur": 1.5,
              "vel": 105
            },
            {
              "note": "F3",
              "pitch": 65,
              "beat": 14.5,
              "dur": 1.5,
              "vel": 105
            }
          ]
        },
        {
          "bar_start": 129.0,
          "bar_end": 129.25,
          "name": "",
          "notes": [
            {
              "note": "F#1",
              "pitch": 42,
              "beat": 0.0,
              "dur": 1.0,
              "vel": 105
            },
            {
              "note": "F#2",
              "pitch": 54,
              "beat": 0.0,
              "dur": 1.0,
              "vel": 105
            },
            {
              "note": "A#2",
              "pitch": 58,
              "beat": 0.0,
              "dur": 1.0,
              "vel": 105
            },
            {
              "note": "C#3",
              "pitch": 61,
              "beat": 0.0,
              "dur": 1.0,
              "vel": 105
            },
            {
              "note": "F3",
              "pitch": 65,
              "beat": 0.0,
              "dur": 1.0,
              "vel": 105
            },
            {
              "note": "F#1",
              "pitch": 42,
              "beat": 1.5,
              "dur": 1.0,
              "vel": 105
            },
            {
              "note": "F#2",
              "pitch": 54,
              "beat": 1.5,
              "dur": 1.0,
              "vel": 105
            },
            {
              "note": "A#2",
              "pitch": 58,
              "beat": 1.5,
              "dur": 1.0,
              "vel": 105
            },
            {
              "note": "C#3",
              "pitch": 61,
              "beat": 1.5,
              "dur": 1.0,
              "vel": 105
            },
            {
              "note": "F3",
              "pitch": 65,
              "beat": 1.5,
              "dur": 1.0,
              "vel": 105
            },
            {
              "note": "G#2",
              "pitch": 56,
              "beat": 3.98,
              "dur": 1.0,
              "vel": 105
            },
            {
              "note": "C#2",
              "pitch": 49,
              "beat": 4.0,
              "dur": 1.0,
              "vel": 105
            },
            {
              "note": "C#3",
              "pitch": 61,
              "beat": 4.0,
              "dur": 1.0,
              "vel": 105
            },
            {
              "note": "F3",
              "pitch": 65,
              "beat": 4.0,
              "dur": 1.0,
              "vel": 105
            },
            {
              "note": "C#1",
              "pitch": 37,
              "beat": 4.01,
              "dur": 1.0,
              "vel": 105
            },
            {
              "note": "G#2",
              "pitch": 56,
              "beat": 5.48,
              "dur": 1.0,
              "vel": 105
            },
            {
              "note": "C#2",
              "pitch": 49,
              "beat": 5.5,
              "dur": 1.0,
              "vel": 105
            },
            {
              "note": "C#3",
              "pitch": 61,
              "beat": 5.5,
              "dur": 1.0,
              "vel": 105
            },
            {
              "note": "F3",
              "pitch": 65,
              "beat": 5.5,
              "dur": 1.0,
              "vel": 105
            },
            {
              "note": "C#1",
              "pitch": 37,
              "beat": 5.51,
              "dur": 1.0,
              "vel": 105
            },
            {
              "note": "A#0",
              "pitch": 34,
              "beat": 8.0,
              "dur": 1.0,
              "vel": 105
            },
            {
              "note": "A#1",
              "pitch": 46,
              "beat": 8.0,
              "dur": 1.0,
              "vel": 105
            },
            {
              "note": "F2",
              "pitch": 53,
              "beat": 8.0,
              "dur": 1.0,
              "vel": 105
            },
            {
              "note": "A#2",
              "pitch": 58,
              "beat": 8.0,
              "dur": 1.0,
              "vel": 105
            },
            {
              "note": "C#3",
              "pitch": 61,
              "beat": 8.0,
              "dur": 1.0,
              "vel": 105
            },
            {
              "note": "A#0",
              "pitch": 34,
              "beat": 9.5,
              "dur": 1.0,
              "vel": 105
            },
            {
              "note": "A#1",
              "pitch": 46,
              "beat": 9.5,
              "dur": 1.0,
              "vel": 105
            },
            {
              "note": "F2",
              "pitch": 53,
              "beat": 9.5,
              "dur": 1.0,
              "vel": 105
            },
            {
              "note": "A#2",
              "pitch": 58,
              "beat": 9.5,
              "dur": 1.0,
              "vel": 105
            },
            {
              "note": "C#3",
              "pitch": 61,
              "beat": 9.5,
              "dur": 1.0,
              "vel": 105
            },
            {
              "note": "G#2",
              "pitch": 56,
              "beat": 11.98,
              "dur": 1.0,
              "vel": 105
            },
            {
              "note": "C#1",
              "pitch": 37,
              "beat": 12.0,
              "dur": 1.0,
              "vel": 105
            },
            {
              "note": "C#2",
              "pitch": 49,
              "beat": 12.0,
              "dur": 1.0,
              "vel": 105
            },
            {
              "note": "C#3",
              "pitch": 61,
              "beat": 12.0,
              "dur": 1.0,
              "vel": 105
            },
            {
              "note": "F3",
              "pitch": 65,
              "beat": 12.0,
              "dur": 1.0,
              "vel": 105
            },
            {
              "note": "G#2",
              "pitch": 56,
              "beat": 13.48,
              "dur": 1.0,
              "vel": 105
            },
            {
              "note": "C#1",
              "pitch": 37,
              "beat": 13.5,
              "dur": 1.0,
              "vel": 105
            },
            {
              "note": "C#2",
              "pitch": 49,
              "beat": 13.5,
              "dur": 1.0,
              "vel": 105
            },
            {
              "note": "C#3",
              "pitch": 61,
              "beat": 13.5,
              "dur": 1.0,
              "vel": 105
            },
            {
              "note": "F3",
              "pitch": 65,
              "beat": 13.5,
              "dur": 1.0,
              "vel": 105
            },
            {
              "note": "G#2",
              "pitch": 56,
              "beat": 14.48,
              "dur": 1.5,
              "vel": 105
            },
            {
              "note": "C#1",
              "pitch": 37,
              "beat": 14.5,
              "dur": 1.5,
              "vel": 105
            },
            {
              "note": "C#2",
              "pitch": 49,
              "beat": 14.5,
              "dur": 1.5,
              "vel": 105
            },
            {
              "note": "C#3",
              "pitch": 61,
              "beat": 14.5,
              "dur": 1.5,
              "vel": 105
            },
            {
              "note": "F3",
              "pitch": 65,
              "beat": 14.5,
              "dur": 1.5,
              "vel": 105
            }
          ]
        },
        {
          "bar_start": 130.0,
          "bar_end": 130.25,
          "name": "",
          "notes": [
            {
              "note": "F#1",
              "pitch": 42,
              "beat": 0.0,
              "dur": 1.0,
              "vel": 105
            },
            {
              "note": "F#2",
              "pitch": 54,
              "beat": 0.0,
              "dur": 1.0,
              "vel": 105
            },
            {
              "note": "A#2",
              "pitch": 58,
              "beat": 0.0,
              "dur": 1.0,
              "vel": 105
            },
            {
              "note": "C#3",
              "pitch": 61,
              "beat": 0.0,
              "dur": 1.0,
              "vel": 105
            },
            {
              "note": "F3",
              "pitch": 65,
              "beat": 0.0,
              "dur": 1.0,
              "vel": 105
            },
            {
              "note": "F#1",
              "pitch": 42,
              "beat": 1.5,
              "dur": 1.0,
              "vel": 105
            },
            {
              "note": "F#2",
              "pitch": 54,
              "beat": 1.5,
              "dur": 1.0,
              "vel": 105
            },
            {
              "note": "A#2",
              "pitch": 58,
              "beat": 1.5,
              "dur": 1.0,
              "vel": 105
            },
            {
              "note": "C#3",
              "pitch": 61,
              "beat": 1.5,
              "dur": 1.0,
              "vel": 105
            },
            {
              "note": "F3",
              "pitch": 65,
              "beat": 1.5,
              "dur": 1.0,
              "vel": 105
            },
            {
              "note": "G#2",
              "pitch": 56,
              "beat": 3.98,
              "dur": 1.0,
              "vel": 105
            },
            {
              "note": "C#2",
              "pitch": 49,
              "beat": 4.0,
              "dur": 1.0,
              "vel": 105
            },
            {
              "note": "C#3",
              "pitch": 61,
              "beat": 4.0,
              "dur": 1.0,
              "vel": 105
            },
            {
              "note": "F3",
              "pitch": 65,
              "beat": 4.0,
              "dur": 1.0,
              "vel": 105
            },
            {
              "note": "C#1",
              "pitch": 37,
              "beat": 4.01,
              "dur": 1.0,
              "vel": 105
            },
            {
              "note": "G#2",
              "pitch": 56,
              "beat": 5.48,
              "dur": 1.0,
              "vel": 105
            },
            {
              "note": "C#2",
              "pitch": 49,
              "beat": 5.5,
              "dur": 1.0,
              "vel": 105
            },
            {
              "note": "C#3",
              "pitch": 61,
              "beat": 5.5,
              "dur": 1.0,
              "vel": 105
            },
            {
              "note": "F3",
              "pitch": 65,
              "beat": 5.5,
              "dur": 1.0,
              "vel": 105
            },
            {
              "note": "C#1",
              "pitch": 37,
              "beat": 5.51,
              "dur": 1.0,
              "vel": 105
            },
            {
              "note": "A#0",
              "pitch": 34,
              "beat": 8.0,
              "dur": 1.0,
              "vel": 105
            },
            {
              "note": "A#1",
              "pitch": 46,
              "beat": 8.0,
              "dur": 1.0,
              "vel": 105
            },
            {
              "note": "F2",
              "pitch": 53,
              "beat": 8.0,
              "dur": 1.0,
              "vel": 105
            },
            {
              "note": "A#2",
              "pitch": 58,
              "beat": 8.0,
              "dur": 1.0,
              "vel": 105
            },
            {
              "note": "C#3",
              "pitch": 61,
              "beat": 8.0,
              "dur": 1.0,
              "vel": 105
            },
            {
              "note": "A#0",
              "pitch": 34,
              "beat": 9.5,
              "dur": 1.0,
              "vel": 105
            },
            {
              "note": "A#1",
              "pitch": 46,
              "beat": 9.5,
              "dur": 1.0,
              "vel": 105
            },
            {
              "note": "F2",
              "pitch": 53,
              "beat": 9.5,
              "dur": 1.0,
              "vel": 105
            },
            {
              "note": "A#2",
              "pitch": 58,
              "beat": 9.5,
              "dur": 1.0,
              "vel": 105
            },
            {
              "note": "C#3",
              "pitch": 61,
              "beat": 9.5,
              "dur": 1.0,
              "vel": 105
            },
            {
              "note": "G#2",
              "pitch": 56,
              "beat": 11.98,
              "dur": 1.0,
              "vel": 105
            },
            {
              "note": "C#1",
              "pitch": 37,
              "beat": 12.0,
              "dur": 1.0,
              "vel": 105
            },
            {
              "note": "C#2",
              "pitch": 49,
              "beat": 12.0,
              "dur": 1.0,
              "vel": 105
            },
            {
              "note": "C#3",
              "pitch": 61,
              "beat": 12.0,
              "dur": 1.0,
              "vel": 105
            },
            {
              "note": "F3",
              "pitch": 65,
              "beat": 12.0,
              "dur": 1.0,
              "vel": 105
            },
            {
              "note": "G#2",
              "pitch": 56,
              "beat": 13.48,
              "dur": 1.0,
              "vel": 105
            },
            {
              "note": "C#1",
              "pitch": 37,
              "beat": 13.5,
              "dur": 1.0,
              "vel": 105
            },
            {
              "note": "C#2",
              "pitch": 49,
              "beat": 13.5,
              "dur": 1.0,
              "vel": 105
            },
            {
              "note": "C#3",
              "pitch": 61,
              "beat": 13.5,
              "dur": 1.0,
              "vel": 105
            },
            {
              "note": "F3",
              "pitch": 65,
              "beat": 13.5,
              "dur": 1.0,
              "vel": 105
            },
            {
              "note": "G#2",
              "pitch": 56,
              "beat": 14.48,
              "dur": 1.5,
              "vel": 105
            },
            {
              "note": "C#1",
              "pitch": 37,
              "beat": 14.5,
              "dur": 1.5,
              "vel": 105
            },
            {
              "note": "C#2",
              "pitch": 49,
              "beat": 14.5,
              "dur": 1.5,
              "vel": 105
            },
            {
              "note": "C#3",
              "pitch": 61,
              "beat": 14.5,
              "dur": 1.5,
              "vel": 105
            },
            {
              "note": "F3",
              "pitch": 65,
              "beat": 14.5,
              "dur": 1.5,
              "vel": 105
            }
          ]
        },
        {
          "bar_start": 131.0,
          "bar_end": 131.25,
          "name": "",
          "notes": [
            {
              "note": "F#1",
              "pitch": 42,
              "beat": 0.0,
              "dur": 1.0,
              "vel": 105
            },
            {
              "note": "F#2",
              "pitch": 54,
              "beat": 0.0,
              "dur": 1.0,
              "vel": 105
            },
            {
              "note": "A#2",
              "pitch": 58,
              "beat": 0.0,
              "dur": 1.0,
              "vel": 105
            },
            {
              "note": "C#3",
              "pitch": 61,
              "beat": 0.0,
              "dur": 1.0,
              "vel": 105
            },
            {
              "note": "F3",
              "pitch": 65,
              "beat": 0.0,
              "dur": 1.0,
              "vel": 105
            },
            {
              "note": "F#1",
              "pitch": 42,
              "beat": 1.5,
              "dur": 1.0,
              "vel": 105
            },
            {
              "note": "F#2",
              "pitch": 54,
              "beat": 1.5,
              "dur": 1.0,
              "vel": 105
            },
            {
              "note": "A#2",
              "pitch": 58,
              "beat": 1.5,
              "dur": 1.0,
              "vel": 105
            },
            {
              "note": "C#3",
              "pitch": 61,
              "beat": 1.5,
              "dur": 1.0,
              "vel": 105
            },
            {
              "note": "F3",
              "pitch": 65,
              "beat": 1.5,
              "dur": 1.0,
              "vel": 105
            },
            {
              "note": "G#2",
              "pitch": 56,
              "beat": 3.98,
              "dur": 1.0,
              "vel": 105
            },
            {
              "note": "C#2",
              "pitch": 49,
              "beat": 4.0,
              "dur": 1.0,
              "vel": 105
            },
            {
              "note": "C#3",
              "pitch": 61,
              "beat": 4.0,
              "dur": 1.0,
              "vel": 105
            },
            {
              "note": "F3",
              "pitch": 65,
              "beat": 4.0,
              "dur": 1.0,
              "vel": 105
            },
            {
              "note": "C#1",
              "pitch": 37,
              "beat": 4.01,
              "dur": 1.0,
              "vel": 105
            },
            {
              "note": "G#2",
              "pitch": 56,
              "beat": 5.48,
              "dur": 1.0,
              "vel": 105
            },
            {
              "note": "C#2",
              "pitch": 49,
              "beat": 5.5,
              "dur": 1.0,
              "vel": 105
            },
            {
              "note": "C#3",
              "pitch": 61,
              "beat": 5.5,
              "dur": 1.0,
              "vel": 105
            },
            {
              "note": "F3",
              "pitch": 65,
              "beat": 5.5,
              "dur": 1.0,
              "vel": 105
            },
            {
              "note": "C#1",
              "pitch": 37,
              "beat": 5.51,
              "dur": 1.0,
              "vel": 105
            },
            {
              "note": "A#0",
              "pitch": 34,
              "beat": 8.0,
              "dur": 1.0,
              "vel": 105
            },
            {
              "note": "A#1",
              "pitch": 46,
              "beat": 8.0,
              "dur": 1.0,
              "vel": 105
            },
            {
              "note": "F2",
              "pitch": 53,
              "beat": 8.0,
              "dur": 1.0,
              "vel": 105
            },
            {
              "note": "A#2",
              "pitch": 58,
              "beat": 8.0,
              "dur": 1.0,
              "vel": 105
            },
            {
              "note": "C#3",
              "pitch": 61,
              "beat": 8.0,
              "dur": 1.0,
              "vel": 105
            },
            {
              "note": "A#0",
              "pitch": 34,
              "beat": 9.5,
              "dur": 1.0,
              "vel": 105
            },
            {
              "note": "A#1",
              "pitch": 46,
              "beat": 9.5,
              "dur": 1.0,
              "vel": 105
            },
            {
              "note": "F2",
              "pitch": 53,
              "beat": 9.5,
              "dur": 1.0,
              "vel": 105
            },
            {
              "note": "A#2",
              "pitch": 58,
              "beat": 9.5,
              "dur": 1.0,
              "vel": 105
            },
            {
              "note": "C#3",
              "pitch": 61,
              "beat": 9.5,
              "dur": 1.0,
              "vel": 105
            },
            {
              "note": "G#2",
              "pitch": 56,
              "beat": 11.98,
              "dur": 1.0,
              "vel": 105
            },
            {
              "note": "C#1",
              "pitch": 37,
              "beat": 12.0,
              "dur": 1.0,
              "vel": 105
            },
            {
              "note": "C#2",
              "pitch": 49,
              "beat": 12.0,
              "dur": 1.0,
              "vel": 105
            },
            {
              "note": "C#3",
              "pitch": 61,
              "beat": 12.0,
              "dur": 1.0,
              "vel": 105
            },
            {
              "note": "F3",
              "pitch": 65,
              "beat": 12.0,
              "dur": 1.0,
              "vel": 105
            },
            {
              "note": "G#2",
              "pitch": 56,
              "beat": 13.48,
              "dur": 1.0,
              "vel": 105
            },
            {
              "note": "C#1",
              "pitch": 37,
              "beat": 13.5,
              "dur": 1.0,
              "vel": 105
            },
            {
              "note": "C#2",
              "pitch": 49,
              "beat": 13.5,
              "dur": 1.0,
              "vel": 105
            },
            {
              "note": "C#3",
              "pitch": 61,
              "beat": 13.5,
              "dur": 1.0,
              "vel": 105
            },
            {
              "note": "F3",
              "pitch": 65,
              "beat": 13.5,
              "dur": 1.0,
              "vel": 105
            },
            {
              "note": "G#2",
              "pitch": 56,
              "beat": 14.48,
              "dur": 1.5,
              "vel": 105
            },
            {
              "note": "C#1",
              "pitch": 37,
              "beat": 14.5,
              "dur": 1.5,
              "vel": 105
            },
            {
              "note": "C#2",
              "pitch": 49,
              "beat": 14.5,
              "dur": 1.5,
              "vel": 105
            },
            {
              "note": "C#3",
              "pitch": 61,
              "beat": 14.5,
              "dur": 1.5,
              "vel": 105
            },
            {
              "note": "F3",
              "pitch": 65,
              "beat": 14.5,
              "dur": 1.5,
              "vel": 105
            }
          ]
        },
        {
          "bar_start": 132.0,
          "bar_end": 132.25,
          "name": "",
          "notes": [
            {
              "note": "F#1",
              "pitch": 42,
              "beat": 0.0,
              "dur": 1.0,
              "vel": 105
            },
            {
              "note": "F#2",
              "pitch": 54,
              "beat": 0.0,
              "dur": 1.0,
              "vel": 105
            },
            {
              "note": "A#2",
              "pitch": 58,
              "beat": 0.0,
              "dur": 1.0,
              "vel": 105
            },
            {
              "note": "C#3",
              "pitch": 61,
              "beat": 0.0,
              "dur": 1.0,
              "vel": 105
            },
            {
              "note": "F3",
              "pitch": 65,
              "beat": 0.0,
              "dur": 1.0,
              "vel": 105
            },
            {
              "note": "F#1",
              "pitch": 42,
              "beat": 1.5,
              "dur": 1.0,
              "vel": 105
            },
            {
              "note": "F#2",
              "pitch": 54,
              "beat": 1.5,
              "dur": 1.0,
              "vel": 105
            },
            {
              "note": "A#2",
              "pitch": 58,
              "beat": 1.5,
              "dur": 1.0,
              "vel": 105
            },
            {
              "note": "C#3",
              "pitch": 61,
              "beat": 1.5,
              "dur": 1.0,
              "vel": 105
            },
            {
              "note": "F3",
              "pitch": 65,
              "beat": 1.5,
              "dur": 1.0,
              "vel": 105
            },
            {
              "note": "G#2",
              "pitch": 56,
              "beat": 3.98,
              "dur": 1.0,
              "vel": 105
            },
            {
              "note": "C#2",
              "pitch": 49,
              "beat": 4.0,
              "dur": 1.0,
              "vel": 105
            },
            {
              "note": "C#3",
              "pitch": 61,
              "beat": 4.0,
              "dur": 1.0,
              "vel": 105
            },
            {
              "note": "F3",
              "pitch": 65,
              "beat": 4.0,
              "dur": 1.0,
              "vel": 105
            },
            {
              "note": "C#1",
              "pitch": 37,
              "beat": 4.01,
              "dur": 1.0,
              "vel": 105
            },
            {
              "note": "G#2",
              "pitch": 56,
              "beat": 5.48,
              "dur": 1.0,
              "vel": 105
            },
            {
              "note": "C#2",
              "pitch": 49,
              "beat": 5.5,
              "dur": 1.0,
              "vel": 105
            },
            {
              "note": "C#3",
              "pitch": 61,
              "beat": 5.5,
              "dur": 1.0,
              "vel": 105
            },
            {
              "note": "F3",
              "pitch": 65,
              "beat": 5.5,
              "dur": 1.0,
              "vel": 105
            },
            {
              "note": "C#1",
              "pitch": 37,
              "beat": 5.51,
              "dur": 1.0,
              "vel": 105
            },
            {
              "note": "A#0",
              "pitch": 34,
              "beat": 8.0,
              "dur": 1.0,
              "vel": 105
            },
            {
              "note": "A#1",
              "pitch": 46,
              "beat": 8.0,
              "dur": 1.0,
              "vel": 105
            },
            {
              "note": "F2",
              "pitch": 53,
              "beat": 8.0,
              "dur": 1.0,
              "vel": 105
            },
            {
              "note": "A#2",
              "pitch": 58,
              "beat": 8.0,
              "dur": 1.0,
              "vel": 105
            },
            {
              "note": "C#3",
              "pitch": 61,
              "beat": 8.0,
              "dur": 1.0,
              "vel": 105
            },
            {
              "note": "A#0",
              "pitch": 34,
              "beat": 9.5,
              "dur": 1.0,
              "vel": 105
            },
            {
              "note": "A#1",
              "pitch": 46,
              "beat": 9.5,
              "dur": 1.0,
              "vel": 105
            },
            {
              "note": "F2",
              "pitch": 53,
              "beat": 9.5,
              "dur": 1.0,
              "vel": 105
            },
            {
              "note": "A#2",
              "pitch": 58,
              "beat": 9.5,
              "dur": 1.0,
              "vel": 105
            },
            {
              "note": "C#3",
              "pitch": 61,
              "beat": 9.5,
              "dur": 1.0,
              "vel": 105
            },
            {
              "note": "G#2",
              "pitch": 56,
              "beat": 11.98,
              "dur": 1.0,
              "vel": 105
            },
            {
              "note": "C#1",
              "pitch": 37,
              "beat": 12.0,
              "dur": 1.0,
              "vel": 105
            },
            {
              "note": "C#2",
              "pitch": 49,
              "beat": 12.0,
              "dur": 1.0,
              "vel": 105
            },
            {
              "note": "C#3",
              "pitch": 61,
              "beat": 12.0,
              "dur": 1.0,
              "vel": 105
            },
            {
              "note": "F3",
              "pitch": 65,
              "beat": 12.0,
              "dur": 1.0,
              "vel": 105
            },
            {
              "note": "G#2",
              "pitch": 56,
              "beat": 13.48,
              "dur": 1.0,
              "vel": 105
            },
            {
              "note": "C#1",
              "pitch": 37,
              "beat": 13.5,
              "dur": 1.0,
              "vel": 105
            },
            {
              "note": "C#2",
              "pitch": 49,
              "beat": 13.5,
              "dur": 1.0,
              "vel": 105
            },
            {
              "note": "C#3",
              "pitch": 61,
              "beat": 13.5,
              "dur": 1.0,
              "vel": 105
            },
            {
              "note": "F3",
              "pitch": 65,
              "beat": 13.5,
              "dur": 1.0,
              "vel": 105
            },
            {
              "note": "G#2",
              "pitch": 56,
              "beat": 14.48,
              "dur": 1.5,
              "vel": 105
            },
            {
              "note": "C#1",
              "pitch": 37,
              "beat": 14.5,
              "dur": 1.5,
              "vel": 105
            },
            {
              "note": "C#2",
              "pitch": 49,
              "beat": 14.5,
              "dur": 1.5,
              "vel": 105
            },
            {
              "note": "C#3",
              "pitch": 61,
              "beat": 14.5,
              "dur": 1.5,
              "vel": 105
            },
            {
              "note": "F3",
              "pitch": 65,
              "beat": 14.5,
              "dur": 1.5,
              "vel": 105
            }
          ]
        },
        {
          "bar_start": 133.0,
          "bar_end": 133.25,
          "name": "",
          "notes": [
            {
              "note": "F#1",
              "pitch": 42,
              "beat": 0.0,
              "dur": 1.0,
              "vel": 105
            },
            {
              "note": "F#2",
              "pitch": 54,
              "beat": 0.0,
              "dur": 1.0,
              "vel": 105
            },
            {
              "note": "A#2",
              "pitch": 58,
              "beat": 0.0,
              "dur": 1.0,
              "vel": 105
            },
            {
              "note": "C#3",
              "pitch": 61,
              "beat": 0.0,
              "dur": 1.0,
              "vel": 105
            },
            {
              "note": "F3",
              "pitch": 65,
              "beat": 0.0,
              "dur": 1.0,
              "vel": 105
            },
            {
              "note": "F#1",
              "pitch": 42,
              "beat": 1.5,
              "dur": 1.0,
              "vel": 105
            },
            {
              "note": "F#2",
              "pitch": 54,
              "beat": 1.5,
              "dur": 1.0,
              "vel": 105
            },
            {
              "note": "A#2",
              "pitch": 58,
              "beat": 1.5,
              "dur": 1.0,
              "vel": 105
            },
            {
              "note": "C#3",
              "pitch": 61,
              "beat": 1.5,
              "dur": 1.0,
              "vel": 105
            },
            {
              "note": "F3",
              "pitch": 65,
              "beat": 1.5,
              "dur": 1.0,
              "vel": 105
            },
            {
              "note": "G#2",
              "pitch": 56,
              "beat": 3.98,
              "dur": 1.0,
              "vel": 105
            },
            {
              "note": "C#2",
              "pitch": 49,
              "beat": 4.0,
              "dur": 1.0,
              "vel": 105
            },
            {
              "note": "C#3",
              "pitch": 61,
              "beat": 4.0,
              "dur": 1.0,
              "vel": 105
            },
            {
              "note": "F3",
              "pitch": 65,
              "beat": 4.0,
              "dur": 1.0,
              "vel": 105
            },
            {
              "note": "C#1",
              "pitch": 37,
              "beat": 4.01,
              "dur": 1.0,
              "vel": 105
            },
            {
              "note": "G#2",
              "pitch": 56,
              "beat": 5.48,
              "dur": 1.0,
              "vel": 105
            },
            {
              "note": "C#2",
              "pitch": 49,
              "beat": 5.5,
              "dur": 1.0,
              "vel": 105
            },
            {
              "note": "C#3",
              "pitch": 61,
              "beat": 5.5,
              "dur": 1.0,
              "vel": 105
            },
            {
              "note": "F3",
              "pitch": 65,
              "beat": 5.5,
              "dur": 1.0,
              "vel": 105
            },
            {
              "note": "C#1",
              "pitch": 37,
              "beat": 5.51,
              "dur": 1.0,
              "vel": 105
            },
            {
              "note": "A#0",
              "pitch": 34,
              "beat": 8.0,
              "dur": 1.0,
              "vel": 105
            },
            {
              "note": "A#1",
              "pitch": 46,
              "beat": 8.0,
              "dur": 1.0,
              "vel": 105
            },
            {
              "note": "F2",
              "pitch": 53,
              "beat": 8.0,
              "dur": 1.0,
              "vel": 105
            },
            {
              "note": "A#2",
              "pitch": 58,
              "beat": 8.0,
              "dur": 1.0,
              "vel": 105
            },
            {
              "note": "C#3",
              "pitch": 61,
              "beat": 8.0,
              "dur": 1.0,
              "vel": 105
            },
            {
              "note": "A#0",
              "pitch": 34,
              "beat": 9.5,
              "dur": 1.0,
              "vel": 105
            },
            {
              "note": "A#1",
              "pitch": 46,
              "beat": 9.5,
              "dur": 1.0,
              "vel": 105
            },
            {
              "note": "F2",
              "pitch": 53,
              "beat": 9.5,
              "dur": 1.0,
              "vel": 105
            },
            {
              "note": "A#2",
              "pitch": 58,
              "beat": 9.5,
              "dur": 1.0,
              "vel": 105
            },
            {
              "note": "C#3",
              "pitch": 61,
              "beat": 9.5,
              "dur": 1.0,
              "vel": 105
            },
            {
              "note": "G#2",
              "pitch": 56,
              "beat": 11.98,
              "dur": 1.0,
              "vel": 105
            },
            {
              "note": "C#1",
              "pitch": 37,
              "beat": 12.0,
              "dur": 1.0,
              "vel": 105
            },
            {
              "note": "C#2",
              "pitch": 49,
              "beat": 12.0,
              "dur": 1.0,
              "vel": 105
            },
            {
              "note": "C#3",
              "pitch": 61,
              "beat": 12.0,
              "dur": 1.0,
              "vel": 105
            },
            {
              "note": "F3",
              "pitch": 65,
              "beat": 12.0,
              "dur": 1.0,
              "vel": 105
            },
            {
              "note": "G#2",
              "pitch": 56,
              "beat": 13.48,
              "dur": 1.0,
              "vel": 105
            },
            {
              "note": "C#1",
              "pitch": 37,
              "beat": 13.5,
              "dur": 1.0,
              "vel": 105
            },
            {
              "note": "C#2",
              "pitch": 49,
              "beat": 13.5,
              "dur": 1.0,
              "vel": 105
            },
            {
              "note": "C#3",
              "pitch": 61,
              "beat": 13.5,
              "dur": 1.0,
              "vel": 105
            },
            {
              "note": "F3",
              "pitch": 65,
              "beat": 13.5,
              "dur": 1.0,
              "vel": 105
            },
            {
              "note": "G#2",
              "pitch": 56,
              "beat": 14.48,
              "dur": 1.5,
              "vel": 105
            },
            {
              "note": "C#1",
              "pitch": 37,
              "beat": 14.5,
              "dur": 1.5,
              "vel": 105
            },
            {
              "note": "C#2",
              "pitch": 49,
              "beat": 14.5,
              "dur": 1.5,
              "vel": 105
            },
            {
              "note": "C#3",
              "pitch": 61,
              "beat": 14.5,
              "dur": 1.5,
              "vel": 105
            },
            {
              "note": "F3",
              "pitch": 65,
              "beat": 14.5,
              "dur": 1.5,
              "vel": 105
            }
          ]
        },
        {
          "bar_start": 136.0,
          "bar_end": 159.0,
          "name": "",
          "notes": [
            {
              "note": "F#1",
              "pitch": 42,
              "beat": 0.0,
              "dur": 1.0,
              "vel": 105
            },
            {
              "note": "F#2",
              "pitch": 54,
              "beat": 0.0,
              "dur": 1.0,
              "vel": 105
            },
            {
              "note": "A#2",
              "pitch": 58,
              "beat": 0.0,
              "dur": 1.0,
              "vel": 105
            },
            {
              "note": "C#3",
              "pitch": 61,
              "beat": 0.0,
              "dur": 1.0,
              "vel": 105
            },
            {
              "note": "F3",
              "pitch": 65,
              "beat": 0.0,
              "dur": 1.0,
              "vel": 105
            },
            {
              "note": "F#1",
              "pitch": 42,
              "beat": 1.5,
              "dur": 1.0,
              "vel": 105
            },
            {
              "note": "F#2",
              "pitch": 54,
              "beat": 1.5,
              "dur": 1.0,
              "vel": 105
            },
            {
              "note": "A#2",
              "pitch": 58,
              "beat": 1.5,
              "dur": 1.0,
              "vel": 105
            },
            {
              "note": "C#3",
              "pitch": 61,
              "beat": 1.5,
              "dur": 1.0,
              "vel": 105
            },
            {
              "note": "F3",
              "pitch": 65,
              "beat": 1.5,
              "dur": 1.0,
              "vel": 105
            },
            {
              "note": "G#2",
              "pitch": 56,
              "beat": 3.98,
              "dur": 1.0,
              "vel": 105
            },
            {
              "note": "C#2",
              "pitch": 49,
              "beat": 4.0,
              "dur": 1.0,
              "vel": 105
            },
            {
              "note": "C#3",
              "pitch": 61,
              "beat": 4.0,
              "dur": 1.0,
              "vel": 105
            },
            {
              "note": "F3",
              "pitch": 65,
              "beat": 4.0,
              "dur": 1.0,
              "vel": 105
            },
            {
              "note": "C#1",
              "pitch": 37,
              "beat": 4.01,
              "dur": 1.0,
              "vel": 105
            },
            {
              "note": "G#2",
              "pitch": 56,
              "beat": 5.48,
              "dur": 1.0,
              "vel": 105
            },
            {
              "note": "C#2",
              "pitch": 49,
              "beat": 5.5,
              "dur": 1.0,
              "vel": 105
            },
            {
              "note": "C#3",
              "pitch": 61,
              "beat": 5.5,
              "dur": 1.0,
              "vel": 105
            },
            {
              "note": "F3",
              "pitch": 65,
              "beat": 5.5,
              "dur": 1.0,
              "vel": 105
            },
            {
              "note": "C#1",
              "pitch": 37,
              "beat": 5.51,
              "dur": 1.0,
              "vel": 105
            },
            {
              "note": "A#0",
              "pitch": 34,
              "beat": 8.0,
              "dur": 1.0,
              "vel": 105
            },
            {
              "note": "A#1",
              "pitch": 46,
              "beat": 8.0,
              "dur": 1.0,
              "vel": 105
            },
            {
              "note": "F2",
              "pitch": 53,
              "beat": 8.0,
              "dur": 1.0,
              "vel": 105
            },
            {
              "note": "A#2",
              "pitch": 58,
              "beat": 8.0,
              "dur": 1.0,
              "vel": 105
            },
            {
              "note": "C#3",
              "pitch": 61,
              "beat": 8.0,
              "dur": 1.0,
              "vel": 105
            },
            {
              "note": "A#0",
              "pitch": 34,
              "beat": 9.5,
              "dur": 1.0,
              "vel": 105
            },
            {
              "note": "A#1",
              "pitch": 46,
              "beat": 9.5,
              "dur": 1.0,
              "vel": 105
            },
            {
              "note": "F2",
              "pitch": 53,
              "beat": 9.5,
              "dur": 1.0,
              "vel": 105
            },
            {
              "note": "A#2",
              "pitch": 58,
              "beat": 9.5,
              "dur": 1.0,
              "vel": 105
            },
            {
              "note": "C#3",
              "pitch": 61,
              "beat": 9.5,
              "dur": 1.0,
              "vel": 105
            },
            {
              "note": "G#2",
              "pitch": 56,
              "beat": 11.98,
              "dur": 1.0,
              "vel": 105
            },
            {
              "note": "C#1",
              "pitch": 37,
              "beat": 12.0,
              "dur": 1.0,
              "vel": 105
            },
            {
              "note": "C#2",
              "pitch": 49,
              "beat": 12.0,
              "dur": 1.0,
              "vel": 105
            },
            {
              "note": "C#3",
              "pitch": 61,
              "beat": 12.0,
              "dur": 1.0,
              "vel": 105
            },
            {
              "note": "F3",
              "pitch": 65,
              "beat": 12.0,
              "dur": 1.0,
              "vel": 105
            },
            {
              "note": "G#2",
              "pitch": 56,
              "beat": 13.48,
              "dur": 1.0,
              "vel": 105
            },
            {
              "note": "C#1",
              "pitch": 37,
              "beat": 13.5,
              "dur": 1.0,
              "vel": 105
            },
            {
              "note": "C#2",
              "pitch": 49,
              "beat": 13.5,
              "dur": 1.0,
              "vel": 105
            },
            {
              "note": "C#3",
              "pitch": 61,
              "beat": 13.5,
              "dur": 1.0,
              "vel": 105
            },
            {
              "note": "F3",
              "pitch": 65,
              "beat": 13.5,
              "dur": 1.0,
              "vel": 105
            },
            {
              "note": "G#2",
              "pitch": 56,
              "beat": 14.48,
              "dur": 1.5,
              "vel": 105
            },
            {
              "note": "C#1",
              "pitch": 37,
              "beat": 14.5,
              "dur": 1.5,
              "vel": 105
            },
            {
              "note": "C#2",
              "pitch": 49,
              "beat": 14.5,
              "dur": 1.5,
              "vel": 105
            },
            {
              "note": "C#3",
              "pitch": 61,
              "beat": 14.5,
              "dur": 1.5,
              "vel": 105
            },
            {
              "note": "F3",
              "pitch": 65,
              "beat": 14.5,
              "dur": 1.5,
              "vel": 105
            }
          ]
        }
      ],
      "automations": [],
      "children": []
    },
    "126": {
      "id": "126",
      "name": "main chord 2",
      "type": "MidiTrack",
      "group_id": "127",
      "devices": [
        {
          "type": "PluginDevice",
          "plugin": "Serum_x64",
          "preset": "",
          "vst_params": []
        },
        {
          "type": "Eq8",
          "bands": []
        },
        {
          "type": "MultibandDynamics",
          "DryWet": "1"
        }
      ],
      "clips": [
        {
          "bar_start": 56.0,
          "bar_end": 68.0,
          "name": "",
          "notes": [
            {
              "note": "F#1",
              "pitch": 42,
              "beat": 0.0,
              "dur": 1.0,
              "vel": 105
            },
            {
              "note": "F#2",
              "pitch": 54,
              "beat": 0.0,
              "dur": 1.0,
              "vel": 105
            },
            {
              "note": "A#2",
              "pitch": 58,
              "beat": 0.0,
              "dur": 1.0,
              "vel": 105
            },
            {
              "note": "C#3",
              "pitch": 61,
              "beat": 0.0,
              "dur": 1.0,
              "vel": 105
            },
            {
              "note": "F3",
              "pitch": 65,
              "beat": 0.0,
              "dur": 1.0,
              "vel": 105
            },
            {
              "note": "F#1",
              "pitch": 42,
              "beat": 1.5,
              "dur": 1.0,
              "vel": 105
            },
            {
              "note": "F#2",
              "pitch": 54,
              "beat": 1.5,
              "dur": 1.0,
              "vel": 105
            },
            {
              "note": "A#2",
              "pitch": 58,
              "beat": 1.5,
              "dur": 1.0,
              "vel": 105
            },
            {
              "note": "C#3",
              "pitch": 61,
              "beat": 1.5,
              "dur": 1.0,
              "vel": 105
            },
            {
              "note": "F3",
              "pitch": 65,
              "beat": 1.5,
              "dur": 1.0,
              "vel": 105
            },
            {
              "note": "G#2",
              "pitch": 56,
              "beat": 3.98,
              "dur": 1.0,
              "vel": 105
            },
            {
              "note": "C#2",
              "pitch": 49,
              "beat": 4.0,
              "dur": 1.0,
              "vel": 105
            },
            {
              "note": "C#3",
              "pitch": 61,
              "beat": 4.0,
              "dur": 1.0,
              "vel": 105
            },
            {
              "note": "F3",
              "pitch": 65,
              "beat": 4.0,
              "dur": 1.0,
              "vel": 105
            },
            {
              "note": "C#1",
              "pitch": 37,
              "beat": 4.01,
              "dur": 1.0,
              "vel": 105
            },
            {
              "note": "G#2",
              "pitch": 56,
              "beat": 5.48,
              "dur": 1.0,
              "vel": 105
            },
            {
              "note": "C#2",
              "pitch": 49,
              "beat": 5.5,
              "dur": 1.0,
              "vel": 105
            },
            {
              "note": "C#3",
              "pitch": 61,
              "beat": 5.5,
              "dur": 1.0,
              "vel": 105
            },
            {
              "note": "F3",
              "pitch": 65,
              "beat": 5.5,
              "dur": 1.0,
              "vel": 105
            },
            {
              "note": "C#1",
              "pitch": 37,
              "beat": 5.51,
              "dur": 1.0,
              "vel": 105
            },
            {
              "note": "A#0",
              "pitch": 34,
              "beat": 8.0,
              "dur": 1.0,
              "vel": 105
            },
            {
              "note": "A#1",
              "pitch": 46,
              "beat": 8.0,
              "dur": 1.0,
              "vel": 105
            },
            {
              "note": "F2",
              "pitch": 53,
              "beat": 8.0,
              "dur": 1.0,
              "vel": 105
            },
            {
              "note": "A#2",
              "pitch": 58,
              "beat": 8.0,
              "dur": 1.0,
              "vel": 105
            },
            {
              "note": "C#3",
              "pitch": 61,
              "beat": 8.0,
              "dur": 1.0,
              "vel": 105
            },
            {
              "note": "A#0",
              "pitch": 34,
              "beat": 9.5,
              "dur": 1.0,
              "vel": 105
            },
            {
              "note": "A#1",
              "pitch": 46,
              "beat": 9.5,
              "dur": 1.0,
              "vel": 105
            },
            {
              "note": "F2",
              "pitch": 53,
              "beat": 9.5,
              "dur": 1.0,
              "vel": 105
            },
            {
              "note": "A#2",
              "pitch": 58,
              "beat": 9.5,
              "dur": 1.0,
              "vel": 105
            },
            {
              "note": "C#3",
              "pitch": 61,
              "beat": 9.5,
              "dur": 1.0,
              "vel": 105
            },
            {
              "note": "G#2",
              "pitch": 56,
              "beat": 11.98,
              "dur": 1.0,
              "vel": 105
            },
            {
              "note": "C#1",
              "pitch": 37,
              "beat": 12.0,
              "dur": 1.0,
              "vel": 105
            },
            {
              "note": "C#2",
              "pitch": 49,
              "beat": 12.0,
              "dur": 1.0,
              "vel": 105
            },
            {
              "note": "C#3",
              "pitch": 61,
              "beat": 12.0,
              "dur": 1.0,
              "vel": 105
            },
            {
              "note": "F3",
              "pitch": 65,
              "beat": 12.0,
              "dur": 1.0,
              "vel": 105
            },
            {
              "note": "G#2",
              "pitch": 56,
              "beat": 13.48,
              "dur": 1.0,
              "vel": 105
            },
            {
              "note": "C#1",
              "pitch": 37,
              "beat": 13.5,
              "dur": 1.0,
              "vel": 105
            },
            {
              "note": "C#2",
              "pitch": 49,
              "beat": 13.5,
              "dur": 1.0,
              "vel": 105
            },
            {
              "note": "C#3",
              "pitch": 61,
              "beat": 13.5,
              "dur": 1.0,
              "vel": 105
            },
            {
              "note": "F3",
              "pitch": 65,
              "beat": 13.5,
              "dur": 1.0,
              "vel": 105
            },
            {
              "note": "G#2",
              "pitch": 56,
              "beat": 14.48,
              "dur": 1.5,
              "vel": 105
            },
            {
              "note": "C#1",
              "pitch": 37,
              "beat": 14.5,
              "dur": 1.5,
              "vel": 105
            },
            {
              "note": "C#2",
              "pitch": 49,
              "beat": 14.5,
              "dur": 1.5,
              "vel": 105
            },
            {
              "note": "C#3",
              "pitch": 61,
              "beat": 14.5,
              "dur": 1.5,
              "vel": 105
            },
            {
              "note": "F3",
              "pitch": 65,
              "beat": 14.5,
              "dur": 1.5,
              "vel": 105
            }
          ]
        },
        {
          "bar_start": 68.0,
          "bar_end": 72.0,
          "name": "",
          "notes": [
            {
              "note": "F#1",
              "pitch": 42,
              "beat": 0.0,
              "dur": 1.0,
              "vel": 105
            },
            {
              "note": "F#2",
              "pitch": 54,
              "beat": 0.0,
              "dur": 1.0,
              "vel": 105
            },
            {
              "note": "A#2",
              "pitch": 58,
              "beat": 0.0,
              "dur": 1.0,
              "vel": 105
            },
            {
              "note": "C#3",
              "pitch": 61,
              "beat": 0.0,
              "dur": 1.0,
              "vel": 105
            },
            {
              "note": "F3",
              "pitch": 65,
              "beat": 0.0,
              "dur": 1.0,
              "vel": 105
            },
            {
              "note": "F#1",
              "pitch": 42,
              "beat": 1.5,
              "dur": 1.0,
              "vel": 105
            },
            {
              "note": "F#2",
              "pitch": 54,
              "beat": 1.5,
              "dur": 1.0,
              "vel": 105
            },
            {
              "note": "A#2",
              "pitch": 58,
              "beat": 1.5,
              "dur": 1.0,
              "vel": 105
            },
            {
              "note": "C#3",
              "pitch": 61,
              "beat": 1.5,
              "dur": 1.0,
              "vel": 105
            },
            {
              "note": "F3",
              "pitch": 65,
              "beat": 1.5,
              "dur": 1.0,
              "vel": 105
            },
            {
              "note": "G#2",
              "pitch": 56,
              "beat": 3.98,
              "dur": 1.0,
              "vel": 105
            },
            {
              "note": "C#2",
              "pitch": 49,
              "beat": 4.0,
              "dur": 1.0,
              "vel": 105
            },
            {
              "note": "C#3",
              "pitch": 61,
              "beat": 4.0,
              "dur": 1.0,
              "vel": 105
            },
            {
              "note": "F3",
              "pitch": 65,
              "beat": 4.0,
              "dur": 1.0,
              "vel": 105
            },
            {
              "note": "C#1",
              "pitch": 37,
              "beat": 4.01,
              "dur": 1.0,
              "vel": 105
            },
            {
              "note": "G#2",
              "pitch": 56,
              "beat": 5.48,
              "dur": 1.0,
              "vel": 105
            },
            {
              "note": "C#2",
              "pitch": 49,
              "beat": 5.5,
              "dur": 1.0,
              "vel": 105
            },
            {
              "note": "C#3",
              "pitch": 61,
              "beat": 5.5,
              "dur": 1.0,
              "vel": 105
            },
            {
              "note": "F3",
              "pitch": 65,
              "beat": 5.5,
              "dur": 1.0,
              "vel": 105
            },
            {
              "note": "C#1",
              "pitch": 37,
              "beat": 5.51,
              "dur": 1.0,
              "vel": 105
            },
            {
              "note": "A#0",
              "pitch": 34,
              "beat": 8.0,
              "dur": 1.0,
              "vel": 105
            },
            {
              "note": "A#1",
              "pitch": 46,
              "beat": 8.0,
              "dur": 1.0,
              "vel": 105
            },
            {
              "note": "F2",
              "pitch": 53,
              "beat": 8.0,
              "dur": 1.0,
              "vel": 105
            },
            {
              "note": "A#2",
              "pitch": 58,
              "beat": 8.0,
              "dur": 1.0,
              "vel": 105
            },
            {
              "note": "C#3",
              "pitch": 61,
              "beat": 8.0,
              "dur": 1.0,
              "vel": 105
            },
            {
              "note": "A#0",
              "pitch": 34,
              "beat": 9.5,
              "dur": 1.0,
              "vel": 105
            },
            {
              "note": "A#1",
              "pitch": 46,
              "beat": 9.5,
              "dur": 1.0,
              "vel": 105
            },
            {
              "note": "F2",
              "pitch": 53,
              "beat": 9.5,
              "dur": 1.0,
              "vel": 105
            },
            {
              "note": "A#2",
              "pitch": 58,
              "beat": 9.5,
              "dur": 1.0,
              "vel": 105
            },
            {
              "note": "C#3",
              "pitch": 61,
              "beat": 9.5,
              "dur": 1.0,
              "vel": 105
            },
            {
              "note": "G#2",
              "pitch": 56,
              "beat": 11.98,
              "dur": 0.02,
              "vel": 105
            },
            {
              "note": "A#0",
              "pitch": 34,
              "beat": 12.0,
              "dur": 1.0,
              "vel": 105
            },
            {
              "note": "A#1",
              "pitch": 46,
              "beat": 12.0,
              "dur": 1.0,
              "vel": 105
            },
            {
              "note": "F2",
              "pitch": 53,
              "beat": 12.0,
              "dur": 1.0,
              "vel": 105
            },
            {
              "note": "A#2",
              "pitch": 58,
              "beat": 12.0,
              "dur": 1.0,
              "vel": 105
            },
            {
              "note": "C#3",
              "pitch": 61,
              "beat": 12.0,
              "dur": 1.0,
              "vel": 105
            },
            {
              "note": "A#0",
              "pitch": 34,
              "beat": 13.5,
              "dur": 1.0,
              "vel": 105
            },
            {
              "note": "A#1",
              "pitch": 46,
              "beat": 13.5,
              "dur": 1.0,
              "vel": 105
            },
            {
              "note": "F2",
              "pitch": 53,
              "beat": 13.5,
              "dur": 1.0,
              "vel": 105
            },
            {
              "note": "A#2",
              "pitch": 58,
              "beat": 13.5,
              "dur": 1.0,
              "vel": 105
            },
            {
              "note": "C#3",
              "pitch": 61,
              "beat": 13.5,
              "dur": 1.0,
              "vel": 105
            }
          ]
        },
        {
          "bar_start": 72.0,
          "bar_end": 78.0,
          "name": "",
          "notes": [
            {
              "note": "F#1",
              "pitch": 42,
              "beat": 0.0,
              "dur": 1.0,
              "vel": 105
            },
            {
              "note": "F#2",
              "pitch": 54,
              "beat": 0.0,
              "dur": 1.0,
              "vel": 105
            },
            {
              "note": "A#2",
              "pitch": 58,
              "beat": 0.0,
              "dur": 1.0,
              "vel": 105
            },
            {
              "note": "C#3",
              "pitch": 61,
              "beat": 0.0,
              "dur": 1.0,
              "vel": 105
            },
            {
              "note": "F3",
              "pitch": 65,
              "beat": 0.0,
              "dur": 1.0,
              "vel": 105
            },
            {
              "note": "F#1",
              "pitch": 42,
              "beat": 1.5,
              "dur": 1.0,
              "vel": 105
            },
            {
              "note": "F#2",
              "pitch": 54,
              "beat": 1.5,
              "dur": 1.0,
              "vel": 105
            },
            {
              "note": "A#2",
              "pitch": 58,
              "beat": 1.5,
              "dur": 1.0,
              "vel": 105
            },
            {
              "note": "C#3",
              "pitch": 61,
              "beat": 1.5,
              "dur": 1.0,
              "vel": 105
            },
            {
              "note": "F3",
              "pitch": 65,
              "beat": 1.5,
              "dur": 1.0,
              "vel": 105
            },
            {
              "note": "G#2",
              "pitch": 56,
              "beat": 3.98,
              "dur": 1.0,
              "vel": 105
            },
            {
              "note": "C#2",
              "pitch": 49,
              "beat": 4.0,
              "dur": 1.0,
              "vel": 105
            },
            {
              "note": "C#3",
              "pitch": 61,
              "beat": 4.0,
              "dur": 1.0,
              "vel": 105
            },
            {
              "note": "F3",
              "pitch": 65,
              "beat": 4.0,
              "dur": 1.0,
              "vel": 105
            },
            {
              "note": "C#1",
              "pitch": 37,
              "beat": 4.01,
              "dur": 1.0,
              "vel": 105
            },
            {
              "note": "G#2",
              "pitch": 56,
              "beat": 5.48,
              "dur": 1.0,
              "vel": 105
            },
            {
              "note": "C#2",
              "pitch": 49,
              "beat": 5.5,
              "dur": 1.0,
              "vel": 105
            },
            {
              "note": "C#3",
              "pitch": 61,
              "beat": 5.5,
              "dur": 1.0,
              "vel": 105
            },
            {
              "note": "F3",
              "pitch": 65,
              "beat": 5.5,
              "dur": 1.0,
              "vel": 105
            },
            {
              "note": "C#1",
              "pitch": 37,
              "beat": 5.51,
              "dur": 1.0,
              "vel": 105
            },
            {
              "note": "A#0",
              "pitch": 34,
              "beat": 8.0,
              "dur": 1.0,
              "vel": 105
            },
            {
              "note": "A#1",
              "pitch": 46,
              "beat": 8.0,
              "dur": 1.0,
              "vel": 105
            },
            {
              "note": "F2",
              "pitch": 53,
              "beat": 8.0,
              "dur": 1.0,
              "vel": 105
            },
            {
              "note": "A#2",
              "pitch": 58,
              "beat": 8.0,
              "dur": 1.0,
              "vel": 105
            },
            {
              "note": "C#3",
              "pitch": 61,
              "beat": 8.0,
              "dur": 1.0,
              "vel": 105
            },
            {
              "note": "A#0",
              "pitch": 34,
              "beat": 9.5,
              "dur": 1.0,
              "vel": 105
            },
            {
              "note": "A#1",
              "pitch": 46,
              "beat": 9.5,
              "dur": 1.0,
              "vel": 105
            },
            {
              "note": "F2",
              "pitch": 53,
              "beat": 9.5,
              "dur": 1.0,
              "vel": 105
            },
            {
              "note": "A#2",
              "pitch": 58,
              "beat": 9.5,
              "dur": 1.0,
              "vel": 105
            },
            {
              "note": "C#3",
              "pitch": 61,
              "beat": 9.5,
              "dur": 1.0,
              "vel": 105
            },
            {
              "note": "G#2",
              "pitch": 56,
              "beat": 11.98,
              "dur": 1.0,
              "vel": 105
            },
            {
              "note": "C#1",
              "pitch": 37,
              "beat": 12.0,
              "dur": 1.0,
              "vel": 105
            },
            {
              "note": "C#2",
              "pitch": 49,
              "beat": 12.0,
              "dur": 1.0,
              "vel": 105
            },
            {
              "note": "C#3",
              "pitch": 61,
              "beat": 12.0,
              "dur": 1.0,
              "vel": 105
            },
            {
              "note": "F3",
              "pitch": 65,
              "beat": 12.0,
              "dur": 1.0,
              "vel": 105
            },
            {
              "note": "G#2",
              "pitch": 56,
              "beat": 13.48,
              "dur": 1.0,
              "vel": 105
            },
            {
              "note": "C#1",
              "pitch": 37,
              "beat": 13.5,
              "dur": 1.0,
              "vel": 105
            },
            {
              "note": "C#2",
              "pitch": 49,
              "beat": 13.5,
              "dur": 1.0,
              "vel": 105
            },
            {
              "note": "C#3",
              "pitch": 61,
              "beat": 13.5,
              "dur": 1.0,
              "vel": 105
            },
            {
              "note": "F3",
              "pitch": 65,
              "beat": 13.5,
              "dur": 1.0,
              "vel": 105
            },
            {
              "note": "G#2",
              "pitch": 56,
              "beat": 14.48,
              "dur": 1.5,
              "vel": 105
            },
            {
              "note": "C#1",
              "pitch": 37,
              "beat": 14.5,
              "dur": 1.5,
              "vel": 105
            },
            {
              "note": "C#2",
              "pitch": 49,
              "beat": 14.5,
              "dur": 1.5,
              "vel": 105
            },
            {
              "note": "C#3",
              "pitch": 61,
              "beat": 14.5,
              "dur": 1.5,
              "vel": 105
            },
            {
              "note": "F3",
              "pitch": 65,
              "beat": 14.5,
              "dur": 1.5,
              "vel": 105
            }
          ]
        },
        {
          "bar_start": 80.0,
          "bar_end": 95.0,
          "name": "",
          "notes": [
            {
              "note": "F#1",
              "pitch": 42,
              "beat": 0.0,
              "dur": 1.0,
              "vel": 105
            },
            {
              "note": "F#2",
              "pitch": 54,
              "beat": 0.0,
              "dur": 1.0,
              "vel": 105
            },
            {
              "note": "A#2",
              "pitch": 58,
              "beat": 0.0,
              "dur": 1.0,
              "vel": 105
            },
            {
              "note": "C#3",
              "pitch": 61,
              "beat": 0.0,
              "dur": 1.0,
              "vel": 105
            },
            {
              "note": "F3",
              "pitch": 65,
              "beat": 0.0,
              "dur": 1.0,
              "vel": 105
            },
            {
              "note": "F#1",
              "pitch": 42,
              "beat": 1.5,
              "dur": 1.0,
              "vel": 105
            },
            {
              "note": "F#2",
              "pitch": 54,
              "beat": 1.5,
              "dur": 1.0,
              "vel": 105
            },
            {
              "note": "A#2",
              "pitch": 58,
              "beat": 1.5,
              "dur": 1.0,
              "vel": 105
            },
            {
              "note": "C#3",
              "pitch": 61,
              "beat": 1.5,
              "dur": 1.0,
              "vel": 105
            },
            {
              "note": "F3",
              "pitch": 65,
              "beat": 1.5,
              "dur": 1.0,
              "vel": 105
            },
            {
              "note": "G#2",
              "pitch": 56,
              "beat": 3.98,
              "dur": 1.0,
              "vel": 105
            },
            {
              "note": "C#2",
              "pitch": 49,
              "beat": 4.0,
              "dur": 1.0,
              "vel": 105
            },
            {
              "note": "C#3",
              "pitch": 61,
              "beat": 4.0,
              "dur": 1.0,
              "vel": 105
            },
            {
              "note": "F3",
              "pitch": 65,
              "beat": 4.0,
              "dur": 1.0,
              "vel": 105
            },
            {
              "note": "C#1",
              "pitch": 37,
              "beat": 4.01,
              "dur": 1.0,
              "vel": 105
            },
            {
              "note": "G#2",
              "pitch": 56,
              "beat": 5.48,
              "dur": 1.0,
              "vel": 105
            },
            {
              "note": "C#2",
              "pitch": 49,
              "beat": 5.5,
              "dur": 1.0,
              "vel": 105
            },
            {
              "note": "C#3",
              "pitch": 61,
              "beat": 5.5,
              "dur": 1.0,
              "vel": 105
            },
            {
              "note": "F3",
              "pitch": 65,
              "beat": 5.5,
              "dur": 1.0,
              "vel": 105
            },
            {
              "note": "C#1",
              "pitch": 37,
              "beat": 5.51,
              "dur": 1.0,
              "vel": 105
            },
            {
              "note": "A#0",
              "pitch": 34,
              "beat": 8.0,
              "dur": 1.0,
              "vel": 105
            },
            {
              "note": "A#1",
              "pitch": 46,
              "beat": 8.0,
              "dur": 1.0,
              "vel": 105
            },
            {
              "note": "F2",
              "pitch": 53,
              "beat": 8.0,
              "dur": 1.0,
              "vel": 105
            },
            {
              "note": "A#2",
              "pitch": 58,
              "beat": 8.0,
              "dur": 1.0,
              "vel": 105
            },
            {
              "note": "C#3",
              "pitch": 61,
              "beat": 8.0,
              "dur": 1.0,
              "vel": 105
            },
            {
              "note": "A#0",
              "pitch": 34,
              "beat": 9.5,
              "dur": 1.0,
              "vel": 105
            },
            {
              "note": "A#1",
              "pitch": 46,
              "beat": 9.5,
              "dur": 1.0,
              "vel": 105
            },
            {
              "note": "F2",
              "pitch": 53,
              "beat": 9.5,
              "dur": 1.0,
              "vel": 105
            },
            {
              "note": "A#2",
              "pitch": 58,
              "beat": 9.5,
              "dur": 1.0,
              "vel": 105
            },
            {
              "note": "C#3",
              "pitch": 61,
              "beat": 9.5,
              "dur": 1.0,
              "vel": 105
            },
            {
              "note": "G#2",
              "pitch": 56,
              "beat": 11.98,
              "dur": 1.0,
              "vel": 105
            },
            {
              "note": "C#1",
              "pitch": 37,
              "beat": 12.0,
              "dur": 1.0,
              "vel": 105
            },
            {
              "note": "C#2",
              "pitch": 49,
              "beat": 12.0,
              "dur": 1.0,
              "vel": 105
            },
            {
              "note": "C#3",
              "pitch": 61,
              "beat": 12.0,
              "dur": 1.0,
              "vel": 105
            },
            {
              "note": "F3",
              "pitch": 65,
              "beat": 12.0,
              "dur": 1.0,
              "vel": 105
            },
            {
              "note": "G#2",
              "pitch": 56,
              "beat": 13.48,
              "dur": 1.0,
              "vel": 105
            },
            {
              "note": "C#1",
              "pitch": 37,
              "beat": 13.5,
              "dur": 1.0,
              "vel": 105
            },
            {
              "note": "C#2",
              "pitch": 49,
              "beat": 13.5,
              "dur": 1.0,
              "vel": 105
            },
            {
              "note": "C#3",
              "pitch": 61,
              "beat": 13.5,
              "dur": 1.0,
              "vel": 105
            },
            {
              "note": "F3",
              "pitch": 65,
              "beat": 13.5,
              "dur": 1.0,
              "vel": 105
            },
            {
              "note": "G#2",
              "pitch": 56,
              "beat": 14.48,
              "dur": 1.5,
              "vel": 105
            },
            {
              "note": "C#1",
              "pitch": 37,
              "beat": 14.5,
              "dur": 1.5,
              "vel": 105
            },
            {
              "note": "C#2",
              "pitch": 49,
              "beat": 14.5,
              "dur": 1.5,
              "vel": 105
            },
            {
              "note": "C#3",
              "pitch": 61,
              "beat": 14.5,
              "dur": 1.5,
              "vel": 105
            },
            {
              "note": "F3",
              "pitch": 65,
              "beat": 14.5,
              "dur": 1.5,
              "vel": 105
            }
          ]
        },
        {
          "bar_start": 96.0,
          "bar_end": 111.0,
          "name": "",
          "notes": [
            {
              "note": "F#1",
              "pitch": 42,
              "beat": 0.0,
              "dur": 1.0,
              "vel": 105
            },
            {
              "note": "F#2",
              "pitch": 54,
              "beat": 0.0,
              "dur": 1.0,
              "vel": 105
            },
            {
              "note": "A#2",
              "pitch": 58,
              "beat": 0.0,
              "dur": 1.0,
              "vel": 105
            },
            {
              "note": "C#3",
              "pitch": 61,
              "beat": 0.0,
              "dur": 1.0,
              "vel": 105
            },
            {
              "note": "F3",
              "pitch": 65,
              "beat": 0.0,
              "dur": 1.0,
              "vel": 105
            },
            {
              "note": "F#1",
              "pitch": 42,
              "beat": 1.5,
              "dur": 1.0,
              "vel": 105
            },
            {
              "note": "F#2",
              "pitch": 54,
              "beat": 1.5,
              "dur": 1.0,
              "vel": 105
            },
            {
              "note": "A#2",
              "pitch": 58,
              "beat": 1.5,
              "dur": 1.0,
              "vel": 105
            },
            {
              "note": "C#3",
              "pitch": 61,
              "beat": 1.5,
              "dur": 1.0,
              "vel": 105
            },
            {
              "note": "F3",
              "pitch": 65,
              "beat": 1.5,
              "dur": 1.0,
              "vel": 105
            },
            {
              "note": "G#2",
              "pitch": 56,
              "beat": 3.98,
              "dur": 1.0,
              "vel": 105
            },
            {
              "note": "C#2",
              "pitch": 49,
              "beat": 4.0,
              "dur": 1.0,
              "vel": 105
            },
            {
              "note": "C#3",
              "pitch": 61,
              "beat": 4.0,
              "dur": 1.0,
              "vel": 105
            },
            {
              "note": "F3",
              "pitch": 65,
              "beat": 4.0,
              "dur": 1.0,
              "vel": 105
            },
            {
              "note": "C#1",
              "pitch": 37,
              "beat": 4.01,
              "dur": 1.0,
              "vel": 105
            },
            {
              "note": "G#2",
              "pitch": 56,
              "beat": 5.48,
              "dur": 1.0,
              "vel": 105
            },
            {
              "note": "C#2",
              "pitch": 49,
              "beat": 5.5,
              "dur": 1.0,
              "vel": 105
            },
            {
              "note": "C#3",
              "pitch": 61,
              "beat": 5.5,
              "dur": 1.0,
              "vel": 105
            },
            {
              "note": "F3",
              "pitch": 65,
              "beat": 5.5,
              "dur": 1.0,
              "vel": 105
            },
            {
              "note": "C#1",
              "pitch": 37,
              "beat": 5.51,
              "dur": 1.0,
              "vel": 105
            },
            {
              "note": "A#0",
              "pitch": 34,
              "beat": 8.0,
              "dur": 1.0,
              "vel": 105
            },
            {
              "note": "A#1",
              "pitch": 46,
              "beat": 8.0,
              "dur": 1.0,
              "vel": 105
            },
            {
              "note": "F2",
              "pitch": 53,
              "beat": 8.0,
              "dur": 1.0,
              "vel": 105
            },
            {
              "note": "A#2",
              "pitch": 58,
              "beat": 8.0,
              "dur": 1.0,
              "vel": 105
            },
            {
              "note": "C#3",
              "pitch": 61,
              "beat": 8.0,
              "dur": 1.0,
              "vel": 105
            },
            {
              "note": "A#0",
              "pitch": 34,
              "beat": 9.5,
              "dur": 1.0,
              "vel": 105
            },
            {
              "note": "A#1",
              "pitch": 46,
              "beat": 9.5,
              "dur": 1.0,
              "vel": 105
            },
            {
              "note": "F2",
              "pitch": 53,
              "beat": 9.5,
              "dur": 1.0,
              "vel": 105
            },
            {
              "note": "A#2",
              "pitch": 58,
              "beat": 9.5,
              "dur": 1.0,
              "vel": 105
            },
            {
              "note": "C#3",
              "pitch": 61,
              "beat": 9.5,
              "dur": 1.0,
              "vel": 105
            },
            {
              "note": "G#2",
              "pitch": 56,
              "beat": 11.98,
              "dur": 1.0,
              "vel": 105
            },
            {
              "note": "C#1",
              "pitch": 37,
              "beat": 12.0,
              "dur": 1.0,
              "vel": 105
            },
            {
              "note": "C#2",
              "pitch": 49,
              "beat": 12.0,
              "dur": 1.0,
              "vel": 105
            },
            {
              "note": "C#3",
              "pitch": 61,
              "beat": 12.0,
              "dur": 1.0,
              "vel": 105
            },
            {
              "note": "F3",
              "pitch": 65,
              "beat": 12.0,
              "dur": 1.0,
              "vel": 105
            },
            {
              "note": "G#2",
              "pitch": 56,
              "beat": 13.48,
              "dur": 1.0,
              "vel": 105
            },
            {
              "note": "C#1",
              "pitch": 37,
              "beat": 13.5,
              "dur": 1.0,
              "vel": 105
            },
            {
              "note": "C#2",
              "pitch": 49,
              "beat": 13.5,
              "dur": 1.0,
              "vel": 105
            },
            {
              "note": "C#3",
              "pitch": 61,
              "beat": 13.5,
              "dur": 1.0,
              "vel": 105
            },
            {
              "note": "F3",
              "pitch": 65,
              "beat": 13.5,
              "dur": 1.0,
              "vel": 105
            },
            {
              "note": "G#2",
              "pitch": 56,
              "beat": 14.48,
              "dur": 1.5,
              "vel": 105
            },
            {
              "note": "C#1",
              "pitch": 37,
              "beat": 14.5,
              "dur": 1.5,
              "vel": 105
            },
            {
              "note": "C#2",
              "pitch": 49,
              "beat": 14.5,
              "dur": 1.5,
              "vel": 105
            },
            {
              "note": "C#3",
              "pitch": 61,
              "beat": 14.5,
              "dur": 1.5,
              "vel": 105
            },
            {
              "note": "F3",
              "pitch": 65,
              "beat": 14.5,
              "dur": 1.5,
              "vel": 105
            }
          ]
        },
        {
          "bar_start": 112.0,
          "bar_end": 120.0,
          "name": "",
          "notes": [
            {
              "note": "F#1",
              "pitch": 42,
              "beat": 0.0,
              "dur": 1.0,
              "vel": 105
            },
            {
              "note": "F#2",
              "pitch": 54,
              "beat": 0.0,
              "dur": 1.0,
              "vel": 105
            },
            {
              "note": "A#2",
              "pitch": 58,
              "beat": 0.0,
              "dur": 1.0,
              "vel": 105
            },
            {
              "note": "C#3",
              "pitch": 61,
              "beat": 0.0,
              "dur": 1.0,
              "vel": 105
            },
            {
              "note": "F3",
              "pitch": 65,
              "beat": 0.0,
              "dur": 1.0,
              "vel": 105
            },
            {
              "note": "F#1",
              "pitch": 42,
              "beat": 1.5,
              "dur": 1.0,
              "vel": 105
            },
            {
              "note": "F#2",
              "pitch": 54,
              "beat": 1.5,
              "dur": 1.0,
              "vel": 105
            },
            {
              "note": "A#2",
              "pitch": 58,
              "beat": 1.5,
              "dur": 1.0,
              "vel": 105
            },
            {
              "note": "C#3",
              "pitch": 61,
              "beat": 1.5,
              "dur": 1.0,
              "vel": 105
            },
            {
              "note": "F3",
              "pitch": 65,
              "beat": 1.5,
              "dur": 1.0,
              "vel": 105
            },
            {
              "note": "G#2",
              "pitch": 56,
              "beat": 3.98,
              "dur": 1.0,
              "vel": 105
            },
            {
              "note": "C#2",
              "pitch": 49,
              "beat": 4.0,
              "dur": 1.0,
              "vel": 105
            },
            {
              "note": "C#3",
              "pitch": 61,
              "beat": 4.0,
              "dur": 1.0,
              "vel": 105
            },
            {
              "note": "F3",
              "pitch": 65,
              "beat": 4.0,
              "dur": 1.0,
              "vel": 105
            },
            {
              "note": "C#1",
              "pitch": 37,
              "beat": 4.01,
              "dur": 1.0,
              "vel": 105
            },
            {
              "note": "G#2",
              "pitch": 56,
              "beat": 5.48,
              "dur": 1.0,
              "vel": 105
            },
            {
              "note": "C#2",
              "pitch": 49,
              "beat": 5.5,
              "dur": 1.0,
              "vel": 105
            },
            {
              "note": "C#3",
              "pitch": 61,
              "beat": 5.5,
              "dur": 1.0,
              "vel": 105
            },
            {
              "note": "F3",
              "pitch": 65,
              "beat": 5.5,
              "dur": 1.0,
              "vel": 105
            },
            {
              "note": "C#1",
              "pitch": 37,
              "beat": 5.51,
              "dur": 1.0,
              "vel": 105
            },
            {
              "note": "A#0",
              "pitch": 34,
              "beat": 8.0,
              "dur": 1.0,
              "vel": 105
            },
            {
              "note": "A#1",
              "pitch": 46,
              "beat": 8.0,
              "dur": 1.0,
              "vel": 105
            },
            {
              "note": "F2",
              "pitch": 53,
              "beat": 8.0,
              "dur": 1.0,
              "vel": 105
            },
            {
              "note": "A#2",
              "pitch": 58,
              "beat": 8.0,
              "dur": 1.0,
              "vel": 105
            },
            {
              "note": "C#3",
              "pitch": 61,
              "beat": 8.0,
              "dur": 1.0,
              "vel": 105
            },
            {
              "note": "A#0",
              "pitch": 34,
              "beat": 9.5,
              "dur": 1.0,
              "vel": 105
            },
            {
              "note": "A#1",
              "pitch": 46,
              "beat": 9.5,
              "dur": 1.0,
              "vel": 105
            },
            {
              "note": "F2",
              "pitch": 53,
              "beat": 9.5,
              "dur": 1.0,
              "vel": 105
            },
            {
              "note": "A#2",
              "pitch": 58,
              "beat": 9.5,
              "dur": 1.0,
              "vel": 105
            },
            {
              "note": "C#3",
              "pitch": 61,
              "beat": 9.5,
              "dur": 1.0,
              "vel": 105
            },
            {
              "note": "G#2",
              "pitch": 56,
              "beat": 11.98,
              "dur": 1.0,
              "vel": 105
            },
            {
              "note": "C#1",
              "pitch": 37,
              "beat": 12.0,
              "dur": 1.0,
              "vel": 105
            },
            {
              "note": "C#2",
              "pitch": 49,
              "beat": 12.0,
              "dur": 1.0,
              "vel": 105
            },
            {
              "note": "C#3",
              "pitch": 61,
              "beat": 12.0,
              "dur": 1.0,
              "vel": 105
            },
            {
              "note": "F3",
              "pitch": 65,
              "beat": 12.0,
              "dur": 1.0,
              "vel": 105
            },
            {
              "note": "G#2",
              "pitch": 56,
              "beat": 13.48,
              "dur": 1.0,
              "vel": 105
            },
            {
              "note": "C#1",
              "pitch": 37,
              "beat": 13.5,
              "dur": 1.0,
              "vel": 105
            },
            {
              "note": "C#2",
              "pitch": 49,
              "beat": 13.5,
              "dur": 1.0,
              "vel": 105
            },
            {
              "note": "C#3",
              "pitch": 61,
              "beat": 13.5,
              "dur": 1.0,
              "vel": 105
            },
            {
              "note": "F3",
              "pitch": 65,
              "beat": 13.5,
              "dur": 1.0,
              "vel": 105
            },
            {
              "note": "G#2",
              "pitch": 56,
              "beat": 14.48,
              "dur": 1.5,
              "vel": 105
            },
            {
              "note": "C#1",
              "pitch": 37,
              "beat": 14.5,
              "dur": 1.5,
              "vel": 105
            },
            {
              "note": "C#2",
              "pitch": 49,
              "beat": 14.5,
              "dur": 1.5,
              "vel": 105
            },
            {
              "note": "C#3",
              "pitch": 61,
              "beat": 14.5,
              "dur": 1.5,
              "vel": 105
            },
            {
              "note": "F3",
              "pitch": 65,
              "beat": 14.5,
              "dur": 1.5,
              "vel": 105
            }
          ]
        },
        {
          "bar_start": 120.0,
          "bar_end": 120.25,
          "name": "",
          "notes": [
            {
              "note": "F#1",
              "pitch": 42,
              "beat": 0.0,
              "dur": 1.0,
              "vel": 105
            },
            {
              "note": "F#2",
              "pitch": 54,
              "beat": 0.0,
              "dur": 1.0,
              "vel": 105
            },
            {
              "note": "A#2",
              "pitch": 58,
              "beat": 0.0,
              "dur": 1.0,
              "vel": 105
            },
            {
              "note": "C#3",
              "pitch": 61,
              "beat": 0.0,
              "dur": 1.0,
              "vel": 105
            },
            {
              "note": "F3",
              "pitch": 65,
              "beat": 0.0,
              "dur": 1.0,
              "vel": 105
            },
            {
              "note": "F#1",
              "pitch": 42,
              "beat": 1.5,
              "dur": 1.0,
              "vel": 105
            },
            {
              "note": "F#2",
              "pitch": 54,
              "beat": 1.5,
              "dur": 1.0,
              "vel": 105
            },
            {
              "note": "A#2",
              "pitch": 58,
              "beat": 1.5,
              "dur": 1.0,
              "vel": 105
            },
            {
              "note": "C#3",
              "pitch": 61,
              "beat": 1.5,
              "dur": 1.0,
              "vel": 105
            },
            {
              "note": "F3",
              "pitch": 65,
              "beat": 1.5,
              "dur": 1.0,
              "vel": 105
            },
            {
              "note": "G#2",
              "pitch": 56,
              "beat": 3.98,
              "dur": 1.0,
              "vel": 105
            },
            {
              "note": "C#2",
              "pitch": 49,
              "beat": 4.0,
              "dur": 1.0,
              "vel": 105
            },
            {
              "note": "C#3",
              "pitch": 61,
              "beat": 4.0,
              "dur": 1.0,
              "vel": 105
            },
            {
              "note": "F3",
              "pitch": 65,
              "beat": 4.0,
              "dur": 1.0,
              "vel": 105
            },
            {
              "note": "C#1",
              "pitch": 37,
              "beat": 4.01,
              "dur": 1.0,
              "vel": 105
            },
            {
              "note": "G#2",
              "pitch": 56,
              "beat": 5.48,
              "dur": 1.0,
              "vel": 105
            },
            {
              "note": "C#2",
              "pitch": 49,
              "beat": 5.5,
              "dur": 1.0,
              "vel": 105
            },
            {
              "note": "C#3",
              "pitch": 61,
              "beat": 5.5,
              "dur": 1.0,
              "vel": 105
            },
            {
              "note": "F3",
              "pitch": 65,
              "beat": 5.5,
              "dur": 1.0,
              "vel": 105
            },
            {
              "note": "C#1",
              "pitch": 37,
              "beat": 5.51,
              "dur": 1.0,
              "vel": 105
            },
            {
              "note": "A#0",
              "pitch": 34,
              "beat": 8.0,
              "dur": 1.0,
              "vel": 105
            },
            {
              "note": "A#1",
              "pitch": 46,
              "beat": 8.0,
              "dur": 1.0,
              "vel": 105
            },
            {
              "note": "F2",
              "pitch": 53,
              "beat": 8.0,
              "dur": 1.0,
              "vel": 105
            },
            {
              "note": "A#2",
              "pitch": 58,
              "beat": 8.0,
              "dur": 1.0,
              "vel": 105
            },
            {
              "note": "C#3",
              "pitch": 61,
              "beat": 8.0,
              "dur": 1.0,
              "vel": 105
            },
            {
              "note": "A#0",
              "pitch": 34,
              "beat": 9.5,
              "dur": 1.0,
              "vel": 105
            },
            {
              "note": "A#1",
              "pitch": 46,
              "beat": 9.5,
              "dur": 1.0,
              "vel": 105
            },
            {
              "note": "F2",
              "pitch": 53,
              "beat": 9.5,
              "dur": 1.0,
              "vel": 105
            },
            {
              "note": "A#2",
              "pitch": 58,
              "beat": 9.5,
              "dur": 1.0,
              "vel": 105
            },
            {
              "note": "C#3",
              "pitch": 61,
              "beat": 9.5,
              "dur": 1.0,
              "vel": 105
            },
            {
              "note": "G#2",
              "pitch": 56,
              "beat": 11.98,
              "dur": 1.0,
              "vel": 105
            },
            {
              "note": "C#1",
              "pitch": 37,
              "beat": 12.0,
              "dur": 1.0,
              "vel": 105
            },
            {
              "note": "C#2",
              "pitch": 49,
              "beat": 12.0,
              "dur": 1.0,
              "vel": 105
            },
            {
              "note": "C#3",
              "pitch": 61,
              "beat": 12.0,
              "dur": 1.0,
              "vel": 105
            },
            {
              "note": "F3",
              "pitch": 65,
              "beat": 12.0,
              "dur": 1.0,
              "vel": 105
            },
            {
              "note": "G#2",
              "pitch": 56,
              "beat": 13.48,
              "dur": 1.0,
              "vel": 105
            },
            {
              "note": "C#1",
              "pitch": 37,
              "beat": 13.5,
              "dur": 1.0,
              "vel": 105
            },
            {
              "note": "C#2",
              "pitch": 49,
              "beat": 13.5,
              "dur": 1.0,
              "vel": 105
            },
            {
              "note": "C#3",
              "pitch": 61,
              "beat": 13.5,
              "dur": 1.0,
              "vel": 105
            },
            {
              "note": "F3",
              "pitch": 65,
              "beat": 13.5,
              "dur": 1.0,
              "vel": 105
            },
            {
              "note": "G#2",
              "pitch": 56,
              "beat": 14.48,
              "dur": 1.5,
              "vel": 105
            },
            {
              "note": "C#1",
              "pitch": 37,
              "beat": 14.5,
              "dur": 1.5,
              "vel": 105
            },
            {
              "note": "C#2",
              "pitch": 49,
              "beat": 14.5,
              "dur": 1.5,
              "vel": 105
            },
            {
              "note": "C#3",
              "pitch": 61,
              "beat": 14.5,
              "dur": 1.5,
              "vel": 105
            },
            {
              "note": "F3",
              "pitch": 65,
              "beat": 14.5,
              "dur": 1.5,
              "vel": 105
            }
          ]
        },
        {
          "bar_start": 121.0,
          "bar_end": 121.25,
          "name": "",
          "notes": [
            {
              "note": "F#1",
              "pitch": 42,
              "beat": 0.0,
              "dur": 1.0,
              "vel": 105
            },
            {
              "note": "F#2",
              "pitch": 54,
              "beat": 0.0,
              "dur": 1.0,
              "vel": 105
            },
            {
              "note": "A#2",
              "pitch": 58,
              "beat": 0.0,
              "dur": 1.0,
              "vel": 105
            },
            {
              "note": "C#3",
              "pitch": 61,
              "beat": 0.0,
              "dur": 1.0,
              "vel": 105
            },
            {
              "note": "F3",
              "pitch": 65,
              "beat": 0.0,
              "dur": 1.0,
              "vel": 105
            },
            {
              "note": "F#1",
              "pitch": 42,
              "beat": 1.5,
              "dur": 1.0,
              "vel": 105
            },
            {
              "note": "F#2",
              "pitch": 54,
              "beat": 1.5,
              "dur": 1.0,
              "vel": 105
            },
            {
              "note": "A#2",
              "pitch": 58,
              "beat": 1.5,
              "dur": 1.0,
              "vel": 105
            },
            {
              "note": "C#3",
              "pitch": 61,
              "beat": 1.5,
              "dur": 1.0,
              "vel": 105
            },
            {
              "note": "F3",
              "pitch": 65,
              "beat": 1.5,
              "dur": 1.0,
              "vel": 105
            },
            {
              "note": "G#2",
              "pitch": 56,
              "beat": 3.98,
              "dur": 1.0,
              "vel": 105
            },
            {
              "note": "C#2",
              "pitch": 49,
              "beat": 4.0,
              "dur": 1.0,
              "vel": 105
            },
            {
              "note": "C#3",
              "pitch": 61,
              "beat": 4.0,
              "dur": 1.0,
              "vel": 105
            },
            {
              "note": "F3",
              "pitch": 65,
              "beat": 4.0,
              "dur": 1.0,
              "vel": 105
            },
            {
              "note": "C#1",
              "pitch": 37,
              "beat": 4.01,
              "dur": 1.0,
              "vel": 105
            },
            {
              "note": "G#2",
              "pitch": 56,
              "beat": 5.48,
              "dur": 1.0,
              "vel": 105
            },
            {
              "note": "C#2",
              "pitch": 49,
              "beat": 5.5,
              "dur": 1.0,
              "vel": 105
            },
            {
              "note": "C#3",
              "pitch": 61,
              "beat": 5.5,
              "dur": 1.0,
              "vel": 105
            },
            {
              "note": "F3",
              "pitch": 65,
              "beat": 5.5,
              "dur": 1.0,
              "vel": 105
            },
            {
              "note": "C#1",
              "pitch": 37,
              "beat": 5.51,
              "dur": 1.0,
              "vel": 105
            },
            {
              "note": "A#0",
              "pitch": 34,
              "beat": 8.0,
              "dur": 1.0,
              "vel": 105
            },
            {
              "note": "A#1",
              "pitch": 46,
              "beat": 8.0,
              "dur": 1.0,
              "vel": 105
            },
            {
              "note": "F2",
              "pitch": 53,
              "beat": 8.0,
              "dur": 1.0,
              "vel": 105
            },
            {
              "note": "A#2",
              "pitch": 58,
              "beat": 8.0,
              "dur": 1.0,
              "vel": 105
            },
            {
              "note": "C#3",
              "pitch": 61,
              "beat": 8.0,
              "dur": 1.0,
              "vel": 105
            },
            {
              "note": "A#0",
              "pitch": 34,
              "beat": 9.5,
              "dur": 1.0,
              "vel": 105
            },
            {
              "note": "A#1",
              "pitch": 46,
              "beat": 9.5,
              "dur": 1.0,
              "vel": 105
            },
            {
              "note": "F2",
              "pitch": 53,
              "beat": 9.5,
              "dur": 1.0,
              "vel": 105
            },
            {
              "note": "A#2",
              "pitch": 58,
              "beat": 9.5,
              "dur": 1.0,
              "vel": 105
            },
            {
              "note": "C#3",
              "pitch": 61,
              "beat": 9.5,
              "dur": 1.0,
              "vel": 105
            },
            {
              "note": "G#2",
              "pitch": 56,
              "beat": 11.98,
              "dur": 1.0,
              "vel": 105
            },
            {
              "note": "C#1",
              "pitch": 37,
              "beat": 12.0,
              "dur": 1.0,
              "vel": 105
            },
            {
              "note": "C#2",
              "pitch": 49,
              "beat": 12.0,
              "dur": 1.0,
              "vel": 105
            },
            {
              "note": "C#3",
              "pitch": 61,
              "beat": 12.0,
              "dur": 1.0,
              "vel": 105
            },
            {
              "note": "F3",
              "pitch": 65,
              "beat": 12.0,
              "dur": 1.0,
              "vel": 105
            },
            {
              "note": "G#2",
              "pitch": 56,
              "beat": 13.48,
              "dur": 1.0,
              "vel": 105
            },
            {
              "note": "C#1",
              "pitch": 37,
              "beat": 13.5,
              "dur": 1.0,
              "vel": 105
            },
            {
              "note": "C#2",
              "pitch": 49,
              "beat": 13.5,
              "dur": 1.0,
              "vel": 105
            },
            {
              "note": "C#3",
              "pitch": 61,
              "beat": 13.5,
              "dur": 1.0,
              "vel": 105
            },
            {
              "note": "F3",
              "pitch": 65,
              "beat": 13.5,
              "dur": 1.0,
              "vel": 105
            },
            {
              "note": "G#2",
              "pitch": 56,
              "beat": 14.48,
              "dur": 1.5,
              "vel": 105
            },
            {
              "note": "C#1",
              "pitch": 37,
              "beat": 14.5,
              "dur": 1.5,
              "vel": 105
            },
            {
              "note": "C#2",
              "pitch": 49,
              "beat": 14.5,
              "dur": 1.5,
              "vel": 105
            },
            {
              "note": "C#3",
              "pitch": 61,
              "beat": 14.5,
              "dur": 1.5,
              "vel": 105
            },
            {
              "note": "F3",
              "pitch": 65,
              "beat": 14.5,
              "dur": 1.5,
              "vel": 105
            }
          ]
        },
        {
          "bar_start": 122.0,
          "bar_end": 122.25,
          "name": "",
          "notes": [
            {
              "note": "F#1",
              "pitch": 42,
              "beat": 0.0,
              "dur": 1.0,
              "vel": 105
            },
            {
              "note": "F#2",
              "pitch": 54,
              "beat": 0.0,
              "dur": 1.0,
              "vel": 105
            },
            {
              "note": "A#2",
              "pitch": 58,
              "beat": 0.0,
              "dur": 1.0,
              "vel": 105
            },
            {
              "note": "C#3",
              "pitch": 61,
              "beat": 0.0,
              "dur": 1.0,
              "vel": 105
            },
            {
              "note": "F3",
              "pitch": 65,
              "beat": 0.0,
              "dur": 1.0,
              "vel": 105
            },
            {
              "note": "F#1",
              "pitch": 42,
              "beat": 1.5,
              "dur": 1.0,
              "vel": 105
            },
            {
              "note": "F#2",
              "pitch": 54,
              "beat": 1.5,
              "dur": 1.0,
              "vel": 105
            },
            {
              "note": "A#2",
              "pitch": 58,
              "beat": 1.5,
              "dur": 1.0,
              "vel": 105
            },
            {
              "note": "C#3",
              "pitch": 61,
              "beat": 1.5,
              "dur": 1.0,
              "vel": 105
            },
            {
              "note": "F3",
              "pitch": 65,
              "beat": 1.5,
              "dur": 1.0,
              "vel": 105
            },
            {
              "note": "G#2",
              "pitch": 56,
              "beat": 3.98,
              "dur": 1.0,
              "vel": 105
            },
            {
              "note": "C#2",
              "pitch": 49,
              "beat": 4.0,
              "dur": 1.0,
              "vel": 105
            },
            {
              "note": "C#3",
              "pitch": 61,
              "beat": 4.0,
              "dur": 1.0,
              "vel": 105
            },
            {
              "note": "F3",
              "pitch": 65,
              "beat": 4.0,
              "dur": 1.0,
              "vel": 105
            },
            {
              "note": "C#1",
              "pitch": 37,
              "beat": 4.01,
              "dur": 1.0,
              "vel": 105
            },
            {
              "note": "G#2",
              "pitch": 56,
              "beat": 5.48,
              "dur": 1.0,
              "vel": 105
            },
            {
              "note": "C#2",
              "pitch": 49,
              "beat": 5.5,
              "dur": 1.0,
              "vel": 105
            },
            {
              "note": "C#3",
              "pitch": 61,
              "beat": 5.5,
              "dur": 1.0,
              "vel": 105
            },
            {
              "note": "F3",
              "pitch": 65,
              "beat": 5.5,
              "dur": 1.0,
              "vel": 105
            },
            {
              "note": "C#1",
              "pitch": 37,
              "beat": 5.51,
              "dur": 1.0,
              "vel": 105
            },
            {
              "note": "A#0",
              "pitch": 34,
              "beat": 8.0,
              "dur": 1.0,
              "vel": 105
            },
            {
              "note": "A#1",
              "pitch": 46,
              "beat": 8.0,
              "dur": 1.0,
              "vel": 105
            },
            {
              "note": "F2",
              "pitch": 53,
              "beat": 8.0,
              "dur": 1.0,
              "vel": 105
            },
            {
              "note": "A#2",
              "pitch": 58,
              "beat": 8.0,
              "dur": 1.0,
              "vel": 105
            },
            {
              "note": "C#3",
              "pitch": 61,
              "beat": 8.0,
              "dur": 1.0,
              "vel": 105
            },
            {
              "note": "A#0",
              "pitch": 34,
              "beat": 9.5,
              "dur": 1.0,
              "vel": 105
            },
            {
              "note": "A#1",
              "pitch": 46,
              "beat": 9.5,
              "dur": 1.0,
              "vel": 105
            },
            {
              "note": "F2",
              "pitch": 53,
              "beat": 9.5,
              "dur": 1.0,
              "vel": 105
            },
            {
              "note": "A#2",
              "pitch": 58,
              "beat": 9.5,
              "dur": 1.0,
              "vel": 105
            },
            {
              "note": "C#3",
              "pitch": 61,
              "beat": 9.5,
              "dur": 1.0,
              "vel": 105
            },
            {
              "note": "G#2",
              "pitch": 56,
              "beat": 11.98,
              "dur": 1.0,
              "vel": 105
            },
            {
              "note": "C#1",
              "pitch": 37,
              "beat": 12.0,
              "dur": 1.0,
              "vel": 105
            },
            {
              "note": "C#2",
              "pitch": 49,
              "beat": 12.0,
              "dur": 1.0,
              "vel": 105
            },
            {
              "note": "C#3",
              "pitch": 61,
              "beat": 12.0,
              "dur": 1.0,
              "vel": 105
            },
            {
              "note": "F3",
              "pitch": 65,
              "beat": 12.0,
              "dur": 1.0,
              "vel": 105
            },
            {
              "note": "G#2",
              "pitch": 56,
              "beat": 13.48,
              "dur": 1.0,
              "vel": 105
            },
            {
              "note": "C#1",
              "pitch": 37,
              "beat": 13.5,
              "dur": 1.0,
              "vel": 105
            },
            {
              "note": "C#2",
              "pitch": 49,
              "beat": 13.5,
              "dur": 1.0,
              "vel": 105
            },
            {
              "note": "C#3",
              "pitch": 61,
              "beat": 13.5,
              "dur": 1.0,
              "vel": 105
            },
            {
              "note": "F3",
              "pitch": 65,
              "beat": 13.5,
              "dur": 1.0,
              "vel": 105
            },
            {
              "note": "G#2",
              "pitch": 56,
              "beat": 14.48,
              "dur": 1.5,
              "vel": 105
            },
            {
              "note": "C#1",
              "pitch": 37,
              "beat": 14.5,
              "dur": 1.5,
              "vel": 105
            },
            {
              "note": "C#2",
              "pitch": 49,
              "beat": 14.5,
              "dur": 1.5,
              "vel": 105
            },
            {
              "note": "C#3",
              "pitch": 61,
              "beat": 14.5,
              "dur": 1.5,
              "vel": 105
            },
            {
              "note": "F3",
              "pitch": 65,
              "beat": 14.5,
              "dur": 1.5,
              "vel": 105
            }
          ]
        },
        {
          "bar_start": 123.0,
          "bar_end": 123.25,
          "name": "",
          "notes": [
            {
              "note": "F#1",
              "pitch": 42,
              "beat": 0.0,
              "dur": 1.0,
              "vel": 105
            },
            {
              "note": "F#2",
              "pitch": 54,
              "beat": 0.0,
              "dur": 1.0,
              "vel": 105
            },
            {
              "note": "A#2",
              "pitch": 58,
              "beat": 0.0,
              "dur": 1.0,
              "vel": 105
            },
            {
              "note": "C#3",
              "pitch": 61,
              "beat": 0.0,
              "dur": 1.0,
              "vel": 105
            },
            {
              "note": "F3",
              "pitch": 65,
              "beat": 0.0,
              "dur": 1.0,
              "vel": 105
            },
            {
              "note": "F#1",
              "pitch": 42,
              "beat": 1.5,
              "dur": 1.0,
              "vel": 105
            },
            {
              "note": "F#2",
              "pitch": 54,
              "beat": 1.5,
              "dur": 1.0,
              "vel": 105
            },
            {
              "note": "A#2",
              "pitch": 58,
              "beat": 1.5,
              "dur": 1.0,
              "vel": 105
            },
            {
              "note": "C#3",
              "pitch": 61,
              "beat": 1.5,
              "dur": 1.0,
              "vel": 105
            },
            {
              "note": "F3",
              "pitch": 65,
              "beat": 1.5,
              "dur": 1.0,
              "vel": 105
            },
            {
              "note": "G#2",
              "pitch": 56,
              "beat": 3.98,
              "dur": 1.0,
              "vel": 105
            },
            {
              "note": "C#2",
              "pitch": 49,
              "beat": 4.0,
              "dur": 1.0,
              "vel": 105
            },
            {
              "note": "C#3",
              "pitch": 61,
              "beat": 4.0,
              "dur": 1.0,
              "vel": 105
            },
            {
              "note": "F3",
              "pitch": 65,
              "beat": 4.0,
              "dur": 1.0,
              "vel": 105
            },
            {
              "note": "C#1",
              "pitch": 37,
              "beat": 4.01,
              "dur": 1.0,
              "vel": 105
            },
            {
              "note": "G#2",
              "pitch": 56,
              "beat": 5.48,
              "dur": 1.0,
              "vel": 105
            },
            {
              "note": "C#2",
              "pitch": 49,
              "beat": 5.5,
              "dur": 1.0,
              "vel": 105
            },
            {
              "note": "C#3",
              "pitch": 61,
              "beat": 5.5,
              "dur": 1.0,
              "vel": 105
            },
            {
              "note": "F3",
              "pitch": 65,
              "beat": 5.5,
              "dur": 1.0,
              "vel": 105
            },
            {
              "note": "C#1",
              "pitch": 37,
              "beat": 5.51,
              "dur": 1.0,
              "vel": 105
            },
            {
              "note": "A#0",
              "pitch": 34,
              "beat": 8.0,
              "dur": 1.0,
              "vel": 105
            },
            {
              "note": "A#1",
              "pitch": 46,
              "beat": 8.0,
              "dur": 1.0,
              "vel": 105
            },
            {
              "note": "F2",
              "pitch": 53,
              "beat": 8.0,
              "dur": 1.0,
              "vel": 105
            },
            {
              "note": "A#2",
              "pitch": 58,
              "beat": 8.0,
              "dur": 1.0,
              "vel": 105
            },
            {
              "note": "C#3",
              "pitch": 61,
              "beat": 8.0,
              "dur": 1.0,
              "vel": 105
            },
            {
              "note": "A#0",
              "pitch": 34,
              "beat": 9.5,
              "dur": 1.0,
              "vel": 105
            },
            {
              "note": "A#1",
              "pitch": 46,
              "beat": 9.5,
              "dur": 1.0,
              "vel": 105
            },
            {
              "note": "F2",
              "pitch": 53,
              "beat": 9.5,
              "dur": 1.0,
              "vel": 105
            },
            {
              "note": "A#2",
              "pitch": 58,
              "beat": 9.5,
              "dur": 1.0,
              "vel": 105
            },
            {
              "note": "C#3",
              "pitch": 61,
              "beat": 9.5,
              "dur": 1.0,
              "vel": 105
            },
            {
              "note": "G#2",
              "pitch": 56,
              "beat": 11.98,
              "dur": 1.0,
              "vel": 105
            },
            {
              "note": "C#1",
              "pitch": 37,
              "beat": 12.0,
              "dur": 1.0,
              "vel": 105
            },
            {
              "note": "C#2",
              "pitch": 49,
              "beat": 12.0,
              "dur": 1.0,
              "vel": 105
            },
            {
              "note": "C#3",
              "pitch": 61,
              "beat": 12.0,
              "dur": 1.0,
              "vel": 105
            },
            {
              "note": "F3",
              "pitch": 65,
              "beat": 12.0,
              "dur": 1.0,
              "vel": 105
            },
            {
              "note": "G#2",
              "pitch": 56,
              "beat": 13.48,
              "dur": 1.0,
              "vel": 105
            },
            {
              "note": "C#1",
              "pitch": 37,
              "beat": 13.5,
              "dur": 1.0,
              "vel": 105
            },
            {
              "note": "C#2",
              "pitch": 49,
              "beat": 13.5,
              "dur": 1.0,
              "vel": 105
            },
            {
              "note": "C#3",
              "pitch": 61,
              "beat": 13.5,
              "dur": 1.0,
              "vel": 105
            },
            {
              "note": "F3",
              "pitch": 65,
              "beat": 13.5,
              "dur": 1.0,
              "vel": 105
            },
            {
              "note": "G#2",
              "pitch": 56,
              "beat": 14.48,
              "dur": 1.5,
              "vel": 105
            },
            {
              "note": "C#1",
              "pitch": 37,
              "beat": 14.5,
              "dur": 1.5,
              "vel": 105
            },
            {
              "note": "C#2",
              "pitch": 49,
              "beat": 14.5,
              "dur": 1.5,
              "vel": 105
            },
            {
              "note": "C#3",
              "pitch": 61,
              "beat": 14.5,
              "dur": 1.5,
              "vel": 105
            },
            {
              "note": "F3",
              "pitch": 65,
              "beat": 14.5,
              "dur": 1.5,
              "vel": 105
            }
          ]
        },
        {
          "bar_start": 124.0,
          "bar_end": 124.25,
          "name": "",
          "notes": [
            {
              "note": "F#1",
              "pitch": 42,
              "beat": 0.0,
              "dur": 1.0,
              "vel": 105
            },
            {
              "note": "F#2",
              "pitch": 54,
              "beat": 0.0,
              "dur": 1.0,
              "vel": 105
            },
            {
              "note": "A#2",
              "pitch": 58,
              "beat": 0.0,
              "dur": 1.0,
              "vel": 105
            },
            {
              "note": "C#3",
              "pitch": 61,
              "beat": 0.0,
              "dur": 1.0,
              "vel": 105
            },
            {
              "note": "F3",
              "pitch": 65,
              "beat": 0.0,
              "dur": 1.0,
              "vel": 105
            },
            {
              "note": "F#1",
              "pitch": 42,
              "beat": 1.5,
              "dur": 1.0,
              "vel": 105
            },
            {
              "note": "F#2",
              "pitch": 54,
              "beat": 1.5,
              "dur": 1.0,
              "vel": 105
            },
            {
              "note": "A#2",
              "pitch": 58,
              "beat": 1.5,
              "dur": 1.0,
              "vel": 105
            },
            {
              "note": "C#3",
              "pitch": 61,
              "beat": 1.5,
              "dur": 1.0,
              "vel": 105
            },
            {
              "note": "F3",
              "pitch": 65,
              "beat": 1.5,
              "dur": 1.0,
              "vel": 105
            },
            {
              "note": "G#2",
              "pitch": 56,
              "beat": 3.98,
              "dur": 1.0,
              "vel": 105
            },
            {
              "note": "C#2",
              "pitch": 49,
              "beat": 4.0,
              "dur": 1.0,
              "vel": 105
            },
            {
              "note": "C#3",
              "pitch": 61,
              "beat": 4.0,
              "dur": 1.0,
              "vel": 105
            },
            {
              "note": "F3",
              "pitch": 65,
              "beat": 4.0,
              "dur": 1.0,
              "vel": 105
            },
            {
              "note": "C#1",
              "pitch": 37,
              "beat": 4.01,
              "dur": 1.0,
              "vel": 105
            },
            {
              "note": "G#2",
              "pitch": 56,
              "beat": 5.48,
              "dur": 1.0,
              "vel": 105
            },
            {
              "note": "C#2",
              "pitch": 49,
              "beat": 5.5,
              "dur": 1.0,
              "vel": 105
            },
            {
              "note": "C#3",
              "pitch": 61,
              "beat": 5.5,
              "dur": 1.0,
              "vel": 105
            },
            {
              "note": "F3",
              "pitch": 65,
              "beat": 5.5,
              "dur": 1.0,
              "vel": 105
            },
            {
              "note": "C#1",
              "pitch": 37,
              "beat": 5.51,
              "dur": 1.0,
              "vel": 105
            },
            {
              "note": "A#0",
              "pitch": 34,
              "beat": 8.0,
              "dur": 1.0,
              "vel": 105
            },
            {
              "note": "A#1",
              "pitch": 46,
              "beat": 8.0,
              "dur": 1.0,
              "vel": 105
            },
            {
              "note": "F2",
              "pitch": 53,
              "beat": 8.0,
              "dur": 1.0,
              "vel": 105
            },
            {
              "note": "A#2",
              "pitch": 58,
              "beat": 8.0,
              "dur": 1.0,
              "vel": 105
            },
            {
              "note": "C#3",
              "pitch": 61,
              "beat": 8.0,
              "dur": 1.0,
              "vel": 105
            },
            {
              "note": "A#0",
              "pitch": 34,
              "beat": 9.5,
              "dur": 1.0,
              "vel": 105
            },
            {
              "note": "A#1",
              "pitch": 46,
              "beat": 9.5,
              "dur": 1.0,
              "vel": 105
            },
            {
              "note": "F2",
              "pitch": 53,
              "beat": 9.5,
              "dur": 1.0,
              "vel": 105
            },
            {
              "note": "A#2",
              "pitch": 58,
              "beat": 9.5,
              "dur": 1.0,
              "vel": 105
            },
            {
              "note": "C#3",
              "pitch": 61,
              "beat": 9.5,
              "dur": 1.0,
              "vel": 105
            },
            {
              "note": "G#2",
              "pitch": 56,
              "beat": 11.98,
              "dur": 1.0,
              "vel": 105
            },
            {
              "note": "C#1",
              "pitch": 37,
              "beat": 12.0,
              "dur": 1.0,
              "vel": 105
            },
            {
              "note": "C#2",
              "pitch": 49,
              "beat": 12.0,
              "dur": 1.0,
              "vel": 105
            },
            {
              "note": "C#3",
              "pitch": 61,
              "beat": 12.0,
              "dur": 1.0,
              "vel": 105
            },
            {
              "note": "F3",
              "pitch": 65,
              "beat": 12.0,
              "dur": 1.0,
              "vel": 105
            },
            {
              "note": "G#2",
              "pitch": 56,
              "beat": 13.48,
              "dur": 1.0,
              "vel": 105
            },
            {
              "note": "C#1",
              "pitch": 37,
              "beat": 13.5,
              "dur": 1.0,
              "vel": 105
            },
            {
              "note": "C#2",
              "pitch": 49,
              "beat": 13.5,
              "dur": 1.0,
              "vel": 105
            },
            {
              "note": "C#3",
              "pitch": 61,
              "beat": 13.5,
              "dur": 1.0,
              "vel": 105
            },
            {
              "note": "F3",
              "pitch": 65,
              "beat": 13.5,
              "dur": 1.0,
              "vel": 105
            },
            {
              "note": "G#2",
              "pitch": 56,
              "beat": 14.48,
              "dur": 1.5,
              "vel": 105
            },
            {
              "note": "C#1",
              "pitch": 37,
              "beat": 14.5,
              "dur": 1.5,
              "vel": 105
            },
            {
              "note": "C#2",
              "pitch": 49,
              "beat": 14.5,
              "dur": 1.5,
              "vel": 105
            },
            {
              "note": "C#3",
              "pitch": 61,
              "beat": 14.5,
              "dur": 1.5,
              "vel": 105
            },
            {
              "note": "F3",
              "pitch": 65,
              "beat": 14.5,
              "dur": 1.5,
              "vel": 105
            }
          ]
        },
        {
          "bar_start": 125.0,
          "bar_end": 125.25,
          "name": "",
          "notes": [
            {
              "note": "F#1",
              "pitch": 42,
              "beat": 0.0,
              "dur": 1.0,
              "vel": 105
            },
            {
              "note": "F#2",
              "pitch": 54,
              "beat": 0.0,
              "dur": 1.0,
              "vel": 105
            },
            {
              "note": "A#2",
              "pitch": 58,
              "beat": 0.0,
              "dur": 1.0,
              "vel": 105
            },
            {
              "note": "C#3",
              "pitch": 61,
              "beat": 0.0,
              "dur": 1.0,
              "vel": 105
            },
            {
              "note": "F3",
              "pitch": 65,
              "beat": 0.0,
              "dur": 1.0,
              "vel": 105
            },
            {
              "note": "F#1",
              "pitch": 42,
              "beat": 1.5,
              "dur": 1.0,
              "vel": 105
            },
            {
              "note": "F#2",
              "pitch": 54,
              "beat": 1.5,
              "dur": 1.0,
              "vel": 105
            },
            {
              "note": "A#2",
              "pitch": 58,
              "beat": 1.5,
              "dur": 1.0,
              "vel": 105
            },
            {
              "note": "C#3",
              "pitch": 61,
              "beat": 1.5,
              "dur": 1.0,
              "vel": 105
            },
            {
              "note": "F3",
              "pitch": 65,
              "beat": 1.5,
              "dur": 1.0,
              "vel": 105
            },
            {
              "note": "G#2",
              "pitch": 56,
              "beat": 3.98,
              "dur": 1.0,
              "vel": 105
            },
            {
              "note": "C#2",
              "pitch": 49,
              "beat": 4.0,
              "dur": 1.0,
              "vel": 105
            },
            {
              "note": "C#3",
              "pitch": 61,
              "beat": 4.0,
              "dur": 1.0,
              "vel": 105
            },
            {
              "note": "F3",
              "pitch": 65,
              "beat": 4.0,
              "dur": 1.0,
              "vel": 105
            },
            {
              "note": "C#1",
              "pitch": 37,
              "beat": 4.01,
              "dur": 1.0,
              "vel": 105
            },
            {
              "note": "G#2",
              "pitch": 56,
              "beat": 5.48,
              "dur": 1.0,
              "vel": 105
            },
            {
              "note": "C#2",
              "pitch": 49,
              "beat": 5.5,
              "dur": 1.0,
              "vel": 105
            },
            {
              "note": "C#3",
              "pitch": 61,
              "beat": 5.5,
              "dur": 1.0,
              "vel": 105
            },
            {
              "note": "F3",
              "pitch": 65,
              "beat": 5.5,
              "dur": 1.0,
              "vel": 105
            },
            {
              "note": "C#1",
              "pitch": 37,
              "beat": 5.51,
              "dur": 1.0,
              "vel": 105
            },
            {
              "note": "A#0",
              "pitch": 34,
              "beat": 8.0,
              "dur": 1.0,
              "vel": 105
            },
            {
              "note": "A#1",
              "pitch": 46,
              "beat": 8.0,
              "dur": 1.0,
              "vel": 105
            },
            {
              "note": "F2",
              "pitch": 53,
              "beat": 8.0,
              "dur": 1.0,
              "vel": 105
            },
            {
              "note": "A#2",
              "pitch": 58,
              "beat": 8.0,
              "dur": 1.0,
              "vel": 105
            },
            {
              "note": "C#3",
              "pitch": 61,
              "beat": 8.0,
              "dur": 1.0,
              "vel": 105
            },
            {
              "note": "A#0",
              "pitch": 34,
              "beat": 9.5,
              "dur": 1.0,
              "vel": 105
            },
            {
              "note": "A#1",
              "pitch": 46,
              "beat": 9.5,
              "dur": 1.0,
              "vel": 105
            },
            {
              "note": "F2",
              "pitch": 53,
              "beat": 9.5,
              "dur": 1.0,
              "vel": 105
            },
            {
              "note": "A#2",
              "pitch": 58,
              "beat": 9.5,
              "dur": 1.0,
              "vel": 105
            },
            {
              "note": "C#3",
              "pitch": 61,
              "beat": 9.5,
              "dur": 1.0,
              "vel": 105
            },
            {
              "note": "G#2",
              "pitch": 56,
              "beat": 11.98,
              "dur": 1.0,
              "vel": 105
            },
            {
              "note": "C#1",
              "pitch": 37,
              "beat": 12.0,
              "dur": 1.0,
              "vel": 105
            },
            {
              "note": "C#2",
              "pitch": 49,
              "beat": 12.0,
              "dur": 1.0,
              "vel": 105
            },
            {
              "note": "C#3",
              "pitch": 61,
              "beat": 12.0,
              "dur": 1.0,
              "vel": 105
            },
            {
              "note": "F3",
              "pitch": 65,
              "beat": 12.0,
              "dur": 1.0,
              "vel": 105
            },
            {
              "note": "G#2",
              "pitch": 56,
              "beat": 13.48,
              "dur": 1.0,
              "vel": 105
            },
            {
              "note": "C#1",
              "pitch": 37,
              "beat": 13.5,
              "dur": 1.0,
              "vel": 105
            },
            {
              "note": "C#2",
              "pitch": 49,
              "beat": 13.5,
              "dur": 1.0,
              "vel": 105
            },
            {
              "note": "C#3",
              "pitch": 61,
              "beat": 13.5,
              "dur": 1.0,
              "vel": 105
            },
            {
              "note": "F3",
              "pitch": 65,
              "beat": 13.5,
              "dur": 1.0,
              "vel": 105
            },
            {
              "note": "G#2",
              "pitch": 56,
              "beat": 14.48,
              "dur": 1.5,
              "vel": 105
            },
            {
              "note": "C#1",
              "pitch": 37,
              "beat": 14.5,
              "dur": 1.5,
              "vel": 105
            },
            {
              "note": "C#2",
              "pitch": 49,
              "beat": 14.5,
              "dur": 1.5,
              "vel": 105
            },
            {
              "note": "C#3",
              "pitch": 61,
              "beat": 14.5,
              "dur": 1.5,
              "vel": 105
            },
            {
              "note": "F3",
              "pitch": 65,
              "beat": 14.5,
              "dur": 1.5,
              "vel": 105
            }
          ]
        },
        {
          "bar_start": 126.0,
          "bar_end": 126.25,
          "name": "",
          "notes": [
            {
              "note": "F#1",
              "pitch": 42,
              "beat": 0.0,
              "dur": 1.0,
              "vel": 105
            },
            {
              "note": "F#2",
              "pitch": 54,
              "beat": 0.0,
              "dur": 1.0,
              "vel": 105
            },
            {
              "note": "A#2",
              "pitch": 58,
              "beat": 0.0,
              "dur": 1.0,
              "vel": 105
            },
            {
              "note": "C#3",
              "pitch": 61,
              "beat": 0.0,
              "dur": 1.0,
              "vel": 105
            },
            {
              "note": "F3",
              "pitch": 65,
              "beat": 0.0,
              "dur": 1.0,
              "vel": 105
            },
            {
              "note": "F#1",
              "pitch": 42,
              "beat": 1.5,
              "dur": 1.0,
              "vel": 105
            },
            {
              "note": "F#2",
              "pitch": 54,
              "beat": 1.5,
              "dur": 1.0,
              "vel": 105
            },
            {
              "note": "A#2",
              "pitch": 58,
              "beat": 1.5,
              "dur": 1.0,
              "vel": 105
            },
            {
              "note": "C#3",
              "pitch": 61,
              "beat": 1.5,
              "dur": 1.0,
              "vel": 105
            },
            {
              "note": "F3",
              "pitch": 65,
              "beat": 1.5,
              "dur": 1.0,
              "vel": 105
            },
            {
              "note": "G#2",
              "pitch": 56,
              "beat": 3.98,
              "dur": 1.0,
              "vel": 105
            },
            {
              "note": "C#2",
              "pitch": 49,
              "beat": 4.0,
              "dur": 1.0,
              "vel": 105
            },
            {
              "note": "C#3",
              "pitch": 61,
              "beat": 4.0,
              "dur": 1.0,
              "vel": 105
            },
            {
              "note": "F3",
              "pitch": 65,
              "beat": 4.0,
              "dur": 1.0,
              "vel": 105
            },
            {
              "note": "C#1",
              "pitch": 37,
              "beat": 4.01,
              "dur": 1.0,
              "vel": 105
            },
            {
              "note": "G#2",
              "pitch": 56,
              "beat": 5.48,
              "dur": 1.0,
              "vel": 105
            },
            {
              "note": "C#2",
              "pitch": 49,
              "beat": 5.5,
              "dur": 1.0,
              "vel": 105
            },
            {
              "note": "C#3",
              "pitch": 61,
              "beat": 5.5,
              "dur": 1.0,
              "vel": 105
            },
            {
              "note": "F3",
              "pitch": 65,
              "beat": 5.5,
              "dur": 1.0,
              "vel": 105
            },
            {
              "note": "C#1",
              "pitch": 37,
              "beat": 5.51,
              "dur": 1.0,
              "vel": 105
            },
            {
              "note": "A#0",
              "pitch": 34,
              "beat": 8.0,
              "dur": 1.0,
              "vel": 105
            },
            {
              "note": "A#1",
              "pitch": 46,
              "beat": 8.0,
              "dur": 1.0,
              "vel": 105
            },
            {
              "note": "F2",
              "pitch": 53,
              "beat": 8.0,
              "dur": 1.0,
              "vel": 105
            },
            {
              "note": "A#2",
              "pitch": 58,
              "beat": 8.0,
              "dur": 1.0,
              "vel": 105
            },
            {
              "note": "C#3",
              "pitch": 61,
              "beat": 8.0,
              "dur": 1.0,
              "vel": 105
            },
            {
              "note": "A#0",
              "pitch": 34,
              "beat": 9.5,
              "dur": 1.0,
              "vel": 105
            },
            {
              "note": "A#1",
              "pitch": 46,
              "beat": 9.5,
              "dur": 1.0,
              "vel": 105
            },
            {
              "note": "F2",
              "pitch": 53,
              "beat": 9.5,
              "dur": 1.0,
              "vel": 105
            },
            {
              "note": "A#2",
              "pitch": 58,
              "beat": 9.5,
              "dur": 1.0,
              "vel": 105
            },
            {
              "note": "C#3",
              "pitch": 61,
              "beat": 9.5,
              "dur": 1.0,
              "vel": 105
            },
            {
              "note": "G#2",
              "pitch": 56,
              "beat": 11.98,
              "dur": 1.0,
              "vel": 105
            },
            {
              "note": "C#1",
              "pitch": 37,
              "beat": 12.0,
              "dur": 1.0,
              "vel": 105
            },
            {
              "note": "C#2",
              "pitch": 49,
              "beat": 12.0,
              "dur": 1.0,
              "vel": 105
            },
            {
              "note": "C#3",
              "pitch": 61,
              "beat": 12.0,
              "dur": 1.0,
              "vel": 105
            },
            {
              "note": "F3",
              "pitch": 65,
              "beat": 12.0,
              "dur": 1.0,
              "vel": 105
            },
            {
              "note": "G#2",
              "pitch": 56,
              "beat": 13.48,
              "dur": 1.0,
              "vel": 105
            },
            {
              "note": "C#1",
              "pitch": 37,
              "beat": 13.5,
              "dur": 1.0,
              "vel": 105
            },
            {
              "note": "C#2",
              "pitch": 49,
              "beat": 13.5,
              "dur": 1.0,
              "vel": 105
            },
            {
              "note": "C#3",
              "pitch": 61,
              "beat": 13.5,
              "dur": 1.0,
              "vel": 105
            },
            {
              "note": "F3",
              "pitch": 65,
              "beat": 13.5,
              "dur": 1.0,
              "vel": 105
            },
            {
              "note": "G#2",
              "pitch": 56,
              "beat": 14.48,
              "dur": 1.5,
              "vel": 105
            },
            {
              "note": "C#1",
              "pitch": 37,
              "beat": 14.5,
              "dur": 1.5,
              "vel": 105
            },
            {
              "note": "C#2",
              "pitch": 49,
              "beat": 14.5,
              "dur": 1.5,
              "vel": 105
            },
            {
              "note": "C#3",
              "pitch": 61,
              "beat": 14.5,
              "dur": 1.5,
              "vel": 105
            },
            {
              "note": "F3",
              "pitch": 65,
              "beat": 14.5,
              "dur": 1.5,
              "vel": 105
            }
          ]
        },
        {
          "bar_start": 127.0,
          "bar_end": 127.25,
          "name": "",
          "notes": [
            {
              "note": "F#1",
              "pitch": 42,
              "beat": 0.0,
              "dur": 1.0,
              "vel": 105
            },
            {
              "note": "F#2",
              "pitch": 54,
              "beat": 0.0,
              "dur": 1.0,
              "vel": 105
            },
            {
              "note": "A#2",
              "pitch": 58,
              "beat": 0.0,
              "dur": 1.0,
              "vel": 105
            },
            {
              "note": "C#3",
              "pitch": 61,
              "beat": 0.0,
              "dur": 1.0,
              "vel": 105
            },
            {
              "note": "F3",
              "pitch": 65,
              "beat": 0.0,
              "dur": 1.0,
              "vel": 105
            },
            {
              "note": "F#1",
              "pitch": 42,
              "beat": 1.5,
              "dur": 1.0,
              "vel": 105
            },
            {
              "note": "F#2",
              "pitch": 54,
              "beat": 1.5,
              "dur": 1.0,
              "vel": 105
            },
            {
              "note": "A#2",
              "pitch": 58,
              "beat": 1.5,
              "dur": 1.0,
              "vel": 105
            },
            {
              "note": "C#3",
              "pitch": 61,
              "beat": 1.5,
              "dur": 1.0,
              "vel": 105
            },
            {
              "note": "F3",
              "pitch": 65,
              "beat": 1.5,
              "dur": 1.0,
              "vel": 105
            },
            {
              "note": "G#2",
              "pitch": 56,
              "beat": 3.98,
              "dur": 1.0,
              "vel": 105
            },
            {
              "note": "C#2",
              "pitch": 49,
              "beat": 4.0,
              "dur": 1.0,
              "vel": 105
            },
            {
              "note": "C#3",
              "pitch": 61,
              "beat": 4.0,
              "dur": 1.0,
              "vel": 105
            },
            {
              "note": "F3",
              "pitch": 65,
              "beat": 4.0,
              "dur": 1.0,
              "vel": 105
            },
            {
              "note": "C#1",
              "pitch": 37,
              "beat": 4.01,
              "dur": 1.0,
              "vel": 105
            },
            {
              "note": "G#2",
              "pitch": 56,
              "beat": 5.48,
              "dur": 1.0,
              "vel": 105
            },
            {
              "note": "C#2",
              "pitch": 49,
              "beat": 5.5,
              "dur": 1.0,
              "vel": 105
            },
            {
              "note": "C#3",
              "pitch": 61,
              "beat": 5.5,
              "dur": 1.0,
              "vel": 105
            },
            {
              "note": "F3",
              "pitch": 65,
              "beat": 5.5,
              "dur": 1.0,
              "vel": 105
            },
            {
              "note": "C#1",
              "pitch": 37,
              "beat": 5.51,
              "dur": 1.0,
              "vel": 105
            },
            {
              "note": "A#0",
              "pitch": 34,
              "beat": 8.0,
              "dur": 1.0,
              "vel": 105
            },
            {
              "note": "A#1",
              "pitch": 46,
              "beat": 8.0,
              "dur": 1.0,
              "vel": 105
            },
            {
              "note": "F2",
              "pitch": 53,
              "beat": 8.0,
              "dur": 1.0,
              "vel": 105
            },
            {
              "note": "A#2",
              "pitch": 58,
              "beat": 8.0,
              "dur": 1.0,
              "vel": 105
            },
            {
              "note": "C#3",
              "pitch": 61,
              "beat": 8.0,
              "dur": 1.0,
              "vel": 105
            },
            {
              "note": "A#0",
              "pitch": 34,
              "beat": 9.5,
              "dur": 1.0,
              "vel": 105
            },
            {
              "note": "A#1",
              "pitch": 46,
              "beat": 9.5,
              "dur": 1.0,
              "vel": 105
            },
            {
              "note": "F2",
              "pitch": 53,
              "beat": 9.5,
              "dur": 1.0,
              "vel": 105
            },
            {
              "note": "A#2",
              "pitch": 58,
              "beat": 9.5,
              "dur": 1.0,
              "vel": 105
            },
            {
              "note": "C#3",
              "pitch": 61,
              "beat": 9.5,
              "dur": 1.0,
              "vel": 105
            },
            {
              "note": "G#2",
              "pitch": 56,
              "beat": 11.98,
              "dur": 1.0,
              "vel": 105
            },
            {
              "note": "C#1",
              "pitch": 37,
              "beat": 12.0,
              "dur": 1.0,
              "vel": 105
            },
            {
              "note": "C#2",
              "pitch": 49,
              "beat": 12.0,
              "dur": 1.0,
              "vel": 105
            },
            {
              "note": "C#3",
              "pitch": 61,
              "beat": 12.0,
              "dur": 1.0,
              "vel": 105
            },
            {
              "note": "F3",
              "pitch": 65,
              "beat": 12.0,
              "dur": 1.0,
              "vel": 105
            },
            {
              "note": "G#2",
              "pitch": 56,
              "beat": 13.48,
              "dur": 1.0,
              "vel": 105
            },
            {
              "note": "C#1",
              "pitch": 37,
              "beat": 13.5,
              "dur": 1.0,
              "vel": 105
            },
            {
              "note": "C#2",
              "pitch": 49,
              "beat": 13.5,
              "dur": 1.0,
              "vel": 105
            },
            {
              "note": "C#3",
              "pitch": 61,
              "beat": 13.5,
              "dur": 1.0,
              "vel": 105
            },
            {
              "note": "F3",
              "pitch": 65,
              "beat": 13.5,
              "dur": 1.0,
              "vel": 105
            },
            {
              "note": "G#2",
              "pitch": 56,
              "beat": 14.48,
              "dur": 1.5,
              "vel": 105
            },
            {
              "note": "C#1",
              "pitch": 37,
              "beat": 14.5,
              "dur": 1.5,
              "vel": 105
            },
            {
              "note": "C#2",
              "pitch": 49,
              "beat": 14.5,
              "dur": 1.5,
              "vel": 105
            },
            {
              "note": "C#3",
              "pitch": 61,
              "beat": 14.5,
              "dur": 1.5,
              "vel": 105
            },
            {
              "note": "F3",
              "pitch": 65,
              "beat": 14.5,
              "dur": 1.5,
              "vel": 105
            }
          ]
        },
        {
          "bar_start": 128.0,
          "bar_end": 128.25,
          "name": "",
          "notes": [
            {
              "note": "F#1",
              "pitch": 42,
              "beat": 0.0,
              "dur": 1.0,
              "vel": 105
            },
            {
              "note": "F#2",
              "pitch": 54,
              "beat": 0.0,
              "dur": 1.0,
              "vel": 105
            },
            {
              "note": "A#2",
              "pitch": 58,
              "beat": 0.0,
              "dur": 1.0,
              "vel": 105
            },
            {
              "note": "C#3",
              "pitch": 61,
              "beat": 0.0,
              "dur": 1.0,
              "vel": 105
            },
            {
              "note": "F3",
              "pitch": 65,
              "beat": 0.0,
              "dur": 1.0,
              "vel": 105
            },
            {
              "note": "F#1",
              "pitch": 42,
              "beat": 1.5,
              "dur": 1.0,
              "vel": 105
            },
            {
              "note": "F#2",
              "pitch": 54,
              "beat": 1.5,
              "dur": 1.0,
              "vel": 105
            },
            {
              "note": "A#2",
              "pitch": 58,
              "beat": 1.5,
              "dur": 1.0,
              "vel": 105
            },
            {
              "note": "C#3",
              "pitch": 61,
              "beat": 1.5,
              "dur": 1.0,
              "vel": 105
            },
            {
              "note": "F3",
              "pitch": 65,
              "beat": 1.5,
              "dur": 1.0,
              "vel": 105
            },
            {
              "note": "G#2",
              "pitch": 56,
              "beat": 3.98,
              "dur": 1.0,
              "vel": 105
            },
            {
              "note": "C#2",
              "pitch": 49,
              "beat": 4.0,
              "dur": 1.0,
              "vel": 105
            },
            {
              "note": "C#3",
              "pitch": 61,
              "beat": 4.0,
              "dur": 1.0,
              "vel": 105
            },
            {
              "note": "F3",
              "pitch": 65,
              "beat": 4.0,
              "dur": 1.0,
              "vel": 105
            },
            {
              "note": "C#1",
              "pitch": 37,
              "beat": 4.01,
              "dur": 1.0,
              "vel": 105
            },
            {
              "note": "G#2",
              "pitch": 56,
              "beat": 5.48,
              "dur": 1.0,
              "vel": 105
            },
            {
              "note": "C#2",
              "pitch": 49,
              "beat": 5.5,
              "dur": 1.0,
              "vel": 105
            },
            {
              "note": "C#3",
              "pitch": 61,
              "beat": 5.5,
              "dur": 1.0,
              "vel": 105
            },
            {
              "note": "F3",
              "pitch": 65,
              "beat": 5.5,
              "dur": 1.0,
              "vel": 105
            },
            {
              "note": "C#1",
              "pitch": 37,
              "beat": 5.51,
              "dur": 1.0,
              "vel": 105
            },
            {
              "note": "A#0",
              "pitch": 34,
              "beat": 8.0,
              "dur": 1.0,
              "vel": 105
            },
            {
              "note": "A#1",
              "pitch": 46,
              "beat": 8.0,
              "dur": 1.0,
              "vel": 105
            },
            {
              "note": "F2",
              "pitch": 53,
              "beat": 8.0,
              "dur": 1.0,
              "vel": 105
            },
            {
              "note": "A#2",
              "pitch": 58,
              "beat": 8.0,
              "dur": 1.0,
              "vel": 105
            },
            {
              "note": "C#3",
              "pitch": 61,
              "beat": 8.0,
              "dur": 1.0,
              "vel": 105
            },
            {
              "note": "A#0",
              "pitch": 34,
              "beat": 9.5,
              "dur": 1.0,
              "vel": 105
            },
            {
              "note": "A#1",
              "pitch": 46,
              "beat": 9.5,
              "dur": 1.0,
              "vel": 105
            },
            {
              "note": "F2",
              "pitch": 53,
              "beat": 9.5,
              "dur": 1.0,
              "vel": 105
            },
            {
              "note": "A#2",
              "pitch": 58,
              "beat": 9.5,
              "dur": 1.0,
              "vel": 105
            },
            {
              "note": "C#3",
              "pitch": 61,
              "beat": 9.5,
              "dur": 1.0,
              "vel": 105
            },
            {
              "note": "G#2",
              "pitch": 56,
              "beat": 11.98,
              "dur": 1.0,
              "vel": 105
            },
            {
              "note": "C#1",
              "pitch": 37,
              "beat": 12.0,
              "dur": 1.0,
              "vel": 105
            },
            {
              "note": "C#2",
              "pitch": 49,
              "beat": 12.0,
              "dur": 1.0,
              "vel": 105
            },
            {
              "note": "C#3",
              "pitch": 61,
              "beat": 12.0,
              "dur": 1.0,
              "vel": 105
            },
            {
              "note": "F3",
              "pitch": 65,
              "beat": 12.0,
              "dur": 1.0,
              "vel": 105
            },
            {
              "note": "G#2",
              "pitch": 56,
              "beat": 13.48,
              "dur": 1.0,
              "vel": 105
            },
            {
              "note": "C#1",
              "pitch": 37,
              "beat": 13.5,
              "dur": 1.0,
              "vel": 105
            },
            {
              "note": "C#2",
              "pitch": 49,
              "beat": 13.5,
              "dur": 1.0,
              "vel": 105
            },
            {
              "note": "C#3",
              "pitch": 61,
              "beat": 13.5,
              "dur": 1.0,
              "vel": 105
            },
            {
              "note": "F3",
              "pitch": 65,
              "beat": 13.5,
              "dur": 1.0,
              "vel": 105
            },
            {
              "note": "G#2",
              "pitch": 56,
              "beat": 14.48,
              "dur": 1.5,
              "vel": 105
            },
            {
              "note": "C#1",
              "pitch": 37,
              "beat": 14.5,
              "dur": 1.5,
              "vel": 105
            },
            {
              "note": "C#2",
              "pitch": 49,
              "beat": 14.5,
              "dur": 1.5,
              "vel": 105
            },
            {
              "note": "C#3",
              "pitch": 61,
              "beat": 14.5,
              "dur": 1.5,
              "vel": 105
            },
            {
              "note": "F3",
              "pitch": 65,
              "beat": 14.5,
              "dur": 1.5,
              "vel": 105
            }
          ]
        },
        {
          "bar_start": 129.0,
          "bar_end": 129.25,
          "name": "",
          "notes": [
            {
              "note": "F#1",
              "pitch": 42,
              "beat": 0.0,
              "dur": 1.0,
              "vel": 105
            },
            {
              "note": "F#2",
              "pitch": 54,
              "beat": 0.0,
              "dur": 1.0,
              "vel": 105
            },
            {
              "note": "A#2",
              "pitch": 58,
              "beat": 0.0,
              "dur": 1.0,
              "vel": 105
            },
            {
              "note": "C#3",
              "pitch": 61,
              "beat": 0.0,
              "dur": 1.0,
              "vel": 105
            },
            {
              "note": "F3",
              "pitch": 65,
              "beat": 0.0,
              "dur": 1.0,
              "vel": 105
            },
            {
              "note": "F#1",
              "pitch": 42,
              "beat": 1.5,
              "dur": 1.0,
              "vel": 105
            },
            {
              "note": "F#2",
              "pitch": 54,
              "beat": 1.5,
              "dur": 1.0,
              "vel": 105
            },
            {
              "note": "A#2",
              "pitch": 58,
              "beat": 1.5,
              "dur": 1.0,
              "vel": 105
            },
            {
              "note": "C#3",
              "pitch": 61,
              "beat": 1.5,
              "dur": 1.0,
              "vel": 105
            },
            {
              "note": "F3",
              "pitch": 65,
              "beat": 1.5,
              "dur": 1.0,
              "vel": 105
            },
            {
              "note": "G#2",
              "pitch": 56,
              "beat": 3.98,
              "dur": 1.0,
              "vel": 105
            },
            {
              "note": "C#2",
              "pitch": 49,
              "beat": 4.0,
              "dur": 1.0,
              "vel": 105
            },
            {
              "note": "C#3",
              "pitch": 61,
              "beat": 4.0,
              "dur": 1.0,
              "vel": 105
            },
            {
              "note": "F3",
              "pitch": 65,
              "beat": 4.0,
              "dur": 1.0,
              "vel": 105
            },
            {
              "note": "C#1",
              "pitch": 37,
              "beat": 4.01,
              "dur": 1.0,
              "vel": 105
            },
            {
              "note": "G#2",
              "pitch": 56,
              "beat": 5.48,
              "dur": 1.0,
              "vel": 105
            },
            {
              "note": "C#2",
              "pitch": 49,
              "beat": 5.5,
              "dur": 1.0,
              "vel": 105
            },
            {
              "note": "C#3",
              "pitch": 61,
              "beat": 5.5,
              "dur": 1.0,
              "vel": 105
            },
            {
              "note": "F3",
              "pitch": 65,
              "beat": 5.5,
              "dur": 1.0,
              "vel": 105
            },
            {
              "note": "C#1",
              "pitch": 37,
              "beat": 5.51,
              "dur": 1.0,
              "vel": 105
            },
            {
              "note": "A#0",
              "pitch": 34,
              "beat": 8.0,
              "dur": 1.0,
              "vel": 105
            },
            {
              "note": "A#1",
              "pitch": 46,
              "beat": 8.0,
              "dur": 1.0,
              "vel": 105
            },
            {
              "note": "F2",
              "pitch": 53,
              "beat": 8.0,
              "dur": 1.0,
              "vel": 105
            },
            {
              "note": "A#2",
              "pitch": 58,
              "beat": 8.0,
              "dur": 1.0,
              "vel": 105
            },
            {
              "note": "C#3",
              "pitch": 61,
              "beat": 8.0,
              "dur": 1.0,
              "vel": 105
            },
            {
              "note": "A#0",
              "pitch": 34,
              "beat": 9.5,
              "dur": 1.0,
              "vel": 105
            },
            {
              "note": "A#1",
              "pitch": 46,
              "beat": 9.5,
              "dur": 1.0,
              "vel": 105
            },
            {
              "note": "F2",
              "pitch": 53,
              "beat": 9.5,
              "dur": 1.0,
              "vel": 105
            },
            {
              "note": "A#2",
              "pitch": 58,
              "beat": 9.5,
              "dur": 1.0,
              "vel": 105
            },
            {
              "note": "C#3",
              "pitch": 61,
              "beat": 9.5,
              "dur": 1.0,
              "vel": 105
            },
            {
              "note": "G#2",
              "pitch": 56,
              "beat": 11.98,
              "dur": 1.0,
              "vel": 105
            },
            {
              "note": "C#1",
              "pitch": 37,
              "beat": 12.0,
              "dur": 1.0,
              "vel": 105
            },
            {
              "note": "C#2",
              "pitch": 49,
              "beat": 12.0,
              "dur": 1.0,
              "vel": 105
            },
            {
              "note": "C#3",
              "pitch": 61,
              "beat": 12.0,
              "dur": 1.0,
              "vel": 105
            },
            {
              "note": "F3",
              "pitch": 65,
              "beat": 12.0,
              "dur": 1.0,
              "vel": 105
            },
            {
              "note": "G#2",
              "pitch": 56,
              "beat": 13.48,
              "dur": 1.0,
              "vel": 105
            },
            {
              "note": "C#1",
              "pitch": 37,
              "beat": 13.5,
              "dur": 1.0,
              "vel": 105
            },
            {
              "note": "C#2",
              "pitch": 49,
              "beat": 13.5,
              "dur": 1.0,
              "vel": 105
            },
            {
              "note": "C#3",
              "pitch": 61,
              "beat": 13.5,
              "dur": 1.0,
              "vel": 105
            },
            {
              "note": "F3",
              "pitch": 65,
              "beat": 13.5,
              "dur": 1.0,
              "vel": 105
            },
            {
              "note": "G#2",
              "pitch": 56,
              "beat": 14.48,
              "dur": 1.5,
              "vel": 105
            },
            {
              "note": "C#1",
              "pitch": 37,
              "beat": 14.5,
              "dur": 1.5,
              "vel": 105
            },
            {
              "note": "C#2",
              "pitch": 49,
              "beat": 14.5,
              "dur": 1.5,
              "vel": 105
            },
            {
              "note": "C#3",
              "pitch": 61,
              "beat": 14.5,
              "dur": 1.5,
              "vel": 105
            },
            {
              "note": "F3",
              "pitch": 65,
              "beat": 14.5,
              "dur": 1.5,
              "vel": 105
            }
          ]
        },
        {
          "bar_start": 130.0,
          "bar_end": 130.25,
          "name": "",
          "notes": [
            {
              "note": "F#1",
              "pitch": 42,
              "beat": 0.0,
              "dur": 1.0,
              "vel": 105
            },
            {
              "note": "F#2",
              "pitch": 54,
              "beat": 0.0,
              "dur": 1.0,
              "vel": 105
            },
            {
              "note": "A#2",
              "pitch": 58,
              "beat": 0.0,
              "dur": 1.0,
              "vel": 105
            },
            {
              "note": "C#3",
              "pitch": 61,
              "beat": 0.0,
              "dur": 1.0,
              "vel": 105
            },
            {
              "note": "F3",
              "pitch": 65,
              "beat": 0.0,
              "dur": 1.0,
              "vel": 105
            },
            {
              "note": "F#1",
              "pitch": 42,
              "beat": 1.5,
              "dur": 1.0,
              "vel": 105
            },
            {
              "note": "F#2",
              "pitch": 54,
              "beat": 1.5,
              "dur": 1.0,
              "vel": 105
            },
            {
              "note": "A#2",
              "pitch": 58,
              "beat": 1.5,
              "dur": 1.0,
              "vel": 105
            },
            {
              "note": "C#3",
              "pitch": 61,
              "beat": 1.5,
              "dur": 1.0,
              "vel": 105
            },
            {
              "note": "F3",
              "pitch": 65,
              "beat": 1.5,
              "dur": 1.0,
              "vel": 105
            },
            {
              "note": "G#2",
              "pitch": 56,
              "beat": 3.98,
              "dur": 1.0,
              "vel": 105
            },
            {
              "note": "C#2",
              "pitch": 49,
              "beat": 4.0,
              "dur": 1.0,
              "vel": 105
            },
            {
              "note": "C#3",
              "pitch": 61,
              "beat": 4.0,
              "dur": 1.0,
              "vel": 105
            },
            {
              "note": "F3",
              "pitch": 65,
              "beat": 4.0,
              "dur": 1.0,
              "vel": 105
            },
            {
              "note": "C#1",
              "pitch": 37,
              "beat": 4.01,
              "dur": 1.0,
              "vel": 105
            },
            {
              "note": "G#2",
              "pitch": 56,
              "beat": 5.48,
              "dur": 1.0,
              "vel": 105
            },
            {
              "note": "C#2",
              "pitch": 49,
              "beat": 5.5,
              "dur": 1.0,
              "vel": 105
            },
            {
              "note": "C#3",
              "pitch": 61,
              "beat": 5.5,
              "dur": 1.0,
              "vel": 105
            },
            {
              "note": "F3",
              "pitch": 65,
              "beat": 5.5,
              "dur": 1.0,
              "vel": 105
            },
            {
              "note": "C#1",
              "pitch": 37,
              "beat": 5.51,
              "dur": 1.0,
              "vel": 105
            },
            {
              "note": "A#0",
              "pitch": 34,
              "beat": 8.0,
              "dur": 1.0,
              "vel": 105
            },
            {
              "note": "A#1",
              "pitch": 46,
              "beat": 8.0,
              "dur": 1.0,
              "vel": 105
            },
            {
              "note": "F2",
              "pitch": 53,
              "beat": 8.0,
              "dur": 1.0,
              "vel": 105
            },
            {
              "note": "A#2",
              "pitch": 58,
              "beat": 8.0,
              "dur": 1.0,
              "vel": 105
            },
            {
              "note": "C#3",
              "pitch": 61,
              "beat": 8.0,
              "dur": 1.0,
              "vel": 105
            },
            {
              "note": "A#0",
              "pitch": 34,
              "beat": 9.5,
              "dur": 1.0,
              "vel": 105
            },
            {
              "note": "A#1",
              "pitch": 46,
              "beat": 9.5,
              "dur": 1.0,
              "vel": 105
            },
            {
              "note": "F2",
              "pitch": 53,
              "beat": 9.5,
              "dur": 1.0,
              "vel": 105
            },
            {
              "note": "A#2",
              "pitch": 58,
              "beat": 9.5,
              "dur": 1.0,
              "vel": 105
            },
            {
              "note": "C#3",
              "pitch": 61,
              "beat": 9.5,
              "dur": 1.0,
              "vel": 105
            },
            {
              "note": "G#2",
              "pitch": 56,
              "beat": 11.98,
              "dur": 1.0,
              "vel": 105
            },
            {
              "note": "C#1",
              "pitch": 37,
              "beat": 12.0,
              "dur": 1.0,
              "vel": 105
            },
            {
              "note": "C#2",
              "pitch": 49,
              "beat": 12.0,
              "dur": 1.0,
              "vel": 105
            },
            {
              "note": "C#3",
              "pitch": 61,
              "beat": 12.0,
              "dur": 1.0,
              "vel": 105
            },
            {
              "note": "F3",
              "pitch": 65,
              "beat": 12.0,
              "dur": 1.0,
              "vel": 105
            },
            {
              "note": "G#2",
              "pitch": 56,
              "beat": 13.48,
              "dur": 1.0,
              "vel": 105
            },
            {
              "note": "C#1",
              "pitch": 37,
              "beat": 13.5,
              "dur": 1.0,
              "vel": 105
            },
            {
              "note": "C#2",
              "pitch": 49,
              "beat": 13.5,
              "dur": 1.0,
              "vel": 105
            },
            {
              "note": "C#3",
              "pitch": 61,
              "beat": 13.5,
              "dur": 1.0,
              "vel": 105
            },
            {
              "note": "F3",
              "pitch": 65,
              "beat": 13.5,
              "dur": 1.0,
              "vel": 105
            },
            {
              "note": "G#2",
              "pitch": 56,
              "beat": 14.48,
              "dur": 1.5,
              "vel": 105
            },
            {
              "note": "C#1",
              "pitch": 37,
              "beat": 14.5,
              "dur": 1.5,
              "vel": 105
            },
            {
              "note": "C#2",
              "pitch": 49,
              "beat": 14.5,
              "dur": 1.5,
              "vel": 105
            },
            {
              "note": "C#3",
              "pitch": 61,
              "beat": 14.5,
              "dur": 1.5,
              "vel": 105
            },
            {
              "note": "F3",
              "pitch": 65,
              "beat": 14.5,
              "dur": 1.5,
              "vel": 105
            }
          ]
        },
        {
          "bar_start": 131.0,
          "bar_end": 131.25,
          "name": "",
          "notes": [
            {
              "note": "F#1",
              "pitch": 42,
              "beat": 0.0,
              "dur": 1.0,
              "vel": 105
            },
            {
              "note": "F#2",
              "pitch": 54,
              "beat": 0.0,
              "dur": 1.0,
              "vel": 105
            },
            {
              "note": "A#2",
              "pitch": 58,
              "beat": 0.0,
              "dur": 1.0,
              "vel": 105
            },
            {
              "note": "C#3",
              "pitch": 61,
              "beat": 0.0,
              "dur": 1.0,
              "vel": 105
            },
            {
              "note": "F3",
              "pitch": 65,
              "beat": 0.0,
              "dur": 1.0,
              "vel": 105
            },
            {
              "note": "F#1",
              "pitch": 42,
              "beat": 1.5,
              "dur": 1.0,
              "vel": 105
            },
            {
              "note": "F#2",
              "pitch": 54,
              "beat": 1.5,
              "dur": 1.0,
              "vel": 105
            },
            {
              "note": "A#2",
              "pitch": 58,
              "beat": 1.5,
              "dur": 1.0,
              "vel": 105
            },
            {
              "note": "C#3",
              "pitch": 61,
              "beat": 1.5,
              "dur": 1.0,
              "vel": 105
            },
            {
              "note": "F3",
              "pitch": 65,
              "beat": 1.5,
              "dur": 1.0,
              "vel": 105
            },
            {
              "note": "G#2",
              "pitch": 56,
              "beat": 3.98,
              "dur": 1.0,
              "vel": 105
            },
            {
              "note": "C#2",
              "pitch": 49,
              "beat": 4.0,
              "dur": 1.0,
              "vel": 105
            },
            {
              "note": "C#3",
              "pitch": 61,
              "beat": 4.0,
              "dur": 1.0,
              "vel": 105
            },
            {
              "note": "F3",
              "pitch": 65,
              "beat": 4.0,
              "dur": 1.0,
              "vel": 105
            },
            {
              "note": "C#1",
              "pitch": 37,
              "beat": 4.01,
              "dur": 1.0,
              "vel": 105
            },
            {
              "note": "G#2",
              "pitch": 56,
              "beat": 5.48,
              "dur": 1.0,
              "vel": 105
            },
            {
              "note": "C#2",
              "pitch": 49,
              "beat": 5.5,
              "dur": 1.0,
              "vel": 105
            },
            {
              "note": "C#3",
              "pitch": 61,
              "beat": 5.5,
              "dur": 1.0,
              "vel": 105
            },
            {
              "note": "F3",
              "pitch": 65,
              "beat": 5.5,
              "dur": 1.0,
              "vel": 105
            },
            {
              "note": "C#1",
              "pitch": 37,
              "beat": 5.51,
              "dur": 1.0,
              "vel": 105
            },
            {
              "note": "A#0",
              "pitch": 34,
              "beat": 8.0,
              "dur": 1.0,
              "vel": 105
            },
            {
              "note": "A#1",
              "pitch": 46,
              "beat": 8.0,
              "dur": 1.0,
              "vel": 105
            },
            {
              "note": "F2",
              "pitch": 53,
              "beat": 8.0,
              "dur": 1.0,
              "vel": 105
            },
            {
              "note": "A#2",
              "pitch": 58,
              "beat": 8.0,
              "dur": 1.0,
              "vel": 105
            },
            {
              "note": "C#3",
              "pitch": 61,
              "beat": 8.0,
              "dur": 1.0,
              "vel": 105
            },
            {
              "note": "A#0",
              "pitch": 34,
              "beat": 9.5,
              "dur": 1.0,
              "vel": 105
            },
            {
              "note": "A#1",
              "pitch": 46,
              "beat": 9.5,
              "dur": 1.0,
              "vel": 105
            },
            {
              "note": "F2",
              "pitch": 53,
              "beat": 9.5,
              "dur": 1.0,
              "vel": 105
            },
            {
              "note": "A#2",
              "pitch": 58,
              "beat": 9.5,
              "dur": 1.0,
              "vel": 105
            },
            {
              "note": "C#3",
              "pitch": 61,
              "beat": 9.5,
              "dur": 1.0,
              "vel": 105
            },
            {
              "note": "G#2",
              "pitch": 56,
              "beat": 11.98,
              "dur": 1.0,
              "vel": 105
            },
            {
              "note": "C#1",
              "pitch": 37,
              "beat": 12.0,
              "dur": 1.0,
              "vel": 105
            },
            {
              "note": "C#2",
              "pitch": 49,
              "beat": 12.0,
              "dur": 1.0,
              "vel": 105
            },
            {
              "note": "C#3",
              "pitch": 61,
              "beat": 12.0,
              "dur": 1.0,
              "vel": 105
            },
            {
              "note": "F3",
              "pitch": 65,
              "beat": 12.0,
              "dur": 1.0,
              "vel": 105
            },
            {
              "note": "G#2",
              "pitch": 56,
              "beat": 13.48,
              "dur": 1.0,
              "vel": 105
            },
            {
              "note": "C#1",
              "pitch": 37,
              "beat": 13.5,
              "dur": 1.0,
              "vel": 105
            },
            {
              "note": "C#2",
              "pitch": 49,
              "beat": 13.5,
              "dur": 1.0,
              "vel": 105
            },
            {
              "note": "C#3",
              "pitch": 61,
              "beat": 13.5,
              "dur": 1.0,
              "vel": 105
            },
            {
              "note": "F3",
              "pitch": 65,
              "beat": 13.5,
              "dur": 1.0,
              "vel": 105
            },
            {
              "note": "G#2",
              "pitch": 56,
              "beat": 14.48,
              "dur": 1.5,
              "vel": 105
            },
            {
              "note": "C#1",
              "pitch": 37,
              "beat": 14.5,
              "dur": 1.5,
              "vel": 105
            },
            {
              "note": "C#2",
              "pitch": 49,
              "beat": 14.5,
              "dur": 1.5,
              "vel": 105
            },
            {
              "note": "C#3",
              "pitch": 61,
              "beat": 14.5,
              "dur": 1.5,
              "vel": 105
            },
            {
              "note": "F3",
              "pitch": 65,
              "beat": 14.5,
              "dur": 1.5,
              "vel": 105
            }
          ]
        },
        {
          "bar_start": 132.0,
          "bar_end": 132.25,
          "name": "",
          "notes": [
            {
              "note": "F#1",
              "pitch": 42,
              "beat": 0.0,
              "dur": 1.0,
              "vel": 105
            },
            {
              "note": "F#2",
              "pitch": 54,
              "beat": 0.0,
              "dur": 1.0,
              "vel": 105
            },
            {
              "note": "A#2",
              "pitch": 58,
              "beat": 0.0,
              "dur": 1.0,
              "vel": 105
            },
            {
              "note": "C#3",
              "pitch": 61,
              "beat": 0.0,
              "dur": 1.0,
              "vel": 105
            },
            {
              "note": "F3",
              "pitch": 65,
              "beat": 0.0,
              "dur": 1.0,
              "vel": 105
            },
            {
              "note": "F#1",
              "pitch": 42,
              "beat": 1.5,
              "dur": 1.0,
              "vel": 105
            },
            {
              "note": "F#2",
              "pitch": 54,
              "beat": 1.5,
              "dur": 1.0,
              "vel": 105
            },
            {
              "note": "A#2",
              "pitch": 58,
              "beat": 1.5,
              "dur": 1.0,
              "vel": 105
            },
            {
              "note": "C#3",
              "pitch": 61,
              "beat": 1.5,
              "dur": 1.0,
              "vel": 105
            },
            {
              "note": "F3",
              "pitch": 65,
              "beat": 1.5,
              "dur": 1.0,
              "vel": 105
            },
            {
              "note": "G#2",
              "pitch": 56,
              "beat": 3.98,
              "dur": 1.0,
              "vel": 105
            },
            {
              "note": "C#2",
              "pitch": 49,
              "beat": 4.0,
              "dur": 1.0,
              "vel": 105
            },
            {
              "note": "C#3",
              "pitch": 61,
              "beat": 4.0,
              "dur": 1.0,
              "vel": 105
            },
            {
              "note": "F3",
              "pitch": 65,
              "beat": 4.0,
              "dur": 1.0,
              "vel": 105
            },
            {
              "note": "C#1",
              "pitch": 37,
              "beat": 4.01,
              "dur": 1.0,
              "vel": 105
            },
            {
              "note": "G#2",
              "pitch": 56,
              "beat": 5.48,
              "dur": 1.0,
              "vel": 105
            },
            {
              "note": "C#2",
              "pitch": 49,
              "beat": 5.5,
              "dur": 1.0,
              "vel": 105
            },
            {
              "note": "C#3",
              "pitch": 61,
              "beat": 5.5,
              "dur": 1.0,
              "vel": 105
            },
            {
              "note": "F3",
              "pitch": 65,
              "beat": 5.5,
              "dur": 1.0,
              "vel": 105
            },
            {
              "note": "C#1",
              "pitch": 37,
              "beat": 5.51,
              "dur": 1.0,
              "vel": 105
            },
            {
              "note": "A#0",
              "pitch": 34,
              "beat": 8.0,
              "dur": 1.0,
              "vel": 105
            },
            {
              "note": "A#1",
              "pitch": 46,
              "beat": 8.0,
              "dur": 1.0,
              "vel": 105
            },
            {
              "note": "F2",
              "pitch": 53,
              "beat": 8.0,
              "dur": 1.0,
              "vel": 105
            },
            {
              "note": "A#2",
              "pitch": 58,
              "beat": 8.0,
              "dur": 1.0,
              "vel": 105
            },
            {
              "note": "C#3",
              "pitch": 61,
              "beat": 8.0,
              "dur": 1.0,
              "vel": 105
            },
            {
              "note": "A#0",
              "pitch": 34,
              "beat": 9.5,
              "dur": 1.0,
              "vel": 105
            },
            {
              "note": "A#1",
              "pitch": 46,
              "beat": 9.5,
              "dur": 1.0,
              "vel": 105
            },
            {
              "note": "F2",
              "pitch": 53,
              "beat": 9.5,
              "dur": 1.0,
              "vel": 105
            },
            {
              "note": "A#2",
              "pitch": 58,
              "beat": 9.5,
              "dur": 1.0,
              "vel": 105
            },
            {
              "note": "C#3",
              "pitch": 61,
              "beat": 9.5,
              "dur": 1.0,
              "vel": 105
            },
            {
              "note": "G#2",
              "pitch": 56,
              "beat": 11.98,
              "dur": 1.0,
              "vel": 105
            },
            {
              "note": "C#1",
              "pitch": 37,
              "beat": 12.0,
              "dur": 1.0,
              "vel": 105
            },
            {
              "note": "C#2",
              "pitch": 49,
              "beat": 12.0,
              "dur": 1.0,
              "vel": 105
            },
            {
              "note": "C#3",
              "pitch": 61,
              "beat": 12.0,
              "dur": 1.0,
              "vel": 105
            },
            {
              "note": "F3",
              "pitch": 65,
              "beat": 12.0,
              "dur": 1.0,
              "vel": 105
            },
            {
              "note": "G#2",
              "pitch": 56,
              "beat": 13.48,
              "dur": 1.0,
              "vel": 105
            },
            {
              "note": "C#1",
              "pitch": 37,
              "beat": 13.5,
              "dur": 1.0,
              "vel": 105
            },
            {
              "note": "C#2",
              "pitch": 49,
              "beat": 13.5,
              "dur": 1.0,
              "vel": 105
            },
            {
              "note": "C#3",
              "pitch": 61,
              "beat": 13.5,
              "dur": 1.0,
              "vel": 105
            },
            {
              "note": "F3",
              "pitch": 65,
              "beat": 13.5,
              "dur": 1.0,
              "vel": 105
            },
            {
              "note": "G#2",
              "pitch": 56,
              "beat": 14.48,
              "dur": 1.5,
              "vel": 105
            },
            {
              "note": "C#1",
              "pitch": 37,
              "beat": 14.5,
              "dur": 1.5,
              "vel": 105
            },
            {
              "note": "C#2",
              "pitch": 49,
              "beat": 14.5,
              "dur": 1.5,
              "vel": 105
            },
            {
              "note": "C#3",
              "pitch": 61,
              "beat": 14.5,
              "dur": 1.5,
              "vel": 105
            },
            {
              "note": "F3",
              "pitch": 65,
              "beat": 14.5,
              "dur": 1.5,
              "vel": 105
            }
          ]
        },
        {
          "bar_start": 133.0,
          "bar_end": 133.25,
          "name": "",
          "notes": [
            {
              "note": "F#1",
              "pitch": 42,
              "beat": 0.0,
              "dur": 1.0,
              "vel": 105
            },
            {
              "note": "F#2",
              "pitch": 54,
              "beat": 0.0,
              "dur": 1.0,
              "vel": 105
            },
            {
              "note": "A#2",
              "pitch": 58,
              "beat": 0.0,
              "dur": 1.0,
              "vel": 105
            },
            {
              "note": "C#3",
              "pitch": 61,
              "beat": 0.0,
              "dur": 1.0,
              "vel": 105
            },
            {
              "note": "F3",
              "pitch": 65,
              "beat": 0.0,
              "dur": 1.0,
              "vel": 105
            },
            {
              "note": "F#1",
              "pitch": 42,
              "beat": 1.5,
              "dur": 1.0,
              "vel": 105
            },
            {
              "note": "F#2",
              "pitch": 54,
              "beat": 1.5,
              "dur": 1.0,
              "vel": 105
            },
            {
              "note": "A#2",
              "pitch": 58,
              "beat": 1.5,
              "dur": 1.0,
              "vel": 105
            },
            {
              "note": "C#3",
              "pitch": 61,
              "beat": 1.5,
              "dur": 1.0,
              "vel": 105
            },
            {
              "note": "F3",
              "pitch": 65,
              "beat": 1.5,
              "dur": 1.0,
              "vel": 105
            },
            {
              "note": "G#2",
              "pitch": 56,
              "beat": 3.98,
              "dur": 1.0,
              "vel": 105
            },
            {
              "note": "C#2",
              "pitch": 49,
              "beat": 4.0,
              "dur": 1.0,
              "vel": 105
            },
            {
              "note": "C#3",
              "pitch": 61,
              "beat": 4.0,
              "dur": 1.0,
              "vel": 105
            },
            {
              "note": "F3",
              "pitch": 65,
              "beat": 4.0,
              "dur": 1.0,
              "vel": 105
            },
            {
              "note": "C#1",
              "pitch": 37,
              "beat": 4.01,
              "dur": 1.0,
              "vel": 105
            },
            {
              "note": "G#2",
              "pitch": 56,
              "beat": 5.48,
              "dur": 1.0,
              "vel": 105
            },
            {
              "note": "C#2",
              "pitch": 49,
              "beat": 5.5,
              "dur": 1.0,
              "vel": 105
            },
            {
              "note": "C#3",
              "pitch": 61,
              "beat": 5.5,
              "dur": 1.0,
              "vel": 105
            },
            {
              "note": "F3",
              "pitch": 65,
              "beat": 5.5,
              "dur": 1.0,
              "vel": 105
            },
            {
              "note": "C#1",
              "pitch": 37,
              "beat": 5.51,
              "dur": 1.0,
              "vel": 105
            },
            {
              "note": "A#0",
              "pitch": 34,
              "beat": 8.0,
              "dur": 1.0,
              "vel": 105
            },
            {
              "note": "A#1",
              "pitch": 46,
              "beat": 8.0,
              "dur": 1.0,
              "vel": 105
            },
            {
              "note": "F2",
              "pitch": 53,
              "beat": 8.0,
              "dur": 1.0,
              "vel": 105
            },
            {
              "note": "A#2",
              "pitch": 58,
              "beat": 8.0,
              "dur": 1.0,
              "vel": 105
            },
            {
              "note": "C#3",
              "pitch": 61,
              "beat": 8.0,
              "dur": 1.0,
              "vel": 105
            },
            {
              "note": "A#0",
              "pitch": 34,
              "beat": 9.5,
              "dur": 1.0,
              "vel": 105
            },
            {
              "note": "A#1",
              "pitch": 46,
              "beat": 9.5,
              "dur": 1.0,
              "vel": 105
            },
            {
              "note": "F2",
              "pitch": 53,
              "beat": 9.5,
              "dur": 1.0,
              "vel": 105
            },
            {
              "note": "A#2",
              "pitch": 58,
              "beat": 9.5,
              "dur": 1.0,
              "vel": 105
            },
            {
              "note": "C#3",
              "pitch": 61,
              "beat": 9.5,
              "dur": 1.0,
              "vel": 105
            },
            {
              "note": "G#2",
              "pitch": 56,
              "beat": 11.98,
              "dur": 1.0,
              "vel": 105
            },
            {
              "note": "C#1",
              "pitch": 37,
              "beat": 12.0,
              "dur": 1.0,
              "vel": 105
            },
            {
              "note": "C#2",
              "pitch": 49,
              "beat": 12.0,
              "dur": 1.0,
              "vel": 105
            },
            {
              "note": "C#3",
              "pitch": 61,
              "beat": 12.0,
              "dur": 1.0,
              "vel": 105
            },
            {
              "note": "F3",
              "pitch": 65,
              "beat": 12.0,
              "dur": 1.0,
              "vel": 105
            },
            {
              "note": "G#2",
              "pitch": 56,
              "beat": 13.48,
              "dur": 1.0,
              "vel": 105
            },
            {
              "note": "C#1",
              "pitch": 37,
              "beat": 13.5,
              "dur": 1.0,
              "vel": 105
            },
            {
              "note": "C#2",
              "pitch": 49,
              "beat": 13.5,
              "dur": 1.0,
              "vel": 105
            },
            {
              "note": "C#3",
              "pitch": 61,
              "beat": 13.5,
              "dur": 1.0,
              "vel": 105
            },
            {
              "note": "F3",
              "pitch": 65,
              "beat": 13.5,
              "dur": 1.0,
              "vel": 105
            },
            {
              "note": "G#2",
              "pitch": 56,
              "beat": 14.48,
              "dur": 1.5,
              "vel": 105
            },
            {
              "note": "C#1",
              "pitch": 37,
              "beat": 14.5,
              "dur": 1.5,
              "vel": 105
            },
            {
              "note": "C#2",
              "pitch": 49,
              "beat": 14.5,
              "dur": 1.5,
              "vel": 105
            },
            {
              "note": "C#3",
              "pitch": 61,
              "beat": 14.5,
              "dur": 1.5,
              "vel": 105
            },
            {
              "note": "F3",
              "pitch": 65,
              "beat": 14.5,
              "dur": 1.5,
              "vel": 105
            }
          ]
        },
        {
          "bar_start": 136.0,
          "bar_end": 159.0,
          "name": "",
          "notes": [
            {
              "note": "F#1",
              "pitch": 42,
              "beat": 0.0,
              "dur": 1.0,
              "vel": 105
            },
            {
              "note": "F#2",
              "pitch": 54,
              "beat": 0.0,
              "dur": 1.0,
              "vel": 105
            },
            {
              "note": "A#2",
              "pitch": 58,
              "beat": 0.0,
              "dur": 1.0,
              "vel": 105
            },
            {
              "note": "C#3",
              "pitch": 61,
              "beat": 0.0,
              "dur": 1.0,
              "vel": 105
            },
            {
              "note": "F3",
              "pitch": 65,
              "beat": 0.0,
              "dur": 1.0,
              "vel": 105
            },
            {
              "note": "F#1",
              "pitch": 42,
              "beat": 1.5,
              "dur": 1.0,
              "vel": 105
            },
            {
              "note": "F#2",
              "pitch": 54,
              "beat": 1.5,
              "dur": 1.0,
              "vel": 105
            },
            {
              "note": "A#2",
              "pitch": 58,
              "beat": 1.5,
              "dur": 1.0,
              "vel": 105
            },
            {
              "note": "C#3",
              "pitch": 61,
              "beat": 1.5,
              "dur": 1.0,
              "vel": 105
            },
            {
              "note": "F3",
              "pitch": 65,
              "beat": 1.5,
              "dur": 1.0,
              "vel": 105
            },
            {
              "note": "G#2",
              "pitch": 56,
              "beat": 3.98,
              "dur": 1.0,
              "vel": 105
            },
            {
              "note": "C#2",
              "pitch": 49,
              "beat": 4.0,
              "dur": 1.0,
              "vel": 105
            },
            {
              "note": "C#3",
              "pitch": 61,
              "beat": 4.0,
              "dur": 1.0,
              "vel": 105
            },
            {
              "note": "F3",
              "pitch": 65,
              "beat": 4.0,
              "dur": 1.0,
              "vel": 105
            },
            {
              "note": "C#1",
              "pitch": 37,
              "beat": 4.01,
              "dur": 1.0,
              "vel": 105
            },
            {
              "note": "G#2",
              "pitch": 56,
              "beat": 5.48,
              "dur": 1.0,
              "vel": 105
            },
            {
              "note": "C#2",
              "pitch": 49,
              "beat": 5.5,
              "dur": 1.0,
              "vel": 105
            },
            {
              "note": "C#3",
              "pitch": 61,
              "beat": 5.5,
              "dur": 1.0,
              "vel": 105
            },
            {
              "note": "F3",
              "pitch": 65,
              "beat": 5.5,
              "dur": 1.0,
              "vel": 105
            },
            {
              "note": "C#1",
              "pitch": 37,
              "beat": 5.51,
              "dur": 1.0,
              "vel": 105
            },
            {
              "note": "A#0",
              "pitch": 34,
              "beat": 8.0,
              "dur": 1.0,
              "vel": 105
            },
            {
              "note": "A#1",
              "pitch": 46,
              "beat": 8.0,
              "dur": 1.0,
              "vel": 105
            },
            {
              "note": "F2",
              "pitch": 53,
              "beat": 8.0,
              "dur": 1.0,
              "vel": 105
            },
            {
              "note": "A#2",
              "pitch": 58,
              "beat": 8.0,
              "dur": 1.0,
              "vel": 105
            },
            {
              "note": "C#3",
              "pitch": 61,
              "beat": 8.0,
              "dur": 1.0,
              "vel": 105
            },
            {
              "note": "A#0",
              "pitch": 34,
              "beat": 9.5,
              "dur": 1.0,
              "vel": 105
            },
            {
              "note": "A#1",
              "pitch": 46,
              "beat": 9.5,
              "dur": 1.0,
              "vel": 105
            },
            {
              "note": "F2",
              "pitch": 53,
              "beat": 9.5,
              "dur": 1.0,
              "vel": 105
            },
            {
              "note": "A#2",
              "pitch": 58,
              "beat": 9.5,
              "dur": 1.0,
              "vel": 105
            },
            {
              "note": "C#3",
              "pitch": 61,
              "beat": 9.5,
              "dur": 1.0,
              "vel": 105
            },
            {
              "note": "G#2",
              "pitch": 56,
              "beat": 11.98,
              "dur": 1.0,
              "vel": 105
            },
            {
              "note": "C#1",
              "pitch": 37,
              "beat": 12.0,
              "dur": 1.0,
              "vel": 105
            },
            {
              "note": "C#2",
              "pitch": 49,
              "beat": 12.0,
              "dur": 1.0,
              "vel": 105
            },
            {
              "note": "C#3",
              "pitch": 61,
              "beat": 12.0,
              "dur": 1.0,
              "vel": 105
            },
            {
              "note": "F3",
              "pitch": 65,
              "beat": 12.0,
              "dur": 1.0,
              "vel": 105
            },
            {
              "note": "G#2",
              "pitch": 56,
              "beat": 13.48,
              "dur": 1.0,
              "vel": 105
            },
            {
              "note": "C#1",
              "pitch": 37,
              "beat": 13.5,
              "dur": 1.0,
              "vel": 105
            },
            {
              "note": "C#2",
              "pitch": 49,
              "beat": 13.5,
              "dur": 1.0,
              "vel": 105
            },
            {
              "note": "C#3",
              "pitch": 61,
              "beat": 13.5,
              "dur": 1.0,
              "vel": 105
            },
            {
              "note": "F3",
              "pitch": 65,
              "beat": 13.5,
              "dur": 1.0,
              "vel": 105
            },
            {
              "note": "G#2",
              "pitch": 56,
              "beat": 14.48,
              "dur": 1.5,
              "vel": 105
            },
            {
              "note": "C#1",
              "pitch": 37,
              "beat": 14.5,
              "dur": 1.5,
              "vel": 105
            },
            {
              "note": "C#2",
              "pitch": 49,
              "beat": 14.5,
              "dur": 1.5,
              "vel": 105
            },
            {
              "note": "C#3",
              "pitch": 61,
              "beat": 14.5,
              "dur": 1.5,
              "vel": 105
            },
            {
              "note": "F3",
              "pitch": 65,
              "beat": 14.5,
              "dur": 1.5,
              "vel": 105
            }
          ]
        }
      ],
      "automations": [],
      "children": []
    },
    "69": {
      "id": "69",
      "name": "white noise",
      "type": "MidiTrack",
      "group_id": "71",
      "devices": [
        {
          "type": "InstrumentGroupDevice",
          "On": "true",
          "AttackTime": "0.1000000015",
          "AttackLevel": "0.0003162277571",
          "AttackSlope": "0",
          "DecayTime": "599.999878",
          "DecayLevel": "1",
          "DecaySlope": "1",
          "SustainLevel": "1",
          "ReleaseTime": "50.0000038",
          "ReleaseLevel": "0.0003162277571",
          "ReleaseSlope": "1",
          "LoopMode": "0",
          "LoopTime": "100.000031",
          "RepeatTime": "3",
          "TimeVelScale": "0",
          "Coarse": "1",
          "Fine": "0",
          "VelCoarseScale": "0",
          "VelCoarseScaleQuantized": "true",
          "FixedFrequencyOn": "false"
        },
        {
          "type": "AudioEffectGroupDevice",
          "On": "true",
          "LegacyFilterType": "0",
          "FilterType": "1",
          "CircuitLpHp": "0",
          "CircuitBpNoMo": "0",
          "Slope": "true",
          "Cutoff": "127",
          "LegacyQ": "0.8199999928",
          "Resonance": "0",
          "Morph": "0",
          "Drive": "0",
          "ModHub": "0",
          "Attack": "6",
          "Release": "200",
          "LfoAmount": "0",
          "Type": "0",
          "Frequency": "0.1099999994",
          "RateType": "0",
          "BeatRate": "4",
          "StereoMode": "0"
        }
      ],
      "clips": [
        {
          "bar_start": 44.0,
          "bar_end": 48.0,
          "name": "",
          "notes": [
            {
              "note": "C3",
              "pitch": 60,
              "beat": 0.0,
              "dur": 16.0,
              "vel": 127
            }
          ]
        }
      ],
      "automations": [],
      "children": []
    },
    "99": {
      "id": "99",
      "name": "snare 909",
      "type": "MidiTrack",
      "group_id": "71",
      "devices": [
        {
          "type": "OriginalSimpler",
          "sample": "Snare-808-Tone3-r.wav",
          "Attack": "0.1000000015",
          "SampleStart": "0",
          "LoopMode": "0"
        }
      ],
      "clips": [
        {
          "bar_start": 72.0,
          "bar_end": 78.0,
          "name": "",
          "notes": [
            {
              "note": "C3",
              "pitch": 60,
              "beat": 0.0,
              "dur": 0.25,
              "vel": 97
            },
            {
              "note": "C3",
              "pitch": 60,
              "beat": 0.25,
              "dur": 0.25,
              "vel": 97
            },
            {
              "note": "C3",
              "pitch": 60,
              "beat": 0.5,
              "dur": 0.25,
              "vel": 97
            },
            {
              "note": "C3",
              "pitch": 60,
              "beat": 0.75,
              "dur": 0.25,
              "vel": 97
            },
            {
              "note": "C3",
              "pitch": 60,
              "beat": 1.0,
              "dur": 0.25,
              "vel": 97
            },
            {
              "note": "C3",
              "pitch": 60,
              "beat": 1.25,
              "dur": 0.25,
              "vel": 97
            },
            {
              "note": "C3",
              "pitch": 60,
              "beat": 1.5,
              "dur": 0.25,
              "vel": 97
            },
            {
              "note": "C3",
              "pitch": 60,
              "beat": 1.75,
              "dur": 0.25,
              "vel": 97
            },
            {
              "note": "C3",
              "pitch": 60,
              "beat": 2.0,
              "dur": 0.25,
              "vel": 97
            },
            {
              "note": "C3",
              "pitch": 60,
              "beat": 2.25,
              "dur": 0.25,
              "vel": 97
            },
            {
              "note": "C3",
              "pitch": 60,
              "beat": 2.5,
              "dur": 0.25,
              "vel": 97
            },
            {
              "note": "C3",
              "pitch": 60,
              "beat": 2.75,
              "dur": 0.25,
              "vel": 97
            },
            {
              "note": "C3",
              "pitch": 60,
              "beat": 3.0,
              "dur": 0.25,
              "vel": 97
            },
            {
              "note": "C3",
              "pitch": 60,
              "beat": 3.25,
              "dur": 0.25,
              "vel": 97
            },
            {
              "note": "C3",
              "pitch": 60,
              "beat": 3.5,
              "dur": 0.25,
              "vel": 97
            },
            {
              "note": "C3",
              "pitch": 60,
              "beat": 3.75,
              "dur": 0.25,
              "vel": 97
            }
          ]
        },
        {
          "bar_start": 128.0,
          "bar_end": 134.0,
          "name": "",
          "notes": [
            {
              "note": "C3",
              "pitch": 60,
              "beat": 0.0,
              "dur": 0.25,
              "vel": 97
            },
            {
              "note": "C3",
              "pitch": 60,
              "beat": 0.25,
              "dur": 0.25,
              "vel": 97
            },
            {
              "note": "C3",
              "pitch": 60,
              "beat": 0.5,
              "dur": 0.25,
              "vel": 97
            },
            {
              "note": "C3",
              "pitch": 60,
              "beat": 0.75,
              "dur": 0.25,
              "vel": 97
            },
            {
              "note": "C3",
              "pitch": 60,
              "beat": 1.0,
              "dur": 0.25,
              "vel": 97
            },
            {
              "note": "C3",
              "pitch": 60,
              "beat": 1.25,
              "dur": 0.25,
              "vel": 97
            },
            {
              "note": "C3",
              "pitch": 60,
              "beat": 1.5,
              "dur": 0.25,
              "vel": 97
            },
            {
              "note": "C3",
              "pitch": 60,
              "beat": 1.75,
              "dur": 0.25,
              "vel": 97
            },
            {
              "note": "C3",
              "pitch": 60,
              "beat": 2.0,
              "dur": 0.25,
              "vel": 97
            },
            {
              "note": "C3",
              "pitch": 60,
              "beat": 2.25,
              "dur": 0.25,
              "vel": 97
            },
            {
              "note": "C3",
              "pitch": 60,
              "beat": 2.5,
              "dur": 0.25,
              "vel": 97
            },
            {
              "note": "C3",
              "pitch": 60,
              "beat": 2.75,
              "dur": 0.25,
              "vel": 97
            },
            {
              "note": "C3",
              "pitch": 60,
              "beat": 3.0,
              "dur": 0.25,
              "vel": 97
            },
            {
              "note": "C3",
              "pitch": 60,
              "beat": 3.25,
              "dur": 0.25,
              "vel": 97
            },
            {
              "note": "C3",
              "pitch": 60,
              "beat": 3.5,
              "dur": 0.25,
              "vel": 97
            },
            {
              "note": "C3",
              "pitch": 60,
              "beat": 3.75,
              "dur": 0.25,
              "vel": 97
            }
          ]
        }
      ],
      "automations": [],
      "children": []
    },
    "8": {
      "id": "8",
      "name": "Vocal",
      "type": "AudioTrack",
      "group_id": "61",
      "devices": [],
      "clips": [
        {
          "bar_start": 15.684,
          "bar_end": 162.959,
          "name": ""
        }
      ],
      "automations": [],
      "children": []
    },
    "97": {
      "id": "97",
      "name": "clap 2",
      "type": "AudioTrack",
      "group_id": "64",
      "devices": [],
      "clips": [
        {
          "bar_start": 31.5,
          "bar_end": 32.0,
          "name": ""
        },
        {
          "bar_start": 35.5,
          "bar_end": 36.0,
          "name": ""
        },
        {
          "bar_start": 43.938,
          "bar_end": 44.0,
          "name": ""
        },
        {
          "bar_start": 83.938,
          "bar_end": 84.0,
          "name": ""
        },
        {
          "bar_start": 91.938,
          "bar_end": 92.0,
          "name": ""
        },
        {
          "bar_start": 99.938,
          "bar_end": 100.0,
          "name": ""
        },
        {
          "bar_start": 107.938,
          "bar_end": 108.0,
          "name": ""
        },
        {
          "bar_start": 139.938,
          "bar_end": 140.0,
          "name": ""
        },
        {
          "bar_start": 147.938,
          "bar_end": 148.0,
          "name": ""
        },
        {
          "bar_start": 155.938,
          "bar_end": 156.0,
          "name": ""
        }
      ],
      "automations": [],
      "children": []
    },
    "103": {
      "id": "103",
      "name": "Top Loop",
      "type": "AudioTrack",
      "group_id": "64",
      "devices": [
        {
          "type": "AutoFilter",
          "Cutoff": "71.1111145",
          "Drive": "0",
          "Frequency": "0.1099999994",
          "Resonance": "0.1379310191",
          "Slope": "true",
          "DryWet": "1"
        }
      ],
      "clips": [
        {
          "bar_start": 36.0,
          "bar_end": 48.0,
          "name": ""
        },
        {
          "bar_start": 80.0,
          "bar_end": 95.0,
          "name": ""
        },
        {
          "bar_start": 96.0,
          "bar_end": 111.0,
          "name": ""
        },
        {
          "bar_start": 120.0,
          "bar_end": 120.25,
          "name": ""
        },
        {
          "bar_start": 121.0,
          "bar_end": 121.25,
          "name": ""
        },
        {
          "bar_start": 122.0,
          "bar_end": 122.25,
          "name": ""
        },
        {
          "bar_start": 123.0,
          "bar_end": 123.25,
          "name": ""
        },
        {
          "bar_start": 124.0,
          "bar_end": 124.25,
          "name": ""
        },
        {
          "bar_start": 125.0,
          "bar_end": 125.25,
          "name": ""
        },
        {
          "bar_start": 126.0,
          "bar_end": 126.25,
          "name": ""
        },
        {
          "bar_start": 127.0,
          "bar_end": 127.25,
          "name": ""
        },
        {
          "bar_start": 128.0,
          "bar_end": 128.25,
          "name": ""
        },
        {
          "bar_start": 129.0,
          "bar_end": 129.25,
          "name": ""
        },
        {
          "bar_start": 130.0,
          "bar_end": 130.25,
          "name": ""
        },
        {
          "bar_start": 131.0,
          "bar_end": 131.25,
          "name": ""
        },
        {
          "bar_start": 132.0,
          "bar_end": 132.25,
          "name": ""
        },
        {
          "bar_start": 133.0,
          "bar_end": 133.25,
          "name": ""
        },
        {
          "bar_start": 136.0,
          "bar_end": 159.0,
          "name": ""
        }
      ],
      "automations": [],
      "children": []
    },
    "104": {
      "id": "104",
      "name": "Crash",
      "type": "AudioTrack",
      "group_id": "64",
      "devices": [
        {
          "type": "Reverb",
          "PreDelay": "2.5",
          "RoomSize": "100",
          "DecayTime": "3024.20728",
          "FreezeOn": "false"
        }
      ],
      "clips": [
        {
          "bar_start": 38.0,
          "bar_end": 40.0,
          "name": ""
        },
        {
          "bar_start": 40.0,
          "bar_end": 42.0,
          "name": ""
        },
        {
          "bar_start": 80.0,
          "bar_end": 82.0,
          "name": ""
        },
        {
          "bar_start": 96.0,
          "bar_end": 98.0,
          "name": ""
        },
        {
          "bar_start": 110.0,
          "bar_end": 112.0,
          "name": ""
        },
        {
          "bar_start": 120.0,
          "bar_end": 122.0,
          "name": ""
        },
        {
          "bar_start": 128.0,
          "bar_end": 130.0,
          "name": ""
        },
        {
          "bar_start": 136.0,
          "bar_end": 138.0,
          "name": ""
        }
      ],
      "automations": [],
      "children": []
    },
    "115": {
      "id": "115",
      "name": "sub drop",
      "type": "AudioTrack",
      "group_id": "71",
      "devices": [],
      "clips": [
        {
          "bar_start": 48.0,
          "bar_end": 52.0,
          "name": ""
        }
      ],
      "automations": [],
      "children": []
    },
    "61": {
      "id": "61",
      "name": "VOCAL",
      "type": "GroupTrack",
      "group_id": "-1",
      "devices": [],
      "clips": [],
      "automations": [],
      "children": [
        "8"
      ]
    },
    "64": {
      "id": "64",
      "name": "DRUMS",
      "type": "GroupTrack",
      "group_id": "-1",
      "devices": [
        {
          "type": "AutoFilter",
          "Cutoff": "135",
          "Drive": "0",
          "Frequency": "0.1099999994",
          "Resonance": "0.1379310191",
          "Slope": "true",
          "DryWet": "1"
        }
      ],
      "clips": [],
      "automations": [],
      "children": [
        "98",
        "138",
        "97",
        "103",
        "104"
      ]
    },
    "95": {
      "id": "95",
      "name": "BASS",
      "type": "GroupTrack",
      "group_id": "-1",
      "devices": [
        {
          "type": "PluginDevice",
          "plugin": "Kickstart 2",
          "preset": "",
          "vst_params": []
        }
      ],
      "clips": [],
      "automations": [],
      "children": [
        "65",
        "108",
        "125",
        "102"
      ]
    },
    "67": {
      "id": "67",
      "name": "synth",
      "type": "GroupTrack",
      "group_id": "-1",
      "devices": [
        {
          "type": "Reverb",
          "PreDelay": "35.3078003",
          "RoomSize": "100.000008",
          "DecayTime": "4151.73291",
          "FreezeOn": "false"
        },
        {
          "type": "AutoFilter",
          "Cutoff": "135",
          "Drive": "0",
          "Frequency": "0.1099999994",
          "Resonance": "0.1379310191",
          "Slope": "true",
          "DryWet": "1"
        },
        {
          "type": "PluginDevice",
          "plugin": "Kickstart 2",
          "preset": "",
          "vst_params": []
        }
      ],
      "clips": [],
      "automations": [],
      "children": [
        "94",
        "110",
        "111",
        "112",
        "113",
        "114",
        "136",
        "137",
        "133",
        "127"
      ]
    },
    "133": {
      "id": "133",
      "name": "drop line",
      "type": "GroupTrack",
      "group_id": "67",
      "devices": [
        {
          "type": "MultibandDynamics",
          "DryWet": "1"
        },
        {
          "type": "StereoGain",
          "On": "true",
          "PhaseInvertL": "false",
          "PhaseInvertR": "false",
          "ChannelMode": "1",
          "StereoWidth": "0.1332829446",
          "MidSideBalance": "1",
          "Mono": "false",
          "BassMono": "false",
          "BassMonoFrequency": "120",
          "Balance": "0",
          "Gain": "1",
          "LegacyGain": "0",
          "Mute": "false",
          "DcFilter": "false"
        }
      ],
      "clips": [],
      "automations": [],
      "children": [
        "128",
        "129",
        "134",
        "135"
      ]
    },
    "127": {
      "id": "127",
      "name": "chord",
      "type": "GroupTrack",
      "group_id": "67",
      "devices": [
        {
          "type": "Overdrive",
          "Drive": "25.3968258",
          "DryWet": "14.0625"
        },
        {
          "type": "Amp",
          "On": "true",
          "AmpType": "2",
          "Bass": "5",
          "Middle": "5",
          "Treble": "3.41269851",
          "Presence": "2.53968263",
          "Gain": "5",
          "Volume": "9",
          "DualMono": "true",
          "DryWet": "0.190476194"
        },
        {
          "type": "MultibandDynamics",
          "DryWet": "1"
        },
        {
          "type": "StereoGain",
          "On": "true",
          "PhaseInvertL": "false",
          "PhaseInvertR": "false",
          "ChannelMode": "1",
          "StereoWidth": "0.1703199893",
          "MidSideBalance": "1",
          "Mono": "false",
          "BassMono": "false",
          "BassMonoFrequency": "120",
          "Balance": "0",
          "Gain": "1",
          "LegacyGain": "0",
          "Mute": "false",
          "DcFilter": "false"
        }
      ],
      "clips": [],
      "automations": [],
      "children": [
        "124",
        "126"
      ]
    },
    "71": {
      "id": "71",
      "name": "fx",
      "type": "GroupTrack",
      "group_id": "-1",
      "devices": [],
      "clips": [],
      "automations": [],
      "children": [
        "69",
        "99",
        "115"
      ]
    }
  },
  "track_order": [
    "98",
    "138",
    "65",
    "108",
    "125",
    "102",
    "94",
    "110",
    "111",
    "112",
    "113",
    "114",
    "136",
    "137",
    "128",
    "129",
    "134",
    "135",
    "124",
    "126",
    "69",
    "99",
    "8",
    "97",
    "103",
    "104",
    "115",
    "61",
    "64",
    "95",
    "67",
    "133",
    "127",
    "71"
  ],
  "groups": [
    "61",
    "64",
    "95",
    "67",
    "133",
    "127",
    "71"
  ]
}