{
  "label": "MPH - Raw",
  "tempo": 132.0,
  "tracks": {
    "19": {
      "id": "19",
      "name": "Kick Clap",
      "type": "MidiTrack",
      "group_id": "21",
      "devices": [
        {
          "type": "DrumGroupDevice",
          "On": "true",
          "SampleStart": "0",
          "SampleLength": "1",
          "LoopOn": "false",
          "LoopLength": "1",
          "LoopFade": "0",
          "Reverse": "false",
          "Snap": "true",
          "SampleSelector": "0",
          "IsOn": "false",
          "TransposeKey": "0",
          "TransposeFine": "0",
          "PitchLfoAmount": "0",
          "Volume": "-12",
          "VolumeVelScale": "0.4499999881",
          "VolumeKeyScale": "0",
          "VolumeLfoAmount": "0",
          "Panorama": "0",
          "PanoramaKeyScale": "0",
          "PanoramaRnd": "0"
        },
        {
          "type": "GlueCompressor",
          "Threshold": "0",
          "Ratio": "1",
          "Attack": "3",
          "Release": "3",
          "Gain": "0",
          "DryWet": "1"
        },
        {
          "type": "AutoFilter",
          "Cutoff": "47.3809509",
          "Drive": "0",
          "Frequency": "0.1099999994",
          "Resonance": "0.2182539701",
          "Slope": "true",
          "DryWet": "1"
        }
      ],
      "clips": [
        {
          "bar_start": 4.0,
          "bar_end": 8.0,
          "name": "",
          "notes": [
            {
              "note": "C2",
              "pitch": 48,
              "beat": 0.0,
              "dur": 1.0,
              "vel": 127
            },
            {
              "note": "C2",
              "pitch": 48,
              "beat": 1.0,
              "dur": 1.0,
              "vel": 127
            },
            {
              "note": "C2",
              "pitch": 48,
              "beat": 2.0,
              "dur": 1.0,
              "vel": 127
            },
            {
              "note": "C2",
              "pitch": 48,
              "beat": 3.0,
              "dur": 1.0,
              "vel": 127
            }
          ]
        },
        {
          "bar_start": 16.0,
          "bar_end": 20.0,
          "name": "",
          "notes": [
            {
              "note": "C2",
              "pitch": 48,
              "beat": 0.0,
              "dur": 1.0,
              "vel": 127
            },
            {
              "note": "C2",
              "pitch": 48,
              "beat": 1.0,
              "dur": 1.0,
              "vel": 127
            },
            {
              "note": "C2",
              "pitch": 48,
              "beat": 2.0,
              "dur": 1.0,
              "vel": 127
            },
            {
              "note": "C2",
              "pitch": 48,
              "beat": 3.0,
              "dur": 1.0,
              "vel": 127
            }
          ]
        },
        {
          "bar_start": 20.0,
          "bar_end": 21.75,
          "name": "",
          "notes": [
            {
              "note": "C2",
              "pitch": 48,
              "beat": 0.0,
              "dur": 1.0,
              "vel": 127
            },
            {
              "note": "C2",
              "pitch": 48,
              "beat": 1.0,
              "dur": 1.0,
              "vel": 127
            },
            {
              "note": "D2",
              "pitch": 50,
              "beat": 1.0,
              "dur": 0.438,
              "vel": 127
            },
            {
              "note": "C2",
              "pitch": 48,
              "beat": 2.0,
              "dur": 1.0,
              "vel": 127
            },
            {
              "note": "C2",
              "pitch": 48,
              "beat": 3.0,
              "dur": 1.0,
              "vel": 127
            },
            {
              "note": "D2",
              "pitch": 50,
              "beat": 3.0,
              "dur": 0.438,
              "vel": 127
            }
          ]
        },
        {
          "bar_start": 24.0,
          "bar_end": 31.0,
          "name": "",
          "notes": [
            {
              "note": "C2",
              "pitch": 48,
              "beat": 0.0,
              "dur": 1.0,
              "vel": 127
            },
            {
              "note": "C2",
              "pitch": 48,
              "beat": 1.0,
              "dur": 1.0,
              "vel": 127
            },
            {
              "note": "C#2",
              "pitch": 49,
              "beat": 1.0,
              "dur": 0.5,
              "vel": 127
            },
            {
              "note": "D2",
              "pitch": 50,
              "beat": 1.0,
              "dur": 0.188,
              "vel": 127
            },
            {
              "note": "C2",
              "pitch": 48,
              "beat": 2.0,
              "dur": 1.0,
              "vel": 127
            },
            {
              "note": "C2",
              "pitch": 48,
              "beat": 3.0,
              "dur": 1.0,
              "vel": 127
            },
            {
              "note": "C#2",
              "pitch": 49,
              "beat": 3.0,
              "dur": 0.5,
              "vel": 127
            },
            {
              "note": "D2",
              "pitch": 50,
              "beat": 3.0,
              "dur": 0.188,
              "vel": 127
            }
          ]
        },
        {
          "bar_start": 31.0,
          "bar_end": 32.0,
          "name": "",
          "notes": [
            {
              "note": "C2",
              "pitch": 48,
              "beat": 0.0,
              "dur": 0.5,
              "vel": 127
            },
            {
              "note": "C2",
              "pitch": 48,
              "beat": 0.5,
              "dur": 0.5,
              "vel": 127
            },
            {
              "note": "C2",
              "pitch": 48,
              "beat": 1.0,
              "dur": 0.5,
              "vel": 127
            },
            {
              "note": "C#2",
              "pitch": 49,
              "beat": 1.0,
              "dur": 0.5,
              "vel": 127
            },
            {
              "note": "D2",
              "pitch": 50,
              "beat": 1.0,
              "dur": 0.188,
              "vel": 127
            },
            {
              "note": "C2",
              "pitch": 48,
              "beat": 1.5,
              "dur": 0.5,
              "vel": 127
            },
            {
              "note": "C2",
              "pitch": 48,
              "beat": 2.0,
              "dur": 0.5,
              "vel": 127
            },
            {
              "note": "C2",
              "pitch": 48,
              "beat": 2.5,
              "dur": 0.5,
              "vel": 127
            },
            {
              "note": "C2",
              "pitch": 48,
              "beat": 3.0,
              "dur": 0.312,
              "vel": 127
            },
            {
              "note": "C#2",
              "pitch": 49,
              "beat": 3.0,
              "dur": 0.5,
              "vel": 127
            },
            {
              "note": "D2",
              "pitch": 50,
              "beat": 3.0,
              "dur": 0.188,
              "vel": 127
            }
          ]
        },
        {
          "bar_start": 32.0,
          "bar_end": 39.0,
          "name": "",
          "notes": [
            {
              "note": "C2",
              "pitch": 48,
              "beat": 0.0,
              "dur": 1.0,
              "vel": 127
            },
            {
              "note": "C2",
              "pitch": 48,
              "beat": 1.0,
              "dur": 1.0,
              "vel": 127
            },
            {
              "note": "C#2",
              "pitch": 49,
              "beat": 1.0,
              "dur": 0.5,
              "vel": 127
            },
            {
              "note": "D2",
              "pitch": 50,
              "beat": 1.0,
              "dur": 0.188,
              "vel": 127
            },
            {
              "note": "C2",
              "pitch": 48,
              "beat": 2.0,
              "dur": 1.0,
              "vel": 127
            },
            {
              "note": "C2",
              "pitch": 48,
              "beat": 3.0,
              "dur": 1.0,
              "vel": 127
            },
            {
              "note": "C#2",
              "pitch": 49,
              "beat": 3.0,
              "dur": 0.5,
              "vel": 127
            },
            {
              "note": "D2",
              "pitch": 50,
              "beat": 3.0,
              "dur": 0.188,
              "vel": 127
            }
          ]
        },
        {
          "bar_start": 39.0,
          "bar_end": 40.0,
          "name": "",
          "notes": [
            {
              "note": "C2",
              "pitch": 48,
              "beat": 0.0,
              "dur": 0.5,
              "vel": 127
            },
            {
              "note": "C2",
              "pitch": 48,
              "beat": 0.5,
              "dur": 0.5,
              "vel": 127
            },
            {
              "note": "C2",
              "pitch": 48,
              "beat": 1.0,
              "dur": 0.5,
              "vel": 127
            },
            {
              "note": "C#2",
              "pitch": 49,
              "beat": 1.0,
              "dur": 0.5,
              "vel": 127
            },
            {
              "note": "D2",
              "pitch": 50,
              "beat": 1.0,
              "dur": 0.188,
              "vel": 127
            },
            {
              "note": "C2",
              "pitch": 48,
              "beat": 1.5,
              "dur": 0.5,
              "vel": 127
            },
            {
              "note": "C2",
              "pitch": 48,
              "beat": 2.0,
              "dur": 0.5,
              "vel": 127
            },
            {
              "note": "C2",
              "pitch": 48,
              "beat": 2.5,
              "dur": 0.5,
              "vel": 127
            },
            {
              "note": "C2",
              "pitch": 48,
              "beat": 3.0,
              "dur": 0.312,
              "vel": 127
            },
            {
              "note": "C#2",
              "pitch": 49,
              "beat": 3.0,
              "dur": 0.5,
              "vel": 127
            },
            {
              "note": "D2",
              "pitch": 50,
              "beat": 3.0,
              "dur": 0.188,
              "vel": 127
            }
          ]
        },
        {
          "bar_start": 40.0,
          "bar_end": 44.0,
          "name": "",
          "notes": [
            {
              "note": "C2",
              "pitch": 48,
              "beat": 0.0,
              "dur": 1.0,
              "vel": 127
            },
            {
              "note": "C2",
              "pitch": 48,
              "beat": 1.0,
              "dur": 1.0,
              "vel": 127
            },
            {
              "note": "C2",
              "pitch": 48,
              "beat": 2.0,
              "dur": 1.0,
              "vel": 127
            },
            {
              "note": "C2",
              "pitch": 48,
              "beat": 3.0,
              "dur": 1.0,
              "vel": 127
            }
          ]
        },
        {
          "bar_start": 44.0,
          "bar_end": 45.75,
          "name": "",
          "notes": [
            {
              "note": "C2",
              "pitch": 48,
              "beat": 0.0,
              "dur": 0.5,
              "vel": 127
            },
            {
              "note": "C2",
              "pitch": 48,
              "beat": 0.5,
              "dur": 0.5,
              "vel": 127
            },
            {
              "note": "C2",
              "pitch": 48,
              "beat": 1.0,
              "dur": 0.5,
              "vel": 127
            },
            {
              "note": "C2",
              "pitch": 48,
              "beat": 1.5,
              "dur": 0.5,
              "vel": 127
            },
            {
              "note": "C2",
              "pitch": 48,
              "beat": 2.0,
              "dur": 0.5,
              "vel": 127
            },
            {
              "note": "C2",
              "pitch": 48,
              "beat": 2.5,
              "dur": 0.5,
              "vel": 127
            },
            {
              "note": "C2",
              "pitch": 48,
              "beat": 3.0,
              "dur": 0.5,
              "vel": 127
            },
            {
              "note": "C2",
              "pitch": 48,
              "beat": 3.5,
              "dur": 0.5,
              "vel": 127
            },
            {
              "note": "C2",
              "pitch": 48,
              "beat": 4.0,
              "dur": 0.25,
              "vel": 127
            },
            {
              "note": "C2",
              "pitch": 48,
              "beat": 4.312,
              "dur": 0.188,
              "vel": 127
            },
            {
              "note": "C2",
              "pitch": 48,
              "beat": 4.5,
              "dur": 0.25,
              "vel": 127
            },
            {
              "note": "C2",
              "pitch": 48,
              "beat": 4.812,
              "dur": 0.188,
              "vel": 127
            },
            {
              "note": "C2",
              "pitch": 48,
              "beat": 5.0,
              "dur": 0.25,
              "vel": 127
            },
            {
              "note": "C2",
              "pitch": 48,
              "beat": 5.312,
              "dur": 0.188,
              "vel": 127
            },
            {
              "note": "C2",
              "pitch": 48,
              "beat": 5.5,
              "dur": 0.25,
              "vel": 127
            },
            {
              "note": "C2",
              "pitch": 48,
              "beat": 5.812,
              "dur": 0.188,
              "vel": 127
            },
            {
              "note": "C2",
              "pitch": 48,
              "beat": 6.0,
              "dur": 0.25,
              "vel": 127
            },
            {
              "note": "C2",
              "pitch": 48,
              "beat": 6.312,
              "dur": 0.188,
              "vel": 127
            },
            {
              "note": "C2",
              "pitch": 48,
              "beat": 6.5,
              "dur": 0.25,
              "vel": 127
            },
            {
              "note": "C2",
              "pitch": 48,
              "beat": 6.812,
              "dur": 0.188,
              "vel": 127
            },
            {
              "note": "C2",
              "pitch": 48,
              "beat": 7.0,
              "dur": 0.25,
              "vel": 127
            },
            {
              "note": "C2",
              "pitch": 48,
              "beat": 7.312,
              "dur": 0.188,
              "vel": 127
            },
            {
              "note": "C2",
              "pitch": 48,
              "beat": 7.5,
              "dur": 0.25,
              "vel": 127
            },
            {
              "note": "C2",
              "pitch": 48,
              "beat": 7.812,
              "dur": 0.188,
              "vel": 127
            }
          ]
        },
        {
          "bar_start": 48.0,
          "bar_end": 55.0,
          "name": "",
          "notes": [
            {
              "note": "C2",
              "pitch": 48,
              "beat": 0.0,
              "dur": 1.0,
              "vel": 127
            },
            {
              "note": "C2",
              "pitch": 48,
              "beat": 1.0,
              "dur": 1.0,
              "vel": 127
            },
            {
              "note": "C#2",
              "pitch": 49,
              "beat": 1.0,
              "dur": 0.5,
              "vel": 127
            },
            {
              "note": "D2",
              "pitch": 50,
              "beat": 1.0,
              "dur": 0.188,
              "vel": 127
            },
            {
              "note": "C2",
              "pitch": 48,
              "beat": 2.0,
              "dur": 1.0,
              "vel": 127
            },
            {
              "note": "C2",
              "pitch": 48,
              "beat": 3.0,
              "dur": 1.0,
              "vel": 127
            },
            {
              "note": "C#2",
              "pitch": 49,
              "beat": 3.0,
              "dur": 0.5,
              "vel": 127
            },
            {
              "note": "D2",
              "pitch": 50,
              "beat": 3.0,
              "dur": 0.188,
              "vel": 127
            }
          ]
        },
        {
          "bar_start": 55.0,
          "bar_end": 56.0,
          "name": "",
          "notes": [
            {
              "note": "C2",
              "pitch": 48,
              "beat": 0.0,
              "dur": 0.5,
              "vel": 127
            },
            {
              "note": "C2",
              "pitch": 48,
              "beat": 0.5,
              "dur": 0.5,
              "vel": 127
            },
            {
              "note": "C2",
              "pitch": 48,
              "beat": 1.0,
              "dur": 0.5,
              "vel": 127
            },
            {
              "note": "C#2",
              "pitch": 49,
              "beat": 1.0,
              "dur": 0.5,
              "vel": 127
            },
            {
              "note": "D2",
              "pitch": 50,
              "beat": 1.0,
              "dur": 0.188,
              "vel": 127
            },
            {
              "note": "C2",
              "pitch": 48,
              "beat": 1.5,
              "dur": 0.5,
              "vel": 127
            },
            {
              "note": "C2",
              "pitch": 48,
              "beat": 2.0,
              "dur": 0.5,
              "vel": 127
            },
            {
              "note": "C2",
              "pitch": 48,
              "beat": 2.5,
              "dur": 0.5,
              "vel": 127
            },
            {
              "note": "C2",
              "pitch": 48,
              "beat": 3.0,
              "dur": 0.312,
              "vel": 127
            },
            {
              "note": "C#2",
              "pitch": 49,
              "beat": 3.0,
              "dur": 0.5,
              "vel": 127
            },
            {
              "note": "D2",
              "pitch": 50,
              "beat": 3.0,
              "dur": 0.188,
              "vel": 127
            }
          ]
        },
        {
          "bar_start": 56.0,
          "bar_end": 63.75,
          "name": "",
          "notes": [
            {
              "note": "C2",
              "pitch": 48,
              "beat": 0.0,
              "dur": 1.0,
              "vel": 127
            },
            {
              "note": "C2",
              "pitch": 48,
              "beat": 1.0,
              "dur": 1.0,
              "vel": 127
            },
            {
              "note": "C#2",
              "pitch": 49,
              "beat": 1.0,
              "dur": 0.5,
              "vel": 127
            },
            {
              "note": "D2",
              "pitch": 50,
              "beat": 1.0,
              "dur": 0.188,
              "vel": 127
            },
            {
              "note": "C2",
              "pitch": 48,
              "beat": 2.0,
              "dur": 1.0,
              "vel": 127
            },
            {
              "note": "C2",
              "pitch": 48,
              "beat": 3.0,
              "dur": 1.0,
              "vel": 127
            },
            {
              "note": "C#2",
              "pitch": 49,
              "beat": 3.0,
              "dur": 0.5,
              "vel": 127
            },
            {
              "note": "D2",
              "pitch": 50,
              "beat": 3.0,
              "dur": 0.188,
              "vel": 127
            }
          ]
        },
        {
          "bar_start": 72.0,
          "bar_end": 76.0,
          "name": "",
          "notes": [
            {
              "note": "C2",
              "pitch": 48,
              "beat": 0.0,
              "dur": 1.0,
              "vel": 127
            },
            {
              "note": "C2",
              "pitch": 48,
              "beat": 1.0,
              "dur": 1.0,
              "vel": 127
            },
            {
              "note": "C2",
              "pitch": 48,
              "beat": 2.0,
              "dur": 1.0,
              "vel": 127
            },
            {
              "note": "C2",
              "pitch": 48,
              "beat": 3.0,
              "dur": 1.0,
              "vel": 127
            }
          ]
        },
        {
          "bar_start": 76.0,
          "bar_end": 80.0,
          "name": "",
          "notes": [
            {
              "note": "C2",
              "pitch": 48,
              "beat": 0.0,
              "dur": 0.5,
              "vel": 127
            },
            {
              "note": "C2",
              "pitch": 48,
              "beat": 0.5,
              "dur": 0.5,
              "vel": 127
            },
            {
              "note": "C2",
              "pitch": 48,
              "beat": 1.0,
              "dur": 0.5,
              "vel": 127
            },
            {
              "note": "C2",
              "pitch": 48,
              "beat": 1.5,
              "dur": 0.5,
              "vel": 127
            },
            {
              "note": "C2",
              "pitch": 48,
              "beat": 2.0,
              "dur": 0.5,
              "vel": 127
            },
            {
              "note": "C2",
              "pitch": 48,
              "beat": 2.5,
              "dur": 0.5,
              "vel": 127
            },
            {
              "note": "C2",
              "pitch": 48,
              "beat": 3.0,
              "dur": 0.5,
              "vel": 127
            },
            {
              "note": "C2",
              "pitch": 48,
              "beat": 3.5,
              "dur": 0.5,
              "vel": 127
            }
          ]
        },
        {
          "bar_start": 80.0,
          "bar_end": 81.75,
          "name": "",
          "notes": [
            {
              "note": "C2",
              "pitch": 48,
              "beat": 0.0,
              "dur": 0.25,
              "vel": 127
            },
            {
              "note": "C2",
              "pitch": 48,
              "beat": 0.312,
              "dur": 0.188,
              "vel": 127
            },
            {
              "note": "C2",
              "pitch": 48,
              "beat": 0.5,
              "dur": 0.25,
              "vel": 127
            },
            {
              "note": "C2",
              "pitch": 48,
              "beat": 0.812,
              "dur": 0.188,
              "vel": 127
            },
            {
              "note": "C2",
              "pitch": 48,
              "beat": 1.0,
              "dur": 0.25,
              "vel": 127
            },
            {
              "note": "C2",
              "pitch": 48,
              "beat": 1.312,
              "dur": 0.188,
              "vel": 127
            },
            {
              "note": "C2",
              "pitch": 48,
              "beat": 1.5,
              "dur": 0.25,
              "vel": 127
            },
            {
              "note": "C2",
              "pitch": 48,
              "beat": 1.812,
              "dur": 0.188,
              "vel": 127
            },
            {
              "note": "C2",
              "pitch": 48,
              "beat": 2.0,
              "dur": 0.25,
              "vel": 127
            },
            {
              "note": "C2",
              "pitch": 48,
              "beat": 2.312,
              "dur": 0.188,
              "vel": 127
            },
            {
              "note": "C2",
              "pitch": 48,
              "beat": 2.5,
              "dur": 0.25,
              "vel": 127
            },
            {
              "note": "C2",
              "pitch": 48,
              "beat": 2.812,
              "dur": 0.188,
              "vel": 127
            },
            {
              "note": "C2",
              "pitch": 48,
              "beat": 3.0,
              "dur": 0.25,
              "vel": 127
            },
            {
              "note": "C2",
              "pitch": 48,
              "beat": 3.312,
              "dur": 0.188,
              "vel": 127
            },
            {
              "note": "C2",
              "pitch": 48,
              "beat": 3.5,
              "dur": 0.25,
              "vel": 127
            },
            {
              "note": "C2",
              "pitch": 48,
              "beat": 3.812,
              "dur": 0.188,
              "vel": 127
            }
          ]
        },
        {
          "bar_start": 84.0,
          "bar_end": 85.75,
          "name": "",
          "notes": [
            {
              "note": "C2",
              "pitch": 48,
              "beat": 0.0,
              "dur": 1.0,
              "vel": 127
            },
            {
              "note": "C2",
              "pitch": 48,
              "beat": 1.0,
              "dur": 1.0,
              "vel": 127
            },
            {
              "note": "C2",
              "pitch": 48,
              "beat": 2.0,
              "dur": 1.0,
              "vel": 127
            },
            {
              "note": "C2",
              "pitch": 48,
              "beat": 3.0,
              "dur": 1.0,
              "vel": 127
            }
          ]
        },
        {
          "bar_start": 85.75,
          "bar_end": 91.0,
          "name": "",
          "notes": [
            {
              "note": "C2",
              "pitch": 48,
              "beat": 0.0,
              "dur": 1.0,
              "vel": 127
            },
            {
              "note": "C2",
              "pitch": 48,
              "beat": 1.0,
              "dur": 1.0,
              "vel": 127
            },
            {
              "note": "C#2",
              "pitch": 49,
              "beat": 1.0,
              "dur": 0.5,
              "vel": 127
            },
            {
              "note": "D2",
              "pitch": 50,
              "beat": 1.0,
              "dur": 0.188,
              "vel": 127
            },
            {
              "note": "C2",
              "pitch": 48,
              "beat": 2.0,
              "dur": 1.0,
              "vel": 127
            },
            {
              "note": "C2",
              "pitch": 48,
              "beat": 3.0,
              "dur": 1.0,
              "vel": 127
            },
            {
              "note": "C#2",
              "pitch": 49,
              "beat": 3.0,
              "dur": 0.5,
              "vel": 127
            },
            {
              "note": "D2",
              "pitch": 50,
              "beat": 3.0,
              "dur": 0.188,
              "vel": 127
            }
          ]
        },
        {
          "bar_start": 91.0,
          "bar_end": 92.0,
          "name": "",
          "notes": [
            {
              "note": "C2",
              "pitch": 48,
              "beat": 0.0,
              "dur": 0.5,
              "vel": 127
            },
            {
              "note": "C2",
              "pitch": 48,
              "beat": 0.5,
              "dur": 0.5,
              "vel": 127
            },
            {
              "note": "C2",
              "pitch": 48,
              "beat": 1.0,
              "dur": 0.5,
              "vel": 127
            },
            {
              "note": "C#2",
              "pitch": 49,
              "beat": 1.0,
              "dur": 0.5,
              "vel": 127
            },
            {
              "note": "D2",
              "pitch": 50,
              "beat": 1.0,
              "dur": 0.188,
              "vel": 127
            },
            {
              "note": "C2",
              "pitch": 48,
              "beat": 1.5,
              "dur": 0.5,
              "vel": 127
            },
            {
              "note": "C2",
              "pitch": 48,
              "beat": 2.0,
              "dur": 0.5,
              "vel": 127
            },
            {
              "note": "C2",
              "pitch": 48,
              "beat": 2.5,
              "dur": 0.5,
              "vel": 127
            },
            {
              "note": "C2",
              "pitch": 48,
              "beat": 3.0,
              "dur": 0.312,
              "vel": 127
            },
            {
              "note": "C#2",
              "pitch": 49,
              "beat": 3.0,
              "dur": 0.5,
              "vel": 127
            },
            {
              "note": "D2",
              "pitch": 50,
              "beat": 3.0,
              "dur": 0.188,
              "vel": 127
            }
          ]
        },
        {
          "bar_start": 92.0,
          "bar_end": 99.0,
          "name": "",
          "notes": [
            {
              "note": "C2",
              "pitch": 48,
              "beat": 0.0,
              "dur": 1.0,
              "vel": 127
            },
            {
              "note": "C2",
              "pitch": 48,
              "beat": 1.0,
              "dur": 1.0,
              "vel": 127
            },
            {
              "note": "C#2",
              "pitch": 49,
              "beat": 1.0,
              "dur": 0.5,
              "vel": 127
            },
            {
              "note": "D2",
              "pitch": 50,
              "beat": 1.0,
              "dur": 0.188,
              "vel": 127
            },
            {
              "note": "C2",
              "pitch": 48,
              "beat": 2.0,
              "dur": 1.0,
              "vel": 127
            },
            {
              "note": "C2",
              "pitch": 48,
              "beat": 3.0,
              "dur": 1.0,
              "vel": 127
            },
            {
              "note": "C#2",
              "pitch": 49,
              "beat": 3.0,
              "dur": 0.5,
              "vel": 127
            },
            {
              "note": "D2",
              "pitch": 50,
              "beat": 3.0,
              "dur": 0.188,
              "vel": 127
            }
          ]
        },
        {
          "bar_start": 99.0,
          "bar_end": 100.0,
          "name": "",
          "notes": [
            {
              "note": "C2",
              "pitch": 48,
              "beat": 0.0,
              "dur": 0.5,
              "vel": 127
            },
            {
              "note": "C2",
              "pitch": 48,
              "beat": 0.5,
              "dur": 0.5,
              "vel": 127
            },
            {
              "note": "C2",
              "pitch": 48,
              "beat": 1.0,
              "dur": 0.5,
              "vel": 127
            },
            {
              "note": "C#2",
              "pitch": 49,
              "beat": 1.0,
              "dur": 0.5,
              "vel": 127
            },
            {
              "note": "D2",
              "pitch": 50,
              "beat": 1.0,
              "dur": 0.188,
              "vel": 127
            },
            {
              "note": "C2",
              "pitch": 48,
              "beat": 1.5,
              "dur": 0.5,
              "vel": 127
            },
            {
              "note": "C2",
              "pitch": 48,
              "beat": 2.0,
              "dur": 0.5,
              "vel": 127
            },
            {
              "note": "C2",
              "pitch": 48,
              "beat": 2.5,
              "dur": 0.5,
              "vel": 127
            },
            {
              "note": "C2",
              "pitch": 48,
              "beat": 3.0,
              "dur": 0.312,
              "vel": 127
            },
            {
              "note": "C#2",
              "pitch": 49,
              "beat": 3.0,
              "dur": 0.5,
              "vel": 127
            },
            {
              "note": "D2",
              "pitch": 50,
              "beat": 3.0,
              "dur": 0.188,
              "vel": 127
            }
          ]
        },
        {
          "bar_start": 100.0,
          "bar_end": 107.0,
          "name": "",
          "notes": [
            {
              "note": "C2",
              "pitch": 48,
              "beat": 0.0,
              "dur": 1.0,
              "vel": 127
            },
            {
              "note": "C2",
              "pitch": 48,
              "beat": 1.0,
              "dur": 1.0,
              "vel": 127
            },
            {
              "note": "C#2",
              "pitch": 49,
              "beat": 1.0,
              "dur": 0.5,
              "vel": 127
            },
            {
              "note": "D2",
              "pitch": 50,
              "beat": 1.0,
              "dur": 0.188,
              "vel": 127
            },
            {
              "note": "C2",
              "pitch": 48,
              "beat": 2.0,
              "dur": 1.0,
              "vel": 127
            },
            {
              "note": "C2",
              "pitch": 48,
              "beat": 3.0,
              "dur": 1.0,
              "vel": 127
            },
            {
              "note": "C#2",
              "pitch": 49,
              "beat": 3.0,
              "dur": 0.5,
              "vel": 127
            },
            {
              "note": "D2",
              "pitch": 50,
              "beat": 3.0,
              "dur": 0.188,
              "vel": 127
            }
          ]
        },
        {
          "bar_start": 107.0,
          "bar_end": 108.0,
          "name": "",
          "notes": [
            {
              "note": "C2",
              "pitch": 48,
              "beat": 0.0,
              "dur": 0.5,
              "vel": 127
            },
            {
              "note": "C2",
              "pitch": 48,
              "beat": 0.5,
              "dur": 0.5,
              "vel": 127
            },
            {
              "note": "C2",
              "pitch": 48,
              "beat": 1.0,
              "dur": 0.5,
              "vel": 127
            },
            {
              "note": "C#2",
              "pitch": 49,
              "beat": 1.0,
              "dur": 0.5,
              "vel": 127
            },
            {
              "note": "D2",
              "pitch": 50,
              "beat": 1.0,
              "dur": 0.188,
              "vel": 127
            },
            {
              "note": "C2",
              "pitch": 48,
              "beat": 1.5,
              "dur": 0.5,
              "vel": 127
            },
            {
              "note": "C2",
              "pitch": 48,
              "beat": 2.0,
              "dur": 0.5,
              "vel": 127
            },
            {
              "note": "C2",
              "pitch": 48,
              "beat": 2.5,
              "dur": 0.5,
              "vel": 127
            },
            {
              "note": "C2",
              "pitch": 48,
              "beat": 3.0,
              "dur": 0.312,
              "vel": 127
            },
            {
              "note": "C#2",
              "pitch": 49,
              "beat": 3.0,
              "dur": 0.5,
              "vel": 127
            },
            {
              "note": "D2",
              "pitch": 50,
              "beat": 3.0,
              "dur": 0.188,
              "vel": 127
            }
          ]
        }
      ],
      "automations": [],
      "children": []
    },
    "87": {
      "id": "87",
      "name": "Tops",
      "type": "MidiTrack",
      "group_id": "21",
      "devices": [
        {
          "type": "DrumGroupDevice",
          "On": "true",
          "SampleStart": "0",
          "SampleLength": "1",
          "LoopOn": "false",
          "LoopLength": "1",
          "LoopFade": "0",
          "Reverse": "false",
          "Snap": "true",
          "SampleSelector": "0",
          "IsOn": "false",
          "TransposeKey": "8",
          "TransposeFine": "0",
          "PitchLfoAmount": "0",
          "Volume": "-12",
          "VolumeVelScale": "0.4499999881",
          "VolumeKeyScale": "0",
          "VolumeLfoAmount": "0",
          "Panorama": "0",
          "PanoramaKeyScale": "0",
          "PanoramaRnd": "0"
        },
        {
          "type": "PluginDevice",
          "plugin": "Kickstart 2",
          "preset": "",
          "vst_params": []
        },
        {
          "type": "StereoGain",
          "On": "true",
          "PhaseInvertL": "false",
          "PhaseInvertR": "false",
          "ChannelMode": "1",
          "StereoWidth": "0.7999999523",
          "MidSideBalance": "1",
          "Mono": "false",
          "BassMono": "false",
          "BassMonoFrequency": "120",
          "Balance": "0",
          "Gain": "1",
          "LegacyGain": "0",
          "Mute": "false",
          "DcFilter": "false"
        },
        {
          "type": "Erosion",
          "On": "true",
          "Mode": "1",
          "Freq": "3950.91724",
          "Amplitude": "5.82986307",
          "BandQ": "0.3000000119"
        }
      ],
      "clips": [
        {
          "bar_start": 4.0,
          "bar_end": 8.0,
          "name": "",
          "notes": [
            {
              "note": "C#2",
              "pitch": 49,
              "beat": 0.301,
              "dur": 0.125,
              "vel": 127
            },
            {
              "note": "C2",
              "pitch": 48,
              "beat": 0.5,
              "dur": 0.5,
              "vel": 127
            },
            {
              "note": "C#2",
              "pitch": 49,
              "beat": 0.801,
              "dur": 0.125,
              "vel": 58
            },
            {
              "note": "C#2",
              "pitch": 49,
              "beat": 1.301,
              "dur": 0.125,
              "vel": 24
            },
            {
              "note": "C2",
              "pitch": 48,
              "beat": 1.5,
              "dur": 0.5,
              "vel": 127
            },
            {
              "note": "C#2",
              "pitch": 49,
              "beat": 1.801,
              "dur": 0.125,
              "vel": 80
            },
            {
              "note": "C#2",
              "pitch": 49,
              "beat": 2.301,
              "dur": 0.125,
              "vel": 111
            },
            {
              "note": "C2",
              "pitch": 48,
              "beat": 2.5,
              "dur": 0.5,
              "vel": 127
            },
            {
              "note": "C#2",
              "pitch": 49,
              "beat": 2.801,
              "dur": 0.125,
              "vel": 20
            },
            {
              "note": "C#2",
              "pitch": 49,
              "beat": 3.301,
              "dur": 0.125,
              "vel": 55
            },
            {
              "note": "C2",
              "pitch": 48,
              "beat": 3.5,
              "dur": 0.5,
              "vel": 127
            },
            {
              "note": "C#2",
              "pitch": 49,
              "beat": 3.801,
              "dur": 0.125,
              "vel": 40
            },
            {
              "note": "C#2",
              "pitch": 49,
              "beat": 4.301,
              "dur": 0.125,
              "vel": 127
            },
            {
              "note": "C2",
              "pitch": 48,
              "beat": 4.5,
              "dur": 0.5,
              "vel": 127
            },
            {
              "note": "C#2",
              "pitch": 49,
              "beat": 4.801,
              "dur": 0.125,
              "vel": 58
            },
            {
              "note": "C#2",
              "pitch": 49,
              "beat": 5.301,
              "dur": 0.125,
              "vel": 24
            },
            {
              "note": "C2",
              "pitch": 48,
              "beat": 5.5,
              "dur": 0.5,
              "vel": 127
            },
            {
              "note": "C#2",
              "pitch": 49,
              "beat": 5.801,
              "dur": 0.125,
              "vel": 80
            },
            {
              "note": "C#2",
              "pitch": 49,
              "beat": 6.301,
              "dur": 0.125,
              "vel": 111
            },
            {
              "note": "C2",
              "pitch": 48,
              "beat": 6.5,
              "dur": 0.5,
              "vel": 127
            },
            {
              "note": "C#2",
              "pitch": 49,
              "beat": 6.801,
              "dur": 0.125,
              "vel": 20
            },
            {
              "note": "C#2",
              "pitch": 49,
              "beat": 7.301,
              "dur": 0.125,
              "vel": 55
            },
            {
              "note": "C2",
              "pitch": 48,
              "beat": 7.5,
              "dur": 0.5,
              "vel": 127
            },
            {
              "note": "C#2",
              "pitch": 49,
              "beat": 7.801,
              "dur": 0.125,
              "vel": 40
            }
          ]
        },
        {
          "bar_start": 16.0,
          "bar_end": 21.75,
          "name": "",
          "notes": [
            {
              "note": "A1",
              "pitch": 45,
              "beat": 0.301,
              "dur": 0.125,
              "vel": 39
            },
            {
              "note": "C#2",
              "pitch": 49,
              "beat": 0.301,
              "dur": 0.125,
              "vel": 127
            },
            {
              "note": "A#1",
              "pitch": 46,
              "beat": 0.5,
              "dur": 0.25,
              "vel": 62
            },
            {
              "note": "C2",
              "pitch": 48,
              "beat": 0.5,
              "dur": 0.5,
              "vel": 127
            },
            {
              "note": "C#2",
              "pitch": 49,
              "beat": 0.801,
              "dur": 0.125,
              "vel": 58
            },
            {
              "note": "A1",
              "pitch": 45,
              "beat": 1.301,
              "dur": 0.125,
              "vel": 42
            },
            {
              "note": "C#2",
              "pitch": 49,
              "beat": 1.301,
              "dur": 0.125,
              "vel": 24
            },
            {
              "note": "C2",
              "pitch": 48,
              "beat": 1.5,
              "dur": 0.5,
              "vel": 127
            },
            {
              "note": "D2",
              "pitch": 50,
              "beat": 1.5,
              "dur": 0.125,
              "vel": 46
            },
            {
              "note": "C#2",
              "pitch": 49,
              "beat": 1.801,
              "dur": 0.125,
              "vel": 80
            },
            {
              "note": "D#2",
              "pitch": 51,
              "beat": 1.801,
              "dur": 0.125,
              "vel": 36
            },
            {
              "note": "G#1",
              "pitch": 44,
              "beat": 1.861,
              "dur": 0.188,
              "vel": 94
            },
            {
              "note": "A1",
              "pitch": 45,
              "beat": 2.301,
              "dur": 0.125,
              "vel": 81
            },
            {
              "note": "C#2",
              "pitch": 49,
              "beat": 2.301,
              "dur": 0.125,
              "vel": 111
            },
            {
              "note": "C2",
              "pitch": 48,
              "beat": 2.5,
              "dur": 0.5,
              "vel": 127
            },
            {
              "note": "A1",
              "pitch": 45,
              "beat": 2.801,
              "dur": 0.125,
              "vel": 20
            },
            {
              "note": "C#2",
              "pitch": 49,
              "beat": 2.801,
              "dur": 0.125,
              "vel": 20
            },
            {
              "note": "A1",
              "pitch": 45,
              "beat": 3.301,
              "dur": 0.125,
              "vel": 64
            },
            {
              "note": "C#2",
              "pitch": 49,
              "beat": 3.301,
              "dur": 0.125,
              "vel": 55
            },
            {
              "note": "C2",
              "pitch": 48,
              "beat": 3.5,
              "dur": 0.5,
              "vel": 127
            },
            {
              "note": "A1",
              "pitch": 45,
              "beat": 3.801,
              "dur": 0.125,
              "vel": 40
            },
            {
              "note": "C#2",
              "pitch": 49,
              "beat": 3.801,
              "dur": 0.125,
              "vel": 40
            },
            {
              "note": "A1",
              "pitch": 45,
              "beat": 4.301,
              "dur": 0.125,
              "vel": 39
            },
            {
              "note": "C#2",
              "pitch": 49,
              "beat": 4.301,
              "dur": 0.125,
              "vel": 127
            },
            {
              "note": "C2",
              "pitch": 48,
              "beat": 4.5,
              "dur": 0.5,
              "vel": 127
            },
            {
              "note": "C#2",
              "pitch": 49,
              "beat": 4.801,
              "dur": 0.125,
              "vel": 58
            },
            {
              "note": "A1",
              "pitch": 45,
              "beat": 5.301,
              "dur": 0.125,
              "vel": 42
            },
            {
              "note": "C#2",
              "pitch": 49,
              "beat": 5.301,
              "dur": 0.125,
              "vel": 24
            },
            {
              "note": "C2",
              "pitch": 48,
              "beat": 5.5,
              "dur": 0.5,
              "vel": 127
            },
            {
              "note": "D2",
              "pitch": 50,
              "beat": 5.5,
              "dur": 0.125,
              "vel": 46
            },
            {
              "note": "C#2",
              "pitch": 49,
              "beat": 5.801,
              "dur": 0.125,
              "vel": 80
            },
            {
              "note": "D#2",
              "pitch": 51,
              "beat": 5.801,
              "dur": 0.125,
              "vel": 36
            },
            {
              "note": "G#1",
              "pitch": 44,
              "beat": 5.861,
              "dur": 0.188,
              "vel": 94
            },
            {
              "note": "A1",
              "pitch": 45,
              "beat": 6.301,
              "dur": 0.125,
              "vel": 81
            },
            {
              "note": "C#2",
              "pitch": 49,
              "beat": 6.301,
              "dur": 0.125,
              "vel": 111
            },
            {
              "note": "C2",
              "pitch": 48,
              "beat": 6.5,
              "dur": 0.5,
              "vel": 127
            },
            {
              "note": "A1",
              "pitch": 45,
              "beat": 6.801,
              "dur": 0.125,
              "vel": 20
            },
            {
              "note": "C#2",
              "pitch": 49,
              "beat": 6.801,
              "dur": 0.125,
              "vel": 20
            },
            {
              "note": "A1",
              "pitch": 45,
              "beat": 7.301,
              "dur": 0.125,
              "vel": 64
            },
            {
              "note": "C#2",
              "pitch": 49,
              "beat": 7.301,
              "dur": 0.125,
              "vel": 55
            },
            {
              "note": "C2",
              "pitch": 48,
              "beat": 7.5,
              "dur": 0.5,
              "vel": 127
            },
            {
              "note": "A1",
              "pitch": 45,
              "beat": 7.801,
              "dur": 0.125,
              "vel": 40
            },
            {
              "note": "C#2",
              "pitch": 49,
              "beat": 7.801,
              "dur": 0.125,
              "vel": 40
            }
          ]
        },
        {
          "bar_start": 24.0,
          "bar_end": 45.75,
          "name": "",
          "notes": [
            {
              "note": "A1",
              "pitch": 45,
              "beat": 0.301,
              "dur": 0.125,
              "vel": 39
            },
            {
              "note": "C#2",
              "pitch": 49,
              "beat": 0.301,
              "dur": 0.125,
              "vel": 127
            },
            {
              "note": "A#1",
              "pitch": 46,
              "beat": 0.5,
              "dur": 0.25,
              "vel": 62
            },
            {
              "note": "C2",
              "pitch": 48,
              "beat": 0.5,
              "dur": 0.5,
              "vel": 127
            },
            {
              "note": "C#2",
              "pitch": 49,
              "beat": 0.801,
              "dur": 0.125,
              "vel": 58
            },
            {
              "note": "A1",
              "pitch": 45,
              "beat": 1.301,
              "dur": 0.125,
              "vel": 42
            },
            {
              "note": "C#2",
              "pitch": 49,
              "beat": 1.301,
              "dur": 0.125,
              "vel": 24
            },
            {
              "note": "C2",
              "pitch": 48,
              "beat": 1.5,
              "dur": 0.5,
              "vel": 127
            },
            {
              "note": "D2",
              "pitch": 50,
              "beat": 1.5,
              "dur": 0.125,
              "vel": 46
            },
            {
              "note": "C#2",
              "pitch": 49,
              "beat": 1.801,
              "dur": 0.125,
              "vel": 80
            },
            {
              "note": "D#2",
              "pitch": 51,
              "beat": 1.801,
              "dur": 0.125,
              "vel": 36
            },
            {
              "note": "G#1",
              "pitch": 44,
              "beat": 1.861,
              "dur": 0.188,
              "vel": 94
            },
            {
              "note": "A1",
              "pitch": 45,
              "beat": 2.301,
              "dur": 0.125,
              "vel": 81
            },
            {
              "note": "C#2",
              "pitch": 49,
              "beat": 2.301,
              "dur": 0.125,
              "vel": 111
            },
            {
              "note": "C2",
              "pitch": 48,
              "beat": 2.5,
              "dur": 0.5,
              "vel": 127
            },
            {
              "note": "A1",
              "pitch": 45,
              "beat": 2.801,
              "dur": 0.125,
              "vel": 20
            },
            {
              "note": "C#2",
              "pitch": 49,
              "beat": 2.801,
              "dur": 0.125,
              "vel": 20
            },
            {
              "note": "A1",
              "pitch": 45,
              "beat": 3.301,
              "dur": 0.125,
              "vel": 64
            },
            {
              "note": "C#2",
              "pitch": 49,
              "beat": 3.301,
              "dur": 0.125,
              "vel": 55
            },
            {
              "note": "C2",
              "pitch": 48,
              "beat": 3.5,
              "dur": 0.5,
              "vel": 127
            },
            {
              "note": "A1",
              "pitch": 45,
              "beat": 3.801,
              "dur": 0.125,
              "vel": 40
            },
            {
              "note": "C#2",
              "pitch": 49,
              "beat": 3.801,
              "dur": 0.125,
              "vel": 40
            },
            {
              "note": "A1",
              "pitch": 45,
              "beat": 4.301,
              "dur": 0.125,
              "vel": 39
            },
            {
              "note": "C#2",
              "pitch": 49,
              "beat": 4.301,
              "dur": 0.125,
              "vel": 127
            },
            {
              "note": "C2",
              "pitch": 48,
              "beat": 4.5,
              "dur": 0.5,
              "vel": 127
            },
            {
              "note": "C#2",
              "pitch": 49,
              "beat": 4.801,
              "dur": 0.125,
              "vel": 58
            },
            {
              "note": "A1",
              "pitch": 45,
              "beat": 5.301,
              "dur": 0.125,
              "vel": 42
            },
            {
              "note": "C#2",
              "pitch": 49,
              "beat": 5.301,
              "dur": 0.125,
              "vel": 24
            },
            {
              "note": "C2",
              "pitch": 48,
              "beat": 5.5,
              "dur": 0.5,
              "vel": 127
            },
            {
              "note": "D2",
              "pitch": 50,
              "beat": 5.5,
              "dur": 0.125,
              "vel": 46
            },
            {
              "note": "C#2",
              "pitch": 49,
              "beat": 5.801,
              "dur": 0.125,
              "vel": 80
            },
            {
              "note": "D#2",
              "pitch": 51,
              "beat": 5.801,
              "dur": 0.125,
              "vel": 36
            },
            {
              "note": "G#1",
              "pitch": 44,
              "beat": 5.861,
              "dur": 0.188,
              "vel": 94
            },
            {
              "note": "A1",
              "pitch": 45,
              "beat": 6.301,
              "dur": 0.125,
              "vel": 81
            },
            {
              "note": "C#2",
              "pitch": 49,
              "beat": 6.301,
              "dur": 0.125,
              "vel": 111
            },
            {
              "note": "C2",
              "pitch": 48,
              "beat": 6.5,
              "dur": 0.5,
              "vel": 127
            },
            {
              "note": "A1",
              "pitch": 45,
              "beat": 6.801,
              "dur": 0.125,
              "vel": 20
            },
            {
              "note": "C#2",
              "pitch": 49,
              "beat": 6.801,
              "dur": 0.125,
              "vel": 20
            },
            {
              "note": "A1",
              "pitch": 45,
              "beat": 7.301,
              "dur": 0.125,
              "vel": 64
            },
            {
              "note": "C#2",
              "pitch": 49,
              "beat": 7.301,
              "dur": 0.125,
              "vel": 55
            },
            {
              "note": "C2",
              "pitch": 48,
              "beat": 7.5,
              "dur": 0.5,
              "vel": 127
            },
            {
              "note": "A1",
              "pitch": 45,
              "beat": 7.801,
              "dur": 0.125,
              "vel": 40
            },
            {
              "note": "C#2",
              "pitch": 49,
              "beat": 7.801,
              "dur": 0.125,
              "vel": 40
            }
          ]
        },
        {
          "bar_start": 48.25,
          "bar_end": 56.0,
          "name": "",
          "notes": [
            {
              "note": "B1",
              "pitch": 47,
              "beat": 0.0,
              "dur": 0.125,
              "vel": 110
            },
            {
              "note": "A1",
              "pitch": 45,
              "beat": 0.301,
              "dur": 0.125,
              "vel": 39
            },
            {
              "note": "B1",
              "pitch": 47,
              "beat": 0.301,
              "dur": 0.125,
              "vel": 90
            },
            {
              "note": "C#2",
              "pitch": 49,
              "beat": 0.301,
              "dur": 0.125,
              "vel": 127
            },
            {
              "note": "A#1",
              "pitch": 46,
              "beat": 0.5,
              "dur": 0.25,
              "vel": 62
            },
            {
              "note": "C2",
              "pitch": 48,
              "beat": 0.5,
              "dur": 0.5,
              "vel": 127
            },
            {
              "note": "B1",
              "pitch": 47,
              "beat": 0.801,
              "dur": 0.125,
              "vel": 110
            },
            {
              "note": "C#2",
              "pitch": 49,
              "beat": 0.801,
              "dur": 0.125,
              "vel": 50
            },
            {
              "note": "B1",
              "pitch": 47,
              "beat": 1.0,
              "dur": 0.125,
              "vel": 26
            },
            {
              "note": "A1",
              "pitch": 45,
              "beat": 1.301,
              "dur": 0.125,
              "vel": 42
            },
            {
              "note": "B1",
              "pitch": 47,
              "beat": 1.301,
              "dur": 0.125,
              "vel": 90
            },
            {
              "note": "C#2",
              "pitch": 49,
              "beat": 1.301,
              "dur": 0.125,
              "vel": 24
            },
            {
              "note": "C2",
              "pitch": 48,
              "beat": 1.5,
              "dur": 0.5,
              "vel": 127
            },
            {
              "note": "D2",
              "pitch": 50,
              "beat": 1.5,
              "dur": 0.125,
              "vel": 46
            },
            {
              "note": "B1",
              "pitch": 47,
              "beat": 1.801,
              "dur": 0.125,
              "vel": 110
            },
            {
              "note": "C#2",
              "pitch": 49,
              "beat": 1.801,
              "dur": 0.125,
              "vel": 80
            },
            {
              "note": "D#2",
              "pitch": 51,
              "beat": 1.801,
              "dur": 0.125,
              "vel": 36
            },
            {
              "note": "G#1",
              "pitch": 44,
              "beat": 1.861,
              "dur": 0.188,
              "vel": 94
            },
            {
              "note": "B1",
              "pitch": 47,
              "beat": 2.0,
              "dur": 0.125,
              "vel": 110
            },
            {
              "note": "A1",
              "pitch": 45,
              "beat": 2.301,
              "dur": 0.125,
              "vel": 81
            },
            {
              "note": "B1",
              "pitch": 47,
              "beat": 2.301,
              "dur": 0.125,
              "vel": 90
            },
            {
              "note": "C#2",
              "pitch": 49,
              "beat": 2.301,
              "dur": 0.125,
              "vel": 111
            },
            {
              "note": "C2",
              "pitch": 48,
              "beat": 2.5,
              "dur": 0.5,
              "vel": 127
            },
            {
              "note": "A1",
              "pitch": 45,
              "beat": 2.801,
              "dur": 0.125,
              "vel": 20
            },
            {
              "note": "B1",
              "pitch": 47,
              "beat": 2.801,
              "dur": 0.125,
              "vel": 110
            },
            {
              "note": "C#2",
              "pitch": 49,
              "beat": 2.801,
              "dur": 0.125,
              "vel": 20
            },
            {
              "note": "B1",
              "pitch": 47,
              "beat": 3.0,
              "dur": 0.125,
              "vel": 26
            },
            {
              "note": "A1",
              "pitch": 45,
              "beat": 3.301,
              "dur": 0.125,
              "vel": 64
            },
            {
              "note": "B1",
              "pitch": 47,
              "beat": 3.301,
              "dur": 0.125,
              "vel": 90
            },
            {
              "note": "C#2",
              "pitch": 49,
              "beat": 3.301,
              "dur": 0.125,
              "vel": 55
            },
            {
              "note": "C2",
              "pitch": 48,
              "beat": 3.5,
              "dur": 0.5,
              "vel": 127
            },
            {
              "note": "A1",
              "pitch": 45,
              "beat": 3.801,
              "dur": 0.125,
              "vel": 40
            },
            {
              "note": "B1",
              "pitch": 47,
              "beat": 3.801,
              "dur": 0.125,
              "vel": 110
            },
            {
              "note": "C#2",
              "pitch": 49,
              "beat": 3.801,
              "dur": 0.125,
              "vel": 40
            },
            {
              "note": "B1",
              "pitch": 47,
              "beat": 4.0,
              "dur": 0.125,
              "vel": 110
            },
            {
              "note": "A1",
              "pitch": 45,
              "beat": 4.301,
              "dur": 0.125,
              "vel": 39
            },
            {
              "note": "B1",
              "pitch": 47,
              "beat": 4.301,
              "dur": 0.125,
              "vel": 90
            },
            {
              "note": "C#2",
              "pitch": 49,
              "beat": 4.301,
              "dur": 0.125,
              "vel": 127
            },
            {
              "note": "C2",
              "pitch": 48,
              "beat": 4.5,
              "dur": 0.5,
              "vel": 127
            },
            {
              "note": "B1",
              "pitch": 47,
              "beat": 4.801,
              "dur": 0.125,
              "vel": 110
            },
            {
              "note": "C#2",
              "pitch": 49,
              "beat": 4.801,
              "dur": 0.125,
              "vel": 58
            },
            {
              "note": "B1",
              "pitch": 47,
              "beat": 5.0,
              "dur": 0.125,
              "vel": 26
            },
            {
              "note": "A1",
              "pitch": 45,
              "beat": 5.301,
              "dur": 0.125,
              "vel": 42
            },
            {
              "note": "B1",
              "pitch": 47,
              "beat": 5.301,
              "dur": 0.125,
              "vel": 90
            },
            {
              "note": "C#2",
              "pitch": 49,
              "beat": 5.301,
              "dur": 0.125,
              "vel": 24
            },
            {
              "note": "C2",
              "pitch": 48,
              "beat": 5.5,
              "dur": 0.5,
              "vel": 127
            },
            {
              "note": "D2",
              "pitch": 50,
              "beat": 5.5,
              "dur": 0.125,
              "vel": 46
            },
            {
              "note": "B1",
              "pitch": 47,
              "beat": 5.801,
              "dur": 0.125,
              "vel": 110
            },
            {
              "note": "C#2",
              "pitch": 49,
              "beat": 5.801,
              "dur": 0.125,
              "vel": 80
            },
            {
              "note": "D#2",
              "pitch": 51,
              "beat": 5.801,
              "dur": 0.125,
              "vel": 36
            },
            {
              "note": "G#1",
              "pitch": 44,
              "beat": 5.861,
              "dur": 0.188,
              "vel": 94
            },
            {
              "note": "B1",
              "pitch": 47,
              "beat": 6.0,
              "dur": 0.125,
              "vel": 110
            },
            {
              "note": "A1",
              "pitch": 45,
              "beat": 6.301,
              "dur": 0.125,
              "vel": 81
            },
            {
              "note": "B1",
              "pitch": 47,
              "beat": 6.301,
              "dur": 0.125,
              "vel": 90
            },
            {
              "note": "C#2",
              "pitch": 49,
              "beat": 6.301,
              "dur": 0.125,
              "vel": 111
            },
            {
              "note": "C2",
              "pitch": 48,
              "beat": 6.5,
              "dur": 0.5,
              "vel": 127
            },
            {
              "note": "A1",
              "pitch": 45,
              "beat": 6.801,
              "dur": 0.125,
              "vel": 20
            },
            {
              "note": "B1",
              "pitch": 47,
              "beat": 6.801,
              "dur": 0.125,
              "vel": 110
            },
            {
              "note": "C#2",
              "pitch": 49,
              "beat": 6.801,
              "dur": 0.125,
              "vel": 20
            },
            {
              "note": "B1",
              "pitch": 47,
              "beat": 7.0,
              "dur": 0.125,
              "vel": 26
            },
            {
              "note": "A1",
              "pitch": 45,
              "beat": 7.301,
              "dur": 0.125,
              "vel": 64
            },
            {
              "note": "B1",
              "pitch": 47,
              "beat": 7.301,
              "dur": 0.125,
              "vel": 90
            },
            {
              "note": "C#2",
              "pitch": 49,
              "beat": 7.301,
              "dur": 0.125,
              "vel": 55
            },
            {
              "note": "C2",
              "pitch": 48,
              "beat": 7.5,
              "dur": 0.5,
              "vel": 127
            },
            {
              "note": "A1",
              "pitch": 45,
              "beat": 7.801,
              "dur": 0.125,
              "vel": 40
            },
            {
              "note": "B1",
              "pitch": 47,
              "beat": 7.801,
              "dur": 0.125,
              "vel": 110
            },
            {
              "note": "C#2",
              "pitch": 49,
              "beat": 7.801,
              "dur": 0.125,
              "vel": 40
            }
          ]
        },
        {
          "bar_start": 56.0,
          "bar_end": 64.0,
          "name": "",
          "notes": [
            {
              "note": "A1",
              "pitch": 45,
              "beat": 0.301,
              "dur": 0.125,
              "vel": 39
            },
            {
              "note": "C#2",
              "pitch": 49,
              "beat": 0.301,
              "dur": 0.125,
              "vel": 127
            },
            {
              "note": "A#1",
              "pitch": 46,
              "beat": 0.5,
              "dur": 0.25,
              "vel": 62
            },
            {
              "note": "C2",
              "pitch": 48,
              "beat": 0.5,
              "dur": 0.5,
              "vel": 127
            },
            {
              "note": "C#2",
              "pitch": 49,
              "beat": 0.801,
              "dur": 0.125,
              "vel": 58
            },
            {
              "note": "A1",
              "pitch": 45,
              "beat": 1.301,
              "dur": 0.125,
              "vel": 42
            },
            {
              "note": "C#2",
              "pitch": 49,
              "beat": 1.301,
              "dur": 0.125,
              "vel": 24
            },
            {
              "note": "C2",
              "pitch": 48,
              "beat": 1.5,
              "dur": 0.5,
              "vel": 127
            },
            {
              "note": "D2",
              "pitch": 50,
              "beat": 1.5,
              "dur": 0.125,
              "vel": 46
            },
            {
              "note": "C#2",
              "pitch": 49,
              "beat": 1.801,
              "dur": 0.125,
              "vel": 80
            },
            {
              "note": "D#2",
              "pitch": 51,
              "beat": 1.801,
              "dur": 0.125,
              "vel": 36
            },
            {
              "note": "G#1",
              "pitch": 44,
              "beat": 1.861,
              "dur": 0.188,
              "vel": 94
            },
            {
              "note": "A1",
              "pitch": 45,
              "beat": 2.301,
              "dur": 0.125,
              "vel": 81
            },
            {
              "note": "C#2",
              "pitch": 49,
              "beat": 2.301,
              "dur": 0.125,
              "vel": 111
            },
            {
              "note": "C2",
              "pitch": 48,
              "beat": 2.5,
              "dur": 0.5,
              "vel": 127
            },
            {
              "note": "A1",
              "pitch": 45,
              "beat": 2.801,
              "dur": 0.125,
              "vel": 20
            },
            {
              "note": "C#2",
              "pitch": 49,
              "beat": 2.801,
              "dur": 0.125,
              "vel": 20
            },
            {
              "note": "A1",
              "pitch": 45,
              "beat": 3.301,
              "dur": 0.125,
              "vel": 64
            },
            {
              "note": "C#2",
              "pitch": 49,
              "beat": 3.301,
              "dur": 0.125,
              "vel": 55
            },
            {
              "note": "C2",
              "pitch": 48,
              "beat": 3.5,
              "dur": 0.5,
              "vel": 127
            },
            {
              "note": "A1",
              "pitch": 45,
              "beat": 3.801,
              "dur": 0.125,
              "vel": 40
            },
            {
              "note": "C#2",
              "pitch": 49,
              "beat": 3.801,
              "dur": 0.125,
              "vel": 40
            },
            {
              "note": "A1",
              "pitch": 45,
              "beat": 4.301,
              "dur": 0.125,
              "vel": 39
            },
            {
              "note": "C#2",
              "pitch": 49,
              "beat": 4.301,
              "dur": 0.125,
              "vel": 127
            },
            {
              "note": "C2",
              "pitch": 48,
              "beat": 4.5,
              "dur": 0.5,
              "vel": 127
            },
            {
              "note": "C#2",
              "pitch": 49,
              "beat": 4.801,
              "dur": 0.125,
              "vel": 58
            },
            {
              "note": "A1",
              "pitch": 45,
              "beat": 5.301,
              "dur": 0.125,
              "vel": 42
            },
            {
              "note": "C#2",
              "pitch": 49,
              "beat": 5.301,
              "dur": 0.125,
              "vel": 24
            },
            {
              "note": "C2",
              "pitch": 48,
              "beat": 5.5,
              "dur": 0.5,
              "vel": 127
            },
            {
              "note": "D2",
              "pitch": 50,
              "beat": 5.5,
              "dur": 0.125,
              "vel": 46
            },
            {
              "note": "C#2",
              "pitch": 49,
              "beat": 5.801,
              "dur": 0.125,
              "vel": 80
            },
            {
              "note": "D#2",
              "pitch": 51,
              "beat": 5.801,
              "dur": 0.125,
              "vel": 36
            },
            {
              "note": "G#1",
              "pitch": 44,
              "beat": 5.861,
              "dur": 0.188,
              "vel": 94
            },
            {
              "note": "A1",
              "pitch": 45,
              "beat": 6.301,
              "dur": 0.125,
              "vel": 81
            },
            {
              "note": "C#2",
              "pitch": 49,
              "beat": 6.301,
              "dur": 0.125,
              "vel": 111
            },
            {
              "note": "C2",
              "pitch": 48,
              "beat": 6.5,
              "dur": 0.5,
              "vel": 127
            },
            {
              "note": "A1",
              "pitch": 45,
              "beat": 6.801,
              "dur": 0.125,
              "vel": 20
            },
            {
              "note": "C#2",
              "pitch": 49,
              "beat": 6.801,
              "dur": 0.125,
              "vel": 20
            },
            {
              "note": "A1",
              "pitch": 45,
              "beat": 7.301,
              "dur": 0.125,
              "vel": 64
            },
            {
              "note": "C#2",
              "pitch": 49,
              "beat": 7.301,
              "dur": 0.125,
              "vel": 55
            },
            {
              "note": "C2",
              "pitch": 48,
              "beat": 7.5,
              "dur": 0.5,
              "vel": 127
            },
            {
              "note": "A1",
              "pitch": 45,
              "beat": 7.801,
              "dur": 0.125,
              "vel": 40
            },
            {
              "note": "C#2",
              "pitch": 49,
              "beat": 7.801,
              "dur": 0.125,
              "vel": 40
            }
          ]
        },
        {
          "bar_start": 72.0,
          "bar_end": 81.75,
          "name": "",
          "notes": [
            {
              "note": "A1",
              "pitch": 45,
              "beat": 0.301,
              "dur": 0.125,
              "vel": 39
            },
            {
              "note": "C#2",
              "pitch": 49,
              "beat": 0.301,
              "dur": 0.125,
              "vel": 127
            },
            {
              "note": "A#1",
              "pitch": 46,
              "beat": 0.5,
              "dur": 0.25,
              "vel": 62
            },
            {
              "note": "C2",
              "pitch": 48,
              "beat": 0.5,
              "dur": 0.5,
              "vel": 127
            },
            {
              "note": "C#2",
              "pitch": 49,
              "beat": 0.801,
              "dur": 0.125,
              "vel": 58
            },
            {
              "note": "A1",
              "pitch": 45,
              "beat": 1.301,
              "dur": 0.125,
              "vel": 42
            },
            {
              "note": "C#2",
              "pitch": 49,
              "beat": 1.301,
              "dur": 0.125,
              "vel": 24
            },
            {
              "note": "C2",
              "pitch": 48,
              "beat": 1.5,
              "dur": 0.5,
              "vel": 127
            },
            {
              "note": "D2",
              "pitch": 50,
              "beat": 1.5,
              "dur": 0.125,
              "vel": 46
            },
            {
              "note": "C#2",
              "pitch": 49,
              "beat": 1.801,
              "dur": 0.125,
              "vel": 80
            },
            {
              "note": "D#2",
              "pitch": 51,
              "beat": 1.801,
              "dur": 0.125,
              "vel": 36
            },
            {
              "note": "G#1",
              "pitch": 44,
              "beat": 1.861,
              "dur": 0.188,
              "vel": 94
            },
            {
              "note": "A1",
              "pitch": 45,
              "beat": 2.301,
              "dur": 0.125,
              "vel": 81
            },
            {
              "note": "C#2",
              "pitch": 49,
              "beat": 2.301,
              "dur": 0.125,
              "vel": 111
            },
            {
              "note": "C2",
              "pitch": 48,
              "beat": 2.5,
              "dur": 0.5,
              "vel": 127
            },
            {
              "note": "A1",
              "pitch": 45,
              "beat": 2.801,
              "dur": 0.125,
              "vel": 20
            },
            {
              "note": "C#2",
              "pitch": 49,
              "beat": 2.801,
              "dur": 0.125,
              "vel": 20
            },
            {
              "note": "A1",
              "pitch": 45,
              "beat": 3.301,
              "dur": 0.125,
              "vel": 64
            },
            {
              "note": "C#2",
              "pitch": 49,
              "beat": 3.301,
              "dur": 0.125,
              "vel": 55
            },
            {
              "note": "C2",
              "pitch": 48,
              "beat": 3.5,
              "dur": 0.5,
              "vel": 127
            },
            {
              "note": "A1",
              "pitch": 45,
              "beat": 3.801,
              "dur": 0.125,
              "vel": 40
            },
            {
              "note": "C#2",
              "pitch": 49,
              "beat": 3.801,
              "dur": 0.125,
              "vel": 40
            },
            {
              "note": "A1",
              "pitch": 45,
              "beat": 4.301,
              "dur": 0.125,
              "vel": 39
            },
            {
              "note": "C#2",
              "pitch": 49,
              "beat": 4.301,
              "dur": 0.125,
              "vel": 127
            },
            {
              "note": "C2",
              "pitch": 48,
              "beat": 4.5,
              "dur": 0.5,
              "vel": 127
            },
            {
              "note": "C#2",
              "pitch": 49,
              "beat": 4.801,
              "dur": 0.125,
              "vel": 58
            },
            {
              "note": "A1",
              "pitch": 45,
              "beat": 5.301,
              "dur": 0.125,
              "vel": 42
            },
            {
              "note": "C#2",
              "pitch": 49,
              "beat": 5.301,
              "dur": 0.125,
              "vel": 24
            },
            {
              "note": "C2",
              "pitch": 48,
              "beat": 5.5,
              "dur": 0.5,
              "vel": 127
            },
            {
              "note": "D2",
              "pitch": 50,
              "beat": 5.5,
              "dur": 0.125,
              "vel": 46
            },
            {
              "note": "C#2",
              "pitch": 49,
              "beat": 5.801,
              "dur": 0.125,
              "vel": 80
            },
            {
              "note": "D#2",
              "pitch": 51,
              "beat": 5.801,
              "dur": 0.125,
              "vel": 36
            },
            {
              "note": "G#1",
              "pitch": 44,
              "beat": 5.861,
              "dur": 0.188,
              "vel": 94
            },
            {
              "note": "A1",
              "pitch": 45,
              "beat": 6.301,
              "dur": 0.125,
              "vel": 81
            },
            {
              "note": "C#2",
              "pitch": 49,
              "beat": 6.301,
              "dur": 0.125,
              "vel": 111
            },
            {
              "note": "C2",
              "pitch": 48,
              "beat": 6.5,
              "dur": 0.5,
              "vel": 127
            },
            {
              "note": "A1",
              "pitch": 45,
              "beat": 6.801,
              "dur": 0.125,
              "vel": 20
            },
            {
              "note": "C#2",
              "pitch": 49,
              "beat": 6.801,
              "dur": 0.125,
              "vel": 20
            },
            {
              "note": "A1",
              "pitch": 45,
              "beat": 7.301,
              "dur": 0.125,
              "vel": 64
            },
            {
              "note": "C#2",
              "pitch": 49,
              "beat": 7.301,
              "dur": 0.125,
              "vel": 55
            },
            {
              "note": "C2",
              "pitch": 48,
              "beat": 7.5,
              "dur": 0.5,
              "vel": 127
            },
            {
              "note": "A1",
              "pitch": 45,
              "beat": 7.801,
              "dur": 0.125,
              "vel": 40
            },
            {
              "note": "C#2",
              "pitch": 49,
              "beat": 7.801,
              "dur": 0.125,
              "vel": 40
            }
          ]
        },
        {
          "bar_start": 85.75,
          "bar_end": 108.0,
          "name": "",
          "notes": [
            {
              "note": "A1",
              "pitch": 45,
              "beat": 0.301,
              "dur": 0.125,
              "vel": 39
            },
            {
              "note": "C#2",
              "pitch": 49,
              "beat": 0.301,
              "dur": 0.125,
              "vel": 127
            },
            {
              "note": "A#1",
              "pitch": 46,
              "beat": 0.5,
              "dur": 0.25,
              "vel": 62
            },
            {
              "note": "C2",
              "pitch": 48,
              "beat": 0.5,
              "dur": 0.5,
              "vel": 127
            },
            {
              "note": "C#2",
              "pitch": 49,
              "beat": 0.801,
              "dur": 0.125,
              "vel": 58
            },
            {
              "note": "A1",
              "pitch": 45,
              "beat": 1.301,
              "dur": 0.125,
              "vel": 42
            },
            {
              "note": "C#2",
              "pitch": 49,
              "beat": 1.301,
              "dur": 0.125,
              "vel": 24
            },
            {
              "note": "C2",
              "pitch": 48,
              "beat": 1.5,
              "dur": 0.5,
              "vel": 127
            },
            {
              "note": "D2",
              "pitch": 50,
              "beat": 1.5,
              "dur": 0.125,
              "vel": 46
            },
            {
              "note": "C#2",
              "pitch": 49,
              "beat": 1.801,
              "dur": 0.125,
              "vel": 80
            },
            {
              "note": "D#2",
              "pitch": 51,
              "beat": 1.801,
              "dur": 0.125,
              "vel": 36
            },
            {
              "note": "G#1",
              "pitch": 44,
              "beat": 1.861,
              "dur": 0.188,
              "vel": 94
            },
            {
              "note": "A1",
              "pitch": 45,
              "beat": 2.301,
              "dur": 0.125,
              "vel": 81
            },
            {
              "note": "C#2",
              "pitch": 49,
              "beat": 2.301,
              "dur": 0.125,
              "vel": 111
            },
            {
              "note": "C2",
              "pitch": 48,
              "beat": 2.5,
              "dur": 0.5,
              "vel": 127
            },
            {
              "note": "A1",
              "pitch": 45,
              "beat": 2.801,
              "dur": 0.125,
              "vel": 20
            },
            {
              "note": "C#2",
              "pitch": 49,
              "beat": 2.801,
              "dur": 0.125,
              "vel": 20
            },
            {
              "note": "A1",
              "pitch": 45,
              "beat": 3.301,
              "dur": 0.125,
              "vel": 64
            },
            {
              "note": "C#2",
              "pitch": 49,
              "beat": 3.301,
              "dur": 0.125,
              "vel": 55
            },
            {
              "note": "C2",
              "pitch": 48,
              "beat": 3.5,
              "dur": 0.5,
              "vel": 127
            },
            {
              "note": "A1",
              "pitch": 45,
              "beat": 3.801,
              "dur": 0.125,
              "vel": 40
            },
            {
              "note": "C#2",
              "pitch": 49,
              "beat": 3.801,
              "dur": 0.125,
              "vel": 40
            },
            {
              "note": "A1",
              "pitch": 45,
              "beat": 4.301,
              "dur": 0.125,
              "vel": 39
            },
            {
              "note": "C#2",
              "pitch": 49,
              "beat": 4.301,
              "dur": 0.125,
              "vel": 127
            },
            {
              "note": "C2",
              "pitch": 48,
              "beat": 4.5,
              "dur": 0.5,
              "vel": 127
            },
            {
              "note": "C#2",
              "pitch": 49,
              "beat": 4.801,
              "dur": 0.125,
              "vel": 58
            },
            {
              "note": "A1",
              "pitch": 45,
              "beat": 5.301,
              "dur": 0.125,
              "vel": 42
            },
            {
              "note": "C#2",
              "pitch": 49,
              "beat": 5.301,
              "dur": 0.125,
              "vel": 24
            },
            {
              "note": "C2",
              "pitch": 48,
              "beat": 5.5,
              "dur": 0.5,
              "vel": 127
            },
            {
              "note": "D2",
              "pitch": 50,
              "beat": 5.5,
              "dur": 0.125,
              "vel": 46
            },
            {
              "note": "C#2",
              "pitch": 49,
              "beat": 5.801,
              "dur": 0.125,
              "vel": 80
            },
            {
              "note": "D#2",
              "pitch": 51,
              "beat": 5.801,
              "dur": 0.125,
              "vel": 36
            },
            {
              "note": "G#1",
              "pitch": 44,
              "beat": 5.861,
              "dur": 0.188,
              "vel": 94
            },
            {
              "note": "A1",
              "pitch": 45,
              "beat": 6.301,
              "dur": 0.125,
              "vel": 81
            },
            {
              "note": "C#2",
              "pitch": 49,
              "beat": 6.301,
              "dur": 0.125,
              "vel": 111
            },
            {
              "note": "C2",
              "pitch": 48,
              "beat": 6.5,
              "dur": 0.5,
              "vel": 127
            },
            {
              "note": "A1",
              "pitch": 45,
              "beat": 6.801,
              "dur": 0.125,
              "vel": 20
            },
            {
              "note": "C#2",
              "pitch": 49,
              "beat": 6.801,
              "dur": 0.125,
              "vel": 20
            },
            {
              "note": "A1",
              "pitch": 45,
              "beat": 7.301,
              "dur": 0.125,
              "vel": 64
            },
            {
              "note": "C#2",
              "pitch": 49,
              "beat": 7.301,
              "dur": 0.125,
              "vel": 55
            },
            {
              "note": "C2",
              "pitch": 48,
              "beat": 7.5,
              "dur": 0.5,
              "vel": 127
            },
            {
              "note": "A1",
              "pitch": 45,
              "beat": 7.801,
              "dur": 0.125,
              "vel": 40
            },
            {
              "note": "C#2",
              "pitch": 49,
              "beat": 7.801,
              "dur": 0.125,
              "vel": 40
            }
          ]
        }
      ],
      "automations": [],
      "children": []
    },
    "105": {
      "id": "105",
      "name": "Snare Roll",
      "type": "MidiTrack",
      "group_id": "21",
      "devices": [
        {
          "type": "DrumGroupDevice",
          "On": "true",
          "SampleStart": "0",
          "SampleLength": "1",
          "LoopOn": "false",
          "LoopLength": "1",
          "LoopFade": "0",
          "Reverse": "false",
          "Snap": "true",
          "SampleSelector": "0",
          "IsOn": "false",
          "TransposeKey": "0",
          "TransposeFine": "0",
          "PitchLfoAmount": "0",
          "Volume": "-12",
          "VolumeVelScale": "0.4499999881",
          "VolumeKeyScale": "0",
          "VolumeLfoAmount": "0",
          "Panorama": "0",
          "PanoramaKeyScale": "0",
          "PanoramaRnd": "0"
        },
        {
          "type": "Eq8",
          "bands": []
        },
        {
          "type": "Erosion",
          "On": "true",
          "Mode": "1",
          "Freq": "2917.31348",
          "Amplitude": "42.9506264",
          "BandQ": "0.7291067243"
        }
      ],
      "clips": [
        {
          "bar_start": 16.0,
          "bar_end": 21.75,
          "name": "",
          "notes": [
            {
              "note": "C1",
              "pitch": 36,
              "beat": 0.0,
              "dur": 0.688,
              "vel": 78
            },
            {
              "note": "D1",
              "pitch": 38,
              "beat": 0.0,
              "dur": 0.562,
              "vel": 127
            },
            {
              "note": "C#1",
              "pitch": 37,
              "beat": 0.812,
              "dur": 0.5,
              "vel": 127
            },
            {
              "note": "D1",
              "pitch": 38,
              "beat": 0.812,
              "dur": 0.5,
              "vel": 127
            },
            {
              "note": "C#1",
              "pitch": 37,
              "beat": 1.5,
              "dur": 0.438,
              "vel": 127
            },
            {
              "note": "D1",
              "pitch": 38,
              "beat": 1.5,
              "dur": 0.438,
              "vel": 127
            },
            {
              "note": "C1",
              "pitch": 36,
              "beat": 2.274,
              "dur": 0.5,
              "vel": 99
            },
            {
              "note": "C#1",
              "pitch": 37,
              "beat": 2.274,
              "dur": 0.5,
              "vel": 83
            },
            {
              "note": "D1",
              "pitch": 38,
              "beat": 2.274,
              "dur": 0.5,
              "vel": 83
            },
            {
              "note": "C#1",
              "pitch": 37,
              "beat": 3.0,
              "dur": 0.438,
              "vel": 127
            },
            {
              "note": "D1",
              "pitch": 38,
              "beat": 3.0,
              "dur": 0.438,
              "vel": 127
            },
            {
              "note": "C1",
              "pitch": 36,
              "beat": 4.0,
              "dur": 0.688,
              "vel": 78
            },
            {
              "note": "D1",
              "pitch": 38,
              "beat": 4.0,
              "dur": 0.562,
              "vel": 127
            },
            {
              "note": "C#1",
              "pitch": 37,
              "beat": 4.812,
              "dur": 0.5,
              "vel": 127
            },
            {
              "note": "D1",
              "pitch": 38,
              "beat": 4.812,
              "dur": 0.5,
              "vel": 127
            },
            {
              "note": "C#1",
              "pitch": 37,
              "beat": 5.5,
              "dur": 0.438,
              "vel": 127
            },
            {
              "note": "D1",
              "pitch": 38,
              "beat": 5.5,
              "dur": 0.438,
              "vel": 127
            },
            {
              "note": "C1",
              "pitch": 36,
              "beat": 6.274,
              "dur": 0.5,
              "vel": 99
            },
            {
              "note": "C#1",
              "pitch": 37,
              "beat": 6.274,
              "dur": 0.5,
              "vel": 83
            },
            {
              "note": "D1",
              "pitch": 38,
              "beat": 6.274,
              "dur": 0.5,
              "vel": 83
            },
            {
              "note": "C#1",
              "pitch": 37,
              "beat": 7.0,
              "dur": 0.438,
              "vel": 127
            },
            {
              "note": "D1",
              "pitch": 38,
              "beat": 7.0,
              "dur": 0.438,
              "vel": 127
            },
            {
              "note": "C1",
              "pitch": 36,
              "beat": 8.0,
              "dur": 0.688,
              "vel": 78
            },
            {
              "note": "D1",
              "pitch": 38,
              "beat": 8.0,
              "dur": 0.562,
              "vel": 127
            },
            {
              "note": "C#1",
              "pitch": 37,
              "beat": 8.812,
              "dur": 0.5,
              "vel": 127
            },
            {
              "note": "D1",
              "pitch": 38,
              "beat": 8.812,
              "dur": 0.5,
              "vel": 127
            },
            {
              "note": "C#1",
              "pitch": 37,
              "beat": 9.5,
              "dur": 0.438,
              "vel": 127
            },
            {
              "note": "D1",
              "pitch": 38,
              "beat": 9.5,
              "dur": 0.438,
              "vel": 127
            },
            {
              "note": "C1",
              "pitch": 36,
              "beat": 10.274,
              "dur": 0.5,
              "vel": 99
            },
            {
              "note": "C#1",
              "pitch": 37,
              "beat": 10.274,
              "dur": 0.5,
              "vel": 83
            },
            {
              "note": "D1",
              "pitch": 38,
              "beat": 10.274,
              "dur": 0.5,
              "vel": 83
            },
            {
              "note": "C#1",
              "pitch": 37,
              "beat": 11.0,
              "dur": 0.438,
              "vel": 127
            },
            {
              "note": "D1",
              "pitch": 38,
              "beat": 11.0,
              "dur": 0.438,
              "vel": 127
            },
            {
              "note": "C1",
              "pitch": 36,
              "beat": 12.0,
              "dur": 0.688,
              "vel": 78
            },
            {
              "note": "D1",
              "pitch": 38,
              "beat": 12.0,
              "dur": 0.562,
              "vel": 127
            },
            {
              "note": "C#1",
              "pitch": 37,
              "beat": 12.812,
              "dur": 0.5,
              "vel": 127
            },
            {
              "note": "D1",
              "pitch": 38,
              "beat": 12.812,
              "dur": 0.5,
              "vel": 127
            },
            {
              "note": "C#1",
              "pitch": 37,
              "beat": 13.5,
              "dur": 0.438,
              "vel": 127
            },
            {
              "note": "D1",
              "pitch": 38,
              "beat": 13.5,
              "dur": 0.438,
              "vel": 127
            },
            {
              "note": "C1",
              "pitch": 36,
              "beat": 14.274,
              "dur": 0.5,
              "vel": 99
            },
            {
              "note": "C#1",
              "pitch": 37,
              "beat": 14.274,
              "dur": 0.5,
              "vel": 83
            },
            {
              "note": "D1",
              "pitch": 38,
              "beat": 14.274,
              "dur": 0.5,
              "vel": 83
            },
            {
              "note": "C#1",
              "pitch": 37,
              "beat": 15.0,
              "dur": 0.438,
              "vel": 127
            },
            {
              "note": "D1",
              "pitch": 38,
              "beat": 15.0,
              "dur": 0.438,
              "vel": 127
            },
            {
              "note": "C1",
              "pitch": 36,
              "beat": 16.0,
              "dur": 0.688,
              "vel": 78
            },
            {
              "note": "D1",
              "pitch": 38,
              "beat": 16.0,
              "dur": 0.562,
              "vel": 127
            },
            {
              "note": "C#1",
              "pitch": 37,
              "beat": 16.812,
              "dur": 0.188,
              "vel": 127
            },
            {
              "note": "D1",
              "pitch": 38,
              "beat": 16.812,
              "dur": 0.188,
              "vel": 127
            },
            {
              "note": "C1",
              "pitch": 36,
              "beat": 17.0,
              "dur": 0.688,
              "vel": 78
            },
            {
              "note": "C#1",
              "pitch": 37,
              "beat": 17.812,
              "dur": 0.188,
              "vel": 127
            },
            {
              "note": "D1",
              "pitch": 38,
              "beat": 17.812,
              "dur": 0.188,
              "vel": 127
            },
            {
              "note": "C1",
              "pitch": 36,
              "beat": 18.0,
              "dur": 0.688,
              "vel": 78
            },
            {
              "note": "C#1",
              "pitch": 37,
              "beat": 18.812,
              "dur": 0.188,
              "vel": 127
            },
            {
              "note": "D1",
              "pitch": 38,
              "beat": 18.812,
              "dur": 0.188,
              "vel": 127
            },
            {
              "note": "C1",
              "pitch": 36,
              "beat": 19.0,
              "dur": 0.688,
              "vel": 78
            },
            {
              "note": "C#1",
              "pitch": 37,
              "beat": 19.812,
              "dur": 0.188,
              "vel": 127
            },
            {
              "note": "D1",
              "pitch": 38,
              "beat": 19.812,
              "dur": 0.188,
              "vel": 127
            },
            {
              "note": "C1",
              "pitch": 36,
              "beat": 20.0,
              "dur": 0.375,
              "vel": 78
            },
            {
              "note": "C#1",
              "pitch": 37,
              "beat": 20.0,
              "dur": 0.25,
              "vel": 127
            },
            {
              "note": "D1",
              "pitch": 38,
              "beat": 20.0,
              "dur": 0.25,
              "vel": 127
            },
            {
              "note": "C#1",
              "pitch": 37,
              "beat": 20.281,
              "dur": 0.219,
              "vel": 127
            },
            {
              "note": "C#1",
              "pitch": 37,
              "beat": 20.5,
              "dur": 0.25,
              "vel": 127
            },
            {
              "note": "C#1",
              "pitch": 37,
              "beat": 20.781,
              "dur": 0.219,
              "vel": 127
            },
            {
              "note": "C1",
              "pitch": 36,
              "beat": 21.0,
              "dur": 0.375,
              "vel": 78
            },
            {
              "note": "C#1",
              "pitch": 37,
              "beat": 21.0,
              "dur": 0.25,
              "vel": 127
            },
            {
              "note": "C#1",
              "pitch": 37,
              "beat": 21.281,
              "dur": 0.219,
              "vel": 127
            },
            {
              "note": "C#1",
              "pitch": 37,
              "beat": 21.5,
              "dur": 0.25,
              "vel": 127
            },
            {
              "note": "C#1",
              "pitch": 37,
              "beat": 21.781,
              "dur": 0.219,
              "vel": 127
            },
            {
              "note": "C1",
              "pitch": 36,
              "beat": 22.0,
              "dur": 0.375,
              "vel": 78
            },
            {
              "note": "C#1",
              "pitch": 37,
              "beat": 22.0,
              "dur": 0.25,
              "vel": 127
            },
            {
              "note": "C#1",
              "pitch": 37,
              "beat": 22.281,
              "dur": 0.219,
              "vel": 127
            },
            {
              "note": "C#1",
              "pitch": 37,
              "beat": 22.5,
              "dur": 0.25,
              "vel": 127
            },
            {
              "note": "C#1",
              "pitch": 37,
              "beat": 22.781,
              "dur": 0.219,
              "vel": 127
            },
            {
              "note": "C1",
              "pitch": 36,
              "beat": 23.0,
              "dur": 0.375,
              "vel": 78
            },
            {
              "note": "C#1",
              "pitch": 37,
              "beat": 23.0,
              "dur": 0.25,
              "vel": 127
            },
            {
              "note": "C#1",
              "pitch": 37,
              "beat": 23.281,
              "dur": 0.219,
              "vel": 127
            },
            {
              "note": "C#1",
              "pitch": 37,
              "beat": 23.5,
              "dur": 0.25,
              "vel": 127
            },
            {
              "note": "C#1",
              "pitch": 37,
              "beat": 23.781,
              "dur": 0.219,
              "vel": 127
            }
          ]
        },
        {
          "bar_start": 40.0,
          "bar_end": 45.75,
          "name": "",
          "notes": [
            {
              "note": "C1",
              "pitch": 36,
              "beat": 0.0,
              "dur": 0.688,
              "vel": 78
            },
            {
              "note": "D1",
              "pitch": 38,
              "beat": 0.0,
              "dur": 0.562,
              "vel": 127
            },
            {
              "note": "C#1",
              "pitch": 37,
              "beat": 0.812,
              "dur": 0.5,
              "vel": 127
            },
            {
              "note": "D1",
              "pitch": 38,
              "beat": 0.812,
              "dur": 0.5,
              "vel": 127
            },
            {
              "note": "C#1",
              "pitch": 37,
              "beat": 1.5,
              "dur": 0.438,
              "vel": 127
            },
            {
              "note": "D1",
              "pitch": 38,
              "beat": 1.5,
              "dur": 0.438,
              "vel": 127
            },
            {
              "note": "C1",
              "pitch": 36,
              "beat": 2.274,
              "dur": 0.5,
              "vel": 99
            },
            {
              "note": "C#1",
              "pitch": 37,
              "beat": 2.274,
              "dur": 0.5,
              "vel": 83
            },
            {
              "note": "D1",
              "pitch": 38,
              "beat": 2.274,
              "dur": 0.5,
              "vel": 83
            },
            {
              "note": "C#1",
              "pitch": 37,
              "beat": 3.0,
              "dur": 0.438,
              "vel": 127
            },
            {
              "note": "D1",
              "pitch": 38,
              "beat": 3.0,
              "dur": 0.438,
              "vel": 127
            },
            {
              "note": "C1",
              "pitch": 36,
              "beat": 4.0,
              "dur": 0.688,
              "vel": 78
            },
            {
              "note": "D1",
              "pitch": 38,
              "beat": 4.0,
              "dur": 0.562,
              "vel": 127
            },
            {
              "note": "C#1",
              "pitch": 37,
              "beat": 4.812,
              "dur": 0.5,
              "vel": 127
            },
            {
              "note": "D1",
              "pitch": 38,
              "beat": 4.812,
              "dur": 0.5,
              "vel": 127
            },
            {
              "note": "C#1",
              "pitch": 37,
              "beat": 5.5,
              "dur": 0.438,
              "vel": 127
            },
            {
              "note": "D1",
              "pitch": 38,
              "beat": 5.5,
              "dur": 0.438,
              "vel": 127
            },
            {
              "note": "C1",
              "pitch": 36,
              "beat": 6.274,
              "dur": 0.5,
              "vel": 99
            },
            {
              "note": "C#1",
              "pitch": 37,
              "beat": 6.274,
              "dur": 0.5,
              "vel": 83
            },
            {
              "note": "D1",
              "pitch": 38,
              "beat": 6.274,
              "dur": 0.5,
              "vel": 83
            },
            {
              "note": "C#1",
              "pitch": 37,
              "beat": 7.0,
              "dur": 0.438,
              "vel": 127
            },
            {
              "note": "D1",
              "pitch": 38,
              "beat": 7.0,
              "dur": 0.438,
              "vel": 127
            },
            {
              "note": "C1",
              "pitch": 36,
              "beat": 8.0,
              "dur": 0.688,
              "vel": 78
            },
            {
              "note": "D1",
              "pitch": 38,
              "beat": 8.0,
              "dur": 0.562,
              "vel": 127
            },
            {
              "note": "C#1",
              "pitch": 37,
              "beat": 8.812,
              "dur": 0.5,
              "vel": 127
            },
            {
              "note": "D1",
              "pitch": 38,
              "beat": 8.812,
              "dur": 0.5,
              "vel": 127
            },
            {
              "note": "C#1",
              "pitch": 37,
              "beat": 9.5,
              "dur": 0.438,
              "vel": 127
            },
            {
              "note": "D1",
              "pitch": 38,
              "beat": 9.5,
              "dur": 0.438,
              "vel": 127
            },
            {
              "note": "C1",
              "pitch": 36,
              "beat": 10.274,
              "dur": 0.5,
              "vel": 99
            },
            {
              "note": "C#1",
              "pitch": 37,
              "beat": 10.274,
              "dur": 0.5,
              "vel": 83
            },
            {
              "note": "D1",
              "pitch": 38,
              "beat": 10.274,
              "dur": 0.5,
              "vel": 83
            },
            {
              "note": "C#1",
              "pitch": 37,
              "beat": 11.0,
              "dur": 0.438,
              "vel": 127
            },
            {
              "note": "D1",
              "pitch": 38,
              "beat": 11.0,
              "dur": 0.438,
              "vel": 127
            },
            {
              "note": "C1",
              "pitch": 36,
              "beat": 12.0,
              "dur": 0.688,
              "vel": 78
            },
            {
              "note": "D1",
              "pitch": 38,
              "beat": 12.0,
              "dur": 0.562,
              "vel": 127
            },
            {
              "note": "C#1",
              "pitch": 37,
              "beat": 12.812,
              "dur": 0.5,
              "vel": 127
            },
            {
              "note": "D1",
              "pitch": 38,
              "beat": 12.812,
              "dur": 0.5,
              "vel": 127
            },
            {
              "note": "C#1",
              "pitch": 37,
              "beat": 13.5,
              "dur": 0.438,
              "vel": 127
            },
            {
              "note": "D1",
              "pitch": 38,
              "beat": 13.5,
              "dur": 0.438,
              "vel": 127
            },
            {
              "note": "C1",
              "pitch": 36,
              "beat": 14.274,
              "dur": 0.5,
              "vel": 99
            },
            {
              "note": "C#1",
              "pitch": 37,
              "beat": 14.274,
              "dur": 0.5,
              "vel": 83
            },
            {
              "note": "D1",
              "pitch": 38,
              "beat": 14.274,
              "dur": 0.5,
              "vel": 83
            },
            {
              "note": "C#1",
              "pitch": 37,
              "beat": 15.0,
              "dur": 0.438,
              "vel": 127
            },
            {
              "note": "D1",
              "pitch": 38,
              "beat": 15.0,
              "dur": 0.438,
              "vel": 127
            },
            {
              "note": "C1",
              "pitch": 36,
              "beat": 16.0,
              "dur": 0.688,
              "vel": 78
            },
            {
              "note": "D1",
              "pitch": 38,
              "beat": 16.0,
              "dur": 0.562,
              "vel": 127
            },
            {
              "note": "C#1",
              "pitch": 37,
              "beat": 16.812,
              "dur": 0.188,
              "vel": 127
            },
            {
              "note": "D1",
              "pitch": 38,
              "beat": 16.812,
              "dur": 0.188,
              "vel": 127
            },
            {
              "note": "C1",
              "pitch": 36,
              "beat": 17.0,
              "dur": 0.688,
              "vel": 78
            },
            {
              "note": "C#1",
              "pitch": 37,
              "beat": 17.812,
              "dur": 0.188,
              "vel": 127
            },
            {
              "note": "D1",
              "pitch": 38,
              "beat": 17.812,
              "dur": 0.188,
              "vel": 127
            },
            {
              "note": "C1",
              "pitch": 36,
              "beat": 18.0,
              "dur": 0.688,
              "vel": 78
            },
            {
              "note": "C#1",
              "pitch": 37,
              "beat": 18.812,
              "dur": 0.188,
              "vel": 127
            },
            {
              "note": "D1",
              "pitch": 38,
              "beat": 18.812,
              "dur": 0.188,
              "vel": 127
            },
            {
              "note": "C1",
              "pitch": 36,
              "beat": 19.0,
              "dur": 0.688,
              "vel": 78
            },
            {
              "note": "C#1",
              "pitch": 37,
              "beat": 19.812,
              "dur": 0.188,
              "vel": 127
            },
            {
              "note": "D1",
              "pitch": 38,
              "beat": 19.812,
              "dur": 0.188,
              "vel": 127
            },
            {
              "note": "C1",
              "pitch": 36,
              "beat": 20.0,
              "dur": 0.375,
              "vel": 78
            },
            {
              "note": "C#1",
              "pitch": 37,
              "beat": 20.0,
              "dur": 0.25,
              "vel": 127
            },
            {
              "note": "D1",
              "pitch": 38,
              "beat": 20.0,
              "dur": 0.25,
              "vel": 127
            },
            {
              "note": "C#1",
              "pitch": 37,
              "beat": 20.281,
              "dur": 0.219,
              "vel": 127
            },
            {
              "note": "C#1",
              "pitch": 37,
              "beat": 20.5,
              "dur": 0.25,
              "vel": 127
            },
            {
              "note": "C#1",
              "pitch": 37,
              "beat": 20.781,
              "dur": 0.219,
              "vel": 127
            },
            {
              "note": "C1",
              "pitch": 36,
              "beat": 21.0,
              "dur": 0.375,
              "vel": 78
            },
            {
              "note": "C#1",
              "pitch": 37,
              "beat": 21.0,
              "dur": 0.25,
              "vel": 127
            },
            {
              "note": "C#1",
              "pitch": 37,
              "beat": 21.281,
              "dur": 0.219,
              "vel": 127
            },
            {
              "note": "C#1",
              "pitch": 37,
              "beat": 21.5,
              "dur": 0.25,
              "vel": 127
            },
            {
              "note": "C#1",
              "pitch": 37,
              "beat": 21.781,
              "dur": 0.219,
              "vel": 127
            },
            {
              "note": "C1",
              "pitch": 36,
              "beat": 22.0,
              "dur": 0.375,
              "vel": 78
            },
            {
              "note": "C#1",
              "pitch": 37,
              "beat": 22.0,
              "dur": 0.25,
              "vel": 127
            },
            {
              "note": "C#1",
              "pitch": 37,
              "beat": 22.281,
              "dur": 0.219,
              "vel": 127
            },
            {
              "note": "C#1",
              "pitch": 37,
              "beat": 22.5,
              "dur": 0.25,
              "vel": 127
            },
            {
              "note": "C#1",
              "pitch": 37,
              "beat": 22.781,
              "dur": 0.219,
              "vel": 127
            },
            {
              "note": "C1",
              "pitch": 36,
              "beat": 23.0,
              "dur": 0.375,
              "vel": 78
            },
            {
              "note": "C#1",
              "pitch": 37,
              "beat": 23.0,
              "dur": 0.25,
              "vel": 127
            },
            {
              "note": "C#1",
              "pitch": 37,
              "beat": 23.281,
              "dur": 0.219,
              "vel": 127
            },
            {
              "note": "C#1",
              "pitch": 37,
              "beat": 23.5,
              "dur": 0.25,
              "vel": 127
            },
            {
              "note": "C#1",
              "pitch": 37,
              "beat": 23.781,
              "dur": 0.219,
              "vel": 127
            }
          ]
        },
        {
          "bar_start": 72.0,
          "bar_end": 81.75,
          "name": "",
          "notes": [
            {
              "note": "C1",
              "pitch": 36,
              "beat": 0.0,
              "dur": 0.688,
              "vel": 90
            },
            {
              "note": "D1",
              "pitch": 38,
              "beat": 0.0,
              "dur": 0.562,
              "vel": 127
            },
            {
              "note": "C#1",
              "pitch": 37,
              "beat": 0.812,
              "dur": 0.5,
              "vel": 127
            },
            {
              "note": "D1",
              "pitch": 38,
              "beat": 0.812,
              "dur": 0.5,
              "vel": 127
            },
            {
              "note": "C#1",
              "pitch": 37,
              "beat": 1.5,
              "dur": 0.438,
              "vel": 127
            },
            {
              "note": "D1",
              "pitch": 38,
              "beat": 1.5,
              "dur": 0.438,
              "vel": 127
            },
            {
              "note": "C1",
              "pitch": 36,
              "beat": 2.274,
              "dur": 0.5,
              "vel": 115
            },
            {
              "note": "C#1",
              "pitch": 37,
              "beat": 2.274,
              "dur": 0.5,
              "vel": 83
            },
            {
              "note": "D1",
              "pitch": 38,
              "beat": 2.274,
              "dur": 0.5,
              "vel": 83
            },
            {
              "note": "C#1",
              "pitch": 37,
              "beat": 3.0,
              "dur": 0.438,
              "vel": 127
            },
            {
              "note": "D1",
              "pitch": 38,
              "beat": 3.0,
              "dur": 0.438,
              "vel": 127
            },
            {
              "note": "C1",
              "pitch": 36,
              "beat": 4.0,
              "dur": 0.688,
              "vel": 90
            },
            {
              "note": "D1",
              "pitch": 38,
              "beat": 4.0,
              "dur": 0.562,
              "vel": 127
            },
            {
              "note": "C#1",
              "pitch": 37,
              "beat": 4.812,
              "dur": 0.5,
              "vel": 127
            },
            {
              "note": "D1",
              "pitch": 38,
              "beat": 4.812,
              "dur": 0.5,
              "vel": 127
            },
            {
              "note": "C#1",
              "pitch": 37,
              "beat": 5.5,
              "dur": 0.438,
              "vel": 127
            },
            {
              "note": "D1",
              "pitch": 38,
              "beat": 5.5,
              "dur": 0.438,
              "vel": 127
            },
            {
              "note": "C1",
              "pitch": 36,
              "beat": 6.274,
              "dur": 0.5,
              "vel": 115
            },
            {
              "note": "C#1",
              "pitch": 37,
              "beat": 6.274,
              "dur": 0.5,
              "vel": 83
            },
            {
              "note": "D1",
              "pitch": 38,
              "beat": 6.274,
              "dur": 0.5,
              "vel": 83
            },
            {
              "note": "C#1",
              "pitch": 37,
              "beat": 7.0,
              "dur": 0.438,
              "vel": 127
            },
            {
              "note": "D1",
              "pitch": 38,
              "beat": 7.0,
              "dur": 0.438,
              "vel": 127
            },
            {
              "note": "C1",
              "pitch": 36,
              "beat": 8.0,
              "dur": 0.688,
              "vel": 90
            },
            {
              "note": "D1",
              "pitch": 38,
              "beat": 8.0,
              "dur": 0.562,
              "vel": 127
            },
            {
              "note": "C#1",
              "pitch": 37,
              "beat": 8.812,
              "dur": 0.5,
              "vel": 127
            },
            {
              "note": "D1",
              "pitch": 38,
              "beat": 8.812,
              "dur": 0.5,
              "vel": 127
            },
            {
              "note": "C#1",
              "pitch": 37,
              "beat": 9.5,
              "dur": 0.438,
              "vel": 127
            },
            {
              "note": "D1",
              "pitch": 38,
              "beat": 9.5,
              "dur": 0.438,
              "vel": 127
            },
            {
              "note": "C1",
              "pitch": 36,
              "beat": 10.274,
              "dur": 0.5,
              "vel": 115
            },
            {
              "note": "C#1",
              "pitch": 37,
              "beat": 10.274,
              "dur": 0.5,
              "vel": 83
            },
            {
              "note": "D1",
              "pitch": 38,
              "beat": 10.274,
              "dur": 0.5,
              "vel": 83
            },
            {
              "note": "C#1",
              "pitch": 37,
              "beat": 11.0,
              "dur": 0.438,
              "vel": 127
            },
            {
              "note": "D1",
              "pitch": 38,
              "beat": 11.0,
              "dur": 0.438,
              "vel": 127
            },
            {
              "note": "C1",
              "pitch": 36,
              "beat": 12.0,
              "dur": 0.688,
              "vel": 90
            },
            {
              "note": "D1",
              "pitch": 38,
              "beat": 12.0,
              "dur": 0.562,
              "vel": 127
            },
            {
              "note": "C#1",
              "pitch": 37,
              "beat": 12.812,
              "dur": 0.5,
              "vel": 127
            },
            {
              "note": "D1",
              "pitch": 38,
              "beat": 12.812,
              "dur": 0.5,
              "vel": 127
            },
            {
              "note": "C#1",
              "pitch": 37,
              "beat": 13.5,
              "dur": 0.438,
              "vel": 127
            },
            {
              "note": "D1",
              "pitch": 38,
              "beat": 13.5,
              "dur": 0.438,
              "vel": 127
            },
            {
              "note": "C1",
              "pitch": 36,
              "beat": 14.274,
              "dur": 0.5,
              "vel": 115
            },
            {
              "note": "C#1",
              "pitch": 37,
              "beat": 14.274,
              "dur": 0.5,
              "vel": 83
            },
            {
              "note": "D1",
              "pitch": 38,
              "beat": 14.274,
              "dur": 0.5,
              "vel": 83
            },
            {
              "note": "C#1",
              "pitch": 37,
              "beat": 15.0,
              "dur": 0.438,
              "vel": 127
            },
            {
              "note": "D1",
              "pitch": 38,
              "beat": 15.0,
              "dur": 0.438,
              "vel": 127
            },
            {
              "note": "C1",
              "pitch": 36,
              "beat": 16.0,
              "dur": 0.688,
              "vel": 90
            },
            {
              "note": "D1",
              "pitch": 38,
              "beat": 16.0,
              "dur": 0.562,
              "vel": 127
            },
            {
              "note": "C#1",
              "pitch": 37,
              "beat": 16.812,
              "dur": 0.5,
              "vel": 127
            },
            {
              "note": "D1",
              "pitch": 38,
              "beat": 16.812,
              "dur": 0.5,
              "vel": 127
            },
            {
              "note": "C#1",
              "pitch": 37,
              "beat": 17.5,
              "dur": 0.438,
              "vel": 127
            },
            {
              "note": "D1",
              "pitch": 38,
              "beat": 17.5,
              "dur": 0.438,
              "vel": 127
            },
            {
              "note": "C1",
              "pitch": 36,
              "beat": 18.0,
              "dur": 0.688,
              "vel": 90
            },
            {
              "note": "D1",
              "pitch": 38,
              "beat": 18.0,
              "dur": 0.562,
              "vel": 127
            },
            {
              "note": "C#1",
              "pitch": 37,
              "beat": 18.812,
              "dur": 0.5,
              "vel": 127
            },
            {
              "note": "D1",
              "pitch": 38,
              "beat": 18.812,
              "dur": 0.5,
              "vel": 127
            },
            {
              "note": "C#1",
              "pitch": 37,
              "beat": 19.5,
              "dur": 0.438,
              "vel": 127
            },
            {
              "note": "D1",
              "pitch": 38,
              "beat": 19.5,
              "dur": 0.438,
              "vel": 127
            },
            {
              "note": "C1",
              "pitch": 36,
              "beat": 20.0,
              "dur": 0.688,
              "vel": 90
            },
            {
              "note": "D1",
              "pitch": 38,
              "beat": 20.0,
              "dur": 0.562,
              "vel": 127
            },
            {
              "note": "C#1",
              "pitch": 37,
              "beat": 20.812,
              "dur": 0.5,
              "vel": 127
            },
            {
              "note": "D1",
              "pitch": 38,
              "beat": 20.812,
              "dur": 0.5,
              "vel": 127
            },
            {
              "note": "C#1",
              "pitch": 37,
              "beat": 21.5,
              "dur": 0.438,
              "vel": 127
            },
            {
              "note": "D1",
              "pitch": 38,
              "beat": 21.5,
              "dur": 0.438,
              "vel": 127
            },
            {
              "note": "C1",
              "pitch": 36,
              "beat": 22.0,
              "dur": 0.688,
              "vel": 90
            },
            {
              "note": "D1",
              "pitch": 38,
              "beat": 22.0,
              "dur": 0.562,
              "vel": 127
            },
            {
              "note": "C#1",
              "pitch": 37,
              "beat": 22.812,
              "dur": 0.5,
              "vel": 127
            },
            {
              "note": "D1",
              "pitch": 38,
              "beat": 22.812,
              "dur": 0.5,
              "vel": 127
            },
            {
              "note": "C#1",
              "pitch": 37,
              "beat": 23.5,
              "dur": 0.438,
              "vel": 127
            },
            {
              "note": "D1",
              "pitch": 38,
              "beat": 23.5,
              "dur": 0.438,
              "vel": 127
            },
            {
              "note": "C1",
              "pitch": 36,
              "beat": 24.0,
              "dur": 0.688,
              "vel": 90
            },
            {
              "note": "D1",
              "pitch": 38,
              "beat": 24.0,
              "dur": 0.562,
              "vel": 127
            },
            {
              "note": "C#1",
              "pitch": 37,
              "beat": 24.812,
              "dur": 0.5,
              "vel": 127
            },
            {
              "note": "D1",
              "pitch": 38,
              "beat": 24.812,
              "dur": 0.5,
              "vel": 127
            },
            {
              "note": "C#1",
              "pitch": 37,
              "beat": 25.5,
              "dur": 0.438,
              "vel": 127
            },
            {
              "note": "D1",
              "pitch": 38,
              "beat": 25.5,
              "dur": 0.438,
              "vel": 127
            },
            {
              "note": "C1",
              "pitch": 36,
              "beat": 26.0,
              "dur": 0.688,
              "vel": 90
            },
            {
              "note": "D1",
              "pitch": 38,
              "beat": 26.0,
              "dur": 0.562,
              "vel": 127
            },
            {
              "note": "C#1",
              "pitch": 37,
              "beat": 26.812,
              "dur": 0.5,
              "vel": 127
            },
            {
              "note": "D1",
              "pitch": 38,
              "beat": 26.812,
              "dur": 0.5,
              "vel": 127
            },
            {
              "note": "C#1",
              "pitch": 37,
              "beat": 27.5,
              "dur": 0.438,
              "vel": 127
            },
            {
              "note": "D1",
              "pitch": 38,
              "beat": 27.5,
              "dur": 0.438,
              "vel": 127
            },
            {
              "note": "C1",
              "pitch": 36,
              "beat": 28.0,
              "dur": 0.688,
              "vel": 90
            },
            {
              "note": "D1",
              "pitch": 38,
              "beat": 28.0,
              "dur": 0.562,
              "vel": 127
            },
            {
              "note": "C1",
              "pitch": 36,
              "beat": 29.0,
              "dur": 0.688,
              "vel": 90
            },
            {
              "note": "D1",
              "pitch": 38,
              "beat": 29.0,
              "dur": 0.562,
              "vel": 127
            },
            {
              "note": "C1",
              "pitch": 36,
              "beat": 30.0,
              "dur": 0.688,
              "vel": 90
            },
            {
              "note": "D1",
              "pitch": 38,
              "beat": 30.0,
              "dur": 0.562,
              "vel": 127
            },
            {
              "note": "C1",
              "pitch": 36,
              "beat": 31.0,
              "dur": 0.688,
              "vel": 90
            },
            {
              "note": "D1",
              "pitch": 38,
              "beat": 31.0,
              "dur": 0.562,
              "vel": 127
            },
            {
              "note": "C1",
              "pitch": 36,
              "beat": 32.0,
              "dur": 0.688,
              "vel": 90
            },
            {
              "note": "D1",
              "pitch": 38,
              "beat": 32.0,
              "dur": 0.25,
              "vel": 127
            },
            {
              "note": "D1",
              "pitch": 38,
              "beat": 32.312,
              "dur": 0.188,
              "vel": 127
            },
            {
              "note": "D1",
              "pitch": 38,
              "beat": 32.5,
              "dur": 0.25,
              "vel": 127
            },
            {
              "note": "D1",
              "pitch": 38,
              "beat": 32.812,
              "dur": 0.125,
              "vel": 127
            },
            {
              "note": "C1",
              "pitch": 36,
              "beat": 33.0,
              "dur": 0.688,
              "vel": 90
            },
            {
              "note": "D1",
              "pitch": 38,
              "beat": 33.0,
              "dur": 0.25,
              "vel": 127
            },
            {
              "note": "D1",
              "pitch": 38,
              "beat": 33.312,
              "dur": 0.188,
              "vel": 127
            },
            {
              "note": "D1",
              "pitch": 38,
              "beat": 33.5,
              "dur": 0.25,
              "vel": 127
            },
            {
              "note": "D1",
              "pitch": 38,
              "beat": 33.812,
              "dur": 0.125,
              "vel": 127
            },
            {
              "note": "C1",
              "pitch": 36,
              "beat": 34.0,
              "dur": 0.688,
              "vel": 90
            },
            {
              "note": "D1",
              "pitch": 38,
              "beat": 34.0,
              "dur": 0.25,
              "vel": 127
            },
            {
              "note": "D1",
              "pitch": 38,
              "beat": 34.312,
              "dur": 0.188,
              "vel": 127
            },
            {
              "note": "D1",
              "pitch": 38,
              "beat": 34.5,
              "dur": 0.25,
              "vel": 127
            },
            {
              "note": "D1",
              "pitch": 38,
              "beat": 34.812,
              "dur": 0.125,
              "vel": 127
            },
            {
              "note": "C1",
              "pitch": 36,
              "beat": 35.0,
              "dur": 0.688,
              "vel": 90
            },
            {
              "note": "D1",
              "pitch": 38,
              "beat": 35.0,
              "dur": 0.25,
              "vel": 127
            },
            {
              "note": "D1",
              "pitch": 38,
              "beat": 35.312,
              "dur": 0.188,
              "vel": 127
            },
            {
              "note": "D1",
              "pitch": 38,
              "beat": 35.5,
              "dur": 0.25,
              "vel": 127
            },
            {
              "note": "D1",
              "pitch": 38,
              "beat": 35.812,
              "dur": 0.125,
              "vel": 127
            },
            {
              "note": "D1",
              "pitch": 38,
              "beat": 36.0,
              "dur": 0.25,
              "vel": 127
            },
            {
              "note": "D1",
              "pitch": 38,
              "beat": 36.312,
              "dur": 0.188,
              "vel": 127
            },
            {
              "note": "D1",
              "pitch": 38,
              "beat": 36.5,
              "dur": 0.25,
              "vel": 127
            },
            {
              "note": "D1",
              "pitch": 38,
              "beat": 36.812,
              "dur": 0.125,
              "vel": 127
            },
            {
              "note": "D1",
              "pitch": 38,
              "beat": 37.0,
              "dur": 0.25,
              "vel": 127
            },
            {
              "note": "D1",
              "pitch": 38,
              "beat": 37.312,
              "dur": 0.188,
              "vel": 127
            },
            {
              "note": "D1",
              "pitch": 38,
              "beat": 37.5,
              "dur": 0.25,
              "vel": 127
            },
            {
              "note": "D1",
              "pitch": 38,
              "beat": 37.812,
              "dur": 0.125,
              "vel": 127
            },
            {
              "note": "D1",
              "pitch": 38,
              "beat": 38.0,
              "dur": 0.25,
              "vel": 127
            },
            {
              "note": "D1",
              "pitch": 38,
              "beat": 38.312,
              "dur": 0.188,
              "vel": 127
            },
            {
              "note": "D1",
              "pitch": 38,
              "beat": 38.5,
              "dur": 0.25,
              "vel": 127
            },
            {
              "note": "D1",
              "pitch": 38,
              "beat": 38.812,
              "dur": 0.125,
              "vel": 127
            },
            {
              "note": "D1",
              "pitch": 38,
              "beat": 39.0,
              "dur": 0.25,
              "vel": 127
            },
            {
              "note": "D1",
              "pitch": 38,
              "beat": 39.312,
              "dur": 0.188,
              "vel": 127
            },
            {
              "note": "D1",
              "pitch": 38,
              "beat": 39.5,
              "dur": 0.25,
              "vel": 127
            },
            {
              "note": "D1",
              "pitch": 38,
              "beat": 39.812,
              "dur": 0.125,
              "vel": 127
            }
          ]
        }
      ],
      "automations": [],
      "children": []
    },
    "81": {
      "id": "81",
      "name": "Bass",
      "type": "MidiTrack",
      "group_id": "24",
      "devices": [
        {
          "type": "PluginDevice",
          "plugin": "Serum 2",
          "preset": "",
          "vst_params": []
        },
        {
          "type": "PluginDevice",
          "plugin": "Kickstart 2",
          "preset": "",
          "vst_params": []
        },
        {
          "type": "Saturator",
          "Drive": "1",
          "DryWet": "0.3412698507",
          "Type": "2"
        },
        {
          "type": "Eq8",
          "bands": []
        },
        {
          "type": "StereoGain",
          "On": "true",
          "PhaseInvertL": "false",
          "PhaseInvertR": "false",
          "ChannelMode": "1",
          "StereoWidth": "0.6553288102",
          "MidSideBalance": "1",
          "Mono": "false",
          "BassMono": "false",
          "BassMonoFrequency": "120",
          "Balance": "0",
          "Gain": "1",
          "LegacyGain": "0",
          "Mute": "false",
          "DcFilter": "false"
        },
        {
          "type": "Compressor2",
          "Threshold": "0.5382800102",
          "Ratio": "4",
          "Attack": "0.2039500773",
          "Release": "307.888489",
          "Gain": "0",
          "Knee": "6",
          "DryWet": "1",
          "Model": "0"
        }
      ],
      "clips": [
        {
          "bar_start": 23.875,
          "bar_end": 24.0,
          "name": "",
          "notes": [
            {
              "note": "E2",
              "pitch": 52,
              "beat": 0.25,
              "dur": 0.25,
              "vel": 127
            },
            {
              "note": "E2",
              "pitch": 52,
              "beat": 0.832,
              "dur": 0.418,
              "vel": 127
            },
            {
              "note": "E2",
              "pitch": 52,
              "beat": 1.5,
              "dur": 0.376,
              "vel": 127
            },
            {
              "note": "E2",
              "pitch": 52,
              "beat": 2.0,
              "dur": 0.343,
              "vel": 127
            },
            {
              "note": "E2",
              "pitch": 52,
              "beat": 2.5,
              "dur": 0.5,
              "vel": 127
            },
            {
              "note": "D#3",
              "pitch": 63,
              "beat": 3.0,
              "dur": 0.5,
              "vel": 127
            },
            {
              "note": "E2",
              "pitch": 52,
              "beat": 3.812,
              "dur": 0.188,
              "vel": 127
            },
            {
              "note": "E2",
              "pitch": 52,
              "beat": 4.313,
              "dur": 0.25,
              "vel": 127
            },
            {
              "note": "E2",
              "pitch": 52,
              "beat": 4.813,
              "dur": 0.634,
              "vel": 127
            },
            {
              "note": "E2",
              "pitch": 52,
              "beat": 5.5,
              "dur": 0.441,
              "vel": 127
            },
            {
              "note": "E2",
              "pitch": 52,
              "beat": 6.0,
              "dur": 0.456,
              "vel": 127
            },
            {
              "note": "F2",
              "pitch": 53,
              "beat": 7.0,
              "dur": 0.908,
              "vel": 127
            },
            {
              "note": "E2",
              "pitch": 52,
              "beat": 8.25,
              "dur": 0.25,
              "vel": 127
            },
            {
              "note": "E2",
              "pitch": 52,
              "beat": 8.832,
              "dur": 0.634,
              "vel": 127
            },
            {
              "note": "E2",
              "pitch": 52,
              "beat": 9.5,
              "dur": 0.441,
              "vel": 127
            },
            {
              "note": "E2",
              "pitch": 52,
              "beat": 10.0,
              "dur": 0.343,
              "vel": 127
            },
            {
              "note": "E2",
              "pitch": 52,
              "beat": 10.5,
              "dur": 0.5,
              "vel": 127
            },
            {
              "note": "D#3",
              "pitch": 63,
              "beat": 11.0,
              "dur": 0.5,
              "vel": 127
            },
            {
              "note": "E4",
              "pitch": 76,
              "beat": 11.5,
              "dur": 0.25,
              "vel": 127
            },
            {
              "note": "E2",
              "pitch": 52,
              "beat": 11.812,
              "dur": 0.188,
              "vel": 127
            },
            {
              "note": "E2",
              "pitch": 52,
              "beat": 12.25,
              "dur": 0.25,
              "vel": 127
            },
            {
              "note": "E2",
              "pitch": 52,
              "beat": 12.85,
              "dur": 0.427,
              "vel": 127
            },
            {
              "note": "E2",
              "pitch": 52,
              "beat": 13.5,
              "dur": 0.441,
              "vel": 127
            },
            {
              "note": "E2",
              "pitch": 52,
              "beat": 14.0,
              "dur": 0.456,
              "vel": 127
            },
            {
              "note": "F2",
              "pitch": 53,
              "beat": 15.0,
              "dur": 0.908,
              "vel": 127
            }
          ]
        },
        {
          "bar_start": 24.0,
          "bar_end": 28.0,
          "name": "",
          "notes": [
            {
              "note": "E2",
              "pitch": 52,
              "beat": 0.25,
              "dur": 0.25,
              "vel": 127
            },
            {
              "note": "E2",
              "pitch": 52,
              "beat": 0.832,
              "dur": 0.418,
              "vel": 127
            },
            {
              "note": "E2",
              "pitch": 52,
              "beat": 1.5,
              "dur": 0.376,
              "vel": 127
            },
            {
              "note": "E2",
              "pitch": 52,
              "beat": 2.0,
              "dur": 0.343,
              "vel": 127
            },
            {
              "note": "E2",
              "pitch": 52,
              "beat": 2.5,
              "dur": 0.5,
              "vel": 127
            },
            {
              "note": "D#3",
              "pitch": 63,
              "beat": 3.0,
              "dur": 0.5,
              "vel": 127
            },
            {
              "note": "E4",
              "pitch": 76,
              "beat": 3.5,
              "dur": 0.25,
              "vel": 127
            },
            {
              "note": "E2",
              "pitch": 52,
              "beat": 3.812,
              "dur": 0.188,
              "vel": 127
            },
            {
              "note": "E2",
              "pitch": 52,
              "beat": 4.313,
              "dur": 0.25,
              "vel": 127
            },
            {
              "note": "E2",
              "pitch": 52,
              "beat": 4.813,
              "dur": 0.634,
              "vel": 127
            },
            {
              "note": "E2",
              "pitch": 52,
              "beat": 5.5,
              "dur": 0.441,
              "vel": 127
            },
            {
              "note": "E2",
              "pitch": 52,
              "beat": 6.0,
              "dur": 0.456,
              "vel": 127
            },
            {
              "note": "F2",
              "pitch": 53,
              "beat": 7.0,
              "dur": 0.908,
              "vel": 127
            },
            {
              "note": "E2",
              "pitch": 52,
              "beat": 8.25,
              "dur": 0.25,
              "vel": 127
            },
            {
              "note": "E2",
              "pitch": 52,
              "beat": 8.832,
              "dur": 0.634,
              "vel": 127
            },
            {
              "note": "E2",
              "pitch": 52,
              "beat": 9.5,
              "dur": 0.441,
              "vel": 127
            },
            {
              "note": "E2",
              "pitch": 52,
              "beat": 10.0,
              "dur": 0.343,
              "vel": 127
            },
            {
              "note": "E2",
              "pitch": 52,
              "beat": 10.5,
              "dur": 0.5,
              "vel": 127
            },
            {
              "note": "D#3",
              "pitch": 63,
              "beat": 11.0,
              "dur": 0.5,
              "vel": 127
            },
            {
              "note": "E4",
              "pitch": 76,
              "beat": 11.5,
              "dur": 0.25,
              "vel": 127
            },
            {
              "note": "E2",
              "pitch": 52,
              "beat": 11.812,
              "dur": 0.188,
              "vel": 127
            },
            {
              "note": "E2",
              "pitch": 52,
              "beat": 12.25,
              "dur": 0.25,
              "vel": 127
            },
            {
              "note": "E2",
              "pitch": 52,
              "beat": 12.85,
              "dur": 0.427,
              "vel": 127
            },
            {
              "note": "E2",
              "pitch": 52,
              "beat": 13.5,
              "dur": 0.441,
              "vel": 127
            },
            {
              "note": "E2",
              "pitch": 52,
              "beat": 14.0,
              "dur": 0.456,
              "vel": 127
            },
            {
              "note": "E2",
              "pitch": 52,
              "beat": 15.812,
              "dur": 0.188,
              "vel": 127
            }
          ]
        },
        {
          "bar_start": 28.0,
          "bar_end": 30.0,
          "name": "",
          "notes": [
            {
              "note": "E2",
              "pitch": 52,
              "beat": 0.25,
              "dur": 0.25,
              "vel": 127
            },
            {
              "note": "E2",
              "pitch": 52,
              "beat": 0.832,
              "dur": 0.418,
              "vel": 127
            },
            {
              "note": "E2",
              "pitch": 52,
              "beat": 1.5,
              "dur": 0.376,
              "vel": 127
            },
            {
              "note": "E2",
              "pitch": 52,
              "beat": 2.0,
              "dur": 0.343,
              "vel": 127
            },
            {
              "note": "E2",
              "pitch": 52,
              "beat": 2.5,
              "dur": 0.5,
              "vel": 127
            },
            {
              "note": "D#3",
              "pitch": 63,
              "beat": 3.0,
              "dur": 0.5,
              "vel": 127
            },
            {
              "note": "E4",
              "pitch": 76,
              "beat": 3.5,
              "dur": 0.25,
              "vel": 127
            },
            {
              "note": "E2",
              "pitch": 52,
              "beat": 3.812,
              "dur": 0.188,
              "vel": 127
            },
            {
              "note": "E2",
              "pitch": 52,
              "beat": 4.313,
              "dur": 0.25,
              "vel": 127
            },
            {
              "note": "E2",
              "pitch": 52,
              "beat": 4.813,
              "dur": 0.634,
              "vel": 127
            },
            {
              "note": "E2",
              "pitch": 52,
              "beat": 5.5,
              "dur": 0.441,
              "vel": 127
            },
            {
              "note": "E2",
              "pitch": 52,
              "beat": 6.0,
              "dur": 0.456,
              "vel": 127
            },
            {
              "note": "F2",
              "pitch": 53,
              "beat": 7.0,
              "dur": 0.908,
              "vel": 127
            },
            {
              "note": "E2",
              "pitch": 52,
              "beat": 8.25,
              "dur": 0.25,
              "vel": 127
            },
            {
              "note": "E2",
              "pitch": 52,
              "beat": 8.832,
              "dur": 0.634,
              "vel": 127
            },
            {
              "note": "E2",
              "pitch": 52,
              "beat": 9.5,
              "dur": 0.441,
              "vel": 127
            },
            {
              "note": "E2",
              "pitch": 52,
              "beat": 10.0,
              "dur": 0.343,
              "vel": 127
            },
            {
              "note": "E2",
              "pitch": 52,
              "beat": 10.5,
              "dur": 0.5,
              "vel": 127
            },
            {
              "note": "D#3",
              "pitch": 63,
              "beat": 11.0,
              "dur": 0.5,
              "vel": 127
            },
            {
              "note": "E4",
              "pitch": 76,
              "beat": 11.5,
              "dur": 0.25,
              "vel": 127
            },
            {
              "note": "E2",
              "pitch": 52,
              "beat": 11.812,
              "dur": 0.188,
              "vel": 127
            },
            {
              "note": "E2",
              "pitch": 52,
              "beat": 12.25,
              "dur": 0.25,
              "vel": 127
            },
            {
              "note": "E2",
              "pitch": 52,
              "beat": 12.85,
              "dur": 0.427,
              "vel": 127
            },
            {
              "note": "E2",
              "pitch": 52,
              "beat": 13.5,
              "dur": 0.441,
              "vel": 127
            },
            {
              "note": "E2",
              "pitch": 52,
              "beat": 14.0,
              "dur": 0.456,
              "vel": 127
            },
            {
              "note": "E2",
              "pitch": 52,
              "beat": 15.795,
              "dur": 0.205,
              "vel": 127
            }
          ]
        },
        {
          "bar_start": 31.875,
          "bar_end": 32.0,
          "name": "",
          "notes": [
            {
              "note": "E2",
              "pitch": 52,
              "beat": 0.25,
              "dur": 0.25,
              "vel": 127
            },
            {
              "note": "E2",
              "pitch": 52,
              "beat": 0.832,
              "dur": 0.418,
              "vel": 127
            },
            {
              "note": "E2",
              "pitch": 52,
              "beat": 1.5,
              "dur": 0.376,
              "vel": 127
            },
            {
              "note": "E2",
              "pitch": 52,
              "beat": 2.0,
              "dur": 0.343,
              "vel": 127
            },
            {
              "note": "E2",
              "pitch": 52,
              "beat": 2.5,
              "dur": 0.5,
              "vel": 127
            },
            {
              "note": "D#3",
              "pitch": 63,
              "beat": 3.0,
              "dur": 0.5,
              "vel": 127
            },
            {
              "note": "E2",
              "pitch": 52,
              "beat": 3.812,
              "dur": 0.188,
              "vel": 127
            },
            {
              "note": "E2",
              "pitch": 52,
              "beat": 4.313,
              "dur": 0.25,
              "vel": 127
            },
            {
              "note": "E2",
              "pitch": 52,
              "beat": 4.813,
              "dur": 0.634,
              "vel": 127
            },
            {
              "note": "E2",
              "pitch": 52,
              "beat": 5.5,
              "dur": 0.441,
              "vel": 127
            },
            {
              "note": "E2",
              "pitch": 52,
              "beat": 6.0,
              "dur": 0.456,
              "vel": 127
            },
            {
              "note": "F2",
              "pitch": 53,
              "beat": 7.0,
              "dur": 0.908,
              "vel": 127
            },
            {
              "note": "E2",
              "pitch": 52,
              "beat": 8.25,
              "dur": 0.25,
              "vel": 127
            },
            {
              "note": "E2",
              "pitch": 52,
              "beat": 8.832,
              "dur": 0.634,
              "vel": 127
            },
            {
              "note": "E2",
              "pitch": 52,
              "beat": 9.5,
              "dur": 0.441,
              "vel": 127
            },
            {
              "note": "E2",
              "pitch": 52,
              "beat": 10.0,
              "dur": 0.343,
              "vel": 127
            },
            {
              "note": "E2",
              "pitch": 52,
              "beat": 10.5,
              "dur": 0.5,
              "vel": 127
            },
            {
              "note": "D#3",
              "pitch": 63,
              "beat": 11.0,
              "dur": 0.5,
              "vel": 127
            },
            {
              "note": "E4",
              "pitch": 76,
              "beat": 11.5,
              "dur": 0.25,
              "vel": 127
            },
            {
              "note": "E2",
              "pitch": 52,
              "beat": 11.812,
              "dur": 0.188,
              "vel": 127
            },
            {
              "note": "E2",
              "pitch": 52,
              "beat": 12.25,
              "dur": 0.25,
              "vel": 127
            },
            {
              "note": "E2",
              "pitch": 52,
              "beat": 12.85,
              "dur": 0.427,
              "vel": 127
            },
            {
              "note": "E2",
              "pitch": 52,
              "beat": 13.5,
              "dur": 0.441,
              "vel": 127
            },
            {
              "note": "E2",
              "pitch": 52,
              "beat": 14.0,
              "dur": 0.456,
              "vel": 127
            },
            {
              "note": "F2",
              "pitch": 53,
              "beat": 15.0,
              "dur": 0.908,
              "vel": 127
            }
          ]
        },
        {
          "bar_start": 32.0,
          "bar_end": 36.0,
          "name": "",
          "notes": [
            {
              "note": "E2",
              "pitch": 52,
              "beat": 0.25,
              "dur": 0.25,
              "vel": 127
            },
            {
              "note": "E2",
              "pitch": 52,
              "beat": 0.832,
              "dur": 0.418,
              "vel": 127
            },
            {
              "note": "E2",
              "pitch": 52,
              "beat": 1.5,
              "dur": 0.376,
              "vel": 127
            },
            {
              "note": "E2",
              "pitch": 52,
              "beat": 2.0,
              "dur": 0.343,
              "vel": 127
            },
            {
              "note": "E2",
              "pitch": 52,
              "beat": 2.5,
              "dur": 0.5,
              "vel": 127
            },
            {
              "note": "D#3",
              "pitch": 63,
              "beat": 3.0,
              "dur": 0.5,
              "vel": 127
            },
            {
              "note": "E4",
              "pitch": 76,
              "beat": 3.5,
              "dur": 0.25,
              "vel": 127
            },
            {
              "note": "E2",
              "pitch": 52,
              "beat": 3.812,
              "dur": 0.188,
              "vel": 127
            },
            {
              "note": "E2",
              "pitch": 52,
              "beat": 4.313,
              "dur": 0.25,
              "vel": 127
            },
            {
              "note": "E2",
              "pitch": 52,
              "beat": 4.813,
              "dur": 0.634,
              "vel": 127
            },
            {
              "note": "E2",
              "pitch": 52,
              "beat": 5.5,
              "dur": 0.441,
              "vel": 127
            },
            {
              "note": "E2",
              "pitch": 52,
              "beat": 6.0,
              "dur": 0.456,
              "vel": 127
            },
            {
              "note": "F2",
              "pitch": 53,
              "beat": 7.0,
              "dur": 0.908,
              "vel": 127
            },
            {
              "note": "E2",
              "pitch": 52,
              "beat": 8.25,
              "dur": 0.25,
              "vel": 127
            },
            {
              "note": "E2",
              "pitch": 52,
              "beat": 8.832,
              "dur": 0.634,
              "vel": 127
            },
            {
              "note": "E2",
              "pitch": 52,
              "beat": 9.5,
              "dur": 0.441,
              "vel": 127
            },
            {
              "note": "E2",
              "pitch": 52,
              "beat": 10.0,
              "dur": 0.343,
              "vel": 127
            },
            {
              "note": "E2",
              "pitch": 52,
              "beat": 10.5,
              "dur": 0.5,
              "vel": 127
            },
            {
              "note": "D#3",
              "pitch": 63,
              "beat": 11.0,
              "dur": 0.5,
              "vel": 127
            },
            {
              "note": "E4",
              "pitch": 76,
              "beat": 11.5,
              "dur": 0.25,
              "vel": 127
            },
            {
              "note": "E2",
              "pitch": 52,
              "beat": 11.812,
              "dur": 0.188,
              "vel": 127
            },
            {
              "note": "E2",
              "pitch": 52,
              "beat": 12.25,
              "dur": 0.25,
              "vel": 127
            },
            {
              "note": "E2",
              "pitch": 52,
              "beat": 12.85,
              "dur": 0.427,
              "vel": 127
            },
            {
              "note": "E2",
              "pitch": 52,
              "beat": 13.5,
              "dur": 0.441,
              "vel": 127
            },
            {
              "note": "E2",
              "pitch": 52,
              "beat": 14.0,
              "dur": 0.456,
              "vel": 127
            },
            {
              "note": "E2",
              "pitch": 52,
              "beat": 15.812,
              "dur": 0.188,
              "vel": 127
            }
          ]
        },
        {
          "bar_start": 36.0,
          "bar_end": 38.0,
          "name": "",
          "notes": [
            {
              "note": "E2",
              "pitch": 52,
              "beat": 0.25,
              "dur": 0.25,
              "vel": 127
            },
            {
              "note": "E2",
              "pitch": 52,
              "beat": 0.832,
              "dur": 0.418,
              "vel": 127
            },
            {
              "note": "E2",
              "pitch": 52,
              "beat": 1.5,
              "dur": 0.376,
              "vel": 127
            },
            {
              "note": "E2",
              "pitch": 52,
              "beat": 2.0,
              "dur": 0.343,
              "vel": 127
            },
            {
              "note": "E2",
              "pitch": 52,
              "beat": 2.5,
              "dur": 0.5,
              "vel": 127
            },
            {
              "note": "D#3",
              "pitch": 63,
              "beat": 3.0,
              "dur": 0.5,
              "vel": 127
            },
            {
              "note": "E4",
              "pitch": 76,
              "beat": 3.5,
              "dur": 0.25,
              "vel": 127
            },
            {
              "note": "E2",
              "pitch": 52,
              "beat": 3.812,
              "dur": 0.188,
              "vel": 127
            },
            {
              "note": "E2",
              "pitch": 52,
              "beat": 4.313,
              "dur": 0.25,
              "vel": 127
            },
            {
              "note": "E2",
              "pitch": 52,
              "beat": 4.813,
              "dur": 0.634,
              "vel": 127
            },
            {
              "note": "E2",
              "pitch": 52,
              "beat": 5.5,
              "dur": 0.441,
              "vel": 127
            },
            {
              "note": "E2",
              "pitch": 52,
              "beat": 6.0,
              "dur": 0.456,
              "vel": 127
            },
            {
              "note": "F2",
              "pitch": 53,
              "beat": 7.0,
              "dur": 0.908,
              "vel": 127
            },
            {
              "note": "E2",
              "pitch": 52,
              "beat": 8.25,
              "dur": 0.25,
              "vel": 127
            },
            {
              "note": "E2",
              "pitch": 52,
              "beat": 8.832,
              "dur": 0.634,
              "vel": 127
            },
            {
              "note": "E2",
              "pitch": 52,
              "beat": 9.5,
              "dur": 0.441,
              "vel": 127
            },
            {
              "note": "E2",
              "pitch": 52,
              "beat": 10.0,
              "dur": 0.343,
              "vel": 127
            },
            {
              "note": "E2",
              "pitch": 52,
              "beat": 10.5,
              "dur": 0.5,
              "vel": 127
            },
            {
              "note": "D#3",
              "pitch": 63,
              "beat": 11.0,
              "dur": 0.5,
              "vel": 127
            },
            {
              "note": "E4",
              "pitch": 76,
              "beat": 11.5,
              "dur": 0.25,
              "vel": 127
            },
            {
              "note": "E2",
              "pitch": 52,
              "beat": 11.812,
              "dur": 0.188,
              "vel": 127
            },
            {
              "note": "E2",
              "pitch": 52,
              "beat": 12.25,
              "dur": 0.25,
              "vel": 127
            },
            {
              "note": "E2",
              "pitch": 52,
              "beat": 12.85,
              "dur": 0.427,
              "vel": 127
            },
            {
              "note": "E2",
              "pitch": 52,
              "beat": 13.5,
              "dur": 0.441,
              "vel": 127
            },
            {
              "note": "E2",
              "pitch": 52,
              "beat": 14.0,
              "dur": 0.456,
              "vel": 127
            },
            {
              "note": "E2",
              "pitch": 52,
              "beat": 15.795,
              "dur": 0.205,
              "vel": 127
            }
          ]
        },
        {
          "bar_start": 47.875,
          "bar_end": 48.0,
          "name": "",
          "notes": [
            {
              "note": "E2",
              "pitch": 52,
              "beat": 0.25,
              "dur": 0.25,
              "vel": 127
            },
            {
              "note": "E2",
              "pitch": 52,
              "beat": 0.832,
              "dur": 0.418,
              "vel": 127
            },
            {
              "note": "E2",
              "pitch": 52,
              "beat": 1.5,
              "dur": 0.376,
              "vel": 127
            },
            {
              "note": "E2",
              "pitch": 52,
              "beat": 2.0,
              "dur": 0.343,
              "vel": 127
            },
            {
              "note": "E2",
              "pitch": 52,
              "beat": 2.5,
              "dur": 0.5,
              "vel": 127
            },
            {
              "note": "D#3",
              "pitch": 63,
              "beat": 3.0,
              "dur": 0.5,
              "vel": 127
            },
            {
              "note": "E2",
              "pitch": 52,
              "beat": 3.812,
              "dur": 0.188,
              "vel": 127
            },
            {
              "note": "E2",
              "pitch": 52,
              "beat": 4.313,
              "dur": 0.25,
              "vel": 127
            },
            {
              "note": "E2",
              "pitch": 52,
              "beat": 4.813,
              "dur": 0.634,
              "vel": 127
            },
            {
              "note": "E2",
              "pitch": 52,
              "beat": 5.5,
              "dur": 0.441,
              "vel": 127
            },
            {
              "note": "E2",
              "pitch": 52,
              "beat": 6.0,
              "dur": 0.456,
              "vel": 127
            },
            {
              "note": "F2",
              "pitch": 53,
              "beat": 7.0,
              "dur": 0.908,
              "vel": 127
            },
            {
              "note": "E2",
              "pitch": 52,
              "beat": 8.25,
              "dur": 0.25,
              "vel": 127
            },
            {
              "note": "E2",
              "pitch": 52,
              "beat": 8.832,
              "dur": 0.634,
              "vel": 127
            },
            {
              "note": "E2",
              "pitch": 52,
              "beat": 9.5,
              "dur": 0.441,
              "vel": 127
            },
            {
              "note": "E2",
              "pitch": 52,
              "beat": 10.0,
              "dur": 0.343,
              "vel": 127
            },
            {
              "note": "E2",
              "pitch": 52,
              "beat": 10.5,
              "dur": 0.5,
              "vel": 127
            },
            {
              "note": "D#3",
              "pitch": 63,
              "beat": 11.0,
              "dur": 0.5,
              "vel": 127
            },
            {
              "note": "E4",
              "pitch": 76,
              "beat": 11.5,
              "dur": 0.25,
              "vel": 127
            },
            {
              "note": "E2",
              "pitch": 52,
              "beat": 11.812,
              "dur": 0.188,
              "vel": 127
            },
            {
              "note": "E2",
              "pitch": 52,
              "beat": 12.25,
              "dur": 0.25,
              "vel": 127
            },
            {
              "note": "E2",
              "pitch": 52,
              "beat": 12.85,
              "dur": 0.427,
              "vel": 127
            },
            {
              "note": "E2",
              "pitch": 52,
              "beat": 13.5,
              "dur": 0.441,
              "vel": 127
            },
            {
              "note": "E2",
              "pitch": 52,
              "beat": 14.0,
              "dur": 0.456,
              "vel": 127
            },
            {
              "note": "F2",
              "pitch": 53,
              "beat": 15.0,
              "dur": 0.908,
              "vel": 127
            }
          ]
        },
        {
          "bar_start": 48.0,
          "bar_end": 52.0,
          "name": "",
          "notes": [
            {
              "note": "E2",
              "pitch": 52,
              "beat": 0.25,
              "dur": 0.25,
              "vel": 127
            },
            {
              "note": "E2",
              "pitch": 52,
              "beat": 0.832,
              "dur": 0.418,
              "vel": 127
            },
            {
              "note": "E2",
              "pitch": 52,
              "beat": 1.5,
              "dur": 0.376,
              "vel": 127
            },
            {
              "note": "E2",
              "pitch": 52,
              "beat": 2.0,
              "dur": 0.343,
              "vel": 127
            },
            {
              "note": "E2",
              "pitch": 52,
              "beat": 2.5,
              "dur": 0.5,
              "vel": 127
            },
            {
              "note": "D#3",
              "pitch": 63,
              "beat": 3.0,
              "dur": 0.5,
              "vel": 127
            },
            {
              "note": "E4",
              "pitch": 76,
              "beat": 3.5,
              "dur": 0.25,
              "vel": 127
            },
            {
              "note": "E2",
              "pitch": 52,
              "beat": 3.812,
              "dur": 0.188,
              "vel": 127
            },
            {
              "note": "E2",
              "pitch": 52,
              "beat": 4.313,
              "dur": 0.25,
              "vel": 127
            },
            {
              "note": "E2",
              "pitch": 52,
              "beat": 4.813,
              "dur": 0.634,
              "vel": 127
            },
            {
              "note": "E2",
              "pitch": 52,
              "beat": 5.5,
              "dur": 0.441,
              "vel": 127
            },
            {
              "note": "E2",
              "pitch": 52,
              "beat": 6.0,
              "dur": 0.456,
              "vel": 127
            },
            {
              "note": "F2",
              "pitch": 53,
              "beat": 7.0,
              "dur": 0.908,
              "vel": 127
            },
            {
              "note": "E2",
              "pitch": 52,
              "beat": 8.25,
              "dur": 0.25,
              "vel": 127
            },
            {
              "note": "E2",
              "pitch": 52,
              "beat": 8.832,
              "dur": 0.634,
              "vel": 127
            },
            {
              "note": "E2",
              "pitch": 52,
              "beat": 9.5,
              "dur": 0.441,
              "vel": 127
            },
            {
              "note": "E2",
              "pitch": 52,
              "beat": 10.0,
              "dur": 0.343,
              "vel": 127
            },
            {
              "note": "E2",
              "pitch": 52,
              "beat": 10.5,
              "dur": 0.5,
              "vel": 127
            },
            {
              "note": "D#3",
              "pitch": 63,
              "beat": 11.0,
              "dur": 0.5,
              "vel": 127
            },
            {
              "note": "E4",
              "pitch": 76,
              "beat": 11.5,
              "dur": 0.25,
              "vel": 127
            },
            {
              "note": "E2",
              "pitch": 52,
              "beat": 11.812,
              "dur": 0.188,
              "vel": 127
            },
            {
              "note": "E2",
              "pitch": 52,
              "beat": 12.25,
              "dur": 0.25,
              "vel": 127
            },
            {
              "note": "E2",
              "pitch": 52,
              "beat": 12.85,
              "dur": 0.427,
              "vel": 127
            },
            {
              "note": "E2",
              "pitch": 52,
              "beat": 13.5,
              "dur": 0.441,
              "vel": 127
            },
            {
              "note": "E2",
              "pitch": 52,
              "beat": 14.0,
              "dur": 0.456,
              "vel": 127
            },
            {
              "note": "E2",
              "pitch": 52,
              "beat": 15.812,
              "dur": 0.188,
              "vel": 127
            }
          ]
        },
        {
          "bar_start": 52.0,
          "bar_end": 54.0,
          "name": "",
          "notes": [
            {
              "note": "E2",
              "pitch": 52,
              "beat": 0.25,
              "dur": 0.25,
              "vel": 127
            },
            {
              "note": "E2",
              "pitch": 52,
              "beat": 0.832,
              "dur": 0.418,
              "vel": 127
            },
            {
              "note": "E2",
              "pitch": 52,
              "beat": 1.5,
              "dur": 0.376,
              "vel": 127
            },
            {
              "note": "E2",
              "pitch": 52,
              "beat": 2.0,
              "dur": 0.343,
              "vel": 127
            },
            {
              "note": "E2",
              "pitch": 52,
              "beat": 2.5,
              "dur": 0.5,
              "vel": 127
            },
            {
              "note": "D#3",
              "pitch": 63,
              "beat": 3.0,
              "dur": 0.5,
              "vel": 127
            },
            {
              "note": "E4",
              "pitch": 76,
              "beat": 3.5,
              "dur": 0.25,
              "vel": 127
            },
            {
              "note": "E2",
              "pitch": 52,
              "beat": 3.812,
              "dur": 0.188,
              "vel": 127
            },
            {
              "note": "E2",
              "pitch": 52,
              "beat": 4.313,
              "dur": 0.25,
              "vel": 127
            },
            {
              "note": "E2",
              "pitch": 52,
              "beat": 4.813,
              "dur": 0.634,
              "vel": 127
            },
            {
              "note": "E2",
              "pitch": 52,
              "beat": 5.5,
              "dur": 0.441,
              "vel": 127
            },
            {
              "note": "E2",
              "pitch": 52,
              "beat": 6.0,
              "dur": 0.456,
              "vel": 127
            },
            {
              "note": "F2",
              "pitch": 53,
              "beat": 7.0,
              "dur": 0.908,
              "vel": 127
            },
            {
              "note": "E2",
              "pitch": 52,
              "beat": 8.25,
              "dur": 0.25,
              "vel": 127
            },
            {
              "note": "E2",
              "pitch": 52,
              "beat": 8.832,
              "dur": 0.634,
              "vel": 127
            },
            {
              "note": "E2",
              "pitch": 52,
              "beat": 9.5,
              "dur": 0.441,
              "vel": 127
            },
            {
              "note": "E2",
              "pitch": 52,
              "beat": 10.0,
              "dur": 0.343,
              "vel": 127
            },
            {
              "note": "E2",
              "pitch": 52,
              "beat": 10.5,
              "dur": 0.5,
              "vel": 127
            },
            {
              "note": "D#3",
              "pitch": 63,
              "beat": 11.0,
              "dur": 0.5,
              "vel": 127
            },
            {
              "note": "E4",
              "pitch": 76,
              "beat": 11.5,
              "dur": 0.25,
              "vel": 127
            },
            {
              "note": "E2",
              "pitch": 52,
              "beat": 11.812,
              "dur": 0.188,
              "vel": 127
            },
            {
              "note": "E2",
              "pitch": 52,
              "beat": 12.25,
              "dur": 0.25,
              "vel": 127
            },
            {
              "note": "E2",
              "pitch": 52,
              "beat": 12.85,
              "dur": 0.427,
              "vel": 127
            },
            {
              "note": "E2",
              "pitch": 52,
              "beat": 13.5,
              "dur": 0.441,
              "vel": 127
            },
            {
              "note": "E2",
              "pitch": 52,
              "beat": 14.0,
              "dur": 0.456,
              "vel": 127
            },
            {
              "note": "E2",
              "pitch": 52,
              "beat": 15.795,
              "dur": 0.205,
              "vel": 127
            }
          ]
        },
        {
          "bar_start": 56.0,
          "bar_end": 60.0,
          "name": "",
          "notes": [
            {
              "note": "E2",
              "pitch": 52,
              "beat": 0.0,
              "dur": 0.5,
              "vel": 127
            },
            {
              "note": "E2",
              "pitch": 52,
              "beat": 1.0,
              "dur": 0.5,
              "vel": 127
            },
            {
              "note": "D#2",
              "pitch": 51,
              "beat": 1.813,
              "dur": 0.437,
              "vel": 110
            },
            {
              "note": "D#2",
              "pitch": 51,
              "beat": 2.25,
              "dur": 0.25,
              "vel": 110
            },
            {
              "note": "D#2",
              "pitch": 51,
              "beat": 3.0,
              "dur": 4.0,
              "vel": 110
            },
            {
              "note": "E2",
              "pitch": 52,
              "beat": 7.75,
              "dur": 0.125,
              "vel": 110
            },
            {
              "note": "E2",
              "pitch": 52,
              "beat": 8.0,
              "dur": 0.5,
              "vel": 127
            },
            {
              "note": "E2",
              "pitch": 52,
              "beat": 9.0,
              "dur": 0.5,
              "vel": 127
            },
            {
              "note": "D#2",
              "pitch": 51,
              "beat": 9.813,
              "dur": 0.437,
              "vel": 110
            },
            {
              "note": "D#2",
              "pitch": 51,
              "beat": 10.25,
              "dur": 0.25,
              "vel": 110
            },
            {
              "note": "D#2",
              "pitch": 51,
              "beat": 11.0,
              "dur": 4.0,
              "vel": 110
            }
          ]
        },
        {
          "bar_start": 60.0,
          "bar_end": 64.0,
          "name": "",
          "notes": [
            {
              "note": "E2",
              "pitch": 52,
              "beat": 0.0,
              "dur": 0.5,
              "vel": 127
            },
            {
              "note": "E2",
              "pitch": 52,
              "beat": 1.0,
              "dur": 0.5,
              "vel": 127
            },
            {
              "note": "D#2",
              "pitch": 51,
              "beat": 1.813,
              "dur": 0.437,
              "vel": 110
            },
            {
              "note": "D#2",
              "pitch": 51,
              "beat": 2.25,
              "dur": 0.25,
              "vel": 110
            },
            {
              "note": "D#2",
              "pitch": 51,
              "beat": 3.0,
              "dur": 4.0,
              "vel": 110
            }
          ]
        },
        {
          "bar_start": 83.875,
          "bar_end": 84.0,
          "name": "",
          "notes": [
            {
              "note": "E2",
              "pitch": 52,
              "beat": 0.25,
              "dur": 0.25,
              "vel": 127
            },
            {
              "note": "E2",
              "pitch": 52,
              "beat": 0.832,
              "dur": 0.418,
              "vel": 127
            },
            {
              "note": "E2",
              "pitch": 52,
              "beat": 1.5,
              "dur": 0.376,
              "vel": 127
            },
            {
              "note": "E2",
              "pitch": 52,
              "beat": 2.0,
              "dur": 0.343,
              "vel": 127
            },
            {
              "note": "E2",
              "pitch": 52,
              "beat": 2.5,
              "dur": 0.5,
              "vel": 127
            },
            {
              "note": "D#3",
              "pitch": 63,
              "beat": 3.0,
              "dur": 0.5,
              "vel": 127
            },
            {
              "note": "E2",
              "pitch": 52,
              "beat": 3.812,
              "dur": 0.188,
              "vel": 127
            },
            {
              "note": "E2",
              "pitch": 52,
              "beat": 4.313,
              "dur": 0.25,
              "vel": 127
            },
            {
              "note": "E2",
              "pitch": 52,
              "beat": 4.813,
              "dur": 0.634,
              "vel": 127
            },
            {
              "note": "E2",
              "pitch": 52,
              "beat": 5.5,
              "dur": 0.441,
              "vel": 127
            },
            {
              "note": "E2",
              "pitch": 52,
              "beat": 6.0,
              "dur": 0.456,
              "vel": 127
            },
            {
              "note": "F2",
              "pitch": 53,
              "beat": 7.0,
              "dur": 0.908,
              "vel": 127
            },
            {
              "note": "E2",
              "pitch": 52,
              "beat": 8.25,
              "dur": 0.25,
              "vel": 127
            },
            {
              "note": "E2",
              "pitch": 52,
              "beat": 8.832,
              "dur": 0.634,
              "vel": 127
            },
            {
              "note": "E2",
              "pitch": 52,
              "beat": 9.5,
              "dur": 0.441,
              "vel": 127
            },
            {
              "note": "E2",
              "pitch": 52,
              "beat": 10.0,
              "dur": 0.343,
              "vel": 127
            },
            {
              "note": "E2",
              "pitch": 52,
              "beat": 10.5,
              "dur": 0.5,
              "vel": 127
            },
            {
              "note": "D#3",
              "pitch": 63,
              "beat": 11.0,
              "dur": 0.5,
              "vel": 127
            },
            {
              "note": "E4",
              "pitch": 76,
              "beat": 11.5,
              "dur": 0.25,
              "vel": 127
            },
            {
              "note": "E2",
              "pitch": 52,
              "beat": 11.812,
              "dur": 0.188,
              "vel": 127
            },
            {
              "note": "E2",
              "pitch": 52,
              "beat": 12.25,
              "dur": 0.25,
              "vel": 127
            },
            {
              "note": "E2",
              "pitch": 52,
              "beat": 12.85,
              "dur": 0.427,
              "vel": 127
            },
            {
              "note": "E2",
              "pitch": 52,
              "beat": 13.5,
              "dur": 0.441,
              "vel": 127
            },
            {
              "note": "E2",
              "pitch": 52,
              "beat": 14.0,
              "dur": 0.456,
              "vel": 127
            },
            {
              "note": "F2",
              "pitch": 53,
              "beat": 15.0,
              "dur": 0.908,
              "vel": 127
            }
          ]
        },
        {
          "bar_start": 84.0,
          "bar_end": 88.0,
          "name": "",
          "notes": [
            {
              "note": "E2",
              "pitch": 52,
              "beat": 0.25,
              "dur": 0.25,
              "vel": 127
            },
            {
              "note": "E2",
              "pitch": 52,
              "beat": 0.832,
              "dur": 0.418,
              "vel": 127
            },
            {
              "note": "E2",
              "pitch": 52,
              "beat": 1.5,
              "dur": 0.376,
              "vel": 127
            },
            {
              "note": "E2",
              "pitch": 52,
              "beat": 2.0,
              "dur": 0.343,
              "vel": 127
            },
            {
              "note": "E2",
              "pitch": 52,
              "beat": 2.5,
              "dur": 0.5,
              "vel": 127
            },
            {
              "note": "D#3",
              "pitch": 63,
              "beat": 3.0,
              "dur": 0.5,
              "vel": 127
            },
            {
              "note": "E4",
              "pitch": 76,
              "beat": 3.5,
              "dur": 0.25,
              "vel": 127
            },
            {
              "note": "E2",
              "pitch": 52,
              "beat": 3.812,
              "dur": 0.188,
              "vel": 127
            },
            {
              "note": "E2",
              "pitch": 52,
              "beat": 4.313,
              "dur": 0.25,
              "vel": 127
            },
            {
              "note": "E2",
              "pitch": 52,
              "beat": 4.813,
              "dur": 0.634,
              "vel": 127
            },
            {
              "note": "E2",
              "pitch": 52,
              "beat": 5.5,
              "dur": 0.441,
              "vel": 127
            },
            {
              "note": "E2",
              "pitch": 52,
              "beat": 6.0,
              "dur": 0.456,
              "vel": 127
            },
            {
              "note": "F2",
              "pitch": 53,
              "beat": 7.0,
              "dur": 0.908,
              "vel": 127
            },
            {
              "note": "E2",
              "pitch": 52,
              "beat": 8.25,
              "dur": 0.25,
              "vel": 127
            },
            {
              "note": "E2",
              "pitch": 52,
              "beat": 8.832,
              "dur": 0.634,
              "vel": 127
            },
            {
              "note": "E2",
              "pitch": 52,
              "beat": 9.5,
              "dur": 0.441,
              "vel": 127
            },
            {
              "note": "E2",
              "pitch": 52,
              "beat": 10.0,
              "dur": 0.343,
              "vel": 127
            },
            {
              "note": "E2",
              "pitch": 52,
              "beat": 10.5,
              "dur": 0.5,
              "vel": 127
            },
            {
              "note": "D#3",
              "pitch": 63,
              "beat": 11.0,
              "dur": 0.5,
              "vel": 127
            },
            {
              "note": "E4",
              "pitch": 76,
              "beat": 11.5,
              "dur": 0.25,
              "vel": 127
            },
            {
              "note": "E2",
              "pitch": 52,
              "beat": 11.812,
              "dur": 0.188,
              "vel": 127
            },
            {
              "note": "E2",
              "pitch": 52,
              "beat": 12.25,
              "dur": 0.25,
              "vel": 127
            },
            {
              "note": "E2",
              "pitch": 52,
              "beat": 12.85,
              "dur": 0.427,
              "vel": 127
            },
            {
              "note": "E2",
              "pitch": 52,
              "beat": 13.5,
              "dur": 0.441,
              "vel": 127
            },
            {
              "note": "E2",
              "pitch": 52,
              "beat": 14.0,
              "dur": 0.456,
              "vel": 127
            },
            {
              "note": "E2",
              "pitch": 52,
              "beat": 15.812,
              "dur": 0.188,
              "vel": 127
            }
          ]
        },
        {
          "bar_start": 88.0,
          "bar_end": 90.0,
          "name": "",
          "notes": [
            {
              "note": "E2",
              "pitch": 52,
              "beat": 0.25,
              "dur": 0.25,
              "vel": 127
            },
            {
              "note": "E2",
              "pitch": 52,
              "beat": 0.832,
              "dur": 0.418,
              "vel": 127
            },
            {
              "note": "E2",
              "pitch": 52,
              "beat": 1.5,
              "dur": 0.376,
              "vel": 127
            },
            {
              "note": "E2",
              "pitch": 52,
              "beat": 2.0,
              "dur": 0.343,
              "vel": 127
            },
            {
              "note": "E2",
              "pitch": 52,
              "beat": 2.5,
              "dur": 0.5,
              "vel": 127
            },
            {
              "note": "D#3",
              "pitch": 63,
              "beat": 3.0,
              "dur": 0.5,
              "vel": 127
            },
            {
              "note": "E4",
              "pitch": 76,
              "beat": 3.5,
              "dur": 0.25,
              "vel": 127
            },
            {
              "note": "E2",
              "pitch": 52,
              "beat": 3.812,
              "dur": 0.188,
              "vel": 127
            },
            {
              "note": "E2",
              "pitch": 52,
              "beat": 4.313,
              "dur": 0.25,
              "vel": 127
            },
            {
              "note": "E2",
              "pitch": 52,
              "beat": 4.813,
              "dur": 0.634,
              "vel": 127
            },
            {
              "note": "E2",
              "pitch": 52,
              "beat": 5.5,
              "dur": 0.441,
              "vel": 127
            },
            {
              "note": "E2",
              "pitch": 52,
              "beat": 6.0,
              "dur": 0.456,
              "vel": 127
            },
            {
              "note": "F2",
              "pitch": 53,
              "beat": 7.0,
              "dur": 0.908,
              "vel": 127
            },
            {
              "note": "E2",
              "pitch": 52,
              "beat": 8.25,
              "dur": 0.25,
              "vel": 127
            },
            {
              "note": "E2",
              "pitch": 52,
              "beat": 8.832,
              "dur": 0.634,
              "vel": 127
            },
            {
              "note": "E2",
              "pitch": 52,
              "beat": 9.5,
              "dur": 0.441,
              "vel": 127
            },
            {
              "note": "E2",
              "pitch": 52,
              "beat": 10.0,
              "dur": 0.343,
              "vel": 127
            },
            {
              "note": "E2",
              "pitch": 52,
              "beat": 10.5,
              "dur": 0.5,
              "vel": 127
            },
            {
              "note": "D#3",
              "pitch": 63,
              "beat": 11.0,
              "dur": 0.5,
              "vel": 127
            },
            {
              "note": "E4",
              "pitch": 76,
              "beat": 11.5,
              "dur": 0.25,
              "vel": 127
            },
            {
              "note": "E2",
              "pitch": 52,
              "beat": 11.812,
              "dur": 0.188,
              "vel": 127
            },
            {
              "note": "E2",
              "pitch": 52,
              "beat": 12.25,
              "dur": 0.25,
              "vel": 127
            },
            {
              "note": "E2",
              "pitch": 52,
              "beat": 12.85,
              "dur": 0.427,
              "vel": 127
            },
            {
              "note": "E2",
              "pitch": 52,
              "beat": 13.5,
              "dur": 0.441,
              "vel": 127
            },
            {
              "note": "E2",
              "pitch": 52,
              "beat": 14.0,
              "dur": 0.456,
              "vel": 127
            },
            {
              "note": "E2",
              "pitch": 52,
              "beat": 15.795,
              "dur": 0.205,
              "vel": 127
            }
          ]
        },
        {
          "bar_start": 91.875,
          "bar_end": 92.0,
          "name": "",
          "notes": [
            {
              "note": "E2",
              "pitch": 52,
              "beat": 0.25,
              "dur": 0.25,
              "vel": 127
            },
            {
              "note": "E2",
              "pitch": 52,
              "beat": 0.832,
              "dur": 0.418,
              "vel": 127
            },
            {
              "note": "E2",
              "pitch": 52,
              "beat": 1.5,
              "dur": 0.376,
              "vel": 127
            },
            {
              "note": "E2",
              "pitch": 52,
              "beat": 2.0,
              "dur": 0.343,
              "vel": 127
            },
            {
              "note": "E2",
              "pitch": 52,
              "beat": 2.5,
              "dur": 0.5,
              "vel": 127
            },
            {
              "note": "D#3",
              "pitch": 63,
              "beat": 3.0,
              "dur": 0.5,
              "vel": 127
            },
            {
              "note": "E2",
              "pitch": 52,
              "beat": 3.812,
              "dur": 0.188,
              "vel": 127
            },
            {
              "note": "E2",
              "pitch": 52,
              "beat": 4.313,
              "dur": 0.25,
              "vel": 127
            },
            {
              "note": "E2",
              "pitch": 52,
              "beat": 4.813,
              "dur": 0.634,
              "vel": 127
            },
            {
              "note": "E2",
              "pitch": 52,
              "beat": 5.5,
              "dur": 0.441,
              "vel": 127
            },
            {
              "note": "E2",
              "pitch": 52,
              "beat": 6.0,
              "dur": 0.456,
              "vel": 127
            },
            {
              "note": "F2",
              "pitch": 53,
              "beat": 7.0,
              "dur": 0.908,
              "vel": 127
            },
            {
              "note": "E2",
              "pitch": 52,
              "beat": 8.25,
              "dur": 0.25,
              "vel": 127
            },
            {
              "note": "E2",
              "pitch": 52,
              "beat": 8.832,
              "dur": 0.634,
              "vel": 127
            },
            {
              "note": "E2",
              "pitch": 52,
              "beat": 9.5,
              "dur": 0.441,
              "vel": 127
            },
            {
              "note": "E2",
              "pitch": 52,
              "beat": 10.0,
              "dur": 0.343,
              "vel": 127
            },
            {
              "note": "E2",
              "pitch": 52,
              "beat": 10.5,
              "dur": 0.5,
              "vel": 127
            },
            {
              "note": "D#3",
              "pitch": 63,
              "beat": 11.0,
              "dur": 0.5,
              "vel": 127
            },
            {
              "note": "E4",
              "pitch": 76,
              "beat": 11.5,
              "dur": 0.25,
              "vel": 127
            },
            {
              "note": "E2",
              "pitch": 52,
              "beat": 11.812,
              "dur": 0.188,
              "vel": 127
            },
            {
              "note": "E2",
              "pitch": 52,
              "beat": 12.25,
              "dur": 0.25,
              "vel": 127
            },
            {
              "note": "E2",
              "pitch": 52,
              "beat": 12.85,
              "dur": 0.427,
              "vel": 127
            },
            {
              "note": "E2",
              "pitch": 52,
              "beat": 13.5,
              "dur": 0.441,
              "vel": 127
            },
            {
              "note": "E2",
              "pitch": 52,
              "beat": 14.0,
              "dur": 0.456,
              "vel": 127
            },
            {
              "note": "F2",
              "pitch": 53,
              "beat": 15.0,
              "dur": 0.908,
              "vel": 127
            }
          ]
        },
        {
          "bar_start": 92.0,
          "bar_end": 96.0,
          "name": "",
          "notes": [
            {
              "note": "E2",
              "pitch": 52,
              "beat": 0.25,
              "dur": 0.25,
              "vel": 127
            },
            {
              "note": "E2",
              "pitch": 52,
              "beat": 0.832,
              "dur": 0.418,
              "vel": 127
            },
            {
              "note": "E2",
              "pitch": 52,
              "beat": 1.5,
              "dur": 0.376,
              "vel": 127
            },
            {
              "note": "E2",
              "pitch": 52,
              "beat": 2.0,
              "dur": 0.343,
              "vel": 127
            },
            {
              "note": "E2",
              "pitch": 52,
              "beat": 2.5,
              "dur": 0.5,
              "vel": 127
            },
            {
              "note": "D#3",
              "pitch": 63,
              "beat": 3.0,
              "dur": 0.5,
              "vel": 127
            },
            {
              "note": "E4",
              "pitch": 76,
              "beat": 3.5,
              "dur": 0.25,
              "vel": 127
            },
            {
              "note": "E2",
              "pitch": 52,
              "beat": 3.812,
              "dur": 0.188,
              "vel": 127
            },
            {
              "note": "E2",
              "pitch": 52,
              "beat": 4.313,
              "dur": 0.25,
              "vel": 127
            },
            {
              "note": "E2",
              "pitch": 52,
              "beat": 4.813,
              "dur": 0.634,
              "vel": 127
            },
            {
              "note": "E2",
              "pitch": 52,
              "beat": 5.5,
              "dur": 0.441,
              "vel": 127
            },
            {
              "note": "E2",
              "pitch": 52,
              "beat": 6.0,
              "dur": 0.456,
              "vel": 127
            },
            {
              "note": "F2",
              "pitch": 53,
              "beat": 7.0,
              "dur": 0.908,
              "vel": 127
            },
            {
              "note": "E2",
              "pitch": 52,
              "beat": 8.25,
              "dur": 0.25,
              "vel": 127
            },
            {
              "note": "E2",
              "pitch": 52,
              "beat": 8.832,
              "dur": 0.634,
              "vel": 127
            },
            {
              "note": "E2",
              "pitch": 52,
              "beat": 9.5,
              "dur": 0.441,
              "vel": 127
            },
            {
              "note": "E2",
              "pitch": 52,
              "beat": 10.0,
              "dur": 0.343,
              "vel": 127
            },
            {
              "note": "E2",
              "pitch": 52,
              "beat": 10.5,
              "dur": 0.5,
              "vel": 127
            },
            {
              "note": "D#3",
              "pitch": 63,
              "beat": 11.0,
              "dur": 0.5,
              "vel": 127
            },
            {
              "note": "E4",
              "pitch": 76,
              "beat": 11.5,
              "dur": 0.25,
              "vel": 127
            },
            {
              "note": "E2",
              "pitch": 52,
              "beat": 11.812,
              "dur": 0.188,
              "vel": 127
            },
            {
              "note": "E2",
              "pitch": 52,
              "beat": 12.25,
              "dur": 0.25,
              "vel": 127
            },
            {
              "note": "E2",
              "pitch": 52,
              "beat": 12.85,
              "dur": 0.427,
              "vel": 127
            },
            {
              "note": "E2",
              "pitch": 52,
              "beat": 13.5,
              "dur": 0.441,
              "vel": 127
            },
            {
              "note": "E2",
              "pitch": 52,
              "beat": 14.0,
              "dur": 0.456,
              "vel": 127
            },
            {
              "note": "E2",
              "pitch": 52,
              "beat": 15.812,
              "dur": 0.188,
              "vel": 127
            }
          ]
        },
        {
          "bar_start": 96.0,
          "bar_end": 98.0,
          "name": "",
          "notes": [
            {
              "note": "E2",
              "pitch": 52,
              "beat": 0.25,
              "dur": 0.25,
              "vel": 127
            },
            {
              "note": "E2",
              "pitch": 52,
              "beat": 0.832,
              "dur": 0.418,
              "vel": 127
            },
            {
              "note": "E2",
              "pitch": 52,
              "beat": 1.5,
              "dur": 0.376,
              "vel": 127
            },
            {
              "note": "E2",
              "pitch": 52,
              "beat": 2.0,
              "dur": 0.343,
              "vel": 127
            },
            {
              "note": "E2",
              "pitch": 52,
              "beat": 2.5,
              "dur": 0.5,
              "vel": 127
            },
            {
              "note": "D#3",
              "pitch": 63,
              "beat": 3.0,
              "dur": 0.5,
              "vel": 127
            },
            {
              "note": "E4",
              "pitch": 76,
              "beat": 3.5,
              "dur": 0.25,
              "vel": 127
            },
            {
              "note": "E2",
              "pitch": 52,
              "beat": 3.812,
              "dur": 0.188,
              "vel": 127
            },
            {
              "note": "E2",
              "pitch": 52,
              "beat": 4.313,
              "dur": 0.25,
              "vel": 127
            },
            {
              "note": "E2",
              "pitch": 52,
              "beat": 4.813,
              "dur": 0.634,
              "vel": 127
            },
            {
              "note": "E2",
              "pitch": 52,
              "beat": 5.5,
              "dur": 0.441,
              "vel": 127
            },
            {
              "note": "E2",
              "pitch": 52,
              "beat": 6.0,
              "dur": 0.456,
              "vel": 127
            },
            {
              "note": "F2",
              "pitch": 53,
              "beat": 7.0,
              "dur": 0.908,
              "vel": 127
            },
            {
              "note": "E2",
              "pitch": 52,
              "beat": 8.25,
              "dur": 0.25,
              "vel": 127
            },
            {
              "note": "E2",
              "pitch": 52,
              "beat": 8.832,
              "dur": 0.634,
              "vel": 127
            },
            {
              "note": "E2",
              "pitch": 52,
              "beat": 9.5,
              "dur": 0.441,
              "vel": 127
            },
            {
              "note": "E2",
              "pitch": 52,
              "beat": 10.0,
              "dur": 0.343,
              "vel": 127
            },
            {
              "note": "E2",
              "pitch": 52,
              "beat": 10.5,
              "dur": 0.5,
              "vel": 127
            },
            {
              "note": "D#3",
              "pitch": 63,
              "beat": 11.0,
              "dur": 0.5,
              "vel": 127
            },
            {
              "note": "E4",
              "pitch": 76,
              "beat": 11.5,
              "dur": 0.25,
              "vel": 127
            },
            {
              "note": "E2",
              "pitch": 52,
              "beat": 11.812,
              "dur": 0.188,
              "vel": 127
            },
            {
              "note": "E2",
              "pitch": 52,
              "beat": 12.25,
              "dur": 0.25,
              "vel": 127
            },
            {
              "note": "E2",
              "pitch": 52,
              "beat": 12.85,
              "dur": 0.427,
              "vel": 127
            },
            {
              "note": "E2",
              "pitch": 52,
              "beat": 13.5,
              "dur": 0.441,
              "vel": 127
            },
            {
              "note": "E2",
              "pitch": 52,
              "beat": 14.0,
              "dur": 0.456,
              "vel": 127
            },
            {
              "note": "E2",
              "pitch": 52,
              "beat": 15.795,
              "dur": 0.205,
              "vel": 127
            }
          ]
        },
        {
          "bar_start": 100.0,
          "bar_end": 104.0,
          "name": "",
          "notes": [
            {
              "note": "E2",
              "pitch": 52,
              "beat": 0.253,
              "dur": 0.185,
              "vel": 127
            },
            {
              "note": "E2",
              "pitch": 52,
              "beat": 0.847,
              "dur": 0.591,
              "vel": 127
            },
            {
              "note": "E2",
              "pitch": 52,
              "beat": 1.506,
              "dur": 0.369,
              "vel": 127
            },
            {
              "note": "E2",
              "pitch": 52,
              "beat": 2.0,
              "dur": 0.5,
              "vel": 127
            },
            {
              "note": "E2",
              "pitch": 52,
              "beat": 3.812,
              "dur": 0.188,
              "vel": 127
            },
            {
              "note": "E2",
              "pitch": 52,
              "beat": 4.253,
              "dur": 0.185,
              "vel": 127
            },
            {
              "note": "E2",
              "pitch": 52,
              "beat": 4.847,
              "dur": 0.591,
              "vel": 127
            },
            {
              "note": "E2",
              "pitch": 52,
              "beat": 5.506,
              "dur": 0.369,
              "vel": 127
            },
            {
              "note": "E2",
              "pitch": 52,
              "beat": 6.0,
              "dur": 0.5,
              "vel": 127
            },
            {
              "note": "F2",
              "pitch": 53,
              "beat": 7.0,
              "dur": 0.75,
              "vel": 127
            },
            {
              "note": "E2",
              "pitch": 52,
              "beat": 7.812,
              "dur": 0.188,
              "vel": 127
            },
            {
              "note": "E2",
              "pitch": 52,
              "beat": 8.253,
              "dur": 0.185,
              "vel": 127
            },
            {
              "note": "E2",
              "pitch": 52,
              "beat": 8.847,
              "dur": 0.591,
              "vel": 127
            },
            {
              "note": "E2",
              "pitch": 52,
              "beat": 9.506,
              "dur": 0.369,
              "vel": 127
            },
            {
              "note": "E2",
              "pitch": 52,
              "beat": 10.0,
              "dur": 0.5,
              "vel": 127
            },
            {
              "note": "E2",
              "pitch": 52,
              "beat": 11.812,
              "dur": 0.188,
              "vel": 127
            },
            {
              "note": "E2",
              "pitch": 52,
              "beat": 12.253,
              "dur": 0.185,
              "vel": 127
            },
            {
              "note": "E2",
              "pitch": 52,
              "beat": 12.847,
              "dur": 0.591,
              "vel": 127
            },
            {
              "note": "E2",
              "pitch": 52,
              "beat": 13.506,
              "dur": 0.369,
              "vel": 127
            },
            {
              "note": "E2",
              "pitch": 52,
              "beat": 14.0,
              "dur": 0.5,
              "vel": 127
            },
            {
              "note": "E2",
              "pitch": 52,
              "beat": 15.812,
              "dur": 0.188,
              "vel": 127
            }
          ]
        },
        {
          "bar_start": 104.0,
          "bar_end": 106.0,
          "name": "",
          "notes": [
            {
              "note": "E2",
              "pitch": 52,
              "beat": 0.253,
              "dur": 0.185,
              "vel": 127
            },
            {
              "note": "E2",
              "pitch": 52,
              "beat": 0.847,
              "dur": 0.591,
              "vel": 127
            },
            {
              "note": "E2",
              "pitch": 52,
              "beat": 1.506,
              "dur": 0.369,
              "vel": 127
            },
            {
              "note": "E2",
              "pitch": 52,
              "beat": 2.0,
              "dur": 0.5,
              "vel": 127
            },
            {
              "note": "E2",
              "pitch": 52,
              "beat": 3.812,
              "dur": 0.188,
              "vel": 127
            },
            {
              "note": "E2",
              "pitch": 52,
              "beat": 4.253,
              "dur": 0.185,
              "vel": 127
            },
            {
              "note": "E2",
              "pitch": 52,
              "beat": 4.847,
              "dur": 0.591,
              "vel": 127
            },
            {
              "note": "E2",
              "pitch": 52,
              "beat": 5.506,
              "dur": 0.369,
              "vel": 127
            },
            {
              "note": "E2",
              "pitch": 52,
              "beat": 6.0,
              "dur": 0.5,
              "vel": 127
            },
            {
              "note": "F2",
              "pitch": 53,
              "beat": 7.0,
              "dur": 0.75,
              "vel": 127
            },
            {
              "note": "E2",
              "pitch": 52,
              "beat": 7.812,
              "dur": 0.188,
              "vel": 127
            },
            {
              "note": "E2",
              "pitch": 52,
              "beat": 8.253,
              "dur": 0.185,
              "vel": 127
            },
            {
              "note": "E2",
              "pitch": 52,
              "beat": 8.847,
              "dur": 0.591,
              "vel": 127
            },
            {
              "note": "E2",
              "pitch": 52,
              "beat": 9.506,
              "dur": 0.369,
              "vel": 127
            },
            {
              "note": "E2",
              "pitch": 52,
              "beat": 10.0,
              "dur": 0.5,
              "vel": 127
            },
            {
              "note": "E2",
              "pitch": 52,
              "beat": 11.812,
              "dur": 0.188,
              "vel": 127
            },
            {
              "note": "E2",
              "pitch": 52,
              "beat": 12.253,
              "dur": 0.185,
              "vel": 127
            },
            {
              "note": "E2",
              "pitch": 52,
              "beat": 12.847,
              "dur": 0.591,
              "vel": 127
            },
            {
              "note": "E2",
              "pitch": 52,
              "beat": 13.506,
              "dur": 0.369,
              "vel": 127
            },
            {
              "note": "E2",
              "pitch": 52,
              "beat": 14.0,
              "dur": 0.5,
              "vel": 127
            },
            {
              "note": "E2",
              "pitch": 52,
              "beat": 15.812,
              "dur": 0.188,
              "vel": 127
            }
          ]
        }
      ],
      "automations": [],
      "children": []
    },
    "94": {
      "id": "94",
      "name": "Pluck Bass",
      "type": "MidiTrack",
      "group_id": "24",
      "devices": [
        {
          "type": "PluginDevice",
          "plugin": "Serum 2",
          "preset": "",
          "vst_params": []
        },
        {
          "type": "StereoGain",
          "On": "true",
          "PhaseInvertL": "false",
          "PhaseInvertR": "false",
          "ChannelMode": "1",
          "StereoWidth": "0.6049382687",
          "MidSideBalance": "1",
          "Mono": "false",
          "BassMono": "false",
          "BassMonoFrequency": "120",
          "Balance": "0",
          "Gain": "1",
          "LegacyGain": "0",
          "Mute": "false",
          "DcFilter": "false"
        }
      ],
      "clips": [
        {
          "bar_start": 24.5,
          "bar_end": 25.0,
          "name": "",
          "notes": [
            {
              "note": "E2",
              "pitch": 52,
              "beat": 2.5,
              "dur": 0.5,
              "vel": 127
            },
            {
              "note": "E4",
              "pitch": 76,
              "beat": 3.5,
              "dur": 0.25,
              "vel": 127
            }
          ]
        },
        {
          "bar_start": 26.5,
          "bar_end": 27.0,
          "name": "",
          "notes": [
            {
              "note": "E2",
              "pitch": 52,
              "beat": 2.5,
              "dur": 0.5,
              "vel": 127
            },
            {
              "note": "E4",
              "pitch": 76,
              "beat": 3.5,
              "dur": 0.25,
              "vel": 127
            }
          ]
        },
        {
          "bar_start": 28.5,
          "bar_end": 29.0,
          "name": "",
          "notes": [
            {
              "note": "E2",
              "pitch": 52,
              "beat": 2.5,
              "dur": 0.5,
              "vel": 127
            },
            {
              "note": "E4",
              "pitch": 76,
              "beat": 3.5,
              "dur": 0.25,
              "vel": 127
            }
          ]
        },
        {
          "bar_start": 30.5,
          "bar_end": 31.0,
          "name": "",
          "notes": [
            {
              "note": "E2",
              "pitch": 52,
              "beat": 2.5,
              "dur": 0.5,
              "vel": 127
            },
            {
              "note": "E4",
              "pitch": 76,
              "beat": 3.5,
              "dur": 0.25,
              "vel": 127
            }
          ]
        },
        {
          "bar_start": 32.5,
          "bar_end": 33.0,
          "name": "",
          "notes": [
            {
              "note": "E2",
              "pitch": 52,
              "beat": 2.5,
              "dur": 0.5,
              "vel": 127
            },
            {
              "note": "E4",
              "pitch": 76,
              "beat": 3.5,
              "dur": 0.25,
              "vel": 127
            }
          ]
        },
        {
          "bar_start": 34.5,
          "bar_end": 35.0,
          "name": "",
          "notes": [
            {
              "note": "E2",
              "pitch": 52,
              "beat": 2.5,
              "dur": 0.5,
              "vel": 127
            },
            {
              "note": "E4",
              "pitch": 76,
              "beat": 3.5,
              "dur": 0.25,
              "vel": 127
            }
          ]
        },
        {
          "bar_start": 36.5,
          "bar_end": 37.0,
          "name": "",
          "notes": [
            {
              "note": "E2",
              "pitch": 52,
              "beat": 2.5,
              "dur": 0.5,
              "vel": 127
            },
            {
              "note": "E4",
              "pitch": 76,
              "beat": 3.5,
              "dur": 0.25,
              "vel": 127
            }
          ]
        },
        {
          "bar_start": 38.5,
          "bar_end": 39.0,
          "name": "",
          "notes": [
            {
              "note": "E2",
              "pitch": 52,
              "beat": 2.5,
              "dur": 0.5,
              "vel": 127
            },
            {
              "note": "E4",
              "pitch": 76,
              "beat": 3.5,
              "dur": 0.25,
              "vel": 127
            }
          ]
        },
        {
          "bar_start": 48.5,
          "bar_end": 49.0,
          "name": "",
          "notes": [
            {
              "note": "E2",
              "pitch": 52,
              "beat": 2.5,
              "dur": 0.5,
              "vel": 127
            },
            {
              "note": "E4",
              "pitch": 76,
              "beat": 3.5,
              "dur": 0.25,
              "vel": 127
            }
          ]
        },
        {
          "bar_start": 50.5,
          "bar_end": 51.0,
          "name": "",
          "notes": [
            {
              "note": "E2",
              "pitch": 52,
              "beat": 2.5,
              "dur": 0.5,
              "vel": 127
            },
            {
              "note": "E4",
              "pitch": 76,
              "beat": 3.5,
              "dur": 0.25,
              "vel": 127
            }
          ]
        },
        {
          "bar_start": 52.5,
          "bar_end": 53.0,
          "name": "",
          "notes": [
            {
              "note": "E2",
              "pitch": 52,
              "beat": 2.5,
              "dur": 0.5,
              "vel": 127
            },
            {
              "note": "E4",
              "pitch": 76,
              "beat": 3.5,
              "dur": 0.25,
              "vel": 127
            }
          ]
        },
        {
          "bar_start": 54.5,
          "bar_end": 55.0,
          "name": "",
          "notes": [
            {
              "note": "E2",
              "pitch": 52,
              "beat": 2.5,
              "dur": 0.5,
              "vel": 127
            },
            {
              "note": "E4",
              "pitch": 76,
              "beat": 3.5,
              "dur": 0.25,
              "vel": 127
            }
          ]
        },
        {
          "bar_start": 84.5,
          "bar_end": 85.0,
          "name": "",
          "notes": [
            {
              "note": "E2",
              "pitch": 52,
              "beat": 2.5,
              "dur": 0.5,
              "vel": 127
            },
            {
              "note": "E4",
              "pitch": 76,
              "beat": 3.5,
              "dur": 0.25,
              "vel": 127
            }
          ]
        },
        {
          "bar_start": 86.5,
          "bar_end": 87.0,
          "name": "",
          "notes": [
            {
              "note": "E2",
              "pitch": 52,
              "beat": 2.5,
              "dur": 0.5,
              "vel": 127
            },
            {
              "note": "E4",
              "pitch": 76,
              "beat": 3.5,
              "dur": 0.25,
              "vel": 127
            }
          ]
        },
        {
          "bar_start": 88.5,
          "bar_end": 89.0,
          "name": "",
          "notes": [
            {
              "note": "E2",
              "pitch": 52,
              "beat": 2.5,
              "dur": 0.5,
              "vel": 127
            },
            {
              "note": "E4",
              "pitch": 76,
              "beat": 3.5,
              "dur": 0.25,
              "vel": 127
            }
          ]
        },
        {
          "bar_start": 90.5,
          "bar_end": 91.0,
          "name": "",
          "notes": [
            {
              "note": "E2",
              "pitch": 52,
              "beat": 2.5,
              "dur": 0.5,
              "vel": 127
            },
            {
              "note": "E4",
              "pitch": 76,
              "beat": 3.5,
              "dur": 0.25,
              "vel": 127
            }
          ]
        },
        {
          "bar_start": 92.5,
          "bar_end": 93.0,
          "name": "",
          "notes": [
            {
              "note": "E2",
              "pitch": 52,
              "beat": 2.5,
              "dur": 0.5,
              "vel": 127
            },
            {
              "note": "E4",
              "pitch": 76,
              "beat": 3.5,
              "dur": 0.25,
              "vel": 127
            }
          ]
        },
        {
          "bar_start": 94.5,
          "bar_end": 95.0,
          "name": "",
          "notes": [
            {
              "note": "E2",
              "pitch": 52,
              "beat": 2.5,
              "dur": 0.5,
              "vel": 127
            },
            {
              "note": "E4",
              "pitch": 76,
              "beat": 3.5,
              "dur": 0.25,
              "vel": 127
            }
          ]
        },
        {
          "bar_start": 96.5,
          "bar_end": 97.0,
          "name": "",
          "notes": [
            {
              "note": "E2",
              "pitch": 52,
              "beat": 2.5,
              "dur": 0.5,
              "vel": 127
            },
            {
              "note": "E4",
              "pitch": 76,
              "beat": 3.5,
              "dur": 0.25,
              "vel": 127
            }
          ]
        },
        {
          "bar_start": 98.5,
          "bar_end": 99.0,
          "name": "",
          "notes": [
            {
              "note": "E2",
              "pitch": 52,
              "beat": 2.5,
              "dur": 0.5,
              "vel": 127
            },
            {
              "note": "E4",
              "pitch": 76,
              "beat": 3.5,
              "dur": 0.25,
              "vel": 127
            }
          ]
        }
      ],
      "automations": [],
      "children": []
    },
    "95": {
      "id": "95",
      "name": "Lead",
      "type": "MidiTrack",
      "group_id": "24",
      "devices": [
        {
          "type": "PluginDevice",
          "plugin": "Serum 2",
          "preset": "",
          "vst_params": []
        },
        {
          "type": "StereoGain",
          "On": "true",
          "PhaseInvertL": "false",
          "PhaseInvertR": "false",
          "ChannelMode": "1",
          "StereoWidth": "1",
          "MidSideBalance": "0.6507936716",
          "Mono": "false",
          "BassMono": "false",
          "BassMonoFrequency": "120",
          "Balance": "0",
          "Gain": "1",
          "LegacyGain": "0",
          "Mute": "false",
          "DcFilter": "false"
        },
        {
          "type": "Eq8",
          "bands": []
        },
        {
          "type": "MultibandDynamics",
          "DryWet": "1"
        },
        {
          "type": "Reverb",
          "PreDelay": "2.5",
          "RoomSize": "100",
          "DecayTime": "1200",
          "FreezeOn": "false"
        },
        {
          "type": "Eq8",
          "bands": []
        },
        {
          "type": "PluginDevice",
          "plugin": "Kickstart 2",
          "preset": "",
          "vst_params": []
        },
        {
          "type": "Erosion",
          "On": "true",
          "Mode": "0",
          "Freq": "18000",
          "Amplitude": "125.66925",
          "BandQ": "0.3000000119"
        }
      ],
      "clips": [
        {
          "bar_start": 23.875,
          "bar_end": 29.875,
          "name": "",
          "notes": [
            {
              "note": "E4",
              "pitch": 76,
              "beat": 3.759,
              "dur": 0.156,
              "vel": 100
            },
            {
              "note": "E4",
              "pitch": 76,
              "beat": 4.25,
              "dur": 0.25,
              "vel": 100
            },
            {
              "note": "E4",
              "pitch": 76,
              "beat": 4.762,
              "dur": 0.168,
              "vel": 100
            },
            {
              "note": "E4",
              "pitch": 76,
              "beat": 5.074,
              "dur": 0.375,
              "vel": 100
            },
            {
              "note": "E4",
              "pitch": 76,
              "beat": 5.5,
              "dur": 0.458,
              "vel": 100
            },
            {
              "note": "E4",
              "pitch": 76,
              "beat": 6.0,
              "dur": 0.5,
              "vel": 100
            },
            {
              "note": "E4",
              "pitch": 76,
              "beat": 7.759,
              "dur": 0.156,
              "vel": 100
            },
            {
              "note": "E4",
              "pitch": 76,
              "beat": 8.25,
              "dur": 0.25,
              "vel": 100
            },
            {
              "note": "E4",
              "pitch": 76,
              "beat": 8.762,
              "dur": 0.168,
              "vel": 100
            },
            {
              "note": "E4",
              "pitch": 76,
              "beat": 9.074,
              "dur": 0.375,
              "vel": 100
            },
            {
              "note": "E4",
              "pitch": 76,
              "beat": 9.5,
              "dur": 0.458,
              "vel": 100
            },
            {
              "note": "E4",
              "pitch": 76,
              "beat": 10.0,
              "dur": 0.5,
              "vel": 100
            }
          ]
        },
        {
          "bar_start": 31.875,
          "bar_end": 37.875,
          "name": "",
          "notes": [
            {
              "note": "E4",
              "pitch": 76,
              "beat": 3.759,
              "dur": 0.156,
              "vel": 100
            },
            {
              "note": "E4",
              "pitch": 76,
              "beat": 4.25,
              "dur": 0.25,
              "vel": 100
            },
            {
              "note": "E4",
              "pitch": 76,
              "beat": 4.762,
              "dur": 0.168,
              "vel": 100
            },
            {
              "note": "E4",
              "pitch": 76,
              "beat": 5.074,
              "dur": 0.375,
              "vel": 100
            },
            {
              "note": "E4",
              "pitch": 76,
              "beat": 5.5,
              "dur": 0.458,
              "vel": 100
            },
            {
              "note": "E4",
              "pitch": 76,
              "beat": 6.0,
              "dur": 0.5,
              "vel": 100
            },
            {
              "note": "E4",
              "pitch": 76,
              "beat": 7.759,
              "dur": 0.156,
              "vel": 100
            },
            {
              "note": "E4",
              "pitch": 76,
              "beat": 8.25,
              "dur": 0.25,
              "vel": 100
            },
            {
              "note": "E4",
              "pitch": 76,
              "beat": 8.762,
              "dur": 0.168,
              "vel": 100
            },
            {
              "note": "E4",
              "pitch": 76,
              "beat": 9.074,
              "dur": 0.375,
              "vel": 100
            },
            {
              "note": "E4",
              "pitch": 76,
              "beat": 9.5,
              "dur": 0.458,
              "vel": 100
            },
            {
              "note": "E4",
              "pitch": 76,
              "beat": 10.0,
              "dur": 0.5,
              "vel": 100
            }
          ]
        },
        {
          "bar_start": 47.875,
          "bar_end": 48.0,
          "name": "",
          "notes": [
            {
              "note": "E4",
              "pitch": 76,
              "beat": 3.759,
              "dur": 0.156,
              "vel": 100
            },
            {
              "note": "E4",
              "pitch": 76,
              "beat": 4.25,
              "dur": 0.25,
              "vel": 100
            },
            {
              "note": "E4",
              "pitch": 76,
              "beat": 4.762,
              "dur": 0.168,
              "vel": 100
            },
            {
              "note": "E4",
              "pitch": 76,
              "beat": 5.074,
              "dur": 0.375,
              "vel": 100
            },
            {
              "note": "E4",
              "pitch": 76,
              "beat": 5.5,
              "dur": 0.458,
              "vel": 100
            },
            {
              "note": "E4",
              "pitch": 76,
              "beat": 6.0,
              "dur": 0.5,
              "vel": 100
            },
            {
              "note": "E4",
              "pitch": 76,
              "beat": 7.759,
              "dur": 0.156,
              "vel": 100
            },
            {
              "note": "E4",
              "pitch": 76,
              "beat": 8.25,
              "dur": 0.25,
              "vel": 100
            },
            {
              "note": "E4",
              "pitch": 76,
              "beat": 8.762,
              "dur": 0.168,
              "vel": 100
            },
            {
              "note": "E4",
              "pitch": 76,
              "beat": 9.074,
              "dur": 0.375,
              "vel": 100
            },
            {
              "note": "E4",
              "pitch": 76,
              "beat": 9.5,
              "dur": 0.458,
              "vel": 100
            },
            {
              "note": "E4",
              "pitch": 76,
              "beat": 10.0,
              "dur": 0.5,
              "vel": 100
            },
            {
              "note": "E4",
              "pitch": 76,
              "beat": 14.0,
              "dur": 0.25,
              "vel": 100
            },
            {
              "note": "E4",
              "pitch": 76,
              "beat": 15.788,
              "dur": 0.156,
              "vel": 100
            },
            {
              "note": "E4",
              "pitch": 76,
              "beat": 16.25,
              "dur": 0.25,
              "vel": 100
            },
            {
              "note": "E4",
              "pitch": 76,
              "beat": 16.832,
              "dur": 0.168,
              "vel": 100
            },
            {
              "note": "E4",
              "pitch": 76,
              "beat": 17.119,
              "dur": 0.299,
              "vel": 100
            },
            {
              "note": "E4",
              "pitch": 76,
              "beat": 17.5,
              "dur": 0.32,
              "vel": 100
            },
            {
              "note": "E4",
              "pitch": 76,
              "beat": 18.0,
              "dur": 0.607,
              "vel": 100
            }
          ]
        },
        {
          "bar_start": 48.0,
          "bar_end": 49.875,
          "name": "",
          "notes": [
            {
              "note": "E4",
              "pitch": 76,
              "beat": 3.759,
              "dur": 0.156,
              "vel": 100
            },
            {
              "note": "E4",
              "pitch": 76,
              "beat": 4.25,
              "dur": 0.25,
              "vel": 100
            },
            {
              "note": "E4",
              "pitch": 76,
              "beat": 4.762,
              "dur": 0.168,
              "vel": 100
            },
            {
              "note": "E4",
              "pitch": 76,
              "beat": 5.074,
              "dur": 0.375,
              "vel": 100
            },
            {
              "note": "E4",
              "pitch": 76,
              "beat": 5.5,
              "dur": 0.458,
              "vel": 100
            },
            {
              "note": "E4",
              "pitch": 76,
              "beat": 6.0,
              "dur": 0.5,
              "vel": 100
            },
            {
              "note": "E4",
              "pitch": 76,
              "beat": 7.759,
              "dur": 0.156,
              "vel": 100
            },
            {
              "note": "E4",
              "pitch": 76,
              "beat": 8.25,
              "dur": 0.25,
              "vel": 100
            },
            {
              "note": "E4",
              "pitch": 76,
              "beat": 8.762,
              "dur": 0.168,
              "vel": 100
            },
            {
              "note": "E4",
              "pitch": 76,
              "beat": 9.074,
              "dur": 0.375,
              "vel": 100
            },
            {
              "note": "E4",
              "pitch": 76,
              "beat": 9.5,
              "dur": 0.458,
              "vel": 100
            },
            {
              "note": "E4",
              "pitch": 76,
              "beat": 10.0,
              "dur": 0.5,
              "vel": 100
            },
            {
              "note": "E4",
              "pitch": 76,
              "beat": 14.0,
              "dur": 0.25,
              "vel": 100
            },
            {
              "note": "E4",
              "pitch": 76,
              "beat": 15.788,
              "dur": 0.156,
              "vel": 100
            },
            {
              "note": "E4",
              "pitch": 76,
              "beat": 16.25,
              "dur": 0.25,
              "vel": 100
            },
            {
              "note": "E4",
              "pitch": 76,
              "beat": 16.832,
              "dur": 0.168,
              "vel": 100
            },
            {
              "note": "E4",
              "pitch": 76,
              "beat": 17.119,
              "dur": 0.299,
              "vel": 100
            },
            {
              "note": "E4",
              "pitch": 76,
              "beat": 17.5,
              "dur": 0.32,
              "vel": 100
            },
            {
              "note": "E4",
              "pitch": 76,
              "beat": 18.0,
              "dur": 0.607,
              "vel": 100
            }
          ]
        },
        {
          "bar_start": 49.875,
          "bar_end": 51.875,
          "name": "",
          "notes": [
            {
              "note": "E4",
              "pitch": 76,
              "beat": 3.759,
              "dur": 0.156,
              "vel": 100
            },
            {
              "note": "E4",
              "pitch": 76,
              "beat": 4.25,
              "dur": 0.25,
              "vel": 100
            },
            {
              "note": "E4",
              "pitch": 76,
              "beat": 4.762,
              "dur": 0.168,
              "vel": 100
            },
            {
              "note": "E4",
              "pitch": 76,
              "beat": 5.074,
              "dur": 0.375,
              "vel": 100
            },
            {
              "note": "E4",
              "pitch": 76,
              "beat": 5.5,
              "dur": 0.458,
              "vel": 100
            },
            {
              "note": "E4",
              "pitch": 76,
              "beat": 6.0,
              "dur": 0.5,
              "vel": 100
            },
            {
              "note": "E4",
              "pitch": 76,
              "beat": 7.759,
              "dur": 0.156,
              "vel": 100
            },
            {
              "note": "E4",
              "pitch": 76,
              "beat": 8.25,
              "dur": 0.25,
              "vel": 100
            },
            {
              "note": "E4",
              "pitch": 76,
              "beat": 8.762,
              "dur": 0.168,
              "vel": 100
            },
            {
              "note": "E4",
              "pitch": 76,
              "beat": 9.074,
              "dur": 0.375,
              "vel": 100
            },
            {
              "note": "E4",
              "pitch": 76,
              "beat": 9.5,
              "dur": 0.458,
              "vel": 100
            },
            {
              "note": "E4",
              "pitch": 76,
              "beat": 10.0,
              "dur": 0.5,
              "vel": 100
            },
            {
              "note": "E4",
              "pitch": 76,
              "beat": 14.0,
              "dur": 0.25,
              "vel": 100
            },
            {
              "note": "E4",
              "pitch": 76,
              "beat": 15.788,
              "dur": 0.156,
              "vel": 100
            },
            {
              "note": "E4",
              "pitch": 76,
              "beat": 16.25,
              "dur": 0.25,
              "vel": 100
            },
            {
              "note": "E4",
              "pitch": 76,
              "beat": 16.832,
              "dur": 0.168,
              "vel": 100
            },
            {
              "note": "E4",
              "pitch": 76,
              "beat": 17.119,
              "dur": 0.299,
              "vel": 100
            },
            {
              "note": "E4",
              "pitch": 76,
              "beat": 17.5,
              "dur": 0.32,
              "vel": 100
            },
            {
              "note": "E4",
              "pitch": 76,
              "beat": 18.0,
              "dur": 0.607,
              "vel": 100
            }
          ]
        },
        {
          "bar_start": 51.875,
          "bar_end": 53.875,
          "name": "",
          "notes": [
            {
              "note": "E4",
              "pitch": 76,
              "beat": 3.759,
              "dur": 0.156,
              "vel": 100
            },
            {
              "note": "E4",
              "pitch": 76,
              "beat": 4.25,
              "dur": 0.25,
              "vel": 100
            },
            {
              "note": "E4",
              "pitch": 76,
              "beat": 4.762,
              "dur": 0.168,
              "vel": 100
            },
            {
              "note": "E4",
              "pitch": 76,
              "beat": 5.074,
              "dur": 0.375,
              "vel": 100
            },
            {
              "note": "E4",
              "pitch": 76,
              "beat": 5.5,
              "dur": 0.458,
              "vel": 100
            },
            {
              "note": "E4",
              "pitch": 76,
              "beat": 6.0,
              "dur": 0.5,
              "vel": 100
            },
            {
              "note": "E4",
              "pitch": 76,
              "beat": 7.759,
              "dur": 0.156,
              "vel": 100
            },
            {
              "note": "E4",
              "pitch": 76,
              "beat": 8.25,
              "dur": 0.25,
              "vel": 100
            },
            {
              "note": "E4",
              "pitch": 76,
              "beat": 8.762,
              "dur": 0.168,
              "vel": 100
            },
            {
              "note": "E4",
              "pitch": 76,
              "beat": 9.074,
              "dur": 0.375,
              "vel": 100
            },
            {
              "note": "E4",
              "pitch": 76,
              "beat": 9.5,
              "dur": 0.458,
              "vel": 100
            },
            {
              "note": "E4",
              "pitch": 76,
              "beat": 10.0,
              "dur": 0.5,
              "vel": 100
            },
            {
              "note": "E4",
              "pitch": 76,
              "beat": 14.0,
              "dur": 0.25,
              "vel": 100
            },
            {
              "note": "E4",
              "pitch": 76,
              "beat": 15.788,
              "dur": 0.156,
              "vel": 100
            },
            {
              "note": "E4",
              "pitch": 76,
              "beat": 16.25,
              "dur": 0.25,
              "vel": 100
            },
            {
              "note": "E4",
              "pitch": 76,
              "beat": 16.832,
              "dur": 0.168,
              "vel": 100
            },
            {
              "note": "E4",
              "pitch": 76,
              "beat": 17.119,
              "dur": 0.299,
              "vel": 100
            },
            {
              "note": "E4",
              "pitch": 76,
              "beat": 17.5,
              "dur": 0.32,
              "vel": 100
            },
            {
              "note": "E4",
              "pitch": 76,
              "beat": 18.0,
              "dur": 0.607,
              "vel": 100
            }
          ]
        },
        {
          "bar_start": 83.875,
          "bar_end": 89.875,
          "name": "",
          "notes": [
            {
              "note": "E4",
              "pitch": 76,
              "beat": 3.759,
              "dur": 0.156,
              "vel": 100
            },
            {
              "note": "E4",
              "pitch": 76,
              "beat": 4.25,
              "dur": 0.25,
              "vel": 100
            },
            {
              "note": "E4",
              "pitch": 76,
              "beat": 4.762,
              "dur": 0.168,
              "vel": 100
            },
            {
              "note": "E4",
              "pitch": 76,
              "beat": 5.074,
              "dur": 0.375,
              "vel": 100
            },
            {
              "note": "E4",
              "pitch": 76,
              "beat": 5.5,
              "dur": 0.458,
              "vel": 100
            },
            {
              "note": "E4",
              "pitch": 76,
              "beat": 6.0,
              "dur": 0.5,
              "vel": 100
            },
            {
              "note": "E4",
              "pitch": 76,
              "beat": 7.759,
              "dur": 0.156,
              "vel": 100
            },
            {
              "note": "E4",
              "pitch": 76,
              "beat": 8.25,
              "dur": 0.25,
              "vel": 100
            },
            {
              "note": "E4",
              "pitch": 76,
              "beat": 8.762,
              "dur": 0.168,
              "vel": 100
            },
            {
              "note": "E4",
              "pitch": 76,
              "beat": 9.074,
              "dur": 0.375,
              "vel": 100
            },
            {
              "note": "E4",
              "pitch": 76,
              "beat": 9.5,
              "dur": 0.458,
              "vel": 100
            },
            {
              "note": "E4",
              "pitch": 76,
              "beat": 10.0,
              "dur": 0.5,
              "vel": 100
            }
          ]
        },
        {
          "bar_start": 91.875,
          "bar_end": 97.875,
          "name": "",
          "notes": [
            {
              "note": "E4",
              "pitch": 76,
              "beat": 3.759,
              "dur": 0.156,
              "vel": 100
            },
            {
              "note": "E4",
              "pitch": 76,
              "beat": 4.25,
              "dur": 0.25,
              "vel": 100
            },
            {
              "note": "E4",
              "pitch": 76,
              "beat": 4.762,
              "dur": 0.168,
              "vel": 100
            },
            {
              "note": "E4",
              "pitch": 76,
              "beat": 5.074,
              "dur": 0.375,
              "vel": 100
            },
            {
              "note": "E4",
              "pitch": 76,
              "beat": 5.5,
              "dur": 0.458,
              "vel": 100
            },
            {
              "note": "E4",
              "pitch": 76,
              "beat": 6.0,
              "dur": 0.5,
              "vel": 100
            },
            {
              "note": "E4",
              "pitch": 76,
              "beat": 7.759,
              "dur": 0.156,
              "vel": 100
            },
            {
              "note": "E4",
              "pitch": 76,
              "beat": 8.25,
              "dur": 0.25,
              "vel": 100
            },
            {
              "note": "E4",
              "pitch": 76,
              "beat": 8.762,
              "dur": 0.168,
              "vel": 100
            },
            {
              "note": "E4",
              "pitch": 76,
              "beat": 9.074,
              "dur": 0.375,
              "vel": 100
            },
            {
              "note": "E4",
              "pitch": 76,
              "beat": 9.5,
              "dur": 0.458,
              "vel": 100
            },
            {
              "note": "E4",
              "pitch": 76,
              "beat": 10.0,
              "dur": 0.5,
              "vel": 100
            }
          ]
        }
      ],
      "automations": [],
      "children": []
    },
    "97": {
      "id": "97",
      "name": "Reese Basic",
      "type": "MidiTrack",
      "group_id": "24",
      "devices": [
        {
          "type": "PluginDevice",
          "plugin": "Serum 2",
          "preset": "",
          "vst_params": []
        },
        {
          "type": "PluginDevice",
          "plugin": "Kickstart 2",
          "preset": "",
          "vst_params": []
        },
        {
          "type": "Eq8",
          "bands": []
        },
        {
          "type": "StereoGain",
          "On": "true",
          "PhaseInvertL": "false",
          "PhaseInvertR": "false",
          "ChannelMode": "1",
          "StereoWidth": "0.5102040768",
          "MidSideBalance": "1",
          "Mono": "false",
          "BassMono": "false",
          "BassMonoFrequency": "120",
          "Balance": "0",
          "Gain": "1",
          "LegacyGain": "0",
          "Mute": "false",
          "DcFilter": "false"
        }
      ],
      "clips": [
        {
          "bar_start": 30.0,
          "bar_end": 32.0,
          "name": "",
          "notes": [
            {
              "note": "F2",
              "pitch": 53,
              "beat": 0.5,
              "dur": 3.5,
              "vel": 62
            },
            {
              "note": "E2",
              "pitch": 52,
              "beat": 4.5,
              "dur": 2.5,
              "vel": 62
            }
          ]
        },
        {
          "bar_start": 38.0,
          "bar_end": 40.0,
          "name": "",
          "notes": [
            {
              "note": "F2",
              "pitch": 53,
              "beat": 0.5,
              "dur": 3.5,
              "vel": 62
            },
            {
              "note": "E2",
              "pitch": 52,
              "beat": 4.5,
              "dur": 2.5,
              "vel": 62
            }
          ]
        },
        {
          "bar_start": 54.0,
          "bar_end": 56.0,
          "name": "",
          "notes": [
            {
              "note": "F2",
              "pitch": 53,
              "beat": 0.5,
              "dur": 3.5,
              "vel": 62
            },
            {
              "note": "E2",
              "pitch": 52,
              "beat": 4.5,
              "dur": 2.5,
              "vel": 62
            }
          ]
        },
        {
          "bar_start": 90.0,
          "bar_end": 92.0,
          "name": "",
          "notes": [
            {
              "note": "F2",
              "pitch": 53,
              "beat": 0.5,
              "dur": 3.5,
              "vel": 62
            },
            {
              "note": "E2",
              "pitch": 52,
              "beat": 4.5,
              "dur": 2.5,
              "vel": 62
            }
          ]
        },
        {
          "bar_start": 98.0,
          "bar_end": 100.0,
          "name": "",
          "notes": [
            {
              "note": "F2",
              "pitch": 53,
              "beat": 0.5,
              "dur": 3.5,
              "vel": 62
            },
            {
              "note": "E2",
              "pitch": 52,
              "beat": 4.5,
              "dur": 2.5,
              "vel": 62
            }
          ]
        },
        {
          "bar_start": 106.0,
          "bar_end": 108.0,
          "name": "",
          "notes": [
            {
              "note": "F2",
              "pitch": 53,
              "beat": 0.5,
              "dur": 3.5,
              "vel": 62
            },
            {
              "note": "E2",
              "pitch": 52,
              "beat": 4.5,
              "dur": 2.5,
              "vel": 62
            }
          ]
        }
      ],
      "automations": [],
      "children": []
    },
    "98": {
      "id": "98",
      "name": "Reese",
      "type": "MidiTrack",
      "group_id": "24",
      "devices": [
        {
          "type": "PluginDevice",
          "plugin": "Serum 2",
          "preset": "",
          "vst_params": []
        },
        {
          "type": "PluginDevice",
          "plugin": "Kickstart 2",
          "preset": "",
          "vst_params": []
        },
        {
          "type": "StereoGain",
          "On": "true",
          "PhaseInvertL": "false",
          "PhaseInvertR": "false",
          "ChannelMode": "1",
          "StereoWidth": "0.3832199872",
          "MidSideBalance": "1",
          "Mono": "false",
          "BassMono": "false",
          "BassMonoFrequency": "120",
          "Balance": "0",
          "Gain": "1",
          "LegacyGain": "0",
          "Mute": "false",
          "DcFilter": "false"
        }
      ],
      "clips": [
        {
          "bar_start": 30.0,
          "bar_end": 32.0,
          "name": "",
          "notes": [
            {
              "note": "F2",
              "pitch": 53,
              "beat": 0.5,
              "dur": 3.5,
              "vel": 62
            },
            {
              "note": "E2",
              "pitch": 52,
              "beat": 4.5,
              "dur": 2.5,
              "vel": 62
            }
          ]
        },
        {
          "bar_start": 38.0,
          "bar_end": 40.0,
          "name": "",
          "notes": [
            {
              "note": "F2",
              "pitch": 53,
              "beat": 0.5,
              "dur": 3.5,
              "vel": 62
            },
            {
              "note": "E2",
              "pitch": 52,
              "beat": 4.5,
              "dur": 2.5,
              "vel": 62
            }
          ]
        },
        {
          "bar_start": 54.0,
          "bar_end": 56.0,
          "name": "",
          "notes": [
            {
              "note": "F2",
              "pitch": 53,
              "beat": 0.5,
              "dur": 3.5,
              "vel": 62
            },
            {
              "note": "E2",
              "pitch": 52,
              "beat": 4.5,
              "dur": 2.5,
              "vel": 62
            }
          ]
        },
        {
          "bar_start": 90.0,
          "bar_end": 92.0,
          "name": "",
          "notes": [
            {
              "note": "F2",
              "pitch": 53,
              "beat": 0.5,
              "dur": 3.5,
              "vel": 62
            },
            {
              "note": "E2",
              "pitch": 52,
              "beat": 4.5,
              "dur": 2.5,
              "vel": 62
            }
          ]
        },
        {
          "bar_start": 98.0,
          "bar_end": 100.0,
          "name": "",
          "notes": [
            {
              "note": "F2",
              "pitch": 53,
              "beat": 0.5,
              "dur": 3.5,
              "vel": 62
            },
            {
              "note": "E2",
              "pitch": 52,
              "beat": 4.5,
              "dur": 2.5,
              "vel": 62
            }
          ]
        },
        {
          "bar_start": 106.0,
          "bar_end": 108.0,
          "name": "",
          "notes": [
            {
              "note": "F2",
              "pitch": 53,
              "beat": 0.5,
              "dur": 3.5,
              "vel": 62
            },
            {
              "note": "E2",
              "pitch": 52,
              "beat": 4.5,
              "dur": 2.5,
              "vel": 62
            }
          ]
        }
      ],
      "automations": [],
      "children": []
    },
    "104": {
      "id": "104",
      "name": "Drone Synth",
      "type": "MidiTrack",
      "group_id": "24",
      "devices": [
        {
          "type": "PluginDevice",
          "plugin": "Serum 2",
          "preset": "",
          "vst_params": []
        },
        {
          "type": "Eq8",
          "bands": []
        },
        {
          "type": "MultibandDynamics",
          "DryWet": "1"
        },
        {
          "type": "StereoGain",
          "On": "true",
          "PhaseInvertL": "false",
          "PhaseInvertR": "false",
          "ChannelMode": "1",
          "StereoWidth": "0.7077349424",
          "MidSideBalance": "1",
          "Mono": "false",
          "BassMono": "false",
          "BassMonoFrequency": "120",
          "Balance": "0",
          "Gain": "1",
          "LegacyGain": "0",
          "Mute": "false",
          "DcFilter": "false"
        }
      ],
      "clips": [
        {
          "bar_start": 8.0,
          "bar_end": 24.0,
          "name": "",
          "notes": [
            {
              "note": "E3",
              "pitch": 64,
              "beat": 0.0,
              "dur": 0.5,
              "vel": 127
            },
            {
              "note": "E3",
              "pitch": 64,
              "beat": 4.0,
              "dur": 0.5,
              "vel": 127
            },
            {
              "note": "E3",
              "pitch": 64,
              "beat": 8.0,
              "dur": 0.5,
              "vel": 127
            },
            {
              "note": "E3",
              "pitch": 64,
              "beat": 12.0,
              "dur": 0.5,
              "vel": 127
            },
            {
              "note": "E3",
              "pitch": 64,
              "beat": 16.0,
              "dur": 0.5,
              "vel": 127
            },
            {
              "note": "E3",
              "pitch": 64,
              "beat": 20.0,
              "dur": 0.5,
              "vel": 127
            },
            {
              "note": "E3",
              "pitch": 64,
              "beat": 24.0,
              "dur": 0.5,
              "vel": 127
            },
            {
              "note": "E3",
              "pitch": 64,
              "beat": 28.0,
              "dur": 0.5,
              "vel": 127
            },
            {
              "note": "E3",
              "pitch": 64,
              "beat": 32.0,
              "dur": 0.5,
              "vel": 127
            },
            {
              "note": "E3",
              "pitch": 64,
              "beat": 36.0,
              "dur": 0.5,
              "vel": 127
            },
            {
              "note": "E3",
              "pitch": 64,
              "beat": 40.0,
              "dur": 0.5,
              "vel": 127
            },
            {
              "note": "E3",
              "pitch": 64,
              "beat": 44.0,
              "dur": 0.5,
              "vel": 127
            },
            {
              "note": "E3",
              "pitch": 64,
              "beat": 48.0,
              "dur": 0.5,
              "vel": 127
            },
            {
              "note": "E3",
              "pitch": 64,
              "beat": 52.0,
              "dur": 0.5,
              "vel": 127
            }
          ]
        },
        {
          "bar_start": 40.0,
          "bar_end": 45.75,
          "name": "",
          "notes": [
            {
              "note": "E3",
              "pitch": 64,
              "beat": 0.0,
              "dur": 0.5,
              "vel": 127
            },
            {
              "note": "E3",
              "pitch": 64,
              "beat": 2.0,
              "dur": 0.5,
              "vel": 127
            },
            {
              "note": "E3",
              "pitch": 64,
              "beat": 4.0,
              "dur": 0.5,
              "vel": 127
            },
            {
              "note": "E3",
              "pitch": 64,
              "beat": 6.0,
              "dur": 0.5,
              "vel": 127
            },
            {
              "note": "E3",
              "pitch": 64,
              "beat": 8.0,
              "dur": 0.5,
              "vel": 127
            },
            {
              "note": "E3",
              "pitch": 64,
              "beat": 10.0,
              "dur": 0.5,
              "vel": 127
            },
            {
              "note": "E3",
              "pitch": 64,
              "beat": 12.0,
              "dur": 0.5,
              "vel": 127
            },
            {
              "note": "E3",
              "pitch": 64,
              "beat": 14.0,
              "dur": 0.5,
              "vel": 127
            },
            {
              "note": "E3",
              "pitch": 64,
              "beat": 15.0,
              "dur": 0.5,
              "vel": 127
            },
            {
              "note": "E3",
              "pitch": 64,
              "beat": 16.0,
              "dur": 0.5,
              "vel": 127
            },
            {
              "note": "E3",
              "pitch": 64,
              "beat": 17.0,
              "dur": 0.5,
              "vel": 127
            },
            {
              "note": "E3",
              "pitch": 64,
              "beat": 18.0,
              "dur": 0.5,
              "vel": 127
            },
            {
              "note": "E3",
              "pitch": 64,
              "beat": 19.0,
              "dur": 0.5,
              "vel": 127
            },
            {
              "note": "E3",
              "pitch": 64,
              "beat": 20.0,
              "dur": 0.5,
              "vel": 127
            },
            {
              "note": "E3",
              "pitch": 64,
              "beat": 20.5,
              "dur": 0.5,
              "vel": 127
            },
            {
              "note": "E3",
              "pitch": 64,
              "beat": 21.0,
              "dur": 0.5,
              "vel": 127
            },
            {
              "note": "E3",
              "pitch": 64,
              "beat": 21.5,
              "dur": 0.5,
              "vel": 127
            },
            {
              "note": "E3",
              "pitch": 64,
              "beat": 22.0,
              "dur": 0.5,
              "vel": 127
            },
            {
              "note": "E3",
              "pitch": 64,
              "beat": 22.5,
              "dur": 0.5,
              "vel": 127
            }
          ]
        },
        {
          "bar_start": 64.0,
          "bar_end": 84.0,
          "name": "",
          "notes": [
            {
              "note": "E3",
              "pitch": 64,
              "beat": 0.0,
              "dur": 0.5,
              "vel": 127
            },
            {
              "note": "E3",
              "pitch": 64,
              "beat": 4.0,
              "dur": 0.5,
              "vel": 127
            },
            {
              "note": "E3",
              "pitch": 64,
              "beat": 8.0,
              "dur": 0.5,
              "vel": 127
            },
            {
              "note": "E3",
              "pitch": 64,
              "beat": 12.0,
              "dur": 0.5,
              "vel": 127
            },
            {
              "note": "E3",
              "pitch": 64,
              "beat": 16.0,
              "dur": 0.5,
              "vel": 127
            },
            {
              "note": "E3",
              "pitch": 64,
              "beat": 20.0,
              "dur": 0.5,
              "vel": 127
            },
            {
              "note": "E3",
              "pitch": 64,
              "beat": 24.0,
              "dur": 0.5,
              "vel": 127
            },
            {
              "note": "E3",
              "pitch": 64,
              "beat": 28.0,
              "dur": 0.5,
              "vel": 127
            },
            {
              "note": "E3",
              "pitch": 64,
              "beat": 32.0,
              "dur": 0.5,
              "vel": 127
            },
            {
              "note": "E3",
              "pitch": 64,
              "beat": 34.0,
              "dur": 0.5,
              "vel": 127
            },
            {
              "note": "E3",
              "pitch": 64,
              "beat": 36.0,
              "dur": 0.5,
              "vel": 127
            },
            {
              "note": "E3",
              "pitch": 64,
              "beat": 38.0,
              "dur": 0.5,
              "vel": 127
            },
            {
              "note": "E3",
              "pitch": 64,
              "beat": 40.0,
              "dur": 0.5,
              "vel": 127
            },
            {
              "note": "E3",
              "pitch": 64,
              "beat": 42.0,
              "dur": 0.5,
              "vel": 127
            },
            {
              "note": "E3",
              "pitch": 64,
              "beat": 44.0,
              "dur": 0.5,
              "vel": 127
            },
            {
              "note": "E3",
              "pitch": 64,
              "beat": 46.0,
              "dur": 0.5,
              "vel": 127
            },
            {
              "note": "E3",
              "pitch": 64,
              "beat": 47.0,
              "dur": 0.5,
              "vel": 127
            },
            {
              "note": "E3",
              "pitch": 64,
              "beat": 48.0,
              "dur": 0.5,
              "vel": 127
            },
            {
              "note": "E3",
              "pitch": 64,
              "beat": 49.0,
              "dur": 0.5,
              "vel": 127
            },
            {
              "note": "E3",
              "pitch": 64,
              "beat": 50.0,
              "dur": 0.5,
              "vel": 127
            },
            {
              "note": "E3",
              "pitch": 64,
              "beat": 51.0,
              "dur": 0.5,
              "vel": 127
            },
            {
              "note": "E3",
              "pitch": 64,
              "beat": 52.0,
              "dur": 0.5,
              "vel": 127
            },
            {
              "note": "E3",
              "pitch": 64,
              "beat": 53.0,
              "dur": 0.5,
              "vel": 127
            },
            {
              "note": "E3",
              "pitch": 64,
              "beat": 54.0,
              "dur": 0.5,
              "vel": 127
            },
            {
              "note": "E3",
              "pitch": 64,
              "beat": 55.0,
              "dur": 0.5,
              "vel": 127
            },
            {
              "note": "E3",
              "pitch": 64,
              "beat": 56.0,
              "dur": 0.5,
              "vel": 127
            },
            {
              "note": "E3",
              "pitch": 64,
              "beat": 57.0,
              "dur": 0.5,
              "vel": 127
            },
            {
              "note": "E3",
              "pitch": 64,
              "beat": 58.0,
              "dur": 0.5,
              "vel": 127
            },
            {
              "note": "E3",
              "pitch": 64,
              "beat": 59.0,
              "dur": 0.5,
              "vel": 127
            },
            {
              "note": "E3",
              "pitch": 64,
              "beat": 60.0,
              "dur": 0.5,
              "vel": 127
            },
            {
              "note": "E3",
              "pitch": 64,
              "beat": 61.0,
              "dur": 0.5,
              "vel": 127
            },
            {
              "note": "E3",
              "pitch": 64,
              "beat": 62.0,
              "dur": 0.5,
              "vel": 127
            },
            {
              "note": "E3",
              "pitch": 64,
              "beat": 63.0,
              "dur": 0.5,
              "vel": 127
            },
            {
              "note": "E3",
              "pitch": 64,
              "beat": 64.0,
              "dur": 0.5,
              "vel": 127
            },
            {
              "note": "E3",
              "pitch": 64,
              "beat": 64.5,
              "dur": 0.5,
              "vel": 127
            },
            {
              "note": "E3",
              "pitch": 64,
              "beat": 65.0,
              "dur": 0.5,
              "vel": 127
            },
            {
              "note": "E3",
              "pitch": 64,
              "beat": 65.5,
              "dur": 0.5,
              "vel": 127
            },
            {
              "note": "E3",
              "pitch": 64,
              "beat": 66.0,
              "dur": 0.5,
              "vel": 127
            },
            {
              "note": "E3",
              "pitch": 64,
              "beat": 66.5,
              "dur": 0.5,
              "vel": 127
            },
            {
              "note": "E3",
              "pitch": 64,
              "beat": 67.0,
              "dur": 0.5,
              "vel": 127
            },
            {
              "note": "E3",
              "pitch": 64,
              "beat": 67.5,
              "dur": 0.5,
              "vel": 127
            },
            {
              "note": "E3",
              "pitch": 64,
              "beat": 68.0,
              "dur": 0.5,
              "vel": 127
            },
            {
              "note": "E3",
              "pitch": 64,
              "beat": 68.5,
              "dur": 0.5,
              "vel": 127
            },
            {
              "note": "E3",
              "pitch": 64,
              "beat": 69.0,
              "dur": 0.5,
              "vel": 127
            },
            {
              "note": "E3",
              "pitch": 64,
              "beat": 69.5,
              "dur": 0.5,
              "vel": 127
            },
            {
              "note": "E3",
              "pitch": 64,
              "beat": 70.0,
              "dur": 0.5,
              "vel": 127
            },
            {
              "note": "E3",
              "pitch": 64,
              "beat": 70.5,
              "dur": 0.5,
              "vel": 127
            }
          ]
        }
      ],
      "automations": [],
      "children": []
    },
    "102": {
      "id": "102",
      "name": "Stab",
      "type": "MidiTrack",
      "group_id": "91",
      "devices": [
        {
          "type": "OriginalSimpler",
          "sample": "Stab.aif",
          "Attack": "0.1000000015",
          "SampleStart": "0",
          "LoopMode": "0"
        }
      ],
      "clips": [
        {
          "bar_start": 23.0,
          "bar_end": 24.0,
          "name": "",
          "notes": [
            {
              "note": "C3",
              "pitch": 60,
              "beat": 0.0,
              "dur": 0.5,
              "vel": 62
            },
            {
              "note": "C3",
              "pitch": 60,
              "beat": 1.0,
              "dur": 0.5,
              "vel": 62
            },
            {
              "note": "C3",
              "pitch": 60,
              "beat": 2.0,
              "dur": 0.5,
              "vel": 62
            },
            {
              "note": "C3",
              "pitch": 60,
              "beat": 3.0,
              "dur": 0.5,
              "vel": 62
            }
          ]
        },
        {
          "bar_start": 46.0,
          "bar_end": 47.0,
          "name": "",
          "notes": [
            {
              "note": "C3",
              "pitch": 60,
              "beat": 0.0,
              "dur": 0.5,
              "vel": 62
            },
            {
              "note": "C3",
              "pitch": 60,
              "beat": 1.0,
              "dur": 0.5,
              "vel": 62
            },
            {
              "note": "C3",
              "pitch": 60,
              "beat": 2.0,
              "dur": 0.5,
              "vel": 62
            },
            {
              "note": "C3",
              "pitch": 60,
              "beat": 3.0,
              "dur": 0.5,
              "vel": 62
            }
          ]
        },
        {
          "bar_start": 47.0,
          "bar_end": 47.75,
          "name": "",
          "notes": [
            {
              "note": "C3",
              "pitch": 60,
              "beat": 0.0,
              "dur": 0.375,
              "vel": 62
            },
            {
              "note": "C3",
              "pitch": 60,
              "beat": 0.5,
              "dur": 0.375,
              "vel": 62
            },
            {
              "note": "C3",
              "pitch": 60,
              "beat": 1.0,
              "dur": 0.375,
              "vel": 62
            },
            {
              "note": "C3",
              "pitch": 60,
              "beat": 1.5,
              "dur": 0.375,
              "vel": 62
            },
            {
              "note": "C3",
              "pitch": 60,
              "beat": 2.0,
              "dur": 0.375,
              "vel": 62
            },
            {
              "note": "C3",
              "pitch": 60,
              "beat": 2.5,
              "dur": 0.375,
              "vel": 62
            },
            {
              "note": "C3",
              "pitch": 60,
              "beat": 3.0,
              "dur": 0.375,
              "vel": 62
            },
            {
              "note": "C3",
              "pitch": 60,
              "beat": 3.5,
              "dur": 0.375,
              "vel": 62
            }
          ]
        },
        {
          "bar_start": 83.0,
          "bar_end": 84.0,
          "name": "",
          "notes": [
            {
              "note": "C3",
              "pitch": 60,
              "beat": 0.0,
              "dur": 0.5,
              "vel": 62
            },
            {
              "note": "C3",
              "pitch": 60,
              "beat": 1.0,
              "dur": 0.5,
              "vel": 62
            },
            {
              "note": "C3",
              "pitch": 60,
              "beat": 2.0,
              "dur": 0.5,
              "vel": 62
            },
            {
              "note": "C3",
              "pitch": 60,
              "beat": 3.0,
              "dur": 0.5,
              "vel": 62
            }
          ]
        }
      ],
      "automations": [],
      "children": []
    },
    "107": {
      "id": "107",
      "name": "Riser Basic",
      "type": "MidiTrack",
      "group_id": "27",
      "devices": [
        {
          "type": "PluginDevice",
          "plugin": "Serum 2",
          "preset": "",
          "vst_params": []
        },
        {
          "type": "Delay",
          "On": "true",
          "DelayLine_SmoothingMode": "0",
          "DelayLine_Link": "false",
          "DelayLine_PingPong": "true",
          "DelayLine_SyncL": "false",
          "DelayLine_SyncR": "false",
          "DelayLine_TimeL": "0.00299999956",
          "DelayLine_TimeR": "0.0329999961",
          "DelayLine_SimpleDelayTimeL": "100",
          "DelayLine_SimpleDelayTimeR": "100",
          "DelayLine_PingPongDelayTimeL": "1",
          "DelayLine_PingPongDelayTimeR": "1",
          "DelayLine_SyncedSixteenthL": "2",
          "DelayLine_SyncedSixteenthR": "3",
          "DelayLine_OffsetL": "0",
          "DelayLine_OffsetR": "0",
          "Feedback": "0.5",
          "Freeze": "false",
          "Filter_On": "true",
          "Filter_Frequency": "999.999878"
        },
        {
          "type": "Eq8",
          "bands": []
        },
        {
          "type": "StereoGain",
          "On": "true",
          "PhaseInvertL": "false",
          "PhaseInvertR": "false",
          "ChannelMode": "1",
          "StereoWidth": "0.5565633774",
          "MidSideBalance": "1",
          "Mono": "false",
          "BassMono": "false",
          "BassMonoFrequency": "120",
          "Balance": "0",
          "Gain": "1",
          "LegacyGain": "0",
          "Mute": "false",
          "DcFilter": "false"
        }
      ],
      "clips": [
        {
          "bar_start": 72.0,
          "bar_end": 81.75,
          "name": "",
          "notes": [
            {
              "note": "E3",
              "pitch": 64,
              "beat": 0.0,
              "dur": 40.0,
              "vel": 100
            }
          ]
        }
      ],
      "automations": [],
      "children": []
    },
    "82": {
      "id": "82",
      "name": "Vocal",
      "type": "AudioTrack",
      "group_id": "111",
      "devices": [],
      "clips": [
        {
          "bar_start": 3.75,
          "bar_end": 110.0,
          "name": ""
        }
      ],
      "automations": [],
      "children": []
    },
    "88": {
      "id": "88",
      "name": "Groove Loop",
      "type": "AudioTrack",
      "group_id": "21",
      "devices": [
        {
          "type": "Erosion",
          "On": "true",
          "Mode": "1",
          "Freq": "4072.57837",
          "Amplitude": "17.132658",
          "BandQ": "0.3000000119"
        },
        {
          "type": "AutoPan",
          "On": "true",
          "Type": "0",
          "Frequency": "1",
          "RateType": "0",
          "BeatRate": "4",
          "StereoMode": "0",
          "Spin": "0",
          "Phase": "180",
          "Offset": "0",
          "IsOn": "true",
          "Quantize": "false",
          "BeatQuantize": "2",
          "NoiseWidth": "0.5",
          "LfoAmount": "0.4603174627",
          "LfoInvert": "false",
          "LfoShape": "0"
        }
      ],
      "clips": [
        {
          "bar_start": 16.0,
          "bar_end": 21.75,
          "name": ""
        },
        {
          "bar_start": 24.0,
          "bar_end": 31.75,
          "name": ""
        },
        {
          "bar_start": 32.0,
          "bar_end": 39.75,
          "name": ""
        },
        {
          "bar_start": 40.0,
          "bar_end": 45.75,
          "name": ""
        },
        {
          "bar_start": 48.25,
          "bar_end": 55.75,
          "name": ""
        },
        {
          "bar_start": 56.0,
          "bar_end": 64.0,
          "name": ""
        },
        {
          "bar_start": 72.0,
          "bar_end": 81.75,
          "name": ""
        },
        {
          "bar_start": 85.75,
          "bar_end": 91.75,
          "name": ""
        },
        {
          "bar_start": 92.0,
          "bar_end": 99.75,
          "name": ""
        },
        {
          "bar_start": 100.0,
          "bar_end": 107.75,
          "name": ""
        }
      ],
      "automations": [],
      "children": []
    },
    "89": {
      "id": "89",
      "name": "Shaker Groove",
      "type": "AudioTrack",
      "group_id": "21",
      "devices": [
        {
          "type": "PluginDevice",
          "plugin": "Kickstart 2",
          "preset": "",
          "vst_params": []
        }
      ],
      "clips": [
        {
          "bar_start": 16.0,
          "bar_end": 21.75,
          "name": ""
        },
        {
          "bar_start": 24.0,
          "bar_end": 31.75,
          "name": ""
        },
        {
          "bar_start": 32.0,
          "bar_end": 39.75,
          "name": ""
        },
        {
          "bar_start": 40.0,
          "bar_end": 45.75,
          "name": ""
        },
        {
          "bar_start": 48.25,
          "bar_end": 55.75,
          "name": ""
        },
        {
          "bar_start": 56.0,
          "bar_end": 64.0,
          "name": ""
        },
        {
          "bar_start": 72.0,
          "bar_end": 81.75,
          "name": ""
        },
        {
          "bar_start": 85.75,
          "bar_end": 91.75,
          "name": ""
        },
        {
          "bar_start": 92.0,
          "bar_end": 99.75,
          "name": ""
        },
        {
          "bar_start": 100.0,
          "bar_end": 107.75,
          "name": ""
        }
      ],
      "automations": [],
      "children": []
    },
    "86": {
      "id": "86",
      "name": "Clock Time Loop",
      "type": "AudioTrack",
      "group_id": "21",
      "devices": [
        {
          "type": "PluginDevice",
          "plugin": "Kickstart 2",
          "preset": "",
          "vst_params": []
        }
      ],
      "clips": [
        {
          "bar_start": 8.0,
          "bar_end": 21.75,
          "name": ""
        },
        {
          "bar_start": 24.0,
          "bar_end": 45.75,
          "name": ""
        },
        {
          "bar_start": 48.0,
          "bar_end": 81.75,
          "name": ""
        },
        {
          "bar_start": 86.0,
          "bar_end": 108.0,
          "name": ""
        }
      ],
      "automations": [],
      "children": []
    },
    "93": {
      "id": "93",
      "name": "Crash R",
      "type": "AudioTrack",
      "group_id": "21",
      "devices": [],
      "clips": [
        {
          "bar_start": 31.219,
          "bar_end": 32.0,
          "name": ""
        },
        {
          "bar_start": 39.219,
          "bar_end": 40.0,
          "name": ""
        },
        {
          "bar_start": 55.219,
          "bar_end": 56.0,
          "name": ""
        },
        {
          "bar_start": 63.219,
          "bar_end": 64.0,
          "name": ""
        },
        {
          "bar_start": 91.219,
          "bar_end": 92.0,
          "name": ""
        },
        {
          "bar_start": 99.219,
          "bar_end": 100.0,
          "name": ""
        },
        {
          "bar_start": 107.219,
          "bar_end": 108.0,
          "name": ""
        }
      ],
      "automations": [],
      "children": []
    },
    "26": {
      "id": "26",
      "name": "Pre Fill",
      "type": "AudioTrack",
      "group_id": "91",
      "devices": [],
      "clips": [
        {
          "bar_start": 23.0,
          "bar_end": 24.0,
          "name": ""
        },
        {
          "bar_start": 31.75,
          "bar_end": 32.0,
          "name": ""
        },
        {
          "bar_start": 39.75,
          "bar_end": 40.0,
          "name": ""
        },
        {
          "bar_start": 47.0,
          "bar_end": 47.5,
          "name": ""
        },
        {
          "bar_start": 47.5,
          "bar_end": 47.75,
          "name": ""
        },
        {
          "bar_start": 55.75,
          "bar_end": 56.0,
          "name": ""
        },
        {
          "bar_start": 63.75,
          "bar_end": 64.0,
          "name": ""
        },
        {
          "bar_start": 82.0,
          "bar_end": 82.5,
          "name": ""
        },
        {
          "bar_start": 82.5,
          "bar_end": 83.0,
          "name": ""
        },
        {
          "bar_start": 83.0,
          "bar_end": 84.0,
          "name": ""
        },
        {
          "bar_start": 91.75,
          "bar_end": 92.0,
          "name": ""
        },
        {
          "bar_start": 99.75,
          "bar_end": 100.0,
          "name": ""
        }
      ],
      "automations": [],
      "children": []
    },
    "106": {
      "id": "106",
      "name": "Clap FX",
      "type": "AudioTrack",
      "group_id": "91",
      "devices": [],
      "clips": [
        {
          "bar_start": 47.5,
          "bar_end": 48.765,
          "name": ""
        },
        {
          "bar_start": 83.5,
          "bar_end": 84.765,
          "name": ""
        }
      ],
      "automations": [],
      "children": []
    },
    "92": {
      "id": "92",
      "name": "White Noise SC",
      "type": "AudioTrack",
      "group_id": "27",
      "devices": [
        {
          "type": "PluginDevice",
          "plugin": "Kickstart 2",
          "preset": "",
          "vst_params": []
        },
        {
          "type": "Eq8",
          "bands": []
        },
        {
          "type": "AutoPan",
          "On": "true",
          "Type": "0",
          "Frequency": "1",
          "RateType": "0",
          "BeatRate": "4",
          "StereoMode": "0",
          "Spin": "0",
          "Phase": "180",
          "Offset": "0",
          "IsOn": "true",
          "Quantize": "false",
          "BeatQuantize": "2",
          "NoiseWidth": "0.5",
          "LfoAmount": "0.2857142985",
          "LfoInvert": "false",
          "LfoShape": "0"
        }
      ],
      "clips": [
        {
          "bar_start": 24.0,
          "bar_end": 45.75,
          "name": ""
        },
        {
          "bar_start": 48.0,
          "bar_end": 64.0,
          "name": ""
        },
        {
          "bar_start": 72.0,
          "bar_end": 81.75,
          "name": ""
        },
        {
          "bar_start": 84.0,
          "bar_end": 100.0,
          "name": ""
        }
      ],
      "automations": [],
      "children": []
    },
    "99": {
      "id": "99",
      "name": "Uplifter",
      "type": "AudioTrack",
      "group_id": "27",
      "devices": [],
      "clips": [
        {
          "bar_start": 5.0,
          "bar_end": 8.0,
          "name": ""
        },
        {
          "bar_start": 29.0,
          "bar_end": 32.0,
          "name": ""
        },
        {
          "bar_start": 37.0,
          "bar_end": 40.0,
          "name": ""
        },
        {
          "bar_start": 53.0,
          "bar_end": 56.0,
          "name": ""
        },
        {
          "bar_start": 61.0,
          "bar_end": 64.0,
          "name": ""
        },
        {
          "bar_start": 64.0,
          "bar_end": 67.0,
          "name": ""
        },
        {
          "bar_start": 72.0,
          "bar_end": 75.0,
          "name": ""
        },
        {
          "bar_start": 89.0,
          "bar_end": 92.0,
          "name": ""
        },
        {
          "bar_start": 97.0,
          "bar_end": 100.0,
          "name": ""
        }
      ],
      "automations": [],
      "children": []
    },
    "109": {
      "id": "109",
      "name": "Lazer Down",
      "type": "AudioTrack",
      "group_id": "27",
      "devices": [],
      "clips": [
        {
          "bar_start": 8.0,
          "bar_end": 13.25,
          "name": ""
        },
        {
          "bar_start": 72.0,
          "bar_end": 81.75,
          "name": ""
        }
      ],
      "automations": [],
      "children": []
    },
    "108": {
      "id": "108",
      "name": "Siren",
      "type": "AudioTrack",
      "group_id": "27",
      "devices": [
        {
          "type": "Flanger",
          "On": "true",
          "DryWet": "0.6984127164",
          "DelayTime": "2.5",
          "Feedback": "0.8999999762",
          "FeedbackSign": "true",
          "Amount": "0",
          "Attack": "6",
          "Release": "200",
          "LfoAmount": "1",
          "Type": "0",
          "Frequency": "0.1099999994",
          "RateType": "0",
          "BeatRate": "4",
          "StereoMode": "0",
          "Spin": "0",
          "Phase": "180",
          "Offset": "0",
          "IsOn": "true",
          "Quantize": "false",
          "BeatQuantize": "2"
        },
        {
          "type": "StereoGain",
          "On": "true",
          "PhaseInvertL": "false",
          "PhaseInvertR": "false",
          "ChannelMode": "1",
          "StereoWidth": "0.4235323966",
          "MidSideBalance": "1",
          "Mono": "false",
          "BassMono": "false",
          "BassMonoFrequency": "120",
          "Balance": "0",
          "Gain": "1",
          "LegacyGain": "0",
          "Mute": "false",
          "DcFilter": "false"
        }
      ],
      "clips": [
        {
          "bar_start": 72.0,
          "bar_end": 77.5,
          "name": ""
        },
        {
          "bar_start": 77.5,
          "bar_end": 79.128,
          "name": ""
        },
        {
          "bar_start": 79.128,
          "bar_end": 80.757,
          "name": ""
        },
        {
          "bar_start": 80.757,
          "bar_end": 81.75,
          "name": ""
        }
      ],
      "automations": [],
      "children": []
    },
    "101": {
      "id": "101",
      "name": "Uplifter 2",
      "type": "AudioTrack",
      "group_id": "27",
      "devices": [],
      "clips": [
        {
          "bar_start": 16.0,
          "bar_end": 21.75,
          "name": ""
        },
        {
          "bar_start": 40.0,
          "bar_end": 45.75,
          "name": ""
        },
        {
          "bar_start": 56.0,
          "bar_end": 60.875,
          "name": ""
        },
        {
          "bar_start": 75.969,
          "bar_end": 81.719,
          "name": ""
        }
      ],
      "automations": [],
      "children": []
    },
    "103": {
      "id": "103",
      "name": "Riser",
      "type": "AudioTrack",
      "group_id": "27",
      "devices": [],
      "clips": [
        {
          "bar_start": 4.0,
          "bar_end": 8.0,
          "name": ""
        },
        {
          "bar_start": 16.0,
          "bar_end": 21.75,
          "name": ""
        },
        {
          "bar_start": 40.0,
          "bar_end": 45.75,
          "name": ""
        },
        {
          "bar_start": 76.0,
          "bar_end": 81.75,
          "name": ""
        }
      ],
      "automations": [],
      "children": []
    },
    "100": {
      "id": "100",
      "name": "Lazer",
      "type": "AudioTrack",
      "group_id": "27",
      "devices": [
        {
          "type": "StereoGain",
          "On": "true",
          "PhaseInvertL": "false",
          "PhaseInvertR": "false",
          "ChannelMode": "1",
          "StereoWidth": "0.403124243",
          "MidSideBalance": "1",
          "Mono": "false",
          "BassMono": "false",
          "BassMonoFrequency": "120",
          "Balance": "0",
          "Gain": "1",
          "LegacyGain": "0",
          "Mute": "false",
          "DcFilter": "false"
        },
        {
          "type": "Eq8",
          "bands": []
        }
      ],
      "clips": [
        {
          "bar_start": 30.0,
          "bar_end": 30.25,
          "name": ""
        },
        {
          "bar_start": 30.25,
          "bar_end": 30.5,
          "name": ""
        },
        {
          "bar_start": 30.5,
          "bar_end": 30.75,
          "name": ""
        },
        {
          "bar_start": 30.75,
          "bar_end": 31.0,
          "name": ""
        },
        {
          "bar_start": 31.0,
          "bar_end": 31.25,
          "name": ""
        },
        {
          "bar_start": 31.25,
          "bar_end": 31.5,
          "name": ""
        },
        {
          "bar_start": 31.5,
          "bar_end": 31.75,
          "name": ""
        },
        {
          "bar_start": 38.0,
          "bar_end": 38.25,
          "name": ""
        },
        {
          "bar_start": 38.25,
          "bar_end": 38.5,
          "name": ""
        },
        {
          "bar_start": 38.5,
          "bar_end": 38.75,
          "name": ""
        },
        {
          "bar_start": 38.75,
          "bar_end": 39.0,
          "name": ""
        },
        {
          "bar_start": 39.0,
          "bar_end": 39.25,
          "name": ""
        },
        {
          "bar_start": 39.25,
          "bar_end": 39.5,
          "name": ""
        },
        {
          "bar_start": 39.5,
          "bar_end": 39.75,
          "name": ""
        },
        {
          "bar_start": 54.0,
          "bar_end": 54.25,
          "name": ""
        },
        {
          "bar_start": 54.25,
          "bar_end": 54.5,
          "name": ""
        },
        {
          "bar_start": 54.5,
          "bar_end": 54.75,
          "name": ""
        },
        {
          "bar_start": 54.75,
          "bar_end": 55.0,
          "name": ""
        },
        {
          "bar_start": 55.0,
          "bar_end": 55.25,
          "name": ""
        },
        {
          "bar_start": 55.25,
          "bar_end": 55.5,
          "name": ""
        },
        {
          "bar_start": 55.5,
          "bar_end": 55.75,
          "name": ""
        },
        {
          "bar_start": 62.0,
          "bar_end": 62.25,
          "name": ""
        },
        {
          "bar_start": 62.25,
          "bar_end": 62.5,
          "name": ""
        },
        {
          "bar_start": 62.5,
          "bar_end": 62.75,
          "name": ""
        },
        {
          "bar_start": 62.75,
          "bar_end": 63.0,
          "name": ""
        },
        {
          "bar_start": 63.0,
          "bar_end": 63.25,
          "name": ""
        },
        {
          "bar_start": 63.25,
          "bar_end": 63.5,
          "name": ""
        },
        {
          "bar_start": 63.5,
          "bar_end": 63.75,
          "name": ""
        },
        {
          "bar_start": 90.0,
          "bar_end": 90.25,
          "name": ""
        },
        {
          "bar_start": 90.25,
          "bar_end": 90.5,
          "name": ""
        },
        {
          "bar_start": 90.5,
          "bar_end": 90.75,
          "name": ""
        },
        {
          "bar_start": 90.75,
          "bar_end": 91.0,
          "name": ""
        },
        {
          "bar_start": 91.0,
          "bar_end": 91.25,
          "name": ""
        },
        {
          "bar_start": 91.25,
          "bar_end": 91.5,
          "name": ""
        },
        {
          "bar_start": 91.5,
          "bar_end": 91.75,
          "name": ""
        },
        {
          "bar_start": 98.0,
          "bar_end": 98.25,
          "name": ""
        },
        {
          "bar_start": 98.25,
          "bar_end": 98.5,
          "name": ""
        },
        {
          "bar_start": 98.5,
          "bar_end": 98.75,
          "name": ""
        },
        {
          "bar_start": 98.75,
          "bar_end": 99.0,
          "name": ""
        },
        {
          "bar_start": 99.0,
          "bar_end": 99.25,
          "name": ""
        },
        {
          "bar_start": 99.25,
          "bar_end": 99.5,
          "name": ""
        },
        {
          "bar_start": 99.5,
          "bar_end": 99.75,
          "name": ""
        }
      ],
      "automations": [],
      "children": []
    },
    "111": {
      "id": "111",
      "name": "Acapella",
      "type": "GroupTrack",
      "group_id": "-1",
      "devices": [],
      "clips": [],
      "automations": [],
      "children": [
        "82"
      ]
    },
    "21": {
      "id": "21",
      "name": "Drums",
      "type": "GroupTrack",
      "group_id": "-1",
      "devices": [
        {
          "type": "GlueCompressor",
          "Threshold": "-14.9206352",
          "Ratio": "1",
          "Attack": "6",
          "Release": "1",
          "Gain": "0",
          "DryWet": "1"
        }
      ],
      "clips": [],
      "automations": [],
      "children": [
        "19",
        "87",
        "105",
        "88",
        "89",
        "86",
        "93"
      ]
    },
    "24": {
      "id": "24",
      "name": "Instruments",
      "type": "GroupTrack",
      "group_id": "-1",
      "devices": [
        {
          "type": "StereoGain",
          "On": "false",
          "PhaseInvertL": "false",
          "PhaseInvertR": "false",
          "ChannelMode": "1",
          "StereoWidth": "1",
          "MidSideBalance": "1",
          "Mono": "false",
          "BassMono": "false",
          "BassMonoFrequency": "120",
          "Balance": "0",
          "Gain": "0",
          "LegacyGain": "0",
          "Mute": "false",
          "DcFilter": "false"
        }
      ],
      "clips": [],
      "automations": [],
      "children": [
        "81",
        "94",
        "95",
        "97",
        "98",
        "104"
      ]
    },
    "27": {
      "id": "27",
      "name": "FX",
      "type": "GroupTrack",
      "group_id": "-1",
      "devices": [
        {
          "type": "Reverb",
          "PreDelay": "2.5",
          "RoomSize": "100",
          "DecayTime": "2411.64331",
          "FreezeOn": "false"
        }
      ],
      "clips": [],
      "automations": [],
      "children": [
        "107",
        "92",
        "99",
        "109",
        "108",
        "101",
        "103",
        "100",
        "91"
      ]
    },
    "91": {
      "id": "91",
      "name": "FILLS",
      "type": "GroupTrack",
      "group_id": "27",
      "devices": [],
      "clips": [],
      "automations": [],
      "children": [
        "102",
        "26",
        "106"
      ]
    }
  },
  "track_order": [
    "19",
    "87",
    "105",
    "81",
    "94",
    "95",
    "97",
    "98",
    "104",
    "102",
    "107",
    "82",
    "88",
    "89",
    "86",
    "93",
    "26",
    "106",
    "92",
    "99",
    "109",
    "108",
    "101",
    "103",
    "100",
    "111",
    "21",
    "24",
    "27",
    "91"
  ],
  "groups": [
    "111",
    "21",
    "24",
    "27",
    "91"
  ]
}