{
  "label": "Sammy Virji x Skepta - Cops & Robbers",
  "tempo": 136.0,
  "tracks": {
    "21": {
      "id": "21",
      "name": "Kick",
      "type": "MidiTrack",
      "group_id": "31",
      "devices": [
        {
          "type": "OriginalSimpler",
          "sample": "Kick.aif",
          "Attack": "0.1000000015",
          "SampleStart": "0",
          "LoopMode": "0"
        }
      ],
      "clips": [
        {
          "bar_start": 4.0,
          "bar_end": 5.0,
          "name": "",
          "notes": [
            {
              "note": "C3",
              "pitch": 60,
              "beat": 0.0,
              "dur": 0.18,
              "vel": 127
            },
            {
              "note": "C3",
              "pitch": 60,
              "beat": 1.836,
              "dur": 0.135,
              "vel": 38
            },
            {
              "note": "C3",
              "pitch": 60,
              "beat": 2.0,
              "dur": 0.18,
              "vel": 127
            },
            {
              "note": "C3",
              "pitch": 60,
              "beat": 4.0,
              "dur": 0.18,
              "vel": 127
            },
            {
              "note": "C3",
              "pitch": 60,
              "beat": 4.834,
              "dur": 0.18,
              "vel": 127
            },
            {
              "note": "C3",
              "pitch": 60,
              "beat": 5.836,
              "dur": 0.136,
              "vel": 1
            },
            {
              "note": "C3",
              "pitch": 60,
              "beat": 6.0,
              "dur": 0.18,
              "vel": 127
            },
            {
              "note": "C3",
              "pitch": 60,
              "beat": 7.336,
              "dur": 0.18,
              "vel": 127
            }
          ]
        },
        {
          "bar_start": 5.0,
          "bar_end": 5.625,
          "name": "",
          "notes": [
            {
              "note": "C3",
              "pitch": 60,
              "beat": 0.0,
              "dur": 0.18,
              "vel": 127
            },
            {
              "note": "C3",
              "pitch": 60,
              "beat": 1.836,
              "dur": 0.135,
              "vel": 38
            },
            {
              "note": "C3",
              "pitch": 60,
              "beat": 2.0,
              "dur": 0.18,
              "vel": 127
            },
            {
              "note": "C3",
              "pitch": 60,
              "beat": 4.0,
              "dur": 0.18,
              "vel": 127
            },
            {
              "note": "C3",
              "pitch": 60,
              "beat": 4.834,
              "dur": 0.18,
              "vel": 127
            },
            {
              "note": "C3",
              "pitch": 60,
              "beat": 5.836,
              "dur": 0.136,
              "vel": 1
            },
            {
              "note": "C3",
              "pitch": 60,
              "beat": 6.0,
              "dur": 0.18,
              "vel": 127
            },
            {
              "note": "C3",
              "pitch": 60,
              "beat": 7.336,
              "dur": 0.18,
              "vel": 127
            }
          ]
        },
        {
          "bar_start": 5.625,
          "bar_end": 5.75,
          "name": "",
          "notes": [
            {
              "note": "C3",
              "pitch": 60,
              "beat": 0.0,
              "dur": 0.18,
              "vel": 127
            },
            {
              "note": "C3",
              "pitch": 60,
              "beat": 1.836,
              "dur": 0.135,
              "vel": 38
            },
            {
              "note": "C3",
              "pitch": 60,
              "beat": 2.0,
              "dur": 0.18,
              "vel": 127
            },
            {
              "note": "C3",
              "pitch": 60,
              "beat": 4.0,
              "dur": 0.18,
              "vel": 127
            },
            {
              "note": "C3",
              "pitch": 60,
              "beat": 4.834,
              "dur": 0.18,
              "vel": 127
            },
            {
              "note": "C3",
              "pitch": 60,
              "beat": 5.836,
              "dur": 0.136,
              "vel": 1
            },
            {
              "note": "C3",
              "pitch": 60,
              "beat": 6.0,
              "dur": 0.18,
              "vel": 127
            },
            {
              "note": "C3",
              "pitch": 60,
              "beat": 7.336,
              "dur": 0.18,
              "vel": 127
            }
          ]
        },
        {
          "bar_start": 5.75,
          "bar_end": 6.0,
          "name": "",
          "notes": [
            {
              "note": "C3",
              "pitch": 60,
              "beat": 0.0,
              "dur": 0.18,
              "vel": 127
            },
            {
              "note": "C3",
              "pitch": 60,
              "beat": 1.836,
              "dur": 0.135,
              "vel": 38
            },
            {
              "note": "C3",
              "pitch": 60,
              "beat": 2.0,
              "dur": 0.18,
              "vel": 127
            },
            {
              "note": "C3",
              "pitch": 60,
              "beat": 4.0,
              "dur": 0.18,
              "vel": 127
            },
            {
              "note": "C3",
              "pitch": 60,
              "beat": 4.834,
              "dur": 0.18,
              "vel": 127
            },
            {
              "note": "C3",
              "pitch": 60,
              "beat": 5.836,
              "dur": 0.136,
              "vel": 1
            },
            {
              "note": "C3",
              "pitch": 60,
              "beat": 6.0,
              "dur": 0.18,
              "vel": 127
            },
            {
              "note": "C3",
              "pitch": 60,
              "beat": 7.336,
              "dur": 0.18,
              "vel": 127
            }
          ]
        },
        {
          "bar_start": 6.0,
          "bar_end": 7.625,
          "name": "",
          "notes": [
            {
              "note": "C3",
              "pitch": 60,
              "beat": 0.0,
              "dur": 0.18,
              "vel": 127
            },
            {
              "note": "C3",
              "pitch": 60,
              "beat": 1.836,
              "dur": 0.135,
              "vel": 38
            },
            {
              "note": "C3",
              "pitch": 60,
              "beat": 2.0,
              "dur": 0.18,
              "vel": 127
            },
            {
              "note": "C3",
              "pitch": 60,
              "beat": 4.0,
              "dur": 0.18,
              "vel": 127
            },
            {
              "note": "C3",
              "pitch": 60,
              "beat": 4.834,
              "dur": 0.18,
              "vel": 127
            },
            {
              "note": "C3",
              "pitch": 60,
              "beat": 5.836,
              "dur": 0.136,
              "vel": 1
            },
            {
              "note": "C3",
              "pitch": 60,
              "beat": 6.0,
              "dur": 0.18,
              "vel": 127
            },
            {
              "note": "C3",
              "pitch": 60,
              "beat": 7.336,
              "dur": 0.18,
              "vel": 127
            }
          ]
        },
        {
          "bar_start": 7.625,
          "bar_end": 7.75,
          "name": "",
          "notes": [
            {
              "note": "C3",
              "pitch": 60,
              "beat": 0.0,
              "dur": 0.18,
              "vel": 127
            },
            {
              "note": "C3",
              "pitch": 60,
              "beat": 1.836,
              "dur": 0.135,
              "vel": 38
            },
            {
              "note": "C3",
              "pitch": 60,
              "beat": 2.0,
              "dur": 0.18,
              "vel": 127
            },
            {
              "note": "C3",
              "pitch": 60,
              "beat": 4.0,
              "dur": 0.18,
              "vel": 127
            },
            {
              "note": "C3",
              "pitch": 60,
              "beat": 4.834,
              "dur": 0.18,
              "vel": 127
            },
            {
              "note": "C3",
              "pitch": 60,
              "beat": 5.836,
              "dur": 0.136,
              "vel": 1
            },
            {
              "note": "C3",
              "pitch": 60,
              "beat": 6.0,
              "dur": 0.18,
              "vel": 127
            },
            {
              "note": "C3",
              "pitch": 60,
              "beat": 7.336,
              "dur": 0.18,
              "vel": 127
            }
          ]
        },
        {
          "bar_start": 7.75,
          "bar_end": 8.0,
          "name": "",
          "notes": [
            {
              "note": "C3",
              "pitch": 60,
              "beat": 0.0,
              "dur": 0.18,
              "vel": 127
            },
            {
              "note": "C3",
              "pitch": 60,
              "beat": 1.836,
              "dur": 0.135,
              "vel": 38
            },
            {
              "note": "C3",
              "pitch": 60,
              "beat": 2.0,
              "dur": 0.18,
              "vel": 127
            },
            {
              "note": "C3",
              "pitch": 60,
              "beat": 4.0,
              "dur": 0.18,
              "vel": 127
            },
            {
              "note": "C3",
              "pitch": 60,
              "beat": 4.834,
              "dur": 0.18,
              "vel": 127
            },
            {
              "note": "C3",
              "pitch": 60,
              "beat": 5.836,
              "dur": 0.136,
              "vel": 1
            },
            {
              "note": "C3",
              "pitch": 60,
              "beat": 6.0,
              "dur": 0.18,
              "vel": 127
            },
            {
              "note": "C3",
              "pitch": 60,
              "beat": 7.336,
              "dur": 0.18,
              "vel": 127
            }
          ]
        },
        {
          "bar_start": 9.0,
          "bar_end": 9.625,
          "name": "",
          "notes": [
            {
              "note": "C3",
              "pitch": 60,
              "beat": 0.0,
              "dur": 0.18,
              "vel": 127
            },
            {
              "note": "C3",
              "pitch": 60,
              "beat": 1.836,
              "dur": 0.135,
              "vel": 38
            },
            {
              "note": "C3",
              "pitch": 60,
              "beat": 2.0,
              "dur": 0.18,
              "vel": 127
            },
            {
              "note": "C3",
              "pitch": 60,
              "beat": 4.0,
              "dur": 0.18,
              "vel": 127
            },
            {
              "note": "C3",
              "pitch": 60,
              "beat": 4.834,
              "dur": 0.18,
              "vel": 127
            },
            {
              "note": "C3",
              "pitch": 60,
              "beat": 5.836,
              "dur": 0.136,
              "vel": 1
            },
            {
              "note": "C3",
              "pitch": 60,
              "beat": 6.0,
              "dur": 0.18,
              "vel": 127
            },
            {
              "note": "C3",
              "pitch": 60,
              "beat": 7.336,
              "dur": 0.18,
              "vel": 127
            }
          ]
        },
        {
          "bar_start": 9.625,
          "bar_end": 9.75,
          "name": "",
          "notes": [
            {
              "note": "C3",
              "pitch": 60,
              "beat": 0.0,
              "dur": 0.18,
              "vel": 127
            },
            {
              "note": "C3",
              "pitch": 60,
              "beat": 1.836,
              "dur": 0.135,
              "vel": 38
            },
            {
              "note": "C3",
              "pitch": 60,
              "beat": 2.0,
              "dur": 0.18,
              "vel": 127
            },
            {
              "note": "C3",
              "pitch": 60,
              "beat": 4.0,
              "dur": 0.18,
              "vel": 127
            },
            {
              "note": "C3",
              "pitch": 60,
              "beat": 4.834,
              "dur": 0.18,
              "vel": 127
            },
            {
              "note": "C3",
              "pitch": 60,
              "beat": 5.836,
              "dur": 0.136,
              "vel": 1
            },
            {
              "note": "C3",
              "pitch": 60,
              "beat": 6.0,
              "dur": 0.18,
              "vel": 127
            },
            {
              "note": "C3",
              "pitch": 60,
              "beat": 7.336,
              "dur": 0.18,
              "vel": 127
            }
          ]
        },
        {
          "bar_start": 9.75,
          "bar_end": 10.0,
          "name": "",
          "notes": [
            {
              "note": "C3",
              "pitch": 60,
              "beat": 0.0,
              "dur": 0.18,
              "vel": 127
            },
            {
              "note": "C3",
              "pitch": 60,
              "beat": 1.836,
              "dur": 0.135,
              "vel": 38
            },
            {
              "note": "C3",
              "pitch": 60,
              "beat": 2.0,
              "dur": 0.18,
              "vel": 127
            },
            {
              "note": "C3",
              "pitch": 60,
              "beat": 4.0,
              "dur": 0.18,
              "vel": 127
            },
            {
              "note": "C3",
              "pitch": 60,
              "beat": 4.834,
              "dur": 0.18,
              "vel": 127
            },
            {
              "note": "C3",
              "pitch": 60,
              "beat": 5.836,
              "dur": 0.136,
              "vel": 1
            },
            {
              "note": "C3",
              "pitch": 60,
              "beat": 6.0,
              "dur": 0.18,
              "vel": 127
            },
            {
              "note": "C3",
              "pitch": 60,
              "beat": 7.336,
              "dur": 0.18,
              "vel": 127
            }
          ]
        },
        {
          "bar_start": 10.0,
          "bar_end": 11.625,
          "name": "",
          "notes": [
            {
              "note": "C3",
              "pitch": 60,
              "beat": 0.0,
              "dur": 0.18,
              "vel": 127
            },
            {
              "note": "C3",
              "pitch": 60,
              "beat": 1.836,
              "dur": 0.135,
              "vel": 38
            },
            {
              "note": "C3",
              "pitch": 60,
              "beat": 2.0,
              "dur": 0.18,
              "vel": 127
            },
            {
              "note": "C3",
              "pitch": 60,
              "beat": 4.0,
              "dur": 0.18,
              "vel": 127
            },
            {
              "note": "C3",
              "pitch": 60,
              "beat": 4.834,
              "dur": 0.18,
              "vel": 127
            },
            {
              "note": "C3",
              "pitch": 60,
              "beat": 5.836,
              "dur": 0.136,
              "vel": 1
            },
            {
              "note": "C3",
              "pitch": 60,
              "beat": 6.0,
              "dur": 0.18,
              "vel": 127
            },
            {
              "note": "C3",
              "pitch": 60,
              "beat": 7.336,
              "dur": 0.18,
              "vel": 127
            }
          ]
        },
        {
          "bar_start": 11.625,
          "bar_end": 11.75,
          "name": "",
          "notes": [
            {
              "note": "C3",
              "pitch": 60,
              "beat": 0.0,
              "dur": 0.18,
              "vel": 127
            },
            {
              "note": "C3",
              "pitch": 60,
              "beat": 1.836,
              "dur": 0.135,
              "vel": 38
            },
            {
              "note": "C3",
              "pitch": 60,
              "beat": 2.0,
              "dur": 0.18,
              "vel": 127
            },
            {
              "note": "C3",
              "pitch": 60,
              "beat": 4.0,
              "dur": 0.18,
              "vel": 127
            },
            {
              "note": "C3",
              "pitch": 60,
              "beat": 4.834,
              "dur": 0.18,
              "vel": 127
            },
            {
              "note": "C3",
              "pitch": 60,
              "beat": 5.836,
              "dur": 0.136,
              "vel": 1
            },
            {
              "note": "C3",
              "pitch": 60,
              "beat": 6.0,
              "dur": 0.18,
              "vel": 127
            },
            {
              "note": "C3",
              "pitch": 60,
              "beat": 7.336,
              "dur": 0.18,
              "vel": 127
            }
          ]
        },
        {
          "bar_start": 11.75,
          "bar_end": 12.0,
          "name": "",
          "notes": [
            {
              "note": "C3",
              "pitch": 60,
              "beat": 0.0,
              "dur": 0.18,
              "vel": 127
            },
            {
              "note": "C3",
              "pitch": 60,
              "beat": 1.836,
              "dur": 0.135,
              "vel": 38
            },
            {
              "note": "C3",
              "pitch": 60,
              "beat": 2.0,
              "dur": 0.18,
              "vel": 127
            },
            {
              "note": "C3",
              "pitch": 60,
              "beat": 4.0,
              "dur": 0.18,
              "vel": 127
            },
            {
              "note": "C3",
              "pitch": 60,
              "beat": 4.834,
              "dur": 0.18,
              "vel": 127
            },
            {
              "note": "C3",
              "pitch": 60,
              "beat": 5.836,
              "dur": 0.136,
              "vel": 1
            },
            {
              "note": "C3",
              "pitch": 60,
              "beat": 6.0,
              "dur": 0.18,
              "vel": 127
            },
            {
              "note": "C3",
              "pitch": 60,
              "beat": 7.336,
              "dur": 0.18,
              "vel": 127
            }
          ]
        },
        {
          "bar_start": 12.0,
          "bar_end": 13.0,
          "name": "",
          "notes": [
            {
              "note": "C3",
              "pitch": 60,
              "beat": 0.0,
              "dur": 0.18,
              "vel": 127
            },
            {
              "note": "C3",
              "pitch": 60,
              "beat": 1.836,
              "dur": 0.135,
              "vel": 38
            },
            {
              "note": "C3",
              "pitch": 60,
              "beat": 2.0,
              "dur": 0.18,
              "vel": 127
            },
            {
              "note": "C3",
              "pitch": 60,
              "beat": 4.0,
              "dur": 0.18,
              "vel": 127
            },
            {
              "note": "C3",
              "pitch": 60,
              "beat": 4.834,
              "dur": 0.18,
              "vel": 127
            },
            {
              "note": "C3",
              "pitch": 60,
              "beat": 5.836,
              "dur": 0.136,
              "vel": 1
            },
            {
              "note": "C3",
              "pitch": 60,
              "beat": 6.0,
              "dur": 0.18,
              "vel": 127
            },
            {
              "note": "C3",
              "pitch": 60,
              "beat": 7.336,
              "dur": 0.18,
              "vel": 127
            }
          ]
        },
        {
          "bar_start": 13.0,
          "bar_end": 13.625,
          "name": "",
          "notes": [
            {
              "note": "C3",
              "pitch": 60,
              "beat": 0.0,
              "dur": 0.18,
              "vel": 127
            },
            {
              "note": "C3",
              "pitch": 60,
              "beat": 1.836,
              "dur": 0.135,
              "vel": 38
            },
            {
              "note": "C3",
              "pitch": 60,
              "beat": 2.0,
              "dur": 0.18,
              "vel": 127
            },
            {
              "note": "C3",
              "pitch": 60,
              "beat": 4.0,
              "dur": 0.18,
              "vel": 127
            },
            {
              "note": "C3",
              "pitch": 60,
              "beat": 4.834,
              "dur": 0.18,
              "vel": 127
            },
            {
              "note": "C3",
              "pitch": 60,
              "beat": 5.836,
              "dur": 0.136,
              "vel": 1
            },
            {
              "note": "C3",
              "pitch": 60,
              "beat": 6.0,
              "dur": 0.18,
              "vel": 127
            },
            {
              "note": "C3",
              "pitch": 60,
              "beat": 7.336,
              "dur": 0.18,
              "vel": 127
            }
          ]
        },
        {
          "bar_start": 13.625,
          "bar_end": 13.75,
          "name": "",
          "notes": [
            {
              "note": "C3",
              "pitch": 60,
              "beat": 0.0,
              "dur": 0.18,
              "vel": 127
            },
            {
              "note": "C3",
              "pitch": 60,
              "beat": 1.836,
              "dur": 0.135,
              "vel": 38
            },
            {
              "note": "C3",
              "pitch": 60,
              "beat": 2.0,
              "dur": 0.18,
              "vel": 127
            },
            {
              "note": "C3",
              "pitch": 60,
              "beat": 4.0,
              "dur": 0.18,
              "vel": 127
            },
            {
              "note": "C3",
              "pitch": 60,
              "beat": 4.834,
              "dur": 0.18,
              "vel": 127
            },
            {
              "note": "C3",
              "pitch": 60,
              "beat": 5.836,
              "dur": 0.136,
              "vel": 1
            },
            {
              "note": "C3",
              "pitch": 60,
              "beat": 6.0,
              "dur": 0.18,
              "vel": 127
            },
            {
              "note": "C3",
              "pitch": 60,
              "beat": 7.336,
              "dur": 0.18,
              "vel": 127
            }
          ]
        },
        {
          "bar_start": 13.75,
          "bar_end": 14.0,
          "name": "",
          "notes": [
            {
              "note": "C3",
              "pitch": 60,
              "beat": 0.0,
              "dur": 0.18,
              "vel": 127
            },
            {
              "note": "C3",
              "pitch": 60,
              "beat": 1.836,
              "dur": 0.135,
              "vel": 38
            },
            {
              "note": "C3",
              "pitch": 60,
              "beat": 2.0,
              "dur": 0.18,
              "vel": 127
            },
            {
              "note": "C3",
              "pitch": 60,
              "beat": 4.0,
              "dur": 0.18,
              "vel": 127
            },
            {
              "note": "C3",
              "pitch": 60,
              "beat": 4.834,
              "dur": 0.18,
              "vel": 127
            },
            {
              "note": "C3",
              "pitch": 60,
              "beat": 5.836,
              "dur": 0.136,
              "vel": 1
            },
            {
              "note": "C3",
              "pitch": 60,
              "beat": 6.0,
              "dur": 0.18,
              "vel": 127
            },
            {
              "note": "C3",
              "pitch": 60,
              "beat": 7.336,
              "dur": 0.18,
              "vel": 127
            }
          ]
        },
        {
          "bar_start": 14.0,
          "bar_end": 15.625,
          "name": "",
          "notes": [
            {
              "note": "C3",
              "pitch": 60,
              "beat": 0.0,
              "dur": 0.18,
              "vel": 127
            },
            {
              "note": "C3",
              "pitch": 60,
              "beat": 1.836,
              "dur": 0.135,
              "vel": 38
            },
            {
              "note": "C3",
              "pitch": 60,
              "beat": 2.0,
              "dur": 0.18,
              "vel": 127
            },
            {
              "note": "C3",
              "pitch": 60,
              "beat": 4.0,
              "dur": 0.18,
              "vel": 127
            },
            {
              "note": "C3",
              "pitch": 60,
              "beat": 4.834,
              "dur": 0.18,
              "vel": 127
            },
            {
              "note": "C3",
              "pitch": 60,
              "beat": 5.836,
              "dur": 0.136,
              "vel": 1
            },
            {
              "note": "C3",
              "pitch": 60,
              "beat": 6.0,
              "dur": 0.18,
              "vel": 127
            },
            {
              "note": "C3",
              "pitch": 60,
              "beat": 7.336,
              "dur": 0.18,
              "vel": 127
            }
          ]
        },
        {
          "bar_start": 15.625,
          "bar_end": 15.75,
          "name": "",
          "notes": [
            {
              "note": "C3",
              "pitch": 60,
              "beat": 0.0,
              "dur": 0.18,
              "vel": 127
            },
            {
              "note": "C3",
              "pitch": 60,
              "beat": 1.836,
              "dur": 0.135,
              "vel": 38
            },
            {
              "note": "C3",
              "pitch": 60,
              "beat": 2.0,
              "dur": 0.18,
              "vel": 127
            },
            {
              "note": "C3",
              "pitch": 60,
              "beat": 4.0,
              "dur": 0.18,
              "vel": 127
            },
            {
              "note": "C3",
              "pitch": 60,
              "beat": 4.834,
              "dur": 0.18,
              "vel": 127
            },
            {
              "note": "C3",
              "pitch": 60,
              "beat": 5.836,
              "dur": 0.136,
              "vel": 1
            },
            {
              "note": "C3",
              "pitch": 60,
              "beat": 6.0,
              "dur": 0.18,
              "vel": 127
            },
            {
              "note": "C3",
              "pitch": 60,
              "beat": 7.336,
              "dur": 0.18,
              "vel": 127
            }
          ]
        },
        {
          "bar_start": 15.75,
          "bar_end": 16.0,
          "name": "",
          "notes": [
            {
              "note": "C3",
              "pitch": 60,
              "beat": 0.0,
              "dur": 0.18,
              "vel": 127
            },
            {
              "note": "C3",
              "pitch": 60,
              "beat": 1.836,
              "dur": 0.135,
              "vel": 38
            },
            {
              "note": "C3",
              "pitch": 60,
              "beat": 2.0,
              "dur": 0.18,
              "vel": 127
            },
            {
              "note": "C3",
              "pitch": 60,
              "beat": 4.0,
              "dur": 0.18,
              "vel": 127
            },
            {
              "note": "C3",
              "pitch": 60,
              "beat": 4.834,
              "dur": 0.18,
              "vel": 127
            },
            {
              "note": "C3",
              "pitch": 60,
              "beat": 5.836,
              "dur": 0.136,
              "vel": 1
            },
            {
              "note": "C3",
              "pitch": 60,
              "beat": 6.0,
              "dur": 0.18,
              "vel": 127
            },
            {
              "note": "C3",
              "pitch": 60,
              "beat": 7.336,
              "dur": 0.18,
              "vel": 127
            }
          ]
        },
        {
          "bar_start": 16.0,
          "bar_end": 17.0,
          "name": "",
          "notes": [
            {
              "note": "C3",
              "pitch": 60,
              "beat": 0.0,
              "dur": 0.18,
              "vel": 127
            },
            {
              "note": "C3",
              "pitch": 60,
              "beat": 1.836,
              "dur": 0.135,
              "vel": 38
            },
            {
              "note": "C3",
              "pitch": 60,
              "beat": 2.0,
              "dur": 0.18,
              "vel": 127
            },
            {
              "note": "C3",
              "pitch": 60,
              "beat": 4.0,
              "dur": 0.18,
              "vel": 127
            },
            {
              "note": "C3",
              "pitch": 60,
              "beat": 4.834,
              "dur": 0.18,
              "vel": 127
            },
            {
              "note": "C3",
              "pitch": 60,
              "beat": 5.836,
              "dur": 0.136,
              "vel": 1
            },
            {
              "note": "C3",
              "pitch": 60,
              "beat": 6.0,
              "dur": 0.18,
              "vel": 127
            },
            {
              "note": "C3",
              "pitch": 60,
              "beat": 7.336,
              "dur": 0.18,
              "vel": 127
            }
          ]
        },
        {
          "bar_start": 17.0,
          "bar_end": 17.625,
          "name": "",
          "notes": [
            {
              "note": "C3",
              "pitch": 60,
              "beat": 0.0,
              "dur": 0.18,
              "vel": 127
            },
            {
              "note": "C3",
              "pitch": 60,
              "beat": 1.836,
              "dur": 0.135,
              "vel": 38
            },
            {
              "note": "C3",
              "pitch": 60,
              "beat": 2.0,
              "dur": 0.18,
              "vel": 127
            },
            {
              "note": "C3",
              "pitch": 60,
              "beat": 4.0,
              "dur": 0.18,
              "vel": 127
            },
            {
              "note": "C3",
              "pitch": 60,
              "beat": 4.834,
              "dur": 0.18,
              "vel": 127
            },
            {
              "note": "C3",
              "pitch": 60,
              "beat": 5.836,
              "dur": 0.136,
              "vel": 1
            },
            {
              "note": "C3",
              "pitch": 60,
              "beat": 6.0,
              "dur": 0.18,
              "vel": 127
            },
            {
              "note": "C3",
              "pitch": 60,
              "beat": 7.336,
              "dur": 0.18,
              "vel": 127
            }
          ]
        },
        {
          "bar_start": 17.625,
          "bar_end": 17.75,
          "name": "",
          "notes": [
            {
              "note": "C3",
              "pitch": 60,
              "beat": 0.0,
              "dur": 0.18,
              "vel": 127
            },
            {
              "note": "C3",
              "pitch": 60,
              "beat": 1.836,
              "dur": 0.135,
              "vel": 38
            },
            {
              "note": "C3",
              "pitch": 60,
              "beat": 2.0,
              "dur": 0.18,
              "vel": 127
            },
            {
              "note": "C3",
              "pitch": 60,
              "beat": 4.0,
              "dur": 0.18,
              "vel": 127
            },
            {
              "note": "C3",
              "pitch": 60,
              "beat": 4.834,
              "dur": 0.18,
              "vel": 127
            },
            {
              "note": "C3",
              "pitch": 60,
              "beat": 5.836,
              "dur": 0.136,
              "vel": 1
            },
            {
              "note": "C3",
              "pitch": 60,
              "beat": 6.0,
              "dur": 0.18,
              "vel": 127
            },
            {
              "note": "C3",
              "pitch": 60,
              "beat": 7.336,
              "dur": 0.18,
              "vel": 127
            }
          ]
        },
        {
          "bar_start": 17.75,
          "bar_end": 18.0,
          "name": "",
          "notes": [
            {
              "note": "C3",
              "pitch": 60,
              "beat": 0.0,
              "dur": 0.18,
              "vel": 127
            },
            {
              "note": "C3",
              "pitch": 60,
              "beat": 1.836,
              "dur": 0.135,
              "vel": 38
            },
            {
              "note": "C3",
              "pitch": 60,
              "beat": 2.0,
              "dur": 0.18,
              "vel": 127
            },
            {
              "note": "C3",
              "pitch": 60,
              "beat": 4.0,
              "dur": 0.18,
              "vel": 127
            },
            {
              "note": "C3",
              "pitch": 60,
              "beat": 4.834,
              "dur": 0.18,
              "vel": 127
            },
            {
              "note": "C3",
              "pitch": 60,
              "beat": 5.836,
              "dur": 0.136,
              "vel": 1
            },
            {
              "note": "C3",
              "pitch": 60,
              "beat": 6.0,
              "dur": 0.18,
              "vel": 127
            },
            {
              "note": "C3",
              "pitch": 60,
              "beat": 7.336,
              "dur": 0.18,
              "vel": 127
            }
          ]
        },
        {
          "bar_start": 18.0,
          "bar_end": 19.625,
          "name": "",
          "notes": [
            {
              "note": "C3",
              "pitch": 60,
              "beat": 0.0,
              "dur": 0.18,
              "vel": 127
            },
            {
              "note": "C3",
              "pitch": 60,
              "beat": 1.836,
              "dur": 0.135,
              "vel": 38
            },
            {
              "note": "C3",
              "pitch": 60,
              "beat": 2.0,
              "dur": 0.18,
              "vel": 127
            },
            {
              "note": "C3",
              "pitch": 60,
              "beat": 4.0,
              "dur": 0.18,
              "vel": 127
            },
            {
              "note": "C3",
              "pitch": 60,
              "beat": 4.834,
              "dur": 0.18,
              "vel": 127
            },
            {
              "note": "C3",
              "pitch": 60,
              "beat": 5.836,
              "dur": 0.136,
              "vel": 1
            },
            {
              "note": "C3",
              "pitch": 60,
              "beat": 6.0,
              "dur": 0.18,
              "vel": 127
            },
            {
              "note": "C3",
              "pitch": 60,
              "beat": 7.336,
              "dur": 0.18,
              "vel": 127
            }
          ]
        },
        {
          "bar_start": 19.625,
          "bar_end": 19.75,
          "name": "",
          "notes": [
            {
              "note": "C3",
              "pitch": 60,
              "beat": 0.0,
              "dur": 0.18,
              "vel": 127
            },
            {
              "note": "C3",
              "pitch": 60,
              "beat": 1.836,
              "dur": 0.135,
              "vel": 38
            },
            {
              "note": "C3",
              "pitch": 60,
              "beat": 2.0,
              "dur": 0.18,
              "vel": 127
            },
            {
              "note": "C3",
              "pitch": 60,
              "beat": 4.0,
              "dur": 0.18,
              "vel": 127
            },
            {
              "note": "C3",
              "pitch": 60,
              "beat": 4.834,
              "dur": 0.18,
              "vel": 127
            },
            {
              "note": "C3",
              "pitch": 60,
              "beat": 5.836,
              "dur": 0.136,
              "vel": 1
            },
            {
              "note": "C3",
              "pitch": 60,
              "beat": 6.0,
              "dur": 0.18,
              "vel": 127
            },
            {
              "note": "C3",
              "pitch": 60,
              "beat": 7.336,
              "dur": 0.18,
              "vel": 127
            }
          ]
        },
        {
          "bar_start": 19.75,
          "bar_end": 20.0,
          "name": "",
          "notes": [
            {
              "note": "C3",
              "pitch": 60,
              "beat": 0.0,
              "dur": 0.18,
              "vel": 127
            },
            {
              "note": "C3",
              "pitch": 60,
              "beat": 1.836,
              "dur": 0.135,
              "vel": 38
            },
            {
              "note": "C3",
              "pitch": 60,
              "beat": 2.0,
              "dur": 0.18,
              "vel": 127
            },
            {
              "note": "C3",
              "pitch": 60,
              "beat": 4.0,
              "dur": 0.18,
              "vel": 127
            },
            {
              "note": "C3",
              "pitch": 60,
              "beat": 4.834,
              "dur": 0.18,
              "vel": 127
            },
            {
              "note": "C3",
              "pitch": 60,
              "beat": 5.836,
              "dur": 0.136,
              "vel": 1
            },
            {
              "note": "C3",
              "pitch": 60,
              "beat": 6.0,
              "dur": 0.18,
              "vel": 127
            },
            {
              "note": "C3",
              "pitch": 60,
              "beat": 7.336,
              "dur": 0.18,
              "vel": 127
            }
          ]
        },
        {
          "bar_start": 20.0,
          "bar_end": 21.0,
          "name": "",
          "notes": [
            {
              "note": "C3",
              "pitch": 60,
              "beat": 0.0,
              "dur": 0.18,
              "vel": 127
            },
            {
              "note": "C3",
              "pitch": 60,
              "beat": 1.836,
              "dur": 0.135,
              "vel": 38
            },
            {
              "note": "C3",
              "pitch": 60,
              "beat": 2.0,
              "dur": 0.18,
              "vel": 127
            },
            {
              "note": "C3",
              "pitch": 60,
              "beat": 4.0,
              "dur": 0.18,
              "vel": 127
            },
            {
              "note": "C3",
              "pitch": 60,
              "beat": 4.834,
              "dur": 0.18,
              "vel": 127
            },
            {
              "note": "C3",
              "pitch": 60,
              "beat": 5.836,
              "dur": 0.136,
              "vel": 1
            },
            {
              "note": "C3",
              "pitch": 60,
              "beat": 6.0,
              "dur": 0.18,
              "vel": 127
            },
            {
              "note": "C3",
              "pitch": 60,
              "beat": 7.336,
              "dur": 0.18,
              "vel": 127
            }
          ]
        },
        {
          "bar_start": 21.0,
          "bar_end": 21.625,
          "name": "",
          "notes": [
            {
              "note": "C3",
              "pitch": 60,
              "beat": 0.0,
              "dur": 0.18,
              "vel": 127
            },
            {
              "note": "C3",
              "pitch": 60,
              "beat": 1.836,
              "dur": 0.135,
              "vel": 38
            },
            {
              "note": "C3",
              "pitch": 60,
              "beat": 2.0,
              "dur": 0.18,
              "vel": 127
            },
            {
              "note": "C3",
              "pitch": 60,
              "beat": 4.0,
              "dur": 0.18,
              "vel": 127
            },
            {
              "note": "C3",
              "pitch": 60,
              "beat": 4.834,
              "dur": 0.18,
              "vel": 127
            },
            {
              "note": "C3",
              "pitch": 60,
              "beat": 5.836,
              "dur": 0.136,
              "vel": 1
            },
            {
              "note": "C3",
              "pitch": 60,
              "beat": 6.0,
              "dur": 0.18,
              "vel": 127
            },
            {
              "note": "C3",
              "pitch": 60,
              "beat": 7.336,
              "dur": 0.18,
              "vel": 127
            }
          ]
        },
        {
          "bar_start": 21.625,
          "bar_end": 21.75,
          "name": "",
          "notes": [
            {
              "note": "C3",
              "pitch": 60,
              "beat": 0.0,
              "dur": 0.18,
              "vel": 127
            },
            {
              "note": "C3",
              "pitch": 60,
              "beat": 1.836,
              "dur": 0.135,
              "vel": 38
            },
            {
              "note": "C3",
              "pitch": 60,
              "beat": 2.0,
              "dur": 0.18,
              "vel": 127
            },
            {
              "note": "C3",
              "pitch": 60,
              "beat": 4.0,
              "dur": 0.18,
              "vel": 127
            },
            {
              "note": "C3",
              "pitch": 60,
              "beat": 4.834,
              "dur": 0.18,
              "vel": 127
            },
            {
              "note": "C3",
              "pitch": 60,
              "beat": 5.836,
              "dur": 0.136,
              "vel": 1
            },
            {
              "note": "C3",
              "pitch": 60,
              "beat": 6.0,
              "dur": 0.18,
              "vel": 127
            },
            {
              "note": "C3",
              "pitch": 60,
              "beat": 7.336,
              "dur": 0.18,
              "vel": 127
            }
          ]
        },
        {
          "bar_start": 21.75,
          "bar_end": 22.0,
          "name": "",
          "notes": [
            {
              "note": "C3",
              "pitch": 60,
              "beat": 0.0,
              "dur": 0.18,
              "vel": 127
            },
            {
              "note": "C3",
              "pitch": 60,
              "beat": 1.836,
              "dur": 0.135,
              "vel": 38
            },
            {
              "note": "C3",
              "pitch": 60,
              "beat": 2.0,
              "dur": 0.18,
              "vel": 127
            },
            {
              "note": "C3",
              "pitch": 60,
              "beat": 4.0,
              "dur": 0.18,
              "vel": 127
            },
            {
              "note": "C3",
              "pitch": 60,
              "beat": 4.834,
              "dur": 0.18,
              "vel": 127
            },
            {
              "note": "C3",
              "pitch": 60,
              "beat": 5.836,
              "dur": 0.136,
              "vel": 1
            },
            {
              "note": "C3",
              "pitch": 60,
              "beat": 6.0,
              "dur": 0.18,
              "vel": 127
            },
            {
              "note": "C3",
              "pitch": 60,
              "beat": 7.336,
              "dur": 0.18,
              "vel": 127
            }
          ]
        },
        {
          "bar_start": 22.0,
          "bar_end": 23.625,
          "name": "",
          "notes": [
            {
              "note": "C3",
              "pitch": 60,
              "beat": 0.0,
              "dur": 0.18,
              "vel": 127
            },
            {
              "note": "C3",
              "pitch": 60,
              "beat": 1.836,
              "dur": 0.135,
              "vel": 38
            },
            {
              "note": "C3",
              "pitch": 60,
              "beat": 2.0,
              "dur": 0.18,
              "vel": 127
            },
            {
              "note": "C3",
              "pitch": 60,
              "beat": 4.0,
              "dur": 0.18,
              "vel": 127
            },
            {
              "note": "C3",
              "pitch": 60,
              "beat": 4.834,
              "dur": 0.18,
              "vel": 127
            },
            {
              "note": "C3",
              "pitch": 60,
              "beat": 5.836,
              "dur": 0.136,
              "vel": 1
            },
            {
              "note": "C3",
              "pitch": 60,
              "beat": 6.0,
              "dur": 0.18,
              "vel": 127
            },
            {
              "note": "C3",
              "pitch": 60,
              "beat": 7.336,
              "dur": 0.18,
              "vel": 127
            }
          ]
        },
        {
          "bar_start": 23.625,
          "bar_end": 23.75,
          "name": "",
          "notes": [
            {
              "note": "C3",
              "pitch": 60,
              "beat": 0.0,
              "dur": 0.18,
              "vel": 127
            },
            {
              "note": "C3",
              "pitch": 60,
              "beat": 1.836,
              "dur": 0.135,
              "vel": 38
            },
            {
              "note": "C3",
              "pitch": 60,
              "beat": 2.0,
              "dur": 0.18,
              "vel": 127
            },
            {
              "note": "C3",
              "pitch": 60,
              "beat": 4.0,
              "dur": 0.18,
              "vel": 127
            },
            {
              "note": "C3",
              "pitch": 60,
              "beat": 4.834,
              "dur": 0.18,
              "vel": 127
            },
            {
              "note": "C3",
              "pitch": 60,
              "beat": 5.836,
              "dur": 0.136,
              "vel": 1
            },
            {
              "note": "C3",
              "pitch": 60,
              "beat": 6.0,
              "dur": 0.18,
              "vel": 127
            },
            {
              "note": "C3",
              "pitch": 60,
              "beat": 7.336,
              "dur": 0.18,
              "vel": 127
            }
          ]
        },
        {
          "bar_start": 23.75,
          "bar_end": 24.0,
          "name": "",
          "notes": [
            {
              "note": "C3",
              "pitch": 60,
              "beat": 0.0,
              "dur": 0.18,
              "vel": 127
            },
            {
              "note": "C3",
              "pitch": 60,
              "beat": 1.836,
              "dur": 0.135,
              "vel": 38
            },
            {
              "note": "C3",
              "pitch": 60,
              "beat": 2.0,
              "dur": 0.18,
              "vel": 127
            },
            {
              "note": "C3",
              "pitch": 60,
              "beat": 4.0,
              "dur": 0.18,
              "vel": 127
            },
            {
              "note": "C3",
              "pitch": 60,
              "beat": 4.834,
              "dur": 0.18,
              "vel": 127
            },
            {
              "note": "C3",
              "pitch": 60,
              "beat": 5.836,
              "dur": 0.136,
              "vel": 1
            },
            {
              "note": "C3",
              "pitch": 60,
              "beat": 6.0,
              "dur": 0.18,
              "vel": 127
            },
            {
              "note": "C3",
              "pitch": 60,
              "beat": 7.336,
              "dur": 0.18,
              "vel": 127
            }
          ]
        },
        {
          "bar_start": 24.0,
          "bar_end": 25.0,
          "name": "",
          "notes": [
            {
              "note": "C3",
              "pitch": 60,
              "beat": 0.0,
              "dur": 0.18,
              "vel": 127
            },
            {
              "note": "C3",
              "pitch": 60,
              "beat": 1.836,
              "dur": 0.135,
              "vel": 38
            },
            {
              "note": "C3",
              "pitch": 60,
              "beat": 2.0,
              "dur": 0.18,
              "vel": 127
            },
            {
              "note": "C3",
              "pitch": 60,
              "beat": 4.0,
              "dur": 0.18,
              "vel": 127
            },
            {
              "note": "C3",
              "pitch": 60,
              "beat": 4.834,
              "dur": 0.18,
              "vel": 127
            },
            {
              "note": "C3",
              "pitch": 60,
              "beat": 5.836,
              "dur": 0.136,
              "vel": 1
            },
            {
              "note": "C3",
              "pitch": 60,
              "beat": 6.0,
              "dur": 0.18,
              "vel": 127
            },
            {
              "note": "C3",
              "pitch": 60,
              "beat": 7.336,
              "dur": 0.18,
              "vel": 127
            }
          ]
        },
        {
          "bar_start": 25.0,
          "bar_end": 25.625,
          "name": "",
          "notes": [
            {
              "note": "C3",
              "pitch": 60,
              "beat": 0.0,
              "dur": 0.18,
              "vel": 127
            },
            {
              "note": "C3",
              "pitch": 60,
              "beat": 1.836,
              "dur": 0.135,
              "vel": 38
            },
            {
              "note": "C3",
              "pitch": 60,
              "beat": 2.0,
              "dur": 0.18,
              "vel": 127
            },
            {
              "note": "C3",
              "pitch": 60,
              "beat": 4.0,
              "dur": 0.18,
              "vel": 127
            },
            {
              "note": "C3",
              "pitch": 60,
              "beat": 4.834,
              "dur": 0.18,
              "vel": 127
            },
            {
              "note": "C3",
              "pitch": 60,
              "beat": 5.836,
              "dur": 0.136,
              "vel": 1
            },
            {
              "note": "C3",
              "pitch": 60,
              "beat": 6.0,
              "dur": 0.18,
              "vel": 127
            },
            {
              "note": "C3",
              "pitch": 60,
              "beat": 7.336,
              "dur": 0.18,
              "vel": 127
            }
          ]
        },
        {
          "bar_start": 25.625,
          "bar_end": 25.75,
          "name": "",
          "notes": [
            {
              "note": "C3",
              "pitch": 60,
              "beat": 0.0,
              "dur": 0.18,
              "vel": 127
            },
            {
              "note": "C3",
              "pitch": 60,
              "beat": 1.836,
              "dur": 0.135,
              "vel": 38
            },
            {
              "note": "C3",
              "pitch": 60,
              "beat": 2.0,
              "dur": 0.18,
              "vel": 127
            },
            {
              "note": "C3",
              "pitch": 60,
              "beat": 4.0,
              "dur": 0.18,
              "vel": 127
            },
            {
              "note": "C3",
              "pitch": 60,
              "beat": 4.834,
              "dur": 0.18,
              "vel": 127
            },
            {
              "note": "C3",
              "pitch": 60,
              "beat": 5.836,
              "dur": 0.136,
              "vel": 1
            },
            {
              "note": "C3",
              "pitch": 60,
              "beat": 6.0,
              "dur": 0.18,
              "vel": 127
            },
            {
              "note": "C3",
              "pitch": 60,
              "beat": 7.336,
              "dur": 0.18,
              "vel": 127
            }
          ]
        },
        {
          "bar_start": 25.75,
          "bar_end": 26.0,
          "name": "",
          "notes": [
            {
              "note": "C3",
              "pitch": 60,
              "beat": 0.0,
              "dur": 0.18,
              "vel": 127
            },
            {
              "note": "C3",
              "pitch": 60,
              "beat": 1.836,
              "dur": 0.135,
              "vel": 38
            },
            {
              "note": "C3",
              "pitch": 60,
              "beat": 2.0,
              "dur": 0.18,
              "vel": 127
            },
            {
              "note": "C3",
              "pitch": 60,
              "beat": 4.0,
              "dur": 0.18,
              "vel": 127
            },
            {
              "note": "C3",
              "pitch": 60,
              "beat": 4.834,
              "dur": 0.18,
              "vel": 127
            },
            {
              "note": "C3",
              "pitch": 60,
              "beat": 5.836,
              "dur": 0.136,
              "vel": 1
            },
            {
              "note": "C3",
              "pitch": 60,
              "beat": 6.0,
              "dur": 0.18,
              "vel": 127
            },
            {
              "note": "C3",
              "pitch": 60,
              "beat": 7.336,
              "dur": 0.18,
              "vel": 127
            }
          ]
        },
        {
          "bar_start": 26.0,
          "bar_end": 27.625,
          "name": "",
          "notes": [
            {
              "note": "C3",
              "pitch": 60,
              "beat": 0.0,
              "dur": 0.18,
              "vel": 127
            },
            {
              "note": "C3",
              "pitch": 60,
              "beat": 1.836,
              "dur": 0.135,
              "vel": 38
            },
            {
              "note": "C3",
              "pitch": 60,
              "beat": 2.0,
              "dur": 0.18,
              "vel": 127
            },
            {
              "note": "C3",
              "pitch": 60,
              "beat": 4.0,
              "dur": 0.18,
              "vel": 127
            },
            {
              "note": "C3",
              "pitch": 60,
              "beat": 4.834,
              "dur": 0.18,
              "vel": 127
            },
            {
              "note": "C3",
              "pitch": 60,
              "beat": 5.836,
              "dur": 0.136,
              "vel": 1
            },
            {
              "note": "C3",
              "pitch": 60,
              "beat": 6.0,
              "dur": 0.18,
              "vel": 127
            },
            {
              "note": "C3",
              "pitch": 60,
              "beat": 7.336,
              "dur": 0.18,
              "vel": 127
            }
          ]
        },
        {
          "bar_start": 27.625,
          "bar_end": 27.75,
          "name": "",
          "notes": [
            {
              "note": "C3",
              "pitch": 60,
              "beat": 0.0,
              "dur": 0.18,
              "vel": 127
            },
            {
              "note": "C3",
              "pitch": 60,
              "beat": 1.836,
              "dur": 0.135,
              "vel": 38
            },
            {
              "note": "C3",
              "pitch": 60,
              "beat": 2.0,
              "dur": 0.18,
              "vel": 127
            },
            {
              "note": "C3",
              "pitch": 60,
              "beat": 4.0,
              "dur": 0.18,
              "vel": 127
            },
            {
              "note": "C3",
              "pitch": 60,
              "beat": 4.834,
              "dur": 0.18,
              "vel": 127
            },
            {
              "note": "C3",
              "pitch": 60,
              "beat": 5.836,
              "dur": 0.136,
              "vel": 1
            },
            {
              "note": "C3",
              "pitch": 60,
              "beat": 6.0,
              "dur": 0.18,
              "vel": 127
            },
            {
              "note": "C3",
              "pitch": 60,
              "beat": 7.336,
              "dur": 0.18,
              "vel": 127
            }
          ]
        },
        {
          "bar_start": 27.75,
          "bar_end": 28.0,
          "name": "",
          "notes": [
            {
              "note": "C3",
              "pitch": 60,
              "beat": 0.0,
              "dur": 0.18,
              "vel": 127
            },
            {
              "note": "C3",
              "pitch": 60,
              "beat": 1.836,
              "dur": 0.135,
              "vel": 38
            },
            {
              "note": "C3",
              "pitch": 60,
              "beat": 2.0,
              "dur": 0.18,
              "vel": 127
            },
            {
              "note": "C3",
              "pitch": 60,
              "beat": 4.0,
              "dur": 0.18,
              "vel": 127
            },
            {
              "note": "C3",
              "pitch": 60,
              "beat": 4.834,
              "dur": 0.18,
              "vel": 127
            },
            {
              "note": "C3",
              "pitch": 60,
              "beat": 5.836,
              "dur": 0.136,
              "vel": 1
            },
            {
              "note": "C3",
              "pitch": 60,
              "beat": 6.0,
              "dur": 0.18,
              "vel": 127
            },
            {
              "note": "C3",
              "pitch": 60,
              "beat": 7.336,
              "dur": 0.18,
              "vel": 127
            }
          ]
        },
        {
          "bar_start": 28.0,
          "bar_end": 29.0,
          "name": "",
          "notes": [
            {
              "note": "C3",
              "pitch": 60,
              "beat": 0.0,
              "dur": 0.18,
              "vel": 127
            },
            {
              "note": "C3",
              "pitch": 60,
              "beat": 1.836,
              "dur": 0.135,
              "vel": 38
            },
            {
              "note": "C3",
              "pitch": 60,
              "beat": 2.0,
              "dur": 0.18,
              "vel": 127
            },
            {
              "note": "C3",
              "pitch": 60,
              "beat": 4.0,
              "dur": 0.18,
              "vel": 127
            },
            {
              "note": "C3",
              "pitch": 60,
              "beat": 4.834,
              "dur": 0.18,
              "vel": 127
            },
            {
              "note": "C3",
              "pitch": 60,
              "beat": 5.836,
              "dur": 0.136,
              "vel": 1
            },
            {
              "note": "C3",
              "pitch": 60,
              "beat": 6.0,
              "dur": 0.18,
              "vel": 127
            },
            {
              "note": "C3",
              "pitch": 60,
              "beat": 7.336,
              "dur": 0.18,
              "vel": 127
            }
          ]
        },
        {
          "bar_start": 29.0,
          "bar_end": 29.625,
          "name": "",
          "notes": [
            {
              "note": "C3",
              "pitch": 60,
              "beat": 0.0,
              "dur": 0.18,
              "vel": 127
            },
            {
              "note": "C3",
              "pitch": 60,
              "beat": 1.836,
              "dur": 0.135,
              "vel": 38
            },
            {
              "note": "C3",
              "pitch": 60,
              "beat": 2.0,
              "dur": 0.18,
              "vel": 127
            },
            {
              "note": "C3",
              "pitch": 60,
              "beat": 4.0,
              "dur": 0.18,
              "vel": 127
            },
            {
              "note": "C3",
              "pitch": 60,
              "beat": 4.834,
              "dur": 0.18,
              "vel": 127
            },
            {
              "note": "C3",
              "pitch": 60,
              "beat": 5.836,
              "dur": 0.136,
              "vel": 1
            },
            {
              "note": "C3",
              "pitch": 60,
              "beat": 6.0,
              "dur": 0.18,
              "vel": 127
            },
            {
              "note": "C3",
              "pitch": 60,
              "beat": 7.336,
              "dur": 0.18,
              "vel": 127
            }
          ]
        },
        {
          "bar_start": 29.625,
          "bar_end": 29.75,
          "name": "",
          "notes": [
            {
              "note": "C3",
              "pitch": 60,
              "beat": 0.0,
              "dur": 0.18,
              "vel": 127
            },
            {
              "note": "C3",
              "pitch": 60,
              "beat": 1.836,
              "dur": 0.135,
              "vel": 38
            },
            {
              "note": "C3",
              "pitch": 60,
              "beat": 2.0,
              "dur": 0.18,
              "vel": 127
            },
            {
              "note": "C3",
              "pitch": 60,
              "beat": 4.0,
              "dur": 0.18,
              "vel": 127
            },
            {
              "note": "C3",
              "pitch": 60,
              "beat": 4.834,
              "dur": 0.18,
              "vel": 127
            },
            {
              "note": "C3",
              "pitch": 60,
              "beat": 5.836,
              "dur": 0.136,
              "vel": 1
            },
            {
              "note": "C3",
              "pitch": 60,
              "beat": 6.0,
              "dur": 0.18,
              "vel": 127
            },
            {
              "note": "C3",
              "pitch": 60,
              "beat": 7.336,
              "dur": 0.18,
              "vel": 127
            }
          ]
        },
        {
          "bar_start": 29.75,
          "bar_end": 30.0,
          "name": "",
          "notes": [
            {
              "note": "C3",
              "pitch": 60,
              "beat": 0.0,
              "dur": 0.18,
              "vel": 127
            },
            {
              "note": "C3",
              "pitch": 60,
              "beat": 1.836,
              "dur": 0.135,
              "vel": 38
            },
            {
              "note": "C3",
              "pitch": 60,
              "beat": 2.0,
              "dur": 0.18,
              "vel": 127
            },
            {
              "note": "C3",
              "pitch": 60,
              "beat": 4.0,
              "dur": 0.18,
              "vel": 127
            },
            {
              "note": "C3",
              "pitch": 60,
              "beat": 4.834,
              "dur": 0.18,
              "vel": 127
            },
            {
              "note": "C3",
              "pitch": 60,
              "beat": 5.836,
              "dur": 0.136,
              "vel": 1
            },
            {
              "note": "C3",
              "pitch": 60,
              "beat": 6.0,
              "dur": 0.18,
              "vel": 127
            },
            {
              "note": "C3",
              "pitch": 60,
              "beat": 7.336,
              "dur": 0.18,
              "vel": 127
            }
          ]
        },
        {
          "bar_start": 31.625,
          "bar_end": 31.75,
          "name": "",
          "notes": [
            {
              "note": "C3",
              "pitch": 60,
              "beat": 0.0,
              "dur": 0.18,
              "vel": 127
            },
            {
              "note": "C3",
              "pitch": 60,
              "beat": 1.836,
              "dur": 0.135,
              "vel": 38
            },
            {
              "note": "C3",
              "pitch": 60,
              "beat": 2.0,
              "dur": 0.18,
              "vel": 127
            },
            {
              "note": "C3",
              "pitch": 60,
              "beat": 4.0,
              "dur": 0.18,
              "vel": 127
            },
            {
              "note": "C3",
              "pitch": 60,
              "beat": 4.834,
              "dur": 0.18,
              "vel": 127
            },
            {
              "note": "C3",
              "pitch": 60,
              "beat": 5.836,
              "dur": 0.136,
              "vel": 1
            },
            {
              "note": "C3",
              "pitch": 60,
              "beat": 6.0,
              "dur": 0.18,
              "vel": 127
            },
            {
              "note": "C3",
              "pitch": 60,
              "beat": 7.336,
              "dur": 0.18,
              "vel": 127
            }
          ]
        },
        {
          "bar_start": 31.75,
          "bar_end": 32.0,
          "name": "",
          "notes": [
            {
              "note": "C3",
              "pitch": 60,
              "beat": 0.0,
              "dur": 0.18,
              "vel": 127
            },
            {
              "note": "C3",
              "pitch": 60,
              "beat": 1.836,
              "dur": 0.135,
              "vel": 38
            },
            {
              "note": "C3",
              "pitch": 60,
              "beat": 2.0,
              "dur": 0.18,
              "vel": 127
            },
            {
              "note": "C3",
              "pitch": 60,
              "beat": 4.0,
              "dur": 0.18,
              "vel": 127
            },
            {
              "note": "C3",
              "pitch": 60,
              "beat": 4.834,
              "dur": 0.18,
              "vel": 127
            },
            {
              "note": "C3",
              "pitch": 60,
              "beat": 5.836,
              "dur": 0.136,
              "vel": 1
            },
            {
              "note": "C3",
              "pitch": 60,
              "beat": 6.0,
              "dur": 0.18,
              "vel": 127
            },
            {
              "note": "C3",
              "pitch": 60,
              "beat": 7.336,
              "dur": 0.18,
              "vel": 127
            }
          ]
        },
        {
          "bar_start": 33.0,
          "bar_end": 33.625,
          "name": "",
          "notes": [
            {
              "note": "C3",
              "pitch": 60,
              "beat": 0.0,
              "dur": 0.18,
              "vel": 127
            },
            {
              "note": "C3",
              "pitch": 60,
              "beat": 1.836,
              "dur": 0.135,
              "vel": 38
            },
            {
              "note": "C3",
              "pitch": 60,
              "beat": 2.0,
              "dur": 0.18,
              "vel": 127
            },
            {
              "note": "C3",
              "pitch": 60,
              "beat": 4.0,
              "dur": 0.18,
              "vel": 127
            },
            {
              "note": "C3",
              "pitch": 60,
              "beat": 4.834,
              "dur": 0.18,
              "vel": 127
            },
            {
              "note": "C3",
              "pitch": 60,
              "beat": 5.836,
              "dur": 0.136,
              "vel": 1
            },
            {
              "note": "C3",
              "pitch": 60,
              "beat": 6.0,
              "dur": 0.18,
              "vel": 127
            },
            {
              "note": "C3",
              "pitch": 60,
              "beat": 7.336,
              "dur": 0.18,
              "vel": 127
            }
          ]
        },
        {
          "bar_start": 33.625,
          "bar_end": 33.75,
          "name": "",
          "notes": [
            {
              "note": "C3",
              "pitch": 60,
              "beat": 0.0,
              "dur": 0.18,
              "vel": 127
            },
            {
              "note": "C3",
              "pitch": 60,
              "beat": 1.836,
              "dur": 0.135,
              "vel": 38
            },
            {
              "note": "C3",
              "pitch": 60,
              "beat": 2.0,
              "dur": 0.18,
              "vel": 127
            },
            {
              "note": "C3",
              "pitch": 60,
              "beat": 4.0,
              "dur": 0.18,
              "vel": 127
            },
            {
              "note": "C3",
              "pitch": 60,
              "beat": 4.834,
              "dur": 0.18,
              "vel": 127
            },
            {
              "note": "C3",
              "pitch": 60,
              "beat": 5.836,
              "dur": 0.136,
              "vel": 1
            },
            {
              "note": "C3",
              "pitch": 60,
              "beat": 6.0,
              "dur": 0.18,
              "vel": 127
            },
            {
              "note": "C3",
              "pitch": 60,
              "beat": 7.336,
              "dur": 0.18,
              "vel": 127
            }
          ]
        },
        {
          "bar_start": 33.75,
          "bar_end": 34.0,
          "name": "",
          "notes": [
            {
              "note": "C3",
              "pitch": 60,
              "beat": 0.0,
              "dur": 0.18,
              "vel": 127
            },
            {
              "note": "C3",
              "pitch": 60,
              "beat": 1.836,
              "dur": 0.135,
              "vel": 38
            },
            {
              "note": "C3",
              "pitch": 60,
              "beat": 2.0,
              "dur": 0.18,
              "vel": 127
            },
            {
              "note": "C3",
              "pitch": 60,
              "beat": 4.0,
              "dur": 0.18,
              "vel": 127
            },
            {
              "note": "C3",
              "pitch": 60,
              "beat": 4.834,
              "dur": 0.18,
              "vel": 127
            },
            {
              "note": "C3",
              "pitch": 60,
              "beat": 5.836,
              "dur": 0.136,
              "vel": 1
            },
            {
              "note": "C3",
              "pitch": 60,
              "beat": 6.0,
              "dur": 0.18,
              "vel": 127
            },
            {
              "note": "C3",
              "pitch": 60,
              "beat": 7.336,
              "dur": 0.18,
              "vel": 127
            }
          ]
        },
        {
          "bar_start": 34.0,
          "bar_end": 35.625,
          "name": "",
          "notes": [
            {
              "note": "C3",
              "pitch": 60,
              "beat": 0.0,
              "dur": 0.18,
              "vel": 127
            },
            {
              "note": "C3",
              "pitch": 60,
              "beat": 1.836,
              "dur": 0.135,
              "vel": 38
            },
            {
              "note": "C3",
              "pitch": 60,
              "beat": 2.0,
              "dur": 0.18,
              "vel": 127
            },
            {
              "note": "C3",
              "pitch": 60,
              "beat": 4.0,
              "dur": 0.18,
              "vel": 127
            },
            {
              "note": "C3",
              "pitch": 60,
              "beat": 4.834,
              "dur": 0.18,
              "vel": 127
            },
            {
              "note": "C3",
              "pitch": 60,
              "beat": 5.836,
              "dur": 0.136,
              "vel": 1
            },
            {
              "note": "C3",
              "pitch": 60,
              "beat": 6.0,
              "dur": 0.18,
              "vel": 127
            },
            {
              "note": "C3",
              "pitch": 60,
              "beat": 7.336,
              "dur": 0.18,
              "vel": 127
            }
          ]
        },
        {
          "bar_start": 35.625,
          "bar_end": 35.75,
          "name": "",
          "notes": [
            {
              "note": "C3",
              "pitch": 60,
              "beat": 0.0,
              "dur": 0.18,
              "vel": 127
            },
            {
              "note": "C3",
              "pitch": 60,
              "beat": 1.836,
              "dur": 0.135,
              "vel": 38
            },
            {
              "note": "C3",
              "pitch": 60,
              "beat": 2.0,
              "dur": 0.18,
              "vel": 127
            },
            {
              "note": "C3",
              "pitch": 60,
              "beat": 4.0,
              "dur": 0.18,
              "vel": 127
            },
            {
              "note": "C3",
              "pitch": 60,
              "beat": 4.834,
              "dur": 0.18,
              "vel": 127
            },
            {
              "note": "C3",
              "pitch": 60,
              "beat": 5.836,
              "dur": 0.136,
              "vel": 1
            },
            {
              "note": "C3",
              "pitch": 60,
              "beat": 6.0,
              "dur": 0.18,
              "vel": 127
            },
            {
              "note": "C3",
              "pitch": 60,
              "beat": 7.336,
              "dur": 0.18,
              "vel": 127
            }
          ]
        },
        {
          "bar_start": 35.75,
          "bar_end": 35.875,
          "name": "",
          "notes": [
            {
              "note": "C3",
              "pitch": 60,
              "beat": 0.0,
              "dur": 0.18,
              "vel": 127
            },
            {
              "note": "C3",
              "pitch": 60,
              "beat": 1.836,
              "dur": 0.135,
              "vel": 38
            },
            {
              "note": "C3",
              "pitch": 60,
              "beat": 2.0,
              "dur": 0.18,
              "vel": 127
            },
            {
              "note": "C3",
              "pitch": 60,
              "beat": 4.0,
              "dur": 0.18,
              "vel": 127
            },
            {
              "note": "C3",
              "pitch": 60,
              "beat": 4.834,
              "dur": 0.18,
              "vel": 127
            },
            {
              "note": "C3",
              "pitch": 60,
              "beat": 5.836,
              "dur": 0.136,
              "vel": 1
            },
            {
              "note": "C3",
              "pitch": 60,
              "beat": 6.0,
              "dur": 0.18,
              "vel": 127
            },
            {
              "note": "C3",
              "pitch": 60,
              "beat": 7.336,
              "dur": 0.18,
              "vel": 127
            }
          ]
        },
        {
          "bar_start": 35.875,
          "bar_end": 36.0,
          "name": "",
          "notes": [
            {
              "note": "C3",
              "pitch": 60,
              "beat": 0.0,
              "dur": 0.18,
              "vel": 127
            },
            {
              "note": "C3",
              "pitch": 60,
              "beat": 1.836,
              "dur": 0.135,
              "vel": 38
            },
            {
              "note": "C3",
              "pitch": 60,
              "beat": 2.0,
              "dur": 0.18,
              "vel": 127
            },
            {
              "note": "C3",
              "pitch": 60,
              "beat": 4.0,
              "dur": 0.18,
              "vel": 127
            },
            {
              "note": "C3",
              "pitch": 60,
              "beat": 4.834,
              "dur": 0.18,
              "vel": 127
            },
            {
              "note": "C3",
              "pitch": 60,
              "beat": 5.836,
              "dur": 0.136,
              "vel": 1
            },
            {
              "note": "C3",
              "pitch": 60,
              "beat": 6.0,
              "dur": 0.18,
              "vel": 127
            },
            {
              "note": "C3",
              "pitch": 60,
              "beat": 7.336,
              "dur": 0.18,
              "vel": 127
            }
          ]
        },
        {
          "bar_start": 36.0,
          "bar_end": 37.0,
          "name": "",
          "notes": [
            {
              "note": "C3",
              "pitch": 60,
              "beat": 0.0,
              "dur": 0.18,
              "vel": 127
            },
            {
              "note": "C3",
              "pitch": 60,
              "beat": 1.836,
              "dur": 0.135,
              "vel": 38
            },
            {
              "note": "C3",
              "pitch": 60,
              "beat": 2.0,
              "dur": 0.18,
              "vel": 127
            },
            {
              "note": "C3",
              "pitch": 60,
              "beat": 4.0,
              "dur": 0.18,
              "vel": 127
            },
            {
              "note": "C3",
              "pitch": 60,
              "beat": 4.834,
              "dur": 0.18,
              "vel": 127
            },
            {
              "note": "C3",
              "pitch": 60,
              "beat": 5.836,
              "dur": 0.136,
              "vel": 1
            },
            {
              "note": "C3",
              "pitch": 60,
              "beat": 6.0,
              "dur": 0.18,
              "vel": 127
            },
            {
              "note": "C3",
              "pitch": 60,
              "beat": 7.336,
              "dur": 0.18,
              "vel": 127
            }
          ]
        },
        {
          "bar_start": 37.0,
          "bar_end": 37.625,
          "name": "",
          "notes": [
            {
              "note": "C3",
              "pitch": 60,
              "beat": 0.0,
              "dur": 0.18,
              "vel": 127
            },
            {
              "note": "C3",
              "pitch": 60,
              "beat": 1.836,
              "dur": 0.135,
              "vel": 38
            },
            {
              "note": "C3",
              "pitch": 60,
              "beat": 2.0,
              "dur": 0.18,
              "vel": 127
            },
            {
              "note": "C3",
              "pitch": 60,
              "beat": 4.0,
              "dur": 0.18,
              "vel": 127
            },
            {
              "note": "C3",
              "pitch": 60,
              "beat": 4.834,
              "dur": 0.18,
              "vel": 127
            },
            {
              "note": "C3",
              "pitch": 60,
              "beat": 5.836,
              "dur": 0.136,
              "vel": 1
            },
            {
              "note": "C3",
              "pitch": 60,
              "beat": 6.0,
              "dur": 0.18,
              "vel": 127
            },
            {
              "note": "C3",
              "pitch": 60,
              "beat": 7.336,
              "dur": 0.18,
              "vel": 127
            }
          ]
        },
        {
          "bar_start": 37.625,
          "bar_end": 37.75,
          "name": "",
          "notes": [
            {
              "note": "C3",
              "pitch": 60,
              "beat": 0.0,
              "dur": 0.18,
              "vel": 127
            },
            {
              "note": "C3",
              "pitch": 60,
              "beat": 1.836,
              "dur": 0.135,
              "vel": 38
            },
            {
              "note": "C3",
              "pitch": 60,
              "beat": 2.0,
              "dur": 0.18,
              "vel": 127
            },
            {
              "note": "C3",
              "pitch": 60,
              "beat": 4.0,
              "dur": 0.18,
              "vel": 127
            },
            {
              "note": "C3",
              "pitch": 60,
              "beat": 4.834,
              "dur": 0.18,
              "vel": 127
            },
            {
              "note": "C3",
              "pitch": 60,
              "beat": 5.836,
              "dur": 0.136,
              "vel": 1
            },
            {
              "note": "C3",
              "pitch": 60,
              "beat": 6.0,
              "dur": 0.18,
              "vel": 127
            },
            {
              "note": "C3",
              "pitch": 60,
              "beat": 7.336,
              "dur": 0.18,
              "vel": 127
            }
          ]
        },
        {
          "bar_start": 37.75,
          "bar_end": 38.0,
          "name": "",
          "notes": [
            {
              "note": "C3",
              "pitch": 60,
              "beat": 0.0,
              "dur": 0.18,
              "vel": 127
            },
            {
              "note": "C3",
              "pitch": 60,
              "beat": 1.836,
              "dur": 0.135,
              "vel": 38
            },
            {
              "note": "C3",
              "pitch": 60,
              "beat": 2.0,
              "dur": 0.18,
              "vel": 127
            },
            {
              "note": "C3",
              "pitch": 60,
              "beat": 4.0,
              "dur": 0.18,
              "vel": 127
            },
            {
              "note": "C3",
              "pitch": 60,
              "beat": 4.834,
              "dur": 0.18,
              "vel": 127
            },
            {
              "note": "C3",
              "pitch": 60,
              "beat": 5.836,
              "dur": 0.136,
              "vel": 1
            },
            {
              "note": "C3",
              "pitch": 60,
              "beat": 6.0,
              "dur": 0.18,
              "vel": 127
            },
            {
              "note": "C3",
              "pitch": 60,
              "beat": 7.336,
              "dur": 0.18,
              "vel": 127
            }
          ]
        },
        {
          "bar_start": 38.0,
          "bar_end": 39.625,
          "name": "",
          "notes": [
            {
              "note": "C3",
              "pitch": 60,
              "beat": 0.0,
              "dur": 0.18,
              "vel": 127
            },
            {
              "note": "C3",
              "pitch": 60,
              "beat": 1.836,
              "dur": 0.135,
              "vel": 38
            },
            {
              "note": "C3",
              "pitch": 60,
              "beat": 2.0,
              "dur": 0.18,
              "vel": 127
            },
            {
              "note": "C3",
              "pitch": 60,
              "beat": 4.0,
              "dur": 0.18,
              "vel": 127
            },
            {
              "note": "C3",
              "pitch": 60,
              "beat": 4.834,
              "dur": 0.18,
              "vel": 127
            },
            {
              "note": "C3",
              "pitch": 60,
              "beat": 5.836,
              "dur": 0.136,
              "vel": 1
            },
            {
              "note": "C3",
              "pitch": 60,
              "beat": 6.0,
              "dur": 0.18,
              "vel": 127
            },
            {
              "note": "C3",
              "pitch": 60,
              "beat": 7.336,
              "dur": 0.18,
              "vel": 127
            }
          ]
        },
        {
          "bar_start": 39.625,
          "bar_end": 39.75,
          "name": "",
          "notes": [
            {
              "note": "C3",
              "pitch": 60,
              "beat": 0.0,
              "dur": 0.18,
              "vel": 127
            },
            {
              "note": "C3",
              "pitch": 60,
              "beat": 1.836,
              "dur": 0.135,
              "vel": 38
            },
            {
              "note": "C3",
              "pitch": 60,
              "beat": 2.0,
              "dur": 0.18,
              "vel": 127
            },
            {
              "note": "C3",
              "pitch": 60,
              "beat": 4.0,
              "dur": 0.18,
              "vel": 127
            },
            {
              "note": "C3",
              "pitch": 60,
              "beat": 4.834,
              "dur": 0.18,
              "vel": 127
            },
            {
              "note": "C3",
              "pitch": 60,
              "beat": 5.836,
              "dur": 0.136,
              "vel": 1
            },
            {
              "note": "C3",
              "pitch": 60,
              "beat": 6.0,
              "dur": 0.18,
              "vel": 127
            },
            {
              "note": "C3",
              "pitch": 60,
              "beat": 7.336,
              "dur": 0.18,
              "vel": 127
            }
          ]
        },
        {
          "bar_start": 39.75,
          "bar_end": 40.0,
          "name": "",
          "notes": [
            {
              "note": "C3",
              "pitch": 60,
              "beat": 0.0,
              "dur": 0.18,
              "vel": 127
            },
            {
              "note": "C3",
              "pitch": 60,
              "beat": 1.836,
              "dur": 0.135,
              "vel": 38
            },
            {
              "note": "C3",
              "pitch": 60,
              "beat": 2.0,
              "dur": 0.18,
              "vel": 127
            },
            {
              "note": "C3",
              "pitch": 60,
              "beat": 4.0,
              "dur": 0.18,
              "vel": 127
            },
            {
              "note": "C3",
              "pitch": 60,
              "beat": 4.834,
              "dur": 0.18,
              "vel": 127
            },
            {
              "note": "C3",
              "pitch": 60,
              "beat": 5.836,
              "dur": 0.136,
              "vel": 1
            },
            {
              "note": "C3",
              "pitch": 60,
              "beat": 6.0,
              "dur": 0.18,
              "vel": 127
            },
            {
              "note": "C3",
              "pitch": 60,
              "beat": 7.336,
              "dur": 0.18,
              "vel": 127
            }
          ]
        },
        {
          "bar_start": 40.0,
          "bar_end": 41.0,
          "name": "",
          "notes": [
            {
              "note": "C3",
              "pitch": 60,
              "beat": 0.0,
              "dur": 0.18,
              "vel": 127
            },
            {
              "note": "C3",
              "pitch": 60,
              "beat": 1.836,
              "dur": 0.135,
              "vel": 38
            },
            {
              "note": "C3",
              "pitch": 60,
              "beat": 2.0,
              "dur": 0.18,
              "vel": 127
            },
            {
              "note": "C3",
              "pitch": 60,
              "beat": 4.0,
              "dur": 0.18,
              "vel": 127
            },
            {
              "note": "C3",
              "pitch": 60,
              "beat": 4.834,
              "dur": 0.18,
              "vel": 127
            },
            {
              "note": "C3",
              "pitch": 60,
              "beat": 5.836,
              "dur": 0.136,
              "vel": 1
            },
            {
              "note": "C3",
              "pitch": 60,
              "beat": 6.0,
              "dur": 0.18,
              "vel": 127
            },
            {
              "note": "C3",
              "pitch": 60,
              "beat": 7.336,
              "dur": 0.18,
              "vel": 127
            }
          ]
        },
        {
          "bar_start": 41.0,
          "bar_end": 41.625,
          "name": "",
          "notes": [
            {
              "note": "C3",
              "pitch": 60,
              "beat": 0.0,
              "dur": 0.18,
              "vel": 127
            },
            {
              "note": "C3",
              "pitch": 60,
              "beat": 1.836,
              "dur": 0.135,
              "vel": 38
            },
            {
              "note": "C3",
              "pitch": 60,
              "beat": 2.0,
              "dur": 0.18,
              "vel": 127
            },
            {
              "note": "C3",
              "pitch": 60,
              "beat": 4.0,
              "dur": 0.18,
              "vel": 127
            },
            {
              "note": "C3",
              "pitch": 60,
              "beat": 4.834,
              "dur": 0.18,
              "vel": 127
            },
            {
              "note": "C3",
              "pitch": 60,
              "beat": 5.836,
              "dur": 0.136,
              "vel": 1
            },
            {
              "note": "C3",
              "pitch": 60,
              "beat": 6.0,
              "dur": 0.18,
              "vel": 127
            },
            {
              "note": "C3",
              "pitch": 60,
              "beat": 7.336,
              "dur": 0.18,
              "vel": 127
            }
          ]
        },
        {
          "bar_start": 41.625,
          "bar_end": 41.75,
          "name": "",
          "notes": [
            {
              "note": "C3",
              "pitch": 60,
              "beat": 0.0,
              "dur": 0.18,
              "vel": 127
            },
            {
              "note": "C3",
              "pitch": 60,
              "beat": 1.836,
              "dur": 0.135,
              "vel": 38
            },
            {
              "note": "C3",
              "pitch": 60,
              "beat": 2.0,
              "dur": 0.18,
              "vel": 127
            },
            {
              "note": "C3",
              "pitch": 60,
              "beat": 4.0,
              "dur": 0.18,
              "vel": 127
            },
            {
              "note": "C3",
              "pitch": 60,
              "beat": 4.834,
              "dur": 0.18,
              "vel": 127
            },
            {
              "note": "C3",
              "pitch": 60,
              "beat": 5.836,
              "dur": 0.136,
              "vel": 1
            },
            {
              "note": "C3",
              "pitch": 60,
              "beat": 6.0,
              "dur": 0.18,
              "vel": 127
            },
            {
              "note": "C3",
              "pitch": 60,
              "beat": 7.336,
              "dur": 0.18,
              "vel": 127
            }
          ]
        },
        {
          "bar_start": 42.0,
          "bar_end": 43.625,
          "name": "",
          "notes": [
            {
              "note": "C3",
              "pitch": 60,
              "beat": 0.0,
              "dur": 0.18,
              "vel": 127
            },
            {
              "note": "C3",
              "pitch": 60,
              "beat": 1.836,
              "dur": 0.135,
              "vel": 38
            },
            {
              "note": "C3",
              "pitch": 60,
              "beat": 2.0,
              "dur": 0.18,
              "vel": 127
            },
            {
              "note": "C3",
              "pitch": 60,
              "beat": 4.0,
              "dur": 0.18,
              "vel": 127
            },
            {
              "note": "C3",
              "pitch": 60,
              "beat": 4.834,
              "dur": 0.18,
              "vel": 127
            },
            {
              "note": "C3",
              "pitch": 60,
              "beat": 5.836,
              "dur": 0.136,
              "vel": 1
            },
            {
              "note": "C3",
              "pitch": 60,
              "beat": 6.0,
              "dur": 0.18,
              "vel": 127
            },
            {
              "note": "C3",
              "pitch": 60,
              "beat": 7.336,
              "dur": 0.18,
              "vel": 127
            }
          ]
        },
        {
          "bar_start": 43.625,
          "bar_end": 43.75,
          "name": "",
          "notes": [
            {
              "note": "C3",
              "pitch": 60,
              "beat": 0.0,
              "dur": 0.18,
              "vel": 127
            },
            {
              "note": "C3",
              "pitch": 60,
              "beat": 1.836,
              "dur": 0.135,
              "vel": 38
            },
            {
              "note": "C3",
              "pitch": 60,
              "beat": 2.0,
              "dur": 0.18,
              "vel": 127
            },
            {
              "note": "C3",
              "pitch": 60,
              "beat": 4.0,
              "dur": 0.18,
              "vel": 127
            },
            {
              "note": "C3",
              "pitch": 60,
              "beat": 4.834,
              "dur": 0.18,
              "vel": 127
            },
            {
              "note": "C3",
              "pitch": 60,
              "beat": 5.836,
              "dur": 0.136,
              "vel": 1
            },
            {
              "note": "C3",
              "pitch": 60,
              "beat": 6.0,
              "dur": 0.18,
              "vel": 127
            },
            {
              "note": "C3",
              "pitch": 60,
              "beat": 7.336,
              "dur": 0.18,
              "vel": 127
            }
          ]
        },
        {
          "bar_start": 43.75,
          "bar_end": 44.0,
          "name": "",
          "notes": [
            {
              "note": "C3",
              "pitch": 60,
              "beat": 0.0,
              "dur": 0.18,
              "vel": 127
            },
            {
              "note": "C3",
              "pitch": 60,
              "beat": 1.836,
              "dur": 0.135,
              "vel": 38
            },
            {
              "note": "C3",
              "pitch": 60,
              "beat": 2.0,
              "dur": 0.18,
              "vel": 127
            },
            {
              "note": "C3",
              "pitch": 60,
              "beat": 4.0,
              "dur": 0.18,
              "vel": 127
            },
            {
              "note": "C3",
              "pitch": 60,
              "beat": 4.834,
              "dur": 0.18,
              "vel": 127
            },
            {
              "note": "C3",
              "pitch": 60,
              "beat": 5.836,
              "dur": 0.136,
              "vel": 1
            },
            {
              "note": "C3",
              "pitch": 60,
              "beat": 6.0,
              "dur": 0.18,
              "vel": 127
            },
            {
              "note": "C3",
              "pitch": 60,
              "beat": 7.336,
              "dur": 0.18,
              "vel": 127
            }
          ]
        },
        {
          "bar_start": 44.0,
          "bar_end": 45.0,
          "name": "",
          "notes": [
            {
              "note": "C3",
              "pitch": 60,
              "beat": 0.0,
              "dur": 0.18,
              "vel": 127
            },
            {
              "note": "C3",
              "pitch": 60,
              "beat": 1.836,
              "dur": 0.135,
              "vel": 38
            },
            {
              "note": "C3",
              "pitch": 60,
              "beat": 2.0,
              "dur": 0.18,
              "vel": 127
            },
            {
              "note": "C3",
              "pitch": 60,
              "beat": 4.0,
              "dur": 0.18,
              "vel": 127
            },
            {
              "note": "C3",
              "pitch": 60,
              "beat": 4.834,
              "dur": 0.18,
              "vel": 127
            },
            {
              "note": "C3",
              "pitch": 60,
              "beat": 5.836,
              "dur": 0.136,
              "vel": 1
            },
            {
              "note": "C3",
              "pitch": 60,
              "beat": 6.0,
              "dur": 0.18,
              "vel": 127
            },
            {
              "note": "C3",
              "pitch": 60,
              "beat": 7.336,
              "dur": 0.18,
              "vel": 127
            }
          ]
        },
        {
          "bar_start": 45.0,
          "bar_end": 45.625,
          "name": "",
          "notes": [
            {
              "note": "C3",
              "pitch": 60,
              "beat": 0.0,
              "dur": 0.18,
              "vel": 127
            },
            {
              "note": "C3",
              "pitch": 60,
              "beat": 1.836,
              "dur": 0.135,
              "vel": 38
            },
            {
              "note": "C3",
              "pitch": 60,
              "beat": 2.0,
              "dur": 0.18,
              "vel": 127
            },
            {
              "note": "C3",
              "pitch": 60,
              "beat": 4.0,
              "dur": 0.18,
              "vel": 127
            },
            {
              "note": "C3",
              "pitch": 60,
              "beat": 4.834,
              "dur": 0.18,
              "vel": 127
            },
            {
              "note": "C3",
              "pitch": 60,
              "beat": 5.836,
              "dur": 0.136,
              "vel": 1
            },
            {
              "note": "C3",
              "pitch": 60,
              "beat": 6.0,
              "dur": 0.18,
              "vel": 127
            },
            {
              "note": "C3",
              "pitch": 60,
              "beat": 7.336,
              "dur": 0.18,
              "vel": 127
            }
          ]
        },
        {
          "bar_start": 45.625,
          "bar_end": 45.75,
          "name": "",
          "notes": [
            {
              "note": "C3",
              "pitch": 60,
              "beat": 0.0,
              "dur": 0.18,
              "vel": 127
            },
            {
              "note": "C3",
              "pitch": 60,
              "beat": 1.836,
              "dur": 0.135,
              "vel": 38
            },
            {
              "note": "C3",
              "pitch": 60,
              "beat": 2.0,
              "dur": 0.18,
              "vel": 127
            },
            {
              "note": "C3",
              "pitch": 60,
              "beat": 4.0,
              "dur": 0.18,
              "vel": 127
            },
            {
              "note": "C3",
              "pitch": 60,
              "beat": 4.834,
              "dur": 0.18,
              "vel": 127
            },
            {
              "note": "C3",
              "pitch": 60,
              "beat": 5.836,
              "dur": 0.136,
              "vel": 1
            },
            {
              "note": "C3",
              "pitch": 60,
              "beat": 6.0,
              "dur": 0.18,
              "vel": 127
            },
            {
              "note": "C3",
              "pitch": 60,
              "beat": 7.336,
              "dur": 0.18,
              "vel": 127
            }
          ]
        },
        {
          "bar_start": 45.75,
          "bar_end": 46.0,
          "name": "",
          "notes": [
            {
              "note": "C3",
              "pitch": 60,
              "beat": 0.0,
              "dur": 0.18,
              "vel": 127
            },
            {
              "note": "C3",
              "pitch": 60,
              "beat": 1.836,
              "dur": 0.135,
              "vel": 38
            },
            {
              "note": "C3",
              "pitch": 60,
              "beat": 2.0,
              "dur": 0.18,
              "vel": 127
            },
            {
              "note": "C3",
              "pitch": 60,
              "beat": 4.0,
              "dur": 0.18,
              "vel": 127
            },
            {
              "note": "C3",
              "pitch": 60,
              "beat": 4.834,
              "dur": 0.18,
              "vel": 127
            },
            {
              "note": "C3",
              "pitch": 60,
              "beat": 5.836,
              "dur": 0.136,
              "vel": 1
            },
            {
              "note": "C3",
              "pitch": 60,
              "beat": 6.0,
              "dur": 0.18,
              "vel": 127
            },
            {
              "note": "C3",
              "pitch": 60,
              "beat": 7.336,
              "dur": 0.18,
              "vel": 127
            }
          ]
        },
        {
          "bar_start": 46.0,
          "bar_end": 47.625,
          "name": "",
          "notes": [
            {
              "note": "C3",
              "pitch": 60,
              "beat": 0.0,
              "dur": 0.18,
              "vel": 127
            },
            {
              "note": "C3",
              "pitch": 60,
              "beat": 1.836,
              "dur": 0.135,
              "vel": 38
            },
            {
              "note": "C3",
              "pitch": 60,
              "beat": 2.0,
              "dur": 0.18,
              "vel": 127
            },
            {
              "note": "C3",
              "pitch": 60,
              "beat": 4.0,
              "dur": 0.18,
              "vel": 127
            },
            {
              "note": "C3",
              "pitch": 60,
              "beat": 4.834,
              "dur": 0.18,
              "vel": 127
            },
            {
              "note": "C3",
              "pitch": 60,
              "beat": 5.836,
              "dur": 0.136,
              "vel": 1
            },
            {
              "note": "C3",
              "pitch": 60,
              "beat": 6.0,
              "dur": 0.18,
              "vel": 127
            },
            {
              "note": "C3",
              "pitch": 60,
              "beat": 7.336,
              "dur": 0.18,
              "vel": 127
            }
          ]
        },
        {
          "bar_start": 47.625,
          "bar_end": 47.75,
          "name": "",
          "notes": [
            {
              "note": "C3",
              "pitch": 60,
              "beat": 0.0,
              "dur": 0.18,
              "vel": 127
            },
            {
              "note": "C3",
              "pitch": 60,
              "beat": 1.836,
              "dur": 0.135,
              "vel": 38
            },
            {
              "note": "C3",
              "pitch": 60,
              "beat": 2.0,
              "dur": 0.18,
              "vel": 127
            },
            {
              "note": "C3",
              "pitch": 60,
              "beat": 4.0,
              "dur": 0.18,
              "vel": 127
            },
            {
              "note": "C3",
              "pitch": 60,
              "beat": 4.834,
              "dur": 0.18,
              "vel": 127
            },
            {
              "note": "C3",
              "pitch": 60,
              "beat": 5.836,
              "dur": 0.136,
              "vel": 1
            },
            {
              "note": "C3",
              "pitch": 60,
              "beat": 6.0,
              "dur": 0.18,
              "vel": 127
            },
            {
              "note": "C3",
              "pitch": 60,
              "beat": 7.336,
              "dur": 0.18,
              "vel": 127
            }
          ]
        },
        {
          "bar_start": 47.75,
          "bar_end": 48.0,
          "name": "",
          "notes": [
            {
              "note": "C3",
              "pitch": 60,
              "beat": 0.0,
              "dur": 0.18,
              "vel": 127
            },
            {
              "note": "C3",
              "pitch": 60,
              "beat": 1.836,
              "dur": 0.135,
              "vel": 38
            },
            {
              "note": "C3",
              "pitch": 60,
              "beat": 2.0,
              "dur": 0.18,
              "vel": 127
            },
            {
              "note": "C3",
              "pitch": 60,
              "beat": 4.0,
              "dur": 0.18,
              "vel": 127
            },
            {
              "note": "C3",
              "pitch": 60,
              "beat": 4.834,
              "dur": 0.18,
              "vel": 127
            },
            {
              "note": "C3",
              "pitch": 60,
              "beat": 5.836,
              "dur": 0.136,
              "vel": 1
            },
            {
              "note": "C3",
              "pitch": 60,
              "beat": 6.0,
              "dur": 0.18,
              "vel": 127
            },
            {
              "note": "C3",
              "pitch": 60,
              "beat": 7.336,
              "dur": 0.18,
              "vel": 127
            }
          ]
        },
        {
          "bar_start": 52.0,
          "bar_end": 53.0,
          "name": "",
          "notes": [
            {
              "note": "C3",
              "pitch": 60,
              "beat": 0.0,
              "dur": 0.18,
              "vel": 127
            },
            {
              "note": "C3",
              "pitch": 60,
              "beat": 1.836,
              "dur": 0.135,
              "vel": 38
            },
            {
              "note": "C3",
              "pitch": 60,
              "beat": 2.0,
              "dur": 0.18,
              "vel": 127
            },
            {
              "note": "C3",
              "pitch": 60,
              "beat": 4.0,
              "dur": 0.18,
              "vel": 127
            },
            {
              "note": "C3",
              "pitch": 60,
              "beat": 4.834,
              "dur": 0.18,
              "vel": 127
            },
            {
              "note": "C3",
              "pitch": 60,
              "beat": 5.836,
              "dur": 0.136,
              "vel": 1
            },
            {
              "note": "C3",
              "pitch": 60,
              "beat": 6.0,
              "dur": 0.18,
              "vel": 127
            },
            {
              "note": "C3",
              "pitch": 60,
              "beat": 7.336,
              "dur": 0.18,
              "vel": 127
            }
          ]
        },
        {
          "bar_start": 53.0,
          "bar_end": 53.625,
          "name": "",
          "notes": [
            {
              "note": "C3",
              "pitch": 60,
              "beat": 0.0,
              "dur": 0.18,
              "vel": 127
            },
            {
              "note": "C3",
              "pitch": 60,
              "beat": 1.836,
              "dur": 0.135,
              "vel": 38
            },
            {
              "note": "C3",
              "pitch": 60,
              "beat": 2.0,
              "dur": 0.18,
              "vel": 127
            },
            {
              "note": "C3",
              "pitch": 60,
              "beat": 4.0,
              "dur": 0.18,
              "vel": 127
            },
            {
              "note": "C3",
              "pitch": 60,
              "beat": 4.834,
              "dur": 0.18,
              "vel": 127
            },
            {
              "note": "C3",
              "pitch": 60,
              "beat": 5.836,
              "dur": 0.136,
              "vel": 1
            },
            {
              "note": "C3",
              "pitch": 60,
              "beat": 6.0,
              "dur": 0.18,
              "vel": 127
            },
            {
              "note": "C3",
              "pitch": 60,
              "beat": 7.336,
              "dur": 0.18,
              "vel": 127
            }
          ]
        },
        {
          "bar_start": 53.625,
          "bar_end": 53.75,
          "name": "",
          "notes": [
            {
              "note": "C3",
              "pitch": 60,
              "beat": 0.0,
              "dur": 0.18,
              "vel": 127
            },
            {
              "note": "C3",
              "pitch": 60,
              "beat": 1.836,
              "dur": 0.135,
              "vel": 38
            },
            {
              "note": "C3",
              "pitch": 60,
              "beat": 2.0,
              "dur": 0.18,
              "vel": 127
            },
            {
              "note": "C3",
              "pitch": 60,
              "beat": 4.0,
              "dur": 0.18,
              "vel": 127
            },
            {
              "note": "C3",
              "pitch": 60,
              "beat": 4.834,
              "dur": 0.18,
              "vel": 127
            },
            {
              "note": "C3",
              "pitch": 60,
              "beat": 5.836,
              "dur": 0.136,
              "vel": 1
            },
            {
              "note": "C3",
              "pitch": 60,
              "beat": 6.0,
              "dur": 0.18,
              "vel": 127
            },
            {
              "note": "C3",
              "pitch": 60,
              "beat": 7.336,
              "dur": 0.18,
              "vel": 127
            }
          ]
        },
        {
          "bar_start": 53.75,
          "bar_end": 54.0,
          "name": "",
          "notes": [
            {
              "note": "C3",
              "pitch": 60,
              "beat": 0.0,
              "dur": 0.18,
              "vel": 127
            },
            {
              "note": "C3",
              "pitch": 60,
              "beat": 1.836,
              "dur": 0.135,
              "vel": 38
            },
            {
              "note": "C3",
              "pitch": 60,
              "beat": 2.0,
              "dur": 0.18,
              "vel": 127
            },
            {
              "note": "C3",
              "pitch": 60,
              "beat": 4.0,
              "dur": 0.18,
              "vel": 127
            },
            {
              "note": "C3",
              "pitch": 60,
              "beat": 4.834,
              "dur": 0.18,
              "vel": 127
            },
            {
              "note": "C3",
              "pitch": 60,
              "beat": 5.836,
              "dur": 0.136,
              "vel": 1
            },
            {
              "note": "C3",
              "pitch": 60,
              "beat": 6.0,
              "dur": 0.18,
              "vel": 127
            },
            {
              "note": "C3",
              "pitch": 60,
              "beat": 7.336,
              "dur": 0.18,
              "vel": 127
            }
          ]
        },
        {
          "bar_start": 54.0,
          "bar_end": 55.625,
          "name": "",
          "notes": [
            {
              "note": "C3",
              "pitch": 60,
              "beat": 0.0,
              "dur": 0.18,
              "vel": 127
            },
            {
              "note": "C3",
              "pitch": 60,
              "beat": 1.836,
              "dur": 0.135,
              "vel": 38
            },
            {
              "note": "C3",
              "pitch": 60,
              "beat": 2.0,
              "dur": 0.18,
              "vel": 127
            },
            {
              "note": "C3",
              "pitch": 60,
              "beat": 4.0,
              "dur": 0.18,
              "vel": 127
            },
            {
              "note": "C3",
              "pitch": 60,
              "beat": 4.834,
              "dur": 0.18,
              "vel": 127
            },
            {
              "note": "C3",
              "pitch": 60,
              "beat": 5.836,
              "dur": 0.136,
              "vel": 1
            },
            {
              "note": "C3",
              "pitch": 60,
              "beat": 6.0,
              "dur": 0.18,
              "vel": 127
            },
            {
              "note": "C3",
              "pitch": 60,
              "beat": 7.336,
              "dur": 0.18,
              "vel": 127
            }
          ]
        },
        {
          "bar_start": 55.625,
          "bar_end": 55.75,
          "name": "",
          "notes": [
            {
              "note": "C3",
              "pitch": 60,
              "beat": 0.0,
              "dur": 0.18,
              "vel": 127
            },
            {
              "note": "C3",
              "pitch": 60,
              "beat": 1.836,
              "dur": 0.135,
              "vel": 38
            },
            {
              "note": "C3",
              "pitch": 60,
              "beat": 2.0,
              "dur": 0.18,
              "vel": 127
            },
            {
              "note": "C3",
              "pitch": 60,
              "beat": 4.0,
              "dur": 0.18,
              "vel": 127
            },
            {
              "note": "C3",
              "pitch": 60,
              "beat": 4.834,
              "dur": 0.18,
              "vel": 127
            },
            {
              "note": "C3",
              "pitch": 60,
              "beat": 5.836,
              "dur": 0.136,
              "vel": 1
            },
            {
              "note": "C3",
              "pitch": 60,
              "beat": 6.0,
              "dur": 0.18,
              "vel": 127
            },
            {
              "note": "C3",
              "pitch": 60,
              "beat": 7.336,
              "dur": 0.18,
              "vel": 127
            }
          ]
        },
        {
          "bar_start": 55.75,
          "bar_end": 56.0,
          "name": "",
          "notes": [
            {
              "note": "C3",
              "pitch": 60,
              "beat": 0.0,
              "dur": 0.18,
              "vel": 127
            },
            {
              "note": "C3",
              "pitch": 60,
              "beat": 1.836,
              "dur": 0.135,
              "vel": 38
            },
            {
              "note": "C3",
              "pitch": 60,
              "beat": 2.0,
              "dur": 0.18,
              "vel": 127
            },
            {
              "note": "C3",
              "pitch": 60,
              "beat": 4.0,
              "dur": 0.18,
              "vel": 127
            },
            {
              "note": "C3",
              "pitch": 60,
              "beat": 4.834,
              "dur": 0.18,
              "vel": 127
            },
            {
              "note": "C3",
              "pitch": 60,
              "beat": 5.836,
              "dur": 0.136,
              "vel": 1
            },
            {
              "note": "C3",
              "pitch": 60,
              "beat": 6.0,
              "dur": 0.18,
              "vel": 127
            },
            {
              "note": "C3",
              "pitch": 60,
              "beat": 7.336,
              "dur": 0.18,
              "vel": 127
            }
          ]
        },
        {
          "bar_start": 57.0,
          "bar_end": 57.625,
          "name": "",
          "notes": [
            {
              "note": "C3",
              "pitch": 60,
              "beat": 0.0,
              "dur": 0.18,
              "vel": 127
            },
            {
              "note": "C3",
              "pitch": 60,
              "beat": 1.836,
              "dur": 0.135,
              "vel": 38
            },
            {
              "note": "C3",
              "pitch": 60,
              "beat": 2.0,
              "dur": 0.18,
              "vel": 127
            },
            {
              "note": "C3",
              "pitch": 60,
              "beat": 4.0,
              "dur": 0.18,
              "vel": 127
            },
            {
              "note": "C3",
              "pitch": 60,
              "beat": 4.834,
              "dur": 0.18,
              "vel": 127
            },
            {
              "note": "C3",
              "pitch": 60,
              "beat": 5.836,
              "dur": 0.136,
              "vel": 1
            },
            {
              "note": "C3",
              "pitch": 60,
              "beat": 6.0,
              "dur": 0.18,
              "vel": 127
            },
            {
              "note": "C3",
              "pitch": 60,
              "beat": 7.336,
              "dur": 0.18,
              "vel": 127
            }
          ]
        },
        {
          "bar_start": 57.625,
          "bar_end": 57.75,
          "name": "",
          "notes": [
            {
              "note": "C3",
              "pitch": 60,
              "beat": 0.0,
              "dur": 0.18,
              "vel": 127
            },
            {
              "note": "C3",
              "pitch": 60,
              "beat": 1.836,
              "dur": 0.135,
              "vel": 38
            },
            {
              "note": "C3",
              "pitch": 60,
              "beat": 2.0,
              "dur": 0.18,
              "vel": 127
            },
            {
              "note": "C3",
              "pitch": 60,
              "beat": 4.0,
              "dur": 0.18,
              "vel": 127
            },
            {
              "note": "C3",
              "pitch": 60,
              "beat": 4.834,
              "dur": 0.18,
              "vel": 127
            },
            {
              "note": "C3",
              "pitch": 60,
              "beat": 5.836,
              "dur": 0.136,
              "vel": 1
            },
            {
              "note": "C3",
              "pitch": 60,
              "beat": 6.0,
              "dur": 0.18,
              "vel": 127
            },
            {
              "note": "C3",
              "pitch": 60,
              "beat": 7.336,
              "dur": 0.18,
              "vel": 127
            }
          ]
        },
        {
          "bar_start": 57.75,
          "bar_end": 58.0,
          "name": "",
          "notes": [
            {
              "note": "C3",
              "pitch": 60,
              "beat": 0.0,
              "dur": 0.18,
              "vel": 127
            },
            {
              "note": "C3",
              "pitch": 60,
              "beat": 1.836,
              "dur": 0.135,
              "vel": 38
            },
            {
              "note": "C3",
              "pitch": 60,
              "beat": 2.0,
              "dur": 0.18,
              "vel": 127
            },
            {
              "note": "C3",
              "pitch": 60,
              "beat": 4.0,
              "dur": 0.18,
              "vel": 127
            },
            {
              "note": "C3",
              "pitch": 60,
              "beat": 4.834,
              "dur": 0.18,
              "vel": 127
            },
            {
              "note": "C3",
              "pitch": 60,
              "beat": 5.836,
              "dur": 0.136,
              "vel": 1
            },
            {
              "note": "C3",
              "pitch": 60,
              "beat": 6.0,
              "dur": 0.18,
              "vel": 127
            },
            {
              "note": "C3",
              "pitch": 60,
              "beat": 7.336,
              "dur": 0.18,
              "vel": 127
            }
          ]
        },
        {
          "bar_start": 58.0,
          "bar_end": 59.625,
          "name": "",
          "notes": [
            {
              "note": "C3",
              "pitch": 60,
              "beat": 0.0,
              "dur": 0.18,
              "vel": 127
            },
            {
              "note": "C3",
              "pitch": 60,
              "beat": 1.836,
              "dur": 0.135,
              "vel": 38
            },
            {
              "note": "C3",
              "pitch": 60,
              "beat": 2.0,
              "dur": 0.18,
              "vel": 127
            },
            {
              "note": "C3",
              "pitch": 60,
              "beat": 4.0,
              "dur": 0.18,
              "vel": 127
            },
            {
              "note": "C3",
              "pitch": 60,
              "beat": 4.834,
              "dur": 0.18,
              "vel": 127
            },
            {
              "note": "C3",
              "pitch": 60,
              "beat": 5.836,
              "dur": 0.136,
              "vel": 1
            },
            {
              "note": "C3",
              "pitch": 60,
              "beat": 6.0,
              "dur": 0.18,
              "vel": 127
            },
            {
              "note": "C3",
              "pitch": 60,
              "beat": 7.336,
              "dur": 0.18,
              "vel": 127
            }
          ]
        },
        {
          "bar_start": 59.625,
          "bar_end": 59.75,
          "name": "",
          "notes": [
            {
              "note": "C3",
              "pitch": 60,
              "beat": 0.0,
              "dur": 0.18,
              "vel": 127
            },
            {
              "note": "C3",
              "pitch": 60,
              "beat": 1.836,
              "dur": 0.135,
              "vel": 38
            },
            {
              "note": "C3",
              "pitch": 60,
              "beat": 2.0,
              "dur": 0.18,
              "vel": 127
            },
            {
              "note": "C3",
              "pitch": 60,
              "beat": 4.0,
              "dur": 0.18,
              "vel": 127
            },
            {
              "note": "C3",
              "pitch": 60,
              "beat": 4.834,
              "dur": 0.18,
              "vel": 127
            },
            {
              "note": "C3",
              "pitch": 60,
              "beat": 5.836,
              "dur": 0.136,
              "vel": 1
            },
            {
              "note": "C3",
              "pitch": 60,
              "beat": 6.0,
              "dur": 0.18,
              "vel": 127
            },
            {
              "note": "C3",
              "pitch": 60,
              "beat": 7.336,
              "dur": 0.18,
              "vel": 127
            }
          ]
        },
        {
          "bar_start": 59.75,
          "bar_end": 60.0,
          "name": "",
          "notes": [
            {
              "note": "C3",
              "pitch": 60,
              "beat": 0.0,
              "dur": 0.18,
              "vel": 127
            },
            {
              "note": "C3",
              "pitch": 60,
              "beat": 1.836,
              "dur": 0.135,
              "vel": 38
            },
            {
              "note": "C3",
              "pitch": 60,
              "beat": 2.0,
              "dur": 0.18,
              "vel": 127
            },
            {
              "note": "C3",
              "pitch": 60,
              "beat": 4.0,
              "dur": 0.18,
              "vel": 127
            },
            {
              "note": "C3",
              "pitch": 60,
              "beat": 4.834,
              "dur": 0.18,
              "vel": 127
            },
            {
              "note": "C3",
              "pitch": 60,
              "beat": 5.836,
              "dur": 0.136,
              "vel": 1
            },
            {
              "note": "C3",
              "pitch": 60,
              "beat": 6.0,
              "dur": 0.18,
              "vel": 127
            },
            {
              "note": "C3",
              "pitch": 60,
              "beat": 7.336,
              "dur": 0.18,
              "vel": 127
            }
          ]
        },
        {
          "bar_start": 60.0,
          "bar_end": 61.0,
          "name": "",
          "notes": [
            {
              "note": "C3",
              "pitch": 60,
              "beat": 0.0,
              "dur": 0.18,
              "vel": 127
            },
            {
              "note": "C3",
              "pitch": 60,
              "beat": 1.836,
              "dur": 0.135,
              "vel": 38
            },
            {
              "note": "C3",
              "pitch": 60,
              "beat": 2.0,
              "dur": 0.18,
              "vel": 127
            },
            {
              "note": "C3",
              "pitch": 60,
              "beat": 4.0,
              "dur": 0.18,
              "vel": 127
            },
            {
              "note": "C3",
              "pitch": 60,
              "beat": 4.834,
              "dur": 0.18,
              "vel": 127
            },
            {
              "note": "C3",
              "pitch": 60,
              "beat": 5.836,
              "dur": 0.136,
              "vel": 1
            },
            {
              "note": "C3",
              "pitch": 60,
              "beat": 6.0,
              "dur": 0.18,
              "vel": 127
            },
            {
              "note": "C3",
              "pitch": 60,
              "beat": 7.336,
              "dur": 0.18,
              "vel": 127
            }
          ]
        },
        {
          "bar_start": 61.0,
          "bar_end": 61.625,
          "name": "",
          "notes": [
            {
              "note": "C3",
              "pitch": 60,
              "beat": 0.0,
              "dur": 0.18,
              "vel": 127
            },
            {
              "note": "C3",
              "pitch": 60,
              "beat": 1.836,
              "dur": 0.135,
              "vel": 38
            },
            {
              "note": "C3",
              "pitch": 60,
              "beat": 2.0,
              "dur": 0.18,
              "vel": 127
            },
            {
              "note": "C3",
              "pitch": 60,
              "beat": 4.0,
              "dur": 0.18,
              "vel": 127
            },
            {
              "note": "C3",
              "pitch": 60,
              "beat": 4.834,
              "dur": 0.18,
              "vel": 127
            },
            {
              "note": "C3",
              "pitch": 60,
              "beat": 5.836,
              "dur": 0.136,
              "vel": 1
            },
            {
              "note": "C3",
              "pitch": 60,
              "beat": 6.0,
              "dur": 0.18,
              "vel": 127
            },
            {
              "note": "C3",
              "pitch": 60,
              "beat": 7.336,
              "dur": 0.18,
              "vel": 127
            }
          ]
        },
        {
          "bar_start": 61.625,
          "bar_end": 61.75,
          "name": "",
          "notes": [
            {
              "note": "C3",
              "pitch": 60,
              "beat": 0.0,
              "dur": 0.18,
              "vel": 127
            },
            {
              "note": "C3",
              "pitch": 60,
              "beat": 1.836,
              "dur": 0.135,
              "vel": 38
            },
            {
              "note": "C3",
              "pitch": 60,
              "beat": 2.0,
              "dur": 0.18,
              "vel": 127
            },
            {
              "note": "C3",
              "pitch": 60,
              "beat": 4.0,
              "dur": 0.18,
              "vel": 127
            },
            {
              "note": "C3",
              "pitch": 60,
              "beat": 4.834,
              "dur": 0.18,
              "vel": 127
            },
            {
              "note": "C3",
              "pitch": 60,
              "beat": 5.836,
              "dur": 0.136,
              "vel": 1
            },
            {
              "note": "C3",
              "pitch": 60,
              "beat": 6.0,
              "dur": 0.18,
              "vel": 127
            },
            {
              "note": "C3",
              "pitch": 60,
              "beat": 7.336,
              "dur": 0.18,
              "vel": 127
            }
          ]
        },
        {
          "bar_start": 61.75,
          "bar_end": 62.0,
          "name": "",
          "notes": [
            {
              "note": "C3",
              "pitch": 60,
              "beat": 0.0,
              "dur": 0.18,
              "vel": 127
            },
            {
              "note": "C3",
              "pitch": 60,
              "beat": 1.836,
              "dur": 0.135,
              "vel": 38
            },
            {
              "note": "C3",
              "pitch": 60,
              "beat": 2.0,
              "dur": 0.18,
              "vel": 127
            },
            {
              "note": "C3",
              "pitch": 60,
              "beat": 4.0,
              "dur": 0.18,
              "vel": 127
            },
            {
              "note": "C3",
              "pitch": 60,
              "beat": 4.834,
              "dur": 0.18,
              "vel": 127
            },
            {
              "note": "C3",
              "pitch": 60,
              "beat": 5.836,
              "dur": 0.136,
              "vel": 1
            },
            {
              "note": "C3",
              "pitch": 60,
              "beat": 6.0,
              "dur": 0.18,
              "vel": 127
            },
            {
              "note": "C3",
              "pitch": 60,
              "beat": 7.336,
              "dur": 0.18,
              "vel": 127
            }
          ]
        },
        {
          "bar_start": 62.0,
          "bar_end": 63.625,
          "name": "",
          "notes": [
            {
              "note": "C3",
              "pitch": 60,
              "beat": 0.0,
              "dur": 0.18,
              "vel": 127
            },
            {
              "note": "C3",
              "pitch": 60,
              "beat": 1.836,
              "dur": 0.135,
              "vel": 38
            },
            {
              "note": "C3",
              "pitch": 60,
              "beat": 2.0,
              "dur": 0.18,
              "vel": 127
            },
            {
              "note": "C3",
              "pitch": 60,
              "beat": 4.0,
              "dur": 0.18,
              "vel": 127
            },
            {
              "note": "C3",
              "pitch": 60,
              "beat": 4.834,
              "dur": 0.18,
              "vel": 127
            },
            {
              "note": "C3",
              "pitch": 60,
              "beat": 5.836,
              "dur": 0.136,
              "vel": 1
            },
            {
              "note": "C3",
              "pitch": 60,
              "beat": 6.0,
              "dur": 0.18,
              "vel": 127
            },
            {
              "note": "C3",
              "pitch": 60,
              "beat": 7.336,
              "dur": 0.18,
              "vel": 127
            }
          ]
        },
        {
          "bar_start": 63.625,
          "bar_end": 63.75,
          "name": "",
          "notes": [
            {
              "note": "C3",
              "pitch": 60,
              "beat": 0.0,
              "dur": 0.18,
              "vel": 127
            },
            {
              "note": "C3",
              "pitch": 60,
              "beat": 1.836,
              "dur": 0.135,
              "vel": 38
            },
            {
              "note": "C3",
              "pitch": 60,
              "beat": 2.0,
              "dur": 0.18,
              "vel": 127
            },
            {
              "note": "C3",
              "pitch": 60,
              "beat": 4.0,
              "dur": 0.18,
              "vel": 127
            },
            {
              "note": "C3",
              "pitch": 60,
              "beat": 4.834,
              "dur": 0.18,
              "vel": 127
            },
            {
              "note": "C3",
              "pitch": 60,
              "beat": 5.836,
              "dur": 0.136,
              "vel": 1
            },
            {
              "note": "C3",
              "pitch": 60,
              "beat": 6.0,
              "dur": 0.18,
              "vel": 127
            },
            {
              "note": "C3",
              "pitch": 60,
              "beat": 7.336,
              "dur": 0.18,
              "vel": 127
            }
          ]
        },
        {
          "bar_start": 63.75,
          "bar_end": 64.0,
          "name": "",
          "notes": [
            {
              "note": "C3",
              "pitch": 60,
              "beat": 0.0,
              "dur": 0.18,
              "vel": 127
            },
            {
              "note": "C3",
              "pitch": 60,
              "beat": 1.836,
              "dur": 0.135,
              "vel": 38
            },
            {
              "note": "C3",
              "pitch": 60,
              "beat": 2.0,
              "dur": 0.18,
              "vel": 127
            },
            {
              "note": "C3",
              "pitch": 60,
              "beat": 4.0,
              "dur": 0.18,
              "vel": 127
            },
            {
              "note": "C3",
              "pitch": 60,
              "beat": 4.834,
              "dur": 0.18,
              "vel": 127
            },
            {
              "note": "C3",
              "pitch": 60,
              "beat": 5.836,
              "dur": 0.136,
              "vel": 1
            },
            {
              "note": "C3",
              "pitch": 60,
              "beat": 6.0,
              "dur": 0.18,
              "vel": 127
            },
            {
              "note": "C3",
              "pitch": 60,
              "beat": 7.336,
              "dur": 0.18,
              "vel": 127
            }
          ]
        },
        {
          "bar_start": 64.0,
          "bar_end": 65.0,
          "name": "",
          "notes": [
            {
              "note": "C3",
              "pitch": 60,
              "beat": 0.0,
              "dur": 0.18,
              "vel": 127
            },
            {
              "note": "C3",
              "pitch": 60,
              "beat": 1.836,
              "dur": 0.135,
              "vel": 38
            },
            {
              "note": "C3",
              "pitch": 60,
              "beat": 2.0,
              "dur": 0.18,
              "vel": 127
            },
            {
              "note": "C3",
              "pitch": 60,
              "beat": 4.0,
              "dur": 0.18,
              "vel": 127
            },
            {
              "note": "C3",
              "pitch": 60,
              "beat": 4.834,
              "dur": 0.18,
              "vel": 127
            },
            {
              "note": "C3",
              "pitch": 60,
              "beat": 5.836,
              "dur": 0.136,
              "vel": 1
            },
            {
              "note": "C3",
              "pitch": 60,
              "beat": 6.0,
              "dur": 0.18,
              "vel": 127
            },
            {
              "note": "C3",
              "pitch": 60,
              "beat": 7.336,
              "dur": 0.18,
              "vel": 127
            }
          ]
        },
        {
          "bar_start": 65.0,
          "bar_end": 65.625,
          "name": "",
          "notes": [
            {
              "note": "C3",
              "pitch": 60,
              "beat": 0.0,
              "dur": 0.18,
              "vel": 127
            },
            {
              "note": "C3",
              "pitch": 60,
              "beat": 1.836,
              "dur": 0.135,
              "vel": 38
            },
            {
              "note": "C3",
              "pitch": 60,
              "beat": 2.0,
              "dur": 0.18,
              "vel": 127
            },
            {
              "note": "C3",
              "pitch": 60,
              "beat": 4.0,
              "dur": 0.18,
              "vel": 127
            },
            {
              "note": "C3",
              "pitch": 60,
              "beat": 4.834,
              "dur": 0.18,
              "vel": 127
            },
            {
              "note": "C3",
              "pitch": 60,
              "beat": 5.836,
              "dur": 0.136,
              "vel": 1
            },
            {
              "note": "C3",
              "pitch": 60,
              "beat": 6.0,
              "dur": 0.18,
              "vel": 127
            },
            {
              "note": "C3",
              "pitch": 60,
              "beat": 7.336,
              "dur": 0.18,
              "vel": 127
            }
          ]
        },
        {
          "bar_start": 65.625,
          "bar_end": 65.75,
          "name": "",
          "notes": [
            {
              "note": "C3",
              "pitch": 60,
              "beat": 0.0,
              "dur": 0.18,
              "vel": 127
            },
            {
              "note": "C3",
              "pitch": 60,
              "beat": 1.836,
              "dur": 0.135,
              "vel": 38
            },
            {
              "note": "C3",
              "pitch": 60,
              "beat": 2.0,
              "dur": 0.18,
              "vel": 127
            },
            {
              "note": "C3",
              "pitch": 60,
              "beat": 4.0,
              "dur": 0.18,
              "vel": 127
            },
            {
              "note": "C3",
              "pitch": 60,
              "beat": 4.834,
              "dur": 0.18,
              "vel": 127
            },
            {
              "note": "C3",
              "pitch": 60,
              "beat": 5.836,
              "dur": 0.136,
              "vel": 1
            },
            {
              "note": "C3",
              "pitch": 60,
              "beat": 6.0,
              "dur": 0.18,
              "vel": 127
            },
            {
              "note": "C3",
              "pitch": 60,
              "beat": 7.336,
              "dur": 0.18,
              "vel": 127
            }
          ]
        },
        {
          "bar_start": 65.75,
          "bar_end": 66.0,
          "name": "",
          "notes": [
            {
              "note": "C3",
              "pitch": 60,
              "beat": 0.0,
              "dur": 0.18,
              "vel": 127
            },
            {
              "note": "C3",
              "pitch": 60,
              "beat": 1.836,
              "dur": 0.135,
              "vel": 38
            },
            {
              "note": "C3",
              "pitch": 60,
              "beat": 2.0,
              "dur": 0.18,
              "vel": 127
            },
            {
              "note": "C3",
              "pitch": 60,
              "beat": 4.0,
              "dur": 0.18,
              "vel": 127
            },
            {
              "note": "C3",
              "pitch": 60,
              "beat": 4.834,
              "dur": 0.18,
              "vel": 127
            },
            {
              "note": "C3",
              "pitch": 60,
              "beat": 5.836,
              "dur": 0.136,
              "vel": 1
            },
            {
              "note": "C3",
              "pitch": 60,
              "beat": 6.0,
              "dur": 0.18,
              "vel": 127
            },
            {
              "note": "C3",
              "pitch": 60,
              "beat": 7.336,
              "dur": 0.18,
              "vel": 127
            }
          ]
        },
        {
          "bar_start": 66.0,
          "bar_end": 66.25,
          "name": "",
          "notes": [
            {
              "note": "C3",
              "pitch": 60,
              "beat": 0.0,
              "dur": 0.18,
              "vel": 127
            },
            {
              "note": "C3",
              "pitch": 60,
              "beat": 1.836,
              "dur": 0.135,
              "vel": 38
            },
            {
              "note": "C3",
              "pitch": 60,
              "beat": 2.0,
              "dur": 0.18,
              "vel": 127
            },
            {
              "note": "C3",
              "pitch": 60,
              "beat": 4.0,
              "dur": 0.18,
              "vel": 127
            },
            {
              "note": "C3",
              "pitch": 60,
              "beat": 4.834,
              "dur": 0.18,
              "vel": 127
            },
            {
              "note": "C3",
              "pitch": 60,
              "beat": 5.836,
              "dur": 0.136,
              "vel": 1
            },
            {
              "note": "C3",
              "pitch": 60,
              "beat": 6.0,
              "dur": 0.18,
              "vel": 127
            },
            {
              "note": "C3",
              "pitch": 60,
              "beat": 7.336,
              "dur": 0.18,
              "vel": 127
            }
          ]
        },
        {
          "bar_start": 66.75,
          "bar_end": 67.625,
          "name": "",
          "notes": [
            {
              "note": "C3",
              "pitch": 60,
              "beat": 0.0,
              "dur": 0.18,
              "vel": 127
            },
            {
              "note": "C3",
              "pitch": 60,
              "beat": 1.836,
              "dur": 0.135,
              "vel": 38
            },
            {
              "note": "C3",
              "pitch": 60,
              "beat": 2.0,
              "dur": 0.18,
              "vel": 127
            },
            {
              "note": "C3",
              "pitch": 60,
              "beat": 4.0,
              "dur": 0.18,
              "vel": 127
            },
            {
              "note": "C3",
              "pitch": 60,
              "beat": 4.834,
              "dur": 0.18,
              "vel": 127
            },
            {
              "note": "C3",
              "pitch": 60,
              "beat": 5.836,
              "dur": 0.136,
              "vel": 1
            },
            {
              "note": "C3",
              "pitch": 60,
              "beat": 6.0,
              "dur": 0.18,
              "vel": 127
            },
            {
              "note": "C3",
              "pitch": 60,
              "beat": 7.336,
              "dur": 0.18,
              "vel": 127
            }
          ]
        },
        {
          "bar_start": 67.625,
          "bar_end": 67.75,
          "name": "",
          "notes": [
            {
              "note": "C3",
              "pitch": 60,
              "beat": 0.0,
              "dur": 0.18,
              "vel": 127
            },
            {
              "note": "C3",
              "pitch": 60,
              "beat": 1.836,
              "dur": 0.135,
              "vel": 38
            },
            {
              "note": "C3",
              "pitch": 60,
              "beat": 2.0,
              "dur": 0.18,
              "vel": 127
            },
            {
              "note": "C3",
              "pitch": 60,
              "beat": 4.0,
              "dur": 0.18,
              "vel": 127
            },
            {
              "note": "C3",
              "pitch": 60,
              "beat": 4.834,
              "dur": 0.18,
              "vel": 127
            },
            {
              "note": "C3",
              "pitch": 60,
              "beat": 5.836,
              "dur": 0.136,
              "vel": 1
            },
            {
              "note": "C3",
              "pitch": 60,
              "beat": 6.0,
              "dur": 0.18,
              "vel": 127
            },
            {
              "note": "C3",
              "pitch": 60,
              "beat": 7.336,
              "dur": 0.18,
              "vel": 127
            }
          ]
        },
        {
          "bar_start": 67.75,
          "bar_end": 68.0,
          "name": "",
          "notes": [
            {
              "note": "C3",
              "pitch": 60,
              "beat": 0.0,
              "dur": 0.18,
              "vel": 127
            },
            {
              "note": "C3",
              "pitch": 60,
              "beat": 1.836,
              "dur": 0.135,
              "vel": 38
            },
            {
              "note": "C3",
              "pitch": 60,
              "beat": 2.0,
              "dur": 0.18,
              "vel": 127
            },
            {
              "note": "C3",
              "pitch": 60,
              "beat": 4.0,
              "dur": 0.18,
              "vel": 127
            },
            {
              "note": "C3",
              "pitch": 60,
              "beat": 4.834,
              "dur": 0.18,
              "vel": 127
            },
            {
              "note": "C3",
              "pitch": 60,
              "beat": 5.836,
              "dur": 0.136,
              "vel": 1
            },
            {
              "note": "C3",
              "pitch": 60,
              "beat": 6.0,
              "dur": 0.18,
              "vel": 127
            },
            {
              "note": "C3",
              "pitch": 60,
              "beat": 7.336,
              "dur": 0.18,
              "vel": 127
            }
          ]
        },
        {
          "bar_start": 68.0,
          "bar_end": 69.0,
          "name": "",
          "notes": [
            {
              "note": "C3",
              "pitch": 60,
              "beat": 0.0,
              "dur": 0.18,
              "vel": 127
            },
            {
              "note": "C3",
              "pitch": 60,
              "beat": 1.836,
              "dur": 0.135,
              "vel": 38
            },
            {
              "note": "C3",
              "pitch": 60,
              "beat": 2.0,
              "dur": 0.18,
              "vel": 127
            },
            {
              "note": "C3",
              "pitch": 60,
              "beat": 4.0,
              "dur": 0.18,
              "vel": 127
            },
            {
              "note": "C3",
              "pitch": 60,
              "beat": 4.834,
              "dur": 0.18,
              "vel": 127
            },
            {
              "note": "C3",
              "pitch": 60,
              "beat": 5.836,
              "dur": 0.136,
              "vel": 1
            },
            {
              "note": "C3",
              "pitch": 60,
              "beat": 6.0,
              "dur": 0.18,
              "vel": 127
            },
            {
              "note": "C3",
              "pitch": 60,
              "beat": 7.336,
              "dur": 0.18,
              "vel": 127
            }
          ]
        },
        {
          "bar_start": 69.0,
          "bar_end": 69.625,
          "name": "",
          "notes": [
            {
              "note": "C3",
              "pitch": 60,
              "beat": 0.0,
              "dur": 0.18,
              "vel": 127
            },
            {
              "note": "C3",
              "pitch": 60,
              "beat": 1.836,
              "dur": 0.135,
              "vel": 38
            },
            {
              "note": "C3",
              "pitch": 60,
              "beat": 2.0,
              "dur": 0.18,
              "vel": 127
            },
            {
              "note": "C3",
              "pitch": 60,
              "beat": 4.0,
              "dur": 0.18,
              "vel": 127
            },
            {
              "note": "C3",
              "pitch": 60,
              "beat": 4.834,
              "dur": 0.18,
              "vel": 127
            },
            {
              "note": "C3",
              "pitch": 60,
              "beat": 5.836,
              "dur": 0.136,
              "vel": 1
            },
            {
              "note": "C3",
              "pitch": 60,
              "beat": 6.0,
              "dur": 0.18,
              "vel": 127
            },
            {
              "note": "C3",
              "pitch": 60,
              "beat": 7.336,
              "dur": 0.18,
              "vel": 127
            }
          ]
        },
        {
          "bar_start": 69.625,
          "bar_end": 69.75,
          "name": "",
          "notes": [
            {
              "note": "C3",
              "pitch": 60,
              "beat": 0.0,
              "dur": 0.18,
              "vel": 127
            },
            {
              "note": "C3",
              "pitch": 60,
              "beat": 1.836,
              "dur": 0.135,
              "vel": 38
            },
            {
              "note": "C3",
              "pitch": 60,
              "beat": 2.0,
              "dur": 0.18,
              "vel": 127
            },
            {
              "note": "C3",
              "pitch": 60,
              "beat": 4.0,
              "dur": 0.18,
              "vel": 127
            },
            {
              "note": "C3",
              "pitch": 60,
              "beat": 4.834,
              "dur": 0.18,
              "vel": 127
            },
            {
              "note": "C3",
              "pitch": 60,
              "beat": 5.836,
              "dur": 0.136,
              "vel": 1
            },
            {
              "note": "C3",
              "pitch": 60,
              "beat": 6.0,
              "dur": 0.18,
              "vel": 127
            },
            {
              "note": "C3",
              "pitch": 60,
              "beat": 7.336,
              "dur": 0.18,
              "vel": 127
            }
          ]
        },
        {
          "bar_start": 69.75,
          "bar_end": 70.0,
          "name": "",
          "notes": [
            {
              "note": "C3",
              "pitch": 60,
              "beat": 0.0,
              "dur": 0.18,
              "vel": 127
            },
            {
              "note": "C3",
              "pitch": 60,
              "beat": 1.836,
              "dur": 0.135,
              "vel": 38
            },
            {
              "note": "C3",
              "pitch": 60,
              "beat": 2.0,
              "dur": 0.18,
              "vel": 127
            },
            {
              "note": "C3",
              "pitch": 60,
              "beat": 4.0,
              "dur": 0.18,
              "vel": 127
            },
            {
              "note": "C3",
              "pitch": 60,
              "beat": 4.834,
              "dur": 0.18,
              "vel": 127
            },
            {
              "note": "C3",
              "pitch": 60,
              "beat": 5.836,
              "dur": 0.136,
              "vel": 1
            },
            {
              "note": "C3",
              "pitch": 60,
              "beat": 6.0,
              "dur": 0.18,
              "vel": 127
            },
            {
              "note": "C3",
              "pitch": 60,
              "beat": 7.336,
              "dur": 0.18,
              "vel": 127
            }
          ]
        },
        {
          "bar_start": 70.0,
          "bar_end": 70.375,
          "name": "",
          "notes": [
            {
              "note": "C3",
              "pitch": 60,
              "beat": 0.0,
              "dur": 0.18,
              "vel": 127
            },
            {
              "note": "C3",
              "pitch": 60,
              "beat": 1.836,
              "dur": 0.135,
              "vel": 38
            },
            {
              "note": "C3",
              "pitch": 60,
              "beat": 2.0,
              "dur": 0.18,
              "vel": 127
            },
            {
              "note": "C3",
              "pitch": 60,
              "beat": 4.0,
              "dur": 0.18,
              "vel": 127
            },
            {
              "note": "C3",
              "pitch": 60,
              "beat": 4.834,
              "dur": 0.18,
              "vel": 127
            },
            {
              "note": "C3",
              "pitch": 60,
              "beat": 5.836,
              "dur": 0.136,
              "vel": 1
            },
            {
              "note": "C3",
              "pitch": 60,
              "beat": 6.0,
              "dur": 0.18,
              "vel": 127
            },
            {
              "note": "C3",
              "pitch": 60,
              "beat": 7.336,
              "dur": 0.18,
              "vel": 127
            }
          ]
        },
        {
          "bar_start": 70.625,
          "bar_end": 71.625,
          "name": "",
          "notes": [
            {
              "note": "C3",
              "pitch": 60,
              "beat": 0.0,
              "dur": 0.18,
              "vel": 127
            },
            {
              "note": "C3",
              "pitch": 60,
              "beat": 1.836,
              "dur": 0.135,
              "vel": 38
            },
            {
              "note": "C3",
              "pitch": 60,
              "beat": 2.0,
              "dur": 0.18,
              "vel": 127
            },
            {
              "note": "C3",
              "pitch": 60,
              "beat": 4.0,
              "dur": 0.18,
              "vel": 127
            },
            {
              "note": "C3",
              "pitch": 60,
              "beat": 4.834,
              "dur": 0.18,
              "vel": 127
            },
            {
              "note": "C3",
              "pitch": 60,
              "beat": 5.836,
              "dur": 0.136,
              "vel": 1
            },
            {
              "note": "C3",
              "pitch": 60,
              "beat": 6.0,
              "dur": 0.18,
              "vel": 127
            },
            {
              "note": "C3",
              "pitch": 60,
              "beat": 7.336,
              "dur": 0.18,
              "vel": 127
            }
          ]
        },
        {
          "bar_start": 71.625,
          "bar_end": 71.75,
          "name": "",
          "notes": [
            {
              "note": "C3",
              "pitch": 60,
              "beat": 0.0,
              "dur": 0.18,
              "vel": 127
            },
            {
              "note": "C3",
              "pitch": 60,
              "beat": 1.836,
              "dur": 0.135,
              "vel": 38
            },
            {
              "note": "C3",
              "pitch": 60,
              "beat": 2.0,
              "dur": 0.18,
              "vel": 127
            },
            {
              "note": "C3",
              "pitch": 60,
              "beat": 4.0,
              "dur": 0.18,
              "vel": 127
            },
            {
              "note": "C3",
              "pitch": 60,
              "beat": 4.834,
              "dur": 0.18,
              "vel": 127
            },
            {
              "note": "C3",
              "pitch": 60,
              "beat": 5.836,
              "dur": 0.136,
              "vel": 1
            },
            {
              "note": "C3",
              "pitch": 60,
              "beat": 6.0,
              "dur": 0.18,
              "vel": 127
            },
            {
              "note": "C3",
              "pitch": 60,
              "beat": 7.336,
              "dur": 0.18,
              "vel": 127
            }
          ]
        },
        {
          "bar_start": 71.75,
          "bar_end": 72.0,
          "name": "",
          "notes": [
            {
              "note": "C3",
              "pitch": 60,
              "beat": 0.0,
              "dur": 0.18,
              "vel": 127
            },
            {
              "note": "C3",
              "pitch": 60,
              "beat": 1.836,
              "dur": 0.135,
              "vel": 38
            },
            {
              "note": "C3",
              "pitch": 60,
              "beat": 2.0,
              "dur": 0.18,
              "vel": 127
            },
            {
              "note": "C3",
              "pitch": 60,
              "beat": 4.0,
              "dur": 0.18,
              "vel": 127
            },
            {
              "note": "C3",
              "pitch": 60,
              "beat": 4.834,
              "dur": 0.18,
              "vel": 127
            },
            {
              "note": "C3",
              "pitch": 60,
              "beat": 5.836,
              "dur": 0.136,
              "vel": 1
            },
            {
              "note": "C3",
              "pitch": 60,
              "beat": 6.0,
              "dur": 0.18,
              "vel": 127
            },
            {
              "note": "C3",
              "pitch": 60,
              "beat": 7.336,
              "dur": 0.18,
              "vel": 127
            }
          ]
        },
        {
          "bar_start": 72.0,
          "bar_end": 73.0,
          "name": "",
          "notes": [
            {
              "note": "C3",
              "pitch": 60,
              "beat": 0.0,
              "dur": 0.18,
              "vel": 127
            },
            {
              "note": "C3",
              "pitch": 60,
              "beat": 1.836,
              "dur": 0.135,
              "vel": 38
            },
            {
              "note": "C3",
              "pitch": 60,
              "beat": 2.0,
              "dur": 0.18,
              "vel": 127
            },
            {
              "note": "C3",
              "pitch": 60,
              "beat": 4.0,
              "dur": 0.18,
              "vel": 127
            },
            {
              "note": "C3",
              "pitch": 60,
              "beat": 4.834,
              "dur": 0.18,
              "vel": 127
            },
            {
              "note": "C3",
              "pitch": 60,
              "beat": 5.836,
              "dur": 0.136,
              "vel": 1
            },
            {
              "note": "C3",
              "pitch": 60,
              "beat": 6.0,
              "dur": 0.18,
              "vel": 127
            },
            {
              "note": "C3",
              "pitch": 60,
              "beat": 7.336,
              "dur": 0.18,
              "vel": 127
            }
          ]
        },
        {
          "bar_start": 73.0,
          "bar_end": 73.625,
          "name": "",
          "notes": [
            {
              "note": "C3",
              "pitch": 60,
              "beat": 0.0,
              "dur": 0.18,
              "vel": 127
            },
            {
              "note": "C3",
              "pitch": 60,
              "beat": 1.836,
              "dur": 0.135,
              "vel": 38
            },
            {
              "note": "C3",
              "pitch": 60,
              "beat": 2.0,
              "dur": 0.18,
              "vel": 127
            },
            {
              "note": "C3",
              "pitch": 60,
              "beat": 4.0,
              "dur": 0.18,
              "vel": 127
            },
            {
              "note": "C3",
              "pitch": 60,
              "beat": 4.834,
              "dur": 0.18,
              "vel": 127
            },
            {
              "note": "C3",
              "pitch": 60,
              "beat": 5.836,
              "dur": 0.136,
              "vel": 1
            },
            {
              "note": "C3",
              "pitch": 60,
              "beat": 6.0,
              "dur": 0.18,
              "vel": 127
            },
            {
              "note": "C3",
              "pitch": 60,
              "beat": 7.336,
              "dur": 0.18,
              "vel": 127
            }
          ]
        },
        {
          "bar_start": 73.625,
          "bar_end": 73.75,
          "name": "",
          "notes": [
            {
              "note": "C3",
              "pitch": 60,
              "beat": 0.0,
              "dur": 0.18,
              "vel": 127
            },
            {
              "note": "C3",
              "pitch": 60,
              "beat": 1.836,
              "dur": 0.135,
              "vel": 38
            },
            {
              "note": "C3",
              "pitch": 60,
              "beat": 2.0,
              "dur": 0.18,
              "vel": 127
            },
            {
              "note": "C3",
              "pitch": 60,
              "beat": 4.0,
              "dur": 0.18,
              "vel": 127
            },
            {
              "note": "C3",
              "pitch": 60,
              "beat": 4.834,
              "dur": 0.18,
              "vel": 127
            },
            {
              "note": "C3",
              "pitch": 60,
              "beat": 5.836,
              "dur": 0.136,
              "vel": 1
            },
            {
              "note": "C3",
              "pitch": 60,
              "beat": 6.0,
              "dur": 0.18,
              "vel": 127
            },
            {
              "note": "C3",
              "pitch": 60,
              "beat": 7.336,
              "dur": 0.18,
              "vel": 127
            }
          ]
        },
        {
          "bar_start": 73.75,
          "bar_end": 74.0,
          "name": "",
          "notes": [
            {
              "note": "C3",
              "pitch": 60,
              "beat": 0.0,
              "dur": 0.18,
              "vel": 127
            },
            {
              "note": "C3",
              "pitch": 60,
              "beat": 1.836,
              "dur": 0.135,
              "vel": 38
            },
            {
              "note": "C3",
              "pitch": 60,
              "beat": 2.0,
              "dur": 0.18,
              "vel": 127
            },
            {
              "note": "C3",
              "pitch": 60,
              "beat": 4.0,
              "dur": 0.18,
              "vel": 127
            },
            {
              "note": "C3",
              "pitch": 60,
              "beat": 4.834,
              "dur": 0.18,
              "vel": 127
            },
            {
              "note": "C3",
              "pitch": 60,
              "beat": 5.836,
              "dur": 0.136,
              "vel": 1
            },
            {
              "note": "C3",
              "pitch": 60,
              "beat": 6.0,
              "dur": 0.18,
              "vel": 127
            },
            {
              "note": "C3",
              "pitch": 60,
              "beat": 7.336,
              "dur": 0.18,
              "vel": 127
            }
          ]
        },
        {
          "bar_start": 74.0,
          "bar_end": 75.625,
          "name": "",
          "notes": [
            {
              "note": "C3",
              "pitch": 60,
              "beat": 0.0,
              "dur": 0.18,
              "vel": 127
            },
            {
              "note": "C3",
              "pitch": 60,
              "beat": 1.836,
              "dur": 0.135,
              "vel": 38
            },
            {
              "note": "C3",
              "pitch": 60,
              "beat": 2.0,
              "dur": 0.18,
              "vel": 127
            },
            {
              "note": "C3",
              "pitch": 60,
              "beat": 4.0,
              "dur": 0.18,
              "vel": 127
            },
            {
              "note": "C3",
              "pitch": 60,
              "beat": 4.834,
              "dur": 0.18,
              "vel": 127
            },
            {
              "note": "C3",
              "pitch": 60,
              "beat": 5.836,
              "dur": 0.136,
              "vel": 1
            },
            {
              "note": "C3",
              "pitch": 60,
              "beat": 6.0,
              "dur": 0.18,
              "vel": 127
            },
            {
              "note": "C3",
              "pitch": 60,
              "beat": 7.336,
              "dur": 0.18,
              "vel": 127
            }
          ]
        },
        {
          "bar_start": 75.625,
          "bar_end": 75.75,
          "name": "",
          "notes": [
            {
              "note": "C3",
              "pitch": 60,
              "beat": 0.0,
              "dur": 0.18,
              "vel": 127
            },
            {
              "note": "C3",
              "pitch": 60,
              "beat": 1.836,
              "dur": 0.135,
              "vel": 38
            },
            {
              "note": "C3",
              "pitch": 60,
              "beat": 2.0,
              "dur": 0.18,
              "vel": 127
            },
            {
              "note": "C3",
              "pitch": 60,
              "beat": 4.0,
              "dur": 0.18,
              "vel": 127
            },
            {
              "note": "C3",
              "pitch": 60,
              "beat": 4.834,
              "dur": 0.18,
              "vel": 127
            },
            {
              "note": "C3",
              "pitch": 60,
              "beat": 5.836,
              "dur": 0.136,
              "vel": 1
            },
            {
              "note": "C3",
              "pitch": 60,
              "beat": 6.0,
              "dur": 0.18,
              "vel": 127
            },
            {
              "note": "C3",
              "pitch": 60,
              "beat": 7.336,
              "dur": 0.18,
              "vel": 127
            }
          ]
        },
        {
          "bar_start": 75.75,
          "bar_end": 76.0,
          "name": "",
          "notes": [
            {
              "note": "C3",
              "pitch": 60,
              "beat": 0.0,
              "dur": 0.18,
              "vel": 127
            },
            {
              "note": "C3",
              "pitch": 60,
              "beat": 1.836,
              "dur": 0.135,
              "vel": 38
            },
            {
              "note": "C3",
              "pitch": 60,
              "beat": 2.0,
              "dur": 0.18,
              "vel": 127
            },
            {
              "note": "C3",
              "pitch": 60,
              "beat": 4.0,
              "dur": 0.18,
              "vel": 127
            },
            {
              "note": "C3",
              "pitch": 60,
              "beat": 4.834,
              "dur": 0.18,
              "vel": 127
            },
            {
              "note": "C3",
              "pitch": 60,
              "beat": 5.836,
              "dur": 0.136,
              "vel": 1
            },
            {
              "note": "C3",
              "pitch": 60,
              "beat": 6.0,
              "dur": 0.18,
              "vel": 127
            },
            {
              "note": "C3",
              "pitch": 60,
              "beat": 7.336,
              "dur": 0.18,
              "vel": 127
            }
          ]
        },
        {
          "bar_start": 76.0,
          "bar_end": 77.0,
          "name": "",
          "notes": [
            {
              "note": "C3",
              "pitch": 60,
              "beat": 0.0,
              "dur": 0.18,
              "vel": 127
            },
            {
              "note": "C3",
              "pitch": 60,
              "beat": 1.836,
              "dur": 0.135,
              "vel": 38
            },
            {
              "note": "C3",
              "pitch": 60,
              "beat": 2.0,
              "dur": 0.18,
              "vel": 127
            },
            {
              "note": "C3",
              "pitch": 60,
              "beat": 4.0,
              "dur": 0.18,
              "vel": 127
            },
            {
              "note": "C3",
              "pitch": 60,
              "beat": 4.834,
              "dur": 0.18,
              "vel": 127
            },
            {
              "note": "C3",
              "pitch": 60,
              "beat": 5.836,
              "dur": 0.136,
              "vel": 1
            },
            {
              "note": "C3",
              "pitch": 60,
              "beat": 6.0,
              "dur": 0.18,
              "vel": 127
            },
            {
              "note": "C3",
              "pitch": 60,
              "beat": 7.336,
              "dur": 0.18,
              "vel": 127
            }
          ]
        },
        {
          "bar_start": 77.0,
          "bar_end": 77.625,
          "name": "",
          "notes": [
            {
              "note": "C3",
              "pitch": 60,
              "beat": 0.0,
              "dur": 0.18,
              "vel": 127
            },
            {
              "note": "C3",
              "pitch": 60,
              "beat": 1.836,
              "dur": 0.135,
              "vel": 38
            },
            {
              "note": "C3",
              "pitch": 60,
              "beat": 2.0,
              "dur": 0.18,
              "vel": 127
            },
            {
              "note": "C3",
              "pitch": 60,
              "beat": 4.0,
              "dur": 0.18,
              "vel": 127
            },
            {
              "note": "C3",
              "pitch": 60,
              "beat": 4.834,
              "dur": 0.18,
              "vel": 127
            },
            {
              "note": "C3",
              "pitch": 60,
              "beat": 5.836,
              "dur": 0.136,
              "vel": 1
            },
            {
              "note": "C3",
              "pitch": 60,
              "beat": 6.0,
              "dur": 0.18,
              "vel": 127
            },
            {
              "note": "C3",
              "pitch": 60,
              "beat": 7.336,
              "dur": 0.18,
              "vel": 127
            }
          ]
        },
        {
          "bar_start": 77.625,
          "bar_end": 77.75,
          "name": "",
          "notes": [
            {
              "note": "C3",
              "pitch": 60,
              "beat": 0.0,
              "dur": 0.18,
              "vel": 127
            },
            {
              "note": "C3",
              "pitch": 60,
              "beat": 1.836,
              "dur": 0.135,
              "vel": 38
            },
            {
              "note": "C3",
              "pitch": 60,
              "beat": 2.0,
              "dur": 0.18,
              "vel": 127
            },
            {
              "note": "C3",
              "pitch": 60,
              "beat": 4.0,
              "dur": 0.18,
              "vel": 127
            },
            {
              "note": "C3",
              "pitch": 60,
              "beat": 4.834,
              "dur": 0.18,
              "vel": 127
            },
            {
              "note": "C3",
              "pitch": 60,
              "beat": 5.836,
              "dur": 0.136,
              "vel": 1
            },
            {
              "note": "C3",
              "pitch": 60,
              "beat": 6.0,
              "dur": 0.18,
              "vel": 127
            },
            {
              "note": "C3",
              "pitch": 60,
              "beat": 7.336,
              "dur": 0.18,
              "vel": 127
            }
          ]
        },
        {
          "bar_start": 77.75,
          "bar_end": 78.0,
          "name": "",
          "notes": [
            {
              "note": "C3",
              "pitch": 60,
              "beat": 0.0,
              "dur": 0.18,
              "vel": 127
            },
            {
              "note": "C3",
              "pitch": 60,
              "beat": 1.836,
              "dur": 0.135,
              "vel": 38
            },
            {
              "note": "C3",
              "pitch": 60,
              "beat": 2.0,
              "dur": 0.18,
              "vel": 127
            },
            {
              "note": "C3",
              "pitch": 60,
              "beat": 4.0,
              "dur": 0.18,
              "vel": 127
            },
            {
              "note": "C3",
              "pitch": 60,
              "beat": 4.834,
              "dur": 0.18,
              "vel": 127
            },
            {
              "note": "C3",
              "pitch": 60,
              "beat": 5.836,
              "dur": 0.136,
              "vel": 1
            },
            {
              "note": "C3",
              "pitch": 60,
              "beat": 6.0,
              "dur": 0.18,
              "vel": 127
            },
            {
              "note": "C3",
              "pitch": 60,
              "beat": 7.336,
              "dur": 0.18,
              "vel": 127
            }
          ]
        },
        {
          "bar_start": 79.625,
          "bar_end": 79.75,
          "name": "",
          "notes": [
            {
              "note": "C3",
              "pitch": 60,
              "beat": 0.0,
              "dur": 0.18,
              "vel": 127
            },
            {
              "note": "C3",
              "pitch": 60,
              "beat": 1.836,
              "dur": 0.135,
              "vel": 38
            },
            {
              "note": "C3",
              "pitch": 60,
              "beat": 2.0,
              "dur": 0.18,
              "vel": 127
            },
            {
              "note": "C3",
              "pitch": 60,
              "beat": 4.0,
              "dur": 0.18,
              "vel": 127
            },
            {
              "note": "C3",
              "pitch": 60,
              "beat": 4.834,
              "dur": 0.18,
              "vel": 127
            },
            {
              "note": "C3",
              "pitch": 60,
              "beat": 5.836,
              "dur": 0.136,
              "vel": 1
            },
            {
              "note": "C3",
              "pitch": 60,
              "beat": 6.0,
              "dur": 0.18,
              "vel": 127
            },
            {
              "note": "C3",
              "pitch": 60,
              "beat": 7.336,
              "dur": 0.18,
              "vel": 127
            }
          ]
        },
        {
          "bar_start": 79.75,
          "bar_end": 80.0,
          "name": "",
          "notes": [
            {
              "note": "C3",
              "pitch": 60,
              "beat": 0.0,
              "dur": 0.18,
              "vel": 127
            },
            {
              "note": "C3",
              "pitch": 60,
              "beat": 1.836,
              "dur": 0.135,
              "vel": 38
            },
            {
              "note": "C3",
              "pitch": 60,
              "beat": 2.0,
              "dur": 0.18,
              "vel": 127
            },
            {
              "note": "C3",
              "pitch": 60,
              "beat": 4.0,
              "dur": 0.18,
              "vel": 127
            },
            {
              "note": "C3",
              "pitch": 60,
              "beat": 4.834,
              "dur": 0.18,
              "vel": 127
            },
            {
              "note": "C3",
              "pitch": 60,
              "beat": 5.836,
              "dur": 0.136,
              "vel": 1
            },
            {
              "note": "C3",
              "pitch": 60,
              "beat": 6.0,
              "dur": 0.18,
              "vel": 127
            },
            {
              "note": "C3",
              "pitch": 60,
              "beat": 7.336,
              "dur": 0.18,
              "vel": 127
            }
          ]
        },
        {
          "bar_start": 80.0,
          "bar_end": 81.0,
          "name": "",
          "notes": [
            {
              "note": "C3",
              "pitch": 60,
              "beat": 0.0,
              "dur": 0.18,
              "vel": 127
            },
            {
              "note": "C3",
              "pitch": 60,
              "beat": 1.836,
              "dur": 0.135,
              "vel": 38
            },
            {
              "note": "C3",
              "pitch": 60,
              "beat": 2.0,
              "dur": 0.18,
              "vel": 127
            },
            {
              "note": "C3",
              "pitch": 60,
              "beat": 4.0,
              "dur": 0.18,
              "vel": 127
            },
            {
              "note": "C3",
              "pitch": 60,
              "beat": 4.834,
              "dur": 0.18,
              "vel": 127
            },
            {
              "note": "C3",
              "pitch": 60,
              "beat": 5.836,
              "dur": 0.136,
              "vel": 1
            },
            {
              "note": "C3",
              "pitch": 60,
              "beat": 6.0,
              "dur": 0.18,
              "vel": 127
            },
            {
              "note": "C3",
              "pitch": 60,
              "beat": 7.336,
              "dur": 0.18,
              "vel": 127
            }
          ]
        },
        {
          "bar_start": 81.0,
          "bar_end": 81.625,
          "name": "",
          "notes": [
            {
              "note": "C3",
              "pitch": 60,
              "beat": 0.0,
              "dur": 0.18,
              "vel": 127
            },
            {
              "note": "C3",
              "pitch": 60,
              "beat": 1.836,
              "dur": 0.135,
              "vel": 38
            },
            {
              "note": "C3",
              "pitch": 60,
              "beat": 2.0,
              "dur": 0.18,
              "vel": 127
            },
            {
              "note": "C3",
              "pitch": 60,
              "beat": 4.0,
              "dur": 0.18,
              "vel": 127
            },
            {
              "note": "C3",
              "pitch": 60,
              "beat": 4.834,
              "dur": 0.18,
              "vel": 127
            },
            {
              "note": "C3",
              "pitch": 60,
              "beat": 5.836,
              "dur": 0.136,
              "vel": 1
            },
            {
              "note": "C3",
              "pitch": 60,
              "beat": 6.0,
              "dur": 0.18,
              "vel": 127
            },
            {
              "note": "C3",
              "pitch": 60,
              "beat": 7.336,
              "dur": 0.18,
              "vel": 127
            }
          ]
        },
        {
          "bar_start": 81.625,
          "bar_end": 81.75,
          "name": "",
          "notes": [
            {
              "note": "C3",
              "pitch": 60,
              "beat": 0.0,
              "dur": 0.18,
              "vel": 127
            },
            {
              "note": "C3",
              "pitch": 60,
              "beat": 1.836,
              "dur": 0.135,
              "vel": 38
            },
            {
              "note": "C3",
              "pitch": 60,
              "beat": 2.0,
              "dur": 0.18,
              "vel": 127
            },
            {
              "note": "C3",
              "pitch": 60,
              "beat": 4.0,
              "dur": 0.18,
              "vel": 127
            },
            {
              "note": "C3",
              "pitch": 60,
              "beat": 4.834,
              "dur": 0.18,
              "vel": 127
            },
            {
              "note": "C3",
              "pitch": 60,
              "beat": 5.836,
              "dur": 0.136,
              "vel": 1
            },
            {
              "note": "C3",
              "pitch": 60,
              "beat": 6.0,
              "dur": 0.18,
              "vel": 127
            },
            {
              "note": "C3",
              "pitch": 60,
              "beat": 7.336,
              "dur": 0.18,
              "vel": 127
            }
          ]
        },
        {
          "bar_start": 81.75,
          "bar_end": 82.0,
          "name": "",
          "notes": [
            {
              "note": "C3",
              "pitch": 60,
              "beat": 0.0,
              "dur": 0.18,
              "vel": 127
            },
            {
              "note": "C3",
              "pitch": 60,
              "beat": 1.836,
              "dur": 0.135,
              "vel": 38
            },
            {
              "note": "C3",
              "pitch": 60,
              "beat": 2.0,
              "dur": 0.18,
              "vel": 127
            },
            {
              "note": "C3",
              "pitch": 60,
              "beat": 4.0,
              "dur": 0.18,
              "vel": 127
            },
            {
              "note": "C3",
              "pitch": 60,
              "beat": 4.834,
              "dur": 0.18,
              "vel": 127
            },
            {
              "note": "C3",
              "pitch": 60,
              "beat": 5.836,
              "dur": 0.136,
              "vel": 1
            },
            {
              "note": "C3",
              "pitch": 60,
              "beat": 6.0,
              "dur": 0.18,
              "vel": 127
            },
            {
              "note": "C3",
              "pitch": 60,
              "beat": 7.336,
              "dur": 0.18,
              "vel": 127
            }
          ]
        },
        {
          "bar_start": 82.0,
          "bar_end": 83.625,
          "name": "",
          "notes": [
            {
              "note": "C3",
              "pitch": 60,
              "beat": 0.0,
              "dur": 0.18,
              "vel": 127
            },
            {
              "note": "C3",
              "pitch": 60,
              "beat": 1.836,
              "dur": 0.135,
              "vel": 38
            },
            {
              "note": "C3",
              "pitch": 60,
              "beat": 2.0,
              "dur": 0.18,
              "vel": 127
            },
            {
              "note": "C3",
              "pitch": 60,
              "beat": 4.0,
              "dur": 0.18,
              "vel": 127
            },
            {
              "note": "C3",
              "pitch": 60,
              "beat": 4.834,
              "dur": 0.18,
              "vel": 127
            },
            {
              "note": "C3",
              "pitch": 60,
              "beat": 5.836,
              "dur": 0.136,
              "vel": 1
            },
            {
              "note": "C3",
              "pitch": 60,
              "beat": 6.0,
              "dur": 0.18,
              "vel": 127
            },
            {
              "note": "C3",
              "pitch": 60,
              "beat": 7.336,
              "dur": 0.18,
              "vel": 127
            }
          ]
        },
        {
          "bar_start": 83.625,
          "bar_end": 83.75,
          "name": "",
          "notes": [
            {
              "note": "C3",
              "pitch": 60,
              "beat": 0.0,
              "dur": 0.18,
              "vel": 127
            },
            {
              "note": "C3",
              "pitch": 60,
              "beat": 1.836,
              "dur": 0.135,
              "vel": 38
            },
            {
              "note": "C3",
              "pitch": 60,
              "beat": 2.0,
              "dur": 0.18,
              "vel": 127
            },
            {
              "note": "C3",
              "pitch": 60,
              "beat": 4.0,
              "dur": 0.18,
              "vel": 127
            },
            {
              "note": "C3",
              "pitch": 60,
              "beat": 4.834,
              "dur": 0.18,
              "vel": 127
            },
            {
              "note": "C3",
              "pitch": 60,
              "beat": 5.836,
              "dur": 0.136,
              "vel": 1
            },
            {
              "note": "C3",
              "pitch": 60,
              "beat": 6.0,
              "dur": 0.18,
              "vel": 127
            },
            {
              "note": "C3",
              "pitch": 60,
              "beat": 7.336,
              "dur": 0.18,
              "vel": 127
            }
          ]
        },
        {
          "bar_start": 83.75,
          "bar_end": 84.0,
          "name": "",
          "notes": [
            {
              "note": "C3",
              "pitch": 60,
              "beat": 0.0,
              "dur": 0.18,
              "vel": 127
            },
            {
              "note": "C3",
              "pitch": 60,
              "beat": 1.836,
              "dur": 0.135,
              "vel": 38
            },
            {
              "note": "C3",
              "pitch": 60,
              "beat": 2.0,
              "dur": 0.18,
              "vel": 127
            },
            {
              "note": "C3",
              "pitch": 60,
              "beat": 4.0,
              "dur": 0.18,
              "vel": 127
            },
            {
              "note": "C3",
              "pitch": 60,
              "beat": 4.834,
              "dur": 0.18,
              "vel": 127
            },
            {
              "note": "C3",
              "pitch": 60,
              "beat": 5.836,
              "dur": 0.136,
              "vel": 1
            },
            {
              "note": "C3",
              "pitch": 60,
              "beat": 6.0,
              "dur": 0.18,
              "vel": 127
            },
            {
              "note": "C3",
              "pitch": 60,
              "beat": 7.336,
              "dur": 0.18,
              "vel": 127
            }
          ]
        },
        {
          "bar_start": 84.0,
          "bar_end": 85.0,
          "name": "",
          "notes": [
            {
              "note": "C3",
              "pitch": 60,
              "beat": 0.0,
              "dur": 0.18,
              "vel": 127
            },
            {
              "note": "C3",
              "pitch": 60,
              "beat": 1.836,
              "dur": 0.135,
              "vel": 38
            },
            {
              "note": "C3",
              "pitch": 60,
              "beat": 2.0,
              "dur": 0.18,
              "vel": 127
            },
            {
              "note": "C3",
              "pitch": 60,
              "beat": 4.0,
              "dur": 0.18,
              "vel": 127
            },
            {
              "note": "C3",
              "pitch": 60,
              "beat": 4.834,
              "dur": 0.18,
              "vel": 127
            },
            {
              "note": "C3",
              "pitch": 60,
              "beat": 5.836,
              "dur": 0.136,
              "vel": 1
            },
            {
              "note": "C3",
              "pitch": 60,
              "beat": 6.0,
              "dur": 0.18,
              "vel": 127
            },
            {
              "note": "C3",
              "pitch": 60,
              "beat": 7.336,
              "dur": 0.18,
              "vel": 127
            }
          ]
        },
        {
          "bar_start": 85.0,
          "bar_end": 85.625,
          "name": "",
          "notes": [
            {
              "note": "C3",
              "pitch": 60,
              "beat": 0.0,
              "dur": 0.18,
              "vel": 127
            },
            {
              "note": "C3",
              "pitch": 60,
              "beat": 1.836,
              "dur": 0.135,
              "vel": 38
            },
            {
              "note": "C3",
              "pitch": 60,
              "beat": 2.0,
              "dur": 0.18,
              "vel": 127
            },
            {
              "note": "C3",
              "pitch": 60,
              "beat": 4.0,
              "dur": 0.18,
              "vel": 127
            },
            {
              "note": "C3",
              "pitch": 60,
              "beat": 4.834,
              "dur": 0.18,
              "vel": 127
            },
            {
              "note": "C3",
              "pitch": 60,
              "beat": 5.836,
              "dur": 0.136,
              "vel": 1
            },
            {
              "note": "C3",
              "pitch": 60,
              "beat": 6.0,
              "dur": 0.18,
              "vel": 127
            },
            {
              "note": "C3",
              "pitch": 60,
              "beat": 7.336,
              "dur": 0.18,
              "vel": 127
            }
          ]
        },
        {
          "bar_start": 85.625,
          "bar_end": 85.75,
          "name": "",
          "notes": [
            {
              "note": "C3",
              "pitch": 60,
              "beat": 0.0,
              "dur": 0.18,
              "vel": 127
            },
            {
              "note": "C3",
              "pitch": 60,
              "beat": 1.836,
              "dur": 0.135,
              "vel": 38
            },
            {
              "note": "C3",
              "pitch": 60,
              "beat": 2.0,
              "dur": 0.18,
              "vel": 127
            },
            {
              "note": "C3",
              "pitch": 60,
              "beat": 4.0,
              "dur": 0.18,
              "vel": 127
            },
            {
              "note": "C3",
              "pitch": 60,
              "beat": 4.834,
              "dur": 0.18,
              "vel": 127
            },
            {
              "note": "C3",
              "pitch": 60,
              "beat": 5.836,
              "dur": 0.136,
              "vel": 1
            },
            {
              "note": "C3",
              "pitch": 60,
              "beat": 6.0,
              "dur": 0.18,
              "vel": 127
            },
            {
              "note": "C3",
              "pitch": 60,
              "beat": 7.336,
              "dur": 0.18,
              "vel": 127
            }
          ]
        },
        {
          "bar_start": 85.75,
          "bar_end": 86.0,
          "name": "",
          "notes": [
            {
              "note": "C3",
              "pitch": 60,
              "beat": 0.0,
              "dur": 0.18,
              "vel": 127
            },
            {
              "note": "C3",
              "pitch": 60,
              "beat": 1.836,
              "dur": 0.135,
              "vel": 38
            },
            {
              "note": "C3",
              "pitch": 60,
              "beat": 2.0,
              "dur": 0.18,
              "vel": 127
            },
            {
              "note": "C3",
              "pitch": 60,
              "beat": 4.0,
              "dur": 0.18,
              "vel": 127
            },
            {
              "note": "C3",
              "pitch": 60,
              "beat": 4.834,
              "dur": 0.18,
              "vel": 127
            },
            {
              "note": "C3",
              "pitch": 60,
              "beat": 5.836,
              "dur": 0.136,
              "vel": 1
            },
            {
              "note": "C3",
              "pitch": 60,
              "beat": 6.0,
              "dur": 0.18,
              "vel": 127
            },
            {
              "note": "C3",
              "pitch": 60,
              "beat": 7.336,
              "dur": 0.18,
              "vel": 127
            }
          ]
        },
        {
          "bar_start": 86.0,
          "bar_end": 87.375,
          "name": "",
          "notes": [
            {
              "note": "C3",
              "pitch": 60,
              "beat": 0.0,
              "dur": 0.18,
              "vel": 127
            },
            {
              "note": "C3",
              "pitch": 60,
              "beat": 1.836,
              "dur": 0.135,
              "vel": 38
            },
            {
              "note": "C3",
              "pitch": 60,
              "beat": 2.0,
              "dur": 0.18,
              "vel": 127
            },
            {
              "note": "C3",
              "pitch": 60,
              "beat": 4.0,
              "dur": 0.18,
              "vel": 127
            },
            {
              "note": "C3",
              "pitch": 60,
              "beat": 4.834,
              "dur": 0.18,
              "vel": 127
            },
            {
              "note": "C3",
              "pitch": 60,
              "beat": 5.836,
              "dur": 0.136,
              "vel": 1
            },
            {
              "note": "C3",
              "pitch": 60,
              "beat": 6.0,
              "dur": 0.18,
              "vel": 127
            },
            {
              "note": "C3",
              "pitch": 60,
              "beat": 7.336,
              "dur": 0.18,
              "vel": 127
            }
          ]
        }
      ],
      "automations": [],
      "children": []
    },
    "24": {
      "id": "24",
      "name": "Hat",
      "type": "MidiTrack",
      "group_id": "31",
      "devices": [
        {
          "type": "OriginalSimpler",
          "sample": "Hat.aif",
          "Attack": "0.1000000015",
          "SampleStart": "0",
          "LoopMode": "0"
        },
        {
          "type": "Eq8",
          "bands": []
        }
      ],
      "clips": [
        {
          "bar_start": 4.0,
          "bar_end": 8.0,
          "name": "",
          "notes": [
            {
              "note": "C3",
              "pitch": 60,
              "beat": 0.5,
              "dur": 0.5,
              "vel": 127
            },
            {
              "note": "C3",
              "pitch": 60,
              "beat": 1.5,
              "dur": 0.5,
              "vel": 127
            },
            {
              "note": "C3",
              "pitch": 60,
              "beat": 2.5,
              "dur": 0.5,
              "vel": 127
            },
            {
              "note": "C3",
              "pitch": 60,
              "beat": 3.5,
              "dur": 0.5,
              "vel": 127
            }
          ]
        },
        {
          "bar_start": 8.75,
          "bar_end": 32.0,
          "name": "",
          "notes": [
            {
              "note": "C3",
              "pitch": 60,
              "beat": 0.5,
              "dur": 0.5,
              "vel": 127
            },
            {
              "note": "C3",
              "pitch": 60,
              "beat": 1.5,
              "dur": 0.5,
              "vel": 127
            },
            {
              "note": "C3",
              "pitch": 60,
              "beat": 2.5,
              "dur": 0.5,
              "vel": 127
            },
            {
              "note": "C3",
              "pitch": 60,
              "beat": 3.5,
              "dur": 0.5,
              "vel": 127
            }
          ]
        },
        {
          "bar_start": 32.75,
          "bar_end": 40.5,
          "name": "",
          "notes": [
            {
              "note": "C3",
              "pitch": 60,
              "beat": 0.5,
              "dur": 0.5,
              "vel": 127
            },
            {
              "note": "C3",
              "pitch": 60,
              "beat": 1.5,
              "dur": 0.5,
              "vel": 127
            },
            {
              "note": "C3",
              "pitch": 60,
              "beat": 2.5,
              "dur": 0.5,
              "vel": 127
            },
            {
              "note": "C3",
              "pitch": 60,
              "beat": 3.5,
              "dur": 0.5,
              "vel": 127
            }
          ]
        },
        {
          "bar_start": 40.75,
          "bar_end": 41.75,
          "name": "",
          "notes": [
            {
              "note": "C3",
              "pitch": 60,
              "beat": 0.5,
              "dur": 0.5,
              "vel": 127
            },
            {
              "note": "C3",
              "pitch": 60,
              "beat": 1.5,
              "dur": 0.5,
              "vel": 127
            },
            {
              "note": "C3",
              "pitch": 60,
              "beat": 2.5,
              "dur": 0.5,
              "vel": 127
            },
            {
              "note": "C3",
              "pitch": 60,
              "beat": 3.5,
              "dur": 0.5,
              "vel": 127
            }
          ]
        },
        {
          "bar_start": 42.0,
          "bar_end": 48.0,
          "name": "",
          "notes": [
            {
              "note": "C3",
              "pitch": 60,
              "beat": 0.5,
              "dur": 0.5,
              "vel": 127
            },
            {
              "note": "C3",
              "pitch": 60,
              "beat": 1.5,
              "dur": 0.5,
              "vel": 127
            },
            {
              "note": "C3",
              "pitch": 60,
              "beat": 2.5,
              "dur": 0.5,
              "vel": 127
            },
            {
              "note": "C3",
              "pitch": 60,
              "beat": 3.5,
              "dur": 0.5,
              "vel": 127
            }
          ]
        },
        {
          "bar_start": 52.0,
          "bar_end": 56.0,
          "name": "",
          "notes": [
            {
              "note": "C3",
              "pitch": 60,
              "beat": 0.5,
              "dur": 0.5,
              "vel": 127
            },
            {
              "note": "C3",
              "pitch": 60,
              "beat": 1.5,
              "dur": 0.5,
              "vel": 127
            },
            {
              "note": "C3",
              "pitch": 60,
              "beat": 2.5,
              "dur": 0.5,
              "vel": 127
            },
            {
              "note": "C3",
              "pitch": 60,
              "beat": 3.5,
              "dur": 0.5,
              "vel": 127
            }
          ]
        },
        {
          "bar_start": 56.75,
          "bar_end": 64.0,
          "name": "",
          "notes": [
            {
              "note": "C3",
              "pitch": 60,
              "beat": 0.5,
              "dur": 0.5,
              "vel": 127
            },
            {
              "note": "C3",
              "pitch": 60,
              "beat": 1.5,
              "dur": 0.5,
              "vel": 127
            },
            {
              "note": "C3",
              "pitch": 60,
              "beat": 2.5,
              "dur": 0.5,
              "vel": 127
            },
            {
              "note": "C3",
              "pitch": 60,
              "beat": 3.5,
              "dur": 0.5,
              "vel": 127
            }
          ]
        },
        {
          "bar_start": 64.25,
          "bar_end": 66.0,
          "name": "",
          "notes": [
            {
              "note": "C3",
              "pitch": 60,
              "beat": 0.5,
              "dur": 0.5,
              "vel": 127
            },
            {
              "note": "C3",
              "pitch": 60,
              "beat": 1.5,
              "dur": 0.5,
              "vel": 127
            },
            {
              "note": "C3",
              "pitch": 60,
              "beat": 2.5,
              "dur": 0.5,
              "vel": 127
            },
            {
              "note": "C3",
              "pitch": 60,
              "beat": 3.5,
              "dur": 0.5,
              "vel": 127
            }
          ]
        },
        {
          "bar_start": 66.0,
          "bar_end": 66.25,
          "name": "",
          "notes": [
            {
              "note": "C3",
              "pitch": 60,
              "beat": 0.5,
              "dur": 0.5,
              "vel": 127
            },
            {
              "note": "C3",
              "pitch": 60,
              "beat": 1.5,
              "dur": 0.5,
              "vel": 127
            },
            {
              "note": "C3",
              "pitch": 60,
              "beat": 2.5,
              "dur": 0.5,
              "vel": 127
            },
            {
              "note": "C3",
              "pitch": 60,
              "beat": 3.5,
              "dur": 0.5,
              "vel": 127
            }
          ]
        },
        {
          "bar_start": 66.75,
          "bar_end": 70.375,
          "name": "",
          "notes": [
            {
              "note": "C3",
              "pitch": 60,
              "beat": 0.5,
              "dur": 0.5,
              "vel": 127
            },
            {
              "note": "C3",
              "pitch": 60,
              "beat": 1.5,
              "dur": 0.5,
              "vel": 127
            },
            {
              "note": "C3",
              "pitch": 60,
              "beat": 2.5,
              "dur": 0.5,
              "vel": 127
            },
            {
              "note": "C3",
              "pitch": 60,
              "beat": 3.5,
              "dur": 0.5,
              "vel": 127
            }
          ]
        },
        {
          "bar_start": 70.5,
          "bar_end": 87.375,
          "name": "",
          "notes": [
            {
              "note": "C3",
              "pitch": 60,
              "beat": 0.5,
              "dur": 0.5,
              "vel": 127
            },
            {
              "note": "C3",
              "pitch": 60,
              "beat": 1.5,
              "dur": 0.5,
              "vel": 127
            },
            {
              "note": "C3",
              "pitch": 60,
              "beat": 2.5,
              "dur": 0.5,
              "vel": 127
            },
            {
              "note": "C3",
              "pitch": 60,
              "beat": 3.5,
              "dur": 0.5,
              "vel": 127
            }
          ]
        }
      ],
      "automations": [],
      "children": []
    },
    "25": {
      "id": "25",
      "name": "Rim",
      "type": "MidiTrack",
      "group_id": "31",
      "devices": [
        {
          "type": "OriginalSimpler",
          "sample": "Rim.aif",
          "Attack": "0.1000000015",
          "SampleStart": "0",
          "LoopMode": "0"
        },
        {
          "type": "Eq8",
          "bands": []
        }
      ],
      "clips": [
        {
          "bar_start": 4.0,
          "bar_end": 8.0,
          "name": "",
          "notes": [
            {
              "note": "C3",
              "pitch": 60,
              "beat": 1.0,
              "dur": 0.812,
              "vel": 127
            },
            {
              "note": "C3",
              "pitch": 60,
              "beat": 3.0,
              "dur": 0.812,
              "vel": 127
            }
          ]
        },
        {
          "bar_start": 8.5,
          "bar_end": 30.0,
          "name": "",
          "notes": [
            {
              "note": "C3",
              "pitch": 60,
              "beat": 1.0,
              "dur": 0.812,
              "vel": 127
            },
            {
              "note": "C3",
              "pitch": 60,
              "beat": 3.0,
              "dur": 0.812,
              "vel": 127
            }
          ]
        },
        {
          "bar_start": 31.5,
          "bar_end": 32.0,
          "name": "",
          "notes": [
            {
              "note": "C3",
              "pitch": 60,
              "beat": 1.0,
              "dur": 0.812,
              "vel": 127
            },
            {
              "note": "C3",
              "pitch": 60,
              "beat": 3.0,
              "dur": 0.812,
              "vel": 127
            }
          ]
        },
        {
          "bar_start": 32.5,
          "bar_end": 35.5,
          "name": "",
          "notes": [
            {
              "note": "C3",
              "pitch": 60,
              "beat": 1.0,
              "dur": 0.812,
              "vel": 127
            },
            {
              "note": "C3",
              "pitch": 60,
              "beat": 3.0,
              "dur": 0.812,
              "vel": 127
            }
          ]
        },
        {
          "bar_start": 36.0,
          "bar_end": 37.75,
          "name": "",
          "notes": [
            {
              "note": "C3",
              "pitch": 60,
              "beat": 1.0,
              "dur": 0.812,
              "vel": 127
            },
            {
              "note": "C3",
              "pitch": 60,
              "beat": 3.0,
              "dur": 0.812,
              "vel": 127
            }
          ]
        },
        {
          "bar_start": 38.0,
          "bar_end": 48.0,
          "name": "",
          "notes": [
            {
              "note": "C3",
              "pitch": 60,
              "beat": 1.0,
              "dur": 0.812,
              "vel": 127
            },
            {
              "note": "C3",
              "pitch": 60,
              "beat": 3.0,
              "dur": 0.812,
              "vel": 127
            }
          ]
        },
        {
          "bar_start": 52.0,
          "bar_end": 56.0,
          "name": "",
          "notes": [
            {
              "note": "C3",
              "pitch": 60,
              "beat": 1.0,
              "dur": 0.812,
              "vel": 127
            },
            {
              "note": "C3",
              "pitch": 60,
              "beat": 3.0,
              "dur": 0.812,
              "vel": 127
            }
          ]
        },
        {
          "bar_start": 56.5,
          "bar_end": 78.0,
          "name": "",
          "notes": [
            {
              "note": "C3",
              "pitch": 60,
              "beat": 1.0,
              "dur": 0.812,
              "vel": 127
            },
            {
              "note": "C3",
              "pitch": 60,
              "beat": 3.0,
              "dur": 0.812,
              "vel": 127
            }
          ]
        },
        {
          "bar_start": 79.5,
          "bar_end": 80.0,
          "name": "",
          "notes": [
            {
              "note": "C3",
              "pitch": 60,
              "beat": 1.0,
              "dur": 0.812,
              "vel": 127
            },
            {
              "note": "C3",
              "pitch": 60,
              "beat": 3.0,
              "dur": 0.812,
              "vel": 127
            }
          ]
        },
        {
          "bar_start": 80.0,
          "bar_end": 82.0,
          "name": "",
          "notes": [
            {
              "note": "C3",
              "pitch": 60,
              "beat": 1.0,
              "dur": 0.812,
              "vel": 127
            },
            {
              "note": "C3",
              "pitch": 60,
              "beat": 3.0,
              "dur": 0.812,
              "vel": 127
            }
          ]
        },
        {
          "bar_start": 82.0,
          "bar_end": 84.0,
          "name": "",
          "notes": [
            {
              "note": "C3",
              "pitch": 60,
              "beat": 1.0,
              "dur": 0.812,
              "vel": 127
            },
            {
              "note": "C3",
              "pitch": 60,
              "beat": 3.0,
              "dur": 0.812,
              "vel": 127
            }
          ]
        },
        {
          "bar_start": 84.0,
          "bar_end": 86.0,
          "name": "",
          "notes": [
            {
              "note": "C3",
              "pitch": 60,
              "beat": 1.0,
              "dur": 0.812,
              "vel": 127
            },
            {
              "note": "C3",
              "pitch": 60,
              "beat": 3.0,
              "dur": 0.812,
              "vel": 127
            }
          ]
        },
        {
          "bar_start": 86.0,
          "bar_end": 87.375,
          "name": "",
          "notes": [
            {
              "note": "C3",
              "pitch": 60,
              "beat": 1.0,
              "dur": 0.812,
              "vel": 127
            },
            {
              "note": "C3",
              "pitch": 60,
              "beat": 3.0,
              "dur": 0.812,
              "vel": 127
            }
          ]
        }
      ],
      "automations": [],
      "children": []
    },
    "26": {
      "id": "26",
      "name": "Open Hat",
      "type": "MidiTrack",
      "group_id": "31",
      "devices": [
        {
          "type": "OriginalSimpler",
          "sample": "Open Hat.wav",
          "Attack": "0.1000000015",
          "SampleStart": "0",
          "LoopMode": "0"
        }
      ],
      "clips": [
        {
          "bar_start": 7.625,
          "bar_end": 7.75,
          "name": "",
          "notes": [
            {
              "note": "C3",
              "pitch": 60,
              "beat": 0.0,
              "dur": 0.5,
              "vel": 127
            }
          ]
        },
        {
          "bar_start": 11.625,
          "bar_end": 11.75,
          "name": "",
          "notes": [
            {
              "note": "C3",
              "pitch": 60,
              "beat": 0.0,
              "dur": 0.5,
              "vel": 127
            }
          ]
        },
        {
          "bar_start": 15.625,
          "bar_end": 15.75,
          "name": "",
          "notes": [
            {
              "note": "C3",
              "pitch": 60,
              "beat": 0.0,
              "dur": 0.5,
              "vel": 127
            }
          ]
        },
        {
          "bar_start": 19.625,
          "bar_end": 19.75,
          "name": "",
          "notes": [
            {
              "note": "C3",
              "pitch": 60,
              "beat": 0.0,
              "dur": 0.5,
              "vel": 127
            }
          ]
        },
        {
          "bar_start": 23.625,
          "bar_end": 23.75,
          "name": "",
          "notes": [
            {
              "note": "C3",
              "pitch": 60,
              "beat": 0.0,
              "dur": 0.5,
              "vel": 127
            }
          ]
        },
        {
          "bar_start": 27.625,
          "bar_end": 27.75,
          "name": "",
          "notes": [
            {
              "note": "C3",
              "pitch": 60,
              "beat": 0.0,
              "dur": 0.5,
              "vel": 127
            }
          ]
        },
        {
          "bar_start": 31.625,
          "bar_end": 31.75,
          "name": "",
          "notes": [
            {
              "note": "C3",
              "pitch": 60,
              "beat": 0.0,
              "dur": 0.5,
              "vel": 127
            }
          ]
        },
        {
          "bar_start": 35.625,
          "bar_end": 35.75,
          "name": "",
          "notes": [
            {
              "note": "C3",
              "pitch": 60,
              "beat": 0.0,
              "dur": 0.5,
              "vel": 127
            }
          ]
        },
        {
          "bar_start": 39.625,
          "bar_end": 39.75,
          "name": "",
          "notes": [
            {
              "note": "C3",
              "pitch": 60,
              "beat": 0.0,
              "dur": 0.5,
              "vel": 127
            }
          ]
        },
        {
          "bar_start": 43.625,
          "bar_end": 43.75,
          "name": "",
          "notes": [
            {
              "note": "C3",
              "pitch": 60,
              "beat": 0.0,
              "dur": 0.5,
              "vel": 127
            }
          ]
        },
        {
          "bar_start": 47.625,
          "bar_end": 47.75,
          "name": "",
          "notes": [
            {
              "note": "C3",
              "pitch": 60,
              "beat": 0.0,
              "dur": 0.5,
              "vel": 127
            }
          ]
        },
        {
          "bar_start": 55.625,
          "bar_end": 55.75,
          "name": "",
          "notes": [
            {
              "note": "C3",
              "pitch": 60,
              "beat": 0.0,
              "dur": 0.5,
              "vel": 127
            }
          ]
        },
        {
          "bar_start": 59.625,
          "bar_end": 59.75,
          "name": "",
          "notes": [
            {
              "note": "C3",
              "pitch": 60,
              "beat": 0.0,
              "dur": 0.5,
              "vel": 127
            }
          ]
        },
        {
          "bar_start": 63.625,
          "bar_end": 63.75,
          "name": "",
          "notes": [
            {
              "note": "C3",
              "pitch": 60,
              "beat": 0.0,
              "dur": 0.5,
              "vel": 127
            }
          ]
        },
        {
          "bar_start": 67.625,
          "bar_end": 67.75,
          "name": "",
          "notes": [
            {
              "note": "C3",
              "pitch": 60,
              "beat": 0.0,
              "dur": 0.5,
              "vel": 127
            }
          ]
        },
        {
          "bar_start": 71.625,
          "bar_end": 71.75,
          "name": "",
          "notes": [
            {
              "note": "C3",
              "pitch": 60,
              "beat": 0.0,
              "dur": 0.5,
              "vel": 127
            }
          ]
        },
        {
          "bar_start": 75.625,
          "bar_end": 75.75,
          "name": "",
          "notes": [
            {
              "note": "C3",
              "pitch": 60,
              "beat": 0.0,
              "dur": 0.5,
              "vel": 127
            }
          ]
        },
        {
          "bar_start": 79.625,
          "bar_end": 79.75,
          "name": "",
          "notes": [
            {
              "note": "C3",
              "pitch": 60,
              "beat": 0.0,
              "dur": 0.5,
              "vel": 127
            }
          ]
        },
        {
          "bar_start": 83.625,
          "bar_end": 83.75,
          "name": "",
          "notes": [
            {
              "note": "C3",
              "pitch": 60,
              "beat": 0.0,
              "dur": 0.5,
              "vel": 127
            }
          ]
        }
      ],
      "automations": [],
      "children": []
    },
    "39": {
      "id": "39",
      "name": "Bass",
      "type": "MidiTrack",
      "group_id": "-1",
      "devices": [
        {
          "type": "PluginDevice",
          "plugin": "Serum 2",
          "preset": "",
          "vst_params": []
        },
        {
          "type": "PluginDevice",
          "plugin": "Kickstart 2",
          "preset": "",
          "vst_params": []
        },
        {
          "type": "Saturator",
          "Drive": "1",
          "DryWet": "0.2301587313",
          "Type": "4"
        },
        {
          "type": "StereoGain",
          "On": "true",
          "PhaseInvertL": "false",
          "PhaseInvertR": "false",
          "ChannelMode": "1",
          "StereoWidth": "1",
          "MidSideBalance": "1",
          "Mono": "false",
          "BassMono": "false",
          "BassMonoFrequency": "120",
          "Balance": "0",
          "Gain": "1",
          "LegacyGain": "0",
          "Mute": "false",
          "DcFilter": "false"
        }
      ],
      "clips": [
        {
          "bar_start": 9.0,
          "bar_end": 16.0,
          "name": "",
          "notes": [
            {
              "note": "G#3",
              "pitch": 68,
              "beat": 0.0,
              "dur": 1.878,
              "vel": 100
            },
            {
              "note": "G#3",
              "pitch": 68,
              "beat": 2.5,
              "dur": 1.345,
              "vel": 100
            },
            {
              "note": "E3",
              "pitch": 64,
              "beat": 4.0,
              "dur": 1.5,
              "vel": 100
            },
            {
              "note": "E3",
              "pitch": 64,
              "beat": 6.5,
              "dur": 0.75,
              "vel": 100
            },
            {
              "note": "E3",
              "pitch": 64,
              "beat": 7.25,
              "dur": 0.75,
              "vel": 100
            },
            {
              "note": "G#3",
              "pitch": 68,
              "beat": 8.0,
              "dur": 1.878,
              "vel": 100
            },
            {
              "note": "G#3",
              "pitch": 68,
              "beat": 10.5,
              "dur": 1.345,
              "vel": 100
            },
            {
              "note": "E3",
              "pitch": 64,
              "beat": 12.0,
              "dur": 1.5,
              "vel": 100
            },
            {
              "note": "E3",
              "pitch": 64,
              "beat": 14.5,
              "dur": 0.75,
              "vel": 100
            },
            {
              "note": "E3",
              "pitch": 64,
              "beat": 15.319,
              "dur": 0.298,
              "vel": 100
            },
            {
              "note": "C4",
              "pitch": 72,
              "beat": 15.75,
              "dur": 0.176,
              "vel": 100
            }
          ]
        },
        {
          "bar_start": 16.0,
          "bar_end": 24.0,
          "name": "",
          "notes": [
            {
              "note": "C#3",
              "pitch": 61,
              "beat": 0.0,
              "dur": 1.878,
              "vel": 100
            },
            {
              "note": "C#3",
              "pitch": 61,
              "beat": 2.5,
              "dur": 1.345,
              "vel": 100
            },
            {
              "note": "C#3",
              "pitch": 61,
              "beat": 4.0,
              "dur": 1.5,
              "vel": 100
            },
            {
              "note": "C#3",
              "pitch": 61,
              "beat": 5.5,
              "dur": 0.5,
              "vel": 100
            },
            {
              "note": "C#3",
              "pitch": 61,
              "beat": 6.5,
              "dur": 0.75,
              "vel": 100
            },
            {
              "note": "C#3",
              "pitch": 61,
              "beat": 7.25,
              "dur": 0.75,
              "vel": 100
            },
            {
              "note": "C#3",
              "pitch": 61,
              "beat": 8.0,
              "dur": 1.878,
              "vel": 100
            },
            {
              "note": "C#3",
              "pitch": 61,
              "beat": 10.5,
              "dur": 1.345,
              "vel": 100
            },
            {
              "note": "C#3",
              "pitch": 61,
              "beat": 12.0,
              "dur": 1.5,
              "vel": 100
            },
            {
              "note": "C#3",
              "pitch": 61,
              "beat": 14.5,
              "dur": 0.75,
              "vel": 100
            },
            {
              "note": "C#3",
              "pitch": 61,
              "beat": 15.319,
              "dur": 0.298,
              "vel": 100
            },
            {
              "note": "C4",
              "pitch": 72,
              "beat": 15.75,
              "dur": 0.176,
              "vel": 100
            }
          ]
        },
        {
          "bar_start": 24.0,
          "bar_end": 30.0,
          "name": "",
          "notes": [
            {
              "note": "G#3",
              "pitch": 68,
              "beat": 0.0,
              "dur": 1.878,
              "vel": 100
            },
            {
              "note": "G#3",
              "pitch": 68,
              "beat": 2.5,
              "dur": 1.345,
              "vel": 100
            },
            {
              "note": "E3",
              "pitch": 64,
              "beat": 4.0,
              "dur": 1.5,
              "vel": 100
            },
            {
              "note": "E3",
              "pitch": 64,
              "beat": 6.5,
              "dur": 0.75,
              "vel": 100
            },
            {
              "note": "E3",
              "pitch": 64,
              "beat": 7.25,
              "dur": 0.75,
              "vel": 100
            },
            {
              "note": "G#3",
              "pitch": 68,
              "beat": 8.0,
              "dur": 1.878,
              "vel": 100
            },
            {
              "note": "G#3",
              "pitch": 68,
              "beat": 10.5,
              "dur": 1.345,
              "vel": 100
            },
            {
              "note": "E3",
              "pitch": 64,
              "beat": 12.0,
              "dur": 1.5,
              "vel": 100
            },
            {
              "note": "E3",
              "pitch": 64,
              "beat": 14.5,
              "dur": 0.75,
              "vel": 100
            },
            {
              "note": "E3",
              "pitch": 64,
              "beat": 15.319,
              "dur": 0.298,
              "vel": 100
            },
            {
              "note": "C4",
              "pitch": 72,
              "beat": 15.75,
              "dur": 0.176,
              "vel": 100
            }
          ]
        },
        {
          "bar_start": 31.5,
          "bar_end": 32.0,
          "name": "",
          "notes": [
            {
              "note": "G#3",
              "pitch": 68,
              "beat": 0.0,
              "dur": 1.878,
              "vel": 100
            },
            {
              "note": "G#3",
              "pitch": 68,
              "beat": 2.5,
              "dur": 1.345,
              "vel": 100
            },
            {
              "note": "E3",
              "pitch": 64,
              "beat": 4.0,
              "dur": 1.5,
              "vel": 100
            },
            {
              "note": "E3",
              "pitch": 64,
              "beat": 6.5,
              "dur": 0.75,
              "vel": 100
            },
            {
              "note": "E3",
              "pitch": 64,
              "beat": 7.25,
              "dur": 0.75,
              "vel": 100
            },
            {
              "note": "G#3",
              "pitch": 68,
              "beat": 8.0,
              "dur": 1.878,
              "vel": 100
            },
            {
              "note": "G#3",
              "pitch": 68,
              "beat": 10.5,
              "dur": 1.345,
              "vel": 100
            },
            {
              "note": "E3",
              "pitch": 64,
              "beat": 12.0,
              "dur": 1.5,
              "vel": 100
            },
            {
              "note": "E3",
              "pitch": 64,
              "beat": 14.5,
              "dur": 0.75,
              "vel": 100
            },
            {
              "note": "E3",
              "pitch": 64,
              "beat": 15.319,
              "dur": 0.298,
              "vel": 100
            },
            {
              "note": "C4",
              "pitch": 72,
              "beat": 15.75,
              "dur": 0.176,
              "vel": 100
            }
          ]
        },
        {
          "bar_start": 33.0,
          "bar_end": 36.0,
          "name": "",
          "notes": [
            {
              "note": "G#3",
              "pitch": 68,
              "beat": 0.0,
              "dur": 1.878,
              "vel": 100
            },
            {
              "note": "G#3",
              "pitch": 68,
              "beat": 2.5,
              "dur": 1.345,
              "vel": 100
            },
            {
              "note": "E3",
              "pitch": 64,
              "beat": 4.0,
              "dur": 1.5,
              "vel": 100
            },
            {
              "note": "E3",
              "pitch": 64,
              "beat": 6.5,
              "dur": 0.75,
              "vel": 100
            },
            {
              "note": "E3",
              "pitch": 64,
              "beat": 7.25,
              "dur": 0.75,
              "vel": 100
            },
            {
              "note": "G#3",
              "pitch": 68,
              "beat": 8.0,
              "dur": 1.878,
              "vel": 100
            },
            {
              "note": "G#3",
              "pitch": 68,
              "beat": 10.5,
              "dur": 1.345,
              "vel": 100
            },
            {
              "note": "E3",
              "pitch": 64,
              "beat": 12.0,
              "dur": 1.5,
              "vel": 100
            },
            {
              "note": "E3",
              "pitch": 64,
              "beat": 14.5,
              "dur": 0.75,
              "vel": 100
            },
            {
              "note": "G#3",
              "pitch": 68,
              "beat": 15.25,
              "dur": 0.375,
              "vel": 100
            },
            {
              "note": "C5",
              "pitch": 84,
              "beat": 15.75,
              "dur": 0.176,
              "vel": 100
            }
          ]
        },
        {
          "bar_start": 36.0,
          "bar_end": 40.0,
          "name": "",
          "notes": [
            {
              "note": "G#3",
              "pitch": 68,
              "beat": 0.0,
              "dur": 1.878,
              "vel": 100
            },
            {
              "note": "G#3",
              "pitch": 68,
              "beat": 2.5,
              "dur": 1.345,
              "vel": 100
            },
            {
              "note": "E3",
              "pitch": 64,
              "beat": 4.0,
              "dur": 1.5,
              "vel": 100
            },
            {
              "note": "E3",
              "pitch": 64,
              "beat": 6.5,
              "dur": 0.75,
              "vel": 100
            },
            {
              "note": "E3",
              "pitch": 64,
              "beat": 7.25,
              "dur": 0.75,
              "vel": 100
            },
            {
              "note": "G#3",
              "pitch": 68,
              "beat": 8.0,
              "dur": 1.878,
              "vel": 100
            },
            {
              "note": "G#3",
              "pitch": 68,
              "beat": 10.5,
              "dur": 1.345,
              "vel": 100
            },
            {
              "note": "E3",
              "pitch": 64,
              "beat": 12.0,
              "dur": 1.5,
              "vel": 100
            },
            {
              "note": "E3",
              "pitch": 64,
              "beat": 14.5,
              "dur": 0.75,
              "vel": 100
            },
            {
              "note": "E3",
              "pitch": 64,
              "beat": 15.319,
              "dur": 0.298,
              "vel": 100
            },
            {
              "note": "C4",
              "pitch": 72,
              "beat": 15.75,
              "dur": 0.176,
              "vel": 100
            }
          ]
        },
        {
          "bar_start": 40.0,
          "bar_end": 41.5,
          "name": "",
          "notes": [
            {
              "note": "C#3",
              "pitch": 61,
              "beat": 0.0,
              "dur": 1.878,
              "vel": 100
            },
            {
              "note": "C#3",
              "pitch": 61,
              "beat": 2.5,
              "dur": 1.345,
              "vel": 100
            },
            {
              "note": "C#3",
              "pitch": 61,
              "beat": 4.0,
              "dur": 1.5,
              "vel": 100
            },
            {
              "note": "C#3",
              "pitch": 61,
              "beat": 5.5,
              "dur": 0.5,
              "vel": 100
            },
            {
              "note": "C#3",
              "pitch": 61,
              "beat": 6.5,
              "dur": 0.75,
              "vel": 100
            },
            {
              "note": "C#3",
              "pitch": 61,
              "beat": 7.25,
              "dur": 0.75,
              "vel": 100
            },
            {
              "note": "C#3",
              "pitch": 61,
              "beat": 8.0,
              "dur": 1.878,
              "vel": 100
            },
            {
              "note": "C#3",
              "pitch": 61,
              "beat": 10.5,
              "dur": 1.345,
              "vel": 100
            },
            {
              "note": "C#3",
              "pitch": 61,
              "beat": 12.0,
              "dur": 1.5,
              "vel": 100
            },
            {
              "note": "C#3",
              "pitch": 61,
              "beat": 14.5,
              "dur": 0.75,
              "vel": 100
            },
            {
              "note": "C#3",
              "pitch": 61,
              "beat": 15.319,
              "dur": 0.298,
              "vel": 100
            },
            {
              "note": "C4",
              "pitch": 72,
              "beat": 15.75,
              "dur": 0.176,
              "vel": 100
            }
          ]
        },
        {
          "bar_start": 41.5,
          "bar_end": 42.0,
          "name": "",
          "notes": [
            {
              "note": "C#3",
              "pitch": 61,
              "beat": 0.0,
              "dur": 1.878,
              "vel": 100
            },
            {
              "note": "C#3",
              "pitch": 61,
              "beat": 2.5,
              "dur": 1.345,
              "vel": 100
            },
            {
              "note": "C#3",
              "pitch": 61,
              "beat": 4.0,
              "dur": 1.5,
              "vel": 100
            },
            {
              "note": "C#3",
              "pitch": 61,
              "beat": 5.5,
              "dur": 0.5,
              "vel": 100
            },
            {
              "note": "C#3",
              "pitch": 61,
              "beat": 6.5,
              "dur": 0.219,
              "vel": 100
            },
            {
              "note": "G#3",
              "pitch": 68,
              "beat": 7.5,
              "dur": 0.25,
              "vel": 100
            },
            {
              "note": "C#3",
              "pitch": 61,
              "beat": 8.0,
              "dur": 1.878,
              "vel": 100
            },
            {
              "note": "C#3",
              "pitch": 61,
              "beat": 10.5,
              "dur": 1.345,
              "vel": 100
            },
            {
              "note": "C#3",
              "pitch": 61,
              "beat": 12.0,
              "dur": 1.5,
              "vel": 100
            },
            {
              "note": "C#3",
              "pitch": 61,
              "beat": 14.5,
              "dur": 0.75,
              "vel": 100
            },
            {
              "note": "C#3",
              "pitch": 61,
              "beat": 15.319,
              "dur": 0.298,
              "vel": 100
            },
            {
              "note": "C4",
              "pitch": 72,
              "beat": 15.75,
              "dur": 0.176,
              "vel": 100
            }
          ]
        },
        {
          "bar_start": 42.0,
          "bar_end": 44.0,
          "name": "",
          "notes": [
            {
              "note": "C#3",
              "pitch": 61,
              "beat": 0.0,
              "dur": 1.878,
              "vel": 100
            },
            {
              "note": "C#3",
              "pitch": 61,
              "beat": 2.5,
              "dur": 1.345,
              "vel": 100
            },
            {
              "note": "C#3",
              "pitch": 61,
              "beat": 4.0,
              "dur": 1.5,
              "vel": 100
            },
            {
              "note": "C#3",
              "pitch": 61,
              "beat": 5.5,
              "dur": 0.5,
              "vel": 100
            },
            {
              "note": "C#3",
              "pitch": 61,
              "beat": 6.5,
              "dur": 0.75,
              "vel": 100
            },
            {
              "note": "C#3",
              "pitch": 61,
              "beat": 7.25,
              "dur": 0.75,
              "vel": 100
            },
            {
              "note": "C#3",
              "pitch": 61,
              "beat": 8.0,
              "dur": 1.878,
              "vel": 100
            },
            {
              "note": "C#3",
              "pitch": 61,
              "beat": 10.5,
              "dur": 1.345,
              "vel": 100
            },
            {
              "note": "C#3",
              "pitch": 61,
              "beat": 12.0,
              "dur": 1.5,
              "vel": 100
            },
            {
              "note": "C#3",
              "pitch": 61,
              "beat": 14.5,
              "dur": 0.75,
              "vel": 100
            },
            {
              "note": "C#3",
              "pitch": 61,
              "beat": 15.319,
              "dur": 0.298,
              "vel": 100
            },
            {
              "note": "C4",
              "pitch": 72,
              "beat": 15.75,
              "dur": 0.176,
              "vel": 100
            }
          ]
        },
        {
          "bar_start": 44.0,
          "bar_end": 48.0,
          "name": "",
          "notes": [
            {
              "note": "C#3",
              "pitch": 61,
              "beat": 0.0,
              "dur": 1.878,
              "vel": 100
            },
            {
              "note": "C#3",
              "pitch": 61,
              "beat": 2.5,
              "dur": 1.345,
              "vel": 100
            },
            {
              "note": "C#3",
              "pitch": 61,
              "beat": 4.0,
              "dur": 1.5,
              "vel": 100
            },
            {
              "note": "C#3",
              "pitch": 61,
              "beat": 5.5,
              "dur": 0.5,
              "vel": 100
            },
            {
              "note": "C#3",
              "pitch": 61,
              "beat": 6.5,
              "dur": 0.75,
              "vel": 100
            },
            {
              "note": "C#3",
              "pitch": 61,
              "beat": 7.25,
              "dur": 0.75,
              "vel": 100
            },
            {
              "note": "C#3",
              "pitch": 61,
              "beat": 8.0,
              "dur": 1.878,
              "vel": 100
            },
            {
              "note": "C#3",
              "pitch": 61,
              "beat": 10.5,
              "dur": 1.345,
              "vel": 100
            },
            {
              "note": "C#3",
              "pitch": 61,
              "beat": 12.0,
              "dur": 1.5,
              "vel": 100
            },
            {
              "note": "C#3",
              "pitch": 61,
              "beat": 14.5,
              "dur": 0.75,
              "vel": 100
            },
            {
              "note": "C#3",
              "pitch": 61,
              "beat": 15.319,
              "dur": 0.298,
              "vel": 100
            },
            {
              "note": "C4",
              "pitch": 72,
              "beat": 15.75,
              "dur": 0.176,
              "vel": 100
            }
          ]
        },
        {
          "bar_start": 57.0,
          "bar_end": 60.0,
          "name": "",
          "notes": [
            {
              "note": "G#3",
              "pitch": 68,
              "beat": 0.0,
              "dur": 1.878,
              "vel": 100
            },
            {
              "note": "G#3",
              "pitch": 68,
              "beat": 2.5,
              "dur": 1.345,
              "vel": 100
            },
            {
              "note": "E3",
              "pitch": 64,
              "beat": 4.0,
              "dur": 1.5,
              "vel": 100
            },
            {
              "note": "E3",
              "pitch": 64,
              "beat": 6.5,
              "dur": 0.75,
              "vel": 100
            },
            {
              "note": "E3",
              "pitch": 64,
              "beat": 7.25,
              "dur": 0.75,
              "vel": 100
            },
            {
              "note": "G#3",
              "pitch": 68,
              "beat": 8.0,
              "dur": 1.878,
              "vel": 100
            },
            {
              "note": "G#3",
              "pitch": 68,
              "beat": 10.5,
              "dur": 1.345,
              "vel": 100
            },
            {
              "note": "E3",
              "pitch": 64,
              "beat": 12.0,
              "dur": 1.5,
              "vel": 100
            },
            {
              "note": "E3",
              "pitch": 64,
              "beat": 14.5,
              "dur": 0.75,
              "vel": 100
            },
            {
              "note": "G#3",
              "pitch": 68,
              "beat": 15.25,
              "dur": 0.375,
              "vel": 100
            },
            {
              "note": "C5",
              "pitch": 84,
              "beat": 15.75,
              "dur": 0.176,
              "vel": 100
            }
          ]
        },
        {
          "bar_start": 60.0,
          "bar_end": 64.0,
          "name": "",
          "notes": [
            {
              "note": "G#3",
              "pitch": 68,
              "beat": 0.0,
              "dur": 1.878,
              "vel": 100
            },
            {
              "note": "G#3",
              "pitch": 68,
              "beat": 2.5,
              "dur": 1.345,
              "vel": 100
            },
            {
              "note": "E3",
              "pitch": 64,
              "beat": 4.0,
              "dur": 1.5,
              "vel": 100
            },
            {
              "note": "E3",
              "pitch": 64,
              "beat": 6.5,
              "dur": 0.75,
              "vel": 100
            },
            {
              "note": "E3",
              "pitch": 64,
              "beat": 7.25,
              "dur": 0.75,
              "vel": 100
            },
            {
              "note": "G#3",
              "pitch": 68,
              "beat": 8.0,
              "dur": 1.878,
              "vel": 100
            },
            {
              "note": "G#3",
              "pitch": 68,
              "beat": 10.5,
              "dur": 1.345,
              "vel": 100
            },
            {
              "note": "E3",
              "pitch": 64,
              "beat": 12.0,
              "dur": 1.5,
              "vel": 100
            },
            {
              "note": "E3",
              "pitch": 64,
              "beat": 14.5,
              "dur": 0.75,
              "vel": 100
            },
            {
              "note": "E3",
              "pitch": 64,
              "beat": 15.319,
              "dur": 0.298,
              "vel": 100
            },
            {
              "note": "C4",
              "pitch": 72,
              "beat": 15.75,
              "dur": 0.176,
              "vel": 100
            }
          ]
        },
        {
          "bar_start": 64.0,
          "bar_end": 68.0,
          "name": "",
          "notes": [
            {
              "note": "C#3",
              "pitch": 61,
              "beat": 0.0,
              "dur": 1.878,
              "vel": 100
            },
            {
              "note": "C#3",
              "pitch": 61,
              "beat": 2.5,
              "dur": 1.345,
              "vel": 100
            },
            {
              "note": "C#3",
              "pitch": 61,
              "beat": 4.0,
              "dur": 1.5,
              "vel": 100
            },
            {
              "note": "C#3",
              "pitch": 61,
              "beat": 5.5,
              "dur": 0.5,
              "vel": 100
            },
            {
              "note": "C#3",
              "pitch": 61,
              "beat": 6.5,
              "dur": 0.75,
              "vel": 100
            },
            {
              "note": "C#3",
              "pitch": 61,
              "beat": 7.25,
              "dur": 0.75,
              "vel": 100
            },
            {
              "note": "C#3",
              "pitch": 61,
              "beat": 8.0,
              "dur": 1.878,
              "vel": 100
            },
            {
              "note": "C#3",
              "pitch": 61,
              "beat": 10.5,
              "dur": 1.345,
              "vel": 100
            },
            {
              "note": "C#3",
              "pitch": 61,
              "beat": 12.0,
              "dur": 1.5,
              "vel": 100
            },
            {
              "note": "C#3",
              "pitch": 61,
              "beat": 14.5,
              "dur": 0.75,
              "vel": 100
            },
            {
              "note": "C#3",
              "pitch": 61,
              "beat": 15.319,
              "dur": 0.298,
              "vel": 100
            },
            {
              "note": "C4",
              "pitch": 72,
              "beat": 15.75,
              "dur": 0.176,
              "vel": 100
            }
          ]
        },
        {
          "bar_start": 68.0,
          "bar_end": 72.0,
          "name": "",
          "notes": [
            {
              "note": "C#3",
              "pitch": 61,
              "beat": 0.0,
              "dur": 1.878,
              "vel": 100
            },
            {
              "note": "C#3",
              "pitch": 61,
              "beat": 2.5,
              "dur": 1.345,
              "vel": 100
            },
            {
              "note": "C#3",
              "pitch": 61,
              "beat": 4.0,
              "dur": 1.5,
              "vel": 100
            },
            {
              "note": "C#3",
              "pitch": 61,
              "beat": 5.5,
              "dur": 0.5,
              "vel": 100
            },
            {
              "note": "C#3",
              "pitch": 61,
              "beat": 6.5,
              "dur": 0.75,
              "vel": 100
            },
            {
              "note": "C#3",
              "pitch": 61,
              "beat": 7.25,
              "dur": 0.75,
              "vel": 100
            },
            {
              "note": "C#3",
              "pitch": 61,
              "beat": 8.0,
              "dur": 1.878,
              "vel": 100
            },
            {
              "note": "C#3",
              "pitch": 61,
              "beat": 10.5,
              "dur": 1.345,
              "vel": 100
            },
            {
              "note": "C#3",
              "pitch": 61,
              "beat": 12.0,
              "dur": 1.5,
              "vel": 100
            },
            {
              "note": "C#3",
              "pitch": 61,
              "beat": 14.5,
              "dur": 0.75,
              "vel": 100
            },
            {
              "note": "C#3",
              "pitch": 61,
              "beat": 15.319,
              "dur": 0.298,
              "vel": 100
            },
            {
              "note": "C4",
              "pitch": 72,
              "beat": 15.75,
              "dur": 0.176,
              "vel": 100
            }
          ]
        },
        {
          "bar_start": 72.0,
          "bar_end": 76.0,
          "name": "",
          "notes": [
            {
              "note": "G#3",
              "pitch": 68,
              "beat": 0.0,
              "dur": 1.878,
              "vel": 100
            },
            {
              "note": "G#3",
              "pitch": 68,
              "beat": 2.5,
              "dur": 1.345,
              "vel": 100
            },
            {
              "note": "E3",
              "pitch": 64,
              "beat": 4.0,
              "dur": 1.5,
              "vel": 100
            },
            {
              "note": "E3",
              "pitch": 64,
              "beat": 6.5,
              "dur": 0.75,
              "vel": 100
            },
            {
              "note": "E3",
              "pitch": 64,
              "beat": 7.25,
              "dur": 0.75,
              "vel": 100
            },
            {
              "note": "G#3",
              "pitch": 68,
              "beat": 8.0,
              "dur": 1.878,
              "vel": 100
            },
            {
              "note": "G#3",
              "pitch": 68,
              "beat": 10.5,
              "dur": 1.345,
              "vel": 100
            },
            {
              "note": "E3",
              "pitch": 64,
              "beat": 12.0,
              "dur": 1.5,
              "vel": 100
            },
            {
              "note": "E3",
              "pitch": 64,
              "beat": 14.5,
              "dur": 0.75,
              "vel": 100
            },
            {
              "note": "E3",
              "pitch": 64,
              "beat": 15.319,
              "dur": 0.298,
              "vel": 100
            },
            {
              "note": "C4",
              "pitch": 72,
              "beat": 15.75,
              "dur": 0.176,
              "vel": 100
            }
          ]
        },
        {
          "bar_start": 76.0,
          "bar_end": 78.0,
          "name": "",
          "notes": [
            {
              "note": "G#3",
              "pitch": 68,
              "beat": 0.0,
              "dur": 1.878,
              "vel": 100
            },
            {
              "note": "G#3",
              "pitch": 68,
              "beat": 2.5,
              "dur": 1.345,
              "vel": 100
            },
            {
              "note": "E3",
              "pitch": 64,
              "beat": 4.0,
              "dur": 1.5,
              "vel": 100
            },
            {
              "note": "E3",
              "pitch": 64,
              "beat": 6.5,
              "dur": 0.75,
              "vel": 100
            },
            {
              "note": "E3",
              "pitch": 64,
              "beat": 7.25,
              "dur": 0.75,
              "vel": 100
            },
            {
              "note": "G#3",
              "pitch": 68,
              "beat": 8.0,
              "dur": 1.878,
              "vel": 100
            },
            {
              "note": "G#3",
              "pitch": 68,
              "beat": 10.5,
              "dur": 1.345,
              "vel": 100
            },
            {
              "note": "E3",
              "pitch": 64,
              "beat": 12.0,
              "dur": 1.5,
              "vel": 100
            },
            {
              "note": "E3",
              "pitch": 64,
              "beat": 14.5,
              "dur": 0.75,
              "vel": 100
            },
            {
              "note": "E3",
              "pitch": 64,
              "beat": 15.319,
              "dur": 0.298,
              "vel": 100
            },
            {
              "note": "C4",
              "pitch": 72,
              "beat": 15.75,
              "dur": 0.176,
              "vel": 100
            }
          ]
        },
        {
          "bar_start": 79.5,
          "bar_end": 80.0,
          "name": "",
          "notes": [
            {
              "note": "G#3",
              "pitch": 68,
              "beat": 0.0,
              "dur": 1.878,
              "vel": 100
            },
            {
              "note": "G#3",
              "pitch": 68,
              "beat": 2.5,
              "dur": 1.345,
              "vel": 100
            },
            {
              "note": "E3",
              "pitch": 64,
              "beat": 4.0,
              "dur": 1.5,
              "vel": 100
            },
            {
              "note": "E3",
              "pitch": 64,
              "beat": 6.5,
              "dur": 0.75,
              "vel": 100
            },
            {
              "note": "E3",
              "pitch": 64,
              "beat": 7.25,
              "dur": 0.75,
              "vel": 100
            },
            {
              "note": "G#3",
              "pitch": 68,
              "beat": 8.0,
              "dur": 1.878,
              "vel": 100
            },
            {
              "note": "G#3",
              "pitch": 68,
              "beat": 10.5,
              "dur": 1.345,
              "vel": 100
            },
            {
              "note": "E3",
              "pitch": 64,
              "beat": 12.0,
              "dur": 1.5,
              "vel": 100
            },
            {
              "note": "E3",
              "pitch": 64,
              "beat": 14.5,
              "dur": 0.75,
              "vel": 100
            },
            {
              "note": "E3",
              "pitch": 64,
              "beat": 15.319,
              "dur": 0.298,
              "vel": 100
            },
            {
              "note": "C4",
              "pitch": 72,
              "beat": 15.75,
              "dur": 0.176,
              "vel": 100
            }
          ]
        },
        {
          "bar_start": 80.0,
          "bar_end": 84.0,
          "name": "",
          "notes": [
            {
              "note": "G#3",
              "pitch": 68,
              "beat": 0.0,
              "dur": 1.878,
              "vel": 100
            },
            {
              "note": "G#3",
              "pitch": 68,
              "beat": 2.5,
              "dur": 1.345,
              "vel": 100
            },
            {
              "note": "E3",
              "pitch": 64,
              "beat": 4.0,
              "dur": 1.5,
              "vel": 100
            },
            {
              "note": "E3",
              "pitch": 64,
              "beat": 6.5,
              "dur": 0.75,
              "vel": 100
            },
            {
              "note": "E3",
              "pitch": 64,
              "beat": 7.25,
              "dur": 0.75,
              "vel": 100
            },
            {
              "note": "G#3",
              "pitch": 68,
              "beat": 8.0,
              "dur": 1.878,
              "vel": 100
            },
            {
              "note": "G#3",
              "pitch": 68,
              "beat": 10.5,
              "dur": 1.345,
              "vel": 100
            },
            {
              "note": "E3",
              "pitch": 64,
              "beat": 12.0,
              "dur": 1.5,
              "vel": 100
            },
            {
              "note": "E3",
              "pitch": 64,
              "beat": 14.5,
              "dur": 0.75,
              "vel": 100
            },
            {
              "note": "E3",
              "pitch": 64,
              "beat": 15.319,
              "dur": 0.298,
              "vel": 100
            },
            {
              "note": "C4",
              "pitch": 72,
              "beat": 15.75,
              "dur": 0.176,
              "vel": 100
            }
          ]
        },
        {
          "bar_start": 84.0,
          "bar_end": 87.0,
          "name": "",
          "notes": [
            {
              "note": "G#3",
              "pitch": 68,
              "beat": 0.0,
              "dur": 1.878,
              "vel": 100
            },
            {
              "note": "G#3",
              "pitch": 68,
              "beat": 2.5,
              "dur": 1.345,
              "vel": 100
            },
            {
              "note": "E3",
              "pitch": 64,
              "beat": 4.0,
              "dur": 1.5,
              "vel": 100
            },
            {
              "note": "E3",
              "pitch": 64,
              "beat": 6.5,
              "dur": 0.75,
              "vel": 100
            },
            {
              "note": "E3",
              "pitch": 64,
              "beat": 7.25,
              "dur": 0.75,
              "vel": 100
            },
            {
              "note": "G#3",
              "pitch": 68,
              "beat": 8.0,
              "dur": 1.878,
              "vel": 100
            },
            {
              "note": "G#3",
              "pitch": 68,
              "beat": 10.5,
              "dur": 1.345,
              "vel": 100
            },
            {
              "note": "E3",
              "pitch": 64,
              "beat": 12.0,
              "dur": 1.5,
              "vel": 100
            },
            {
              "note": "E3",
              "pitch": 64,
              "beat": 14.5,
              "dur": 0.75,
              "vel": 100
            },
            {
              "note": "E3",
              "pitch": 64,
              "beat": 15.319,
              "dur": 0.298,
              "vel": 100
            },
            {
              "note": "C4",
              "pitch": 72,
              "beat": 15.75,
              "dur": 0.176,
              "vel": 100
            }
          ]
        }
      ],
      "automations": [],
      "children": []
    },
    "33": {
      "id": "33",
      "name": "Strings 1",
      "type": "MidiTrack",
      "group_id": "34",
      "devices": [
        {
          "type": "PluginDevice",
          "plugin": "Serum 2",
          "preset": "",
          "vst_params": []
        },
        {
          "type": "Eq8",
          "bands": []
        }
      ],
      "clips": [
        {
          "bar_start": 0.0,
          "bar_end": 8.0,
          "name": "",
          "notes": [
            {
              "note": "G2",
              "pitch": 55,
              "beat": 0.0,
              "dur": 0.625,
              "vel": 100
            },
            {
              "note": "G#2",
              "pitch": 56,
              "beat": 0.5,
              "dur": 0.625,
              "vel": 100
            },
            {
              "note": "C3",
              "pitch": 60,
              "beat": 1.0,
              "dur": 0.625,
              "vel": 100
            },
            {
              "note": "D#3",
              "pitch": 63,
              "beat": 1.5,
              "dur": 0.625,
              "vel": 100
            },
            {
              "note": "G3",
              "pitch": 67,
              "beat": 2.0,
              "dur": 0.625,
              "vel": 100
            },
            {
              "note": "G#3",
              "pitch": 68,
              "beat": 2.5,
              "dur": 0.625,
              "vel": 100
            },
            {
              "note": "C4",
              "pitch": 72,
              "beat": 3.0,
              "dur": 0.625,
              "vel": 100
            },
            {
              "note": "D#4",
              "pitch": 75,
              "beat": 3.5,
              "dur": 0.5,
              "vel": 100
            },
            {
              "note": "E4",
              "pitch": 76,
              "beat": 4.0,
              "dur": 4.0,
              "vel": 100
            }
          ]
        },
        {
          "bar_start": 8.0,
          "bar_end": 16.0,
          "name": "",
          "notes": [
            {
              "note": "G3",
              "pitch": 67,
              "beat": 0.0,
              "dur": 0.625,
              "vel": 100
            },
            {
              "note": "G#3",
              "pitch": 68,
              "beat": 0.5,
              "dur": 0.625,
              "vel": 100
            },
            {
              "note": "C4",
              "pitch": 72,
              "beat": 1.0,
              "dur": 0.625,
              "vel": 100
            },
            {
              "note": "D#4",
              "pitch": 75,
              "beat": 1.5,
              "dur": 0.625,
              "vel": 100
            },
            {
              "note": "G4",
              "pitch": 79,
              "beat": 2.0,
              "dur": 0.625,
              "vel": 100
            },
            {
              "note": "G#4",
              "pitch": 80,
              "beat": 2.5,
              "dur": 0.625,
              "vel": 100
            },
            {
              "note": "C5",
              "pitch": 84,
              "beat": 3.0,
              "dur": 0.625,
              "vel": 100
            },
            {
              "note": "D#5",
              "pitch": 87,
              "beat": 3.5,
              "dur": 0.5,
              "vel": 100
            },
            {
              "note": "E5",
              "pitch": 88,
              "beat": 4.0,
              "dur": 4.0,
              "vel": 100
            }
          ]
        },
        {
          "bar_start": 16.0,
          "bar_end": 20.0,
          "name": "",
          "notes": [
            {
              "note": "E5",
              "pitch": 88,
              "beat": 0.0,
              "dur": 16.0,
              "vel": 100
            }
          ]
        },
        {
          "bar_start": 20.0,
          "bar_end": 24.0,
          "name": "",
          "notes": [
            {
              "note": "E5",
              "pitch": 88,
              "beat": 0.0,
              "dur": 16.0,
              "vel": 100
            }
          ]
        },
        {
          "bar_start": 28.0,
          "bar_end": 32.0,
          "name": "",
          "notes": [
            {
              "note": "G2",
              "pitch": 55,
              "beat": 0.0,
              "dur": 0.625,
              "vel": 100
            },
            {
              "note": "G#2",
              "pitch": 56,
              "beat": 0.5,
              "dur": 0.625,
              "vel": 100
            },
            {
              "note": "C3",
              "pitch": 60,
              "beat": 1.0,
              "dur": 0.625,
              "vel": 100
            },
            {
              "note": "D#3",
              "pitch": 63,
              "beat": 1.5,
              "dur": 0.625,
              "vel": 100
            },
            {
              "note": "G3",
              "pitch": 67,
              "beat": 2.0,
              "dur": 0.625,
              "vel": 100
            },
            {
              "note": "G#3",
              "pitch": 68,
              "beat": 2.5,
              "dur": 0.625,
              "vel": 100
            },
            {
              "note": "C4",
              "pitch": 72,
              "beat": 3.0,
              "dur": 0.625,
              "vel": 100
            },
            {
              "note": "D#4",
              "pitch": 75,
              "beat": 3.5,
              "dur": 0.5,
              "vel": 100
            },
            {
              "note": "E4",
              "pitch": 76,
              "beat": 4.0,
              "dur": 4.0,
              "vel": 100
            }
          ]
        },
        {
          "bar_start": 32.0,
          "bar_end": 40.0,
          "name": "",
          "notes": [
            {
              "note": "G3",
              "pitch": 67,
              "beat": 0.0,
              "dur": 0.625,
              "vel": 100
            },
            {
              "note": "G#3",
              "pitch": 68,
              "beat": 0.5,
              "dur": 0.625,
              "vel": 100
            },
            {
              "note": "C4",
              "pitch": 72,
              "beat": 1.0,
              "dur": 0.625,
              "vel": 100
            },
            {
              "note": "D#4",
              "pitch": 75,
              "beat": 1.5,
              "dur": 0.625,
              "vel": 100
            },
            {
              "note": "G4",
              "pitch": 79,
              "beat": 2.0,
              "dur": 0.625,
              "vel": 100
            },
            {
              "note": "G#4",
              "pitch": 80,
              "beat": 2.5,
              "dur": 0.625,
              "vel": 100
            },
            {
              "note": "C5",
              "pitch": 84,
              "beat": 3.0,
              "dur": 0.625,
              "vel": 100
            },
            {
              "note": "D#5",
              "pitch": 87,
              "beat": 3.5,
              "dur": 0.5,
              "vel": 100
            },
            {
              "note": "E5",
              "pitch": 88,
              "beat": 4.0,
              "dur": 4.0,
              "vel": 100
            }
          ]
        },
        {
          "bar_start": 40.0,
          "bar_end": 44.0,
          "name": "",
          "notes": [
            {
              "note": "E5",
              "pitch": 88,
              "beat": 0.0,
              "dur": 16.0,
              "vel": 100
            }
          ]
        },
        {
          "bar_start": 44.0,
          "bar_end": 48.0,
          "name": "",
          "notes": [
            {
              "note": "E5",
              "pitch": 88,
              "beat": 0.0,
              "dur": 16.0,
              "vel": 100
            }
          ]
        },
        {
          "bar_start": 48.0,
          "bar_end": 52.0,
          "name": "",
          "notes": [
            {
              "note": "G2",
              "pitch": 55,
              "beat": 0.0,
              "dur": 0.625,
              "vel": 100
            },
            {
              "note": "G#2",
              "pitch": 56,
              "beat": 0.5,
              "dur": 0.625,
              "vel": 100
            },
            {
              "note": "C3",
              "pitch": 60,
              "beat": 1.0,
              "dur": 0.625,
              "vel": 100
            },
            {
              "note": "D#3",
              "pitch": 63,
              "beat": 1.5,
              "dur": 0.625,
              "vel": 100
            },
            {
              "note": "G3",
              "pitch": 67,
              "beat": 2.0,
              "dur": 0.625,
              "vel": 100
            },
            {
              "note": "G#3",
              "pitch": 68,
              "beat": 2.5,
              "dur": 0.625,
              "vel": 100
            },
            {
              "note": "C4",
              "pitch": 72,
              "beat": 3.0,
              "dur": 0.625,
              "vel": 100
            },
            {
              "note": "D#4",
              "pitch": 75,
              "beat": 3.5,
              "dur": 0.5,
              "vel": 100
            },
            {
              "note": "E4",
              "pitch": 76,
              "beat": 4.0,
              "dur": 4.0,
              "vel": 100
            }
          ]
        },
        {
          "bar_start": 52.0,
          "bar_end": 56.0,
          "name": "",
          "notes": [
            {
              "note": "G2",
              "pitch": 55,
              "beat": 0.0,
              "dur": 0.625,
              "vel": 100
            },
            {
              "note": "G#2",
              "pitch": 56,
              "beat": 0.5,
              "dur": 0.625,
              "vel": 100
            },
            {
              "note": "C3",
              "pitch": 60,
              "beat": 1.0,
              "dur": 0.625,
              "vel": 100
            },
            {
              "note": "D#3",
              "pitch": 63,
              "beat": 1.5,
              "dur": 0.625,
              "vel": 100
            },
            {
              "note": "G3",
              "pitch": 67,
              "beat": 2.0,
              "dur": 0.625,
              "vel": 100
            },
            {
              "note": "G#3",
              "pitch": 68,
              "beat": 2.5,
              "dur": 0.625,
              "vel": 100
            },
            {
              "note": "C4",
              "pitch": 72,
              "beat": 3.0,
              "dur": 0.625,
              "vel": 100
            },
            {
              "note": "D#4",
              "pitch": 75,
              "beat": 3.5,
              "dur": 0.5,
              "vel": 100
            },
            {
              "note": "E4",
              "pitch": 76,
              "beat": 4.0,
              "dur": 4.0,
              "vel": 100
            }
          ]
        },
        {
          "bar_start": 56.0,
          "bar_end": 64.0,
          "name": "",
          "notes": [
            {
              "note": "G3",
              "pitch": 67,
              "beat": 0.0,
              "dur": 0.625,
              "vel": 100
            },
            {
              "note": "G#3",
              "pitch": 68,
              "beat": 0.5,
              "dur": 0.625,
              "vel": 100
            },
            {
              "note": "C4",
              "pitch": 72,
              "beat": 1.0,
              "dur": 0.625,
              "vel": 100
            },
            {
              "note": "D#4",
              "pitch": 75,
              "beat": 1.5,
              "dur": 0.625,
              "vel": 100
            },
            {
              "note": "G4",
              "pitch": 79,
              "beat": 2.0,
              "dur": 0.625,
              "vel": 100
            },
            {
              "note": "G#4",
              "pitch": 80,
              "beat": 2.5,
              "dur": 0.625,
              "vel": 100
            },
            {
              "note": "C5",
              "pitch": 84,
              "beat": 3.0,
              "dur": 0.625,
              "vel": 100
            },
            {
              "note": "D#5",
              "pitch": 87,
              "beat": 3.5,
              "dur": 0.5,
              "vel": 100
            },
            {
              "note": "E5",
              "pitch": 88,
              "beat": 4.0,
              "dur": 4.0,
              "vel": 100
            }
          ]
        },
        {
          "bar_start": 64.0,
          "bar_end": 68.0,
          "name": "",
          "notes": [
            {
              "note": "E5",
              "pitch": 88,
              "beat": 0.0,
              "dur": 16.0,
              "vel": 100
            }
          ]
        },
        {
          "bar_start": 68.0,
          "bar_end": 72.0,
          "name": "",
          "notes": [
            {
              "note": "E5",
              "pitch": 88,
              "beat": 0.0,
              "dur": 16.0,
              "vel": 100
            }
          ]
        },
        {
          "bar_start": 76.0,
          "bar_end": 80.0,
          "name": "",
          "notes": [
            {
              "note": "G2",
              "pitch": 55,
              "beat": 0.0,
              "dur": 0.625,
              "vel": 100
            },
            {
              "note": "G#2",
              "pitch": 56,
              "beat": 0.5,
              "dur": 0.625,
              "vel": 100
            },
            {
              "note": "C3",
              "pitch": 60,
              "beat": 1.0,
              "dur": 0.625,
              "vel": 100
            },
            {
              "note": "D#3",
              "pitch": 63,
              "beat": 1.5,
              "dur": 0.625,
              "vel": 100
            },
            {
              "note": "G3",
              "pitch": 67,
              "beat": 2.0,
              "dur": 0.625,
              "vel": 100
            },
            {
              "note": "G#3",
              "pitch": 68,
              "beat": 2.5,
              "dur": 0.625,
              "vel": 100
            },
            {
              "note": "C4",
              "pitch": 72,
              "beat": 3.0,
              "dur": 0.625,
              "vel": 100
            },
            {
              "note": "D#4",
              "pitch": 75,
              "beat": 3.5,
              "dur": 0.5,
              "vel": 100
            },
            {
              "note": "E4",
              "pitch": 76,
              "beat": 4.0,
              "dur": 4.0,
              "vel": 100
            }
          ]
        },
        {
          "bar_start": 80.0,
          "bar_end": 88.0,
          "name": "",
          "notes": [
            {
              "note": "G3",
              "pitch": 67,
              "beat": 0.0,
              "dur": 0.625,
              "vel": 100
            },
            {
              "note": "G#3",
              "pitch": 68,
              "beat": 0.5,
              "dur": 0.625,
              "vel": 100
            },
            {
              "note": "C4",
              "pitch": 72,
              "beat": 1.0,
              "dur": 0.625,
              "vel": 100
            },
            {
              "note": "D#4",
              "pitch": 75,
              "beat": 1.5,
              "dur": 0.625,
              "vel": 100
            },
            {
              "note": "G4",
              "pitch": 79,
              "beat": 2.0,
              "dur": 0.625,
              "vel": 100
            },
            {
              "note": "G#4",
              "pitch": 80,
              "beat": 2.5,
              "dur": 0.625,
              "vel": 100
            },
            {
              "note": "C5",
              "pitch": 84,
              "beat": 3.0,
              "dur": 0.625,
              "vel": 100
            },
            {
              "note": "D#5",
              "pitch": 87,
              "beat": 3.5,
              "dur": 0.5,
              "vel": 100
            },
            {
              "note": "E5",
              "pitch": 88,
              "beat": 4.0,
              "dur": 4.0,
              "vel": 100
            }
          ]
        }
      ],
      "automations": [],
      "children": []
    },
    "28": {
      "id": "28",
      "name": "Strings 2",
      "type": "MidiTrack",
      "group_id": "34",
      "devices": [
        {
          "type": "PluginDevice",
          "plugin": "Serum 2",
          "preset": "",
          "vst_params": []
        },
        {
          "type": "Eq8",
          "bands": []
        },
        {
          "type": "Chorus",
          "On": "true",
          "DelayTime1": "3",
          "HighPassFreq": "1000",
          "DelayTime2": "7",
          "Delay2Mode": "2",
          "Link": "false",
          "ModAmount": "1.89999998",
          "ModFreq": "1.00999999",
          "LfoMultiplier": "false",
          "Feedback": "0",
          "FeedbackSign": "1",
          "DryWet": "0.3095238209"
        }
      ],
      "clips": [
        {
          "bar_start": 0.0,
          "bar_end": 8.0,
          "name": "",
          "notes": [
            {
              "note": "G2",
              "pitch": 55,
              "beat": 0.0,
              "dur": 0.625,
              "vel": 100
            },
            {
              "note": "G#2",
              "pitch": 56,
              "beat": 0.5,
              "dur": 0.625,
              "vel": 100
            },
            {
              "note": "C3",
              "pitch": 60,
              "beat": 1.0,
              "dur": 0.625,
              "vel": 100
            },
            {
              "note": "D#3",
              "pitch": 63,
              "beat": 1.5,
              "dur": 0.625,
              "vel": 100
            },
            {
              "note": "G3",
              "pitch": 67,
              "beat": 2.0,
              "dur": 0.625,
              "vel": 100
            },
            {
              "note": "G#3",
              "pitch": 68,
              "beat": 2.5,
              "dur": 0.625,
              "vel": 100
            },
            {
              "note": "C4",
              "pitch": 72,
              "beat": 3.0,
              "dur": 0.625,
              "vel": 100
            },
            {
              "note": "D#4",
              "pitch": 75,
              "beat": 3.5,
              "dur": 0.5,
              "vel": 100
            },
            {
              "note": "E4",
              "pitch": 76,
              "beat": 4.0,
              "dur": 4.0,
              "vel": 100
            }
          ]
        },
        {
          "bar_start": 8.0,
          "bar_end": 16.0,
          "name": "",
          "notes": [
            {
              "note": "G3",
              "pitch": 67,
              "beat": 0.0,
              "dur": 0.5,
              "vel": 100
            },
            {
              "note": "G#3",
              "pitch": 68,
              "beat": 0.5,
              "dur": 0.5,
              "vel": 100
            },
            {
              "note": "C4",
              "pitch": 72,
              "beat": 1.0,
              "dur": 0.5,
              "vel": 100
            },
            {
              "note": "D#4",
              "pitch": 75,
              "beat": 1.5,
              "dur": 0.5,
              "vel": 100
            },
            {
              "note": "G4",
              "pitch": 79,
              "beat": 2.0,
              "dur": 0.5,
              "vel": 100
            },
            {
              "note": "G#4",
              "pitch": 80,
              "beat": 2.5,
              "dur": 0.5,
              "vel": 100
            },
            {
              "note": "C5",
              "pitch": 84,
              "beat": 3.0,
              "dur": 0.5,
              "vel": 100
            },
            {
              "note": "D#5",
              "pitch": 87,
              "beat": 3.5,
              "dur": 0.5,
              "vel": 100
            }
          ]
        },
        {
          "bar_start": 28.0,
          "bar_end": 32.0,
          "name": "",
          "notes": [
            {
              "note": "G2",
              "pitch": 55,
              "beat": 0.0,
              "dur": 0.5,
              "vel": 100
            },
            {
              "note": "G#2",
              "pitch": 56,
              "beat": 0.5,
              "dur": 0.5,
              "vel": 100
            },
            {
              "note": "C3",
              "pitch": 60,
              "beat": 1.0,
              "dur": 0.5,
              "vel": 100
            },
            {
              "note": "D#3",
              "pitch": 63,
              "beat": 1.5,
              "dur": 0.5,
              "vel": 100
            },
            {
              "note": "G3",
              "pitch": 67,
              "beat": 2.0,
              "dur": 0.5,
              "vel": 100
            },
            {
              "note": "G#3",
              "pitch": 68,
              "beat": 2.5,
              "dur": 0.5,
              "vel": 100
            },
            {
              "note": "C4",
              "pitch": 72,
              "beat": 3.0,
              "dur": 0.5,
              "vel": 100
            },
            {
              "note": "D#4",
              "pitch": 75,
              "beat": 3.5,
              "dur": 0.5,
              "vel": 100
            }
          ]
        },
        {
          "bar_start": 32.0,
          "bar_end": 40.0,
          "name": "",
          "notes": [
            {
              "note": "G3",
              "pitch": 67,
              "beat": 0.0,
              "dur": 0.5,
              "vel": 100
            },
            {
              "note": "G#3",
              "pitch": 68,
              "beat": 0.5,
              "dur": 0.5,
              "vel": 100
            },
            {
              "note": "C4",
              "pitch": 72,
              "beat": 1.0,
              "dur": 0.5,
              "vel": 100
            },
            {
              "note": "D#4",
              "pitch": 75,
              "beat": 1.5,
              "dur": 0.5,
              "vel": 100
            },
            {
              "note": "G4",
              "pitch": 79,
              "beat": 2.0,
              "dur": 0.5,
              "vel": 100
            },
            {
              "note": "G#4",
              "pitch": 80,
              "beat": 2.5,
              "dur": 0.5,
              "vel": 100
            },
            {
              "note": "C5",
              "pitch": 84,
              "beat": 3.0,
              "dur": 0.5,
              "vel": 100
            },
            {
              "note": "D#5",
              "pitch": 87,
              "beat": 3.5,
              "dur": 0.5,
              "vel": 100
            }
          ]
        },
        {
          "bar_start": 48.0,
          "bar_end": 52.0,
          "name": "",
          "notes": [
            {
              "note": "G2",
              "pitch": 55,
              "beat": 0.0,
              "dur": 0.625,
              "vel": 100
            },
            {
              "note": "G#2",
              "pitch": 56,
              "beat": 0.5,
              "dur": 0.625,
              "vel": 100
            },
            {
              "note": "C3",
              "pitch": 60,
              "beat": 1.0,
              "dur": 0.625,
              "vel": 100
            },
            {
              "note": "D#3",
              "pitch": 63,
              "beat": 1.5,
              "dur": 0.625,
              "vel": 100
            },
            {
              "note": "G3",
              "pitch": 67,
              "beat": 2.0,
              "dur": 0.625,
              "vel": 100
            },
            {
              "note": "G#3",
              "pitch": 68,
              "beat": 2.5,
              "dur": 0.625,
              "vel": 100
            },
            {
              "note": "C4",
              "pitch": 72,
              "beat": 3.0,
              "dur": 0.625,
              "vel": 100
            },
            {
              "note": "D#4",
              "pitch": 75,
              "beat": 3.5,
              "dur": 0.5,
              "vel": 100
            },
            {
              "note": "E4",
              "pitch": 76,
              "beat": 4.0,
              "dur": 4.0,
              "vel": 100
            }
          ]
        },
        {
          "bar_start": 52.0,
          "bar_end": 56.0,
          "name": "",
          "notes": [
            {
              "note": "G2",
              "pitch": 55,
              "beat": 0.0,
              "dur": 0.625,
              "vel": 100
            },
            {
              "note": "G#2",
              "pitch": 56,
              "beat": 0.5,
              "dur": 0.625,
              "vel": 100
            },
            {
              "note": "C3",
              "pitch": 60,
              "beat": 1.0,
              "dur": 0.625,
              "vel": 100
            },
            {
              "note": "D#3",
              "pitch": 63,
              "beat": 1.5,
              "dur": 0.625,
              "vel": 100
            },
            {
              "note": "G3",
              "pitch": 67,
              "beat": 2.0,
              "dur": 0.625,
              "vel": 100
            },
            {
              "note": "G#3",
              "pitch": 68,
              "beat": 2.5,
              "dur": 0.625,
              "vel": 100
            },
            {
              "note": "C4",
              "pitch": 72,
              "beat": 3.0,
              "dur": 0.625,
              "vel": 100
            },
            {
              "note": "D#4",
              "pitch": 75,
              "beat": 3.5,
              "dur": 0.5,
              "vel": 100
            },
            {
              "note": "E4",
              "pitch": 76,
              "beat": 4.0,
              "dur": 4.0,
              "vel": 100
            }
          ]
        },
        {
          "bar_start": 56.0,
          "bar_end": 64.0,
          "name": "",
          "notes": [
            {
              "note": "G3",
              "pitch": 67,
              "beat": 0.0,
              "dur": 0.5,
              "vel": 100
            },
            {
              "note": "G#3",
              "pitch": 68,
              "beat": 0.5,
              "dur": 0.5,
              "vel": 100
            },
            {
              "note": "C4",
              "pitch": 72,
              "beat": 1.0,
              "dur": 0.5,
              "vel": 100
            },
            {
              "note": "D#4",
              "pitch": 75,
              "beat": 1.5,
              "dur": 0.5,
              "vel": 100
            },
            {
              "note": "G4",
              "pitch": 79,
              "beat": 2.0,
              "dur": 0.5,
              "vel": 100
            },
            {
              "note": "G#4",
              "pitch": 80,
              "beat": 2.5,
              "dur": 0.5,
              "vel": 100
            },
            {
              "note": "C5",
              "pitch": 84,
              "beat": 3.0,
              "dur": 0.5,
              "vel": 100
            },
            {
              "note": "D#5",
              "pitch": 87,
              "beat": 3.5,
              "dur": 0.5,
              "vel": 100
            }
          ]
        },
        {
          "bar_start": 76.0,
          "bar_end": 80.0,
          "name": "",
          "notes": [
            {
              "note": "G2",
              "pitch": 55,
              "beat": 0.0,
              "dur": 0.5,
              "vel": 100
            },
            {
              "note": "G#2",
              "pitch": 56,
              "beat": 0.5,
              "dur": 0.5,
              "vel": 100
            },
            {
              "note": "C3",
              "pitch": 60,
              "beat": 1.0,
              "dur": 0.5,
              "vel": 100
            },
            {
              "note": "D#3",
              "pitch": 63,
              "beat": 1.5,
              "dur": 0.5,
              "vel": 100
            },
            {
              "note": "G3",
              "pitch": 67,
              "beat": 2.0,
              "dur": 0.5,
              "vel": 100
            },
            {
              "note": "G#3",
              "pitch": 68,
              "beat": 2.5,
              "dur": 0.5,
              "vel": 100
            },
            {
              "note": "C4",
              "pitch": 72,
              "beat": 3.0,
              "dur": 0.5,
              "vel": 100
            },
            {
              "note": "D#4",
              "pitch": 75,
              "beat": 3.5,
              "dur": 0.5,
              "vel": 100
            }
          ]
        },
        {
          "bar_start": 80.0,
          "bar_end": 88.0,
          "name": "",
          "notes": [
            {
              "note": "G3",
              "pitch": 67,
              "beat": 0.0,
              "dur": 0.5,
              "vel": 100
            },
            {
              "note": "G#3",
              "pitch": 68,
              "beat": 0.5,
              "dur": 0.5,
              "vel": 100
            },
            {
              "note": "C4",
              "pitch": 72,
              "beat": 1.0,
              "dur": 0.5,
              "vel": 100
            },
            {
              "note": "D#4",
              "pitch": 75,
              "beat": 1.5,
              "dur": 0.5,
              "vel": 100
            },
            {
              "note": "G4",
              "pitch": 79,
              "beat": 2.0,
              "dur": 0.5,
              "vel": 100
            },
            {
              "note": "G#4",
              "pitch": 80,
              "beat": 2.5,
              "dur": 0.5,
              "vel": 100
            },
            {
              "note": "C5",
              "pitch": 84,
              "beat": 3.0,
              "dur": 0.5,
              "vel": 100
            },
            {
              "note": "D#5",
              "pitch": 87,
              "beat": 3.5,
              "dur": 0.5,
              "vel": 100
            }
          ]
        }
      ],
      "automations": [],
      "children": []
    },
    "35": {
      "id": "35",
      "name": "Strings 3",
      "type": "MidiTrack",
      "group_id": "34",
      "devices": [
        {
          "type": "PluginDevice",
          "plugin": "Serum 2",
          "preset": "",
          "vst_params": []
        },
        {
          "type": "Eq8",
          "bands": []
        }
      ],
      "clips": [
        {
          "bar_start": 8.0,
          "bar_end": 16.0,
          "name": "",
          "notes": [
            {
              "note": "G3",
              "pitch": 67,
              "beat": 0.0,
              "dur": 0.625,
              "vel": 100
            },
            {
              "note": "G#3",
              "pitch": 68,
              "beat": 0.5,
              "dur": 0.625,
              "vel": 100
            },
            {
              "note": "C4",
              "pitch": 72,
              "beat": 1.0,
              "dur": 0.625,
              "vel": 100
            },
            {
              "note": "D#4",
              "pitch": 75,
              "beat": 1.5,
              "dur": 0.625,
              "vel": 100
            },
            {
              "note": "G4",
              "pitch": 79,
              "beat": 2.0,
              "dur": 0.625,
              "vel": 100
            },
            {
              "note": "G#4",
              "pitch": 80,
              "beat": 2.5,
              "dur": 0.625,
              "vel": 100
            },
            {
              "note": "C5",
              "pitch": 84,
              "beat": 3.0,
              "dur": 0.625,
              "vel": 100
            },
            {
              "note": "D#5",
              "pitch": 87,
              "beat": 3.5,
              "dur": 0.5,
              "vel": 100
            }
          ]
        },
        {
          "bar_start": 32.0,
          "bar_end": 40.0,
          "name": "",
          "notes": [
            {
              "note": "G3",
              "pitch": 67,
              "beat": 0.0,
              "dur": 0.625,
              "vel": 100
            },
            {
              "note": "G#3",
              "pitch": 68,
              "beat": 0.5,
              "dur": 0.625,
              "vel": 100
            },
            {
              "note": "C4",
              "pitch": 72,
              "beat": 1.0,
              "dur": 0.625,
              "vel": 100
            },
            {
              "note": "D#4",
              "pitch": 75,
              "beat": 1.5,
              "dur": 0.625,
              "vel": 100
            },
            {
              "note": "G4",
              "pitch": 79,
              "beat": 2.0,
              "dur": 0.625,
              "vel": 100
            },
            {
              "note": "G#4",
              "pitch": 80,
              "beat": 2.5,
              "dur": 0.625,
              "vel": 100
            },
            {
              "note": "C5",
              "pitch": 84,
              "beat": 3.0,
              "dur": 0.625,
              "vel": 100
            },
            {
              "note": "D#5",
              "pitch": 87,
              "beat": 3.5,
              "dur": 0.5,
              "vel": 100
            }
          ]
        },
        {
          "bar_start": 56.0,
          "bar_end": 64.0,
          "name": "",
          "notes": [
            {
              "note": "G3",
              "pitch": 67,
              "beat": 0.0,
              "dur": 0.625,
              "vel": 100
            },
            {
              "note": "G#3",
              "pitch": 68,
              "beat": 0.5,
              "dur": 0.625,
              "vel": 100
            },
            {
              "note": "C4",
              "pitch": 72,
              "beat": 1.0,
              "dur": 0.625,
              "vel": 100
            },
            {
              "note": "D#4",
              "pitch": 75,
              "beat": 1.5,
              "dur": 0.625,
              "vel": 100
            },
            {
              "note": "G4",
              "pitch": 79,
              "beat": 2.0,
              "dur": 0.625,
              "vel": 100
            },
            {
              "note": "G#4",
              "pitch": 80,
              "beat": 2.5,
              "dur": 0.625,
              "vel": 100
            },
            {
              "note": "C5",
              "pitch": 84,
              "beat": 3.0,
              "dur": 0.625,
              "vel": 100
            },
            {
              "note": "D#5",
              "pitch": 87,
              "beat": 3.5,
              "dur": 0.5,
              "vel": 100
            }
          ]
        },
        {
          "bar_start": 80.0,
          "bar_end": 88.0,
          "name": "",
          "notes": [
            {
              "note": "G3",
              "pitch": 67,
              "beat": 0.0,
              "dur": 0.625,
              "vel": 100
            },
            {
              "note": "G#3",
              "pitch": 68,
              "beat": 0.5,
              "dur": 0.625,
              "vel": 100
            },
            {
              "note": "C4",
              "pitch": 72,
              "beat": 1.0,
              "dur": 0.625,
              "vel": 100
            },
            {
              "note": "D#4",
              "pitch": 75,
              "beat": 1.5,
              "dur": 0.625,
              "vel": 100
            },
            {
              "note": "G4",
              "pitch": 79,
              "beat": 2.0,
              "dur": 0.625,
              "vel": 100
            },
            {
              "note": "G#4",
              "pitch": 80,
              "beat": 2.5,
              "dur": 0.625,
              "vel": 100
            },
            {
              "note": "C5",
              "pitch": 84,
              "beat": 3.0,
              "dur": 0.625,
              "vel": 100
            },
            {
              "note": "D#5",
              "pitch": 87,
              "beat": 3.5,
              "dur": 0.5,
              "vel": 100
            }
          ]
        }
      ],
      "automations": [],
      "children": []
    },
    "37": {
      "id": "37",
      "name": "Saw",
      "type": "MidiTrack",
      "group_id": "40",
      "devices": [
        {
          "type": "PluginDevice",
          "plugin": "Serum 2",
          "preset": "",
          "vst_params": []
        },
        {
          "type": "Eq8",
          "bands": []
        }
      ],
      "clips": [
        {
          "bar_start": 8.0,
          "bar_end": 16.0,
          "name": "",
          "notes": [
            {
              "note": "G3",
              "pitch": 67,
              "beat": 0.0,
              "dur": 0.625,
              "vel": 100
            },
            {
              "note": "G#3",
              "pitch": 68,
              "beat": 0.5,
              "dur": 0.625,
              "vel": 100
            },
            {
              "note": "C4",
              "pitch": 72,
              "beat": 1.0,
              "dur": 0.625,
              "vel": 100
            },
            {
              "note": "D#4",
              "pitch": 75,
              "beat": 1.5,
              "dur": 0.625,
              "vel": 100
            },
            {
              "note": "G4",
              "pitch": 79,
              "beat": 2.0,
              "dur": 0.625,
              "vel": 100
            },
            {
              "note": "G#4",
              "pitch": 80,
              "beat": 2.5,
              "dur": 0.625,
              "vel": 100
            },
            {
              "note": "C5",
              "pitch": 84,
              "beat": 3.0,
              "dur": 0.625,
              "vel": 100
            },
            {
              "note": "D#5",
              "pitch": 87,
              "beat": 3.5,
              "dur": 0.5,
              "vel": 100
            },
            {
              "note": "E5",
              "pitch": 88,
              "beat": 4.0,
              "dur": 4.0,
              "vel": 100
            }
          ]
        },
        {
          "bar_start": 16.0,
          "bar_end": 20.0,
          "name": "",
          "notes": [
            {
              "note": "E5",
              "pitch": 88,
              "beat": 0.0,
              "dur": 16.0,
              "vel": 100
            }
          ]
        },
        {
          "bar_start": 20.0,
          "bar_end": 24.0,
          "name": "",
          "notes": [
            {
              "note": "E5",
              "pitch": 88,
              "beat": 0.0,
              "dur": 16.0,
              "vel": 100
            }
          ]
        },
        {
          "bar_start": 32.0,
          "bar_end": 40.0,
          "name": "",
          "notes": [
            {
              "note": "G3",
              "pitch": 67,
              "beat": 0.0,
              "dur": 0.625,
              "vel": 100
            },
            {
              "note": "G#3",
              "pitch": 68,
              "beat": 0.5,
              "dur": 0.625,
              "vel": 100
            },
            {
              "note": "C4",
              "pitch": 72,
              "beat": 1.0,
              "dur": 0.625,
              "vel": 100
            },
            {
              "note": "D#4",
              "pitch": 75,
              "beat": 1.5,
              "dur": 0.625,
              "vel": 100
            },
            {
              "note": "G4",
              "pitch": 79,
              "beat": 2.0,
              "dur": 0.625,
              "vel": 100
            },
            {
              "note": "G#4",
              "pitch": 80,
              "beat": 2.5,
              "dur": 0.625,
              "vel": 100
            },
            {
              "note": "C5",
              "pitch": 84,
              "beat": 3.0,
              "dur": 0.625,
              "vel": 100
            },
            {
              "note": "D#5",
              "pitch": 87,
              "beat": 3.5,
              "dur": 0.5,
              "vel": 100
            },
            {
              "note": "E5",
              "pitch": 88,
              "beat": 4.0,
              "dur": 4.0,
              "vel": 100
            }
          ]
        },
        {
          "bar_start": 40.0,
          "bar_end": 44.0,
          "name": "",
          "notes": [
            {
              "note": "E5",
              "pitch": 88,
              "beat": 0.0,
              "dur": 16.0,
              "vel": 100
            }
          ]
        },
        {
          "bar_start": 44.0,
          "bar_end": 48.0,
          "name": "",
          "notes": [
            {
              "note": "E5",
              "pitch": 88,
              "beat": 0.0,
              "dur": 16.0,
              "vel": 100
            }
          ]
        },
        {
          "bar_start": 56.0,
          "bar_end": 64.0,
          "name": "",
          "notes": [
            {
              "note": "G3",
              "pitch": 67,
              "beat": 0.0,
              "dur": 0.625,
              "vel": 100
            },
            {
              "note": "G#3",
              "pitch": 68,
              "beat": 0.5,
              "dur": 0.625,
              "vel": 100
            },
            {
              "note": "C4",
              "pitch": 72,
              "beat": 1.0,
              "dur": 0.625,
              "vel": 100
            },
            {
              "note": "D#4",
              "pitch": 75,
              "beat": 1.5,
              "dur": 0.625,
              "vel": 100
            },
            {
              "note": "G4",
              "pitch": 79,
              "beat": 2.0,
              "dur": 0.625,
              "vel": 100
            },
            {
              "note": "G#4",
              "pitch": 80,
              "beat": 2.5,
              "dur": 0.625,
              "vel": 100
            },
            {
              "note": "C5",
              "pitch": 84,
              "beat": 3.0,
              "dur": 0.625,
              "vel": 100
            },
            {
              "note": "D#5",
              "pitch": 87,
              "beat": 3.5,
              "dur": 0.5,
              "vel": 100
            },
            {
              "note": "E5",
              "pitch": 88,
              "beat": 4.0,
              "dur": 4.0,
              "vel": 100
            }
          ]
        },
        {
          "bar_start": 64.0,
          "bar_end": 68.0,
          "name": "",
          "notes": [
            {
              "note": "E5",
              "pitch": 88,
              "beat": 0.0,
              "dur": 16.0,
              "vel": 100
            }
          ]
        },
        {
          "bar_start": 68.0,
          "bar_end": 72.0,
          "name": "",
          "notes": [
            {
              "note": "E5",
              "pitch": 88,
              "beat": 0.0,
              "dur": 16.0,
              "vel": 100
            }
          ]
        }
      ],
      "automations": [],
      "children": []
    },
    "38": {
      "id": "38",
      "name": "Chord",
      "type": "MidiTrack",
      "group_id": "40",
      "devices": [
        {
          "type": "PluginDevice",
          "plugin": "Serum 2",
          "preset": "",
          "vst_params": []
        },
        {
          "type": "Eq8",
          "bands": []
        },
        {
          "type": "StereoGain",
          "On": "true",
          "PhaseInvertL": "false",
          "PhaseInvertR": "false",
          "ChannelMode": "1",
          "StereoWidth": "0.6298816204",
          "MidSideBalance": "1",
          "Mono": "false",
          "BassMono": "false",
          "BassMonoFrequency": "120",
          "Balance": "0",
          "Gain": "1",
          "LegacyGain": "0",
          "Mute": "false",
          "DcFilter": "false"
        },
        {
          "type": "MultibandDynamics",
          "DryWet": "1"
        }
      ],
      "clips": [
        {
          "bar_start": 0.0,
          "bar_end": 8.0,
          "name": "",
          "notes": [
            {
              "note": "C3",
              "pitch": 60,
              "beat": 0.0,
              "dur": 0.75,
              "vel": 100
            },
            {
              "note": "D#3",
              "pitch": 63,
              "beat": 0.0,
              "dur": 0.5,
              "vel": 100
            },
            {
              "note": "G#3",
              "pitch": 68,
              "beat": 0.0,
              "dur": 0.5,
              "vel": 100
            },
            {
              "note": "D#3",
              "pitch": 63,
              "beat": 0.5,
              "dur": 0.5,
              "vel": 100
            },
            {
              "note": "C3",
              "pitch": 60,
              "beat": 1.0,
              "dur": 1.0,
              "vel": 100
            },
            {
              "note": "G#2",
              "pitch": 56,
              "beat": 2.0,
              "dur": 0.5,
              "vel": 100
            },
            {
              "note": "C3",
              "pitch": 60,
              "beat": 2.5,
              "dur": 0.5,
              "vel": 100
            },
            {
              "note": "D#3",
              "pitch": 63,
              "beat": 3.0,
              "dur": 0.5,
              "vel": 100
            },
            {
              "note": "A#2",
              "pitch": 58,
              "beat": 3.5,
              "dur": 0.5,
              "vel": 100
            },
            {
              "note": "G#3",
              "pitch": 68,
              "beat": 4.0,
              "dur": 1.0,
              "vel": 100
            },
            {
              "note": "B3",
              "pitch": 71,
              "beat": 4.0,
              "dur": 1.0,
              "vel": 100
            },
            {
              "note": "E4",
              "pitch": 76,
              "beat": 4.0,
              "dur": 1.0,
              "vel": 100
            },
            {
              "note": "F#3",
              "pitch": 66,
              "beat": 5.0,
              "dur": 1.0,
              "vel": 100
            },
            {
              "note": "B3",
              "pitch": 71,
              "beat": 5.0,
              "dur": 1.0,
              "vel": 100
            },
            {
              "note": "D#4",
              "pitch": 75,
              "beat": 5.0,
              "dur": 1.0,
              "vel": 100
            },
            {
              "note": "G#3",
              "pitch": 68,
              "beat": 6.0,
              "dur": 1.0,
              "vel": 100
            },
            {
              "note": "C#4",
              "pitch": 73,
              "beat": 6.0,
              "dur": 1.0,
              "vel": 100
            },
            {
              "note": "E3",
              "pitch": 64,
              "beat": 7.0,
              "dur": 1.0,
              "vel": 100
            },
            {
              "note": "B3",
              "pitch": 71,
              "beat": 7.0,
              "dur": 1.0,
              "vel": 100
            }
          ]
        },
        {
          "bar_start": 9.0,
          "bar_end": 16.0,
          "name": "",
          "notes": [
            {
              "note": "C3",
              "pitch": 60,
              "beat": 0.0,
              "dur": 0.75,
              "vel": 100
            },
            {
              "note": "D#3",
              "pitch": 63,
              "beat": 0.0,
              "dur": 0.5,
              "vel": 100
            },
            {
              "note": "G#3",
              "pitch": 68,
              "beat": 0.0,
              "dur": 0.5,
              "vel": 100
            },
            {
              "note": "D#3",
              "pitch": 63,
              "beat": 0.5,
              "dur": 0.5,
              "vel": 100
            },
            {
              "note": "C3",
              "pitch": 60,
              "beat": 1.0,
              "dur": 1.0,
              "vel": 100
            },
            {
              "note": "G#2",
              "pitch": 56,
              "beat": 2.0,
              "dur": 0.5,
              "vel": 100
            },
            {
              "note": "C3",
              "pitch": 60,
              "beat": 2.5,
              "dur": 0.5,
              "vel": 100
            },
            {
              "note": "D#3",
              "pitch": 63,
              "beat": 3.0,
              "dur": 0.5,
              "vel": 100
            },
            {
              "note": "A#2",
              "pitch": 58,
              "beat": 3.5,
              "dur": 0.5,
              "vel": 100
            },
            {
              "note": "G#3",
              "pitch": 68,
              "beat": 4.0,
              "dur": 1.0,
              "vel": 100
            },
            {
              "note": "B3",
              "pitch": 71,
              "beat": 4.0,
              "dur": 1.0,
              "vel": 100
            },
            {
              "note": "E4",
              "pitch": 76,
              "beat": 4.0,
              "dur": 1.0,
              "vel": 100
            },
            {
              "note": "F#3",
              "pitch": 66,
              "beat": 5.0,
              "dur": 1.0,
              "vel": 100
            },
            {
              "note": "B3",
              "pitch": 71,
              "beat": 5.0,
              "dur": 1.0,
              "vel": 100
            },
            {
              "note": "D#4",
              "pitch": 75,
              "beat": 5.0,
              "dur": 1.0,
              "vel": 100
            },
            {
              "note": "G#3",
              "pitch": 68,
              "beat": 6.0,
              "dur": 1.0,
              "vel": 100
            },
            {
              "note": "C#4",
              "pitch": 73,
              "beat": 6.0,
              "dur": 1.0,
              "vel": 100
            },
            {
              "note": "E3",
              "pitch": 64,
              "beat": 7.0,
              "dur": 1.0,
              "vel": 100
            },
            {
              "note": "B3",
              "pitch": 71,
              "beat": 7.0,
              "dur": 1.0,
              "vel": 100
            }
          ]
        },
        {
          "bar_start": 16.0,
          "bar_end": 24.0,
          "name": "",
          "notes": [
            {
              "note": "E4",
              "pitch": 76,
              "beat": 0.0,
              "dur": 2.0,
              "vel": 100
            },
            {
              "note": "G#4",
              "pitch": 80,
              "beat": 0.0,
              "dur": 2.0,
              "vel": 100
            },
            {
              "note": "C#5",
              "pitch": 85,
              "beat": 0.0,
              "dur": 2.0,
              "vel": 100
            },
            {
              "note": "G#3",
              "pitch": 68,
              "beat": 2.0,
              "dur": 2.0,
              "vel": 100
            },
            {
              "note": "E4",
              "pitch": 76,
              "beat": 2.0,
              "dur": 2.0,
              "vel": 100
            },
            {
              "note": "G#4",
              "pitch": 80,
              "beat": 2.0,
              "dur": 2.0,
              "vel": 100
            },
            {
              "note": "G#3",
              "pitch": 68,
              "beat": 4.0,
              "dur": 2.0,
              "vel": 100
            },
            {
              "note": "E4",
              "pitch": 76,
              "beat": 4.0,
              "dur": 2.0,
              "vel": 100
            },
            {
              "note": "G#3",
              "pitch": 68,
              "beat": 6.0,
              "dur": 2.0,
              "vel": 100
            },
            {
              "note": "C#4",
              "pitch": 73,
              "beat": 6.0,
              "dur": 2.0,
              "vel": 100
            }
          ]
        },
        {
          "bar_start": 24.0,
          "bar_end": 32.0,
          "name": "",
          "notes": [
            {
              "note": "C3",
              "pitch": 60,
              "beat": 0.0,
              "dur": 0.75,
              "vel": 100
            },
            {
              "note": "D#3",
              "pitch": 63,
              "beat": 0.0,
              "dur": 0.5,
              "vel": 100
            },
            {
              "note": "G#3",
              "pitch": 68,
              "beat": 0.0,
              "dur": 0.5,
              "vel": 100
            },
            {
              "note": "D#3",
              "pitch": 63,
              "beat": 0.5,
              "dur": 0.5,
              "vel": 100
            },
            {
              "note": "C3",
              "pitch": 60,
              "beat": 1.0,
              "dur": 1.0,
              "vel": 100
            },
            {
              "note": "G#2",
              "pitch": 56,
              "beat": 2.0,
              "dur": 0.5,
              "vel": 100
            },
            {
              "note": "C3",
              "pitch": 60,
              "beat": 2.5,
              "dur": 0.5,
              "vel": 100
            },
            {
              "note": "D#3",
              "pitch": 63,
              "beat": 3.0,
              "dur": 0.5,
              "vel": 100
            },
            {
              "note": "A#2",
              "pitch": 58,
              "beat": 3.5,
              "dur": 0.5,
              "vel": 100
            },
            {
              "note": "G#3",
              "pitch": 68,
              "beat": 4.0,
              "dur": 1.0,
              "vel": 100
            },
            {
              "note": "B3",
              "pitch": 71,
              "beat": 4.0,
              "dur": 1.0,
              "vel": 100
            },
            {
              "note": "E4",
              "pitch": 76,
              "beat": 4.0,
              "dur": 1.0,
              "vel": 100
            },
            {
              "note": "F#3",
              "pitch": 66,
              "beat": 5.0,
              "dur": 1.0,
              "vel": 100
            },
            {
              "note": "B3",
              "pitch": 71,
              "beat": 5.0,
              "dur": 1.0,
              "vel": 100
            },
            {
              "note": "D#4",
              "pitch": 75,
              "beat": 5.0,
              "dur": 1.0,
              "vel": 100
            },
            {
              "note": "G#3",
              "pitch": 68,
              "beat": 6.0,
              "dur": 1.0,
              "vel": 100
            },
            {
              "note": "C#4",
              "pitch": 73,
              "beat": 6.0,
              "dur": 1.0,
              "vel": 100
            },
            {
              "note": "E3",
              "pitch": 64,
              "beat": 7.0,
              "dur": 1.0,
              "vel": 100
            },
            {
              "note": "B3",
              "pitch": 71,
              "beat": 7.0,
              "dur": 1.0,
              "vel": 100
            }
          ]
        },
        {
          "bar_start": 33.0,
          "bar_end": 40.0,
          "name": "",
          "notes": [
            {
              "note": "C3",
              "pitch": 60,
              "beat": 0.0,
              "dur": 0.75,
              "vel": 100
            },
            {
              "note": "D#3",
              "pitch": 63,
              "beat": 0.0,
              "dur": 0.5,
              "vel": 100
            },
            {
              "note": "G#3",
              "pitch": 68,
              "beat": 0.0,
              "dur": 0.5,
              "vel": 100
            },
            {
              "note": "D#3",
              "pitch": 63,
              "beat": 0.5,
              "dur": 0.5,
              "vel": 100
            },
            {
              "note": "C3",
              "pitch": 60,
              "beat": 1.0,
              "dur": 1.0,
              "vel": 100
            },
            {
              "note": "G#2",
              "pitch": 56,
              "beat": 2.0,
              "dur": 0.5,
              "vel": 100
            },
            {
              "note": "C3",
              "pitch": 60,
              "beat": 2.5,
              "dur": 0.5,
              "vel": 100
            },
            {
              "note": "D#3",
              "pitch": 63,
              "beat": 3.0,
              "dur": 0.5,
              "vel": 100
            },
            {
              "note": "A#2",
              "pitch": 58,
              "beat": 3.5,
              "dur": 0.5,
              "vel": 100
            },
            {
              "note": "G#3",
              "pitch": 68,
              "beat": 4.0,
              "dur": 1.0,
              "vel": 100
            },
            {
              "note": "B3",
              "pitch": 71,
              "beat": 4.0,
              "dur": 1.0,
              "vel": 100
            },
            {
              "note": "E4",
              "pitch": 76,
              "beat": 4.0,
              "dur": 1.0,
              "vel": 100
            },
            {
              "note": "F#3",
              "pitch": 66,
              "beat": 5.0,
              "dur": 1.0,
              "vel": 100
            },
            {
              "note": "B3",
              "pitch": 71,
              "beat": 5.0,
              "dur": 1.0,
              "vel": 100
            },
            {
              "note": "D#4",
              "pitch": 75,
              "beat": 5.0,
              "dur": 1.0,
              "vel": 100
            },
            {
              "note": "G#3",
              "pitch": 68,
              "beat": 6.0,
              "dur": 1.0,
              "vel": 100
            },
            {
              "note": "C#4",
              "pitch": 73,
              "beat": 6.0,
              "dur": 1.0,
              "vel": 100
            },
            {
              "note": "E3",
              "pitch": 64,
              "beat": 7.0,
              "dur": 1.0,
              "vel": 100
            },
            {
              "note": "B3",
              "pitch": 71,
              "beat": 7.0,
              "dur": 1.0,
              "vel": 100
            }
          ]
        },
        {
          "bar_start": 40.0,
          "bar_end": 48.0,
          "name": "",
          "notes": [
            {
              "note": "E4",
              "pitch": 76,
              "beat": 0.0,
              "dur": 2.0,
              "vel": 100
            },
            {
              "note": "G#4",
              "pitch": 80,
              "beat": 0.0,
              "dur": 2.0,
              "vel": 100
            },
            {
              "note": "C#5",
              "pitch": 85,
              "beat": 0.0,
              "dur": 2.0,
              "vel": 100
            },
            {
              "note": "G#3",
              "pitch": 68,
              "beat": 2.0,
              "dur": 2.0,
              "vel": 100
            },
            {
              "note": "E4",
              "pitch": 76,
              "beat": 2.0,
              "dur": 2.0,
              "vel": 100
            },
            {
              "note": "G#4",
              "pitch": 80,
              "beat": 2.0,
              "dur": 2.0,
              "vel": 100
            },
            {
              "note": "G#3",
              "pitch": 68,
              "beat": 4.0,
              "dur": 2.0,
              "vel": 100
            },
            {
              "note": "E4",
              "pitch": 76,
              "beat": 4.0,
              "dur": 2.0,
              "vel": 100
            },
            {
              "note": "G#3",
              "pitch": 68,
              "beat": 6.0,
              "dur": 2.0,
              "vel": 100
            },
            {
              "note": "C#4",
              "pitch": 73,
              "beat": 6.0,
              "dur": 2.0,
              "vel": 100
            }
          ]
        },
        {
          "bar_start": 48.0,
          "bar_end": 52.0,
          "name": "",
          "notes": [
            {
              "note": "C3",
              "pitch": 60,
              "beat": 0.0,
              "dur": 0.75,
              "vel": 100
            },
            {
              "note": "D#3",
              "pitch": 63,
              "beat": 0.0,
              "dur": 0.5,
              "vel": 100
            },
            {
              "note": "G#3",
              "pitch": 68,
              "beat": 0.0,
              "dur": 0.5,
              "vel": 100
            },
            {
              "note": "D#3",
              "pitch": 63,
              "beat": 0.5,
              "dur": 0.5,
              "vel": 100
            },
            {
              "note": "C3",
              "pitch": 60,
              "beat": 1.0,
              "dur": 1.0,
              "vel": 100
            },
            {
              "note": "G#2",
              "pitch": 56,
              "beat": 2.0,
              "dur": 0.5,
              "vel": 100
            },
            {
              "note": "C3",
              "pitch": 60,
              "beat": 2.5,
              "dur": 0.5,
              "vel": 100
            },
            {
              "note": "D#3",
              "pitch": 63,
              "beat": 3.0,
              "dur": 0.5,
              "vel": 100
            },
            {
              "note": "A#2",
              "pitch": 58,
              "beat": 3.5,
              "dur": 0.5,
              "vel": 100
            },
            {
              "note": "G#3",
              "pitch": 68,
              "beat": 4.0,
              "dur": 1.0,
              "vel": 100
            },
            {
              "note": "B3",
              "pitch": 71,
              "beat": 4.0,
              "dur": 1.0,
              "vel": 100
            },
            {
              "note": "E4",
              "pitch": 76,
              "beat": 4.0,
              "dur": 1.0,
              "vel": 100
            },
            {
              "note": "F#3",
              "pitch": 66,
              "beat": 5.0,
              "dur": 1.0,
              "vel": 100
            },
            {
              "note": "B3",
              "pitch": 71,
              "beat": 5.0,
              "dur": 1.0,
              "vel": 100
            },
            {
              "note": "D#4",
              "pitch": 75,
              "beat": 5.0,
              "dur": 1.0,
              "vel": 100
            },
            {
              "note": "G#3",
              "pitch": 68,
              "beat": 6.0,
              "dur": 1.0,
              "vel": 100
            },
            {
              "note": "C#4",
              "pitch": 73,
              "beat": 6.0,
              "dur": 1.0,
              "vel": 100
            },
            {
              "note": "E3",
              "pitch": 64,
              "beat": 7.0,
              "dur": 1.0,
              "vel": 100
            },
            {
              "note": "B3",
              "pitch": 71,
              "beat": 7.0,
              "dur": 1.0,
              "vel": 100
            }
          ]
        },
        {
          "bar_start": 52.0,
          "bar_end": 56.0,
          "name": "",
          "notes": [
            {
              "note": "C3",
              "pitch": 60,
              "beat": 0.0,
              "dur": 0.75,
              "vel": 100
            },
            {
              "note": "D#3",
              "pitch": 63,
              "beat": 0.0,
              "dur": 0.5,
              "vel": 100
            },
            {
              "note": "G#3",
              "pitch": 68,
              "beat": 0.0,
              "dur": 0.5,
              "vel": 100
            },
            {
              "note": "D#3",
              "pitch": 63,
              "beat": 0.5,
              "dur": 0.5,
              "vel": 100
            },
            {
              "note": "C3",
              "pitch": 60,
              "beat": 1.0,
              "dur": 1.0,
              "vel": 100
            },
            {
              "note": "G#2",
              "pitch": 56,
              "beat": 2.0,
              "dur": 0.5,
              "vel": 100
            },
            {
              "note": "C3",
              "pitch": 60,
              "beat": 2.5,
              "dur": 0.5,
              "vel": 100
            },
            {
              "note": "D#3",
              "pitch": 63,
              "beat": 3.0,
              "dur": 0.5,
              "vel": 100
            },
            {
              "note": "A#2",
              "pitch": 58,
              "beat": 3.5,
              "dur": 0.5,
              "vel": 100
            },
            {
              "note": "G#3",
              "pitch": 68,
              "beat": 4.0,
              "dur": 1.0,
              "vel": 100
            },
            {
              "note": "B3",
              "pitch": 71,
              "beat": 4.0,
              "dur": 1.0,
              "vel": 100
            },
            {
              "note": "E4",
              "pitch": 76,
              "beat": 4.0,
              "dur": 1.0,
              "vel": 100
            },
            {
              "note": "F#3",
              "pitch": 66,
              "beat": 5.0,
              "dur": 1.0,
              "vel": 100
            },
            {
              "note": "B3",
              "pitch": 71,
              "beat": 5.0,
              "dur": 1.0,
              "vel": 100
            },
            {
              "note": "D#4",
              "pitch": 75,
              "beat": 5.0,
              "dur": 1.0,
              "vel": 100
            },
            {
              "note": "G#3",
              "pitch": 68,
              "beat": 6.0,
              "dur": 1.0,
              "vel": 100
            },
            {
              "note": "C#4",
              "pitch": 73,
              "beat": 6.0,
              "dur": 1.0,
              "vel": 100
            },
            {
              "note": "E3",
              "pitch": 64,
              "beat": 7.0,
              "dur": 1.0,
              "vel": 100
            },
            {
              "note": "B3",
              "pitch": 71,
              "beat": 7.0,
              "dur": 1.0,
              "vel": 100
            }
          ]
        },
        {
          "bar_start": 57.0,
          "bar_end": 64.0,
          "name": "",
          "notes": [
            {
              "note": "C3",
              "pitch": 60,
              "beat": 0.0,
              "dur": 0.75,
              "vel": 100
            },
            {
              "note": "D#3",
              "pitch": 63,
              "beat": 0.0,
              "dur": 0.5,
              "vel": 100
            },
            {
              "note": "G#3",
              "pitch": 68,
              "beat": 0.0,
              "dur": 0.5,
              "vel": 100
            },
            {
              "note": "D#3",
              "pitch": 63,
              "beat": 0.5,
              "dur": 0.5,
              "vel": 100
            },
            {
              "note": "C3",
              "pitch": 60,
              "beat": 1.0,
              "dur": 1.0,
              "vel": 100
            },
            {
              "note": "G#2",
              "pitch": 56,
              "beat": 2.0,
              "dur": 0.5,
              "vel": 100
            },
            {
              "note": "C3",
              "pitch": 60,
              "beat": 2.5,
              "dur": 0.5,
              "vel": 100
            },
            {
              "note": "D#3",
              "pitch": 63,
              "beat": 3.0,
              "dur": 0.5,
              "vel": 100
            },
            {
              "note": "A#2",
              "pitch": 58,
              "beat": 3.5,
              "dur": 0.5,
              "vel": 100
            },
            {
              "note": "G#3",
              "pitch": 68,
              "beat": 4.0,
              "dur": 1.0,
              "vel": 100
            },
            {
              "note": "B3",
              "pitch": 71,
              "beat": 4.0,
              "dur": 1.0,
              "vel": 100
            },
            {
              "note": "E4",
              "pitch": 76,
              "beat": 4.0,
              "dur": 1.0,
              "vel": 100
            },
            {
              "note": "F#3",
              "pitch": 66,
              "beat": 5.0,
              "dur": 1.0,
              "vel": 100
            },
            {
              "note": "B3",
              "pitch": 71,
              "beat": 5.0,
              "dur": 1.0,
              "vel": 100
            },
            {
              "note": "D#4",
              "pitch": 75,
              "beat": 5.0,
              "dur": 1.0,
              "vel": 100
            },
            {
              "note": "G#3",
              "pitch": 68,
              "beat": 6.0,
              "dur": 1.0,
              "vel": 100
            },
            {
              "note": "C#4",
              "pitch": 73,
              "beat": 6.0,
              "dur": 1.0,
              "vel": 100
            },
            {
              "note": "E3",
              "pitch": 64,
              "beat": 7.0,
              "dur": 1.0,
              "vel": 100
            },
            {
              "note": "B3",
              "pitch": 71,
              "beat": 7.0,
              "dur": 1.0,
              "vel": 100
            }
          ]
        },
        {
          "bar_start": 64.0,
          "bar_end": 72.0,
          "name": "",
          "notes": [
            {
              "note": "E4",
              "pitch": 76,
              "beat": 0.0,
              "dur": 2.0,
              "vel": 100
            },
            {
              "note": "G#4",
              "pitch": 80,
              "beat": 0.0,
              "dur": 2.0,
              "vel": 100
            },
            {
              "note": "C#5",
              "pitch": 85,
              "beat": 0.0,
              "dur": 2.0,
              "vel": 100
            },
            {
              "note": "G#3",
              "pitch": 68,
              "beat": 2.0,
              "dur": 2.0,
              "vel": 100
            },
            {
              "note": "E4",
              "pitch": 76,
              "beat": 2.0,
              "dur": 2.0,
              "vel": 100
            },
            {
              "note": "G#4",
              "pitch": 80,
              "beat": 2.0,
              "dur": 2.0,
              "vel": 100
            },
            {
              "note": "G#3",
              "pitch": 68,
              "beat": 4.0,
              "dur": 2.0,
              "vel": 100
            },
            {
              "note": "E4",
              "pitch": 76,
              "beat": 4.0,
              "dur": 2.0,
              "vel": 100
            },
            {
              "note": "G#3",
              "pitch": 68,
              "beat": 6.0,
              "dur": 2.0,
              "vel": 100
            },
            {
              "note": "C#4",
              "pitch": 73,
              "beat": 6.0,
              "dur": 2.0,
              "vel": 100
            }
          ]
        },
        {
          "bar_start": 72.0,
          "bar_end": 88.0,
          "name": "",
          "notes": [
            {
              "note": "C3",
              "pitch": 60,
              "beat": 0.0,
              "dur": 0.75,
              "vel": 100
            },
            {
              "note": "D#3",
              "pitch": 63,
              "beat": 0.0,
              "dur": 0.5,
              "vel": 100
            },
            {
              "note": "G#3",
              "pitch": 68,
              "beat": 0.0,
              "dur": 0.5,
              "vel": 100
            },
            {
              "note": "D#3",
              "pitch": 63,
              "beat": 0.5,
              "dur": 0.5,
              "vel": 100
            },
            {
              "note": "C3",
              "pitch": 60,
              "beat": 1.0,
              "dur": 1.0,
              "vel": 100
            },
            {
              "note": "G#2",
              "pitch": 56,
              "beat": 2.0,
              "dur": 0.5,
              "vel": 100
            },
            {
              "note": "C3",
              "pitch": 60,
              "beat": 2.5,
              "dur": 0.5,
              "vel": 100
            },
            {
              "note": "D#3",
              "pitch": 63,
              "beat": 3.0,
              "dur": 0.5,
              "vel": 100
            },
            {
              "note": "A#2",
              "pitch": 58,
              "beat": 3.5,
              "dur": 0.5,
              "vel": 100
            },
            {
              "note": "G#3",
              "pitch": 68,
              "beat": 4.0,
              "dur": 1.0,
              "vel": 100
            },
            {
              "note": "B3",
              "pitch": 71,
              "beat": 4.0,
              "dur": 1.0,
              "vel": 100
            },
            {
              "note": "E4",
              "pitch": 76,
              "beat": 4.0,
              "dur": 1.0,
              "vel": 100
            },
            {
              "note": "F#3",
              "pitch": 66,
              "beat": 5.0,
              "dur": 1.0,
              "vel": 100
            },
            {
              "note": "B3",
              "pitch": 71,
              "beat": 5.0,
              "dur": 1.0,
              "vel": 100
            },
            {
              "note": "D#4",
              "pitch": 75,
              "beat": 5.0,
              "dur": 1.0,
              "vel": 100
            },
            {
              "note": "G#3",
              "pitch": 68,
              "beat": 6.0,
              "dur": 1.0,
              "vel": 100
            },
            {
              "note": "C#4",
              "pitch": 73,
              "beat": 6.0,
              "dur": 1.0,
              "vel": 100
            },
            {
              "note": "E3",
              "pitch": 64,
              "beat": 7.0,
              "dur": 1.0,
              "vel": 100
            },
            {
              "note": "B3",
              "pitch": 71,
              "beat": 7.0,
              "dur": 1.0,
              "vel": 100
            }
          ]
        }
      ],
      "automations": [],
      "children": []
    },
    "27": {
      "id": "27",
      "name": "Crash",
      "type": "MidiTrack",
      "group_id": "30",
      "devices": [
        {
          "type": "OriginalSimpler",
          "sample": "Crash.wav",
          "Attack": "0.1000000015",
          "SampleStart": "0",
          "LoopMode": "0"
        }
      ],
      "clips": [
        {
          "bar_start": 10.0,
          "bar_end": 10.25,
          "name": "",
          "notes": [
            {
              "note": "C3",
              "pitch": 60,
              "beat": 0.0,
              "dur": 1.0,
              "vel": 127
            }
          ]
        },
        {
          "bar_start": 11.812,
          "bar_end": 12.0,
          "name": "",
          "notes": [
            {
              "note": "C3",
              "pitch": 60,
              "beat": 0.0,
              "dur": 1.0,
              "vel": 127
            }
          ]
        },
        {
          "bar_start": 12.0,
          "bar_end": 12.25,
          "name": "",
          "notes": [
            {
              "note": "C3",
              "pitch": 60,
              "beat": 0.0,
              "dur": 1.0,
              "vel": 127
            }
          ]
        },
        {
          "bar_start": 14.0,
          "bar_end": 14.25,
          "name": "",
          "notes": [
            {
              "note": "C3",
              "pitch": 60,
              "beat": 0.0,
              "dur": 1.0,
              "vel": 127
            }
          ]
        },
        {
          "bar_start": 15.812,
          "bar_end": 16.0,
          "name": "",
          "notes": [
            {
              "note": "C3",
              "pitch": 60,
              "beat": 0.0,
              "dur": 1.0,
              "vel": 127
            }
          ]
        },
        {
          "bar_start": 16.0,
          "bar_end": 16.25,
          "name": "",
          "notes": [
            {
              "note": "C3",
              "pitch": 60,
              "beat": 0.0,
              "dur": 1.0,
              "vel": 127
            }
          ]
        },
        {
          "bar_start": 18.0,
          "bar_end": 18.25,
          "name": "",
          "notes": [
            {
              "note": "C3",
              "pitch": 60,
              "beat": 0.0,
              "dur": 1.0,
              "vel": 127
            }
          ]
        },
        {
          "bar_start": 19.812,
          "bar_end": 20.0,
          "name": "",
          "notes": [
            {
              "note": "C3",
              "pitch": 60,
              "beat": 0.0,
              "dur": 1.0,
              "vel": 127
            }
          ]
        },
        {
          "bar_start": 20.0,
          "bar_end": 20.25,
          "name": "",
          "notes": [
            {
              "note": "C3",
              "pitch": 60,
              "beat": 0.0,
              "dur": 1.0,
              "vel": 127
            }
          ]
        },
        {
          "bar_start": 22.0,
          "bar_end": 22.25,
          "name": "",
          "notes": [
            {
              "note": "C3",
              "pitch": 60,
              "beat": 0.0,
              "dur": 1.0,
              "vel": 127
            }
          ]
        },
        {
          "bar_start": 23.812,
          "bar_end": 24.0,
          "name": "",
          "notes": [
            {
              "note": "C3",
              "pitch": 60,
              "beat": 0.0,
              "dur": 1.0,
              "vel": 127
            }
          ]
        },
        {
          "bar_start": 26.0,
          "bar_end": 26.25,
          "name": "",
          "notes": [
            {
              "note": "C3",
              "pitch": 60,
              "beat": 0.0,
              "dur": 1.0,
              "vel": 127
            }
          ]
        },
        {
          "bar_start": 27.812,
          "bar_end": 28.0,
          "name": "",
          "notes": [
            {
              "note": "C3",
              "pitch": 60,
              "beat": 0.0,
              "dur": 1.0,
              "vel": 127
            }
          ]
        },
        {
          "bar_start": 28.0,
          "bar_end": 28.25,
          "name": "",
          "notes": [
            {
              "note": "C3",
              "pitch": 60,
              "beat": 0.0,
              "dur": 1.0,
              "vel": 127
            }
          ]
        },
        {
          "bar_start": 30.0,
          "bar_end": 30.25,
          "name": "",
          "notes": [
            {
              "note": "C3",
              "pitch": 60,
              "beat": 0.0,
              "dur": 1.0,
              "vel": 127
            }
          ]
        },
        {
          "bar_start": 31.812,
          "bar_end": 32.0,
          "name": "",
          "notes": [
            {
              "note": "C3",
              "pitch": 60,
              "beat": 0.0,
              "dur": 1.0,
              "vel": 127
            }
          ]
        },
        {
          "bar_start": 34.0,
          "bar_end": 34.25,
          "name": "",
          "notes": [
            {
              "note": "C3",
              "pitch": 60,
              "beat": 0.0,
              "dur": 1.0,
              "vel": 127
            }
          ]
        },
        {
          "bar_start": 36.0,
          "bar_end": 36.25,
          "name": "",
          "notes": [
            {
              "note": "C3",
              "pitch": 60,
              "beat": 0.0,
              "dur": 1.0,
              "vel": 127
            }
          ]
        },
        {
          "bar_start": 38.0,
          "bar_end": 38.25,
          "name": "",
          "notes": [
            {
              "note": "C3",
              "pitch": 60,
              "beat": 0.0,
              "dur": 1.0,
              "vel": 127
            }
          ]
        },
        {
          "bar_start": 39.812,
          "bar_end": 40.0,
          "name": "",
          "notes": [
            {
              "note": "C3",
              "pitch": 60,
              "beat": 0.0,
              "dur": 1.0,
              "vel": 127
            }
          ]
        },
        {
          "bar_start": 40.0,
          "bar_end": 40.25,
          "name": "",
          "notes": [
            {
              "note": "C3",
              "pitch": 60,
              "beat": 0.0,
              "dur": 1.0,
              "vel": 127
            }
          ]
        },
        {
          "bar_start": 42.0,
          "bar_end": 42.25,
          "name": "",
          "notes": [
            {
              "note": "C3",
              "pitch": 60,
              "beat": 0.0,
              "dur": 1.0,
              "vel": 127
            }
          ]
        },
        {
          "bar_start": 43.812,
          "bar_end": 44.0,
          "name": "",
          "notes": [
            {
              "note": "C3",
              "pitch": 60,
              "beat": 0.0,
              "dur": 1.0,
              "vel": 127
            }
          ]
        },
        {
          "bar_start": 44.0,
          "bar_end": 44.25,
          "name": "",
          "notes": [
            {
              "note": "C3",
              "pitch": 60,
              "beat": 0.0,
              "dur": 1.0,
              "vel": 127
            }
          ]
        },
        {
          "bar_start": 46.0,
          "bar_end": 46.25,
          "name": "",
          "notes": [
            {
              "note": "C3",
              "pitch": 60,
              "beat": 0.0,
              "dur": 1.0,
              "vel": 127
            }
          ]
        },
        {
          "bar_start": 47.812,
          "bar_end": 48.0,
          "name": "",
          "notes": [
            {
              "note": "C3",
              "pitch": 60,
              "beat": 0.0,
              "dur": 1.0,
              "vel": 127
            }
          ]
        },
        {
          "bar_start": 58.0,
          "bar_end": 58.25,
          "name": "",
          "notes": [
            {
              "note": "C3",
              "pitch": 60,
              "beat": 0.0,
              "dur": 1.0,
              "vel": 127
            }
          ]
        },
        {
          "bar_start": 59.812,
          "bar_end": 60.0,
          "name": "",
          "notes": [
            {
              "note": "C3",
              "pitch": 60,
              "beat": 0.0,
              "dur": 1.0,
              "vel": 127
            }
          ]
        },
        {
          "bar_start": 60.0,
          "bar_end": 60.25,
          "name": "",
          "notes": [
            {
              "note": "C3",
              "pitch": 60,
              "beat": 0.0,
              "dur": 1.0,
              "vel": 127
            }
          ]
        },
        {
          "bar_start": 62.0,
          "bar_end": 62.25,
          "name": "",
          "notes": [
            {
              "note": "C3",
              "pitch": 60,
              "beat": 0.0,
              "dur": 1.0,
              "vel": 127
            }
          ]
        },
        {
          "bar_start": 63.812,
          "bar_end": 64.0,
          "name": "",
          "notes": [
            {
              "note": "C3",
              "pitch": 60,
              "beat": 0.0,
              "dur": 1.0,
              "vel": 127
            }
          ]
        },
        {
          "bar_start": 64.0,
          "bar_end": 64.25,
          "name": "",
          "notes": [
            {
              "note": "C3",
              "pitch": 60,
              "beat": 0.0,
              "dur": 1.0,
              "vel": 127
            }
          ]
        },
        {
          "bar_start": 66.0,
          "bar_end": 66.25,
          "name": "",
          "notes": [
            {
              "note": "C3",
              "pitch": 60,
              "beat": 0.0,
              "dur": 1.0,
              "vel": 127
            }
          ]
        },
        {
          "bar_start": 67.812,
          "bar_end": 68.0,
          "name": "",
          "notes": [
            {
              "note": "C3",
              "pitch": 60,
              "beat": 0.0,
              "dur": 1.0,
              "vel": 127
            }
          ]
        },
        {
          "bar_start": 68.0,
          "bar_end": 68.25,
          "name": "",
          "notes": [
            {
              "note": "C3",
              "pitch": 60,
              "beat": 0.0,
              "dur": 1.0,
              "vel": 127
            }
          ]
        },
        {
          "bar_start": 70.0,
          "bar_end": 70.25,
          "name": "",
          "notes": [
            {
              "note": "C3",
              "pitch": 60,
              "beat": 0.0,
              "dur": 1.0,
              "vel": 127
            }
          ]
        },
        {
          "bar_start": 71.812,
          "bar_end": 72.0,
          "name": "",
          "notes": [
            {
              "note": "C3",
              "pitch": 60,
              "beat": 0.0,
              "dur": 1.0,
              "vel": 127
            }
          ]
        },
        {
          "bar_start": 74.0,
          "bar_end": 74.25,
          "name": "",
          "notes": [
            {
              "note": "C3",
              "pitch": 60,
              "beat": 0.0,
              "dur": 1.0,
              "vel": 127
            }
          ]
        },
        {
          "bar_start": 75.812,
          "bar_end": 76.0,
          "name": "",
          "notes": [
            {
              "note": "C3",
              "pitch": 60,
              "beat": 0.0,
              "dur": 1.0,
              "vel": 127
            }
          ]
        },
        {
          "bar_start": 76.0,
          "bar_end": 76.25,
          "name": "",
          "notes": [
            {
              "note": "C3",
              "pitch": 60,
              "beat": 0.0,
              "dur": 1.0,
              "vel": 127
            }
          ]
        },
        {
          "bar_start": 78.0,
          "bar_end": 78.25,
          "name": "",
          "notes": [
            {
              "note": "C3",
              "pitch": 60,
              "beat": 0.0,
              "dur": 1.0,
              "vel": 127
            }
          ]
        },
        {
          "bar_start": 79.812,
          "bar_end": 80.0,
          "name": "",
          "notes": [
            {
              "note": "C3",
              "pitch": 60,
              "beat": 0.0,
              "dur": 1.0,
              "vel": 127
            }
          ]
        },
        {
          "bar_start": 82.0,
          "bar_end": 82.25,
          "name": "",
          "notes": [
            {
              "note": "C3",
              "pitch": 60,
              "beat": 0.0,
              "dur": 1.0,
              "vel": 127
            }
          ]
        },
        {
          "bar_start": 83.812,
          "bar_end": 84.0,
          "name": "",
          "notes": [
            {
              "note": "C3",
              "pitch": 60,
              "beat": 0.0,
              "dur": 1.0,
              "vel": 127
            }
          ]
        },
        {
          "bar_start": 84.0,
          "bar_end": 84.25,
          "name": "",
          "notes": [
            {
              "note": "C3",
              "pitch": 60,
              "beat": 0.0,
              "dur": 1.0,
              "vel": 127
            }
          ]
        },
        {
          "bar_start": 86.0,
          "bar_end": 86.25,
          "name": "",
          "notes": [
            {
              "note": "C3",
              "pitch": 60,
              "beat": 0.0,
              "dur": 1.0,
              "vel": 127
            }
          ]
        }
      ],
      "automations": [],
      "children": []
    },
    "15": {
      "id": "15",
      "name": "Acapella",
      "type": "AudioTrack",
      "group_id": "18",
      "devices": [
        {
          "type": "Eq8",
          "bands": []
        }
      ],
      "clips": [
        {
          "bar_start": 0.0,
          "bar_end": 91.582,
          "name": ""
        }
      ],
      "automations": [],
      "children": []
    },
    "43": {
      "id": "43",
      "name": "Vinyl",
      "type": "AudioTrack",
      "group_id": "30",
      "devices": [],
      "clips": [
        {
          "bar_start": 0.0,
          "bar_end": 8.0,
          "name": ""
        },
        {
          "bar_start": 48.0,
          "bar_end": 56.0,
          "name": ""
        }
      ],
      "automations": [],
      "children": []
    },
    "44": {
      "id": "44",
      "name": "LFO Sweep",
      "type": "AudioTrack",
      "group_id": "30",
      "devices": [
        {
          "type": "AutoPan",
          "On": "true",
          "Type": "0",
          "Frequency": "1",
          "RateType": "0",
          "BeatRate": "4",
          "StereoMode": "0",
          "Spin": "0",
          "Phase": "180",
          "Offset": "0",
          "IsOn": "true",
          "Quantize": "false",
          "BeatQuantize": "2",
          "NoiseWidth": "0.5",
          "LfoAmount": "0.928571403",
          "LfoInvert": "false",
          "LfoShape": "0"
        }
      ],
      "clips": [
        {
          "bar_start": 0.0,
          "bar_end": 8.0,
          "name": ""
        },
        {
          "bar_start": 48.0,
          "bar_end": 56.0,
          "name": ""
        }
      ],
      "automations": [],
      "children": []
    },
    "45": {
      "id": "45",
      "name": "Uplifter",
      "type": "AudioTrack",
      "group_id": "30",
      "devices": [],
      "clips": [
        {
          "bar_start": 3.748,
          "bar_end": 8.0,
          "name": ""
        },
        {
          "bar_start": 8.0,
          "bar_end": 11.656,
          "name": ""
        },
        {
          "bar_start": 51.748,
          "bar_end": 59.656,
          "name": ""
        }
      ],
      "automations": [],
      "children": []
    },
    "29": {
      "id": "29",
      "name": "Drill FX",
      "type": "AudioTrack",
      "group_id": "30",
      "devices": [
        {
          "type": "Eq8",
          "bands": []
        }
      ],
      "clips": [
        {
          "bar_start": 0.0,
          "bar_end": 2.0,
          "name": ""
        },
        {
          "bar_start": 8.0,
          "bar_end": 10.0,
          "name": ""
        },
        {
          "bar_start": 12.0,
          "bar_end": 14.0,
          "name": ""
        },
        {
          "bar_start": 16.0,
          "bar_end": 18.0,
          "name": ""
        },
        {
          "bar_start": 24.0,
          "bar_end": 26.0,
          "name": ""
        },
        {
          "bar_start": 28.0,
          "bar_end": 30.0,
          "name": ""
        },
        {
          "bar_start": 32.0,
          "bar_end": 34.0,
          "name": ""
        },
        {
          "bar_start": 36.0,
          "bar_end": 38.0,
          "name": ""
        },
        {
          "bar_start": 40.0,
          "bar_end": 42.0,
          "name": ""
        },
        {
          "bar_start": 56.0,
          "bar_end": 58.0,
          "name": ""
        },
        {
          "bar_start": 60.0,
          "bar_end": 62.0,
          "name": ""
        },
        {
          "bar_start": 64.0,
          "bar_end": 66.0,
          "name": ""
        },
        {
          "bar_start": 72.0,
          "bar_end": 74.0,
          "name": ""
        },
        {
          "bar_start": 76.0,
          "bar_end": 78.0,
          "name": ""
        },
        {
          "bar_start": 80.0,
          "bar_end": 82.0,
          "name": ""
        },
        {
          "bar_start": 84.0,
          "bar_end": 86.0,
          "name": ""
        }
      ],
      "automations": [],
      "children": []
    },
    "42": {
      "id": "42",
      "name": "Downlifter",
      "type": "AudioTrack",
      "group_id": "30",
      "devices": [
        {
          "type": "Eq8",
          "bands": []
        }
      ],
      "clips": [
        {
          "bar_start": 16.0,
          "bar_end": 20.0,
          "name": ""
        },
        {
          "bar_start": 24.0,
          "bar_end": 28.0,
          "name": ""
        },
        {
          "bar_start": 28.0,
          "bar_end": 32.0,
          "name": ""
        },
        {
          "bar_start": 32.0,
          "bar_end": 35.0,
          "name": ""
        },
        {
          "bar_start": 40.0,
          "bar_end": 44.0,
          "name": ""
        },
        {
          "bar_start": 64.0,
          "bar_end": 68.0,
          "name": ""
        },
        {
          "bar_start": 72.0,
          "bar_end": 76.0,
          "name": ""
        },
        {
          "bar_start": 76.0,
          "bar_end": 80.0,
          "name": ""
        },
        {
          "bar_start": 80.0,
          "bar_end": 84.0,
          "name": ""
        },
        {
          "bar_start": 84.0,
          "bar_end": 87.875,
          "name": ""
        }
      ],
      "automations": [],
      "children": []
    },
    "18": {
      "id": "18",
      "name": "Vocal",
      "type": "GroupTrack",
      "group_id": "-1",
      "devices": [],
      "clips": [],
      "automations": [],
      "children": [
        "15"
      ]
    },
    "31": {
      "id": "31",
      "name": "Drum",
      "type": "GroupTrack",
      "group_id": "-1",
      "devices": [
        {
          "type": "Eq8",
          "bands": []
        },
        {
          "type": "GlueCompressor",
          "Threshold": "-21.9047623",
          "Ratio": "1",
          "Attack": "6",
          "Release": "0",
          "Gain": "0",
          "DryWet": "1"
        }
      ],
      "clips": [],
      "automations": [],
      "children": [
        "21",
        "24",
        "25",
        "26"
      ]
    },
    "40": {
      "id": "40",
      "name": "Instruments",
      "type": "GroupTrack",
      "group_id": "-1",
      "devices": [
        {
          "type": "StereoGain",
          "On": "true",
          "PhaseInvertL": "false",
          "PhaseInvertR": "false",
          "ChannelMode": "1",
          "StereoWidth": "1",
          "MidSideBalance": "1",
          "Mono": "false",
          "BassMono": "false",
          "BassMonoFrequency": "120",
          "Balance": "0",
          "Gain": "0",
          "LegacyGain": "0",
          "Mute": "false",
          "DcFilter": "false"
        },
        {
          "type": "Eq8",
          "bands": []
        },
        {
          "type": "Chorus",
          "On": "true",
          "DelayTime1": "3",
          "HighPassFreq": "1000",
          "DelayTime2": "7",
          "Delay2Mode": "2",
          "Link": "false",
          "ModAmount": "1.89999998",
          "ModFreq": "1.00999999",
          "LfoMultiplier": "false",
          "Feedback": "0",
          "FeedbackSign": "1",
          "DryWet": "0.2539682686"
        },
        {
          "type": "Reverb",
          "PreDelay": "2.5",
          "RoomSize": "100",
          "DecayTime": "27793.0645",
          "FreezeOn": "false"
        }
      ],
      "clips": [],
      "automations": [],
      "children": [
        "37",
        "38",
        "34"
      ]
    },
    "34": {
      "id": "34",
      "name": "Strings Line",
      "type": "GroupTrack",
      "group_id": "40",
      "devices": [
        {
          "type": "Reverb",
          "PreDelay": "2.5",
          "RoomSize": "100",
          "DecayTime": "1465.73853",
          "FreezeOn": "false"
        },
        {
          "type": "StereoGain",
          "On": "true",
          "PhaseInvertL": "false",
          "PhaseInvertR": "false",
          "ChannelMode": "1",
          "StereoWidth": "0.8185940981",
          "MidSideBalance": "1",
          "Mono": "false",
          "BassMono": "false",
          "BassMonoFrequency": "120",
          "Balance": "0",
          "Gain": "1",
          "LegacyGain": "0",
          "Mute": "false",
          "DcFilter": "false"
        },
        {
          "type": "Eq8",
          "bands": []
        },
        {
          "type": "PluginDevice",
          "plugin": "Kickstart 2",
          "preset": "",
          "vst_params": []
        },
        {
          "type": "MultibandDynamics",
          "DryWet": "1"
        },
        {
          "type": "Chorus",
          "On": "true",
          "DelayTime1": "3",
          "HighPassFreq": "1000",
          "DelayTime2": "7",
          "Delay2Mode": "2",
          "Link": "false",
          "ModAmount": "1.89999998",
          "ModFreq": "1.00999999",
          "LfoMultiplier": "false",
          "Feedback": "0",
          "FeedbackSign": "1",
          "DryWet": "0.6587301493"
        },
        {
          "type": "Eq8",
          "bands": []
        },
        {
          "type": "PluginDevice",
          "plugin": "Kickstart 2",
          "preset": "",
          "vst_params": []
        },
        {
          "type": "AutoPan",
          "On": "true",
          "Type": "0",
          "Frequency": "1",
          "RateType": "0",
          "BeatRate": "4",
          "StereoMode": "0",
          "Spin": "0",
          "Phase": "180",
          "Offset": "0",
          "IsOn": "true",
          "Quantize": "false",
          "BeatQuantize": "2",
          "NoiseWidth": "0.5",
          "LfoAmount": "0.1190476194",
          "LfoInvert": "false",
          "LfoShape": "0"
        },
        {
          "type": "Eq8",
          "bands": []
        }
      ],
      "clips": [],
      "automations": [],
      "children": [
        "33",
        "28",
        "35"
      ]
    },
    "30": {
      "id": "30",
      "name": "FX",
      "type": "GroupTrack",
      "group_id": "-1",
      "devices": [],
      "clips": [],
      "automations": [],
      "children": [
        "27",
        "43",
        "44",
        "45",
        "29",
        "42"
      ]
    }
  },
  "track_order": [
    "21",
    "24",
    "25",
    "26",
    "39",
    "33",
    "28",
    "35",
    "37",
    "38",
    "27",
    "15",
    "43",
    "44",
    "45",
    "29",
    "42",
    "18",
    "31",
    "40",
    "34",
    "30"
  ],
  "groups": [
    "18",
    "31",
    "40",
    "34",
    "30"
  ]
}